<?xml version="1.0" encoding="UTF-8" standalone="no"?>
<!-- Created with Inkscape (http://www.inkscape.org/) -->

<svg
   xmlns:dc="http://purl.org/dc/elements/1.1/"
   xmlns:cc="http://creativecommons.org/ns#"
   xmlns:rdf="http://www.w3.org/1999/02/22-rdf-syntax-ns#"
   xmlns:svg="http://www.w3.org/2000/svg"
   xmlns="http://www.w3.org/2000/svg"
   xmlns:sodipodi="http://sodipodi.sourceforge.net/DTD/sodipodi-0.dtd"
   xmlns:inkscape="http://www.inkscape.org/namespaces/inkscape"
   width="63.281277mm"
   height="88.281372mm"
   viewBox="0 0 224.225 312.80801"
   id="svg10449"
   version="1.1"
   inkscape:version="0.91 r13725"
   sodipodi:docname="10C.svg">
  <defs
     id="defs10451" />
  <sodipodi:namedview
     id="base"
     pagecolor="#ffffff"
     bordercolor="#666666"
     borderopacity="1.0"
     inkscape:pageopacity="0.0"
     inkscape:pageshadow="2"
     inkscape:zoom="0.35"
     inkscape:cx="-417.1732"
     inkscape:cy="273.54686"
     inkscape:document-units="px"
     inkscape:current-layer="layer1"
     showgrid="false"
     fit-margin-top="0"
     fit-margin-left="0"
     fit-margin-right="0"
     fit-margin-bottom="0"
     inkscape:window-width="1600"
     inkscape:window-height="838"
     inkscape:window-x="-8"
     inkscape:window-y="-8"
     inkscape:window-maximized="1" />
  <metadata
     id="metadata10454">
    <rdf:RDF>
      <cc:Work
         rdf:about="">
        <dc:format>image/svg+xml</dc:format>
        <dc:type
           rdf:resource="http://purl.org/dc/dcmitype/StillImage" />
        <dc:title></dc:title>
      </cc:Work>
    </rdf:RDF>
  </metadata>
  <g
     inkscape:label="Calque 1"
     inkscape:groupmode="layer"
     id="layer1"
     transform="translate(-133.60177,-493.10106)">
    <g
       transform="translate(-1961.9255,458.78456)"
       id="g4337">
      <g
         transform="matrix(-1,0,0,-1,9023.64,-2088.374)"
         id="g4339">
        <rect
           style="fill:#ffffff;stroke:#000000;stroke-width:0.99699998"
           width="223.228"
           height="311.811"
           x="6704.3862"
           y="-2435"
           rx="10.63"
           ry="10.63"
           id="rect4341" />
      </g>
      <path
         inkscape:connector-curvature="0"
         d="m 2311.627,301.28 0,31.508 -3.11,0 0,-31.508 z m -12.33,31.508 c 2.994,0 5.402,-2.687 5.402,-6.023 l 0,-19.46 c 0,-3.337 -2.41,-6.024 -5.403,-6.024 l -1.745,0 c -2.994,0 -5.406,2.688 -5.406,6.024 l 0,19.46 c 0,3.337 2.412,6.024 5.406,6.024 l 1.745,0 z m -0.9,-2.978 c -1.77,0 -3.192,-1.337 -3.192,-3.002 l 0,-19.723 c 0,-1.664 1.423,-3.006 3.19,-3.006 1.77,0 3.193,1.34 3.193,3.005 l 0,19.723 c 0,1.665 -1.423,3.002 -3.192,3.002 z m -194.742,-249.65 0,-31.51 3.11,0 0,31.51 z m 12.329,-31.508 c -2.994,0 -5.4,2.687 -5.4,6.023 l 0,19.46 c 0,3.337 2.406,6.024 5.4,6.024 l 1.746,0 c 2.994,0 5.406,-2.688 5.406,-6.024 l 0,-19.46 c 0,-3.337 -2.412,-6.024 -5.406,-6.024 l -1.746,0 z m 0.902,2.978 c 1.768,0 3.19,1.337 3.19,3.002 l 0,19.722 c 0,1.665 -1.422,3.007 -3.19,3.007 -1.77,0 -3.192,-1.34 -3.192,-3.006 l 0,-19.723 c 0,-1.665 1.423,-3.002 3.192,-3.002 z m 134.399,134.155 c 2.88,-5.775 4.976,-11.7 5.348,-18.037 0.342,-2.332 -1.075,-2.37 -1.288,-0.73 -4.077,15.594 -25.763,11.372 -25.017,-3.295 0.605,-11.895 12.42,-14.454 18.582,-10.565 2.434,1.433 2.296,0.575 0.968,-0.91 -9.155,-10.213 -3.61,-23.363 8.76,-23.604 13.38,0.794 16.852,14.87 8.645,23.148 -1.02,0.995 -3.283,4.192 0.123,1.957 8.287,-5.89 19.788,0.442 19.553,9.52 -0.434,16.738 -20.84,17.987 -25.204,4.005 -0.42,-1.55 -1.63,-2.328 -1.295,0.305 0.606,4.766 1.857,11.953 5.438,18.205 z m -103.533,0 c 2.88,-5.775 4.976,-11.7 5.348,-18.037 0.342,-2.332 -1.074,-2.37 -1.288,-0.73 -4.076,15.594 -25.763,11.372 -25.017,-3.295 0.605,-11.895 12.42,-14.454 18.582,-10.565 2.434,1.433 2.296,0.575 0.968,-0.91 -9.155,-10.213 -3.61,-23.363 8.76,-23.604 13.38,0.794 16.853,14.87 8.646,23.148 -1.02,0.995 -3.283,4.192 0.124,1.957 8.286,-5.89 19.787,0.442 19.552,9.52 -0.432,16.738 -20.84,17.987 -25.203,4.005 -0.42,-1.55 -1.63,-2.328 -1.295,0.305 0.605,4.766 1.857,11.953 5.437,18.205 z m 51.716,-32.665 c 2.88,-5.776 4.976,-11.7 5.348,-18.037 0.34,-2.332 -1.075,-2.37 -1.288,-0.73 -4.077,15.594 -25.763,11.37 -25.017,-3.295 0.606,-11.895 12.42,-14.454 18.583,-10.565 2.433,1.433 2.296,0.575 0.968,-0.912 -9.154,-10.21 -3.61,-23.36 8.762,-23.6 13.38,0.792 16.85,14.87 8.644,23.147 -1.02,0.995 -3.283,4.19 0.123,1.956 8.286,-5.888 19.786,0.443 19.552,9.52 -0.433,16.74 -20.84,17.988 -25.203,4.007 -0.42,-1.55 -1.63,-2.33 -1.296,0.304 0.605,4.767 1.856,11.954 5.437,18.206 z m 51.817,-32.665 c 2.88,-5.776 4.976,-11.7 5.348,-18.038 0.342,-2.33 -1.075,-2.37 -1.288,-0.728 -4.077,15.592 -25.763,11.37 -25.017,-3.298 0.605,-11.895 12.42,-14.454 18.582,-10.564 2.434,1.433 2.296,0.574 0.968,-0.912 -9.155,-10.21 -3.61,-23.362 8.76,-23.603 13.38,0.794 16.852,14.87 8.645,23.15 -1.02,0.993 -3.283,4.19 0.123,1.955 8.287,-5.888 19.788,0.443 19.553,9.52 -0.434,16.74 -20.84,17.988 -25.204,4.007 -0.42,-1.55 -1.63,-2.33 -1.295,0.304 0.606,4.766 1.857,11.952 5.438,18.205 z m -103.533,0 c 2.88,-5.776 4.976,-11.7 5.348,-18.038 0.342,-2.33 -1.074,-2.37 -1.288,-0.728 -4.076,15.592 -25.763,11.37 -25.017,-3.298 0.605,-11.895 12.42,-14.454 18.582,-10.564 2.434,1.433 2.296,0.574 0.968,-0.912 -9.155,-10.21 -3.61,-23.362 8.76,-23.603 13.38,0.794 16.853,14.87 8.646,23.15 -1.02,0.993 -3.283,4.19 0.124,1.955 8.286,-5.888 19.787,0.443 19.552,9.52 -0.432,16.74 -20.84,17.988 -25.203,4.007 -0.42,-1.55 -1.63,-2.33 -1.295,0.304 0.605,4.766 1.857,11.952 5.437,18.205 z m 14.702,75.199 c -2.88,5.776 -4.976,11.7 -5.348,18.037 -0.342,2.333 1.075,2.372 1.288,0.73 4.076,-15.593 25.763,-11.37 25.017,3.297 -0.604,11.894 -12.418,14.453 -18.58,10.564 -2.435,-1.432 -2.297,-0.573 -0.97,0.913 9.156,10.21 3.61,23.362 -8.76,23.602 -13.38,-0.793 -16.85,-14.87 -8.644,-23.148 1.02,-0.995 3.283,-4.19 -0.123,-1.956 -8.287,5.89 -19.788,-0.442 -19.553,-9.52 0.433,-16.74 20.84,-17.987 25.203,-4.006 0.42,1.55 1.63,2.33 1.295,-0.304 -0.605,-4.767 -1.856,-11.954 -5.437,-18.206 z m 0,65.331 c -2.88,5.775 -4.976,11.7 -5.348,18.037 -0.342,2.332 1.075,2.37 1.288,0.73 4.076,-15.594 25.763,-11.372 25.017,3.295 -0.604,11.895 -12.418,14.454 -18.58,10.565 -2.435,-1.433 -2.297,-0.575 -0.97,0.912 9.156,10.21 3.61,23.36 -8.76,23.602 -13.38,-0.793 -16.85,-14.87 -8.644,-23.148 1.02,-0.995 3.283,-4.192 -0.123,-1.957 -8.287,5.89 -19.788,-0.44 -19.553,-9.52 0.433,-16.738 20.84,-17.987 25.203,-4.005 0.42,1.55 1.63,2.328 1.295,-0.305 -0.605,-4.766 -1.856,-11.953 -5.437,-18.205 z m 103.533,-65.331 c -2.88,5.776 -4.976,11.7 -5.348,18.037 -0.343,2.333 1.073,2.372 1.287,0.73 4.076,-15.593 25.763,-11.37 25.017,3.297 -0.605,11.894 -12.42,14.453 -18.582,10.564 -2.434,-1.432 -2.296,-0.574 -0.968,0.913 9.155,10.21 3.61,23.362 -8.76,23.602 -13.38,-0.793 -16.853,-14.87 -8.646,-23.148 1.02,-0.995 3.284,-4.19 -0.123,-1.956 -8.286,5.89 -19.787,-0.442 -19.552,-9.52 0.432,-16.74 20.84,-17.987 25.203,-4.006 0.42,1.55 1.63,2.33 1.295,-0.304 -0.604,-4.767 -1.856,-11.954 -5.437,-18.206 z m 0,65.331 c -2.88,5.775 -4.976,11.7 -5.348,18.037 -0.343,2.332 1.073,2.37 1.287,0.73 4.076,-15.594 25.763,-11.372 25.017,3.295 -0.605,11.895 -12.42,14.454 -18.582,10.565 -2.434,-1.433 -2.296,-0.575 -0.968,0.91 9.155,10.213 3.61,23.363 -8.76,23.604 -13.38,-0.794 -16.853,-14.87 -8.646,-23.148 1.02,-0.995 3.284,-4.192 -0.123,-1.957 -8.286,5.89 -19.787,-0.442 -19.552,-9.52 0.432,-16.738 20.84,-17.987 25.203,-4.005 0.42,1.55 1.63,2.328 1.295,-0.305 -0.604,-4.766 -1.856,-11.953 -5.437,-18.205 z m -51.35,-32.665 c -2.88,5.775 -4.976,11.7 -5.348,18.037 -0.342,2.33 1.074,2.37 1.287,0.728 4.077,-15.592 25.763,-11.37 25.017,3.297 -0.605,11.895 -12.42,14.454 -18.582,10.564 -2.434,-1.432 -2.296,-0.574 -0.968,0.912 9.155,10.212 3.61,23.362 -8.76,23.603 -13.38,-0.793 -16.852,-14.87 -8.645,-23.148 1.02,-0.994 3.282,-4.19 -0.124,-1.956 -8.287,5.888 -19.788,-0.443 -19.553,-9.52 0.433,-16.74 20.84,-17.988 25.203,-4.007 0.42,1.55 1.63,2.328 1.295,-0.305 -0.604,-4.766 -1.855,-11.953 -5.436,-18.205 z M 2109.2,110.055 c 1.19,-2.445 2.35,-4.72 2.983,-7.4 0.42,-2.528 -0.438,-1.59 -0.925,0.068 -0.722,2.297 -2.723,3.343 -4.58,3.37 -3.37,0.044 -5.053,-2.606 -4.948,-5.455 -0.368,-3 2.67,-5.12 4.96,-4.957 1.724,0.124 3.225,1.053 4.134,1.776 0.597,0.315 1.234,0.455 0.345,-0.358 -1.678,-1.833 -3.077,-2.965 -3.047,-5.71 0.03,-2.58 2.234,-5.27 5.156,-5.185 3.65,0.105 5.31,2.89 5.302,5.48 -0.01,1.89 -0.954,3.627 -2.41,4.703 -0.946,0.766 -0.68,1.34 0.396,0.615 1.035,-0.89 2.267,-1.282 3.545,-1.31 3.49,-0.054 4.855,2.963 4.655,5.765 -0.187,2.626 -2.423,5.33 -5.37,5.023 -2.63,-0.302 -4.012,-2.51 -4.804,-4.777 -0.262,-0.694 -0.676,-0.882 -0.664,0.154 0.607,5.057 2.49,8.204 2.505,8.2 z m 196.903,162.005 c -1.192,2.444 -2.352,4.72 -2.984,7.4 -0.42,2.527 0.437,1.588 0.924,-0.07 0.72,-2.296 2.723,-3.342 4.58,-3.367 3.37,-0.046 5.053,2.604 4.948,5.453 0.368,3 -2.67,5.12 -4.962,4.957 -1.722,-0.123 -3.224,-1.052 -4.133,-1.775 -0.596,-0.315 -1.234,-0.455 -0.345,0.36 1.678,1.83 3.077,2.963 3.046,5.71 -0.03,2.578 -2.233,5.267 -5.155,5.183 -3.652,-0.104 -5.312,-2.89 -5.303,-5.48 0.01,-1.888 0.953,-3.626 2.41,-4.702 0.945,-0.766 0.68,-1.34 -0.397,-0.615 -1.035,0.892 -2.267,1.283 -3.544,1.31 -3.492,0.055 -4.856,-2.96 -4.657,-5.764 0.188,-2.627 2.423,-5.33 5.37,-5.023 2.63,0.3 4.012,2.51 4.805,4.776 0.262,0.696 0.676,0.883 0.664,-0.153 -0.608,-5.057 -2.492,-8.204 -2.505,-8.2 z"
         id="path4343" />
    </g>
  </g>
</svg>
