<?xml version="1.0" encoding="UTF-8" standalone="no"?>
<!-- Created with Inkscape (http://www.inkscape.org/) -->

<svg
   xmlns:dc="http://purl.org/dc/elements/1.1/"
   xmlns:cc="http://creativecommons.org/ns#"
   xmlns:rdf="http://www.w3.org/1999/02/22-rdf-syntax-ns#"
   xmlns:svg="http://www.w3.org/2000/svg"
   xmlns="http://www.w3.org/2000/svg"
   xmlns:sodipodi="http://sodipodi.sourceforge.net/DTD/sodipodi-0.dtd"
   xmlns:inkscape="http://www.inkscape.org/namespaces/inkscape"
   width="63.281277mm"
   height="88.281372mm"
   viewBox="0 0 224.225 312.80801"
   id="svg17365"
   version="1.1"
   inkscape:version="0.91 r13725"
   sodipodi:docname="10D.svg">
  <defs
     id="defs17367" />
  <sodipodi:namedview
     id="base"
     pagecolor="#ffffff"
     bordercolor="#666666"
     borderopacity="1.0"
     inkscape:pageopacity="0.0"
     inkscape:pageshadow="2"
     inkscape:zoom="0.35"
     inkscape:cx="-905.74466"
     inkscape:cy="436.404"
     inkscape:document-units="px"
     inkscape:current-layer="layer1"
     showgrid="false"
     fit-margin-top="0"
     fit-margin-left="0"
     fit-margin-right="0"
     fit-margin-bottom="0"
     inkscape:window-width="1600"
     inkscape:window-height="838"
     inkscape:window-x="-8"
     inkscape:window-y="-8"
     inkscape:window-maximized="1" />
  <metadata
     id="metadata17370">
    <rdf:RDF>
      <cc:Work
         rdf:about="">
        <dc:format>image/svg+xml</dc:format>
        <dc:type
           rdf:resource="http://purl.org/dc/dcmitype/StillImage" />
        <dc:title></dc:title>
      </cc:Work>
    </rdf:RDF>
  </metadata>
  <g
     inkscape:label="Calque 1"
     inkscape:groupmode="layer"
     id="layer1"
     transform="translate(-622.17323,-655.9582)">
    <g
       transform="translate(-6081.7145,3091.4567)"
       id="g4523">
      <rect
         style="fill:#ffffff;stroke:#000000;stroke-width:0.99699998"
         width="223.228"
         height="311.811"
         x="6704.3862"
         y="-2435"
         rx="10.63"
         ry="10.63"
         id="rect4525" />
      <g
         style="fill:#d40000"
         id="g4527">
        <path
           inkscape:connector-curvature="0"
           d="m 6737.235,-2377.695 c 9.92,-9.68 16.437,-20.237 22.668,-30.388 5.464,11.17 13.305,20.942 21.786,30.388 -9.074,9.37 -16.106,19.387 -21.76,29.918 -6.268,-10.795 -12.866,-20.57 -22.695,-29.918 z m 0,65.331 c 9.92,-9.68 16.437,-20.237 22.668,-30.39 5.464,11.17 13.305,20.943 21.786,30.39 -9.074,9.37 -16.106,19.386 -21.76,29.918 -6.268,-10.796 -12.866,-20.572 -22.695,-29.918 z m 0,66.897 c 9.92,-9.682 16.437,-20.237 22.668,-30.39 5.464,11.17 13.305,20.943 21.786,30.39 -9.074,9.368 -16.106,19.386 -21.76,29.918 -6.268,-10.795 -12.866,-20.57 -22.695,-29.917 z m 0,65.105 c 9.92,-9.68 16.437,-20.237 22.668,-30.39 5.464,11.17 13.305,20.944 21.786,30.39 -9.074,9.37 -16.106,19.387 -21.76,29.918 -6.268,-10.796 -12.866,-20.57 -22.695,-29.918 z m 56.185,-162.968 c 9.92,-9.682 16.435,-20.238 22.666,-30.39 5.464,11.17 13.306,20.942 21.786,30.39 -9.073,9.368 -16.105,19.385 -21.76,29.917 -6.267,-10.796 -12.865,-20.572 -22.693,-29.918 z m -0.47,128.34 c 9.922,-9.68 16.437,-20.236 22.668,-30.388 5.465,11.17 13.306,20.942 21.786,30.39 -9.073,9.367 -16.105,19.385 -21.76,29.917 -6.266,-10.797 -12.865,-20.573 -22.693,-29.92 z m 55.818,-162.705 c 9.92,-9.68 16.436,-20.237 22.667,-30.388 5.465,11.17 13.306,20.942 21.787,30.388 -9.074,9.37 -16.106,19.387 -21.76,29.918 -6.267,-10.795 -12.866,-20.57 -22.694,-29.918 z m 0,65.331 c 9.92,-9.68 16.436,-20.237 22.667,-30.39 5.465,11.17 13.306,20.943 21.787,30.39 -9.074,9.37 -16.106,19.386 -21.76,29.918 -6.267,-10.796 -12.866,-20.572 -22.694,-29.918 z m 0,66.897 c 9.92,-9.682 16.436,-20.237 22.667,-30.39 5.465,11.17 13.306,20.943 21.787,30.39 -9.074,9.368 -16.106,19.386 -21.76,29.918 -6.267,-10.795 -12.866,-20.57 -22.694,-29.917 z m 0,65.105 c 9.92,-9.68 16.436,-20.237 22.667,-30.39 5.465,11.17 13.306,20.944 21.787,30.39 -9.074,9.37 -16.106,19.387 -21.76,29.918 -6.267,-10.796 -12.866,-20.57 -22.694,-29.918 z m 52.525,-6.044 c 4.064,-3.966 6.732,-8.29 9.285,-12.45 2.238,4.577 5.45,8.58 8.925,12.45 -3.717,3.837 -6.598,7.94 -8.914,12.255 -2.568,-4.423 -5.27,-8.428 -9.297,-12.256 z m -188.816,-185.858 c 4.064,-3.966 6.733,-8.29 9.286,-12.45 2.238,4.577 5.45,8.58 8.924,12.45 -3.716,3.838 -6.597,7.94 -8.913,12.256 -2.568,-4.423 -5.27,-8.427 -9.297,-12.256 z m -0.463,-17.392 0,-31.506 3.11,0 0,31.506 z m 12.33,-31.506 c -2.995,0 -5.402,2.686 -5.402,6.022 l 0,19.462 c 0,3.336 2.407,6.022 5.402,6.022 l 1.745,0 c 2.993,0 5.405,-2.686 5.405,-6.022 l 0,-19.462 c 0,-3.336 -2.412,-6.022 -5.406,-6.022 l -1.746,0 z m 0.9,2.978 c 1.77,0 3.192,1.337 3.192,3 l 0,19.724 c 0,1.665 -1.423,3.006 -3.19,3.006 -1.77,0 -3.193,-1.34 -3.193,-3.006 l 0,-19.723 c 0,-1.664 1.423,-3 3.192,-3 z m 194.742,249.651 0,31.506 -3.11,0 0,-31.506 z m -12.33,31.506 c 2.994,0 5.402,-2.686 5.402,-6.022 l 0,-19.46 c 0,-3.337 -2.408,-6.023 -5.402,-6.023 l -1.745,0 c -2.993,0 -5.405,2.686 -5.405,6.022 l 0,19.46 c 0,3.337 2.412,6.023 5.406,6.023 l 1.746,0 z m -0.9,-2.978 c -1.77,0 -3.192,-1.337 -3.192,-3 l 0,-19.724 c 0,-1.664 1.423,-3.006 3.19,-3.006 1.77,0 3.193,1.342 3.193,3.007 l 0,19.724 c 0,1.664 -1.423,3 -3.192,3 z"
           id="path4529" />
      </g>
    </g>
  </g>
</svg>
