<?xml version="1.0" encoding="UTF-8" standalone="no"?>
<!-- Created with Inkscape (http://www.inkscape.org/) -->

<svg
   xmlns:dc="http://purl.org/dc/elements/1.1/"
   xmlns:cc="http://creativecommons.org/ns#"
   xmlns:rdf="http://www.w3.org/1999/02/22-rdf-syntax-ns#"
   xmlns:svg="http://www.w3.org/2000/svg"
   xmlns="http://www.w3.org/2000/svg"
   xmlns:sodipodi="http://sodipodi.sourceforge.net/DTD/sodipodi-0.dtd"
   xmlns:inkscape="http://www.inkscape.org/namespaces/inkscape"
   width="63.281277mm"
   height="88.281372mm"
   viewBox="0 0 224.225 312.80801"
   id="svg20287"
   version="1.1"
   inkscape:version="0.91 r13725"
   sodipodi:docname="10H.svg">
  <defs
     id="defs20289" />
  <sodipodi:namedview
     id="base"
     pagecolor="#ffffff"
     bordercolor="#666666"
     borderopacity="1.0"
     inkscape:pageopacity="0.0"
     inkscape:pageshadow="2"
     inkscape:zoom="0.35"
     inkscape:cx="979.96967"
     inkscape:cy="-120.73885"
     inkscape:document-units="px"
     inkscape:current-layer="layer1"
     showgrid="false"
     fit-margin-top="0"
     fit-margin-left="0"
     fit-margin-right="0"
     fit-margin-bottom="0"
     inkscape:window-width="1600"
     inkscape:window-height="838"
     inkscape:window-x="-8"
     inkscape:window-y="-8"
     inkscape:window-maximized="1" />
  <metadata
     id="metadata20292">
    <rdf:RDF>
      <cc:Work
         rdf:about="">
        <dc:format>image/svg+xml</dc:format>
        <dc:type
           rdf:resource="http://purl.org/dc/dcmitype/StillImage" />
        <dc:title></dc:title>
      </cc:Work>
    </rdf:RDF>
  </metadata>
  <g
     inkscape:label="Calque 1"
     inkscape:groupmode="layer"
     id="layer1"
     transform="translate(-85.03033,-190.24392)">
    <g
       transform="translate(-2010.7754,-156.87958)"
       id="g13438">
      <g
         transform="translate(-4608.082,2782.622)"
         id="g13440">
        <rect
           style="fill:#ffffff;stroke:#000000;stroke-width:0.99699998"
           width="223.228"
           height="311.811"
           x="6704.3862"
           y="-2435"
           rx="10.63"
           ry="10.63"
           id="rect13442" />
        <g
           style="fill:#d40000"
           id="g13444">
          <path
             inkscape:connector-curvature="0"
             d="m 6712.014,-2389.656 0,-31.506 3.11,0 0,31.506 z m 12.33,-31.506 c -2.995,0 -5.402,2.686 -5.402,6.022 l 0,19.462 c 0,3.336 2.407,6.022 5.402,6.022 l 1.745,0 c 2.993,0 5.405,-2.686 5.405,-6.022 l 0,-19.462 c 0,-3.336 -2.412,-6.022 -5.406,-6.022 l -1.746,0 z m 0.9,2.978 c 1.77,0 3.192,1.337 3.192,3 l 0,19.724 c 0,1.665 -1.423,3.006 -3.19,3.006 -1.77,0 -3.193,-1.34 -3.193,-3.006 l 0,-19.723 c 0,-1.664 1.423,-3 3.192,-3 z m 194.742,249.651 0,31.506 -3.11,0 0,-31.506 z m -12.33,31.506 c 2.994,0 5.402,-2.686 5.402,-6.022 l 0,-19.46 c 0,-3.337 -2.408,-6.023 -5.402,-6.023 l -1.745,0 c -2.993,0 -5.405,2.686 -5.405,6.022 l 0,19.46 c 0,3.337 2.412,6.023 5.406,6.023 l 1.746,0 z m -0.9,-2.978 c -1.77,0 -3.192,-1.337 -3.192,-3 l 0,-19.724 c 0,-1.664 1.423,-3.006 3.19,-3.006 1.77,0 3.193,1.342 3.193,3.007 l 0,19.724 c 0,1.664 -1.423,3 -3.192,3 z"
             id="path13446" />
        </g>
      </g>
      <path
         style="fill:#d40000"
         inkscape:connector-curvature="0"
         d="m 2104.828,407.762 c -1.583,-3.473 -1.756,-9.406 2.97,-10.208 3.563,-0.46 5.013,1.198 5.3,3.74 0.143,0.744 0.563,0.79 0.696,-0.057 0.204,-2.61 2.787,-4.132 4.806,-3.75 5.527,0.946 5.204,7.03 3.4,11.156 -2.732,5.48 -5.602,8.937 -8.246,14.452 -3.038,-5.74 -6.507,-10.406 -8.926,-15.333 z m 34.502,-31.817 c 7.145,-0.474 10.87,5.628 11.596,10.437 0.433,0.764 0.67,0.548 0.837,-0.043 0.35,-6.175 5.875,-11.22 10.992,-10.53 8.328,0.108 13.39,9.375 11.967,17.218 -1.74,9.582 -6.9,15.35 -10.808,21.293 -4.42,6.153 -10.373,15.04 -12.29,19.318 0,0 -6.048,-9.205 -13.917,-20.03 -5.262,-7.238 -9.473,-15.082 -9.865,-21.835 -0.448,-7.716 2.72,-14.632 11.49,-15.828 z m 56.184,32.665 c 7.144,-0.474 10.868,5.628 11.595,10.437 0.433,0.764 0.67,0.55 0.836,-0.042 0.35,-6.174 5.875,-11.22 10.993,-10.53 8.327,0.108 13.388,9.375 11.965,17.218 -1.738,9.582 -6.9,15.35 -10.808,21.293 -4.42,6.153 -10.372,15.04 -12.29,19.317 0,0 -6.048,-9.204 -13.917,-20.03 -5.262,-7.238 -9.473,-15.082 -9.865,-21.835 -0.448,-7.715 2.72,-14.63 11.49,-15.827 z m 55.35,-32.665 c 7.144,-0.474 10.868,5.628 11.595,10.437 0.432,0.764 0.67,0.548 0.836,-0.043 0.35,-6.175 5.875,-11.22 10.992,-10.53 8.328,0.108 13.39,9.375 11.967,17.218 -1.74,9.582 -6.9,15.35 -10.808,21.293 -4.42,6.153 -10.373,15.04 -12.29,19.318 0,0 -6.05,-9.205 -13.917,-20.03 -5.262,-7.238 -9.474,-15.082 -9.866,-21.835 -0.447,-7.716 2.72,-14.632 11.49,-15.828 z m 0,65.331 c 7.144,-0.475 10.868,5.627 11.595,10.436 0.432,0.764 0.67,0.55 0.836,-0.042 0.35,-6.174 5.875,-11.22 10.992,-10.53 8.328,0.108 13.39,9.375 11.967,17.22 -1.74,9.58 -6.9,15.35 -10.808,21.292 -4.42,6.152 -10.373,15.04 -12.29,19.317 0,0 -6.05,-9.206 -13.917,-20.03 -5.262,-7.24 -9.474,-15.083 -9.866,-21.836 -0.447,-7.716 2.72,-14.632 11.49,-15.828 z m -111.534,0 c 7.145,-0.475 10.87,5.627 11.596,10.436 0.433,0.764 0.67,0.55 0.837,-0.042 0.35,-6.174 5.875,-11.22 10.992,-10.53 8.328,0.108 13.39,9.375 11.967,17.22 -1.74,9.58 -6.9,15.35 -10.808,21.292 -4.42,6.152 -10.373,15.04 -12.29,19.317 0,0 -6.048,-9.206 -13.917,-20.03 -5.262,-7.24 -9.473,-15.083 -9.865,-21.836 -0.448,-7.716 2.72,-14.632 11.49,-15.828 z m 111.534,124.39 c 7.144,0.474 10.868,-5.627 11.595,-10.436 0.432,-0.764 0.67,-0.55 0.836,0.042 0.35,6.174 5.875,11.22 10.992,10.53 8.328,-0.108 13.39,-9.375 11.967,-17.22 -1.74,-9.58 -6.9,-15.35 -10.808,-21.292 -4.42,-6.152 -10.373,-15.04 -12.29,-19.317 0,0 -6.05,9.205 -13.917,20.03 -5.262,7.24 -9.474,15.082 -9.866,21.835 -0.447,7.716 2.72,14.632 11.49,15.828 z m 0,65.106 c 7.144,0.474 10.868,-5.628 11.595,-10.437 0.432,-0.764 0.67,-0.55 0.836,0.042 0.35,6.175 5.875,11.22 10.992,10.53 8.328,-0.108 13.39,-9.375 11.967,-17.218 -1.74,-9.583 -6.9,-15.352 -10.808,-21.294 -4.42,-6.153 -10.373,-15.04 -12.29,-19.317 0,0 -6.05,9.203 -13.917,20.028 -5.262,7.24 -9.474,15.083 -9.866,21.836 -0.447,7.715 2.72,14.632 11.49,15.827 z m -55.818,-32.552 c 7.144,0.473 10.87,-5.63 11.596,-10.438 0.433,-0.764 0.67,-0.548 0.836,0.043 0.35,6.174 5.875,11.22 10.993,10.53 8.33,-0.108 13.39,-9.376 11.967,-17.22 -1.738,-9.58 -6.9,-15.35 -10.807,-21.292 -4.422,-6.152 -10.373,-15.04 -12.29,-19.317 0,0 -6.05,9.205 -13.918,20.03 -5.26,7.238 -9.473,15.082 -9.865,21.835 -0.448,7.717 2.72,14.633 11.49,15.83 z m -55.716,-32.554 c 7.145,0.474 10.87,-5.627 11.596,-10.436 0.433,-0.764 0.67,-0.55 0.837,0.042 0.35,6.174 5.875,11.22 10.992,10.53 8.328,-0.108 13.39,-9.375 11.967,-17.22 -1.74,-9.58 -6.9,-15.35 -10.808,-21.292 -4.42,-6.152 -10.373,-15.04 -12.29,-19.317 0,0 -6.048,9.205 -13.917,20.03 -5.262,7.24 -9.473,15.082 -9.865,21.835 -0.448,7.716 2.72,14.632 11.49,15.828 z m 0,65.106 c 7.145,0.474 10.87,-5.628 11.596,-10.437 0.433,-0.764 0.67,-0.55 0.837,0.042 0.35,6.175 5.875,11.22 10.992,10.53 8.328,-0.108 13.39,-9.375 11.967,-17.218 -1.74,-9.583 -6.9,-15.352 -10.808,-21.294 -4.42,-6.153 -10.373,-15.04 -12.29,-19.317 0,0 -6.048,9.203 -13.917,20.028 -5.262,7.24 -9.473,15.083 -9.865,21.836 -0.448,7.715 2.72,14.632 11.49,15.827 z m 154.313,-32.152 c -1.583,3.472 -1.756,9.405 2.972,10.207 3.562,0.46 5.01,-1.198 5.3,-3.742 0.142,-0.743 0.56,-0.788 0.694,0.06 0.204,2.608 2.786,4.13 4.806,3.75 5.526,-0.947 5.204,-7.03 3.398,-11.157 -2.73,-5.48 -5.6,-8.938 -8.245,-14.452 -3.04,5.74 -6.508,10.405 -8.927,15.333 z"
         id="path13448" />
    </g>
  </g>
</svg>
