<?xml version="1.0" encoding="UTF-8" standalone="no"?>
<!-- Created with Inkscape (http://www.inkscape.org/) -->

<svg
   xmlns:dc="http://purl.org/dc/elements/1.1/"
   xmlns:cc="http://creativecommons.org/ns#"
   xmlns:rdf="http://www.w3.org/1999/02/22-rdf-syntax-ns#"
   xmlns:svg="http://www.w3.org/2000/svg"
   xmlns="http://www.w3.org/2000/svg"
   xmlns:sodipodi="http://sodipodi.sourceforge.net/DTD/sodipodi-0.dtd"
   xmlns:inkscape="http://www.inkscape.org/namespaces/inkscape"
   width="63.281273mm"
   height="88.281357mm"
   viewBox="0 0 224.22499 312.80796"
   id="svg9902"
   version="1.1"
   inkscape:version="0.91 r13725"
   sodipodi:docname="10S.svg">
  <defs
     id="defs9904" />
  <sodipodi:namedview
     id="base"
     pagecolor="#ffffff"
     bordercolor="#666666"
     borderopacity="1.0"
     inkscape:pageopacity="0.0"
     inkscape:pageshadow="2"
     inkscape:zoom="0.35"
     inkscape:cx="-546.4589"
     inkscape:cy="156.40397"
     inkscape:document-units="px"
     inkscape:current-layer="layer1"
     showgrid="false"
     fit-margin-top="0"
     fit-margin-left="0"
     fit-margin-right="0"
     fit-margin-bottom="0"
     inkscape:window-width="1600"
     inkscape:window-height="838"
     inkscape:window-x="-8"
     inkscape:window-y="-8"
     inkscape:window-maximized="1" />
  <metadata
     id="metadata9907">
    <rdf:RDF>
      <cc:Work
         rdf:about="">
        <dc:format>image/svg+xml</dc:format>
        <dc:type
           rdf:resource="http://purl.org/dc/dcmitype/StillImage" />
        <dc:title></dc:title>
      </cc:Work>
    </rdf:RDF>
  </metadata>
  <g
     inkscape:label="Calque 1"
     inkscape:groupmode="layer"
     id="layer1"
     transform="translate(-262.88747,-375.95822)">
    <g
       transform="translate(-1832.9198,-283.97229)"
       id="g4437">
      <g
         transform="matrix(-1,0,0,-1,9023.92,-1462.76)"
         id="g4439">
        <rect
           style="fill:#ffffff;stroke:#000000;stroke-width:0.99699998"
           width="223.228"
           height="311.811"
           x="6704.3862"
           y="-2435"
           rx="10.63"
           ry="10.63"
           id="rect4441" />
        <path
           inkscape:connector-curvature="0"
           d="m 6712.014,-2389.656 0,-31.506 3.11,0 0,31.506 z m 12.33,-31.506 c -2.995,0 -5.402,2.686 -5.402,6.022 l 0,19.462 c 0,3.336 2.407,6.022 5.402,6.022 l 1.745,0 c 2.993,0 5.405,-2.686 5.405,-6.022 l 0,-19.462 c 0,-3.336 -2.412,-6.022 -5.406,-6.022 l -1.746,0 z m 0.9,2.978 c 1.77,0 3.192,1.337 3.192,3 l 0,19.724 c 0,1.665 -1.423,3.006 -3.19,3.006 -1.77,0 -3.193,-1.34 -3.193,-3.006 l 0,-19.723 c 0,-1.664 1.423,-3 3.192,-3 z"
           id="path4443" />
        <g
           style="fill:#000000"
           id="g4445">
          <path
             inkscape:connector-curvature="0"
             d="m 6919.986,-2168.533 0,31.506 -3.11,0 0,-31.506 z m -12.33,31.506 c 2.994,0 5.402,-2.686 5.402,-6.022 l 0,-19.46 c 0,-3.337 -2.408,-6.023 -5.402,-6.023 l -1.745,0 c -2.993,0 -5.405,2.686 -5.405,6.022 l 0,19.46 c 0,3.337 2.412,6.023 5.406,6.023 l 1.746,0 z m -0.9,-2.978 c -1.77,0 -3.192,-1.337 -3.192,-3 l 0,-19.724 c 0,-1.664 1.423,-3.006 3.19,-3.006 1.77,0 3.193,1.342 3.193,3.007 l 0,19.724 c 0,1.664 -1.423,3 -3.192,3 z"
             id="path4447" />
        </g>
      </g>
      <path
         inkscape:connector-curvature="0"
         d="m 2149.24,728.95 c 0.015,-2.026 -1.587,-2.064 -1.57,-0.586 -0.133,7.43 -6.415,11.087 -10.98,10.22 -7.035,-1.338 -9.28,-8.323 -9.214,-12.436 0.207,-12.697 12.988,-22.06 24.52,-38.335 8.45,14.69 22.398,26.23 23.223,37.586 1.097,15.097 -18.01,20.73 -20.738,3.132 -0.176,-1.243 -1.64,-1.802 -1.526,-0.065 0.415,4.822 -0.175,6.83 5.266,18.72 l -14.221,0 c 3.15,-5.556 5.026,-12.376 5.24,-18.237 z m 55.716,32.665 c 0.015,-2.025 -1.587,-2.064 -1.57,-0.585 -0.133,7.428 -6.415,11.086 -10.98,10.218 -7.036,-1.337 -9.28,-8.322 -9.214,-12.435 0.207,-12.696 12.988,-22.058 24.52,-38.335 8.45,14.69 22.397,26.23 23.223,37.586 1.098,15.098 -18.01,20.73 -20.737,3.133 -0.176,-1.243 -1.64,-1.8 -1.526,-0.065 0.414,4.822 -0.175,6.83 5.266,18.72 l -14.222,0 c 3.15,-5.556 5.025,-12.375 5.24,-18.236 z m 55.817,-32.665 c 0.015,-2.026 -1.587,-2.064 -1.57,-0.586 -0.133,7.43 -6.415,11.087 -10.98,10.22 -7.035,-1.338 -9.28,-8.323 -9.214,-12.436 0.206,-12.697 12.987,-22.06 24.52,-38.335 8.45,14.69 22.396,26.23 23.222,37.586 1.098,15.097 -18.01,20.73 -20.737,3.132 -0.176,-1.243 -1.64,-1.802 -1.526,-0.065 0.414,4.822 -0.176,6.83 5.265,18.72 l -14.222,0 c 3.15,-5.556 5.025,-12.376 5.24,-18.237 z m 0,65.33 c 0.015,-2.025 -1.587,-2.064 -1.57,-0.585 -0.133,7.43 -6.415,11.086 -10.98,10.22 -7.035,-1.34 -9.28,-8.323 -9.214,-12.437 0.206,-12.696 12.987,-22.058 24.52,-38.334 8.45,14.69 22.396,26.23 23.222,37.585 1.098,15.098 -18.01,20.73 -20.737,3.132 -0.176,-1.243 -1.64,-1.8 -1.526,-0.065 0.414,4.823 -0.176,6.832 5.265,18.72 l -14.222,0 c 3.15,-5.555 5.025,-12.375 5.24,-18.236 z m -111.533,0 c 0.015,-2.025 -1.587,-2.064 -1.57,-0.585 -0.133,7.43 -6.415,11.086 -10.98,10.22 -7.035,-1.34 -9.28,-8.323 -9.214,-12.437 0.207,-12.696 12.988,-22.058 24.52,-38.334 8.45,14.69 22.398,26.23 23.223,37.585 1.097,15.098 -18.01,20.73 -20.738,3.132 -0.176,-1.243 -1.64,-1.8 -1.526,-0.065 0.415,4.823 -0.175,6.832 5.266,18.72 l -14.221,0 c 3.15,-5.555 5.026,-12.375 5.24,-18.236 z m 111.544,44.135 c 0.015,2.026 -1.587,2.065 -1.57,0.586 -0.133,-7.428 -6.415,-11.085 -10.98,-10.218 -7.036,1.338 -9.28,8.322 -9.214,12.436 0.207,12.696 12.988,22.058 24.52,38.334 8.45,-14.69 22.397,-26.23 23.223,-37.586 1.098,-15.098 -18.01,-20.73 -20.737,-3.132 -0.176,1.243 -1.64,1.8 -1.526,0.065 0.414,-4.824 -0.175,-6.833 5.266,-18.72 l -14.222,0 c 3.15,5.554 5.025,12.374 5.24,18.235 z m 0,65.331 c 0.015,2.025 -1.587,2.064 -1.57,0.586 -0.133,-7.43 -6.415,-11.087 -10.98,-10.22 -7.036,1.338 -9.28,8.323 -9.214,12.436 0.207,12.697 12.988,22.06 24.52,38.335 8.45,-14.69 22.397,-26.23 23.223,-37.586 1.098,-15.098 -18.01,-20.73 -20.737,-3.133 -0.176,1.243 -1.64,1.8 -1.526,0.065 0.414,-4.823 -0.175,-6.832 5.266,-18.72 l -14.222,0 c 3.15,5.555 5.025,12.375 5.24,18.236 z m -55.35,-32.666 c 0.015,2.026 -1.587,2.065 -1.57,0.586 -0.133,-7.428 -6.415,-11.086 -10.98,-10.218 -7.035,1.337 -9.28,8.322 -9.214,12.435 0.207,12.696 12.988,22.058 24.52,38.335 8.45,-14.69 22.398,-26.23 23.223,-37.586 1.098,-15.098 -18.01,-20.73 -20.737,-3.133 -0.176,1.242 -1.64,1.8 -1.526,0.064 0.415,-4.823 -0.175,-6.83 5.266,-18.72 l -14.222,0 c 3.15,5.556 5.026,12.375 5.24,18.236 z m -56.184,-32.665 c 0.016,2.026 -1.586,2.065 -1.568,0.586 -0.134,-7.428 -6.416,-11.085 -10.98,-10.218 -7.036,1.338 -9.282,8.322 -9.215,12.436 0.207,12.696 12.988,22.058 24.52,38.334 8.45,-14.69 22.397,-26.23 23.223,-37.586 1.098,-15.098 -18.01,-20.73 -20.737,-3.132 -0.176,1.243 -1.64,1.8 -1.526,0.065 0.415,-4.824 -0.175,-6.833 5.266,-18.72 l -14.222,0 c 3.15,5.554 5.026,12.374 5.24,18.235 z m 0,65.331 c 0.016,2.025 -1.586,2.064 -1.568,0.586 -0.134,-7.43 -6.416,-11.087 -10.98,-10.22 -7.036,1.338 -9.282,8.323 -9.215,12.436 0.207,12.697 12.988,22.06 24.52,38.335 8.45,-14.69 22.397,-26.23 23.223,-37.586 1.098,-15.098 -18.01,-20.73 -20.737,-3.133 -0.176,1.243 -1.64,1.8 -1.526,0.065 0.415,-4.823 -0.175,-6.832 5.266,-18.72 l -14.222,0 c 3.15,5.555 5.026,12.375 5.24,18.236 z M 2113.093,730.3 c 0.01,-0.872 -0.895,-0.465 -1.017,-0.19 -1.164,1.985 -2.865,2.447 -4.548,1.73 -1.668,-0.708 -2.604,-2.28 -2.454,-4.52 0.31,-3.44 3.035,-7.2 4.355,-9.327 1.25,-1.93 2.627,-4.222 4.076,-7.154 1.697,3.362 2.558,4.32 4.405,7.39 1.627,2.705 3.893,5.353 4.068,8.623 0,2.485 -1.046,4.83 -3.4,5.26 -1.33,0.24 -2.578,-0.443 -3.503,-2.038 -0.282,-0.406 -0.85,-0.194 -0.84,0.362 0.166,2.093 0.956,3.983 2.83,6.212 l -6.887,0 c 1.41,-1.577 2.85,-3.705 2.915,-6.35 z m 188.817,172.745 c 0.01,0.872 -0.897,0.465 -1.02,0.19 -1.162,-1.985 -2.864,-2.447 -4.547,-1.73 -1.667,0.708 -2.604,2.28 -2.454,4.52 0.31,3.44 3.035,7.2 4.354,9.327 1.252,1.93 2.628,4.222 4.077,7.154 1.698,-3.363 2.56,-4.32 4.406,-7.39 1.626,-2.706 3.892,-5.354 4.067,-8.623 0,-2.485 -1.046,-4.832 -3.4,-5.26 -1.33,-0.242 -2.578,0.442 -3.503,2.037 -0.282,0.407 -0.848,0.195 -0.84,-0.362 0.166,-2.093 0.956,-3.983 2.83,-6.212 l -6.887,0 c 1.41,1.576 2.85,3.704 2.916,6.35 z"
         id="path4449" />
    </g>
  </g>
</svg>
