<?xml version="1.0" encoding="UTF-8" standalone="no"?>
<!-- Created with Inkscape (http://www.inkscape.org/) -->

<svg
   xmlns:dc="http://purl.org/dc/elements/1.1/"
   xmlns:cc="http://creativecommons.org/ns#"
   xmlns:rdf="http://www.w3.org/1999/02/22-rdf-syntax-ns#"
   xmlns:svg="http://www.w3.org/2000/svg"
   xmlns="http://www.w3.org/2000/svg"
   xmlns:sodipodi="http://sodipodi.sourceforge.net/DTD/sodipodi-0.dtd"
   xmlns:inkscape="http://www.inkscape.org/namespaces/inkscape"
   width="63.281277mm"
   height="88.281372mm"
   viewBox="0 0 224.225 312.80801"
   id="svg5865"
   version="1.1"
   inkscape:version="0.91 r13725"
   sodipodi:docname="2C.svg">
  <defs
     id="defs5867" />
  <sodipodi:namedview
     id="base"
     pagecolor="#ffffff"
     bordercolor="#666666"
     borderopacity="1.0"
     inkscape:pageopacity="0.0"
     inkscape:pageshadow="2"
     inkscape:zoom="0.35"
     inkscape:cx="-94.316078"
     inkscape:cy="-6.4531453"
     inkscape:document-units="px"
     inkscape:current-layer="layer1"
     showgrid="false"
     fit-margin-top="0"
     fit-margin-left="0"
     fit-margin-right="0"
     fit-margin-bottom="0"
     inkscape:window-width="1600"
     inkscape:window-height="838"
     inkscape:window-x="-8"
     inkscape:window-y="-8"
     inkscape:window-maximized="1" />
  <metadata
     id="metadata5870">
    <rdf:RDF>
      <cc:Work
         rdf:about="">
        <dc:format>image/svg+xml</dc:format>
        <dc:type
           rdf:resource="http://purl.org/dc/dcmitype/StillImage" />
        <dc:title></dc:title>
      </cc:Work>
    </rdf:RDF>
  </metadata>
  <g
     inkscape:label="Calque 1"
     inkscape:groupmode="layer"
     id="layer1"
     transform="translate(189.25535,-213.10105)">
    <g
       transform="translate(-499.32805,178.78559)"
       id="g4273">
      <g
         transform="translate(-5947.358,2781.625)"
         id="g4275">
        <rect
           style="fill:#ffffff;stroke:#000000;stroke-width:0.99699998"
           width="223.228"
           height="311.811"
           x="6257.9292"
           y="-2746.811"
           rx="10.63"
           ry="10.63"
           id="rect4277" />
      </g>
      <path
         inkscape:connector-curvature="0"
         d="m 318.745,81.45 0.165,-2.018 c 0.51,-6.238 1.874,-8.346 9.62,-14.855 3.76,-3.158 4.995,-4.717 5.17,-6.526 0.49,-4.26 -3.352,-5.59 -5.856,-5.613 -3.242,-0.03 -6.91,1.912 -5.16,6.414 l -3.637,1.07 c -0.735,-4.2 0.017,-8.143 3.425,-9.893 4.546,-2.28 10.38,-1.386 13.323,2.206 1.98,2.414 2.428,5.746 1.368,8.356 -3.1,6.67 -13.62,9.605 -14.49,17.318 l 11.63,0 0,-4.295 3.426,0 0,7.907 z m 206.608,218.538 -0.165,2.02 c -0.51,6.238 -1.874,8.346 -9.622,14.854 -3.76,3.16 -4.994,4.718 -5.168,6.527 -0.49,4.26 3.352,5.59 5.855,5.613 3.243,0.03 6.91,-1.912 5.16,-6.414 l 3.638,-1.07 c 0.735,4.2 -0.016,8.143 -3.424,9.893 -4.547,2.28 -10.38,1.385 -13.324,-2.207 -1.978,-2.414 -2.428,-5.746 -1.368,-8.355 3.1,-6.67 13.622,-9.606 14.49,-17.32 l -11.63,0 0,4.296 -3.426,0 0,-7.907 z M 414.8,120.097 c 2.878,-5.775 4.975,-11.7 5.347,-18.037 0.34,-2.332 -1.075,-2.37 -1.288,-0.73 -4.078,15.594 -25.764,11.372 -25.018,-3.295 0.605,-11.895 12.42,-14.454 18.582,-10.565 2.434,1.433 2.296,0.575 0.968,-0.912 -9.155,-10.21 -3.61,-23.36 8.76,-23.602 13.38,0.793 16.852,14.87 8.645,23.148 -1.02,0.995 -3.283,4.192 0.123,1.957 8.287,-5.887 19.788,0.444 19.553,9.52 -0.433,16.74 -20.84,17.99 -25.203,4.007 -0.42,-1.55 -1.63,-2.328 -1.295,0.304 0.605,4.768 1.856,11.955 5.437,18.207 z m 14.7,141.667 c -2.878,5.776 -4.975,11.7 -5.347,18.037 -0.342,2.333 1.074,2.372 1.288,0.73 4.077,-15.593 25.763,-11.37 25.018,3.296 -0.605,11.895 -12.42,14.454 -18.582,10.565 -2.434,-1.432 -2.297,-0.574 -0.968,0.913 9.154,10.21 3.61,23.36 -8.762,23.602 -13.38,-0.793 -16.85,-14.87 -8.644,-23.148 1.02,-0.995 3.284,-4.19 -0.123,-1.956 -8.288,5.89 -19.788,-0.442 -19.553,-9.52 0.432,-16.74 20.84,-17.987 25.203,-4.006 0.42,1.55 1.63,2.33 1.295,-0.304 -0.605,-4.767 -1.857,-11.954 -5.438,-18.206 z M 324.278,109.473 c 1.193,-2.445 2.353,-4.72 2.985,-7.4 0.42,-2.528 -0.44,-1.59 -0.925,0.067 -0.722,2.298 -2.723,3.344 -4.58,3.37 -3.372,0.045 -5.053,-2.605 -4.948,-5.455 -0.368,-2.998 2.67,-5.12 4.96,-4.956 1.724,0.122 3.225,1.05 4.134,1.774 0.597,0.315 1.234,0.454 0.345,-0.36 -1.678,-1.832 -3.077,-2.963 -3.047,-5.71 0.03,-2.578 2.234,-5.268 5.156,-5.183 3.65,0.106 5.31,2.89 5.302,5.48 -0.01,1.89 -0.954,3.628 -2.412,4.704 -0.944,0.766 -0.68,1.34 0.398,0.615 1.035,-0.893 2.267,-1.284 3.545,-1.31 3.49,-0.056 4.855,2.96 4.655,5.763 -0.187,2.626 -2.423,5.328 -5.37,5.022 -2.63,-0.3 -4.012,-2.51 -4.804,-4.777 -0.262,-0.695 -0.676,-0.882 -0.665,0.153 0.607,5.06 2.49,8.206 2.505,8.203 z M 520.092,271.89 c -1.192,2.445 -2.353,4.72 -2.985,7.4 -0.42,2.53 0.44,1.59 0.926,-0.067 0.72,-2.297 2.722,-3.344 4.58,-3.37 3.37,-0.044 5.052,2.605 4.947,5.455 0.37,3 -2.67,5.12 -4.96,4.957 -1.724,-0.123 -3.225,-1.052 -4.134,-1.775 -0.596,-0.316 -1.234,-0.455 -0.345,0.358 1.68,1.833 3.078,2.964 3.047,5.71 -0.03,2.58 -2.234,5.27 -5.155,5.185 -3.652,-0.106 -5.312,-2.89 -5.304,-5.48 0.01,-1.89 0.954,-3.627 2.412,-4.703 0.944,-0.767 0.68,-1.34 -0.398,-0.615 -1.035,0.892 -2.267,1.282 -3.545,1.31 -3.49,0.054 -4.855,-2.962 -4.655,-5.765 0.187,-2.625 2.423,-5.328 5.37,-5.022 2.63,0.302 4.012,2.51 4.804,4.777 0.262,0.695 0.676,0.883 0.665,-0.153 -0.607,-5.057 -2.49,-8.205 -2.505,-8.202 z"
         id="path4279" />
    </g>
  </g>
</svg>
