<?xml version="1.0" encoding="UTF-8" standalone="no"?>
<!-- Created with Inkscape (http://www.inkscape.org/) -->

<svg
   xmlns:dc="http://purl.org/dc/elements/1.1/"
   xmlns:cc="http://creativecommons.org/ns#"
   xmlns:rdf="http://www.w3.org/1999/02/22-rdf-syntax-ns#"
   xmlns:svg="http://www.w3.org/2000/svg"
   xmlns="http://www.w3.org/2000/svg"
   xmlns:sodipodi="http://sodipodi.sourceforge.net/DTD/sodipodi-0.dtd"
   xmlns:inkscape="http://www.inkscape.org/namespaces/inkscape"
   width="63.281277mm"
   height="88.281372mm"
   viewBox="0 0 224.225 312.80801"
   id="svg15050"
   version="1.1"
   inkscape:version="0.91 r13725"
   sodipodi:docname="2H.svg">
  <defs
     id="defs15052" />
  <sodipodi:namedview
     id="base"
     pagecolor="#ffffff"
     bordercolor="#666666"
     borderopacity="1.0"
     inkscape:pageopacity="0.0"
     inkscape:pageshadow="2"
     inkscape:zoom="0.35"
     inkscape:cx="-897.17321"
     inkscape:cy="279.26114"
     inkscape:document-units="px"
     inkscape:current-layer="layer1"
     showgrid="false"
     fit-margin-top="0"
     fit-margin-left="0"
     fit-margin-right="0"
     fit-margin-bottom="0"
     inkscape:window-width="1600"
     inkscape:window-height="838"
     inkscape:window-x="-8"
     inkscape:window-y="-8"
     inkscape:window-maximized="1" />
  <metadata
     id="metadata15055">
    <rdf:RDF>
      <cc:Work
         rdf:about="">
        <dc:format>image/svg+xml</dc:format>
        <dc:type
           rdf:resource="http://purl.org/dc/dcmitype/StillImage" />
        <dc:title></dc:title>
      </cc:Work>
    </rdf:RDF>
  </metadata>
  <g
     inkscape:label="Calque 1"
     inkscape:groupmode="layer"
     id="layer1"
     transform="translate(-613.60178,-498.81534)">
    <g
       id="g15608">
      <rect
         id="rect13360"
         ry="10.63"
         rx="10.63"
         y="499.31384"
         x="614.10028"
         height="311.811"
         width="223.228"
         style="fill:#ffffff;stroke:#000000;stroke-width:0.99699998" />
      <g
         id="g13362"
         style="fill:#d40000"
         transform="translate(303.52909,151.69189)">
        <path
           id="path13364"
           d="m 319.65,407.854 c -1.582,-3.473 -1.756,-9.406 2.972,-10.208 3.562,-0.46 5.01,1.198 5.3,3.74 0.142,0.744 0.56,0.79 0.694,-0.057 0.205,-2.61 2.788,-4.133 4.807,-3.75 5.526,0.945 5.204,7.028 3.398,11.155 -2.73,5.48 -5.6,8.937 -8.244,14.452 -3.038,-5.74 -6.507,-10.405 -8.925,-15.333 z m 187.724,191.271 c -1.583,3.473 -1.756,9.406 2.972,10.208 3.562,0.46 5.01,-1.198 5.3,-3.742 0.142,-0.742 0.56,-0.787 0.694,0.06 0.205,2.61 2.787,4.132 4.807,3.75 5.526,-0.946 5.204,-7.03 3.398,-11.156 -2.73,-5.48 -5.6,-8.937 -8.245,-14.452 -3.038,5.74 -6.507,10.405 -8.926,15.333 z M 318.745,394.26 l 0.165,-2.02 c 0.51,-6.24 1.874,-8.346 9.62,-14.855 3.76,-3.16 4.995,-4.717 5.17,-6.526 0.49,-4.26 -3.352,-5.592 -5.856,-5.615 -3.242,-0.03 -6.91,1.91 -5.16,6.414 l -3.637,1.067 c -0.735,-4.2 0.017,-8.142 3.425,-9.893 4.546,-2.28 10.38,-1.385 13.323,2.207 1.98,2.415 2.428,5.747 1.368,8.357 -3.1,6.67 -13.62,9.606 -14.49,17.32 l 11.63,0 0,-4.296 3.426,0 0,7.908 z m 206.608,218.536 -0.165,2.02 c -0.51,6.238 -1.874,8.345 -9.622,14.854 -3.76,3.16 -4.994,4.718 -5.168,6.526 -0.49,4.26 3.352,5.59 5.855,5.614 3.243,0.03 6.91,-1.91 5.16,-6.414 l 3.638,-1.068 c 0.735,4.2 -0.016,8.142 -3.424,9.893 -4.547,2.28 -10.38,1.386 -13.324,-2.206 -1.978,-2.414 -2.428,-5.746 -1.368,-8.356 3.1,-6.67 13.622,-9.606 14.49,-17.32 l -11.63,0 0,4.296 -3.426,0 0,-7.907 z M 410.1,375.588 c 7.144,-0.475 10.868,5.627 11.595,10.436 0.434,0.764 0.67,0.55 0.837,-0.042 0.35,-6.174 5.875,-11.22 10.993,-10.53 8.328,0.108 13.39,9.375 11.966,17.218 -1.737,9.582 -6.9,15.352 -10.807,21.294 -4.42,6.152 -10.372,15.04 -12.29,19.316 0,0 -6.048,-9.204 -13.917,-20.03 -5.262,-7.238 -9.473,-15.08 -9.865,-21.835 -0.447,-7.715 2.72,-14.63 11.49,-15.827 z m 0,256.302 c 7.144,0.474 10.868,-5.628 11.595,-10.437 0.434,-0.764 0.67,-0.55 0.837,0.042 0.35,6.174 5.875,11.22 10.993,10.53 8.328,-0.108 13.39,-9.375 11.966,-17.22 -1.737,-9.58 -6.9,-15.35 -10.807,-21.292 -4.42,-6.152 -10.372,-15.04 -12.29,-19.317 0,0 -6.048,9.205 -13.917,20.03 -5.262,7.24 -9.473,15.082 -9.865,21.835 -0.447,7.717 2.72,14.633 11.49,15.83 z"
           inkscape:connector-curvature="0" />
      </g>
    </g>
  </g>
</svg>
