<?xml version="1.0" encoding="UTF-8" standalone="no"?>
<!-- Created with Inkscape (http://www.inkscape.org/) -->

<svg
   xmlns:dc="http://purl.org/dc/elements/1.1/"
   xmlns:cc="http://creativecommons.org/ns#"
   xmlns:rdf="http://www.w3.org/1999/02/22-rdf-syntax-ns#"
   xmlns:svg="http://www.w3.org/2000/svg"
   xmlns="http://www.w3.org/2000/svg"
   xmlns:sodipodi="http://sodipodi.sourceforge.net/DTD/sodipodi-0.dtd"
   xmlns:inkscape="http://www.inkscape.org/namespaces/inkscape"
   width="63.281277mm"
   height="88.281372mm"
   viewBox="0 0 224.225 312.80801"
   id="svg5300"
   version="1.1"
   inkscape:version="0.91 r13725"
   sodipodi:docname="2S.svg">
  <defs
     id="defs5302" />
  <sodipodi:namedview
     id="base"
     pagecolor="#ffffff"
     bordercolor="#666666"
     borderopacity="1.0"
     inkscape:pageopacity="0.0"
     inkscape:pageshadow="2"
     inkscape:zoom="0.35"
     inkscape:cx="-546.45893"
     inkscape:cy="156.404"
     inkscape:document-units="px"
     inkscape:current-layer="layer1"
     showgrid="false"
     fit-margin-top="0"
     fit-margin-left="0"
     fit-margin-right="0"
     fit-margin-bottom="0"
     inkscape:window-width="1600"
     inkscape:window-height="838"
     inkscape:window-x="-8"
     inkscape:window-y="-8"
     inkscape:window-maximized="1" />
  <metadata
     id="metadata5305">
    <rdf:RDF>
      <cc:Work
         rdf:about="">
        <dc:format>image/svg+xml</dc:format>
        <dc:type
           rdf:resource="http://purl.org/dc/dcmitype/StillImage" />
        <dc:title></dc:title>
      </cc:Work>
    </rdf:RDF>
  </metadata>
  <g
     inkscape:label="Calque 1"
     inkscape:groupmode="layer"
     id="layer1"
     transform="translate(-262.8875,-375.9582)">
    <g
       transform="translate(-47.447198,-283.97226)"
       id="g4357">
      <g
         transform="translate(-5947.096,3407.24)"
         id="g4359">
        <rect
           style="fill:#ffffff;stroke:#000000;stroke-width:0.99699998"
           width="223.228"
           height="311.811"
           x="6257.9292"
           y="-2746.811"
           rx="10.63"
           ry="10.63"
           id="rect4361" />
        <path
           inkscape:connector-curvature="0"
           d="m 6266.24,-2700.174 0.164,-2.02 c 0.51,-6.238 1.874,-8.345 9.622,-14.854 3.76,-3.16 4.994,-4.718 5.168,-6.526 0.49,-4.26 -3.35,-5.59 -5.855,-5.614 -3.243,-0.03 -6.91,1.91 -5.162,6.414 l -3.637,1.068 c -0.733,-4.2 0.018,-8.142 3.427,-9.893 4.546,-2.28 10.38,-1.384 13.323,2.208 1.978,2.414 2.428,5.746 1.368,8.356 -3.1,6.67 -13.62,9.606 -14.49,17.32 l 11.63,0 0,-4.296 3.426,0 0,7.907 z m 206.608,218.537 -0.165,2.02 c -0.51,6.238 -1.875,8.345 -9.622,14.854 -3.76,3.16 -4.993,4.717 -5.167,6.526 -0.49,4.26 3.35,5.59 5.855,5.614 3.242,0.03 6.91,-1.91 5.16,-6.414 l 3.638,-1.068 c 0.734,4.2 -0.017,8.142 -3.426,9.893 -4.546,2.28 -10.38,1.385 -13.323,-2.207 -1.978,-2.413 -2.428,-5.745 -1.368,-8.355 3.1,-6.67 13.62,-9.606 14.49,-17.32 l -11.63,0 0,4.296 -3.427,0 0,-7.906 z"
           id="path4363" />
      </g>
      <path
         inkscape:connector-curvature="0"
         d="m 421.404,728.593 c 0.015,-2.026 -1.587,-2.065 -1.57,-0.586 -0.133,7.43 -6.415,11.086 -10.98,10.22 -7.035,-1.34 -9.28,-8.323 -9.214,-12.437 0.207,-12.696 12.988,-22.058 24.52,-38.334 8.45,14.69 22.397,26.23 23.223,37.585 1.098,15.1 -18.01,20.73 -20.737,3.134 -0.176,-1.243 -1.64,-1.8 -1.526,-0.065 0.415,4.822 -0.175,6.83 5.266,18.72 l -14.222,0 c 3.15,-5.556 5.026,-12.376 5.24,-18.237 z m 0.011,175.932 c 0.015,2.026 -1.587,2.064 -1.57,0.586 -0.133,-7.428 -6.415,-11.086 -10.98,-10.218 -7.036,1.338 -9.28,8.322 -9.214,12.436 0.208,12.696 12.99,22.058 24.52,38.334 8.45,-14.69 22.398,-26.23 23.224,-37.586 1.098,-15.098 -18.01,-20.73 -20.737,-3.132 -0.176,1.243 -1.64,1.8 -1.526,0.065 0.415,-4.824 -0.174,-6.833 5.267,-18.72 l -14.222,0 c 3.15,5.554 5.025,12.374 5.24,18.235 z M 329.29,729.717 c 0.01,-0.87 -0.895,-0.464 -1.017,-0.19 -1.163,1.986 -2.865,2.448 -4.548,1.732 -1.667,-0.71 -2.604,-2.28 -2.454,-4.523 0.31,-3.438 3.036,-7.2 4.356,-9.326 1.252,-1.93 2.628,-4.222 4.077,-7.154 1.697,3.364 2.558,4.32 4.405,7.392 1.626,2.704 3.892,5.353 4.067,8.622 0,2.485 -1.046,4.832 -3.4,5.26 -1.33,0.242 -2.578,-0.442 -3.503,-2.037 -0.282,-0.407 -0.85,-0.195 -0.84,0.362 0.166,2.093 0.956,3.983 2.83,6.21 l -6.887,0 c 1.41,-1.575 2.85,-3.702 2.916,-6.348 z m 187.724,173.16 c 0.01,0.872 -0.895,0.465 -1.017,0.19 -1.163,-1.985 -2.865,-2.447 -4.548,-1.732 -1.668,0.71 -2.605,2.28 -2.455,4.523 0.31,3.437 3.035,7.2 4.355,9.326 1.252,1.93 2.628,4.222 4.077,7.154 1.697,-3.363 2.558,-4.32 4.405,-7.392 1.626,-2.704 3.892,-5.353 4.067,-8.622 0,-2.485 -1.047,-4.832 -3.4,-5.26 -1.332,-0.24 -2.58,0.442 -3.504,2.038 -0.282,0.406 -0.85,0.194 -0.84,-0.362 0.166,-2.094 0.956,-3.984 2.83,-6.212 l -6.884,0 c 1.41,1.576 2.848,3.704 2.914,6.35 z"
         id="path4365" />
    </g>
  </g>
</svg>
