<?xml version="1.0" encoding="UTF-8" standalone="no"?>
<!-- Created with Inkscape (http://www.inkscape.org/) -->

<svg
   xmlns:dc="http://purl.org/dc/elements/1.1/"
   xmlns:cc="http://creativecommons.org/ns#"
   xmlns:rdf="http://www.w3.org/1999/02/22-rdf-syntax-ns#"
   xmlns:svg="http://www.w3.org/2000/svg"
   xmlns="http://www.w3.org/2000/svg"
   xmlns:sodipodi="http://sodipodi.sourceforge.net/DTD/sodipodi-0.dtd"
   xmlns:inkscape="http://www.inkscape.org/namespaces/inkscape"
   width="63.281277mm"
   height="88.281372mm"
   viewBox="0 0 224.225 312.80801"
   id="svg6437"
   version="1.1"
   inkscape:version="0.91 r13725"
   sodipodi:docname="3C.svg">
  <defs
     id="defs6439" />
  <sodipodi:namedview
     id="base"
     pagecolor="#ffffff"
     bordercolor="#666666"
     borderopacity="1.0"
     inkscape:pageopacity="0.0"
     inkscape:pageshadow="2"
     inkscape:zoom="0.35"
     inkscape:cx="-254.31607"
     inkscape:cy="227.83257"
     inkscape:document-units="px"
     inkscape:current-layer="layer1"
     showgrid="false"
     fit-margin-top="0"
     fit-margin-left="0"
     fit-margin-right="0"
     fit-margin-bottom="0"
     inkscape:window-width="1600"
     inkscape:window-height="838"
     inkscape:window-x="-8"
     inkscape:window-y="-8"
     inkscape:window-maximized="1" />
  <metadata
     id="metadata6442">
    <rdf:RDF>
      <cc:Work
         rdf:about="">
        <dc:format>image/svg+xml</dc:format>
        <dc:type
           rdf:resource="http://purl.org/dc/dcmitype/StillImage" />
        <dc:title></dc:title>
      </cc:Work>
    </rdf:RDF>
  </metadata>
  <g
     inkscape:label="Calque 1"
     inkscape:groupmode="layer"
     id="layer1"
     transform="translate(29.255357,-447.38677)">
    <g
       transform="translate(-562.11006,413.07131)"
       id="g4281">
      <g
         transform="translate(-5947.805,2781.625)"
         id="g4283">
        <rect
           style="fill:#ffffff;stroke:#000000;stroke-width:0.99699998"
           width="223.228"
           height="311.811"
           x="6481.1582"
           y="-2746.811"
           rx="10.63"
           ry="10.63"
           id="rect4285" />
      </g>
      <path
         inkscape:connector-curvature="0"
         d="m 541.802,74.028 2.547,-1.84 c 2.213,3.534 4.684,5.863 8.464,5.462 5.674,-0.38 8.023,-6.22 6.835,-10.623 -1.147,-3.945 -5.846,-5.87 -9.58,-3.762 -0.88,0.496 -1.897,1.11 -1.897,1.11 l -1.33,-2.166 8.765,-10.196 -9.51,0 0,4.22 -3.65,0 0,-7.563 18.59,0 0,2.566 c 0,0 -4.98,5.07 -6.628,7.848 4.055,0.147 7.323,2.668 8.492,6.658 0.687,2.098 0.378,6.9 -0.516,8.968 -1.494,3.45 -5.585,6.25 -9.322,6.41 -6.27,0.416 -9.602,-3.9 -11.262,-7.092 z m 206.33,233.384 -2.547,1.84 c -2.214,-3.534 -4.686,-5.863 -8.466,-5.463 -5.674,0.38 -8.024,6.22 -6.836,10.622 1.147,3.945 5.846,5.87 9.578,3.763 0.88,-0.497 1.9,-1.016 1.9,-1.016 l 1.572,2.033 -9.008,10.233 9.51,0 0,-4.22 3.65,0 0,7.565 -18.59,0 0,-2.567 c 0,0 4.98,-5.068 6.628,-7.847 -4.055,-0.147 -7.323,-2.67 -8.493,-6.658 -0.685,-2.1 -0.377,-6.9 0.518,-8.968 1.494,-3.45 5.584,-6.25 9.322,-6.412 6.27,-0.414 9.6,3.902 11.262,7.094 z M 637.616,219.29 c 2.88,-5.775 4.976,-11.7 5.348,-18.037 0.342,-2.332 -1.075,-2.37 -1.288,-0.728 -4.077,15.592 -25.763,11.37 -25.017,-3.297 0.604,-11.895 12.418,-14.454 18.58,-10.564 2.435,1.432 2.297,0.574 0.97,-0.912 -9.156,-10.212 -3.61,-23.362 8.76,-23.603 13.38,0.793 16.85,14.87 8.644,23.148 -1.02,0.994 -3.283,4.19 0.123,1.956 8.287,-5.888 19.788,0.443 19.553,9.52 -0.433,16.74 -20.84,17.988 -25.203,4.006 -0.42,-1.55 -1.63,-2.328 -1.295,0.305 0.605,4.766 1.856,11.953 5.437,18.205 z m -0.064,-98.42 c 2.88,-5.777 4.976,-11.702 5.348,-18.04 0.342,-2.33 -1.074,-2.37 -1.288,-0.727 -4.076,15.592 -25.762,11.37 -25.017,-3.297 0.605,-11.895 12.42,-14.454 18.583,-10.564 2.433,1.432 2.296,0.574 0.967,-0.912 -9.154,-10.212 -3.61,-23.362 8.762,-23.603 13.38,0.794 16.85,14.87 8.644,23.15 -1.02,0.993 -3.283,4.19 0.124,1.955 8.287,-5.888 19.787,0.443 19.553,9.52 -0.433,16.74 -20.84,17.988 -25.204,4.007 -0.42,-1.552 -1.63,-2.33 -1.295,0.303 0.605,4.767 1.857,11.953 5.438,18.206 z m 14.702,139.96 c -2.88,5.776 -4.976,11.7 -5.348,18.038 -0.34,2.33 1.075,2.37 1.288,0.728 4.077,-15.592 25.763,-11.37 25.017,3.297 -0.604,11.895 -12.418,14.454 -18.58,10.564 -2.434,-1.432 -2.297,-0.574 -0.97,0.912 9.156,10.21 3.61,23.36 -8.76,23.602 -13.38,-0.794 -16.85,-14.87 -8.644,-23.15 1.02,-0.993 3.283,-4.19 -0.123,-1.955 -8.287,5.888 -19.787,-0.443 -19.553,-9.52 0.433,-16.74 20.84,-17.988 25.203,-4.007 0.42,1.55 1.63,2.33 1.295,-0.304 -0.605,-4.766 -1.856,-11.953 -5.437,-18.206 z M 547.723,109.906 c 1.192,-2.445 2.352,-4.72 2.984,-7.4 0.42,-2.528 -0.438,-1.59 -0.925,0.067 -0.72,2.298 -2.722,3.344 -4.58,3.37 -3.37,0.045 -5.052,-2.605 -4.948,-5.455 -0.368,-2.998 2.67,-5.12 4.962,-4.956 1.722,0.122 3.224,1.052 4.133,1.775 0.595,0.315 1.233,0.454 0.344,-0.36 -1.678,-1.832 -3.077,-2.963 -3.046,-5.71 0.03,-2.578 2.233,-5.268 5.155,-5.183 3.652,0.105 5.312,2.89 5.304,5.48 -0.01,1.89 -0.954,3.626 -2.412,4.703 -0.944,0.766 -0.68,1.34 0.398,0.615 1.035,-0.892 2.267,-1.283 3.545,-1.31 3.49,-0.055 4.855,2.96 4.655,5.764 -0.188,2.626 -2.423,5.328 -5.37,5.022 -2.63,-0.3 -4.012,-2.51 -4.804,-4.777 -0.264,-0.694 -0.677,-0.88 -0.666,0.154 0.608,5.058 2.492,8.205 2.505,8.202 z M 742.8,272.264 c -1.193,2.445 -2.353,4.72 -2.985,7.4 -0.42,2.528 0.438,1.59 0.925,-0.068 0.72,-2.297 2.723,-3.344 4.58,-3.37 3.37,-0.044 5.053,2.606 4.948,5.455 0.368,3 -2.67,5.12 -4.962,4.958 -1.722,-0.123 -3.224,-1.052 -4.133,-1.775 -0.596,-0.315 -1.234,-0.455 -0.344,0.358 1.676,1.834 3.075,2.965 3.045,5.712 -0.03,2.58 -2.234,5.268 -5.156,5.184 -3.652,-0.106 -5.313,-2.89 -5.304,-5.48 0.01,-1.89 0.953,-3.627 2.41,-4.703 0.945,-0.766 0.68,-1.34 -0.396,-0.615 -1.035,0.892 -2.268,1.282 -3.545,1.31 -3.49,0.055 -4.855,-2.962 -4.655,-5.764 0.187,-2.626 2.422,-5.33 5.37,-5.023 2.63,0.303 4.012,2.51 4.804,4.778 0.262,0.695 0.676,0.883 0.664,-0.153 -0.607,-5.057 -2.49,-8.204 -2.505,-8.2 z"
         id="path4287" />
    </g>
  </g>
</svg>
