<?xml version="1.0" encoding="UTF-8" standalone="no"?>
<!-- Created with Inkscape (http://www.inkscape.org/) -->

<svg
   xmlns:dc="http://purl.org/dc/elements/1.1/"
   xmlns:cc="http://creativecommons.org/ns#"
   xmlns:rdf="http://www.w3.org/1999/02/22-rdf-syntax-ns#"
   xmlns:svg="http://www.w3.org/2000/svg"
   xmlns="http://www.w3.org/2000/svg"
   xmlns:sodipodi="http://sodipodi.sourceforge.net/DTD/sodipodi-0.dtd"
   xmlns:inkscape="http://www.inkscape.org/namespaces/inkscape"
   width="63.281277mm"
   height="88.281372mm"
   viewBox="0 0 224.225 312.80801"
   id="svg16206"
   version="1.1"
   inkscape:version="0.91 r13725"
   sodipodi:docname="3H.svg">
  <defs
     id="defs16208" />
  <sodipodi:namedview
     id="base"
     pagecolor="#ffffff"
     bordercolor="#666666"
     borderopacity="1.0"
     inkscape:pageopacity="0.0"
     inkscape:pageshadow="2"
     inkscape:zoom="0.35"
     inkscape:cx="-437.17321"
     inkscape:cy="302.11828"
     inkscape:document-units="px"
     inkscape:current-layer="layer1"
     showgrid="false"
     fit-margin-top="0"
     fit-margin-left="0"
     fit-margin-right="0"
     fit-margin-bottom="0"
     inkscape:window-width="1600"
     inkscape:window-height="838"
     inkscape:window-x="-8"
     inkscape:window-y="-8"
     inkscape:window-maximized="1" />
  <metadata
     id="metadata16211">
    <rdf:RDF>
      <cc:Work
         rdf:about="">
        <dc:format>image/svg+xml</dc:format>
        <dc:type
           rdf:resource="http://purl.org/dc/dcmitype/StillImage" />
        <dc:title></dc:title>
      </cc:Work>
    </rdf:RDF>
  </metadata>
  <g
     inkscape:label="Calque 1"
     inkscape:groupmode="layer"
     id="layer1"
     transform="translate(-153.60178,-521.67248)">
    <g
       transform="translate(-379.54792,174.54902)"
       id="g16185">
      <g
         id="g13366"
         transform="translate(-5947.51,3094.433)">
        <rect
           style="fill:#ffffff;stroke:#000000;stroke-width:0.99699998"
           id="rect13368"
           ry="10.63"
           rx="10.63"
           y="-2746.811"
           x="6481.1582"
           height="311.811"
           width="223.228" />
        <g
           style="fill:#d40000"
           id="g13370">
          <path
             inkscape:connector-curvature="0"
             id="path13372"
             d="m 6489.607,-2707.598 2.547,-1.84 c 2.214,3.534 4.685,5.863 8.465,5.463 5.673,-0.382 8.022,-6.22 6.835,-10.623 -1.147,-3.945 -5.846,-5.87 -9.58,-3.763 -0.88,0.496 -1.897,1.11 -1.897,1.11 l -1.33,-2.167 8.765,-10.194 -9.51,0 0,4.218 -3.65,0 0,-7.565 18.59,0 0,2.568 c 0,0 -4.98,5.07 -6.628,7.848 4.055,0.148 7.323,2.67 8.492,6.658 0.687,2.1 0.378,6.902 -0.516,8.968 -1.493,3.452 -5.583,6.25 -9.32,6.412 -6.27,0.414 -9.603,-3.902 -11.263,-7.094 z m 206.33,233.384 -2.547,1.84 c -2.214,-3.533 -4.685,-5.863 -8.465,-5.462 -5.674,0.382 -8.023,6.22 -6.836,10.623 1.146,3.945 5.845,5.87 9.578,3.763 0.88,-0.497 1.898,-1.016 1.898,-1.016 l 1.573,2.034 -9.01,10.232 9.51,0 0,-4.22 3.65,0 0,7.566 -18.588,0 0,-2.568 c 0,0 4.98,-5.07 6.627,-7.847 -4.056,-0.147 -7.324,-2.668 -8.494,-6.658 -0.686,-2.098 -0.377,-6.9 0.517,-8.968 1.494,-3.45 5.584,-6.25 9.322,-6.41 6.27,-0.415 9.602,3.9 11.262,7.092 z" />
        </g>
      </g>
      <path
         style="fill:#d40000"
         inkscape:connector-curvature="0"
         id="path13374"
         d="m 543.39,408.287 c -1.583,-3.473 -1.757,-9.406 2.97,-10.208 3.563,-0.46 5.013,1.197 5.3,3.74 0.143,0.743 0.563,0.79 0.696,-0.058 0.204,-2.61 2.787,-4.133 4.806,-3.75 5.527,0.945 5.204,7.03 3.4,11.156 -2.732,5.48 -5.602,8.937 -8.246,14.45 -3.04,-5.74 -6.508,-10.404 -8.926,-15.33 z m 89.758,-31.927 c 7.144,-0.475 10.868,5.627 11.595,10.436 0.434,0.763 0.67,0.548 0.837,-0.043 0.35,-6.174 5.875,-11.22 10.993,-10.53 8.328,0.108 13.39,9.375 11.966,17.22 -1.74,9.58 -6.9,15.35 -10.81,21.292 -4.42,6.152 -10.37,15.04 -12.29,19.317 0,0 -6.047,-9.205 -13.916,-20.03 -5.262,-7.238 -9.473,-15.082 -9.865,-21.835 -0.45,-7.716 2.718,-14.632 11.488,-15.828 z m 0.062,98.42 c 7.145,-0.473 10.87,5.628 11.597,10.437 0.433,0.764 0.67,0.55 0.837,-0.042 0.35,-6.174 5.874,-11.22 10.992,-10.53 8.328,0.108 13.39,9.375 11.967,17.22 -1.74,9.58 -6.9,15.35 -10.808,21.292 -4.422,6.152 -10.373,15.04 -12.29,19.317 0,0 -6.05,-9.205 -13.918,-20.03 -5.26,-7.24 -9.473,-15.082 -9.865,-21.835 -0.448,-7.717 2.72,-14.633 11.49,-15.83 z m 97.167,124.718 c -1.583,3.473 -1.757,9.406 2.97,10.208 3.563,0.46 5.012,-1.198 5.3,-3.74 0.143,-0.744 0.562,-0.79 0.695,0.057 0.205,2.61 2.788,4.133 4.807,3.75 5.525,-0.945 5.203,-7.03 3.397,-11.156 -2.73,-5.48 -5.6,-8.937 -8.245,-14.45 -3.038,5.74 -6.507,10.404 -8.925,15.33 z m -97.229,31.457 c 7.144,0.475 10.868,-5.627 11.595,-10.436 0.434,-0.765 0.67,-0.55 0.837,0.04 0.35,6.175 5.875,11.22 10.993,10.53 8.328,-0.107 13.39,-9.374 11.966,-17.217 -1.74,-9.582 -6.9,-15.35 -10.81,-21.293 -4.42,-6.153 -10.37,-15.04 -12.29,-19.317 0,0 -6.047,9.204 -13.916,20.03 -5.262,7.238 -9.473,15.082 -9.865,21.835 -0.45,7.715 2.718,14.63 11.488,15.827 z" />
    </g>
  </g>
</svg>
