<?xml version="1.0" encoding="UTF-8" standalone="no"?>
<!-- Created with Inkscape (http://www.inkscape.org/) -->

<svg
   xmlns:dc="http://purl.org/dc/elements/1.1/"
   xmlns:cc="http://creativecommons.org/ns#"
   xmlns:rdf="http://www.w3.org/1999/02/22-rdf-syntax-ns#"
   xmlns:svg="http://www.w3.org/2000/svg"
   xmlns="http://www.w3.org/2000/svg"
   xmlns:sodipodi="http://sodipodi.sourceforge.net/DTD/sodipodi-0.dtd"
   xmlns:inkscape="http://www.inkscape.org/namespaces/inkscape"
   width="63.281277mm"
   height="88.281372mm"
   viewBox="0 0 224.225 312.80801"
   id="svg5875"
   version="1.1"
   inkscape:version="0.91 r13725"
   sodipodi:docname="3S.svg">
  <defs
     id="defs5877" />
  <sodipodi:namedview
     id="base"
     pagecolor="#ffffff"
     bordercolor="#666666"
     borderopacity="1.0"
     inkscape:pageopacity="0.0"
     inkscape:pageshadow="2"
     inkscape:zoom="0.35"
     inkscape:cx="-137.17321"
     inkscape:cy="224.97543"
     inkscape:document-units="px"
     inkscape:current-layer="layer1"
     showgrid="false"
     fit-margin-top="0"
     fit-margin-left="0"
     fit-margin-right="0"
     fit-margin-bottom="0"
     inkscape:window-width="1600"
     inkscape:window-height="838"
     inkscape:window-x="-8"
     inkscape:window-y="-8"
     inkscape:window-maximized="1" />
  <metadata
     id="metadata5880">
    <rdf:RDF>
      <cc:Work
         rdf:about="">
        <dc:format>image/svg+xml</dc:format>
        <dc:type
           rdf:resource="http://purl.org/dc/dcmitype/StillImage" />
        <dc:title></dc:title>
      </cc:Work>
    </rdf:RDF>
  </metadata>
  <g
     inkscape:label="Calque 1"
     inkscape:groupmode="layer"
     id="layer1"
     transform="translate(146.39822,-444.52963)">
    <g
       transform="translate(-679.80792,-215.40083)"
       id="g4367">
      <g
         transform="translate(-5947.25,3407.24)"
         id="g4369">
        <rect
           style="fill:#ffffff;stroke:#000000;stroke-width:0.99699998"
           width="223.228"
           height="311.811"
           x="6481.1582"
           y="-2746.811"
           rx="10.63"
           ry="10.63"
           id="rect4371" />
        <path
           inkscape:connector-curvature="0"
           d="m 6489.607,-2707.598 2.547,-1.84 c 2.214,3.534 4.685,5.863 8.465,5.463 5.673,-0.382 8.022,-6.22 6.835,-10.623 -1.147,-3.945 -5.846,-5.87 -9.58,-3.763 -0.88,0.496 -1.897,1.11 -1.897,1.11 l -1.33,-2.167 8.765,-10.194 -9.51,0 0,4.218 -3.65,0 0,-7.565 18.59,0 0,2.568 c 0,0 -4.98,5.07 -6.628,7.848 4.055,0.148 7.323,2.67 8.492,6.658 0.687,2.1 0.378,6.902 -0.516,8.968 -1.493,3.452 -5.583,6.25 -9.32,6.412 -6.27,0.414 -9.603,-3.902 -11.263,-7.094 z m 206.33,233.384 -2.547,1.84 c -2.214,-3.533 -4.685,-5.863 -8.465,-5.462 -5.674,0.382 -8.023,6.22 -6.836,10.623 1.146,3.945 5.845,5.87 9.578,3.763 0.88,-0.497 1.898,-1.016 1.898,-1.016 l 1.573,2.034 -9.01,10.232 9.51,0 0,-4.22 3.65,0 0,7.566 -18.588,0 0,-2.568 c 0,0 4.98,-5.07 6.627,-7.847 -4.056,-0.147 -7.324,-2.668 -8.494,-6.658 -0.686,-2.098 -0.377,-6.9 0.517,-8.968 1.494,-3.45 5.584,-6.25 9.322,-6.41 6.27,-0.415 9.602,3.9 11.262,7.092 z"
           id="path4373" />
      </g>
      <path
         inkscape:connector-curvature="0"
         d="m 643.32,729.364 c 0.014,-2.026 -1.588,-2.064 -1.57,-0.586 -0.134,7.43 -6.416,11.087 -10.98,10.22 -7.036,-1.338 -9.282,-8.323 -9.215,-12.436 0.207,-12.697 12.988,-22.06 24.52,-38.335 8.45,14.69 22.398,26.23 23.223,37.586 1.098,15.098 -18.01,20.73 -20.737,3.133 -0.175,-1.243 -1.638,-1.802 -1.525,-0.065 0.415,4.823 -0.175,6.832 5.266,18.72 l -14.22,0 c 3.15,-5.555 5.025,-12.375 5.24,-18.236 z m 0.073,75.546 c 0.015,2.026 -1.587,2.065 -1.568,0.586 -0.135,-7.43 -6.417,-11.086 -10.98,-10.22 -7.037,1.34 -9.283,8.323 -9.216,12.437 0.207,12.696 12.987,22.058 24.52,38.334 8.45,-14.69 22.397,-26.23 23.222,-37.585 1.098,-15.098 -18.008,-20.73 -20.736,-3.133 -0.176,1.242 -1.64,1.8 -1.527,0.064 0.414,-4.823 -0.175,-6.832 5.265,-18.72 l -14.222,0 c 3.15,5.555 5.026,12.375 5.24,18.236 z m -0.063,98.68 c 0.015,2.027 -1.587,2.066 -1.57,0.587 -0.133,-7.428 -6.415,-11.086 -10.98,-10.218 -7.035,1.336 -9.28,8.32 -9.214,12.434 0.207,12.696 12.988,22.058 24.52,38.335 8.45,-14.692 22.397,-26.23 23.223,-37.587 1.097,-15.098 -18.01,-20.73 -20.738,-3.133 -0.176,1.243 -1.64,1.8 -1.526,0.065 0.415,-4.823 -0.175,-6.83 5.266,-18.72 l -14.221,0 c 3.15,5.556 5.025,12.375 5.24,18.236 z M 551.902,730.15 c 0.01,-0.87 -0.896,-0.464 -1.018,-0.19 -1.163,1.986 -2.865,2.448 -4.548,1.732 -1.667,-0.71 -2.604,-2.28 -2.454,-4.522 0.31,-3.438 3.036,-7.2 4.355,-9.326 1.252,-1.93 2.628,-4.223 4.077,-7.155 1.697,3.363 2.56,4.32 4.405,7.39 1.625,2.705 3.892,5.354 4.067,8.623 0,2.485 -1.046,4.832 -3.4,5.26 -1.33,0.242 -2.578,-0.442 -3.504,-2.037 -0.28,-0.407 -0.848,-0.195 -0.84,0.362 0.166,2.093 0.957,3.983 2.83,6.21 l -6.886,0 c 1.41,-1.575 2.848,-3.702 2.915,-6.348 z m 186.982,173.1 c 0.01,0.872 -0.896,0.465 -1.018,0.19 -1.163,-1.985 -2.865,-2.447 -4.548,-1.73 -1.667,0.708 -2.604,2.28 -2.454,4.52 0.31,3.44 3.035,7.2 4.355,9.327 1.25,1.93 2.627,4.222 4.076,7.154 1.697,-3.362 2.558,-4.32 4.405,-7.39 1.627,-2.705 3.893,-5.353 4.068,-8.623 0,-2.485 -1.046,-4.832 -3.4,-5.26 -1.33,-0.24 -2.578,0.442 -3.503,2.038 -0.282,0.406 -0.85,0.194 -0.84,-0.362 0.166,-2.093 0.956,-3.983 2.83,-6.212 l -6.887,0 c 1.41,1.577 2.85,3.705 2.916,6.35 z"
         id="path4375" />
    </g>
  </g>
</svg>
