<?xml version="1.0" encoding="UTF-8" standalone="no"?>
<!-- Created with Inkscape (http://www.inkscape.org/) -->

<svg
   xmlns:dc="http://purl.org/dc/elements/1.1/"
   xmlns:cc="http://creativecommons.org/ns#"
   xmlns:rdf="http://www.w3.org/1999/02/22-rdf-syntax-ns#"
   xmlns:svg="http://www.w3.org/2000/svg"
   xmlns="http://www.w3.org/2000/svg"
   xmlns:sodipodi="http://sodipodi.sourceforge.net/DTD/sodipodi-0.dtd"
   xmlns:inkscape="http://www.inkscape.org/namespaces/inkscape"
   width="63.281277mm"
   height="88.281372mm"
   viewBox="0 0 224.225 312.80801"
   id="svg7009"
   version="1.1"
   inkscape:version="0.91 r13725"
   sodipodi:docname="4C.svg">
  <defs
     id="defs7011" />
  <sodipodi:namedview
     id="base"
     pagecolor="#ffffff"
     bordercolor="#666666"
     borderopacity="1.0"
     inkscape:pageopacity="0.0"
     inkscape:pageshadow="2"
     inkscape:zoom="0.35"
     inkscape:cx="122.82674"
     inkscape:cy="173.54685"
     inkscape:document-units="px"
     inkscape:current-layer="layer1"
     showgrid="false"
     fit-margin-top="0"
     fit-margin-left="0"
     fit-margin-right="0"
     fit-margin-bottom="0"
     inkscape:window-width="1600"
     inkscape:window-height="838"
     inkscape:window-x="-8"
     inkscape:window-y="-8"
     inkscape:window-maximized="1" />
  <metadata
     id="metadata7014">
    <rdf:RDF>
      <cc:Work
         rdf:about="">
        <dc:format>image/svg+xml</dc:format>
        <dc:type
           rdf:resource="http://purl.org/dc/dcmitype/StillImage" />
        <dc:title></dc:title>
      </cc:Work>
    </rdf:RDF>
  </metadata>
  <g
     inkscape:label="Calque 1"
     inkscape:groupmode="layer"
     id="layer1"
     transform="translate(406.39817,-393.10105)">
    <g
       transform="translate(-1162.7099,358.78559)"
       id="g4289">
      <g
         transform="translate(-5947.576,2781.625)"
         id="g4291">
        <rect
           style="fill:#ffffff;stroke:#000000;stroke-width:0.99699998"
           width="223.228"
           height="311.811"
           x="6704.3862"
           y="-2746.811"
           rx="10.63"
           ry="10.63"
           id="rect4293" />
      </g>
      <path
         inkscape:connector-curvature="0"
         d="m 775.222,81.188 0,-2.813 2.585,0 0,-4.635 -12.925,0 0,-3.272 13.985,-21.098 2.285,0.008 0,21.09 3.953,0 0,3.27 -3.953,0 -0.076,4.637 2.167,0 0,2.813 z m 2.585,-24.097 -8.88,13.378 8.88,0 z m 184.973,243.161 0,2.813 -2.586,0 0,4.636 12.925,0 0,3.272 -13.986,21.098 -2.286,-0.008 0,-21.09 -3.953,0 0,-3.27 3.953,0 0.076,-4.637 -2.166,0 0,-2.813 z m -2.586,24.097 8.88,-13.378 -8.88,0 z M 910.615,118.196 c 2.88,-5.776 4.976,-11.7 5.348,-18.037 0.34,-2.333 -1.075,-2.372 -1.288,-0.73 -4.077,15.593 -25.763,11.37 -25.017,-3.297 0.605,-11.894 12.42,-14.453 18.582,-10.564 2.434,1.432 2.296,0.574 0.968,-0.913 -9.155,-10.21 -3.61,-23.362 8.76,-23.602 13.38,0.793 16.852,14.87 8.645,23.148 -1.02,0.995 -3.283,4.19 0.123,1.956 8.287,-5.89 19.788,0.442 19.553,9.52 -0.434,16.74 -20.84,17.987 -25.204,4.006 -0.42,-1.55 -1.63,-2.33 -1.295,0.304 0.606,4.767 1.857,11.954 5.438,18.206 z m -99.533,0 c 2.88,-5.776 4.976,-11.7 5.348,-18.037 0.342,-2.333 -1.075,-2.372 -1.288,-0.73 -4.076,15.593 -25.763,11.37 -25.017,-3.297 0.605,-11.894 12.42,-14.453 18.582,-10.564 2.434,1.432 2.296,0.574 0.968,-0.913 -9.155,-10.21 -3.61,-23.362 8.76,-23.602 13.38,0.793 16.852,14.87 8.645,23.148 -1.02,0.995 -3.283,4.19 0.123,1.956 8.287,-5.89 19.788,0.442 19.553,9.52 -0.433,16.74 -20.84,17.987 -25.203,4.006 -0.42,-1.55 -1.63,-2.33 -1.295,0.304 0.605,4.767 1.856,11.954 5.437,18.206 z m 114.235,141.706 c -2.88,5.775 -4.976,11.7 -5.348,18.037 -0.343,2.33 1.073,2.37 1.287,0.728 4.076,-15.593 25.762,-11.37 25.017,3.296 -0.605,11.895 -12.42,14.454 -18.582,10.565 -2.434,-1.434 -2.297,-0.576 -0.968,0.91 9.154,10.212 3.61,23.362 -8.762,23.603 -13.38,-0.794 -16.85,-14.87 -8.644,-23.148 1.02,-0.995 3.284,-4.192 -0.123,-1.957 -8.287,5.888 -19.787,-0.443 -19.552,-9.52 0.432,-16.74 20.84,-17.988 25.203,-4.006 0.42,1.55 1.63,2.328 1.295,-0.305 -0.604,-4.766 -1.856,-11.953 -5.437,-18.205 z m -99.533,0 c -2.88,5.775 -4.976,11.7 -5.348,18.037 -0.342,2.33 1.074,2.37 1.288,0.728 4.076,-15.593 25.763,-11.37 25.017,3.296 -0.604,11.895 -12.418,14.454 -18.58,10.565 -2.435,-1.434 -2.297,-0.576 -0.97,0.91 9.156,10.212 3.61,23.362 -8.76,23.603 -13.38,-0.794 -16.852,-14.87 -8.645,-23.148 1.02,-0.995 3.284,-4.192 -0.123,-1.957 -8.286,5.888 -19.787,-0.443 -19.552,-9.52 0.432,-16.74 20.84,-17.988 25.203,-4.006 0.42,1.55 1.63,2.328 1.295,-0.305 -0.605,-4.766 -1.857,-11.953 -5.437,-18.205 z M 770.77,110.236 c 1.192,-2.445 2.352,-4.72 2.984,-7.4 0.42,-2.528 -0.438,-1.59 -0.925,0.068 -0.722,2.297 -2.724,3.343 -4.58,3.37 -3.372,0.044 -5.054,-2.606 -4.95,-5.455 -0.367,-3 2.672,-5.12 4.963,-4.958 1.722,0.123 3.224,1.052 4.133,1.775 0.596,0.315 1.234,0.455 0.345,-0.358 -1.677,-1.834 -3.076,-2.966 -3.045,-5.712 0.03,-2.58 2.233,-5.268 5.155,-5.184 3.65,0.105 5.312,2.89 5.303,5.48 -0.01,1.89 -0.953,3.627 -2.41,4.703 -0.945,0.766 -0.68,1.34 0.397,0.615 1.034,-0.892 2.267,-1.283 3.544,-1.31 3.49,-0.055 4.855,2.962 4.655,5.764 -0.188,2.626 -2.423,5.33 -5.37,5.023 -2.63,-0.303 -4.013,-2.51 -4.805,-4.778 -0.262,-0.695 -0.676,-0.883 -0.664,0.153 0.61,5.057 2.492,8.204 2.506,8.2 z m 195.308,161.259 c -1.192,2.445 -2.352,4.72 -2.985,7.4 -0.42,2.528 0.44,1.59 0.926,-0.068 0.72,-2.297 2.72,-3.344 4.58,-3.37 3.37,-0.044 5.05,2.606 4.947,5.455 0.368,3 -2.67,5.12 -4.962,4.957 -1.722,-0.124 -3.224,-1.053 -4.133,-1.776 -0.596,-0.315 -1.234,-0.455 -0.345,0.358 1.678,1.833 3.077,2.964 3.046,5.71 -0.03,2.58 -2.233,5.27 -5.155,5.185 -3.652,-0.106 -5.312,-2.89 -5.304,-5.48 0.01,-1.89 0.954,-3.627 2.412,-4.703 0.944,-0.766 0.68,-1.34 -0.398,-0.615 -1.035,0.89 -2.267,1.28 -3.545,1.31 -3.49,0.054 -4.855,-2.963 -4.655,-5.765 0.188,-2.626 2.423,-5.33 5.37,-5.023 2.63,0.302 4.012,2.51 4.804,4.777 0.263,0.694 0.676,0.882 0.665,-0.154 -0.608,-5.057 -2.492,-8.204 -2.506,-8.2 z"
         id="path4295" />
    </g>
  </g>
</svg>
