<?xml version="1.0" encoding="UTF-8" standalone="no"?>
<!-- Created with Inkscape (http://www.inkscape.org/) -->

<svg
   xmlns:dc="http://purl.org/dc/elements/1.1/"
   xmlns:cc="http://creativecommons.org/ns#"
   xmlns:rdf="http://www.w3.org/1999/02/22-rdf-syntax-ns#"
   xmlns:svg="http://www.w3.org/2000/svg"
   xmlns="http://www.w3.org/2000/svg"
   xmlns:sodipodi="http://sodipodi.sourceforge.net/DTD/sodipodi-0.dtd"
   xmlns:inkscape="http://www.inkscape.org/namespaces/inkscape"
   width="63.281277mm"
   height="88.281372mm"
   viewBox="0 0 224.225 312.80801"
   id="svg16791"
   version="1.1"
   inkscape:version="0.91 r13725"
   sodipodi:docname="4H.svg">
  <defs
     id="defs16793" />
  <sodipodi:namedview
     id="base"
     pagecolor="#ffffff"
     bordercolor="#666666"
     borderopacity="1.0"
     inkscape:pageopacity="0.0"
     inkscape:pageshadow="2"
     inkscape:zoom="0.35"
     inkscape:cx="-468.60179"
     inkscape:cy="196.404"
     inkscape:document-units="px"
     inkscape:current-layer="layer1"
     showgrid="false"
     fit-margin-top="0"
     fit-margin-left="0"
     fit-margin-right="0"
     fit-margin-bottom="0"
     inkscape:window-width="1600"
     inkscape:window-height="838"
     inkscape:window-x="-8"
     inkscape:window-y="-8"
     inkscape:window-maximized="1" />
  <metadata
     id="metadata16796">
    <rdf:RDF>
      <cc:Work
         rdf:about="">
        <dc:format>image/svg+xml</dc:format>
        <dc:type
           rdf:resource="http://purl.org/dc/dcmitype/StillImage" />
        <dc:title></dc:title>
      </cc:Work>
    </rdf:RDF>
  </metadata>
  <g
     inkscape:label="Calque 1"
     inkscape:groupmode="layer"
     id="layer1"
     transform="translate(-185.03036,-415.9582)">
    <g
       transform="translate(-571.28137,68.834738)"
       id="g16770">
      <g
         id="g13376"
         transform="translate(-5947.576,3094.433)">
        <rect
           style="fill:#ffffff;stroke:#000000;stroke-width:0.99699998"
           id="rect13378"
           ry="10.63"
           rx="10.63"
           y="-2746.811"
           x="6704.3862"
           height="311.811"
           width="223.228" />
        <g
           style="fill:#d40000"
           id="g13380">
          <path
             inkscape:connector-curvature="0"
             id="path13382"
             d="m 6722.22,-2700.437 0,-2.813 2.586,0 0,-4.636 -12.925,0 0,-3.27 13.986,-21.1 2.286,0.01 0,21.09 3.953,0 0,3.272 -3.953,0 -0.076,4.636 2.166,0 0,2.813 z m 2.586,-24.097 -8.88,13.377 8.88,0 z m 184.972,243.16 0,2.813 -2.585,0 0,4.635 12.925,0 0,3.27 -13.985,21.1 -2.285,-0.01 0,-21.09 -3.953,0 0,-3.272 3.953,0 0.076,-4.636 -2.167,0 0,-2.814 z m -2.585,24.097 8.88,-13.377 -8.88,0 z" />
        </g>
      </g>
      <path
         style="fill:#d40000"
         inkscape:connector-curvature="0"
         id="path13384"
         d="m 765.566,408.617 c -1.583,-3.472 -1.757,-9.406 2.97,-10.208 3.563,-0.46 5.012,1.197 5.3,3.74 0.143,0.744 0.562,0.79 0.695,-0.058 0.206,-2.61 2.79,-4.132 4.808,-3.75 5.526,0.946 5.204,7.03 3.398,11.156 -2.73,5.48 -5.6,8.938 -8.245,14.452 -3.037,-5.74 -6.506,-10.405 -8.924,-15.333 z m 36.241,-34.931 c 7.144,-0.474 10.868,5.628 11.595,10.437 0.433,0.764 0.67,0.548 0.837,-0.042 0.348,-6.174 5.874,-11.22 10.992,-10.53 8.328,0.11 13.39,9.376 11.966,17.22 -1.738,9.58 -6.9,15.35 -10.808,21.292 -4.42,6.153 -10.372,15.04 -12.29,19.317 0,0 -6.048,-9.205 -13.917,-20.03 -5.262,-7.24 -9.473,-15.083 -9.865,-21.836 -0.448,-7.715 2.72,-14.632 11.49,-15.828 z m 109.533,0 c 7.144,-0.474 10.868,5.628 11.595,10.437 0.433,0.764 0.67,0.548 0.837,-0.042 0.35,-6.174 5.875,-11.22 10.992,-10.53 8.328,0.11 13.39,9.376 11.967,17.22 -1.738,9.58 -6.9,15.35 -10.807,21.292 -4.42,6.153 -10.373,15.04 -12.29,19.317 0,0 -6.048,-9.205 -13.917,-20.03 -5.262,-7.24 -9.473,-15.083 -9.865,-21.836 -0.447,-7.715 2.72,-14.632 11.49,-15.828 z M 801.807,630.027 c 7.144,0.474 10.868,-5.628 11.595,-10.437 0.433,-0.764 0.67,-0.548 0.837,0.043 0.348,6.174 5.874,11.22 10.992,10.53 8.328,-0.11 13.39,-9.376 11.966,-17.22 -1.738,-9.58 -6.9,-15.35 -10.808,-21.292 -4.42,-6.15 -10.372,-15.04 -12.29,-19.316 0,0 -6.048,9.205 -13.917,20.03 -5.262,7.238 -9.473,15.082 -9.865,21.835 -0.448,7.715 2.72,14.63 11.49,15.827 z m 109.533,0 c 7.144,0.474 10.868,-5.628 11.595,-10.437 0.433,-0.764 0.67,-0.548 0.837,0.043 0.35,6.174 5.875,11.22 10.992,10.53 8.328,-0.11 13.39,-9.376 11.967,-17.22 -1.738,-9.58 -6.9,-15.35 -10.807,-21.292 -4.42,-6.15 -10.373,-15.04 -12.29,-19.316 0,0 -6.048,9.205 -13.917,20.03 -5.262,7.238 -9.473,15.082 -9.865,21.835 -0.447,7.715 2.72,14.63 11.49,15.827 z m 41.444,-31.297 c -1.583,3.472 -1.756,9.405 2.97,10.207 3.563,0.46 5.013,-1.198 5.3,-3.74 0.143,-0.744 0.563,-0.79 0.696,0.057 0.204,2.61 2.787,4.133 4.806,3.75 5.527,-0.946 5.204,-7.03 3.4,-11.156 -2.732,-5.48 -5.602,-8.937 -8.246,-14.452 -3.038,5.742 -6.507,10.406 -8.926,15.333 z" />
    </g>
  </g>
</svg>
