<?xml version="1.0" encoding="UTF-8" standalone="no"?>
<!-- Created with Inkscape (http://www.inkscape.org/) -->

<svg
   xmlns:dc="http://purl.org/dc/elements/1.1/"
   xmlns:cc="http://creativecommons.org/ns#"
   xmlns:rdf="http://www.w3.org/1999/02/22-rdf-syntax-ns#"
   xmlns:svg="http://www.w3.org/2000/svg"
   xmlns="http://www.w3.org/2000/svg"
   xmlns:sodipodi="http://sodipodi.sourceforge.net/DTD/sodipodi-0.dtd"
   xmlns:inkscape="http://www.inkscape.org/namespaces/inkscape"
   width="63.281273mm"
   height="88.281357mm"
   viewBox="0 0 224.22499 312.80796"
   id="svg6450"
   version="1.1"
   inkscape:version="0.91 r13725"
   sodipodi:docname="4S.svg">
  <defs
     id="defs6452" />
  <sodipodi:namedview
     id="base"
     pagecolor="#ffffff"
     bordercolor="#666666"
     borderopacity="1.0"
     inkscape:pageopacity="0.0"
     inkscape:pageshadow="2"
     inkscape:zoom="0.35"
     inkscape:cx="-546.45893"
     inkscape:cy="156.40398"
     inkscape:document-units="px"
     inkscape:current-layer="layer1"
     showgrid="false"
     fit-margin-top="0"
     fit-margin-left="0"
     fit-margin-right="0"
     fit-margin-bottom="0"
     inkscape:window-width="1600"
     inkscape:window-height="838"
     inkscape:window-x="-8"
     inkscape:window-y="-8"
     inkscape:window-maximized="1" />
  <metadata
     id="metadata6455">
    <rdf:RDF>
      <cc:Work
         rdf:about="">
        <dc:format>image/svg+xml</dc:format>
        <dc:type
           rdf:resource="http://purl.org/dc/dcmitype/StillImage" />
        <dc:title></dc:title>
      </cc:Work>
    </rdf:RDF>
  </metadata>
  <g
     inkscape:label="Calque 1"
     inkscape:groupmode="layer"
     id="layer1"
     transform="translate(-262.8875,-375.95822)">
    <g
       transform="translate(-493.68623,-283.97226)"
       id="g4377">
      <g
         transform="translate(-5947.314,3407.24)"
         id="g4379">
        <rect
           style="fill:#ffffff;stroke:#000000;stroke-width:0.99699998"
           width="223.228"
           height="311.811"
           x="6704.3862"
           y="-2746.811"
           rx="10.63"
           ry="10.63"
           id="rect4381" />
        <path
           inkscape:connector-curvature="0"
           d="m 6722.22,-2700.437 0,-2.813 2.586,0 0,-4.636 -12.925,0 0,-3.27 13.986,-21.1 2.286,0.01 0,21.09 3.953,0 0,3.272 -3.953,0 -0.076,4.636 2.166,0 0,2.813 z m 2.586,-24.097 -8.88,13.377 8.88,0 z m 184.972,243.16 0,2.813 -2.585,0 0,4.635 12.925,0 0,3.27 -13.985,21.1 -2.285,-0.01 0,-21.09 -3.953,0 0,-3.272 3.953,0 0.076,-4.636 -2.167,0 0,-2.814 z m -2.585,24.097 8.88,-13.377 -8.88,0 z"
           id="path4383" />
      </g>
      <path
         inkscape:connector-curvature="0"
         d="m 811.978,726.69 c 0.015,-2.024 -1.587,-2.063 -1.57,-0.584 -0.133,7.428 -6.415,11.086 -10.98,10.218 -7.035,-1.337 -9.28,-8.322 -9.214,-12.435 0.207,-12.697 12.988,-22.06 24.52,-38.336 8.45,14.69 22.397,26.23 23.223,37.586 1.098,15.098 -18.01,20.73 -20.737,3.133 -0.176,-1.243 -1.64,-1.8 -1.526,-0.065 0.415,4.822 -0.175,6.83 5.266,18.72 l -14.222,0 c 3.15,-5.556 5.025,-12.375 5.24,-18.236 z m 111.532,0 c 0.016,-2.024 -1.586,-2.063 -1.568,-0.584 -0.134,7.428 -6.416,11.086 -10.98,10.218 -7.037,-1.337 -9.282,-8.322 -9.215,-12.435 0.207,-12.697 12.988,-22.06 24.52,-38.336 8.45,14.69 22.397,26.23 23.223,37.586 1.098,15.098 -18.01,20.73 -20.737,3.133 -0.176,-1.243 -1.64,-1.8 -1.526,-0.065 0.414,4.822 -0.175,6.83 5.266,18.72 l -14.223,0 c 3.15,-5.556 5.026,-12.375 5.24,-18.236 z M 811.99,902.663 c 0.014,2.025 -1.588,2.064 -1.57,0.586 -0.134,-7.43 -6.416,-11.088 -10.98,-10.22 -7.037,1.337 -9.282,8.322 -9.215,12.435 0.207,12.697 12.988,22.06 24.52,38.335 8.45,-14.69 22.397,-26.23 23.223,-37.586 1.098,-15.098 -18.01,-20.73 -20.737,-3.133 -0.175,1.244 -1.64,1.802 -1.525,0.066 0.414,-4.822 -0.175,-6.83 5.266,-18.72 l -14.22,0 c 3.15,5.556 5.024,12.376 5.24,18.237 z m 111.53,0 c 0.016,2.025 -1.585,2.064 -1.567,0.586 -0.134,-7.43 -6.417,-11.088 -10.98,-10.22 -7.037,1.337 -9.282,8.322 -9.215,12.435 0.207,12.697 12.987,22.06 24.52,38.335 8.45,-14.69 22.397,-26.23 23.223,-37.586 1.098,-15.098 -18.008,-20.73 -20.736,-3.133 -0.176,1.244 -1.64,1.802 -1.526,0.066 0.414,-4.822 -0.175,-6.83 5.265,-18.72 l -14.22,0 c 3.148,5.556 5.024,12.376 5.238,18.237 z M 774.073,730.48 c 0.01,-0.87 -0.896,-0.464 -1.018,-0.19 -1.163,1.986 -2.865,2.448 -4.548,1.732 -1.667,-0.71 -2.604,-2.28 -2.454,-4.522 0.31,-3.438 3.036,-7.2 4.355,-9.326 1.252,-1.93 2.628,-4.222 4.077,-7.154 1.697,3.363 2.56,4.32 4.405,7.39 1.626,2.706 3.893,5.354 4.068,8.624 0,2.485 -1.046,4.83 -3.4,5.26 -1.33,0.24 -2.58,-0.443 -3.504,-2.038 -0.28,-0.406 -0.848,-0.194 -0.84,0.362 0.166,2.093 0.956,3.983 2.83,6.212 l -6.887,0 c 1.41,-1.576 2.85,-3.704 2.916,-6.35 z m 187.217,172 c 0.01,0.873 -0.894,0.466 -1.016,0.19 -1.164,-1.984 -2.865,-2.446 -4.548,-1.73 -1.668,0.71 -2.605,2.28 -2.454,4.522 0.31,3.438 3.035,7.2 4.355,9.326 1.252,1.93 2.628,4.222 4.077,7.154 1.697,-3.363 2.558,-4.32 4.405,-7.39 1.625,-2.706 3.89,-5.354 4.066,-8.624 0,-2.485 -1.046,-4.832 -3.4,-5.26 -1.33,-0.24 -2.578,0.442 -3.503,2.038 -0.282,0.406 -0.85,0.194 -0.84,-0.362 0.166,-2.093 0.956,-3.983 2.83,-6.212 l -6.887,0 c 1.41,1.576 2.85,3.704 2.915,6.35 z"
         id="path4385" />
    </g>
  </g>
</svg>
