<?xml version="1.0" encoding="UTF-8" standalone="no"?>
<!-- Created with Inkscape (http://www.inkscape.org/) -->

<svg
   xmlns:dc="http://purl.org/dc/elements/1.1/"
   xmlns:cc="http://creativecommons.org/ns#"
   xmlns:rdf="http://www.w3.org/1999/02/22-rdf-syntax-ns#"
   xmlns:svg="http://www.w3.org/2000/svg"
   xmlns="http://www.w3.org/2000/svg"
   xmlns:sodipodi="http://sodipodi.sourceforge.net/DTD/sodipodi-0.dtd"
   xmlns:inkscape="http://www.inkscape.org/namespaces/inkscape"
   width="63.281277mm"
   height="88.281372mm"
   viewBox="0 0 224.225 312.80801"
   id="svg7581"
   version="1.1"
   inkscape:version="0.91 r13725"
   sodipodi:docname="5C.svg">
  <defs
     id="defs7583" />
  <sodipodi:namedview
     id="base"
     pagecolor="#ffffff"
     bordercolor="#666666"
     borderopacity="1.0"
     inkscape:pageopacity="0.0"
     inkscape:pageshadow="2"
     inkscape:zoom="0.35"
     inkscape:cx="-700.03036"
     inkscape:cy="356.404"
     inkscape:document-units="px"
     inkscape:current-layer="layer1"
     showgrid="false"
     fit-margin-top="0"
     fit-margin-left="0"
     fit-margin-right="0"
     fit-margin-bottom="0"
     inkscape:window-width="1600"
     inkscape:window-height="838"
     inkscape:window-x="-8"
     inkscape:window-y="-8"
     inkscape:window-maximized="1" />
  <metadata
     id="metadata7586">
    <rdf:RDF>
      <cc:Work
         rdf:about="">
        <dc:format>image/svg+xml</dc:format>
        <dc:type
           rdf:resource="http://purl.org/dc/dcmitype/StillImage" />
        <dc:title></dc:title>
      </cc:Work>
    </rdf:RDF>
  </metadata>
  <g
     inkscape:label="Calque 1"
     inkscape:groupmode="layer"
     id="layer1"
     transform="translate(-416.45893,-575.9582)">
    <g
       transform="translate(-563.02634,541.64274)"
       id="g4297">
      <g
         transform="translate(-5947.63,2781.625)"
         id="g4299">
        <rect
           style="fill:#ffffff;stroke:#000000;stroke-width:0.99699998"
           width="223.228"
           height="311.811"
           x="6927.6138"
           y="-2746.811"
           rx="10.63"
           ry="10.63"
           id="rect4301" />
      </g>
      <path
         inkscape:connector-curvature="0"
         d="m 988.24,72.352 3.22,-0.028 c 0.613,1.944 1.973,3.926 3.818,4.473 5.212,1.224 8.567,-1.687 9.672,-5.046 1.34,-4.073 -0.03,-9.795 -3.617,-11.827 -2.976,-1.686 -7.395,-0.264 -9.422,3.34 l -2.256,-1.38 1.21,-13.423 14.73,0 0,3.172 -11.935,0 -0.188,5.59 c 2.566,-1.8 6.518,-1.784 9.086,-0.52 4.865,2.32 7.124,7.594 6.177,13.812 -1.31,6.183 -4.197,9.686 -10.717,10.19 -7.245,0.062 -9.804,-4.918 -9.775,-8.352 z m 206.87,236.736 -3.22,0.028 c -0.612,-1.944 -1.97,-3.926 -3.816,-4.474 -5.212,-1.223 -8.568,1.688 -9.673,5.047 -1.34,4.073 0.03,9.795 3.62,11.827 2.974,1.686 7.394,0.264 9.42,-3.34 l 2.258,1.38 -1.212,13.423 -14.73,0 0,-3.172 11.938,0 0.187,-5.59 c -2.564,1.8 -6.517,1.783 -9.084,0.52 -4.865,-2.32 -7.124,-7.594 -6.178,-13.812 1.31,-6.183 4.198,-9.686 10.718,-10.19 7.244,-0.062 9.804,4.918 9.775,8.35 z m -110.856,-89.772 c 2.88,-5.776 4.976,-11.7 5.348,-18.037 0.342,-2.333 -1.074,-2.372 -1.288,-0.73 -4.076,15.593 -25.763,11.37 -25.017,-3.296 0.605,-11.895 12.42,-14.454 18.582,-10.565 2.433,1.432 2.295,0.574 0.967,-0.913 -9.155,-10.21 -3.61,-23.36 8.76,-23.602 13.38,0.793 16.853,14.87 8.646,23.148 -1.02,0.995 -3.284,4.19 0.123,1.956 8.286,-5.89 19.787,0.442 19.552,9.52 -0.432,16.74 -20.84,17.987 -25.203,4.006 -0.42,-1.55 -1.63,-2.33 -1.295,0.304 0.605,4.767 1.857,11.954 5.437,18.206 z m 49.243,-99.262 c 2.88,-5.776 4.976,-11.7 5.348,-18.038 0.342,-2.33 -1.075,-2.37 -1.288,-0.728 -4.077,15.593 -25.763,11.37 -25.017,-3.297 0.605,-11.894 12.42,-14.453 18.582,-10.563 2.434,1.433 2.296,0.574 0.968,-0.912 -9.155,-10.21 -3.61,-23.362 8.76,-23.602 13.38,0.793 16.852,14.87 8.645,23.148 -1.02,0.995 -3.283,4.192 0.123,1.957 8.287,-5.888 19.788,0.443 19.553,9.52 -0.432,16.74 -20.838,17.988 -25.202,4.007 -0.42,-1.55 -1.63,-2.33 -1.295,0.304 0.605,4.767 1.856,11.953 5.437,18.206 z m -98.681,0 c 2.88,-5.776 4.975,-11.7 5.348,-18.038 0.34,-2.33 -1.075,-2.37 -1.288,-0.728 -4.077,15.593 -25.763,11.37 -25.018,-3.297 0.605,-11.894 12.42,-14.453 18.583,-10.563 2.434,1.433 2.297,0.574 0.97,-0.912 -9.156,-10.21 -3.61,-23.362 8.76,-23.602 13.38,0.793 16.85,14.87 8.644,23.148 -1.02,0.995 -3.283,4.192 0.123,1.957 8.287,-5.888 19.787,0.443 19.553,9.52 -0.433,16.74 -20.84,17.988 -25.203,4.007 -0.42,-1.55 -1.63,-2.33 -1.295,0.304 0.604,4.767 1.856,11.953 5.437,18.206 z m 113.384,139.51 c -2.88,5.775 -4.977,11.7 -5.35,18.037 -0.34,2.333 1.075,2.372 1.29,0.73 4.075,-15.593 25.762,-11.37 25.016,3.296 -0.605,11.895 -12.42,14.454 -18.582,10.565 -2.434,-1.432 -2.296,-0.574 -0.968,0.913 9.155,10.21 3.61,23.36 -8.76,23.602 -13.38,-0.793 -16.853,-14.87 -8.646,-23.148 1.02,-0.995 3.284,-4.192 -0.123,-1.957 -8.286,5.888 -19.787,-0.442 -19.552,-9.52 0.432,-16.74 20.84,-17.988 25.203,-4.006 0.42,1.55 1.63,2.33 1.295,-0.304 -0.605,-4.767 -1.857,-11.954 -5.438,-18.206 z m -98.682,0 c -2.88,5.775 -4.976,11.7 -5.35,18.037 -0.34,2.333 1.076,2.372 1.29,0.73 4.076,-15.593 25.762,-11.37 25.017,3.296 -0.605,11.895 -12.42,14.454 -18.583,10.565 -2.433,-1.432 -2.296,-0.574 -0.968,0.913 9.155,10.21 3.61,23.36 -8.76,23.602 -13.38,-0.793 -16.852,-14.87 -8.645,-23.148 1.02,-0.995 3.283,-4.192 -0.124,-1.957 -8.287,5.888 -19.787,-0.442 -19.553,-9.52 0.433,-16.74 20.84,-17.988 25.204,-4.006 0.42,1.55 1.63,2.33 1.295,-0.304 -0.605,-4.767 -1.857,-11.954 -5.438,-18.206 z M 994.2,109.84 c 1.193,-2.446 2.353,-4.722 2.985,-7.402 0.42,-2.528 -0.438,-1.59 -0.925,0.068 -0.72,2.297 -2.723,3.344 -4.58,3.37 -3.37,0.044 -5.053,-2.605 -4.948,-5.455 -0.368,-2.998 2.67,-5.12 4.962,-4.956 1.722,0.123 3.224,1.052 4.133,1.775 0.596,0.315 1.234,0.454 0.345,-0.36 -1.678,-1.832 -3.077,-2.963 -3.046,-5.71 0.03,-2.58 2.233,-5.268 5.155,-5.184 3.653,0.106 5.313,2.89 5.304,5.48 -0.01,1.89 -0.953,3.627 -2.41,4.703 -0.945,0.766 -0.68,1.34 0.397,0.614 1.036,-0.892 2.268,-1.282 3.545,-1.31 3.49,-0.054 4.855,2.962 4.656,5.765 -0.187,2.624 -2.422,5.327 -5.368,5.02 -2.63,-0.3 -4.013,-2.51 -4.806,-4.776 -0.262,-0.695 -0.676,-0.883 -0.664,0.153 0.608,5.057 2.492,8.204 2.505,8.202 z m 194.798,162.002 c -1.192,2.445 -2.352,4.72 -2.984,7.4 -0.42,2.528 0.438,1.59 0.925,-0.067 0.72,-2.298 2.722,-3.344 4.58,-3.37 3.37,-0.045 5.052,2.605 4.947,5.455 0.368,2.998 -2.67,5.12 -4.962,4.956 -1.722,-0.122 -3.224,-1.052 -4.133,-1.775 -0.596,-0.314 -1.234,-0.453 -0.345,0.36 1.678,1.833 3.077,2.964 3.046,5.71 -0.03,2.58 -2.233,5.27 -5.155,5.184 -3.652,-0.105 -5.312,-2.89 -5.303,-5.48 0.01,-1.888 0.953,-3.626 2.41,-4.703 0.945,-0.765 0.68,-1.34 -0.397,-0.614 -1.035,0.892 -2.267,1.283 -3.544,1.31 -3.49,0.055 -4.855,-2.96 -4.656,-5.764 0.188,-2.626 2.423,-5.328 5.37,-5.022 2.63,0.3 4.012,2.51 4.805,4.777 0.262,0.695 0.676,0.882 0.664,-0.153 -0.608,-5.058 -2.492,-8.205 -2.505,-8.202 z"
         id="path4303" />
    </g>
  </g>
</svg>
