<?xml version="1.0" encoding="UTF-8" standalone="no"?>
<!-- Created with Inkscape (http://www.inkscape.org/) -->

<svg
   xmlns:dc="http://purl.org/dc/elements/1.1/"
   xmlns:cc="http://creativecommons.org/ns#"
   xmlns:rdf="http://www.w3.org/1999/02/22-rdf-syntax-ns#"
   xmlns:svg="http://www.w3.org/2000/svg"
   xmlns="http://www.w3.org/2000/svg"
   xmlns:sodipodi="http://sodipodi.sourceforge.net/DTD/sodipodi-0.dtd"
   xmlns:inkscape="http://www.inkscape.org/namespaces/inkscape"
   width="63.281277mm"
   height="88.281372mm"
   viewBox="0 0 224.225 312.80801"
   id="svg14505"
   version="1.1"
   inkscape:version="0.91 r13725"
   sodipodi:docname="5D.svg">
  <defs
     id="defs14507" />
  <sodipodi:namedview
     id="base"
     pagecolor="#ffffff"
     bordercolor="#666666"
     borderopacity="1.0"
     inkscape:pageopacity="0.0"
     inkscape:pageshadow="2"
     inkscape:zoom="0.35"
     inkscape:cx="54.255402"
     inkscape:cy="202.11826"
     inkscape:document-units="px"
     inkscape:current-layer="layer1"
     showgrid="false"
     fit-margin-top="0"
     fit-margin-left="0"
     fit-margin-right="0"
     fit-margin-bottom="0"
     inkscape:window-width="1600"
     inkscape:window-height="838"
     inkscape:window-x="-8"
     inkscape:window-y="-8"
     inkscape:window-maximized="1" />
  <metadata
     id="metadata14510">
    <rdf:RDF>
      <cc:Work
         rdf:about="">
        <dc:format>image/svg+xml</dc:format>
        <dc:type
           rdf:resource="http://purl.org/dc/dcmitype/StillImage" />
        <dc:title></dc:title>
      </cc:Work>
    </rdf:RDF>
  </metadata>
  <g
     inkscape:label="Calque 1"
     inkscape:groupmode="layer"
     id="layer1"
     transform="translate(337.82683,-421.67246)">
    <g
       transform="translate(-7264.9421,3168.982)"
       id="g4483">
      <rect
         style="fill:#ffffff;stroke:#000000;stroke-width:0.99699998"
         width="223.228"
         height="311.811"
         x="6927.6138"
         y="-2746.811"
         rx="10.63"
         ry="10.63"
         id="rect4485" />
      <g
         style="fill:#d40000"
         id="g4487">
        <path
           inkscape:connector-curvature="0"
           d="m 6961.493,-2689.907 c 9.92,-9.68 16.436,-20.237 22.667,-30.39 5.464,11.17 13.306,20.944 21.786,30.39 -9.073,9.37 -16.105,19.387 -21.76,29.918 -6.267,-10.795 -12.865,-20.57 -22.693,-29.917 z m 0,196.652 c 9.92,-9.682 16.436,-20.238 22.667,-30.39 5.464,11.17 13.306,20.943 21.786,30.39 -9.073,9.368 -16.105,19.386 -21.76,29.918 -6.267,-10.796 -12.865,-20.572 -22.693,-29.918 z m 110.681,-196.652 c 9.92,-9.68 16.436,-20.237 22.667,-30.39 5.465,11.17 13.307,20.944 21.787,30.39 -9.073,9.37 -16.105,19.387 -21.76,29.918 -6.266,-10.795 -12.865,-20.57 -22.693,-29.917 z m -55.244,99.263 c 9.922,-9.682 16.437,-20.238 22.668,-30.39 5.465,11.17 13.306,20.943 21.786,30.39 -9.073,9.368 -16.105,19.386 -21.76,29.917 -6.266,-10.795 -12.865,-20.57 -22.693,-29.917 z m 55.244,97.389 c 9.92,-9.682 16.436,-20.238 22.667,-30.39 5.465,11.17 13.307,20.943 21.787,30.39 -9.073,9.368 -16.105,19.386 -21.76,29.918 -6.266,-10.796 -12.865,-20.572 -22.693,-29.918 z m 51.226,-4.505 c 4.065,-3.966 6.734,-8.29 9.287,-12.448 2.238,4.575 5.45,8.58 8.924,12.448 -3.716,3.838 -6.596,7.942 -8.912,12.256 -2.568,-4.423 -5.27,-8.427 -9.297,-12.256 z m -186.707,-185.857 c 4.064,-3.966 6.733,-8.29 9.286,-12.45 2.237,4.577 5.45,8.58 8.923,12.45 -3.716,3.837 -6.597,7.94 -8.913,12.255 -2.568,-4.422 -5.27,-8.427 -9.297,-12.255 z m -0.9,-25.656 3.22,-0.03 c 0.613,1.946 1.973,3.928 3.817,4.475 5.212,1.224 8.568,-1.687 9.673,-5.047 1.34,-4.073 -0.03,-9.795 -3.618,-11.827 -2.975,-1.686 -7.394,-0.264 -9.422,3.338 l -2.257,-1.38 1.212,-13.42 14.73,0 0,3.17 -11.938,0 -0.187,5.592 c 2.565,-1.803 6.518,-1.785 9.085,-0.52 4.865,2.32 7.125,7.592 6.178,13.81 -1.31,6.183 -4.198,9.687 -10.718,10.19 -7.244,0.063 -9.803,-4.918 -9.775,-8.35 z m 206.87,236.735 -3.22,0.03 c -0.612,-1.946 -1.972,-3.928 -3.817,-4.475 -5.212,-1.224 -8.567,1.687 -9.672,5.047 -1.34,4.073 0.03,9.795 3.617,11.827 2.977,1.687 7.396,0.265 9.423,-3.337 l 2.258,1.38 -1.21,13.42 -14.73,0 0,-3.17 11.936,0 0.188,-5.592 c -2.566,1.804 -6.518,1.786 -9.086,0.52 -4.864,-2.318 -7.124,-7.59 -6.177,-13.81 1.31,-6.182 4.198,-9.686 10.72,-10.19 7.243,-0.062 9.802,4.92 9.773,8.352 z"
           id="path4489" />
      </g>
    </g>
  </g>
</svg>
