<?xml version="1.0" encoding="UTF-8" standalone="no"?>
<!-- Created with Inkscape (http://www.inkscape.org/) -->

<svg
   xmlns:dc="http://purl.org/dc/elements/1.1/"
   xmlns:cc="http://creativecommons.org/ns#"
   xmlns:rdf="http://www.w3.org/1999/02/22-rdf-syntax-ns#"
   xmlns:svg="http://www.w3.org/2000/svg"
   xmlns="http://www.w3.org/2000/svg"
   xmlns:sodipodi="http://sodipodi.sourceforge.net/DTD/sodipodi-0.dtd"
   xmlns:inkscape="http://www.inkscape.org/namespaces/inkscape"
   width="63.281277mm"
   height="88.281372mm"
   viewBox="0 0 224.225 312.80801"
   id="svg17376"
   version="1.1"
   inkscape:version="0.91 r13725"
   sodipodi:docname="5H.svg">
  <defs
     id="defs17378" />
  <sodipodi:namedview
     id="base"
     pagecolor="#ffffff"
     bordercolor="#666666"
     borderopacity="1.0"
     inkscape:pageopacity="0.0"
     inkscape:pageshadow="2"
     inkscape:zoom="0.35"
     inkscape:cx="-594.31607"
     inkscape:cy="187.83257"
     inkscape:document-units="px"
     inkscape:current-layer="layer1"
     showgrid="false"
     fit-margin-top="0"
     fit-margin-left="0"
     fit-margin-right="0"
     fit-margin-bottom="0"
     inkscape:window-width="1600"
     inkscape:window-height="838"
     inkscape:window-x="-8"
     inkscape:window-y="-8"
     inkscape:window-maximized="1" />
  <metadata
     id="metadata17381">
    <rdf:RDF>
      <cc:Work
         rdf:about="">
        <dc:format>image/svg+xml</dc:format>
        <dc:type
           rdf:resource="http://purl.org/dc/dcmitype/StillImage" />
        <dc:title></dc:title>
      </cc:Work>
    </rdf:RDF>
  </metadata>
  <g
     inkscape:label="Calque 1"
     inkscape:groupmode="layer"
     id="layer1"
     transform="translate(-310.74464,-407.38677)">
    <g
       transform="translate(-668.74063,60.263309)"
       id="g17355">
      <g
         id="g13386"
         transform="translate(-5947.63,3094.433)">
        <rect
           style="fill:#ffffff;stroke:#000000;stroke-width:0.99699998"
           id="rect13388"
           ry="10.63"
           rx="10.63"
           y="-2746.811"
           x="6927.6138"
           height="311.811"
           width="223.228" />
        <g
           style="fill:#d40000"
           id="g13390">
          <path
             inkscape:connector-curvature="0"
             id="path13392"
             d="m 6935.793,-2709.273 3.22,-0.03 c 0.613,1.946 1.973,3.928 3.817,4.475 5.212,1.224 8.568,-1.687 9.673,-5.047 1.34,-4.073 -0.03,-9.795 -3.618,-11.827 -2.975,-1.686 -7.394,-0.264 -9.422,3.338 l -2.257,-1.38 1.212,-13.42 14.73,0 0,3.17 -11.938,0 -0.187,5.592 c 2.565,-1.803 6.518,-1.785 9.085,-0.52 4.865,2.32 7.125,7.592 6.178,13.81 -1.31,6.183 -4.198,9.687 -10.718,10.19 -7.244,0.063 -9.803,-4.918 -9.775,-8.35 z m 206.87,236.735 -3.22,0.03 c -0.612,-1.946 -1.972,-3.928 -3.817,-4.475 -5.212,-1.224 -8.567,1.687 -9.672,5.047 -1.34,4.073 0.03,9.795 3.617,11.827 2.977,1.687 7.396,0.265 9.423,-3.337 l 2.258,1.38 -1.21,13.42 -14.73,0 0,-3.17 11.936,0 0.188,-5.592 c -2.566,1.804 -6.518,1.786 -9.086,0.52 -4.864,-2.318 -7.124,-7.59 -6.177,-13.81 1.31,-6.182 4.198,-9.686 10.72,-10.19 7.243,-0.062 9.802,4.92 9.773,8.352 z" />
        </g>
      </g>
      <path
         style="fill:#d40000"
         inkscape:connector-curvature="0"
         id="path13394"
         d="m 989.497,408.22 c -1.583,-3.473 -1.757,-9.406 2.97,-10.21 3.563,-0.457 5.013,1.2 5.3,3.743 0.143,0.743 0.563,0.79 0.696,-0.058 0.204,-2.61 2.787,-4.133 4.806,-3.75 5.526,0.945 5.203,7.028 3.398,11.155 -2.73,5.48 -5.6,8.938 -8.245,14.452 -3.04,-5.74 -6.508,-10.405 -8.926,-15.333 z m 34.543,-32.676 c 7.145,-0.474 10.87,5.628 11.596,10.437 0.433,0.765 0.67,0.55 0.837,-0.042 0.35,-6.174 5.875,-11.22 10.992,-10.53 8.328,0.108 13.39,9.376 11.967,17.22 -1.74,9.58 -6.9,15.35 -10.808,21.292 -4.42,6.152 -10.373,15.04 -12.29,19.317 0,0 -6.048,-9.205 -13.917,-20.03 -5.262,-7.238 -9.473,-15.082 -9.865,-21.835 -0.448,-7.716 2.72,-14.632 11.49,-15.828 z m 110.682,0 c 7.144,-0.474 10.868,5.628 11.595,10.437 0.434,0.765 0.67,0.55 0.837,-0.042 0.35,-6.174 5.875,-11.22 10.993,-10.53 8.328,0.108 13.39,9.376 11.966,17.22 -1.738,9.58 -6.9,15.35 -10.808,21.292 -4.42,6.152 -10.372,15.04 -12.29,19.317 0,0 -6.048,-9.205 -13.917,-20.03 -5.262,-7.238 -9.473,-15.082 -9.865,-21.835 -0.448,-7.716 2.72,-14.632 11.49,-15.828 z m -55.172,99.236 c 7.144,-0.473 10.868,5.628 11.595,10.437 0.433,0.764 0.67,0.55 0.837,-0.042 0.35,-6.174 5.875,-11.22 10.992,-10.53 8.328,0.108 13.39,9.375 11.967,17.22 -1.738,9.58 -6.9,15.35 -10.807,21.292 -4.42,6.152 -10.373,15.04 -12.29,19.317 0,0 -6.048,-9.205 -13.917,-20.03 -5.262,-7.24 -9.473,-15.082 -9.865,-21.835 -0.447,-7.717 2.72,-14.633 11.49,-15.83 z m -55.51,154.91 c 7.145,0.473 10.87,-5.628 11.596,-10.437 0.433,-0.764 0.67,-0.55 0.837,0.042 0.35,6.174 5.875,11.22 10.992,10.53 8.328,-0.108 13.39,-9.375 11.967,-17.22 -1.74,-9.58 -6.9,-15.35 -10.808,-21.292 -4.42,-6.152 -10.373,-15.04 -12.29,-19.317 0,0 -6.048,9.205 -13.917,20.03 -5.262,7.238 -9.473,15.082 -9.865,21.835 -0.448,7.717 2.72,14.633 11.49,15.83 z m 110.682,0 c 7.144,0.473 10.868,-5.628 11.595,-10.437 0.434,-0.764 0.67,-0.55 0.837,0.042 0.35,6.174 5.875,11.22 10.993,10.53 8.328,-0.108 13.39,-9.375 11.966,-17.22 -1.738,-9.58 -6.9,-15.35 -10.808,-21.292 -4.42,-6.152 -10.372,-15.04 -12.29,-19.317 0,0 -6.048,9.205 -13.917,20.03 -5.262,7.238 -9.473,15.082 -9.865,21.835 -0.448,7.717 2.72,14.633 11.49,15.83 z m 41.483,-30.613 c -1.583,3.472 -1.757,9.405 2.97,10.208 3.563,0.458 5.012,-1.198 5.3,-3.742 0.143,-0.743 0.562,-0.788 0.695,0.058 0.205,2.61 2.788,4.134 4.807,3.75 5.526,-0.944 5.204,-7.027 3.398,-11.154 -2.73,-5.48 -5.6,-8.938 -8.245,-14.452 -3.038,5.74 -6.507,10.405 -8.925,15.333 z" />
    </g>
  </g>
</svg>
