<?xml version="1.0" encoding="UTF-8" standalone="no"?>
<!-- Created with Inkscape (http://www.inkscape.org/) -->

<svg
   xmlns:dc="http://purl.org/dc/elements/1.1/"
   xmlns:cc="http://creativecommons.org/ns#"
   xmlns:rdf="http://www.w3.org/1999/02/22-rdf-syntax-ns#"
   xmlns:svg="http://www.w3.org/2000/svg"
   xmlns="http://www.w3.org/2000/svg"
   xmlns:sodipodi="http://sodipodi.sourceforge.net/DTD/sodipodi-0.dtd"
   xmlns:inkscape="http://www.inkscape.org/namespaces/inkscape"
   width="63.281277mm"
   height="88.281372mm"
   viewBox="0 0 224.225 312.80801"
   id="svg7025"
   version="1.1"
   inkscape:version="0.91 r13725"
   sodipodi:docname="5S.svg">
  <defs
     id="defs7027" />
  <sodipodi:namedview
     id="base"
     pagecolor="#ffffff"
     bordercolor="#666666"
     borderopacity="1.0"
     inkscape:pageopacity="0.0"
     inkscape:pageshadow="2"
     inkscape:zoom="0.35"
     inkscape:cx="-382.8875"
     inkscape:cy="479.26114"
     inkscape:document-units="px"
     inkscape:current-layer="layer1"
     showgrid="false"
     fit-margin-top="0"
     fit-margin-left="0"
     fit-margin-right="0"
     fit-margin-bottom="0"
     inkscape:window-width="1600"
     inkscape:window-height="838"
     inkscape:window-x="-8"
     inkscape:window-y="-8"
     inkscape:window-maximized="1" />
  <metadata
     id="metadata7030">
    <rdf:RDF>
      <cc:Work
         rdf:about="">
        <dc:format>image/svg+xml</dc:format>
        <dc:type
           rdf:resource="http://purl.org/dc/dcmitype/StillImage" />
        <dc:title></dc:title>
      </cc:Work>
    </rdf:RDF>
  </metadata>
  <g
     inkscape:label="Calque 1"
     inkscape:groupmode="layer"
     id="layer1"
     transform="translate(-99.31607,-698.81534)">
    <g
       transform="translate(-880.4322,38.88488)"
       id="g4387">
      <g
         transform="translate(-5947.367,3407.24)"
         id="g4389">
        <rect
           style="fill:#ffffff;stroke:#000000;stroke-width:0.99699998"
           width="223.228"
           height="311.811"
           x="6927.6138"
           y="-2746.811"
           rx="10.63"
           ry="10.63"
           id="rect4391" />
        <path
           inkscape:connector-curvature="0"
           d="m 6935.793,-2709.273 3.22,-0.03 c 0.613,1.946 1.973,3.928 3.817,4.475 5.212,1.224 8.568,-1.687 9.673,-5.047 1.34,-4.073 -0.03,-9.795 -3.618,-11.827 -2.975,-1.686 -7.394,-0.264 -9.422,3.338 l -2.257,-1.38 1.212,-13.42 14.73,0 0,3.17 -11.938,0 -0.187,5.592 c 2.565,-1.803 6.518,-1.785 9.085,-0.52 4.865,2.32 7.125,7.592 6.178,13.81 -1.31,6.183 -4.198,9.687 -10.718,10.19 -7.244,0.063 -9.803,-4.918 -9.775,-8.35 z m 206.87,236.735 -3.22,0.03 c -0.612,-1.946 -1.972,-3.928 -3.817,-4.475 -5.212,-1.224 -8.567,1.687 -9.672,5.047 -1.34,4.073 0.03,9.795 3.617,11.827 2.977,1.687 7.396,0.265 9.423,-3.337 l 2.258,1.38 -1.21,13.42 -14.73,0 0,-3.17 11.936,0 0.188,-5.592 c -2.566,1.804 -6.518,1.786 -9.086,0.52 -4.864,-2.318 -7.124,-7.59 -6.177,-13.81 1.31,-6.182 4.198,-9.686 10.72,-10.19 7.243,-0.062 9.802,4.92 9.773,8.352 z"
           id="path4393" />
      </g>
      <path
         inkscape:connector-curvature="0"
         d="m 1034.212,728.55 c 0.015,-2.026 -1.587,-2.065 -1.57,-0.587 -0.133,7.43 -6.415,11.087 -10.98,10.22 -7.036,-1.338 -9.28,-8.323 -9.214,-12.436 0.207,-12.696 12.988,-22.06 24.52,-38.335 8.45,14.69 22.397,26.23 23.223,37.586 1.1,15.098 -18.008,20.73 -20.736,3.133 -0.176,-1.242 -1.64,-1.8 -1.526,-0.064 0.414,4.822 -0.175,6.83 5.266,18.72 l -14.222,0 c 3.15,-5.556 5.025,-12.375 5.24,-18.237 z m 110.681,0 c 0.015,-2.026 -1.587,-2.065 -1.57,-0.587 -0.133,7.43 -6.415,11.087 -10.98,10.22 -7.035,-1.338 -9.28,-8.323 -9.214,-12.436 0.206,-12.696 12.987,-22.06 24.52,-38.335 8.45,14.69 22.396,26.23 23.222,37.586 1.098,15.098 -18.01,20.73 -20.737,3.133 -0.176,-1.242 -1.64,-1.8 -1.526,-0.064 0.414,4.822 -0.176,6.83 5.265,18.72 l -14.222,0 c 3.15,-5.556 5.026,-12.375 5.24,-18.237 z m -55.243,99.262 c 0.015,-2.026 -1.587,-2.065 -1.568,-0.586 -0.135,7.428 -6.417,11.086 -10.98,10.22 -7.037,-1.34 -9.283,-8.324 -9.216,-12.437 0.207,-12.697 12.988,-22.06 24.52,-38.335 8.45,14.69 22.398,26.23 23.223,37.585 1.097,15.098 -18.01,20.73 -20.738,3.133 -0.176,-1.243 -1.64,-1.8 -1.526,-0.065 0.415,4.823 -0.175,6.83 5.266,18.72 l -14.222,0 c 3.15,-5.555 5.026,-12.375 5.24,-18.236 z m -55.428,74.513 c 0.015,2.026 -1.586,2.064 -1.568,0.586 -0.134,-7.428 -6.417,-11.086 -10.98,-10.218 -7.037,1.338 -9.283,8.322 -9.215,12.435 0.206,12.697 12.986,22.06 24.52,38.335 8.45,-14.69 22.396,-26.23 23.222,-37.586 1.097,-15.098 -18.01,-20.73 -20.737,-3.132 -0.176,1.243 -1.64,1.8 -1.526,0.065 0.413,-4.824 -0.176,-6.833 5.264,-18.72 l -14.22,0 c 3.148,5.554 5.024,12.374 5.238,18.235 z m 110.682,0 c 0.015,2.026 -1.587,2.064 -1.57,0.586 -0.133,-7.428 -6.415,-11.086 -10.98,-10.218 -7.036,1.338 -9.28,8.322 -9.214,12.435 0.207,12.697 12.988,22.06 24.52,38.335 8.45,-14.69 22.397,-26.23 23.223,-37.586 1.098,-15.098 -18.01,-20.73 -20.737,-3.132 -0.176,1.243 -1.64,1.8 -1.526,0.065 0.414,-4.824 -0.175,-6.833 5.266,-18.72 l -14.222,0 c 3.15,5.554 5.025,12.374 5.24,18.235 z m -146.9,-172.242 c 0.01,-0.87 -0.895,-0.465 -1.018,-0.19 -1.163,1.985 -2.865,2.447 -4.548,1.732 -1.667,-0.71 -2.604,-2.28 -2.454,-4.523 0.31,-3.437 3.036,-7.2 4.355,-9.326 1.25,-1.93 2.627,-4.222 4.076,-7.154 1.697,3.363 2.56,4.32 4.405,7.392 1.627,2.704 3.894,5.353 4.07,8.622 0,2.485 -1.047,4.832 -3.4,5.26 -1.332,0.24 -2.58,-0.442 -3.504,-2.037 -0.282,-0.408 -0.85,-0.196 -0.84,0.36 0.166,2.094 0.956,3.984 2.83,6.212 l -6.887,0 c 1.41,-1.576 2.847,-3.704 2.914,-6.35 z m 186.708,172.747 c 0.01,0.87 -0.895,0.463 -1.018,0.19 -1.163,-1.987 -2.865,-2.45 -4.548,-1.733 -1.667,0.71 -2.604,2.28 -2.454,4.522 0.31,3.437 3.036,7.2 4.355,9.326 1.252,1.93 2.628,4.222 4.077,7.154 1.697,-3.364 2.56,-4.32 4.405,-7.392 1.625,-2.704 3.892,-5.353 4.067,-8.622 0,-2.485 -1.046,-4.832 -3.4,-5.26 -1.33,-0.24 -2.58,0.442 -3.504,2.037 -0.28,0.407 -0.848,0.195 -0.84,-0.362 0.166,-2.092 0.956,-3.982 2.83,-6.21 l -6.886,0 c 1.41,1.576 2.848,3.703 2.915,6.35 z"
         id="path4395" />
    </g>
  </g>
</svg>
