<?xml version="1.0" encoding="UTF-8" standalone="no"?>
<!-- Created with Inkscape (http://www.inkscape.org/) -->

<svg
   xmlns:dc="http://purl.org/dc/elements/1.1/"
   xmlns:cc="http://creativecommons.org/ns#"
   xmlns:rdf="http://www.w3.org/1999/02/22-rdf-syntax-ns#"
   xmlns:svg="http://www.w3.org/2000/svg"
   xmlns="http://www.w3.org/2000/svg"
   xmlns:sodipodi="http://sodipodi.sourceforge.net/DTD/sodipodi-0.dtd"
   xmlns:inkscape="http://www.inkscape.org/namespaces/inkscape"
   width="63.281277mm"
   height="88.281372mm"
   viewBox="0 0 224.225 312.80801"
   id="svg8153"
   version="1.1"
   inkscape:version="0.91 r13725"
   sodipodi:docname="6C.svg">
  <defs
     id="defs8155" />
  <sodipodi:namedview
     id="base"
     pagecolor="#ffffff"
     bordercolor="#666666"
     borderopacity="1.0"
     inkscape:pageopacity="0.0"
     inkscape:pageshadow="2"
     inkscape:zoom="0.35"
     inkscape:cx="-654.31607"
     inkscape:cy="519.26114"
     inkscape:document-units="px"
     inkscape:current-layer="layer1"
     showgrid="false"
     fit-margin-top="0"
     fit-margin-left="0"
     fit-margin-right="0"
     fit-margin-bottom="0"
     inkscape:window-width="1600"
     inkscape:window-height="838"
     inkscape:window-x="-8"
     inkscape:window-y="-8"
     inkscape:window-maximized="1" />
  <metadata
     id="metadata8158">
    <rdf:RDF>
      <cc:Work
         rdf:about="">
        <dc:format>image/svg+xml</dc:format>
        <dc:type
           rdf:resource="http://purl.org/dc/dcmitype/StillImage" />
        <dc:title></dc:title>
      </cc:Work>
    </rdf:RDF>
  </metadata>
  <g
     inkscape:label="Calque 1"
     inkscape:groupmode="layer"
     id="layer1"
     transform="translate(-370.74464,-738.81534)">
    <g
       transform="translate(-831.96963,704.49988)"
       id="g4305">
      <g
         transform="translate(-5947.63,2781.625)"
         id="g4307">
        <rect
           style="fill:#ffffff;stroke:#000000;stroke-width:0.99699998"
           width="223.228"
           height="311.811"
           x="7150.8428"
           y="-2746.811"
           rx="10.63"
           ry="10.63"
           id="rect4309" />
      </g>
      <path
         inkscape:connector-curvature="0"
         d="m 1211.337,70.815 c -0.41,-2.747 -0.402,-9.845 -0.067,-11.943 1.03,-6.428 3.533,-9.368 7.723,-10.332 4.07,-0.936 9.79,0.106 11.044,5.482 l -3.406,0.063 c -1.84,-3.634 -6.495,-2.662 -9.115,-1.082 -2.093,1.262 -3.04,6.52 -2.634,6.843 0,0 3.958,-2.877 7.077,-2.665 6.668,0.683 9.417,6.357 9.185,11.72 -0.21,6.45 -2.295,11.602 -9.36,11.946 -6.72,-0.253 -9.8,-3.85 -10.445,-10.03 z m 16.57,-1.705 c 0.037,-4.476 -2.034,-7.823 -5.95,-8.193 -3.915,-0.37 -7.863,3.382 -7.59,7.943 0.275,4.577 2.08,8.432 6.827,8.41 5.106,-0.023 6.687,-4.976 6.713,-8.16 z m 190.178,241.515 c 0.408,2.747 0.402,9.845 0.066,11.942 -1.028,6.43 -3.53,9.37 -7.72,10.333 -4.07,0.936 -9.79,-0.106 -11.046,-5.482 l 3.407,-0.063 c 1.84,3.633 6.496,2.662 9.117,1.082 2.093,-1.262 3.038,-6.52 2.634,-6.843 0,0 -3.956,2.877 -7.075,2.665 -6.668,-0.683 -9.417,-6.357 -9.185,-11.72 0.21,-6.45 2.295,-11.602 9.36,-11.946 6.72,0.253 9.8,3.85 10.445,10.03 z m -16.57,1.705 c -0.037,4.475 2.033,7.823 5.95,8.192 3.915,0.37 7.863,-3.38 7.59,-7.942 -0.275,-4.577 -2.08,-8.432 -6.827,-8.41 -5.106,0.022 -6.687,4.976 -6.713,8.16 z m -44.249,-92.942 c 2.88,-5.775 4.976,-11.7 5.35,-18.037 0.34,-2.33 -1.076,-2.37 -1.29,-0.728 -4.076,15.593 -25.762,11.37 -25.017,-3.296 0.604,-11.895 12.42,-14.454 18.582,-10.565 2.433,1.434 2.296,0.576 0.968,-0.91 -9.155,-10.212 -3.61,-23.362 8.76,-23.603 13.38,0.793 16.852,14.87 8.645,23.148 -1.02,0.995 -3.284,4.192 0.123,1.957 8.287,-5.888 19.787,0.442 19.553,9.52 -0.432,16.74 -20.838,17.988 -25.203,4.006 -0.42,-1.55 -1.63,-2.33 -1.295,0.304 0.605,4.767 1.857,11.954 5.438,18.206 z m -99.532,0 c 2.88,-5.775 4.976,-11.7 5.348,-18.037 0.34,-2.33 -1.075,-2.37 -1.288,-0.728 -4.077,15.593 -25.763,11.37 -25.017,-3.296 0.605,-11.895 12.42,-14.454 18.582,-10.565 2.432,1.434 2.295,0.576 0.967,-0.91 -9.155,-10.212 -3.61,-23.362 8.76,-23.603 13.38,0.793 16.852,14.87 8.645,23.148 -1.02,0.995 -3.283,4.192 0.123,1.957 8.287,-5.888 19.787,0.442 19.553,9.52 -0.433,16.74 -20.84,17.988 -25.203,4.006 -0.42,-1.55 -1.63,-2.33 -1.295,0.304 0.605,4.767 1.856,11.954 5.437,18.206 z m 99.532,-98.894 c 2.88,-5.775 4.976,-11.7 5.35,-18.037 0.34,-2.332 -1.076,-2.37 -1.29,-0.728 -4.076,15.59 -25.762,11.37 -25.017,-3.298 0.604,-11.895 12.42,-14.454 18.582,-10.564 2.433,1.432 2.296,0.574 0.968,-0.912 -9.155,-10.212 -3.61,-23.362 8.76,-23.603 13.38,0.794 16.852,14.87 8.645,23.15 -1.02,0.993 -3.284,4.19 0.123,1.955 8.287,-5.888 19.787,0.443 19.553,9.52 -0.432,16.74 -20.838,17.988 -25.203,4.006 -0.42,-1.55 -1.63,-2.328 -1.295,0.305 0.605,4.765 1.857,11.952 5.438,18.204 z m -99.532,0 c 2.88,-5.775 4.976,-11.7 5.348,-18.037 0.34,-2.332 -1.075,-2.37 -1.288,-0.728 -4.077,15.59 -25.763,11.37 -25.017,-3.298 0.605,-11.895 12.42,-14.454 18.582,-10.564 2.432,1.432 2.295,0.574 0.967,-0.912 -9.155,-10.212 -3.61,-23.362 8.76,-23.603 13.38,0.794 16.852,14.87 8.645,23.15 -1.02,0.993 -3.283,4.19 0.123,1.955 8.287,-5.888 19.787,0.443 19.553,9.52 -0.433,16.74 -20.84,17.988 -25.203,4.006 -0.42,-1.55 -1.63,-2.328 -1.295,0.305 0.605,4.765 1.856,11.952 5.437,18.204 z m 114.234,140.352 c -2.88,5.775 -4.975,11.7 -5.348,18.037 -0.34,2.332 1.075,2.37 1.288,0.728 4.077,-15.59 25.763,-11.37 25.018,3.298 -0.605,11.895 -12.42,14.454 -18.583,10.564 -2.433,-1.432 -2.296,-0.574 -0.968,0.912 9.155,10.212 3.61,23.362 -8.76,23.603 -13.38,-0.794 -16.852,-14.87 -8.645,-23.15 1.02,-0.993 3.283,-4.19 -0.123,-1.955 -8.287,5.888 -19.787,-0.443 -19.553,-9.52 0.433,-16.74 20.84,-17.988 25.203,-4.006 0.42,1.55 1.63,2.328 1.295,-0.305 -0.604,-4.765 -1.856,-11.952 -5.437,-18.204 z m -99.532,0 c -2.88,5.775 -4.976,11.7 -5.348,18.037 -0.342,2.332 1.074,2.37 1.288,0.728 4.076,-15.59 25.762,-11.37 25.017,3.298 -0.605,11.895 -12.42,14.454 -18.583,10.564 -2.433,-1.432 -2.296,-0.574 -0.967,0.912 9.154,10.212 3.61,23.362 -8.762,23.603 -13.378,-0.794 -16.85,-14.87 -8.643,-23.15 1.02,-0.993 3.284,-4.19 -0.123,-1.955 -8.287,5.888 -19.787,-0.443 -19.553,-9.52 0.434,-16.74 20.84,-17.988 25.205,-4.006 0.42,1.55 1.63,2.328 1.295,-0.305 -0.605,-4.765 -1.857,-11.952 -5.438,-18.204 z m -56.061,-152.231 c 1.192,-2.445 2.352,-4.72 2.984,-7.4 0.418,-2.528 -0.44,-1.59 -0.926,0.068 -0.72,2.297 -2.723,3.344 -4.58,3.37 -3.37,0.044 -5.053,-2.606 -4.948,-5.455 -0.368,-3 2.67,-5.12 4.962,-4.957 1.722,0.124 3.224,1.053 4.133,1.776 0.597,0.315 1.235,0.455 0.345,-0.358 -1.677,-1.833 -3.076,-2.964 -3.046,-5.71 0.028,-2.58 2.233,-5.27 5.155,-5.185 3.65,0.106 5.312,2.89 5.303,5.48 -0.01,1.89 -0.953,3.627 -2.41,4.703 -0.945,0.766 -0.68,1.34 0.396,0.615 1.035,-0.89 2.268,-1.28 3.545,-1.31 3.49,-0.054 4.854,2.963 4.654,5.765 -0.187,2.626 -2.422,5.33 -5.37,5.023 -2.63,-0.302 -4.012,-2.51 -4.804,-4.777 -0.262,-0.694 -0.676,-0.882 -0.664,0.154 0.607,5.057 2.49,8.204 2.505,8.2 z M 1413.28,270.62 c -1.193,2.444 -2.353,4.72 -2.985,7.4 -0.42,2.527 0.438,1.588 0.925,-0.07 0.72,-2.296 2.723,-3.342 4.58,-3.367 3.37,-0.046 5.053,2.604 4.948,5.453 0.368,3 -2.67,5.12 -4.962,4.957 -1.722,-0.123 -3.224,-1.052 -4.133,-1.775 -0.596,-0.315 -1.234,-0.455 -0.344,0.36 1.676,1.83 3.075,2.963 3.045,5.71 -0.03,2.578 -2.234,5.267 -5.156,5.183 -3.652,-0.104 -5.313,-2.89 -5.304,-5.48 0.01,-1.888 0.953,-3.626 2.41,-4.702 0.945,-0.766 0.68,-1.34 -0.396,-0.615 -1.035,0.892 -2.268,1.283 -3.545,1.31 -3.49,0.055 -4.855,-2.96 -4.655,-5.764 0.187,-2.627 2.422,-5.33 5.37,-5.023 2.63,0.3 4.012,2.51 4.804,4.776 0.262,0.695 0.676,0.883 0.664,-0.153 -0.607,-5.057 -2.49,-8.204 -2.505,-8.2 z"
         id="path4311" />
    </g>
  </g>
</svg>
