<?xml version="1.0" encoding="UTF-8" standalone="no"?>
<!-- Created with Inkscape (http://www.inkscape.org/) -->

<svg
   xmlns:dc="http://purl.org/dc/elements/1.1/"
   xmlns:cc="http://creativecommons.org/ns#"
   xmlns:rdf="http://www.w3.org/1999/02/22-rdf-syntax-ns#"
   xmlns:svg="http://www.w3.org/2000/svg"
   xmlns="http://www.w3.org/2000/svg"
   xmlns:sodipodi="http://sodipodi.sourceforge.net/DTD/sodipodi-0.dtd"
   xmlns:inkscape="http://www.inkscape.org/namespaces/inkscape"
   width="63.281273mm"
   height="88.281357mm"
   viewBox="0 0 224.22499 312.80796"
   id="svg15077"
   version="1.1"
   inkscape:version="0.91 r13725"
   sodipodi:docname="6D.svg">
  <defs
     id="defs15079" />
  <sodipodi:namedview
     id="base"
     pagecolor="#ffffff"
     bordercolor="#666666"
     borderopacity="1.0"
     inkscape:pageopacity="0.0"
     inkscape:pageshadow="2"
     inkscape:zoom="0.35"
     inkscape:cx="-622.88751"
     inkscape:cy="313.54684"
     inkscape:document-units="px"
     inkscape:current-layer="layer1"
     showgrid="false"
     inkscape:window-width="1600"
     inkscape:window-height="838"
     inkscape:window-x="-8"
     inkscape:window-y="-8"
     inkscape:window-maximized="1"
     fit-margin-top="0"
     fit-margin-left="0"
     fit-margin-right="0"
     fit-margin-bottom="0" />
  <metadata
     id="metadata15082">
    <rdf:RDF>
      <cc:Work
         rdf:about="">
        <dc:format>image/svg+xml</dc:format>
        <dc:type
           rdf:resource="http://purl.org/dc/dcmitype/StillImage" />
        <dc:title></dc:title>
      </cc:Work>
    </rdf:RDF>
  </metadata>
  <g
     inkscape:label="Calque 1"
     inkscape:groupmode="layer"
     id="layer1"
     transform="translate(-339.31607,-533.10108)">
    <g
       transform="translate(-6811.0282,3280.4106)"
       id="g4491">
      <rect
         style="fill:#ffffff;stroke:#000000;stroke-width:0.99699998"
         width="223.228"
         height="311.811"
         x="7150.8428"
         y="-2746.811"
         rx="10.63"
         ry="10.63"
         id="rect4493" />
      <g
         style="fill:#d40000"
         id="g4495">
        <path
           inkscape:connector-curvature="0"
           d="m 7184.604,-2689.466 c 9.92,-9.68 16.436,-20.237 22.667,-30.39 5.466,11.17 13.307,20.943 21.787,30.39 -9.073,9.37 -16.105,19.386 -21.76,29.918 -6.266,-10.796 -12.865,-20.572 -22.693,-29.918 z m 0,98.894 c 9.92,-9.682 16.436,-20.238 22.667,-30.39 5.466,11.17 13.307,20.943 21.788,30.39 -9.074,9.368 -16.106,19.386 -21.76,29.918 -6.267,-10.796 -12.866,-20.572 -22.694,-29.918 z m 0,98.598 c 9.92,-9.68 16.436,-20.237 22.667,-30.39 5.466,11.17 13.307,20.944 21.788,30.39 -9.074,9.37 -16.106,19.387 -21.76,29.918 -6.267,-10.796 -12.866,-20.57 -22.694,-29.918 z m 111.533,-197.492 c 9.92,-9.68 16.436,-20.237 22.667,-30.39 5.464,11.17 13.306,20.943 21.786,30.39 -9.073,9.37 -16.105,19.386 -21.76,29.918 -6.266,-10.796 -12.865,-20.572 -22.693,-29.918 z m 0,98.894 c 9.92,-9.682 16.436,-20.238 22.667,-30.39 5.464,11.17 13.306,20.943 21.786,30.39 -9.073,9.368 -16.105,19.386 -21.76,29.918 -6.266,-10.796 -12.865,-20.572 -22.693,-29.918 z m 0,98.598 c 9.92,-9.68 16.436,-20.237 22.667,-30.39 5.464,11.17 13.306,20.944 21.786,30.39 -9.073,9.37 -16.105,19.387 -21.76,29.918 -6.266,-10.796 -12.865,-20.57 -22.693,-29.918 z m 51.739,-7.009 c 4.064,-3.966 6.733,-8.29 9.285,-12.45 2.24,4.577 5.452,8.58 8.926,12.45 -3.717,3.838 -6.598,7.94 -8.914,12.256 -2.567,-4.423 -5.27,-8.427 -9.296,-12.256 z M 7159.06,-2684.84 c 4.065,-3.967 6.733,-8.29 9.286,-12.45 2.238,4.577 5.45,8.58 8.925,12.45 -3.716,3.837 -6.597,7.94 -8.913,12.255 -2.567,-4.422 -5.27,-8.427 -9.296,-12.256 z m 0.023,-25.97 c -0.41,-2.748 -0.402,-9.846 -0.066,-11.943 1.03,-6.43 3.532,-9.37 7.722,-10.333 4.068,-0.935 9.788,0.106 11.043,5.482 l -3.406,0.063 c -1.84,-3.634 -6.496,-2.663 -9.116,-1.083 -2.092,1.262 -3.037,6.52 -2.633,6.844 0,0 3.957,-2.877 7.076,-2.664 6.668,0.68 9.417,6.355 9.185,11.718 -0.21,6.45 -2.295,11.603 -9.36,11.947 -6.72,-0.253 -9.8,-3.85 -10.445,-10.03 z m 16.57,-1.706 c 0.037,-4.475 -2.034,-7.822 -5.95,-8.192 -3.915,-0.37 -7.863,3.382 -7.59,7.943 0.275,4.576 2.08,8.43 6.827,8.41 5.106,-0.023 6.687,-4.976 6.713,-8.16 z M 7365.83,-2471 c 0.41,2.747 0.403,9.845 0.067,11.942 -1.03,6.43 -3.532,9.37 -7.722,10.333 -4.07,0.935 -9.79,-0.106 -11.044,-5.482 l 3.407,-0.063 c 1.84,3.633 6.495,2.662 9.116,1.082 2.093,-1.262 3.038,-6.52 2.634,-6.843 0,0 -3.957,2.876 -7.076,2.663 -6.667,-0.68 -9.416,-6.355 -9.184,-11.718 0.21,-6.45 2.295,-11.603 9.36,-11.947 6.72,0.254 9.8,3.85 10.445,10.032 z m -16.57,1.705 c -0.036,4.475 2.035,7.822 5.95,8.192 3.916,0.37 7.864,-3.382 7.59,-7.943 -0.274,-4.576 -2.078,-8.43 -6.826,-8.41 -5.106,0.023 -6.687,4.976 -6.713,8.16 z"
           id="path4497" />
      </g>
    </g>
  </g>
</svg>
