<?xml version="1.0" encoding="UTF-8" standalone="no"?>
<!-- Created with Inkscape (http://www.inkscape.org/) -->

<svg
   xmlns:dc="http://purl.org/dc/elements/1.1/"
   xmlns:cc="http://creativecommons.org/ns#"
   xmlns:rdf="http://www.w3.org/1999/02/22-rdf-syntax-ns#"
   xmlns:svg="http://www.w3.org/2000/svg"
   xmlns="http://www.w3.org/2000/svg"
   xmlns:sodipodi="http://sodipodi.sourceforge.net/DTD/sodipodi-0.dtd"
   xmlns:inkscape="http://www.inkscape.org/namespaces/inkscape"
   width="63.281277mm"
   height="88.281372mm"
   viewBox="0 0 224.225 312.80801"
   id="svg17961"
   version="1.1"
   inkscape:version="0.91 r13725"
   sodipodi:docname="6H.svg">
  <defs
     id="defs17963" />
  <sodipodi:namedview
     id="base"
     pagecolor="#ffffff"
     bordercolor="#666666"
     borderopacity="1.0"
     inkscape:pageopacity="0.0"
     inkscape:pageshadow="2"
     inkscape:zoom="0.35"
     inkscape:cx="-677.17321"
     inkscape:cy="316.404"
     inkscape:document-units="px"
     inkscape:current-layer="layer1"
     showgrid="false"
     fit-margin-top="0"
     fit-margin-left="0"
     fit-margin-right="0"
     fit-margin-bottom="0"
     inkscape:window-width="1600"
     inkscape:window-height="838"
     inkscape:window-x="-8"
     inkscape:window-y="-8"
     inkscape:window-maximized="1" />
  <metadata
     id="metadata17966">
    <rdf:RDF>
      <cc:Work
         rdf:about="">
        <dc:format>image/svg+xml</dc:format>
        <dc:type
           rdf:resource="http://purl.org/dc/dcmitype/StillImage" />
        <dc:title></dc:title>
      </cc:Work>
    </rdf:RDF>
  </metadata>
  <g
     inkscape:label="Calque 1"
     inkscape:groupmode="layer"
     id="layer1"
     transform="translate(-393.60178,-535.9582)">
    <g
       transform="translate(-809.11249,188.83474)"
       id="g17940">
      <g
         id="g13396"
         transform="translate(-5947.63,3094.433)">
        <rect
           style="fill:#ffffff;stroke:#000000;stroke-width:0.99699998"
           id="rect13398"
           ry="10.63"
           rx="10.63"
           y="-2746.811"
           x="7150.8428"
           height="311.811"
           width="223.228" />
        <g
           style="fill:#d40000"
           id="g13400">
          <path
             inkscape:connector-curvature="0"
             id="path13402"
             d="m 7159.083,-2710.81 c -0.41,-2.748 -0.402,-9.846 -0.066,-11.943 1.03,-6.43 3.532,-9.37 7.722,-10.333 4.068,-0.935 9.788,0.106 11.043,5.482 l -3.406,0.063 c -1.84,-3.634 -6.496,-2.663 -9.116,-1.083 -2.092,1.262 -3.037,6.52 -2.633,6.844 0,0 3.957,-2.877 7.076,-2.664 6.668,0.68 9.417,6.355 9.185,11.718 -0.21,6.45 -2.295,11.603 -9.36,11.947 -6.72,-0.253 -9.8,-3.85 -10.445,-10.03 z m 16.57,-1.706 c 0.037,-4.475 -2.034,-7.822 -5.95,-8.192 -3.915,-0.37 -7.863,3.382 -7.59,7.943 0.275,4.576 2.08,8.43 6.827,8.41 5.106,-0.023 6.687,-4.976 6.713,-8.16 z M 7365.83,-2471 c 0.41,2.747 0.403,9.845 0.067,11.942 -1.03,6.43 -3.532,9.37 -7.722,10.333 -4.07,0.935 -9.79,-0.106 -11.044,-5.482 l 3.407,-0.063 c 1.84,3.633 6.495,2.662 9.116,1.082 2.093,-1.262 3.038,-6.52 2.634,-6.843 0,0 -3.957,2.876 -7.076,2.663 -6.667,-0.68 -9.416,-6.355 -9.184,-11.718 0.21,-6.45 2.295,-11.603 9.36,-11.947 6.72,0.254 9.8,3.85 10.445,10.032 z m -16.57,1.705 c -0.036,4.475 2.035,7.822 5.95,8.192 3.916,0.37 7.864,-3.382 7.59,-7.943 -0.274,-4.576 -2.078,-8.43 -6.826,-8.41 -5.106,0.023 -6.687,4.976 -6.713,8.16 z" />
        </g>
      </g>
      <path
         style="fill:#d40000"
         inkscape:connector-curvature="0"
         id="path13404"
         d="m 1211.863,406.996 c -1.583,-3.472 -1.757,-9.405 2.97,-10.208 3.563,-0.458 5.013,1.198 5.3,3.742 0.143,0.743 0.563,0.788 0.696,-0.058 0.203,-2.61 2.786,-4.133 4.805,-3.75 5.527,0.945 5.204,7.028 3.4,11.155 -2.732,5.48 -5.602,8.938 -8.246,14.452 -3.04,-5.742 -6.508,-10.406 -8.927,-15.334 z m 35.287,-31.011 c 7.145,-0.474 10.87,5.627 11.596,10.436 0.434,0.765 0.67,0.55 0.837,-0.04 0.35,-6.175 5.875,-11.22 10.993,-10.53 8.328,0.107 13.39,9.374 11.966,17.218 -1.738,9.58 -6.9,15.35 -10.807,21.293 -4.422,6.153 -10.373,15.04 -12.29,19.318 0,0 -6.05,-9.205 -13.918,-20.03 -5.262,-7.238 -9.473,-15.082 -9.865,-21.835 -0.448,-7.716 2.72,-14.632 11.49,-15.828 z m 111.534,0 c 7.144,-0.474 10.868,5.627 11.595,10.436 0.433,0.765 0.67,0.55 0.836,-0.04 0.35,-6.175 5.875,-11.22 10.993,-10.53 8.327,0.107 13.388,9.374 11.965,17.218 -1.738,9.58 -6.9,15.35 -10.808,21.293 -4.42,6.153 -10.372,15.04 -12.29,19.318 0,0 -6.048,-9.205 -13.917,-20.03 -5.262,-7.238 -9.473,-15.082 -9.865,-21.835 -0.448,-7.716 2.72,-14.632 11.49,-15.828 z m 0,98.895 c 7.144,-0.476 10.868,5.626 11.595,10.435 0.433,0.764 0.67,0.55 0.836,-0.042 0.35,-6.174 5.875,-11.22 10.993,-10.53 8.327,0.108 13.388,9.375 11.965,17.218 -1.738,9.583 -6.9,15.352 -10.808,21.294 -4.42,6.153 -10.372,15.04 -12.29,19.317 0,0 -6.048,-9.203 -13.917,-20.028 -5.262,-7.24 -9.473,-15.083 -9.865,-21.836 -0.448,-7.715 2.72,-14.63 11.49,-15.827 z m -111.534,0 c 7.145,-0.476 10.87,5.626 11.596,10.435 0.434,0.764 0.67,0.55 0.837,-0.042 0.35,-6.174 5.875,-11.22 10.993,-10.53 8.328,0.108 13.39,9.375 11.966,17.218 -1.738,9.583 -6.9,15.352 -10.807,21.294 -4.422,6.153 -10.373,15.04 -12.29,19.317 0,0 -6.05,-9.203 -13.918,-20.028 -5.262,-7.24 -9.473,-15.083 -9.865,-21.836 -0.448,-7.715 2.72,-14.63 11.49,-15.827 z m 0,156.09 c 7.145,0.475 10.87,-5.627 11.596,-10.436 0.434,-0.764 0.67,-0.55 0.837,0.042 0.35,6.175 5.875,11.22 10.993,10.53 8.328,-0.108 13.39,-9.375 11.966,-17.218 -1.738,-9.582 -6.9,-15.35 -10.807,-21.293 -4.422,-6.153 -10.373,-15.04 -12.29,-19.317 0,0 -6.05,9.204 -13.918,20.03 -5.262,7.238 -9.473,15.082 -9.865,21.835 -0.448,7.715 2.72,14.632 11.49,15.828 z m 111.534,0 c 7.144,0.475 10.868,-5.627 11.595,-10.436 0.433,-0.764 0.67,-0.55 0.836,0.042 0.35,6.175 5.875,11.22 10.993,10.53 8.327,-0.108 13.388,-9.375 11.965,-17.218 -1.738,-9.582 -6.9,-15.35 -10.808,-21.293 -4.42,-6.153 -10.372,-15.04 -12.29,-19.317 0,0 -6.048,9.204 -13.917,20.03 -5.262,7.238 -9.473,15.082 -9.865,21.835 -0.448,7.715 2.72,14.632 11.49,15.828 z m 41.994,-33.116 c -1.583,3.472 -1.756,9.405 2.97,10.208 3.564,0.458 5.013,-1.2 5.3,-3.742 0.144,-0.743 0.563,-0.79 0.696,0.058 0.205,2.61 2.787,4.133 4.807,3.75 5.527,-0.945 5.204,-7.028 3.4,-11.155 -2.732,-5.48 -5.602,-8.938 -8.246,-14.452 -3.038,5.742 -6.507,10.406 -8.926,15.334 z" />
    </g>
  </g>
</svg>
