<?xml version="1.0" encoding="UTF-8" standalone="no"?>
<!-- Created with Inkscape (http://www.inkscape.org/) -->

<svg
   xmlns:dc="http://purl.org/dc/elements/1.1/"
   xmlns:cc="http://creativecommons.org/ns#"
   xmlns:rdf="http://www.w3.org/1999/02/22-rdf-syntax-ns#"
   xmlns:svg="http://www.w3.org/2000/svg"
   xmlns="http://www.w3.org/2000/svg"
   xmlns:sodipodi="http://sodipodi.sourceforge.net/DTD/sodipodi-0.dtd"
   xmlns:inkscape="http://www.inkscape.org/namespaces/inkscape"
   width="63.281277mm"
   height="88.281372mm"
   viewBox="0 0 224.225 312.80801"
   id="svg7600"
   version="1.1"
   inkscape:version="0.91 r13725"
   sodipodi:docname="6S.svg">
  <defs
     id="defs7602" />
  <sodipodi:namedview
     id="base"
     pagecolor="#ffffff"
     bordercolor="#666666"
     borderopacity="1.0"
     inkscape:pageopacity="0.0"
     inkscape:pageshadow="2"
     inkscape:zoom="0.35"
     inkscape:cx="-546.45893"
     inkscape:cy="156.404"
     inkscape:document-units="px"
     inkscape:current-layer="layer1"
     showgrid="false"
     fit-margin-top="0"
     fit-margin-left="0"
     fit-margin-right="0"
     fit-margin-bottom="0"
     inkscape:window-width="1600"
     inkscape:window-height="838"
     inkscape:window-x="-8"
     inkscape:window-y="-8"
     inkscape:window-maximized="1" />
  <metadata
     id="metadata7605">
    <rdf:RDF>
      <cc:Work
         rdf:about="">
        <dc:format>image/svg+xml</dc:format>
        <dc:type
           rdf:resource="http://purl.org/dc/dcmitype/StillImage" />
        <dc:title></dc:title>
      </cc:Work>
    </rdf:RDF>
  </metadata>
  <g
     inkscape:label="Calque 1"
     inkscape:groupmode="layer"
     id="layer1"
     transform="translate(-262.8875,-375.9582)">
    <g
       transform="translate(-940.08877,-283.97226)"
       id="g4397">
      <g
         transform="translate(-5947.368,3407.24)"
         id="g4399">
        <rect
           style="fill:#ffffff;stroke:#000000;stroke-width:0.99699998"
           width="223.228"
           height="311.811"
           x="7150.8428"
           y="-2746.811"
           rx="10.63"
           ry="10.63"
           id="rect4401" />
        <path
           inkscape:connector-curvature="0"
           d="m 7159.083,-2710.81 c -0.41,-2.748 -0.402,-9.846 -0.066,-11.943 1.03,-6.43 3.532,-9.37 7.722,-10.333 4.068,-0.935 9.788,0.106 11.043,5.482 l -3.406,0.063 c -1.84,-3.634 -6.496,-2.663 -9.116,-1.083 -2.092,1.262 -3.037,6.52 -2.633,6.844 0,0 3.957,-2.877 7.076,-2.664 6.668,0.68 9.417,6.355 9.185,11.718 -0.21,6.45 -2.295,11.603 -9.36,11.947 -6.72,-0.253 -9.8,-3.85 -10.445,-10.03 z m 16.57,-1.706 c 0.037,-4.475 -2.034,-7.822 -5.95,-8.192 -3.915,-0.37 -7.863,3.382 -7.59,7.943 0.275,4.576 2.08,8.43 6.827,8.41 5.106,-0.023 6.687,-4.976 6.713,-8.16 z M 7365.83,-2471 c 0.41,2.747 0.403,9.845 0.067,11.942 -1.03,6.43 -3.532,9.37 -7.722,10.333 -4.07,0.935 -9.79,-0.106 -11.044,-5.482 l 3.407,-0.063 c 1.84,3.633 6.495,2.662 9.116,1.082 2.093,-1.262 3.038,-6.52 2.634,-6.843 0,0 -3.957,2.876 -7.076,2.663 -6.667,-0.68 -9.416,-6.355 -9.184,-11.718 0.21,-6.45 2.295,-11.603 9.36,-11.947 6.72,0.254 9.8,3.85 10.445,10.032 z m -16.57,1.705 c -0.036,4.475 2.035,7.822 5.95,8.192 3.916,0.37 7.864,-3.382 7.59,-7.943 -0.274,-4.576 -2.078,-8.43 -6.826,-8.41 -5.106,0.023 -6.687,4.976 -6.713,8.16 z"
           id="path4403" />
      </g>
      <path
         inkscape:connector-curvature="0"
         d="m 1257.322,728.99 c 0.015,-2.026 -1.587,-2.064 -1.568,-0.586 -0.135,7.43 -6.417,11.087 -10.98,10.22 -7.037,-1.34 -9.283,-8.323 -9.216,-12.436 0.207,-12.697 12.988,-22.06 24.52,-38.335 8.45,14.69 22.398,26.23 23.223,37.586 1.1,15.097 -18.008,20.728 -20.736,3.13 -0.176,-1.242 -1.64,-1.8 -1.526,-0.064 0.415,4.823 -0.175,6.832 5.266,18.72 l -14.222,0 c 3.15,-5.555 5.026,-12.375 5.24,-18.236 z m 111.533,0 c 0.015,-2.026 -1.587,-2.064 -1.57,-0.586 -0.133,7.43 -6.415,11.087 -10.98,10.22 -7.035,-1.34 -9.28,-8.323 -9.214,-12.436 0.208,-12.697 12.99,-22.06 24.52,-38.335 8.45,14.69 22.398,26.23 23.224,37.586 1.098,15.097 -18.01,20.728 -20.737,3.13 -0.176,-1.242 -1.64,-1.8 -1.526,-0.064 0.416,4.823 -0.174,6.832 5.267,18.72 l -14.222,0 c 3.15,-5.555 5.026,-12.375 5.24,-18.236 z m -111.522,76.018 c 0.015,2.026 -1.587,2.064 -1.57,0.586 -0.133,-7.43 -6.415,-11.087 -10.98,-10.22 -7.035,1.34 -9.28,8.323 -9.214,12.436 0.206,12.697 12.987,22.06 24.52,38.335 8.45,-14.69 22.396,-26.23 23.222,-37.586 1.098,-15.1 -18.01,-20.73 -20.737,-3.133 -0.176,1.243 -1.64,1.8 -1.526,0.065 0.414,-4.823 -0.176,-6.832 5.265,-18.72 l -14.222,0 c 3.15,5.555 5.026,12.375 5.24,18.236 z m 111.533,0 c 0.015,2.026 -1.587,2.064 -1.57,0.586 -0.133,-7.43 -6.415,-11.087 -10.98,-10.22 -7.036,1.34 -9.28,8.323 -9.214,12.436 0.207,12.697 12.988,22.06 24.52,38.335 8.45,-14.69 22.397,-26.23 23.223,-37.586 1.098,-15.1 -18.01,-20.73 -20.737,-3.133 -0.176,1.243 -1.64,1.8 -1.526,0.065 0.414,-4.823 -0.175,-6.832 5.266,-18.72 l -14.222,0 c 3.15,5.555 5.025,12.375 5.24,18.236 z m 0,98.599 c 0.015,2.025 -1.587,2.064 -1.57,0.585 -0.133,-7.428 -6.415,-11.086 -10.98,-10.218 -7.036,1.337 -9.28,8.322 -9.214,12.435 0.207,12.695 12.988,22.057 24.52,38.334 8.45,-14.69 22.397,-26.23 23.223,-37.586 1.098,-15.098 -18.01,-20.73 -20.737,-3.133 -0.176,1.243 -1.64,1.8 -1.526,0.065 0.414,-4.822 -0.175,-6.83 5.266,-18.72 l -14.222,0 c 3.15,5.556 5.025,12.375 5.24,18.237 z m -111.533,0 c 0.015,2.025 -1.587,2.064 -1.57,0.585 -0.133,-7.428 -6.415,-11.086 -10.98,-10.218 -7.035,1.337 -9.28,8.322 -9.214,12.435 0.206,12.695 12.987,22.057 24.52,38.334 8.45,-14.69 22.396,-26.23 23.222,-37.586 1.098,-15.098 -18.01,-20.73 -20.737,-3.133 -0.176,1.243 -1.64,1.8 -1.526,0.065 0.414,-4.822 -0.176,-6.83 5.265,-18.72 l -14.222,0 c 3.15,5.556 5.026,12.375 5.24,18.237 z M 1220.37,728.86 c 0.01,-0.872 -0.895,-0.465 -1.018,-0.19 -1.163,1.985 -2.864,2.447 -4.548,1.73 -1.667,-0.708 -2.604,-2.28 -2.453,-4.52 0.31,-3.44 3.036,-7.2 4.356,-9.327 1.252,-1.93 2.628,-4.222 4.076,-7.154 1.698,3.362 2.56,4.32 4.406,7.39 1.625,2.705 3.892,5.353 4.067,8.623 0,2.485 -1.046,4.832 -3.4,5.26 -1.33,0.24 -2.578,-0.442 -3.503,-2.038 -0.282,-0.406 -0.85,-0.194 -0.84,0.362 0.166,2.094 0.956,3.983 2.83,6.212 l -6.887,0 c 1.41,-1.577 2.85,-3.705 2.915,-6.35 z m 188.815,172.745 c 0.01,0.872 -0.895,0.465 -1.017,0.19 -1.164,-1.985 -2.865,-2.447 -4.548,-1.73 -1.668,0.708 -2.604,2.28 -2.454,4.52 0.31,3.44 3.035,7.2 4.355,9.327 1.253,1.93 2.63,4.222 4.078,7.154 1.697,-3.363 2.558,-4.32 4.405,-7.39 1.626,-2.706 3.892,-5.354 4.067,-8.623 0,-2.485 -1.046,-4.832 -3.4,-5.26 -1.33,-0.242 -2.578,0.442 -3.503,2.037 -0.282,0.407 -0.85,0.195 -0.84,-0.362 0.166,-2.093 0.956,-3.983 2.83,-6.212 l -6.887,0 c 1.41,1.576 2.85,3.704 2.916,6.35 z"
         id="path4405" />
    </g>
  </g>
</svg>
