<?xml version="1.0" encoding="UTF-8" standalone="no"?>
<!-- Created with Inkscape (http://www.inkscape.org/) -->

<svg
   xmlns:dc="http://purl.org/dc/elements/1.1/"
   xmlns:cc="http://creativecommons.org/ns#"
   xmlns:rdf="http://www.w3.org/1999/02/22-rdf-syntax-ns#"
   xmlns:svg="http://www.w3.org/2000/svg"
   xmlns="http://www.w3.org/2000/svg"
   xmlns:sodipodi="http://sodipodi.sourceforge.net/DTD/sodipodi-0.dtd"
   xmlns:inkscape="http://www.inkscape.org/namespaces/inkscape"
   width="63.279301mm"
   height="88.279396mm"
   viewBox="0 0 224.21799 312.80101"
   id="svg8725"
   version="1.1"
   inkscape:version="0.91 r13725"
   sodipodi:docname="7C.svg">
  <defs
     id="defs8727" />
  <sodipodi:namedview
     id="base"
     pagecolor="#ffffff"
     bordercolor="#666666"
     borderopacity="1.0"
     inkscape:pageopacity="0.0"
     inkscape:pageshadow="2"
     inkscape:zoom="0.35"
     inkscape:cx="-545.7481"
     inkscape:cy="44.97193"
     inkscape:document-units="px"
     inkscape:current-layer="layer1"
     showgrid="false"
     fit-margin-top="0"
     fit-margin-left="0"
     fit-margin-right="0"
     fit-margin-bottom="0"
     inkscape:window-width="1600"
     inkscape:window-height="838"
     inkscape:window-x="-8"
     inkscape:window-y="-8"
     inkscape:window-maximized="1" />
  <metadata
     id="metadata8730">
    <rdf:RDF>
      <cc:Work
         rdf:about="">
        <dc:format>image/svg+xml</dc:format>
        <dc:type
           rdf:resource="http://purl.org/dc/dcmitype/StillImage" />
        <dc:title></dc:title>
      </cc:Work>
    </rdf:RDF>
  </metadata>
  <g
     inkscape:label="Calque 1"
     inkscape:groupmode="layer"
     id="layer1"
     transform="translate(-262.17667,-264.53313)">
    <g
       transform="translate(-1163.7795,230.21413)"
       id="g4313">
      <g
         transform="translate(-4608.25,2469.814)"
         id="g4315">
        <rect
           style="fill:#ffffff;stroke:#000000;stroke-width:0.99000001;stroke-miterlimit:3.79999995"
           width="223.228"
           height="311.811"
           x="6034.7012"
           y="-2435"
           stroke-miterlimit="3.8"
           rx="10.63"
           ry="10.63"
           id="rect4317" />
      </g>
      <path
         inkscape:connector-curvature="0"
         d="m 1438.5,81.325 c 2.13,-11.09 4.408,-19.41 10.38,-28.448 l -12.136,0 0,3.89 -3.226,0 0,-7.33 17.755,0 2.188,3.44 c -6.34,6.797 -12.147,28.768 -11.118,28.448 z m 198.542,218.79 c -2.132,11.09 -4.41,19.41 -10.38,28.448 l 12.135,0 0,-3.89 3.226,0 0,7.33 -17.755,0 -2.188,-3.44 c 6.34,-6.797 12.148,-28.77 11.12,-28.448 z M 1581.575,121.94 c 2.88,-5.777 4.976,-11.702 5.348,-18.038 0.34,-2.332 -1.075,-2.37 -1.288,-0.73 -4.077,15.594 -25.763,11.37 -25.017,-3.296 0.605,-11.894 12.42,-14.453 18.582,-10.564 2.434,1.433 2.296,0.575 0.968,-0.912 -9.155,-10.21 -3.61,-23.362 8.76,-23.602 13.38,0.793 16.852,14.87 8.645,23.148 -1.02,0.995 -3.283,4.19 0.123,1.956 8.287,-5.888 19.788,0.443 19.553,9.52 -0.434,16.74 -20.84,17.988 -25.204,4.007 -0.42,-1.55 -1.63,-2.33 -1.295,0.303 0.606,4.767 1.857,11.954 5.438,18.206 z m 0,100.247 c 2.88,-5.775 4.976,-11.7 5.348,-18.037 0.34,-2.332 -1.075,-2.37 -1.288,-0.73 -4.077,15.594 -25.763,11.372 -25.017,-3.295 0.605,-11.895 12.42,-14.454 18.582,-10.565 2.434,1.433 2.296,0.575 0.968,-0.91 -9.155,-10.213 -3.61,-23.363 8.76,-23.604 13.38,0.794 16.852,14.87 8.645,23.148 -1.02,0.995 -3.283,4.192 0.123,1.957 8.287,-5.887 19.788,0.444 19.553,9.52 -0.434,16.74 -20.84,17.99 -25.204,4.007 -0.42,-1.55 -1.63,-2.328 -1.295,0.305 0.606,4.766 1.857,11.953 5.438,18.205 z m -101.533,0 c 2.88,-5.775 4.976,-11.7 5.348,-18.037 0.342,-2.332 -1.075,-2.37 -1.288,-0.73 -4.076,15.594 -25.763,11.372 -25.017,-3.295 0.605,-11.895 12.42,-14.454 18.582,-10.565 2.434,1.433 2.296,0.575 0.968,-0.91 -9.155,-10.213 -3.61,-23.363 8.76,-23.604 13.38,0.794 16.852,14.87 8.645,23.148 -1.02,0.995 -3.283,4.192 0.123,1.957 8.287,-5.887 19.788,0.444 19.553,9.52 -0.433,16.74 -20.84,17.99 -25.203,4.007 -0.42,-1.55 -1.63,-2.328 -1.295,0.305 0.605,4.766 1.856,11.953 5.437,18.205 z m 50.434,-50.124 c 2.88,-5.775 4.976,-11.7 5.348,-18.037 0.342,-2.332 -1.075,-2.37 -1.288,-0.73 -4.077,15.594 -25.763,11.372 -25.017,-3.295 0.604,-11.894 12.418,-14.453 18.58,-10.564 2.435,1.433 2.297,0.575 0.97,-0.912 -9.156,-10.21 -3.61,-23.36 8.76,-23.602 13.38,0.793 16.85,14.87 8.644,23.148 -1.02,0.995 -3.283,4.192 0.123,1.957 8.287,-5.888 19.788,0.442 19.553,9.52 -0.433,16.74 -20.84,17.988 -25.203,4.006 -0.42,-1.55 -1.63,-2.33 -1.295,0.304 0.605,4.767 1.856,11.954 5.437,18.206 z m -50.434,-50.123 c 2.88,-5.777 4.976,-11.702 5.348,-18.038 0.342,-2.332 -1.075,-2.37 -1.288,-0.73 -4.076,15.594 -25.763,11.37 -25.017,-3.296 0.605,-11.894 12.42,-14.453 18.582,-10.564 2.434,1.433 2.296,0.575 0.968,-0.912 -9.155,-10.21 -3.61,-23.362 8.76,-23.602 13.38,0.793 16.852,14.87 8.645,23.148 -1.02,0.995 -3.283,4.19 0.123,1.956 8.287,-5.888 19.788,0.443 19.553,9.52 -0.433,16.74 -20.84,17.988 -25.203,4.007 -0.42,-1.55 -1.63,-2.33 -1.295,0.303 0.605,4.767 1.856,11.954 5.437,18.206 z m 116.235,141.705 c -2.88,5.775 -4.976,11.7 -5.348,18.037 -0.343,2.332 1.073,2.37 1.287,0.73 4.076,-15.594 25.762,-11.372 25.017,3.295 -0.605,11.895 -12.42,14.454 -18.582,10.565 -2.434,-1.433 -2.297,-0.575 -0.968,0.91 9.154,10.213 3.61,23.363 -8.762,23.604 -13.38,-0.794 -16.85,-14.87 -8.644,-23.148 1.02,-0.995 3.284,-4.192 -0.123,-1.957 -8.287,5.89 -19.787,-0.442 -19.552,-9.52 0.432,-16.738 20.84,-17.987 25.203,-4.005 0.42,1.55 1.63,2.328 1.295,-0.305 -0.604,-4.766 -1.856,-11.953 -5.437,-18.205 z m -101.533,0 c -2.88,5.775 -4.976,11.7 -5.348,18.037 -0.342,2.332 1.074,2.37 1.288,0.73 4.076,-15.594 25.763,-11.372 25.017,3.295 -0.604,11.895 -12.418,14.454 -18.58,10.565 -2.435,-1.433 -2.297,-0.575 -0.97,0.91 9.156,10.213 3.61,23.363 -8.76,23.604 -13.38,-0.794 -16.852,-14.87 -8.645,-23.148 1.02,-0.995 3.284,-4.192 -0.123,-1.957 -8.286,5.89 -19.787,-0.442 -19.552,-9.52 0.432,-16.738 20.84,-17.987 25.203,-4.005 0.42,1.55 1.63,2.328 1.295,-0.305 -0.605,-4.766 -1.857,-11.953 -5.437,-18.205 z m -55.132,-152.443 c 1.192,-2.445 2.352,-4.72 2.984,-7.4 0.42,-2.53 -0.438,-1.59 -0.925,0.067 -0.72,2.296 -2.72,3.343 -4.58,3.368 -3.37,0.045 -5.05,-2.604 -4.947,-5.454 -0.368,-3 2.67,-5.12 4.962,-4.957 1.722,0.123 3.224,1.052 4.133,1.775 0.596,0.316 1.234,0.455 0.345,-0.358 -1.678,-1.833 -3.077,-2.964 -3.046,-5.71 0.03,-2.58 2.233,-5.27 5.155,-5.185 3.652,0.105 5.312,2.89 5.304,5.48 -0.01,1.888 -0.954,3.626 -2.412,4.703 -0.944,0.766 -0.68,1.34 0.398,0.614 1.035,-0.892 2.267,-1.282 3.545,-1.31 3.49,-0.054 4.855,2.962 4.655,5.765 -0.188,2.625 -2.423,5.328 -5.37,5.022 -2.63,-0.302 -4.012,-2.51 -4.804,-4.777 -0.263,-0.695 -0.676,-0.883 -0.665,0.153 0.608,5.058 2.492,8.205 2.505,8.202 z m 196.905,162.003 c -1.193,2.445 -2.353,4.72 -2.985,7.4 -0.42,2.528 0.44,1.59 0.925,-0.067 0.722,-2.298 2.723,-3.344 4.58,-3.37 3.372,-0.045 5.053,2.605 4.948,5.455 0.368,2.998 -2.67,5.12 -4.96,4.956 -1.724,-0.123 -3.225,-1.053 -4.134,-1.776 -0.596,-0.315 -1.233,-0.454 -0.344,0.36 1.677,1.832 3.076,2.963 3.046,5.71 -0.03,2.578 -2.234,5.268 -5.156,5.183 -3.65,-0.105 -5.312,-2.89 -5.303,-5.48 0.01,-1.89 0.954,-3.626 2.412,-4.703 0.944,-0.766 0.68,-1.34 -0.398,-0.615 -1.035,0.89 -2.267,1.282 -3.545,1.31 -3.49,0.054 -4.855,-2.962 -4.655,-5.765 0.187,-2.626 2.423,-5.328 5.37,-5.022 2.63,0.3 4.012,2.51 4.804,4.777 0.263,0.695 0.677,0.882 0.666,-0.153 -0.608,-5.058 -2.492,-8.205 -2.506,-8.202 z"
         id="path4319" />
    </g>
  </g>
</svg>
