<?xml version="1.0" encoding="UTF-8" standalone="no"?>
<!-- Created with Inkscape (http://www.inkscape.org/) -->

<svg
   xmlns:dc="http://purl.org/dc/elements/1.1/"
   xmlns:cc="http://creativecommons.org/ns#"
   xmlns:rdf="http://www.w3.org/1999/02/22-rdf-syntax-ns#"
   xmlns:svg="http://www.w3.org/2000/svg"
   xmlns="http://www.w3.org/2000/svg"
   xmlns:sodipodi="http://sodipodi.sourceforge.net/DTD/sodipodi-0.dtd"
   xmlns:inkscape="http://www.inkscape.org/namespaces/inkscape"
   width="63.279301mm"
   height="88.279396mm"
   viewBox="0 0 224.21799 312.80101"
   id="svg15649"
   version="1.1"
   inkscape:version="0.91 r13725"
   sodipodi:docname="7D.svg">
  <defs
     id="defs15651" />
  <sodipodi:namedview
     id="base"
     pagecolor="#ffffff"
     bordercolor="#666666"
     borderopacity="1.0"
     inkscape:pageopacity="0.0"
     inkscape:pageshadow="2"
     inkscape:zoom="0.35"
     inkscape:cx="-437.1767"
     inkscape:cy="147.8291"
     inkscape:document-units="px"
     inkscape:current-layer="layer1"
     showgrid="false"
     fit-margin-top="0"
     fit-margin-left="0"
     fit-margin-right="0"
     fit-margin-bottom="0"
     inkscape:window-width="1600"
     inkscape:window-height="838"
     inkscape:window-x="-8"
     inkscape:window-y="-8"
     inkscape:window-maximized="1" />
  <metadata
     id="metadata15654">
    <rdf:RDF>
      <cc:Work
         rdf:about="">
        <dc:format>image/svg+xml</dc:format>
        <dc:type
           rdf:resource="http://purl.org/dc/dcmitype/StillImage" />
        <dc:title></dc:title>
      </cc:Work>
    </rdf:RDF>
  </metadata>
  <g
     inkscape:label="Calque 1"
     inkscape:groupmode="layer"
     id="layer1"
     transform="translate(-153.60527,-367.3903)">
    <g
       transform="translate(-5880.6009,2802.8853)"
       id="g4499">
      <rect
         style="fill:#ffffff;stroke:#000000;stroke-width:0.99000001;stroke-miterlimit:3.79999995"
         width="223.228"
         height="311.811"
         x="6034.7012"
         y="-2435"
         stroke-miterlimit="3.8"
         rx="10.63"
         ry="10.63"
         id="rect4501" />
      <g
         style="fill:#d40000"
         id="g4503">
        <path
           inkscape:connector-curvature="0"
           d="m 6067.71,-2376.21 c 9.92,-9.682 16.437,-20.238 22.668,-30.39 5.464,11.17 13.306,20.943 21.786,30.39 -9.073,9.368 -16.105,19.386 -21.76,29.917 -6.267,-10.795 -12.865,-20.57 -22.693,-29.917 z m 0,100.248 c 9.92,-9.682 16.437,-20.237 22.668,-30.39 5.464,11.17 13.306,20.943 21.786,30.39 -9.073,9.37 -16.105,19.386 -21.76,29.918 -6.267,-10.796 -12.865,-20.572 -22.693,-29.918 z m 0,98.599 c 9.92,-9.682 16.437,-20.238 22.668,-30.39 5.464,11.17 13.306,20.943 21.786,30.39 -9.073,9.368 -16.105,19.386 -21.76,29.917 -6.267,-10.795 -12.865,-20.57 -22.693,-29.917 z m 56.435,-148.723 c 9.92,-9.682 16.436,-20.238 22.667,-30.39 5.464,11.17 13.306,20.943 21.786,30.39 -9.073,9.368 -16.105,19.386 -21.76,29.918 -6.267,-10.796 -12.865,-20.572 -22.693,-29.918 z m 55.099,-50.124 c 9.92,-9.682 16.436,-20.238 22.667,-30.39 5.465,11.17 13.307,20.943 21.787,30.39 -9.073,9.368 -16.105,19.386 -21.76,29.917 -6.267,-10.795 -12.865,-20.57 -22.693,-29.917 z m 0,100.248 c 9.92,-9.682 16.436,-20.237 22.667,-30.39 5.465,11.17 13.307,20.943 21.787,30.39 -9.073,9.37 -16.105,19.386 -21.76,29.918 -6.267,-10.796 -12.865,-20.572 -22.693,-29.918 z m 0,98.599 c 9.92,-9.682 16.436,-20.238 22.667,-30.39 5.465,11.17 13.307,20.943 21.787,30.39 -9.073,9.368 -16.105,19.386 -21.76,29.917 -6.267,-10.795 -12.865,-20.57 -22.693,-29.917 z m 52.666,-7.223 c 4.065,-3.966 6.734,-8.29 9.287,-12.448 2.238,4.575 5.45,8.58 8.924,12.448 -3.715,3.838 -6.596,7.942 -8.912,12.256 -2.568,-4.422 -5.27,-8.427 -9.297,-12.256 z m -188.814,-185.857 c 4.064,-3.966 6.733,-8.29 9.286,-12.45 2.238,4.577 5.45,8.58 8.924,12.45 -3.717,3.837 -6.597,7.94 -8.913,12.255 -2.568,-4.422 -5.27,-8.427 -9.297,-12.255 z m 3.947,-18.047 c 2.132,-11.09 4.41,-19.41 10.38,-28.447 l -12.135,0 0,3.89 -3.225,0 0,-7.33 17.754,0 2.188,3.44 c -6.34,6.797 -12.148,28.768 -11.12,28.447 z m 198.544,218.79 c -2.132,11.09 -4.41,19.41 -10.38,28.448 l 12.134,0 0,-3.89 3.227,0 0,7.33 -17.754,0 -2.19,-3.44 c 6.343,-6.797 12.15,-28.768 11.12,-28.447 z"
           id="path4505" />
      </g>
    </g>
  </g>
</svg>
