<?xml version="1.0" encoding="UTF-8" standalone="no"?>
<!-- Created with Inkscape (http://www.inkscape.org/) -->

<svg
   xmlns:dc="http://purl.org/dc/elements/1.1/"
   xmlns:cc="http://creativecommons.org/ns#"
   xmlns:rdf="http://www.w3.org/1999/02/22-rdf-syntax-ns#"
   xmlns:svg="http://www.w3.org/2000/svg"
   xmlns="http://www.w3.org/2000/svg"
   xmlns:sodipodi="http://sodipodi.sourceforge.net/DTD/sodipodi-0.dtd"
   xmlns:inkscape="http://www.inkscape.org/namespaces/inkscape"
   width="63.279301mm"
   height="88.279396mm"
   viewBox="0 0 224.21799 312.80101"
   id="svg18546"
   version="1.1"
   inkscape:version="0.91 r13725"
   sodipodi:docname="7H.svg">
  <defs
     id="defs18548" />
  <sodipodi:namedview
     id="base"
     pagecolor="#ffffff"
     bordercolor="#666666"
     borderopacity="1.0"
     inkscape:pageopacity="0.0"
     inkscape:pageshadow="2"
     inkscape:zoom="0.35"
     inkscape:cx="-677.1767"
     inkscape:cy="130.68622"
     inkscape:document-units="px"
     inkscape:current-layer="layer1"
     showgrid="false"
     fit-margin-top="0"
     fit-margin-left="0"
     fit-margin-right="0"
     fit-margin-bottom="0"
     inkscape:window-width="1600"
     inkscape:window-height="838"
     inkscape:window-x="-8"
     inkscape:window-y="-8"
     inkscape:window-maximized="1" />
  <metadata
     id="metadata18551">
    <rdf:RDF>
      <cc:Work
         rdf:about="">
        <dc:format>image/svg+xml</dc:format>
        <dc:type
           rdf:resource="http://purl.org/dc/dcmitype/StillImage" />
        <dc:title></dc:title>
      </cc:Work>
    </rdf:RDF>
  </metadata>
  <g
     inkscape:label="Calque 1"
     inkscape:groupmode="layer"
     id="layer1"
     transform="translate(-393.60527,-350.24742)">
    <g
       transform="translate(-1032.6279,3.1204167)"
       id="g18525">
      <g
         id="g13406"
         transform="translate(-4607.973,2782.622)">
        <rect
           style="fill:#ffffff;stroke:#000000;stroke-width:0.99000001;stroke-miterlimit:3.79999995"
           id="rect13408"
           ry="10.63"
           rx="10.63"
           stroke-miterlimit="3.8"
           y="-2435"
           x="6034.7012"
           height="311.811"
           width="223.228" />
        <g
           style="fill:#d40000"
           id="g13410">
          <path
             inkscape:connector-curvature="0"
             id="path13412"
             d="m 6047.043,-2388.49 c 2.132,-11.09 4.41,-19.41 10.38,-28.447 l -12.135,0 0,3.89 -3.225,0 0,-7.33 17.754,0 2.188,3.44 c -6.34,6.797 -12.148,28.768 -11.12,28.447 z m 198.544,218.79 c -2.132,11.09 -4.41,19.41 -10.38,28.448 l 12.134,0 0,-3.89 3.227,0 0,7.33 -17.754,0 -2.19,-3.44 c 6.343,-6.797 12.15,-28.768 11.12,-28.447 z" />
        </g>
      </g>
      <path
         style="fill:#d40000"
         inkscape:connector-curvature="0"
         id="path13414"
         d="m 1435.555,409.582 c -1.583,-3.472 -1.756,-9.405 2.972,-10.208 3.562,-0.458 5.01,1.2 5.3,3.742 0.142,0.743 0.56,0.79 0.694,-0.058 0.206,-2.61 2.788,-4.133 4.808,-3.75 5.526,0.945 5.204,7.028 3.398,11.155 -2.73,5.48 -5.6,8.938 -8.245,14.452 -3.037,-5.74 -6.506,-10.405 -8.925,-15.333 z m 34.36,-32.152 c 7.144,-0.475 10.868,5.627 11.595,10.436 0.433,0.764 0.67,0.548 0.837,-0.043 0.35,-6.174 5.875,-11.22 10.992,-10.53 8.327,0.11 13.39,9.376 11.966,17.22 -1.74,9.58 -6.9,15.35 -10.808,21.292 -4.42,6.153 -10.373,15.04 -12.29,19.317 0,0 -6.05,-9.205 -13.917,-20.03 -5.26,-7.238 -9.473,-15.082 -9.865,-21.835 -0.447,-7.715 2.72,-14.632 11.49,-15.828 z m 111.532,0 c 7.144,-0.475 10.87,5.627 11.596,10.436 0.433,0.764 0.67,0.548 0.836,-0.043 0.35,-6.174 5.874,-11.22 10.992,-10.53 8.328,0.11 13.39,9.376 11.966,17.22 -1.738,9.58 -6.9,15.35 -10.807,21.292 -4.42,6.153 -10.372,15.04 -12.29,19.317 0,0 -6.048,-9.205 -13.917,-20.03 -5.26,-7.238 -9.473,-15.082 -9.865,-21.835 -0.448,-7.715 2.72,-14.632 11.49,-15.828 z m -55.099,50.124 c 7.144,-0.475 10.87,5.627 11.596,10.436 0.433,0.764 0.67,0.55 0.837,-0.042 0.35,-6.174 5.875,-11.22 10.993,-10.53 8.328,0.108 13.39,9.375 11.967,17.218 -1.74,9.582 -6.9,15.35 -10.808,21.293 -4.422,6.152 -10.373,15.04 -12.29,19.316 0,0 -6.05,-9.204 -13.918,-20.03 -5.26,-7.238 -9.473,-15.082 -9.865,-21.835 -0.45,-7.714 2.72,-14.63 11.488,-15.826 z m -56.433,50.124 c 7.144,-0.475 10.868,5.627 11.595,10.436 0.433,0.764 0.67,0.55 0.837,-0.042 0.35,-6.174 5.875,-11.22 10.992,-10.53 8.327,0.108 13.39,9.375 11.966,17.22 -1.74,9.58 -6.9,15.35 -10.808,21.292 -4.42,6.152 -10.373,15.04 -12.29,19.316 0,0 -6.05,-9.204 -13.917,-20.03 -5.26,-7.238 -9.473,-15.08 -9.865,-21.835 -0.447,-7.715 2.72,-14.63 11.49,-15.827 z m 111.532,0 c 7.144,-0.475 10.87,5.627 11.596,10.436 0.433,0.764 0.67,0.55 0.836,-0.042 0.35,-6.174 5.874,-11.22 10.992,-10.53 8.328,0.108 13.39,9.375 11.966,17.22 -1.738,9.58 -6.9,15.35 -10.807,21.292 -4.42,6.152 -10.372,15.04 -12.29,19.316 0,0 -6.048,-9.204 -13.917,-20.03 -5.26,-7.238 -9.473,-15.08 -9.865,-21.835 -0.448,-7.715 2.72,-14.63 11.49,-15.827 z m 42.923,122.762 c -1.582,3.472 -1.756,9.405 2.972,10.208 3.562,0.458 5.01,-1.198 5.3,-3.742 0.142,-0.743 0.56,-0.788 0.694,0.058 0.205,2.61 2.788,4.133 4.807,3.75 5.526,-0.945 5.204,-7.028 3.398,-11.155 -2.73,-5.48 -5.6,-8.94 -8.244,-14.453 -3.038,5.74 -6.507,10.405 -8.925,15.333 z m -42.923,33.33 c 7.144,0.474 10.87,-5.628 11.596,-10.437 0.433,-0.764 0.67,-0.548 0.836,0.043 0.35,6.174 5.874,11.22 10.992,10.53 8.328,-0.11 13.39,-9.376 11.966,-17.22 -1.738,-9.58 -6.9,-15.35 -10.807,-21.292 -4.42,-6.152 -10.372,-15.04 -12.29,-19.317 0,0 -6.048,9.205 -13.917,20.03 -5.26,7.238 -9.473,15.082 -9.865,21.835 -0.448,7.716 2.72,14.632 11.49,15.828 z m -111.532,0 c 7.144,0.474 10.868,-5.628 11.595,-10.437 0.433,-0.764 0.67,-0.548 0.837,0.043 0.35,6.174 5.875,11.22 10.992,10.53 8.327,-0.11 13.39,-9.376 11.966,-17.22 -1.74,-9.58 -6.9,-15.35 -10.808,-21.292 -4.42,-6.152 -10.373,-15.04 -12.29,-19.317 0,0 -6.05,9.205 -13.917,20.03 -5.26,7.238 -9.473,15.082 -9.865,21.835 -0.447,7.716 2.72,14.632 11.49,15.828 z" />
    </g>
  </g>
</svg>
