<?xml version="1.0" encoding="UTF-8" standalone="no"?>
<!-- Created with Inkscape (http://www.inkscape.org/) -->

<svg
   xmlns:dc="http://purl.org/dc/elements/1.1/"
   xmlns:cc="http://creativecommons.org/ns#"
   xmlns:rdf="http://www.w3.org/1999/02/22-rdf-syntax-ns#"
   xmlns:svg="http://www.w3.org/2000/svg"
   xmlns="http://www.w3.org/2000/svg"
   xmlns:sodipodi="http://sodipodi.sourceforge.net/DTD/sodipodi-0.dtd"
   xmlns:inkscape="http://www.inkscape.org/namespaces/inkscape"
   width="63.279301mm"
   height="88.279396mm"
   viewBox="0 0 224.21799 312.80101"
   id="svg8175"
   version="1.1"
   inkscape:version="0.91 r13725"
   sodipodi:docname="7S.svg">
  <defs
     id="defs8177" />
  <sodipodi:namedview
     id="base"
     pagecolor="#ffffff"
     bordercolor="#666666"
     borderopacity="1.0"
     inkscape:pageopacity="0.0"
     inkscape:pageshadow="2"
     inkscape:zoom="0.35"
     inkscape:cx="-774.31957"
     inkscape:cy="302.11479"
     inkscape:document-units="px"
     inkscape:current-layer="layer1"
     showgrid="false"
     fit-margin-top="0"
     fit-margin-left="0"
     fit-margin-right="0"
     fit-margin-bottom="0"
     inkscape:window-width="1600"
     inkscape:window-height="838"
     inkscape:window-x="-8"
     inkscape:window-y="-8"
     inkscape:window-maximized="1" />
  <metadata
     id="metadata8180">
    <rdf:RDF>
      <cc:Work
         rdf:about="">
        <dc:format>image/svg+xml</dc:format>
        <dc:type
           rdf:resource="http://purl.org/dc/dcmitype/StillImage" />
        <dc:title></dc:title>
      </cc:Work>
    </rdf:RDF>
  </metadata>
  <g
     inkscape:label="Calque 1"
     inkscape:groupmode="layer"
     id="layer1"
     transform="translate(-490.74814,-521.67599)">
    <g
       transform="translate(-935.48503,-138.25901)"
       id="g4407">
      <g
         transform="translate(-4607.973,3095.43)"
         id="g4409">
        <rect
           style="fill:#ffffff;stroke:#000000;stroke-width:0.99000001;stroke-miterlimit:3.79999995"
           width="223.228"
           height="311.811"
           x="6034.7012"
           y="-2435"
           stroke-miterlimit="3.8"
           rx="10.63"
           ry="10.63"
           id="rect4411" />
        <path
           inkscape:connector-curvature="0"
           d="m 6047.043,-2388.49 c 2.132,-11.09 4.41,-19.41 10.38,-28.447 l -12.135,0 0,3.89 -3.225,0 0,-7.33 17.754,0 2.188,3.44 c -6.34,6.797 -12.148,28.768 -11.12,28.447 z m 198.544,218.79 c -2.132,11.09 -4.41,19.41 -10.38,28.448 l 12.134,0 0,-3.89 3.227,0 0,7.33 -17.754,0 -2.19,-3.44 c 6.343,-6.797 12.15,-28.768 11.12,-28.447 z"
           id="path4413" />
      </g>
      <path
         inkscape:connector-curvature="0"
         d="m 1479.824,730.434 c 0.015,-2.025 -1.587,-2.064 -1.57,-0.585 -0.133,7.427 -6.415,11.085 -10.98,10.217 -7.035,-1.337 -9.28,-8.322 -9.214,-12.435 0.207,-12.696 12.988,-22.058 24.52,-38.335 8.45,14.69 22.397,26.23 23.223,37.586 1.098,15.098 -18.01,20.73 -20.737,3.133 -0.176,-1.243 -1.64,-1.8 -1.526,-0.065 0.415,4.823 -0.175,6.832 5.266,18.72 l -14.222,0 c 3.15,-5.555 5.025,-12.374 5.24,-18.236 z m 111.533,0 c 0.015,-2.025 -1.587,-2.064 -1.57,-0.585 -0.133,7.427 -6.415,11.085 -10.98,10.217 -7.036,-1.337 -9.28,-8.322 -9.214,-12.435 0.207,-12.696 12.988,-22.058 24.52,-38.335 8.45,14.69 22.397,26.23 23.223,37.586 1.098,15.098 -18.01,20.73 -20.737,3.133 -0.177,-1.243 -1.64,-1.8 -1.527,-0.065 0.414,4.823 -0.175,6.832 5.266,18.72 l -14.223,0 c 3.15,-5.555 5.025,-12.374 5.24,-18.236 z m -55.099,50.126 c 0.015,-2.027 -1.587,-2.066 -1.57,-0.587 -0.133,7.43 -6.415,11.086 -10.98,10.22 -7.036,-1.34 -9.28,-8.323 -9.214,-12.437 0.207,-12.696 12.988,-22.058 24.52,-38.334 8.45,14.69 22.397,26.23 23.223,37.585 1.098,15.098 -18.01,20.73 -20.737,3.133 -0.176,-1.243 -1.64,-1.8 -1.526,-0.065 0.414,4.823 -0.175,6.83 5.266,18.72 l -14.222,0 c 3.15,-5.555 5.025,-12.375 5.24,-18.236 z m 55.099,50.123 c 0.015,-2.026 -1.587,-2.065 -1.57,-0.586 -0.133,7.43 -6.415,11.086 -10.98,10.22 -7.036,-1.34 -9.28,-8.323 -9.214,-12.437 0.207,-12.696 12.988,-22.058 24.52,-38.334 8.45,14.69 22.397,26.23 23.223,37.586 1.098,15.098 -18.01,20.73 -20.737,3.132 -0.177,-1.243 -1.64,-1.8 -1.527,-0.065 0.414,4.822 -0.175,6.83 5.266,18.72 l -14.223,0 c 3.15,-5.556 5.025,-12.376 5.24,-18.237 z m -111.533,0 c 0.015,-2.026 -1.587,-2.065 -1.57,-0.586 -0.133,7.43 -6.415,11.086 -10.98,10.22 -7.035,-1.34 -9.28,-8.323 -9.214,-12.437 0.207,-12.696 12.988,-22.058 24.52,-38.334 8.45,14.69 22.397,26.23 23.223,37.586 1.098,15.098 -18.01,20.73 -20.737,3.132 -0.176,-1.243 -1.64,-1.8 -1.526,-0.065 0.415,4.822 -0.175,6.83 5.266,18.72 l -14.222,0 c 3.15,-5.556 5.025,-12.376 5.24,-18.237 z m 111.543,75.723 c 0.015,2.025 -1.586,2.064 -1.568,0.586 -0.135,-7.43 -6.418,-11.087 -10.982,-10.22 -7.036,1.338 -9.282,8.323 -9.214,12.436 0.207,12.697 12.987,22.06 24.52,38.335 8.45,-14.69 22.397,-26.23 23.223,-37.586 1.097,-15.098 -18.01,-20.73 -20.737,-3.133 -0.176,1.243 -1.64,1.8 -1.526,0.065 0.414,-4.823 -0.175,-6.832 5.265,-18.72 l -14.222,0 c 3.15,5.555 5.025,12.374 5.24,18.236 z m -111.532,0 c 0.015,2.025 -1.587,2.064 -1.57,0.586 -0.133,-7.43 -6.415,-11.087 -10.98,-10.22 -7.036,1.338 -9.28,8.323 -9.214,12.436 0.208,12.697 12.99,22.06 24.52,38.335 8.45,-14.69 22.398,-26.23 23.224,-37.586 1.098,-15.098 -18.01,-20.73 -20.737,-3.133 -0.176,1.243 -1.64,1.8 -1.526,0.065 0.415,-4.823 -0.174,-6.832 5.267,-18.72 l -14.222,0 c 3.15,5.555 5.025,12.374 5.24,18.236 z M 1443.8,731.446 c 0.01,-0.87 -0.894,-0.465 -1.017,-0.19 -1.163,1.985 -2.865,2.447 -4.548,1.732 -1.667,-0.71 -2.604,-2.28 -2.454,-4.523 0.312,-3.437 3.037,-7.2 4.356,-9.326 1.252,-1.93 2.628,-4.223 4.077,-7.155 1.697,3.363 2.56,4.32 4.405,7.392 1.626,2.704 3.893,5.353 4.068,8.622 0,2.484 -1.046,4.83 -3.4,5.258 -1.33,0.242 -2.578,-0.44 -3.503,-2.036 -0.282,-0.407 -0.85,-0.195 -0.84,0.36 0.165,2.095 0.956,3.985 2.83,6.213 l -6.887,0 c 1.41,-1.576 2.848,-3.704 2.915,-6.35 z m 188.816,172.746 c 0.01,0.87 -0.895,0.464 -1.018,0.19 -1.163,-1.986 -2.864,-2.448 -4.548,-1.732 -1.667,0.71 -2.604,2.28 -2.453,4.522 0.31,3.438 3.035,7.2 4.355,9.327 1.252,1.928 2.627,4.22 4.076,7.153 1.697,-3.364 2.56,-4.32 4.405,-7.392 1.626,-2.703 3.893,-5.352 4.068,-8.62 0,-2.486 -1.045,-4.833 -3.4,-5.26 -1.33,-0.243 -2.577,0.44 -3.502,2.036 -0.282,0.407 -0.85,0.195 -0.84,-0.362 0.166,-2.093 0.956,-3.983 2.83,-6.21 l -6.887,0 c 1.41,1.575 2.85,3.702 2.916,6.348 z"
         id="path4415" />
    </g>
  </g>
</svg>
