<?xml version="1.0" encoding="UTF-8" standalone="no"?>
<!-- Created with Inkscape (http://www.inkscape.org/) -->

<svg
   xmlns:dc="http://purl.org/dc/elements/1.1/"
   xmlns:cc="http://creativecommons.org/ns#"
   xmlns:rdf="http://www.w3.org/1999/02/22-rdf-syntax-ns#"
   xmlns:svg="http://www.w3.org/2000/svg"
   xmlns="http://www.w3.org/2000/svg"
   xmlns:sodipodi="http://sodipodi.sourceforge.net/DTD/sodipodi-0.dtd"
   xmlns:inkscape="http://www.inkscape.org/namespaces/inkscape"
   width="63.281277mm"
   height="88.281372mm"
   viewBox="0 0 224.225 312.80801"
   id="svg9297"
   version="1.1"
   inkscape:version="0.91 r13725"
   sodipodi:docname="8C.svg">
  <defs
     id="defs9299" />
  <sodipodi:namedview
     id="base"
     pagecolor="#ffffff"
     bordercolor="#666666"
     borderopacity="1.0"
     inkscape:pageopacity="0.0"
     inkscape:pageshadow="2"
     inkscape:zoom="0.35"
     inkscape:cx="-445.74463"
     inkscape:cy="182.11829"
     inkscape:document-units="px"
     inkscape:current-layer="layer1"
     showgrid="false"
     fit-margin-top="0"
     fit-margin-left="0"
     fit-margin-right="0"
     fit-margin-bottom="0"
     inkscape:window-width="1600"
     inkscape:window-height="838"
     inkscape:window-x="-8"
     inkscape:window-y="-8"
     inkscape:window-maximized="1" />
  <metadata
     id="metadata9302">
    <rdf:RDF>
      <cc:Work
         rdf:about="">
        <dc:format>image/svg+xml</dc:format>
        <dc:type
           rdf:resource="http://purl.org/dc/dcmitype/StillImage" />
        <dc:title></dc:title>
      </cc:Work>
    </rdf:RDF>
  </metadata>
  <g
     inkscape:label="Calque 1"
     inkscape:groupmode="layer"
     id="layer1"
     transform="translate(-162.1732,-401.67249)">
    <g
       transform="translate(-1487.1175,367.35699)"
       id="g4321">
      <g
         transform="translate(-4608.14,2469.814)"
         id="g4323">
        <rect
           style="fill:#ffffff;stroke:#000000;stroke-width:0.99699998"
           width="223.228"
           height="311.811"
           x="6257.9292"
           y="-2435"
           rx="10.63"
           ry="10.63"
           id="rect4325" />
      </g>
      <path
         inkscape:connector-curvature="0"
         d="m 1655.88,72.365 c 0.16,-4.376 1.77,-6.02 4.943,-8.31 -2.53,-1.795 -3.597,-4.436 -3.382,-6.687 0.523,-5.447 4.81,-8.172 9.486,-8.053 4.675,0.118 8.705,3.763 9.02,7.722 0.272,3.443 -0.77,5.102 -3.258,6.915 2.953,2.44 4.84,4.05 4.768,8.36 -0.07,4.31 -3.805,9.44 -10.314,9.597 -6.51,0.157 -11.422,-5.17 -11.262,-9.545 z m 18.172,0.014 c 0.28,-3.963 -3.288,-6.636 -7.313,-6.678 -3.923,-0.04 -7.432,3.247 -7.433,6.804 0,3.82 4.564,5.897 7.51,5.908 3.584,0.013 6.995,-2.622 7.235,-6.035 z m -1.288,-14.174 c 0.078,-3.338 -3.056,-5.73 -6.288,-5.633 -2.876,0.085 -5.92,2.24 -5.923,5.03 0,3.49 3.462,5.233 6.417,5.298 2.68,0.06 5.736,-2.173 5.794,-4.694 z m 192.656,250.87 c -0.16,4.375 -1.77,6.018 -4.943,8.31 2.53,1.795 3.598,4.436 3.382,6.687 -0.522,5.447 -4.81,8.172 -9.486,8.053 -4.675,-0.12 -8.704,-3.764 -9.02,-7.722 -0.272,-3.443 0.772,-5.102 3.26,-6.915 -2.954,-2.44 -4.842,-4.05 -4.77,-8.36 0.072,-4.31 3.806,-9.44 10.315,-9.597 6.507,-0.157 11.42,5.17 11.26,9.545 z m -18.172,-0.014 c -0.28,3.963 3.288,6.636 7.313,6.677 3.924,0.04 7.433,-3.246 7.433,-6.803 0,-3.82 -4.563,-5.897 -7.51,-5.908 -3.583,-0.013 -6.994,2.622 -7.235,6.035 z m 1.288,14.174 c -0.078,3.338 3.057,5.73 6.29,5.633 2.874,-0.085 5.92,-2.24 5.92,-5.03 0,-3.49 -3.46,-5.233 -6.416,-5.3 -2.68,-0.058 -5.735,2.176 -5.794,4.697 z M 1805.828,119.77 c 2.88,-5.777 4.976,-11.702 5.348,-18.04 0.342,-2.33 -1.075,-2.37 -1.288,-0.727 -4.077,15.592 -25.763,11.37 -25.017,-3.297 0.606,-11.895 12.42,-14.454 18.583,-10.564 2.434,1.432 2.296,0.574 0.968,-0.912 -9.154,-10.212 -3.61,-23.362 8.762,-23.603 13.38,0.794 16.85,14.87 8.644,23.15 -1.02,0.993 -3.283,4.19 0.123,1.955 8.286,-5.888 19.787,0.443 19.552,9.52 -0.433,16.74 -20.84,17.988 -25.203,4.007 -0.42,-1.552 -1.63,-2.33 -1.296,0.303 0.605,4.766 1.856,11.953 5.437,18.206 z m 0,100.247 c 2.88,-5.776 4.976,-11.7 5.348,-18.037 0.342,-2.332 -1.075,-2.37 -1.288,-0.73 -4.077,15.594 -25.763,11.37 -25.017,-3.295 0.606,-11.895 12.42,-14.454 18.583,-10.565 2.434,1.433 2.296,0.575 0.968,-0.912 -9.154,-10.21 -3.61,-23.36 8.762,-23.602 13.38,0.793 16.85,14.87 8.644,23.148 -1.02,0.995 -3.283,4.19 0.123,1.956 8.286,-5.888 19.787,0.443 19.552,9.52 -0.433,16.74 -20.84,17.988 -25.203,4.007 -0.42,-1.55 -1.63,-2.33 -1.296,0.304 0.605,4.768 1.856,11.955 5.437,18.207 z m -103.533,0 c 2.88,-5.776 4.976,-11.7 5.348,-18.037 0.342,-2.332 -1.074,-2.37 -1.288,-0.73 -4.076,15.594 -25.763,11.37 -25.017,-3.295 0.605,-11.895 12.42,-14.454 18.582,-10.565 2.434,1.433 2.296,0.575 0.968,-0.912 -9.155,-10.21 -3.61,-23.36 8.76,-23.602 13.38,0.793 16.853,14.87 8.646,23.148 -1.02,0.995 -3.284,4.19 0.123,1.956 8.286,-5.888 19.787,0.443 19.552,9.52 -0.433,16.74 -20.84,17.988 -25.204,4.007 -0.42,-1.55 -1.63,-2.33 -1.295,0.304 0.606,4.768 1.858,11.955 5.44,18.207 z m 50.183,-50.124 c 2.88,-5.776 4.976,-11.7 5.348,-18.038 0.342,-2.33 -1.074,-2.37 -1.288,-0.728 -4.076,15.593 -25.762,11.37 -25.017,-3.297 0.606,-11.894 12.42,-14.453 18.583,-10.564 2.434,1.433 2.297,0.574 0.968,-0.912 -9.153,-10.21 -3.61,-23.362 8.763,-23.602 13.38,0.793 16.85,14.87 8.644,23.148 -1.02,0.995 -3.284,4.19 0.123,1.956 8.287,-5.888 19.787,0.443 19.552,9.52 -0.432,16.74 -20.84,17.988 -25.203,4.007 -0.42,-1.55 -1.63,-2.33 -1.296,0.304 0.605,4.767 1.857,11.953 5.438,18.206 z m -50.183,-50.123 c 2.88,-5.777 4.976,-11.702 5.348,-18.04 0.342,-2.33 -1.074,-2.37 -1.288,-0.727 -4.076,15.592 -25.763,11.37 -25.017,-3.297 0.605,-11.895 12.42,-14.454 18.582,-10.564 2.434,1.432 2.296,0.574 0.968,-0.912 -9.155,-10.212 -3.61,-23.362 8.76,-23.603 13.38,0.794 16.853,14.87 8.646,23.15 -1.02,0.993 -3.284,4.19 0.123,1.955 8.286,-5.888 19.787,0.443 19.552,9.52 -0.433,16.74 -20.84,17.988 -25.204,4.007 -0.42,-1.552 -1.63,-2.33 -1.295,0.303 0.606,4.766 1.858,11.953 5.44,18.206 z m 118.235,141.704 c -2.88,5.776 -4.976,11.7 -5.348,18.038 -0.342,2.33 1.074,2.37 1.288,0.728 4.076,-15.592 25.763,-11.37 25.017,3.297 -0.605,11.895 -12.42,14.454 -18.582,10.564 -2.434,-1.43 -2.296,-0.573 -0.968,0.913 9.155,10.212 3.61,23.362 -8.76,23.603 -13.38,-0.794 -16.853,-14.87 -8.646,-23.15 1.022,-0.993 3.285,-4.19 -0.122,-1.955 -8.286,5.89 -19.787,-0.442 -19.552,-9.52 0.432,-16.74 20.84,-17.987 25.203,-4.006 0.42,1.55 1.628,2.33 1.294,-0.304 -0.605,-4.766 -1.857,-11.953 -5.438,-18.206 z m -53.35,-49.299 c -2.88,5.776 -4.976,11.7 -5.348,18.037 -0.34,2.332 1.075,2.37 1.288,0.73 4.077,-15.594 25.763,-11.37 25.017,3.296 -0.605,11.894 -12.42,14.453 -18.582,10.564 -2.434,-1.433 -2.296,-0.575 -0.968,0.912 9.155,10.21 3.61,23.362 -8.76,23.602 -13.38,-0.793 -16.852,-14.87 -8.645,-23.148 1.02,-0.995 3.283,-4.19 -0.123,-1.956 -8.288,5.888 -19.79,-0.443 -19.554,-9.52 0.433,-16.74 20.84,-17.988 25.203,-4.007 0.42,1.55 1.628,2.33 1.294,-0.304 -0.605,-4.766 -1.856,-11.953 -5.437,-18.205 z m -50.183,49.299 c -2.88,5.776 -4.976,11.7 -5.348,18.038 -0.343,2.33 1.074,2.37 1.287,0.728 4.077,-15.592 25.763,-11.37 25.017,3.297 -0.605,11.895 -12.42,14.454 -18.582,10.564 -2.434,-1.43 -2.296,-0.573 -0.968,0.913 9.155,10.212 3.61,23.362 -8.76,23.603 -13.38,-0.794 -16.852,-14.87 -8.645,-23.15 1.02,-0.993 3.282,-4.19 -0.124,-1.955 -8.287,5.89 -19.788,-0.442 -19.553,-9.52 0.433,-16.74 20.84,-17.987 25.203,-4.006 0.42,1.55 1.63,2.33 1.295,-0.304 -0.604,-4.766 -1.855,-11.953 -5.436,-18.206 z m -53.751,-149.322 c 1.192,-2.445 2.352,-4.72 2.984,-7.4 0.42,-2.53 -0.438,-1.59 -0.925,0.067 -0.72,2.296 -2.723,3.343 -4.58,3.368 -3.37,0.045 -5.053,-2.604 -4.948,-5.454 -0.368,-3 2.67,-5.12 4.962,-4.957 1.72,0.123 3.223,1.052 4.132,1.775 0.596,0.316 1.234,0.455 0.344,-0.358 -1.677,-1.833 -3.076,-2.964 -3.046,-5.71 0.03,-2.58 2.234,-5.27 5.156,-5.185 3.65,0.105 5.312,2.89 5.303,5.48 -0.01,1.888 -0.954,3.626 -2.412,4.702 -0.944,0.767 -0.68,1.34 0.397,0.615 1.035,-0.892 2.268,-1.282 3.545,-1.31 3.49,-0.054 4.855,2.962 4.655,5.765 -0.187,2.625 -2.422,5.328 -5.37,5.022 -2.63,-0.302 -4.012,-2.51 -4.804,-4.777 -0.26,-0.695 -0.675,-0.883 -0.663,0.153 0.607,5.057 2.49,8.204 2.505,8.202 z m 196.314,161.053 c -1.194,2.445 -2.354,4.72 -2.986,7.4 -0.42,2.528 0.44,1.59 0.925,-0.067 0.72,-2.298 2.722,-3.344 4.58,-3.37 3.37,-0.044 5.052,2.605 4.947,5.455 0.368,2.998 -2.67,5.12 -4.96,4.957 -1.724,-0.123 -3.225,-1.052 -4.134,-1.776 -0.597,-0.315 -1.234,-0.454 -0.345,0.36 1.677,1.832 3.076,2.963 3.046,5.71 -0.03,2.578 -2.234,5.268 -5.156,5.184 -3.65,-0.106 -5.312,-2.89 -5.303,-5.48 0.01,-1.89 0.954,-3.627 2.412,-4.704 0.944,-0.766 0.68,-1.34 -0.398,-0.615 -1.036,0.89 -2.268,1.282 -3.546,1.31 -3.49,0.054 -4.855,-2.962 -4.655,-5.765 0.186,-2.625 2.422,-5.328 5.368,-5.022 2.63,0.3 4.013,2.51 4.805,4.777 0.262,0.695 0.676,0.883 0.665,-0.153 -0.608,-5.058 -2.492,-8.205 -2.506,-8.202 z"
         id="path4327" />
    </g>
  </g>
</svg>
