<?xml version="1.0" encoding="UTF-8" standalone="no"?>
<!-- Created with Inkscape (http://www.inkscape.org/) -->

<svg
   xmlns:dc="http://purl.org/dc/elements/1.1/"
   xmlns:cc="http://creativecommons.org/ns#"
   xmlns:rdf="http://www.w3.org/1999/02/22-rdf-syntax-ns#"
   xmlns:svg="http://www.w3.org/2000/svg"
   xmlns="http://www.w3.org/2000/svg"
   xmlns:sodipodi="http://sodipodi.sourceforge.net/DTD/sodipodi-0.dtd"
   xmlns:inkscape="http://www.inkscape.org/namespaces/inkscape"
   width="63.281277mm"
   height="88.281372mm"
   viewBox="0 0 224.225 312.80801"
   id="svg16221"
   version="1.1"
   inkscape:version="0.91 r13725"
   sodipodi:docname="8D.svg">
  <defs
     id="defs16223" />
  <sodipodi:namedview
     id="base"
     pagecolor="#ffffff"
     bordercolor="#666666"
     borderopacity="1.0"
     inkscape:pageopacity="0.0"
     inkscape:pageshadow="2"
     inkscape:zoom="0.35"
     inkscape:cx="222.82677"
     inkscape:cy="162.1183"
     inkscape:document-units="px"
     inkscape:current-layer="layer1"
     showgrid="false"
     fit-margin-top="0"
     fit-margin-left="0"
     fit-margin-right="0"
     fit-margin-bottom="0"
     inkscape:window-width="1600"
     inkscape:window-height="838"
     inkscape:window-x="-8"
     inkscape:window-y="-8"
     inkscape:window-maximized="1" />
  <metadata
     id="metadata16226">
    <rdf:RDF>
      <cc:Work
         rdf:about="">
        <dc:format>image/svg+xml</dc:format>
        <dc:type
           rdf:resource="http://purl.org/dc/dcmitype/StillImage" />
        <dc:title></dc:title>
      </cc:Work>
    </rdf:RDF>
  </metadata>
  <g
     inkscape:label="Calque 1"
     inkscape:groupmode="layer"
     id="layer1"
     transform="translate(506.3982,-381.6725)">
    <g
       transform="translate(-6763.8289,2817.171)"
       id="g4507">
      <rect
         style="fill:#ffffff;stroke:#000000;stroke-width:0.99699998"
         width="223.228"
         height="311.811"
         x="6257.9292"
         y="-2435"
         rx="10.63"
         ry="10.63"
         id="rect4509" />
      <g
         style="fill:#d40000"
         id="g4511">
        <path
           inkscape:connector-curvature="0"
           d="m 6290.313,-2378.38 c 9.92,-9.682 16.436,-20.238 22.667,-30.39 5.464,11.17 13.306,20.943 21.786,30.39 -9.073,9.368 -16.105,19.386 -21.76,29.917 -6.267,-10.796 -12.865,-20.572 -22.693,-29.918 z m 0,100.248 c 9.92,-9.682 16.436,-20.238 22.667,-30.39 5.464,11.17 13.306,20.943 21.786,30.39 -9.073,9.368 -16.105,19.386 -21.76,29.917 -6.267,-10.795 -12.865,-20.57 -22.693,-29.917 z m 0,98.598 c 9.92,-9.68 16.436,-20.237 22.667,-30.39 5.464,11.17 13.306,20.944 21.786,30.39 -9.073,9.37 -16.105,19.387 -21.76,29.918 -6.267,-10.796 -12.865,-20.572 -22.693,-29.918 z m 56.183,-148.723 c 9.92,-9.68 16.436,-20.237 22.667,-30.39 5.464,11.172 13.306,20.944 21.786,30.39 -9.074,9.37 -16.106,19.387 -21.76,29.918 -6.268,-10.794 -12.866,-20.57 -22.694,-29.917 z m 55.349,-50.123 c 9.92,-9.682 16.436,-20.238 22.667,-30.39 5.465,11.17 13.306,20.943 21.787,30.39 -9.075,9.368 -16.106,19.386 -21.76,29.917 -6.268,-10.796 -12.866,-20.572 -22.695,-29.918 z m 0,100.248 c 9.92,-9.682 16.436,-20.238 22.667,-30.39 5.465,11.17 13.306,20.943 21.787,30.39 -9.075,9.368 -16.106,19.386 -21.76,29.917 -6.268,-10.795 -12.866,-20.57 -22.695,-29.917 z m 0,98.598 c 9.92,-9.68 16.436,-20.237 22.667,-30.39 5.465,11.17 13.306,20.944 21.787,30.39 -9.075,9.37 -16.106,19.387 -21.76,29.918 -6.268,-10.796 -12.866,-20.572 -22.695,-29.918 z m -55.349,-49.299 c 9.92,-9.68 16.436,-20.237 22.667,-30.39 5.464,11.17 13.306,20.943 21.786,30.39 -9.074,9.37 -16.106,19.386 -21.76,29.918 -6.268,-10.796 -12.866,-20.572 -22.694,-29.918 z m 109.398,45.197 c 4.064,-3.966 6.733,-8.29 9.285,-12.448 2.238,4.575 5.45,8.578 8.924,12.448 -3.717,3.838 -6.598,7.942 -8.914,12.256 -2.567,-4.423 -5.27,-8.427 -9.296,-12.256 z m -188.814,-185.857 c 4.063,-3.966 6.732,-8.29 9.284,-12.45 2.238,4.577 5.45,8.58 8.925,12.45 -3.718,3.837 -6.6,7.94 -8.915,12.255 -2.567,-4.422 -5.27,-8.427 -9.296,-12.255 z m -2.307,-27.957 c 0.16,-4.375 1.77,-6.018 4.944,-8.31 -2.53,-1.794 -3.598,-4.436 -3.383,-6.686 0.522,-5.447 4.81,-8.172 9.485,-8.054 4.675,0.12 8.704,3.764 9.018,7.722 0.274,3.443 -0.77,5.103 -3.257,6.915 2.954,2.442 4.84,4.05 4.77,8.36 -0.072,4.31 -3.806,9.44 -10.315,9.598 -6.51,0.157 -11.422,-5.17 -11.262,-9.545 z m 18.173,0.015 c 0.28,-3.962 -3.29,-6.635 -7.314,-6.677 -3.922,-0.04 -7.43,3.247 -7.432,6.804 0,3.82 4.564,5.896 7.51,5.907 3.584,0.013 6.995,-2.623 7.236,-6.035 z m -1.288,-14.173 c 0.077,-3.338 -3.057,-5.73 -6.29,-5.634 -2.874,0.086 -5.92,2.24 -5.922,5.03 0,3.49 3.462,5.233 6.417,5.3 2.68,0.06 5.736,-2.176 5.795,-4.696 z m 192.656,250.868 c -0.16,4.376 -1.77,6.02 -4.944,8.31 2.53,1.795 3.598,4.437 3.382,6.687 -0.52,5.447 -4.81,8.172 -9.485,8.054 -4.675,-0.118 -8.704,-3.763 -9.018,-7.72 -0.275,-3.444 0.77,-5.104 3.256,-6.916 -2.953,-2.442 -4.84,-4.05 -4.77,-8.36 0.073,-4.31 3.807,-9.44 10.316,-9.598 6.51,-0.157 11.422,5.17 11.262,9.545 z m -18.173,-0.014 c -0.278,3.962 3.29,6.636 7.314,6.677 3.923,0.04 7.432,-3.246 7.432,-6.804 0,-3.822 -4.563,-5.897 -7.51,-5.908 -3.583,-0.014 -6.994,2.622 -7.235,6.034 z m 1.29,14.174 c -0.08,3.337 3.056,5.73 6.288,5.633 2.875,-0.086 5.92,-2.24 5.922,-5.03 0,-3.49 -3.462,-5.233 -6.417,-5.3 -2.68,-0.06 -5.735,2.176 -5.794,4.697 z"
           id="path4513" />
      </g>
    </g>
  </g>
</svg>
