<?xml version="1.0" encoding="UTF-8" standalone="no"?>
<!-- Created with Inkscape (http://www.inkscape.org/) -->

<svg
   xmlns:dc="http://purl.org/dc/elements/1.1/"
   xmlns:cc="http://creativecommons.org/ns#"
   xmlns:rdf="http://www.w3.org/1999/02/22-rdf-syntax-ns#"
   xmlns:svg="http://www.w3.org/2000/svg"
   xmlns="http://www.w3.org/2000/svg"
   xmlns:sodipodi="http://sodipodi.sourceforge.net/DTD/sodipodi-0.dtd"
   xmlns:inkscape="http://www.inkscape.org/namespaces/inkscape"
   width="63.281277mm"
   height="88.281372mm"
   viewBox="0 0 224.225 312.80801"
   id="svg19131"
   version="1.1"
   inkscape:version="0.91 r13725"
   sodipodi:docname="8H.svg">
  <defs
     id="defs19133" />
  <sodipodi:namedview
     id="base"
     pagecolor="#ffffff"
     bordercolor="#666666"
     borderopacity="1.0"
     inkscape:pageopacity="0.0"
     inkscape:pageshadow="2"
     inkscape:zoom="0.35"
     inkscape:cx="-968.60179"
     inkscape:cy="324.97543"
     inkscape:document-units="px"
     inkscape:current-layer="layer1"
     showgrid="false"
     fit-margin-top="0"
     fit-margin-left="0"
     fit-margin-right="0"
     fit-margin-bottom="0"
     inkscape:window-width="1600"
     inkscape:window-height="838"
     inkscape:window-x="-8"
     inkscape:window-y="-8"
     inkscape:window-maximized="1" />
  <metadata
     id="metadata19136">
    <rdf:RDF>
      <cc:Work
         rdf:about="">
        <dc:format>image/svg+xml</dc:format>
        <dc:type
           rdf:resource="http://purl.org/dc/dcmitype/StillImage" />
        <dc:title></dc:title>
      </cc:Work>
    </rdf:RDF>
  </metadata>
  <g
     inkscape:label="Calque 1"
     inkscape:groupmode="layer"
     id="layer1"
     transform="translate(-685.03036,-544.52963)">
    <g
       transform="translate(-964.53634,197.40613)"
       id="g19110">
      <g
         id="g13416"
         transform="translate(-4607.864,2782.622)">
        <rect
           style="fill:#ffffff;stroke:#000000;stroke-width:0.99699998"
           id="rect13418"
           ry="10.63"
           rx="10.63"
           y="-2435"
           x="6257.9292"
           height="311.811"
           width="223.228" />
        <g
           style="fill:#d40000"
           id="g13420">
          <path
             inkscape:connector-curvature="0"
             id="path13422"
             d="m 6264.773,-2397.45 c 0.16,-4.375 1.77,-6.018 4.944,-8.31 -2.53,-1.794 -3.598,-4.436 -3.383,-6.686 0.522,-5.447 4.81,-8.172 9.485,-8.054 4.675,0.12 8.704,3.764 9.018,7.722 0.274,3.443 -0.77,5.103 -3.257,6.915 2.954,2.442 4.84,4.05 4.77,8.36 -0.072,4.31 -3.806,9.44 -10.315,9.598 -6.51,0.157 -11.422,-5.17 -11.262,-9.545 z m 18.173,0.015 c 0.28,-3.962 -3.29,-6.635 -7.314,-6.677 -3.922,-0.04 -7.43,3.247 -7.432,6.804 0,3.82 4.564,5.896 7.51,5.907 3.584,0.013 6.995,-2.623 7.236,-6.035 z m -1.288,-14.173 c 0.077,-3.338 -3.057,-5.73 -6.29,-5.634 -2.874,0.086 -5.92,2.24 -5.922,5.03 0,3.49 3.462,5.233 6.417,5.3 2.68,0.06 5.736,-2.176 5.795,-4.696 z m 192.656,250.868 c -0.16,4.376 -1.77,6.02 -4.944,8.31 2.53,1.795 3.598,4.437 3.382,6.687 -0.52,5.447 -4.81,8.172 -9.485,8.054 -4.675,-0.118 -8.704,-3.763 -9.018,-7.72 -0.275,-3.444 0.77,-5.104 3.256,-6.916 -2.953,-2.442 -4.84,-4.05 -4.77,-8.36 0.073,-4.31 3.807,-9.44 10.316,-9.598 6.51,-0.157 11.422,5.17 11.262,9.545 z m -18.173,-0.014 c -0.278,3.962 3.29,6.636 7.314,6.677 3.923,0.04 7.432,-3.246 7.432,-6.804 0,-3.822 -4.563,-5.897 -7.51,-5.908 -3.583,-0.014 -6.994,2.622 -7.235,6.034 z m 1.29,14.174 c -0.08,3.337 3.056,5.73 6.288,5.633 2.875,-0.086 5.92,-2.24 5.922,-5.03 0,-3.49 -3.462,-5.233 -6.417,-5.3 -2.68,-0.06 -5.735,2.176 -5.794,4.697 z" />
        </g>
      </g>
      <path
         style="fill:#d40000"
         inkscape:connector-curvature="0"
         id="path13424"
         d="m 1659.647,410.532 c -1.583,-3.472 -1.756,-9.405 2.97,-10.208 3.563,-0.458 5.013,1.198 5.3,3.742 0.143,0.743 0.563,0.788 0.696,-0.058 0.204,-2.61 2.787,-4.133 4.806,-3.75 5.526,0.945 5.203,7.028 3.398,11.155 -2.73,5.48 -5.6,8.938 -8.245,14.452 -3.038,-5.74 -6.507,-10.405 -8.926,-15.333 z m 34.979,-35.272 c 7.144,-0.475 10.868,5.626 11.595,10.436 0.434,0.763 0.672,0.548 0.838,-0.043 0.35,-6.174 5.875,-11.22 10.992,-10.53 8.328,0.108 13.39,9.375 11.967,17.22 -1.74,9.58 -6.9,15.35 -10.808,21.292 -4.422,6.152 -10.374,15.04 -12.29,19.317 0,0 -6.05,-9.205 -13.918,-20.03 -5.262,-7.238 -9.473,-15.082 -9.865,-21.835 -0.448,-7.716 2.72,-14.632 11.49,-15.828 z m 109.532,0 c 7.144,-0.475 10.87,5.626 11.596,10.436 0.433,0.763 0.67,0.548 0.837,-0.043 0.35,-6.174 5.875,-11.22 10.993,-10.53 8.328,0.108 13.39,9.375 11.967,17.22 -1.74,9.58 -6.9,15.35 -10.808,21.292 -4.422,6.152 -10.373,15.04 -12.29,19.317 0,0 -6.05,-9.205 -13.918,-20.03 -5.26,-7.238 -9.473,-15.082 -9.865,-21.835 -0.45,-7.716 2.72,-14.632 11.488,-15.828 z m -55.348,50.123 c 7.143,-0.474 10.867,5.628 11.594,10.437 0.433,0.764 0.67,0.548 0.837,-0.043 0.35,-6.174 5.876,-11.22 10.994,-10.53 8.328,0.11 13.39,9.376 11.966,17.22 -1.74,9.58 -6.9,15.35 -10.808,21.292 -4.42,6.152 -10.373,15.04 -12.29,19.316 0,0 -6.048,-9.205 -13.917,-20.03 -5.262,-7.238 -9.473,-15.082 -9.865,-21.835 -0.448,-7.714 2.72,-14.63 11.49,-15.827 z m -54.184,50.125 c 7.144,-0.475 10.868,5.627 11.595,10.436 0.434,0.764 0.672,0.55 0.838,-0.042 0.35,-6.174 5.875,-11.22 10.992,-10.53 8.328,0.108 13.39,9.375 11.967,17.218 -1.74,9.582 -6.9,15.35 -10.808,21.293 -4.422,6.153 -10.374,15.04 -12.29,19.317 0,0 -6.05,-9.204 -13.918,-20.03 -5.262,-7.238 -9.473,-15.082 -9.865,-21.835 -0.448,-7.715 2.72,-14.632 11.49,-15.827 z m 109.532,0 c 7.144,-0.475 10.87,5.627 11.596,10.436 0.433,0.764 0.67,0.55 0.837,-0.042 0.35,-6.174 5.875,-11.22 10.993,-10.53 8.328,0.108 13.39,9.375 11.967,17.218 -1.74,9.582 -6.9,15.35 -10.808,21.293 -4.422,6.153 -10.373,15.04 -12.29,19.317 0,0 -6.05,-9.204 -13.918,-20.03 -5.26,-7.238 -9.473,-15.082 -9.865,-21.835 -0.45,-7.715 2.72,-14.632 11.488,-15.827 z m 0,156.092 c 7.144,0.474 10.87,-5.628 11.596,-10.437 0.433,-0.764 0.67,-0.55 0.837,0.042 0.35,6.174 5.875,11.22 10.993,10.53 8.328,-0.108 13.39,-9.375 11.967,-17.218 -1.74,-9.582 -6.9,-15.35 -10.808,-21.293 -4.422,-6.153 -10.373,-15.04 -12.29,-19.317 0,0 -6.05,9.204 -13.918,20.03 -5.26,7.238 -9.473,15.082 -9.865,21.835 -0.45,7.715 2.72,14.63 11.488,15.827 z m -55.348,-49.3 c 7.143,0.475 10.867,-5.627 11.594,-10.436 0.433,-0.764 0.67,-0.55 0.837,0.042 0.35,6.174 5.876,11.22 10.994,10.53 8.328,-0.108 13.39,-9.375 11.966,-17.22 -1.74,-9.58 -6.9,-15.35 -10.808,-21.292 -4.42,-6.152 -10.373,-15.04 -12.29,-19.317 0,0 -6.048,9.205 -13.917,20.03 -5.262,7.24 -9.473,15.082 -9.865,21.835 -0.448,7.716 2.72,14.632 11.49,15.828 z m -54.184,49.3 c 7.144,0.474 10.868,-5.628 11.595,-10.437 0.434,-0.764 0.672,-0.55 0.838,0.042 0.35,6.174 5.875,11.22 10.992,10.53 8.328,-0.108 13.39,-9.375 11.967,-17.218 -1.74,-9.582 -6.9,-15.35 -10.808,-21.293 -4.422,-6.153 -10.374,-15.04 -12.29,-19.317 0,0 -6.05,9.204 -13.918,20.03 -5.262,7.238 -9.473,15.082 -9.865,21.835 -0.448,7.715 2.72,14.63 11.49,15.827 z m 153.836,-30.21 c -1.583,3.472 -1.756,9.405 2.972,10.208 3.562,0.458 5.01,-1.198 5.3,-3.742 0.142,-0.743 0.56,-0.79 0.694,0.058 0.205,2.61 2.787,4.133 4.807,3.75 5.526,-0.945 5.204,-7.028 3.398,-11.155 -2.73,-5.48 -5.6,-8.94 -8.245,-14.453 -3.038,5.74 -6.507,10.405 -8.926,15.333 z" />
    </g>
  </g>
</svg>
