<?xml version="1.0" encoding="UTF-8" standalone="no"?>
<!-- Created with Inkscape (http://www.inkscape.org/) -->

<svg
   xmlns:dc="http://purl.org/dc/elements/1.1/"
   xmlns:cc="http://creativecommons.org/ns#"
   xmlns:rdf="http://www.w3.org/1999/02/22-rdf-syntax-ns#"
   xmlns:svg="http://www.w3.org/2000/svg"
   xmlns="http://www.w3.org/2000/svg"
   xmlns:sodipodi="http://sodipodi.sourceforge.net/DTD/sodipodi-0.dtd"
   xmlns:inkscape="http://www.inkscape.org/namespaces/inkscape"
   width="63.281277mm"
   height="88.281372mm"
   viewBox="0 0 224.225 312.80801"
   id="svg8750"
   version="1.1"
   inkscape:version="0.91 r13725"
   sodipodi:docname="8S.svg">
  <defs
     id="defs8752" />
  <sodipodi:namedview
     id="base"
     pagecolor="#ffffff"
     bordercolor="#666666"
     borderopacity="1.0"
     inkscape:pageopacity="0.0"
     inkscape:pageshadow="2"
     inkscape:zoom="0.35"
     inkscape:cx="-728.60183"
     inkscape:cy="430.68972"
     inkscape:document-units="px"
     inkscape:current-layer="layer1"
     showgrid="false"
     fit-margin-top="0"
     fit-margin-left="0"
     fit-margin-right="0"
     fit-margin-bottom="0"
     inkscape:window-width="1600"
     inkscape:window-height="838"
     inkscape:window-x="-8"
     inkscape:window-y="-8"
     inkscape:window-maximized="1" />
  <metadata
     id="metadata8755">
    <rdf:RDF>
      <cc:Work
         rdf:about="">
        <dc:format>image/svg+xml</dc:format>
        <dc:type
           rdf:resource="http://purl.org/dc/dcmitype/StillImage" />
        <dc:title></dc:title>
      </cc:Work>
    </rdf:RDF>
  </metadata>
  <g
     inkscape:label="Calque 1"
     inkscape:groupmode="layer"
     id="layer1"
     transform="translate(-445.0304,-650.24392)">
    <g
       transform="translate(-1204.5363,-9.6875833)"
       id="g4417">
      <g
         transform="translate(-4607.864,3095.43)"
         id="g4419">
        <rect
           style="fill:#ffffff;stroke:#000000;stroke-width:0.99699998"
           width="223.228"
           height="311.811"
           x="6257.9292"
           y="-2435"
           rx="10.63"
           ry="10.63"
           id="rect4421" />
        <path
           inkscape:connector-curvature="0"
           d="m 6264.773,-2397.45 c 0.16,-4.375 1.77,-6.018 4.944,-8.31 -2.53,-1.794 -3.598,-4.436 -3.383,-6.686 0.522,-5.447 4.81,-8.172 9.485,-8.054 4.675,0.12 8.704,3.764 9.018,7.722 0.274,3.443 -0.77,5.103 -3.257,6.915 2.954,2.442 4.84,4.05 4.77,8.36 -0.072,4.31 -3.806,9.44 -10.315,9.598 -6.51,0.157 -11.422,-5.17 -11.262,-9.545 z m 18.173,0.015 c 0.28,-3.962 -3.29,-6.635 -7.314,-6.677 -3.922,-0.04 -7.43,3.247 -7.432,6.804 0,3.82 4.564,5.896 7.51,5.907 3.584,0.013 6.995,-2.623 7.236,-6.035 z m -1.288,-14.173 c 0.077,-3.338 -3.057,-5.73 -6.29,-5.634 -2.874,0.086 -5.92,2.24 -5.922,5.03 0,3.49 3.462,5.233 6.417,5.3 2.68,0.06 5.736,-2.176 5.795,-4.696 z m 192.656,250.868 c -0.16,4.376 -1.77,6.02 -4.944,8.31 2.53,1.795 3.598,4.437 3.382,6.687 -0.52,5.447 -4.81,8.172 -9.485,8.054 -4.675,-0.118 -8.704,-3.763 -9.018,-7.72 -0.275,-3.444 0.77,-5.104 3.256,-6.916 -2.953,-2.442 -4.84,-4.05 -4.77,-8.36 0.073,-4.31 3.807,-9.44 10.316,-9.598 6.51,-0.157 11.422,5.17 11.262,9.545 z m -18.173,-0.014 c -0.278,3.962 3.29,6.636 7.314,6.677 3.923,0.04 7.432,-3.246 7.432,-6.804 0,-3.822 -4.563,-5.897 -7.51,-5.908 -3.583,-0.014 -6.994,2.622 -7.235,6.034 z m 1.29,14.174 c -0.08,3.337 3.056,5.73 6.288,5.633 2.875,-0.086 5.92,-2.24 5.922,-5.03 0,-3.49 -3.462,-5.233 -6.417,-5.3 -2.68,-0.06 -5.735,2.176 -5.794,4.697 z"
           id="path4423" />
      </g>
      <path
         inkscape:connector-curvature="0"
         d="m 1702.535,728.264 c 0.015,-2.026 -1.587,-2.064 -1.57,-0.586 -0.133,7.43 -6.415,11.087 -10.98,10.22 -7.035,-1.34 -9.28,-8.323 -9.214,-12.436 0.208,-12.697 12.99,-22.06 24.52,-38.335 8.45,14.69 22.4,26.23 23.224,37.586 1.098,15.098 -18.01,20.73 -20.737,3.133 -0.176,-1.243 -1.64,-1.802 -1.526,-0.065 0.416,4.823 -0.174,6.832 5.267,18.72 l -14.222,0 c 3.15,-5.555 5.026,-12.375 5.24,-18.236 z m 111.533,0 c 0.015,-2.026 -1.587,-2.064 -1.57,-0.586 -0.133,7.43 -6.415,11.087 -10.98,10.22 -7.036,-1.34 -9.28,-8.323 -9.214,-12.436 0.207,-12.697 12.988,-22.06 24.52,-38.335 8.45,14.69 22.397,26.23 23.223,37.586 1.098,15.098 -18.01,20.73 -20.737,3.133 -0.176,-1.243 -1.64,-1.802 -1.526,-0.065 0.414,4.823 -0.175,6.832 5.266,18.72 l -14.222,0 c 3.15,-5.555 5.025,-12.375 5.24,-18.236 z m -55.35,50.124 c 0.015,-2.025 -1.587,-2.064 -1.568,-0.585 -0.135,7.428 -6.417,11.086 -10.98,10.218 -7.037,-1.336 -9.283,-8.32 -9.216,-12.434 0.207,-12.696 12.988,-22.06 24.52,-38.335 8.45,14.692 22.398,26.23 23.223,37.587 1.098,15.098 -18.01,20.73 -20.737,3.133 -0.176,-1.243 -1.64,-1.8 -1.526,-0.065 0.415,4.822 -0.175,6.83 5.266,18.72 l -14.222,0 c 3.15,-5.556 5.026,-12.375 5.24,-18.237 z m -56.183,50.125 c 0.015,-2.026 -1.587,-2.065 -1.57,-0.586 -0.133,7.428 -6.415,11.086 -10.98,10.218 -7.035,-1.337 -9.28,-8.322 -9.214,-12.435 0.208,-12.696 12.99,-22.058 24.52,-38.335 8.45,14.69 22.4,26.23 23.224,37.586 1.098,15.1 -18.01,20.73 -20.737,3.134 -0.176,-1.243 -1.64,-1.8 -1.526,-0.065 0.416,4.822 -0.174,6.83 5.267,18.718 l -14.222,0 c 3.15,-5.555 5.026,-12.374 5.24,-18.235 z m 111.533,0 c 0.015,-2.026 -1.587,-2.065 -1.57,-0.586 -0.133,7.428 -6.415,11.086 -10.98,10.218 -7.036,-1.337 -9.28,-8.322 -9.214,-12.435 0.207,-12.696 12.988,-22.058 24.52,-38.335 8.45,14.69 22.397,26.23 23.223,37.586 1.098,15.1 -18.01,20.73 -20.737,3.134 -0.176,-1.243 -1.64,-1.8 -1.526,-0.065 0.414,4.822 -0.175,6.83 5.266,18.718 l -14.222,0 c 3.15,-5.555 5.025,-12.374 5.24,-18.235 z m 0.012,75.722 c 0.014,2.026 -1.588,2.065 -1.57,0.586 -0.134,-7.427 -6.417,-11.085 -10.98,-10.218 -7.037,1.338 -9.282,8.323 -9.215,12.436 0.207,12.696 12.987,22.058 24.52,38.334 8.45,-14.69 22.397,-26.23 23.223,-37.585 1.097,-15.098 -18.01,-20.73 -20.737,-3.133 -0.175,1.243 -1.64,1.8 -1.525,0.065 0.414,-4.824 -0.175,-6.832 5.265,-18.72 l -14.22,0 c 3.148,5.554 5.024,12.374 5.24,18.235 z m -55.35,-49.299 c 0.014,2.026 -1.588,2.065 -1.57,0.586 -0.134,-7.43 -6.416,-11.087 -10.98,-10.22 -7.036,1.34 -9.282,8.323 -9.215,12.437 0.207,12.695 12.988,22.057 24.52,38.333 8.45,-14.69 22.397,-26.23 23.223,-37.586 1.098,-15.098 -18.01,-20.73 -20.737,-3.132 -0.175,1.243 -1.638,1.8 -1.525,0.065 0.415,-4.823 -0.175,-6.832 5.266,-18.72 l -14.22,0 c 3.15,5.555 5.025,12.375 5.24,18.236 z m -56.184,49.299 c 0.015,2.026 -1.587,2.065 -1.57,0.586 -0.133,-7.427 -6.415,-11.085 -10.98,-10.218 -7.035,1.338 -9.28,8.323 -9.214,12.436 0.207,12.696 12.988,22.058 24.52,38.334 8.45,-14.69 22.397,-26.23 23.223,-37.585 1.098,-15.098 -18.01,-20.73 -20.737,-3.133 -0.176,1.243 -1.64,1.8 -1.526,0.065 0.415,-4.824 -0.175,-6.832 5.266,-18.72 l -14.222,0 c 3.15,5.554 5.025,12.374 5.24,18.235 z m -34.653,-171.839 c 0.01,-0.872 -0.896,-0.465 -1.018,-0.19 -1.163,1.985 -2.865,2.447 -4.548,1.732 -1.667,-0.71 -2.604,-2.28 -2.454,-4.523 0.31,-3.437 3.035,-7.2 4.355,-9.326 1.252,-1.93 2.628,-4.223 4.077,-7.155 1.697,3.363 2.558,4.32 4.405,7.392 1.626,2.704 3.892,5.353 4.067,8.622 0,2.484 -1.046,4.83 -3.4,5.258 -1.33,0.242 -2.578,-0.44 -3.503,-2.037 -0.282,-0.405 -0.85,-0.193 -0.84,0.363 0.166,2.094 0.956,3.984 2.83,6.212 l -6.887,0 c 1.41,-1.576 2.85,-3.704 2.916,-6.35 z m 188.815,172.746 c 0.01,0.87 -0.895,0.464 -1.018,0.19 -1.163,-1.986 -2.865,-2.448 -4.548,-1.732 -1.667,0.71 -2.604,2.28 -2.454,4.522 0.31,3.438 3.036,7.2 4.355,9.326 1.252,1.93 2.628,4.223 4.077,7.155 1.697,-3.364 2.56,-4.32 4.405,-7.392 1.626,-2.703 3.893,-5.352 4.068,-8.62 0,-2.486 -1.046,-4.833 -3.4,-5.26 -1.33,-0.243 -2.58,0.44 -3.504,2.036 -0.282,0.407 -0.85,0.195 -0.84,-0.362 0.165,-2.093 0.955,-3.983 2.83,-6.21 l -6.887,0 c 1.41,1.575 2.848,3.702 2.915,6.348 z"
         id="path4425" />
    </g>
  </g>
</svg>
