<?xml version="1.0" encoding="UTF-8" standalone="no"?>
<!-- Created with Inkscape (http://www.inkscape.org/) -->

<svg
   xmlns:dc="http://purl.org/dc/elements/1.1/"
   xmlns:cc="http://creativecommons.org/ns#"
   xmlns:rdf="http://www.w3.org/1999/02/22-rdf-syntax-ns#"
   xmlns:svg="http://www.w3.org/2000/svg"
   xmlns="http://www.w3.org/2000/svg"
   xmlns:sodipodi="http://sodipodi.sourceforge.net/DTD/sodipodi-0.dtd"
   xmlns:inkscape="http://www.inkscape.org/namespaces/inkscape"
   width="63.281277mm"
   height="88.281372mm"
   viewBox="0 0 224.225 312.80801"
   id="svg9877"
   version="1.1"
   inkscape:version="0.91 r13725"
   sodipodi:docname="9C.svg">
  <defs
     id="defs9879" />
  <sodipodi:namedview
     id="base"
     pagecolor="#ffffff"
     bordercolor="#666666"
     borderopacity="1.0"
     inkscape:pageopacity="0.0"
     inkscape:pageshadow="2"
     inkscape:zoom="0.35"
     inkscape:cx="-511.45893"
     inkscape:cy="99.26115"
     inkscape:document-units="px"
     inkscape:current-layer="layer1"
     showgrid="false"
     fit-margin-top="0"
     fit-margin-left="0"
     fit-margin-right="0"
     fit-margin-bottom="0"
     inkscape:window-width="1600"
     inkscape:window-height="838"
     inkscape:window-x="-8"
     inkscape:window-y="-8"
     inkscape:window-maximized="1" />
  <metadata
     id="metadata9882">
    <rdf:RDF>
      <cc:Work
         rdf:about="">
        <dc:format>image/svg+xml</dc:format>
        <dc:type
           rdf:resource="http://purl.org/dc/dcmitype/StillImage" />
        <dc:title></dc:title>
      </cc:Work>
    </rdf:RDF>
  </metadata>
  <g
     inkscape:label="Calque 1"
     inkscape:groupmode="layer"
     id="layer1"
     transform="translate(-227.8875,-318.81535)">
    <g
       transform="translate(-1644.4782,284.49985)"
       id="g4329">
      <g
         transform="translate(-4608.294,2469.814)"
         id="g4331">
        <rect
           style="fill:#ffffff;stroke:#000000;stroke-width:0.99699998"
           width="223.228"
           height="311.811"
           x="6481.1582"
           y="-2435"
           rx="10.63"
           ry="10.63"
           id="rect4333" />
      </g>
      <path
         inkscape:connector-curvature="0"
         d="m 1881.09,74.165 3.027,-0.942 c 1.142,2.995 3.45,3.88 5.892,3.69 4.38,-0.342 5.835,-5.15 6.164,-9.4 -1.708,1.774 -4.274,2.675 -6.46,2.587 -6.982,-0.37 -8.77,-5.854 -8.834,-11.6 -0.194,-4.847 1.847,-8.357 5.348,-9.965 1.852,-0.816 6.095,-0.816 7.96,0.15 4.282,2.215 5.866,6.048 5.58,15.19 0,7.524 -1.626,16.287 -9.838,16.475 -4.748,0.644 -8.353,-2.98 -8.84,-6.185 z m 11.888,-8.244 c 1.425,-0.884 2.23,-1.715 2.867,-2.96 0.525,-1.023 0.702,-1.554 0.553,-3.67 -0.385,-5.457 -3.3,-8.55 -7.525,-7.935 -2.356,0.343 -3.643,1.64 -4.383,4.048 -1.365,4.45 0.366,9.658 3.61,10.857 1.462,0.54 3.714,0.385 4.878,-0.34 z m 194.148,241.354 -3.026,0.942 c -1.142,-2.996 -3.45,-3.88 -5.892,-3.69 -4.382,0.342 -5.836,5.15 -6.165,9.4 1.708,-1.774 4.274,-2.675 6.46,-2.587 6.982,0.37 8.77,5.854 8.834,11.6 0.194,4.847 -1.847,8.357 -5.348,9.964 -1.853,0.817 -6.096,0.817 -7.96,-0.148 -4.283,-2.217 -5.867,-6.05 -5.58,-15.19 0,-7.525 1.625,-16.29 9.837,-16.476 4.748,-0.645 8.353,2.98 8.84,6.185 z m -11.887,8.244 c -1.426,0.884 -2.23,1.715 -2.868,2.96 -0.525,1.023 -0.702,1.554 -0.553,3.67 0.384,5.456 3.3,8.55 7.524,7.934 2.356,-0.342 3.643,-1.638 4.383,-4.048 1.365,-4.45 -0.366,-9.657 -3.61,-10.856 -1.462,-0.54 -3.714,-0.385 -4.878,0.34 z m -47.341,-129.381 c 2.88,-5.776 4.976,-11.7 5.348,-18.038 0.342,-2.33 -1.074,-2.37 -1.288,-0.728 -4.076,15.593 -25.763,11.37 -25.017,-3.297 0.606,-11.895 12.42,-14.454 18.583,-10.564 2.434,1.434 2.296,0.575 0.968,-0.91 -9.154,-10.212 -3.61,-23.363 8.762,-23.603 13.38,0.793 16.852,14.87 8.645,23.148 -1.02,0.994 -3.284,4.19 0.123,1.956 8.286,-5.887 19.787,0.444 19.552,9.522 -0.432,16.74 -20.84,17.987 -25.203,4.006 -0.42,-1.55 -1.63,-2.33 -1.296,0.304 0.605,4.767 1.857,11.953 5.438,18.206 z m -50.82,27.152 c 2.88,-5.775 4.976,-11.7 5.348,-18.037 0.342,-2.332 -1.074,-2.37 -1.288,-0.728 -4.076,15.592 -25.763,11.37 -25.017,-3.297 0.606,-11.895 12.42,-14.454 18.583,-10.564 2.434,1.432 2.296,0.574 0.968,-0.912 -9.154,-10.212 -3.61,-23.362 8.762,-23.603 13.38,0.793 16.852,14.87 8.645,23.148 -1.02,0.994 -3.284,4.19 0.123,1.956 8.286,-5.888 19.787,0.443 19.552,9.52 -0.432,16.74 -20.84,17.988 -25.203,4.006 -0.42,-1.55 -1.63,-2.328 -1.296,0.305 0.605,4.766 1.857,11.953 5.437,18.205 z m -50.713,-27.152 c 2.88,-5.776 4.976,-11.7 5.348,-18.038 0.342,-2.33 -1.074,-2.37 -1.288,-0.728 -4.076,15.593 -25.762,11.37 -25.017,-3.297 0.605,-11.895 12.42,-14.454 18.583,-10.564 2.434,1.434 2.297,0.575 0.968,-0.91 -9.154,-10.212 -3.61,-23.363 8.762,-23.603 13.38,0.793 16.85,14.87 8.644,23.148 -1.02,0.994 -3.284,4.19 0.123,1.956 8.287,-5.887 19.787,0.444 19.553,9.522 -0.433,16.74 -20.84,17.987 -25.204,4.006 -0.42,-1.55 -1.63,-2.33 -1.295,0.304 0.606,4.767 1.858,11.953 5.44,18.206 z m 101.533,-65.331 c 2.88,-5.775 4.976,-11.7 5.348,-18.037 0.342,-2.332 -1.074,-2.37 -1.288,-0.73 -4.076,15.594 -25.763,11.372 -25.017,-3.295 0.606,-11.895 12.42,-14.454 18.583,-10.565 2.434,1.433 2.296,0.575 0.968,-0.912 -9.154,-10.21 -3.61,-23.36 8.762,-23.602 13.38,0.793 16.852,14.87 8.645,23.148 -1.02,0.995 -3.284,4.192 0.123,1.957 8.286,-5.887 19.787,0.443 19.552,9.52 -0.432,16.74 -20.84,17.99 -25.203,4.007 -0.42,-1.55 -1.63,-2.33 -1.296,0.304 0.605,4.768 1.857,11.955 5.438,18.207 z m -101.533,0 c 2.88,-5.775 4.976,-11.7 5.348,-18.037 0.342,-2.332 -1.074,-2.37 -1.288,-0.73 -4.076,15.594 -25.762,11.372 -25.017,-3.295 0.605,-11.895 12.42,-14.454 18.583,-10.565 2.434,1.433 2.297,0.575 0.968,-0.912 -9.154,-10.21 -3.61,-23.36 8.762,-23.602 13.38,0.793 16.85,14.87 8.644,23.148 -1.02,0.995 -3.284,4.192 0.123,1.957 8.287,-5.887 19.787,0.443 19.553,9.52 -0.433,16.74 -20.84,17.99 -25.204,4.007 -0.42,-1.55 -1.63,-2.33 -1.295,0.304 0.606,4.768 1.858,11.955 5.44,18.207 z M 1941.067,261 c -2.88,5.774 -4.976,11.7 -5.348,18.036 -0.342,2.332 1.074,2.37 1.287,0.73 4.077,-15.594 25.763,-11.372 25.017,3.295 -0.605,11.896 -12.42,14.455 -18.582,10.566 -2.433,-1.433 -2.296,-0.575 -0.968,0.912 9.155,10.21 3.61,23.36 -8.76,23.602 -13.38,-0.793 -16.852,-14.87 -8.645,-23.148 1.02,-0.995 3.282,-4.192 -0.124,-1.957 -8.287,5.888 -19.787,-0.442 -19.553,-9.52 0.433,-16.74 20.84,-17.988 25.203,-4.006 0.42,1.55 1.63,2.327 1.295,-0.305 -0.604,-4.767 -1.855,-11.954 -5.436,-18.206 z m 101.533,0 c -2.88,5.774 -4.976,11.7 -5.348,18.036 -0.342,2.332 1.075,2.37 1.288,0.73 4.077,-15.594 25.763,-11.372 25.017,3.295 -0.605,11.896 -12.42,14.455 -18.582,10.566 -2.434,-1.433 -2.296,-0.575 -0.968,0.912 9.155,10.21 3.61,23.36 -8.76,23.602 -13.38,-0.793 -16.852,-14.87 -8.645,-23.148 1.02,-0.995 3.283,-4.192 -0.123,-1.957 -8.288,5.888 -19.79,-0.442 -19.554,-9.52 0.433,-16.74 20.84,-17.988 25.203,-4.006 0.42,1.55 1.628,2.327 1.294,-0.305 -0.605,-4.767 -1.856,-11.954 -5.437,-18.206 z m 0,-65.107 c -2.88,5.776 -4.976,11.7 -5.348,18.038 -0.342,2.332 1.075,2.372 1.288,0.73 4.077,-15.593 25.763,-11.37 25.017,3.296 -0.605,11.895 -12.42,14.454 -18.582,10.564 -2.434,-1.432 -2.296,-0.574 -0.968,0.912 9.155,10.212 3.61,23.362 -8.76,23.603 -13.38,-0.794 -16.852,-14.87 -8.645,-23.15 1.02,-0.993 3.283,-4.19 -0.123,-1.955 -8.288,5.888 -19.79,-0.443 -19.554,-9.52 0.433,-16.74 20.84,-17.988 25.203,-4.007 0.42,1.55 1.628,2.33 1.294,-0.304 -0.605,-4.767 -1.856,-11.954 -5.437,-18.207 z m -101.533,0 c -2.88,5.776 -4.976,11.7 -5.348,18.038 -0.342,2.332 1.074,2.372 1.287,0.73 4.077,-15.593 25.763,-11.37 25.017,3.296 -0.605,11.895 -12.42,14.454 -18.582,10.564 -2.433,-1.432 -2.296,-0.574 -0.968,0.912 9.155,10.212 3.61,23.362 -8.76,23.603 -13.38,-0.794 -16.852,-14.87 -8.645,-23.15 1.02,-0.993 3.282,-4.19 -0.124,-1.955 -8.287,5.888 -19.787,-0.443 -19.553,-9.52 0.433,-16.74 20.84,-17.988 25.203,-4.007 0.42,1.55 1.63,2.33 1.295,-0.304 -0.604,-4.767 -1.855,-11.954 -5.436,-18.207 z m -55.041,-88.326 c 1.192,-2.446 2.352,-4.72 2.984,-7.4 0.42,-2.53 -0.438,-1.59 -0.925,0.067 -0.72,2.297 -2.722,3.344 -4.58,3.37 -3.37,0.044 -5.053,-2.605 -4.948,-5.455 -0.368,-3 2.67,-5.12 4.962,-4.958 1.72,0.123 3.223,1.052 4.132,1.775 0.596,0.316 1.234,0.455 0.345,-0.358 -1.678,-1.834 -3.077,-2.965 -3.046,-5.712 0.03,-2.58 2.234,-5.268 5.156,-5.184 3.652,0.106 5.312,2.89 5.303,5.48 -0.01,1.89 -0.954,3.627 -2.412,4.703 -0.944,0.766 -0.68,1.34 0.398,0.615 1.035,-0.892 2.267,-1.282 3.545,-1.31 3.49,-0.054 4.856,2.962 4.656,5.764 -0.188,2.626 -2.423,5.33 -5.37,5.023 -2.63,-0.303 -4.012,-2.51 -4.804,-4.778 -0.263,-0.695 -0.676,-0.883 -0.665,0.153 0.608,5.057 2.492,8.204 2.505,8.202 z M 2082.93,272.24 c -1.192,2.445 -2.352,4.72 -2.984,7.4 -0.42,2.528 0.44,1.59 0.925,-0.068 0.723,-2.297 2.724,-3.344 4.58,-3.37 3.373,-0.044 5.054,2.606 4.95,5.455 0.367,3 -2.672,5.12 -4.962,4.957 -1.723,-0.123 -3.224,-1.052 -4.133,-1.775 -0.597,-0.316 -1.234,-0.456 -0.345,0.357 1.677,1.833 3.076,2.964 3.046,5.71 -0.03,2.58 -2.234,5.27 -5.156,5.185 -3.65,-0.106 -5.312,-2.89 -5.303,-5.48 0.01,-1.89 0.954,-3.627 2.412,-4.703 0.943,-0.767 0.678,-1.34 -0.4,-0.616 -1.034,0.892 -2.266,1.282 -3.544,1.31 -3.49,0.055 -4.855,-2.962 -4.655,-5.764 0.188,-2.626 2.424,-5.33 5.37,-5.023 2.63,0.302 4.013,2.51 4.805,4.777 0.262,0.695 0.676,0.883 0.665,-0.153 -0.608,-5.056 -2.492,-8.203 -2.506,-8.2 z"
         id="path4335" />
    </g>
  </g>
</svg>
