<?xml version="1.0" encoding="UTF-8" standalone="no"?>
<!-- Created with Inkscape (http://www.inkscape.org/) -->

<svg
   xmlns:dc="http://purl.org/dc/elements/1.1/"
   xmlns:cc="http://creativecommons.org/ns#"
   xmlns:rdf="http://www.w3.org/1999/02/22-rdf-syntax-ns#"
   xmlns:svg="http://www.w3.org/2000/svg"
   xmlns="http://www.w3.org/2000/svg"
   xmlns:sodipodi="http://sodipodi.sourceforge.net/DTD/sodipodi-0.dtd"
   xmlns:inkscape="http://www.inkscape.org/namespaces/inkscape"
   width="63.281277mm"
   height="88.281372mm"
   viewBox="0 0 224.225 312.80801"
   id="svg16793"
   version="1.1"
   inkscape:version="0.91 r13725"
   sodipodi:docname="9D.svg">
  <defs
     id="defs16795" />
  <sodipodi:namedview
     id="base"
     pagecolor="#ffffff"
     bordercolor="#666666"
     borderopacity="1.0"
     inkscape:pageopacity="0.0"
     inkscape:pageshadow="2"
     inkscape:zoom="0.35"
     inkscape:cx="-546.45893"
     inkscape:cy="156.404"
     inkscape:document-units="px"
     inkscape:current-layer="layer1"
     showgrid="false"
     fit-margin-top="0"
     fit-margin-left="0"
     fit-margin-right="0"
     fit-margin-bottom="0"
     inkscape:window-width="1600"
     inkscape:window-height="838"
     inkscape:window-x="-8"
     inkscape:window-y="-8"
     inkscape:window-maximized="1" />
  <metadata
     id="metadata16798">
    <rdf:RDF>
      <cc:Work
         rdf:about="">
        <dc:format>image/svg+xml</dc:format>
        <dc:type
           rdf:resource="http://purl.org/dc/dcmitype/StillImage" />
        <dc:title></dc:title>
      </cc:Work>
    </rdf:RDF>
  </metadata>
  <g
     inkscape:label="Calque 1"
     inkscape:groupmode="layer"
     id="layer1"
     transform="translate(-262.8875,-375.9582)">
    <g
       transform="translate(-6217.7722,2811.4567)"
       id="g4515">
      <rect
         style="fill:#ffffff;stroke:#000000;stroke-width:0.99699998"
         width="223.228"
         height="311.811"
         x="6481.1582"
         y="-2435"
         rx="10.63"
         ry="10.63"
         id="rect4517" />
      <g
         style="fill:#d40000"
         id="g4519">
        <path
           inkscape:connector-curvature="0"
           d="m 6513.833,-2377.342 c 9.92,-9.682 16.436,-20.238 22.667,-30.39 5.464,11.17 13.306,20.943 21.786,30.39 -9.073,9.368 -16.105,19.386 -21.76,29.917 -6.267,-10.795 -12.865,-20.57 -22.693,-29.917 z m 0,65.33 c 9.92,-9.68 16.436,-20.237 22.667,-30.39 5.464,11.17 13.306,20.944 21.786,30.39 -9.073,9.37 -16.105,19.387 -21.76,29.918 -6.267,-10.796 -12.865,-20.572 -22.693,-29.918 z m 0,66.897 c 9.92,-9.68 16.436,-20.237 22.667,-30.39 5.464,11.17 13.306,20.944 21.786,30.39 -9.073,9.37 -16.105,19.387 -21.76,29.918 -6.267,-10.796 -12.865,-20.572 -22.693,-29.918 z m 0,65.105 c 9.92,-9.68 16.436,-20.237 22.667,-30.388 5.464,11.17 13.306,20.942 21.786,30.39 -9.073,9.367 -16.105,19.385 -21.76,29.916 -6.267,-10.795 -12.865,-20.57 -22.693,-29.917 z m 56.444,-98.864 c 9.92,-9.682 16.436,-20.238 22.667,-30.39 5.464,11.17 13.306,20.943 21.786,30.39 -9.073,9.368 -16.105,19.386 -21.76,29.917 -6.266,-10.795 -12.865,-20.57 -22.693,-29.917 z m 55.088,-98.468 c 9.92,-9.682 16.436,-20.238 22.667,-30.39 5.465,11.17 13.306,20.943 21.787,30.39 -9.075,9.368 -16.107,19.386 -21.76,29.917 -6.268,-10.795 -12.866,-20.57 -22.695,-29.917 z m 0,65.33 c 9.92,-9.68 16.436,-20.237 22.667,-30.39 5.465,11.17 13.306,20.944 21.787,30.39 -9.075,9.37 -16.107,19.387 -21.76,29.918 -6.268,-10.796 -12.866,-20.572 -22.695,-29.918 z m 0,66.897 c 9.92,-9.68 16.436,-20.237 22.667,-30.39 5.465,11.17 13.306,20.944 21.787,30.39 -9.075,9.37 -16.107,19.387 -21.76,29.918 -6.268,-10.796 -12.866,-20.572 -22.695,-29.918 z m 0,65.105 c 9.92,-9.68 16.436,-20.237 22.667,-30.388 5.465,11.17 13.306,20.942 21.787,30.39 -9.075,9.367 -16.107,19.385 -21.76,29.916 -6.268,-10.795 -12.866,-20.57 -22.695,-29.917 z m 52.759,-8.21 c 4.064,-3.967 6.733,-8.29 9.285,-12.45 2.238,4.576 5.45,8.58 8.924,12.45 -3.717,3.837 -6.598,7.94 -8.914,12.255 -2.567,-4.423 -5.27,-8.427 -9.296,-12.256 z m -188.814,-185.858 c 4.063,-3.966 6.73,-8.29 9.284,-12.45 2.238,4.577 5.45,8.58 8.925,12.45 -3.718,3.837 -6.6,7.94 -8.915,12.255 -2.567,-4.422 -5.27,-8.427 -9.296,-12.255 z m 0.123,-21.572 3.027,-0.94 c 1.142,2.994 3.45,3.877 5.892,3.688 4.382,-0.34 5.836,-5.15 6.165,-9.4 -1.708,1.774 -4.274,2.676 -6.46,2.588 -6.982,-0.37 -8.77,-5.855 -8.834,-11.6 -0.194,-4.848 1.847,-8.357 5.348,-9.965 1.853,-0.815 6.096,-0.815 7.96,0.15 4.283,2.216 5.867,6.048 5.58,15.19 0,7.525 -1.625,16.288 -9.838,16.476 -4.747,0.644 -8.352,-2.98 -8.84,-6.185 z m 11.888,-8.243 c 1.426,-0.886 2.23,-1.716 2.868,-2.962 0.525,-1.023 0.702,-1.553 0.553,-3.67 -0.384,-5.456 -3.3,-8.548 -7.524,-7.934 -2.357,0.344 -3.643,1.64 -4.383,4.05 -1.365,4.448 0.366,9.656 3.61,10.856 1.462,0.54 3.714,0.384 4.878,-0.34 z m 194.149,241.353 -3.027,0.942 c -1.142,-2.995 -3.45,-3.878 -5.892,-3.69 -4.38,0.342 -5.835,5.15 -6.164,9.4 1.707,-1.773 4.274,-2.675 6.46,-2.587 6.982,0.37 8.77,5.855 8.834,11.6 0.194,4.848 -1.848,8.357 -5.348,9.965 -1.852,0.816 -6.095,0.816 -7.96,-0.15 -4.282,-2.215 -5.867,-6.047 -5.58,-15.19 0,-7.524 1.625,-16.287 9.838,-16.475 4.748,-0.644 8.353,2.98 8.84,6.185 z m -11.888,8.244 c -1.425,0.886 -2.23,1.716 -2.868,2.962 -0.524,1.023 -0.7,1.553 -0.552,3.67 0.385,5.456 3.3,8.548 7.525,7.934 2.356,-0.343 3.643,-1.638 4.382,-4.048 1.365,-4.45 -0.366,-9.657 -3.61,-10.857 -1.462,-0.54 -3.714,-0.384 -4.878,0.34 z"
           id="path4521" />
      </g>
    </g>
  </g>
</svg>
