<?xml version="1.0" encoding="UTF-8" standalone="no"?>
<!-- Created with Inkscape (http://www.inkscape.org/) -->

<svg
   xmlns:dc="http://purl.org/dc/elements/1.1/"
   xmlns:cc="http://creativecommons.org/ns#"
   xmlns:rdf="http://www.w3.org/1999/02/22-rdf-syntax-ns#"
   xmlns:svg="http://www.w3.org/2000/svg"
   xmlns="http://www.w3.org/2000/svg"
   xmlns:sodipodi="http://sodipodi.sourceforge.net/DTD/sodipodi-0.dtd"
   xmlns:inkscape="http://www.inkscape.org/namespaces/inkscape"
   width="63.281277mm"
   height="88.281372mm"
   viewBox="0 0 224.225 312.80801"
   id="svg19709"
   version="1.1"
   inkscape:version="0.91 r13725"
   sodipodi:docname="9H.svg">
  <defs
     id="defs19711" />
  <sodipodi:namedview
     id="base"
     pagecolor="#ffffff"
     bordercolor="#666666"
     borderopacity="1.0"
     inkscape:pageopacity="0.0"
     inkscape:pageshadow="2"
     inkscape:zoom="0.35"
     inkscape:cx="-405.74463"
     inkscape:cy="299.26115"
     inkscape:document-units="px"
     inkscape:current-layer="layer1"
     showgrid="false"
     fit-margin-top="0"
     fit-margin-left="0"
     fit-margin-right="0"
     fit-margin-bottom="0"
     inkscape:window-width="1600"
     inkscape:window-height="838"
     inkscape:window-x="-8"
     inkscape:window-y="-8"
     inkscape:window-maximized="1" />
  <metadata
     id="metadata19714">
    <rdf:RDF>
      <cc:Work
         rdf:about="">
        <dc:format>image/svg+xml</dc:format>
        <dc:type
           rdf:resource="http://purl.org/dc/dcmitype/StillImage" />
        <dc:title></dc:title>
      </cc:Work>
    </rdf:RDF>
  </metadata>
  <g
     inkscape:label="Calque 1"
     inkscape:groupmode="layer"
     id="layer1"
     transform="translate(-122.1732,-518.81535)">
    <g
       transform="translate(-1750.4705,171.69185)"
       id="g13426">
      <g
         transform="translate(-4608.016,2782.622)"
         id="g13428">
        <rect
           style="fill:#ffffff;stroke:#000000;stroke-width:0.99699998"
           width="223.228"
           height="311.811"
           x="6481.1582"
           y="-2435"
           rx="10.63"
           ry="10.63"
           id="rect13430" />
        <g
           style="fill:#d40000"
           id="g13432">
          <path
             inkscape:connector-curvature="0"
             d="m 6489.433,-2395.65 3.027,-0.94 c 1.142,2.994 3.45,3.877 5.892,3.688 4.382,-0.34 5.836,-5.15 6.165,-9.4 -1.708,1.774 -4.274,2.676 -6.46,2.588 -6.982,-0.37 -8.77,-5.855 -8.834,-11.6 -0.194,-4.848 1.847,-8.357 5.348,-9.965 1.853,-0.815 6.096,-0.815 7.96,0.15 4.283,2.216 5.867,6.048 5.58,15.19 0,7.525 -1.625,16.288 -9.838,16.476 -4.747,0.644 -8.352,-2.98 -8.84,-6.185 z m 11.888,-8.243 c 1.426,-0.886 2.23,-1.716 2.868,-2.962 0.525,-1.023 0.702,-1.553 0.553,-3.67 -0.384,-5.456 -3.3,-8.548 -7.524,-7.934 -2.357,0.344 -3.643,1.64 -4.383,4.05 -1.365,4.448 0.366,9.656 3.61,10.856 1.462,0.54 3.714,0.384 4.878,-0.34 z m 194.149,241.353 -3.027,0.942 c -1.142,-2.995 -3.45,-3.878 -5.892,-3.69 -4.38,0.342 -5.835,5.15 -6.164,9.4 1.707,-1.773 4.274,-2.675 6.46,-2.587 6.982,0.37 8.77,5.855 8.834,11.6 0.194,4.848 -1.848,8.357 -5.348,9.965 -1.852,0.816 -6.095,0.816 -7.96,-0.15 -4.282,-2.215 -5.867,-6.047 -5.58,-15.19 0,-7.524 1.625,-16.287 9.838,-16.475 4.748,-0.644 8.353,2.98 8.84,6.185 z m -11.888,8.244 c -1.425,0.886 -2.23,1.716 -2.868,2.962 -0.524,1.023 -0.7,1.553 -0.552,3.67 0.385,5.456 3.3,8.548 7.525,7.934 2.356,-0.343 3.643,-1.638 4.382,-4.048 1.365,-4.45 -0.366,-9.657 -3.61,-10.857 -1.462,-0.54 -3.714,-0.384 -4.878,0.34 z"
             id="path13434" />
        </g>
      </g>
      <path
         style="fill:#d40000"
         inkscape:connector-curvature="0"
         d="m 1881.725,405.947 c -1.583,-3.472 -1.757,-9.405 2.97,-10.208 3.563,-0.46 5.013,1.197 5.3,3.74 0.143,0.744 0.563,0.79 0.696,-0.057 0.205,-2.61 2.788,-4.133 4.807,-3.75 5.527,0.945 5.204,7.028 3.4,11.155 -2.732,5.48 -5.602,8.938 -8.246,14.452 -3.038,-5.74 -6.507,-10.405 -8.925,-15.333 z m 36.268,-29.649 c 7.144,-0.475 10.87,5.627 11.595,10.436 0.434,0.764 0.67,0.55 0.837,-0.042 0.35,-6.174 5.875,-11.22 10.993,-10.53 8.328,0.108 13.39,9.375 11.966,17.218 -1.738,9.582 -6.9,15.35 -10.807,21.293 -4.422,6.153 -10.373,15.04 -12.29,19.317 0,0 -6.05,-9.204 -13.918,-20.03 -5.263,-7.238 -9.474,-15.082 -9.866,-21.835 -0.448,-7.715 2.72,-14.632 11.49,-15.827 z m 109.533,0 c 7.144,-0.475 10.868,5.627 11.595,10.436 0.435,0.764 0.672,0.55 0.838,-0.042 0.35,-6.174 5.875,-11.22 10.993,-10.53 8.33,0.108 13.39,9.375 11.967,17.218 -1.738,9.582 -6.9,15.35 -10.808,21.293 -4.422,6.153 -10.373,15.04 -12.29,19.317 0,0 -6.05,-9.204 -13.918,-20.03 -5.262,-7.238 -9.473,-15.082 -9.865,-21.835 -0.448,-7.715 2.72,-14.632 11.49,-15.827 z m 0,65.33 c 7.144,-0.474 10.868,5.628 11.595,10.437 0.435,0.763 0.672,0.548 0.838,-0.043 0.35,-6.174 5.875,-11.22 10.993,-10.53 8.33,0.108 13.39,9.376 11.967,17.22 -1.738,9.58 -6.9,15.35 -10.808,21.292 -4.422,6.152 -10.373,15.04 -12.29,19.317 0,0 -6.05,-9.204 -13.918,-20.03 -5.262,-7.237 -9.473,-15.08 -9.865,-21.834 -0.448,-7.716 2.72,-14.632 11.49,-15.828 z m -54.82,33.152 c 7.144,-0.473 10.868,5.628 11.595,10.437 0.435,0.764 0.672,0.55 0.838,-0.042 0.35,-6.174 5.875,-11.22 10.993,-10.53 8.33,0.108 13.39,9.375 11.967,17.22 -1.738,9.58 -6.9,15.35 -10.808,21.292 -4.422,6.152 -10.373,15.04 -12.29,19.317 0,0 -6.05,-9.205 -13.918,-20.03 -5.262,-7.24 -9.473,-15.082 -9.865,-21.835 -0.448,-7.717 2.72,-14.633 11.49,-15.83 z m -54.713,-33.152 c 7.144,-0.474 10.87,5.628 11.595,10.437 0.434,0.763 0.67,0.548 0.837,-0.043 0.35,-6.174 5.875,-11.22 10.993,-10.53 8.328,0.108 13.39,9.376 11.966,17.22 -1.738,9.58 -6.9,15.35 -10.807,21.292 -4.422,6.152 -10.373,15.04 -12.29,19.317 0,0 -6.05,-9.204 -13.918,-20.03 -5.263,-7.237 -9.474,-15.08 -9.866,-21.834 -0.448,-7.716 2.72,-14.632 11.49,-15.828 z m 109.533,124.39 c 7.144,0.475 10.868,-5.627 11.595,-10.436 0.435,-0.764 0.672,-0.55 0.838,0.042 0.35,6.174 5.875,11.22 10.993,10.53 8.33,-0.108 13.39,-9.375 11.967,-17.218 -1.738,-9.582 -6.9,-15.35 -10.808,-21.293 -4.422,-6.153 -10.373,-15.04 -12.29,-19.317 0,0 -6.05,9.204 -13.918,20.03 -5.262,7.238 -9.473,15.082 -9.865,21.835 -0.448,7.716 2.72,14.632 11.49,15.828 z m 0,65.106 c 7.144,0.474 10.868,-5.628 11.595,-10.437 0.435,-0.764 0.672,-0.548 0.838,0.043 0.35,6.174 5.875,11.22 10.993,10.53 8.33,-0.108 13.39,-9.376 11.967,-17.22 -1.738,-9.58 -6.9,-15.35 -10.808,-21.292 -4.422,-6.152 -10.373,-15.04 -12.29,-19.317 0,0 -6.05,9.206 -13.918,20.03 -5.262,7.24 -9.473,15.083 -9.865,21.836 -0.448,7.716 2.72,14.632 11.49,15.828 z m -109.533,0 c 7.144,0.474 10.87,-5.628 11.595,-10.437 0.434,-0.764 0.67,-0.548 0.837,0.043 0.35,6.174 5.875,11.22 10.993,10.53 8.328,-0.108 13.39,-9.376 11.966,-17.22 -1.738,-9.58 -6.9,-15.35 -10.807,-21.292 -4.422,-6.152 -10.373,-15.04 -12.29,-19.317 0,0 -6.05,9.206 -13.918,20.03 -5.263,7.24 -9.474,15.083 -9.866,21.836 -0.448,7.716 2.72,14.632 11.49,15.828 z m 0,-65.106 c 7.144,0.475 10.87,-5.627 11.595,-10.436 0.434,-0.764 0.67,-0.55 0.837,0.042 0.35,6.174 5.875,11.22 10.993,10.53 8.328,-0.108 13.39,-9.375 11.966,-17.218 -1.738,-9.582 -6.9,-15.35 -10.807,-21.293 -4.422,-6.153 -10.373,-15.04 -12.29,-19.317 0,0 -6.05,9.204 -13.918,20.03 -5.263,7.238 -9.474,15.082 -9.866,21.835 -0.448,7.716 2.72,14.632 11.49,15.828 z m 152.547,30.787 c -1.583,3.472 -1.757,9.405 2.97,10.208 3.563,0.458 5.013,-1.2 5.3,-3.742 0.143,-0.742 0.563,-0.788 0.696,0.06 0.204,2.61 2.787,4.132 4.806,3.75 5.527,-0.946 5.204,-7.03 3.4,-11.156 -2.732,-5.48 -5.602,-8.938 -8.246,-14.452 -3.038,5.74 -6.508,10.405 -8.926,15.333 z"
         id="path13436" />
    </g>
  </g>
</svg>
