<?xml version="1.0" encoding="UTF-8" standalone="no"?>
<!-- Created with Inkscape (http://www.inkscape.org/) -->

<svg
   xmlns:dc="http://purl.org/dc/elements/1.1/"
   xmlns:cc="http://creativecommons.org/ns#"
   xmlns:rdf="http://www.w3.org/1999/02/22-rdf-syntax-ns#"
   xmlns:svg="http://www.w3.org/2000/svg"
   xmlns="http://www.w3.org/2000/svg"
   xmlns:sodipodi="http://sodipodi.sourceforge.net/DTD/sodipodi-0.dtd"
   xmlns:inkscape="http://www.inkscape.org/namespaces/inkscape"
   width="63.281273mm"
   height="88.281357mm"
   viewBox="0 0 224.22499 312.80796"
   id="svg9325"
   version="1.1"
   inkscape:version="0.91 r13725"
   sodipodi:docname="9S.svg">
  <defs
     id="defs9327" />
  <sodipodi:namedview
     id="base"
     pagecolor="#ffffff"
     bordercolor="#666666"
     borderopacity="1.0"
     inkscape:pageopacity="0.0"
     inkscape:pageshadow="2"
     inkscape:zoom="0.35"
     inkscape:cx="-546.45893"
     inkscape:cy="156.40397"
     inkscape:document-units="px"
     inkscape:current-layer="layer1"
     showgrid="false"
     fit-margin-top="0"
     fit-margin-left="0"
     fit-margin-right="0"
     fit-margin-bottom="0"
     inkscape:window-width="1600"
     inkscape:window-height="838"
     inkscape:window-x="-8"
     inkscape:window-y="-8"
     inkscape:window-maximized="1" />
  <metadata
     id="metadata9330">
    <rdf:RDF>
      <cc:Work
         rdf:about="">
        <dc:format>image/svg+xml</dc:format>
        <dc:type
           rdf:resource="http://purl.org/dc/dcmitype/StillImage" />
        <dc:title></dc:title>
      </cc:Work>
    </rdf:RDF>
  </metadata>
  <g
     inkscape:label="Calque 1"
     inkscape:groupmode="layer"
     id="layer1"
     transform="translate(-262.8875,-375.95822)">
    <g
       transform="translate(-1609.7562,-283.9733)"
       id="g4427">
      <g
         transform="translate(-4608.016,3095.43)"
         id="g4429">
        <rect
           style="fill:#ffffff;stroke:#000000;stroke-width:0.99699998"
           width="223.228"
           height="311.811"
           x="6481.1582"
           y="-2435"
           rx="10.63"
           ry="10.63"
           id="rect4431" />
        <path
           inkscape:connector-curvature="0"
           d="m 6489.433,-2395.65 3.027,-0.94 c 1.142,2.994 3.45,3.877 5.892,3.688 4.382,-0.34 5.836,-5.15 6.165,-9.4 -1.708,1.774 -4.274,2.676 -6.46,2.588 -6.982,-0.37 -8.77,-5.855 -8.834,-11.6 -0.194,-4.848 1.847,-8.357 5.348,-9.965 1.853,-0.815 6.096,-0.815 7.96,0.15 4.283,2.216 5.867,6.048 5.58,15.19 0,7.525 -1.625,16.288 -9.838,16.476 -4.747,0.644 -8.352,-2.98 -8.84,-6.185 z m 11.888,-8.243 c 1.426,-0.886 2.23,-1.716 2.868,-2.962 0.525,-1.023 0.702,-1.553 0.553,-3.67 -0.384,-5.456 -3.3,-8.548 -7.524,-7.934 -2.357,0.344 -3.643,1.64 -4.383,4.05 -1.365,4.448 0.366,9.656 3.61,10.856 1.462,0.54 3.714,0.384 4.878,-0.34 z m 194.149,241.353 -3.027,0.942 c -1.142,-2.995 -3.45,-3.878 -5.892,-3.69 -4.38,0.342 -5.835,5.15 -6.164,9.4 1.707,-1.773 4.274,-2.675 6.46,-2.587 6.982,0.37 8.77,5.855 8.834,11.6 0.194,4.848 -1.848,8.357 -5.348,9.965 -1.852,0.816 -6.095,0.816 -7.96,-0.15 -4.282,-2.215 -5.867,-6.047 -5.58,-15.19 0,-7.524 1.625,-16.287 9.838,-16.475 4.748,-0.644 8.353,2.98 8.84,6.185 z m -11.888,8.244 c -1.425,0.886 -2.23,1.716 -2.868,2.962 -0.524,1.023 -0.7,1.553 -0.552,3.67 0.385,5.456 3.3,8.548 7.525,7.934 2.356,-0.343 3.643,-1.638 4.382,-4.048 1.365,-4.45 -0.366,-9.657 -3.61,-10.857 -1.462,-0.54 -3.714,-0.384 -4.878,0.34 z"
           id="path4433" />
      </g>
      <path
         inkscape:connector-curvature="0"
         d="m 1925.903,729.303 c 0.015,-2.026 -1.587,-2.065 -1.57,-0.586 -0.133,7.43 -6.416,11.086 -10.98,10.22 -7.036,-1.34 -9.28,-8.323 -9.214,-12.437 0.206,-12.696 12.986,-22.058 24.52,-38.334 8.45,14.69 22.396,26.23 23.222,37.585 1.097,15.1 -18.01,20.73 -20.737,3.134 -0.176,-1.243 -1.64,-1.8 -1.526,-0.065 0.413,4.822 -0.176,6.83 5.264,18.718 l -14.22,0 c 3.148,-5.554 5.024,-12.374 5.24,-18.235 z m 111.532,0 c 0.015,-2.026 -1.586,-2.065 -1.568,-0.586 -0.135,7.43 -6.417,11.086 -10.98,10.22 -7.037,-1.34 -9.283,-8.323 -9.216,-12.437 0.21,-12.696 12.99,-22.058 24.522,-38.334 8.45,14.69 22.397,26.23 23.223,37.585 1.097,15.1 -18.01,20.73 -20.737,3.134 -0.176,-1.243 -1.64,-1.8 -1.526,-0.065 0.414,4.822 -0.175,6.83 5.265,18.718 l -14.22,0 c 3.148,-5.554 5.024,-12.374 5.238,-18.235 z m 0,65.33 c 0.015,-2.025 -1.586,-2.064 -1.568,-0.586 -0.135,7.43 -6.417,11.087 -10.98,10.22 -7.037,-1.338 -9.283,-8.323 -9.216,-12.436 0.21,-12.696 12.99,-22.058 24.522,-38.334 8.45,14.69 22.397,26.23 23.223,37.586 1.097,15.098 -18.01,20.73 -20.737,3.133 -0.176,-1.243 -1.64,-1.8 -1.526,-0.065 0.414,4.822 -0.175,6.83 5.265,18.72 l -14.22,0 c 3.148,-5.556 5.024,-12.376 5.238,-18.237 z m -111.532,0 c 0.015,-2.025 -1.587,-2.064 -1.57,-0.586 -0.133,7.43 -6.416,11.087 -10.98,10.22 -7.036,-1.338 -9.28,-8.323 -9.214,-12.436 0.206,-12.696 12.986,-22.058 24.52,-38.334 8.45,14.69 22.396,26.23 23.222,37.586 1.097,15.098 -18.01,20.73 -20.737,3.133 -0.176,-1.243 -1.64,-1.8 -1.526,-0.065 0.413,4.822 -0.176,6.83 5.264,18.72 l -14.22,0 c 3.148,-5.556 5.024,-12.376 5.24,-18.237 z m 111.543,109.127 c 0.015,2.026 -1.587,2.064 -1.568,0.586 -0.135,-7.43 -6.417,-11.087 -10.98,-10.22 -7.037,1.34 -9.283,8.323 -9.216,12.436 0.207,12.697 12.988,22.06 24.52,38.335 8.45,-14.69 22.398,-26.23 23.223,-37.586 1.098,-15.097 -18.01,-20.73 -20.737,-3.132 -0.176,1.243 -1.64,1.802 -1.526,0.065 0.415,-4.822 -0.175,-6.83 5.266,-18.72 l -14.222,0 c 3.15,5.556 5.026,12.376 5.24,18.237 z m 0,-65.106 c 0.015,2.026 -1.587,2.065 -1.568,0.586 -0.135,-7.428 -6.417,-11.086 -10.98,-10.22 -7.037,1.34 -9.283,8.324 -9.216,12.437 0.207,12.696 12.988,22.058 24.52,38.334 8.45,-14.69 22.398,-26.228 23.223,-37.584 1.098,-15.098 -18.01,-20.73 -20.737,-3.133 -0.176,1.243 -1.64,1.8 -1.526,0.065 0.415,-4.823 -0.175,-6.83 5.266,-18.72 l -14.222,0 c 3.15,5.555 5.026,12.375 5.24,18.236 z m -55.088,-33.759 c 0.015,2.025 -1.587,2.064 -1.57,0.586 -0.133,-7.428 -6.415,-11.086 -10.98,-10.218 -7.036,1.337 -9.28,8.322 -9.214,12.435 0.207,12.697 12.988,22.06 24.52,38.335 8.45,-14.69 22.397,-26.23 23.223,-37.586 1.098,-15.098 -18.01,-20.73 -20.737,-3.133 -0.176,1.243 -1.64,1.8 -1.526,0.065 0.414,-4.822 -0.175,-6.83 5.266,-18.72 l -14.222,0 c 3.15,5.556 5.025,12.375 5.24,18.237 z m -56.445,33.759 c 0.015,2.026 -1.586,2.065 -1.568,0.586 -0.135,-7.428 -6.417,-11.086 -10.98,-10.22 -7.037,1.34 -9.283,8.324 -9.216,12.437 0.207,12.696 12.987,22.058 24.52,38.334 8.45,-14.69 22.397,-26.228 23.223,-37.584 1.097,-15.098 -18.01,-20.73 -20.737,-3.133 -0.176,1.243 -1.64,1.8 -1.526,0.065 0.414,-4.823 -0.175,-6.83 5.265,-18.72 l -14.22,0 c 3.148,5.555 5.024,12.375 5.238,18.236 z m 0,65.106 c 0.015,2.026 -1.586,2.064 -1.568,0.586 -0.135,-7.43 -6.417,-11.087 -10.98,-10.22 -7.037,1.34 -9.283,8.323 -9.216,12.436 0.207,12.697 12.987,22.06 24.52,38.335 8.45,-14.69 22.397,-26.23 23.223,-37.586 1.097,-15.097 -18.01,-20.73 -20.737,-3.132 -0.176,1.243 -1.64,1.802 -1.526,0.065 0.414,-4.822 -0.175,-6.83 5.265,-18.72 l -14.22,0 c 3.148,5.556 5.024,12.376 5.238,18.237 z M 1889.97,727.81 c 0.01,-0.87 -0.895,-0.464 -1.018,-0.19 -1.163,1.986 -2.864,2.448 -4.548,1.732 -1.667,-0.71 -2.604,-2.28 -2.453,-4.522 0.31,-3.438 3.036,-7.2 4.356,-9.326 1.252,-1.93 2.627,-4.222 4.076,-7.154 1.698,3.363 2.56,4.32 4.405,7.39 1.626,2.706 3.893,5.354 4.068,8.624 0,2.485 -1.046,4.832 -3.4,5.26 -1.33,0.24 -2.578,-0.442 -3.503,-2.038 -0.282,-0.406 -0.85,-0.194 -0.84,0.362 0.166,2.094 0.956,3.983 2.83,6.212 l -6.887,0 c 1.41,-1.576 2.85,-3.704 2.915,-6.35 z m 188.815,172.746 c 0.01,0.872 -0.895,0.465 -1.017,0.19 -1.164,-1.985 -2.865,-2.447 -4.548,-1.73 -1.668,0.708 -2.604,2.28 -2.454,4.52 0.31,3.44 3.035,7.2 4.355,9.327 1.253,1.93 2.63,4.223 4.078,7.154 1.697,-3.363 2.558,-4.32 4.405,-7.39 1.626,-2.705 3.892,-5.354 4.067,-8.623 0,-2.485 -1.046,-4.832 -3.4,-5.26 -1.33,-0.242 -2.578,0.442 -3.503,2.037 -0.282,0.408 -0.85,0.196 -0.84,-0.36 0.166,-2.094 0.956,-3.984 2.83,-6.212 l -6.887,0 c 1.41,1.575 2.85,3.703 2.915,6.348 z"
         id="path4435" />
    </g>
  </g>
</svg>
