<?xml version="1.0" encoding="UTF-8" standalone="no"?>
<!-- Created with Inkscape (http://www.inkscape.org/) -->

<svg
   xmlns:dc="http://purl.org/dc/elements/1.1/"
   xmlns:cc="http://creativecommons.org/ns#"
   xmlns:rdf="http://www.w3.org/1999/02/22-rdf-syntax-ns#"
   xmlns:svg="http://www.w3.org/2000/svg"
   xmlns="http://www.w3.org/2000/svg"
   xmlns:sodipodi="http://sodipodi.sourceforge.net/DTD/sodipodi-0.dtd"
   xmlns:inkscape="http://www.inkscape.org/namespaces/inkscape"
   width="63.281277mm"
   height="88.281372mm"
   viewBox="0 0 224.225 312.80801"
   id="svg5293"
   version="1.1"
   inkscape:version="0.91 r13725"
   sodipodi:docname="AC.svg">
  <defs
     id="defs5295" />
  <sodipodi:namedview
     id="base"
     pagecolor="#ffffff"
     bordercolor="#666666"
     borderopacity="1.0"
     inkscape:pageopacity="0.0"
     inkscape:pageshadow="2"
     inkscape:zoom="0.35"
     inkscape:cx="-325.74464"
     inkscape:cy="-135.02457"
     inkscape:document-units="px"
     inkscape:current-layer="layer1"
     showgrid="false"
     fit-margin-top="0"
     fit-margin-left="0"
     fit-margin-right="0"
     fit-margin-bottom="0"
     inkscape:window-width="1600"
     inkscape:window-height="838"
     inkscape:window-x="-8"
     inkscape:window-y="-8"
     inkscape:window-maximized="1" />
  <metadata
     id="metadata5298">
    <rdf:RDF>
      <cc:Work
         rdf:about="">
        <dc:format>image/svg+xml</dc:format>
        <dc:type
           rdf:resource="http://purl.org/dc/dcmitype/StillImage" />
        <dc:title></dc:title>
      </cc:Work>
    </rdf:RDF>
  </metadata>
  <g
     inkscape:label="Calque 1"
     inkscape:groupmode="layer"
     id="layer1"
     transform="translate(-42.173216,-84.529631)">
    <g
       transform="translate(-44.561456,50.214166)"
       id="g4265">
      <g
         transform="translate(-5947.468,2781.625)"
         id="g4267">
        <rect
           style="fill:#ffffff;stroke:#000000;stroke-width:0.99699998"
           width="223.228"
           height="311.811"
           x="6034.7012"
           y="-2746.811"
           rx="10.63"
           ry="10.63"
           id="rect4269" />
      </g>
      <path
         inkscape:connector-curvature="0"
         d="m 94.468,80.88 0,-2.737 2.66,0 5.666,-29.27 3.222,0 6.243,29.27 2.147,0 0,2.737 -7.318,0 0,-2.737 1.976,0 -0.788,-4.486 -7.385,0 -0.57,4.486 1.976,0 0,2.737 z m 13.178,-10.416 -3.208,-15.67 -3.007,15.67 z m 195.58,230.096 0,2.737 -2.66,0 -5.665,29.27 -3.222,0 -6.243,-29.27 -2.148,0 0,-2.737 7.318,0 0,2.737 -1.977,0 0.788,4.485 7.386,0 0.57,-4.485 -1.977,0 0,-2.737 z m -13.178,10.416 3.21,15.67 3.005,-15.67 z M 191.496,219.29 c 2.88,-5.775 4.976,-11.7 5.348,-18.037 0.342,-2.332 -1.074,-2.37 -1.288,-0.728 -4.076,15.592 -25.762,11.37 -25.017,-3.297 0.604,-11.895 12.42,-14.454 18.582,-10.564 2.433,1.432 2.296,0.574 0.967,-0.912 -9.155,-10.212 -3.61,-23.362 8.76,-23.603 13.38,0.793 16.852,14.87 8.645,23.148 -1.02,0.994 -3.284,4.19 0.123,1.956 8.287,-5.888 19.787,0.443 19.553,9.52 -0.432,16.74 -20.84,17.988 -25.203,4.006 -0.42,-1.55 -1.63,-2.328 -1.295,0.305 0.605,4.766 1.857,11.953 5.438,18.205 z M 100.142,109.996 c 1.192,-2.445 2.352,-4.72 2.985,-7.4 0.42,-2.53 -0.44,-1.59 -0.926,0.067 -0.72,2.298 -2.72,3.344 -4.58,3.37 -3.37,0.045 -5.05,-2.605 -4.947,-5.455 -0.368,-2.998 2.67,-5.12 4.962,-4.957 1.722,0.124 3.224,1.053 4.133,1.776 0.596,0.316 1.234,0.455 0.345,-0.358 -1.678,-1.833 -3.077,-2.964 -3.046,-5.71 0.03,-2.58 2.233,-5.27 5.155,-5.185 3.652,0.106 5.312,2.89 5.304,5.48 -0.01,1.89 -0.954,3.627 -2.412,4.704 -0.944,0.766 -0.68,1.34 0.398,0.614 1.035,-0.89 2.267,-1.28 3.545,-1.308 3.49,-0.055 4.855,2.96 4.655,5.764 -0.188,2.625 -2.423,5.328 -5.37,5.022 -2.63,-0.302 -4.012,-2.51 -4.804,-4.777 -0.263,-0.694 -0.676,-0.882 -0.665,0.154 0.608,5.058 2.492,8.205 2.506,8.202 z M 296.61,271.83 c -1.19,2.444 -2.35,4.72 -2.983,7.4 -0.42,2.527 0.438,1.588 0.925,-0.07 0.72,-2.296 2.723,-3.342 4.58,-3.368 3.37,-0.045 5.053,2.605 4.948,5.454 0.368,3 -2.67,5.12 -4.962,4.957 -1.722,-0.123 -3.224,-1.052 -4.132,-1.775 -0.597,-0.315 -1.234,-0.455 -0.345,0.358 1.678,1.833 3.077,2.965 3.047,5.71 -0.03,2.58 -2.234,5.27 -5.156,5.185 -3.65,-0.104 -5.31,-2.89 -5.302,-5.48 0.01,-1.888 0.954,-3.626 2.41,-4.702 0.946,-0.766 0.68,-1.34 -0.396,-0.615 -1.035,0.892 -2.267,1.283 -3.545,1.31 -3.49,0.055 -4.855,-2.962 -4.655,-5.764 0.187,-2.627 2.423,-5.33 5.37,-5.024 2.63,0.302 4.012,2.51 4.804,4.777 0.262,0.695 0.676,0.883 0.664,-0.153 -0.607,-5.057 -2.49,-8.204 -2.505,-8.2 z"
         id="path4271" />
    </g>
  </g>
</svg>
