<?xml version="1.0" encoding="UTF-8" standalone="no"?>
<!-- Created with Inkscape (http://www.inkscape.org/) -->

<svg
   xmlns:dc="http://purl.org/dc/elements/1.1/"
   xmlns:cc="http://creativecommons.org/ns#"
   xmlns:rdf="http://www.w3.org/1999/02/22-rdf-syntax-ns#"
   xmlns:svg="http://www.w3.org/2000/svg"
   xmlns="http://www.w3.org/2000/svg"
   xmlns:sodipodi="http://sodipodi.sourceforge.net/DTD/sodipodi-0.dtd"
   xmlns:inkscape="http://www.inkscape.org/namespaces/inkscape"
   width="63.281277mm"
   height="88.281372mm"
   viewBox="0 0 224.225 312.80801"
   id="svg4723"
   version="1.1"
   inkscape:version="0.91 r13725"
   sodipodi:docname="AS.svg">
  <defs
     id="defs4725" />
  <sodipodi:namedview
     id="base"
     pagecolor="#ffffff"
     bordercolor="#666666"
     borderopacity="1.0"
     inkscape:pageopacity="0.0"
     inkscape:pageshadow="2"
     inkscape:zoom="0.35"
     inkscape:cx="-546.45893"
     inkscape:cy="156.404"
     inkscape:document-units="px"
     inkscape:current-layer="layer1"
     showgrid="false"
     fit-margin-top="0"
     fit-margin-left="0"
     fit-margin-right="0"
     fit-margin-bottom="0"
     inkscape:window-width="1600"
     inkscape:window-height="838"
     inkscape:window-x="-8"
     inkscape:window-y="-8"
     inkscape:window-maximized="1" />
  <metadata
     id="metadata4728">
    <rdf:RDF>
      <cc:Work
         rdf:about="">
        <dc:format>image/svg+xml</dc:format>
        <dc:type
           rdf:resource="http://purl.org/dc/dcmitype/StillImage" />
        <dc:title></dc:title>
      </cc:Work>
    </rdf:RDF>
  </metadata>
  <g
     inkscape:label="Calque 1"
     inkscape:groupmode="layer"
     id="layer1"
     transform="translate(-262.8875,-375.9582)">
    <g
       transform="translate(175.89083,-283.97226)"
       id="g4345">
      <g
         transform="translate(-5947.206,3407.24)"
         id="g4347">
        <rect
           style="fill:#ffffff;stroke:#000000;stroke-width:0.99699998"
           width="223.228"
           height="311.811"
           x="6034.7012"
           y="-2746.811"
           rx="10.63"
           ry="10.63"
           id="rect4349" />
        <path
           inkscape:connector-curvature="0"
           d="m 6041.936,-2700.745 0,-2.737 2.66,0 5.665,-29.272 3.224,0 6.243,29.272 2.148,0 0,2.737 -7.318,0 0,-2.737 1.977,0 -0.788,-4.486 -7.386,0 -0.57,4.486 1.977,0 0,2.737 z m 13.178,-10.416 -3.21,-15.672 -3.005,15.67 z m 195.58,230.095 0,2.737 -2.66,0 -5.665,29.273 -3.224,0 -6.243,-29.272 -2.148,0 0,-2.736 7.318,0 0,2.737 -1.977,0 0.788,4.487 7.385,0 0.57,-4.486 -1.977,0 0,-2.736 z m -13.178,10.416 3.208,15.67 3.007,-15.67 z"
           id="path4351" />
      </g>
      <path
         inkscape:connector-curvature="0"
         d="m 197.82,827.682 c 0.016,-2.026 -1.586,-2.065 -1.568,-0.586 -0.134,7.428 -6.417,11.086 -10.98,10.22 -7.037,-1.34 -9.282,-8.324 -9.215,-12.437 0.207,-12.697 12.988,-22.06 24.52,-38.335 8.45,14.69 22.397,26.23 23.223,37.585 1.097,15.098 -18.01,20.73 -20.737,3.133 -0.176,-1.243 -1.64,-1.8 -1.526,-0.065 0.414,4.823 -0.175,6.83 5.265,18.72 l -14.22,0 c 3.15,-5.555 5.024,-12.375 5.24,-18.236 z M 105.018,730.24 c 0.01,-0.87 -0.895,-0.464 -1.018,-0.19 -1.163,1.985 -2.864,2.448 -4.547,1.732 -1.668,-0.71 -2.605,-2.28 -2.454,-4.522 0.31,-3.438 3.034,-7.2 4.354,-9.327 1.252,-1.93 2.628,-4.222 4.076,-7.154 1.698,3.362 2.56,4.32 4.405,7.39 1.626,2.705 3.893,5.354 4.068,8.623 0,2.485 -1.046,4.832 -3.4,5.26 -1.33,0.24 -2.578,-0.442 -3.503,-2.037 -0.282,-0.407 -0.85,-0.195 -0.84,0.36 0.166,2.095 0.956,3.985 2.83,6.213 l -6.887,0 c 1.41,-1.577 2.85,-3.705 2.915,-6.35 z m 188.38,172.575 c 0.01,0.872 -0.895,0.465 -1.018,0.19 -1.163,-1.985 -2.864,-2.447 -4.548,-1.73 -1.667,0.708 -2.604,2.28 -2.453,4.52 0.31,3.44 3.034,7.2 4.354,9.327 1.252,1.93 2.627,4.222 4.076,7.154 1.697,-3.363 2.56,-4.32 4.405,-7.39 1.626,-2.706 3.893,-5.354 4.068,-8.624 0,-2.484 -1.046,-4.83 -3.4,-5.26 -1.33,-0.24 -2.578,0.443 -3.503,2.038 -0.282,0.406 -0.85,0.195 -0.84,-0.362 0.166,-2.093 0.956,-3.983 2.83,-6.212 l -6.887,0 c 1.41,1.576 2.85,3.704 2.915,6.35 z"
         id="path4353" />
      <path
         inkscape:connector-curvature="0"
         d="m 197.82,827.682 c 0.016,-2.026 -1.586,-2.065 -1.568,-0.586 -0.134,7.428 -6.417,11.086 -10.98,10.22 -7.037,-1.34 -9.282,-8.324 -9.215,-12.437 0.207,-12.697 12.988,-22.06 24.52,-38.335 8.45,14.69 22.397,26.23 23.223,37.585 1.097,15.098 -18.01,20.73 -20.737,3.133 -0.176,-1.243 -1.64,-1.8 -1.526,-0.065 0.414,4.823 -0.175,6.83 5.265,18.72 l -14.22,0 c 3.15,-5.555 5.024,-12.375 5.24,-18.236 z"
         id="path4355" />
    </g>
  </g>
</svg>
