<?xml version="1.0" encoding="UTF-8" standalone="no"?>
<!-- Created with Inkscape (http://www.inkscape.org/) -->

<svg
   xmlns:dc="http://purl.org/dc/elements/1.1/"
   xmlns:cc="http://creativecommons.org/ns#"
   xmlns:rdf="http://www.w3.org/1999/02/22-rdf-syntax-ns#"
   xmlns:svg="http://www.w3.org/2000/svg"
   xmlns="http://www.w3.org/2000/svg"
   xmlns:sodipodi="http://sodipodi.sourceforge.net/DTD/sodipodi-0.dtd"
   xmlns:inkscape="http://www.inkscape.org/namespaces/inkscape"
   width="63.281277mm"
   height="88.281372mm"
   viewBox="0 0 224.225 312.80801"
   id="svg17939"
   version="1.1"
   inkscape:version="0.91 r13725"
   sodipodi:docname="JD.svg">
  <defs
     id="defs17941" />
  <sodipodi:namedview
     id="base"
     pagecolor="#ffffff"
     bordercolor="#666666"
     borderopacity="1.0"
     inkscape:pageopacity="0.0"
     inkscape:pageshadow="2"
     inkscape:zoom="0.35"
     inkscape:cx="-580.0304"
     inkscape:cy="656.404"
     inkscape:document-units="px"
     inkscape:current-layer="layer1"
     showgrid="false"
     fit-margin-top="0"
     fit-margin-left="0"
     fit-margin-right="0"
     fit-margin-bottom="0"
     inkscape:window-width="1600"
     inkscape:window-height="838"
     inkscape:window-x="-8"
     inkscape:window-y="-8"
     inkscape:window-maximized="1" />
  <metadata
     id="metadata17944">
    <rdf:RDF>
      <cc:Work
         rdf:about="">
        <dc:format>image/svg+xml</dc:format>
        <dc:type
           rdf:resource="http://purl.org/dc/dcmitype/StillImage" />
        <dc:title></dc:title>
      </cc:Work>
    </rdf:RDF>
  </metadata>
  <g
     inkscape:label="Calque 1"
     inkscape:groupmode="layer"
     id="layer1"
     transform="translate(-296.45897,-875.9582)">
    <g
       transform="translate(-2023.4793,-96.781298)"
       id="g4551">
      <rect
         style="fill:#ffffff;stroke:#000000;stroke-width:0.99699998"
         width="223.228"
         height="311.811"
         x="6927.6138"
         y="-2435"
         rx="10.63"
         ry="10.63"
         transform="translate(-4607.177,3408.238)"
         id="rect4553" />
      <path
         style="fill:#131f67"
         inkscape:connector-curvature="0"
         d="m 2351.4,1261.25 -0.51,-263.006 163.134,0.308 0.204,262.594 z m 58.482,-219.153 c -5.834,-1.59 -5.693,4.204 -1.42,4.42 4.786,0.412 6.835,-7.745 4.55,-10.96 0,0 -1.99,6.144 -3.13,6.54 z m -37.857,32.762 -7.007,3.124 -0.028,5.23 c 2.922,-2.323 5.206,-5.158 7.035,-8.355 z m 47.824,157.157 c -1.38,-0.696 -3.042,-2.19 -2.787,-2.453 0.126,-0.13 0.873,0.105 1.55,0.41 5.476,2.307 9.727,2.158 16.256,-0.21 0.493,-0.18 1.23,0.76 0.956,1.28 -2.89,4.275 -12.248,2.755 -15.977,0.973 z m -2.888,-6.417 c -1.257,-1.89 0.41,-0.458 0.97,0.078 4.05,3.767 9.54,5.044 14.252,1.494 0.22,-0.243 0.248,-0.47 0.183,-0.64 -0.133,-0.347 -0.136,0.024 -2.15,0.723 -4.523,1.693 -8.334,0.302 -12.05,-2.542 -1.53,-1.18 -2.243,-1.76 -2.243,-2.07 0,-0.283 0.286,-0.46 0.8,-0.37 0.32,0.054 1.21,0.24 1.862,0.292 1.13,0.093 1.044,0.045 2.204,-0.49 2.478,-1.144 4.76,-1.562 7.35,-1.098 0.6,0.108 1.353,0.306 1.455,0.272 0.58,-0.195 -0.275,-0.96 -2.47,-2.7 -0.43,-0.34 -0.97,-0.634 -1.147,-0.932 -0.276,-0.46 0.025,-0.583 0.338,-0.58 0.902,0.01 4.957,3.4 6.347,5.412 0.422,0.612 0.715,0.677 0.716,1.314 -0.082,0.66 -0.188,1.293 0.527,2.218 0.513,0.664 1.01,1.732 1.014,1.783 0.01,0.058 -0.1,0.392 -0.57,0.083 -0.215,-0.04 -0.32,-0.27 -0.71,-0.212 -0.342,0.05 -0.897,0.317 -1.506,0.605 -5.68,3.655 -10.912,1.872 -15.172,-2.64 z m 12.445,-0.256 c 0.114,0.01 -0.392,-2.09 -0.964,-2.708 -1.128,-1.22 -2.848,-1.444 -3.888,-0.194 -0.585,0.703 -1.228,2.663 -1.228,2.663 0,0 0.91,0.27 1.166,0.27 0.036,-0.44 0.04,-1.668 0.943,-2.388 0.445,-0.35 1.404,-0.34 1.777,-0.05 0.742,0.365 1.055,1.837 1.065,2.41 0.405,0.126 1.34,0.012 1.13,0 z m -6.868,-3.026 c -0.802,0.357 -1.843,0.598 -2.082,1.134 -0.315,0.708 0.797,0.92 1.376,1.16 0.8,0.385 0.818,0.244 1.077,-0.373 0.163,-0.386 0.376,-0.888 0.58,-1.35 0.598,-1.157 0,-0.997 -0.95,-0.572 z m 8.666,2.01 c 0.46,-0.46 0.548,-0.765 0.136,-1.288 -0.186,-0.237 -0.717,-0.48 -1.295,-0.673 -0.742,-0.25 -1.066,-0.553 -0.6,0.452 l 0.665,1.436 c 0.342,0.688 0.642,0.505 1.094,0.072 z m -75.797,-49.053 c 0.28,0 3.077,-0.916 4.072,-1.36 0.986,-0.376 1.104,-0.365 0.712,-0.91 -0.147,-0.205 -0.266,-0.782 -0.195,-1.414 l 0.074,-0.88 c -1.723,-0.35 -4.296,0.603 -5.182,1.81 -0.63,0.77 -0.565,2.482 0.517,2.755 z m -0.352,4.3 c 0.524,0.524 0.67,0.543 2.24,-0.04 0.55,-0.37 1.7,-0.83 2.508,-0.882 1.893,-0.503 1.894,-0.304 1.358,-1.517 -0.247,-0.557 -0.328,-1.02 -0.25,-1.535 0.09,-0.61 0.164,-0.693 -0.18,-0.8 -0.906,-0.284 -5.118,1.29 -5.873,2.516 -0.53,0.862 -0.46,1.602 0.198,2.26 z m 98.917,37.21 c -0.275,0.41 -0.752,1.14 -0.953,1.634 -0.346,0.85 -0.136,1.012 0,2.682 0.08,0.968 0.1,2.47 0.104,3.28 0.01,1.546 -0.017,2.026 0.456,2.117 0.416,0.08 0.607,-0.234 0.807,-1.04 0.1,-0.403 0.34,-0.824 0.413,-1.08 0.297,-1.74 0.847,-4.644 2.1,-5.865 0.175,-0.144 0.685,-0.234 1.61,-0.246 1.134,-0.015 1.496,-0.047 1.847,-0.31 1.983,-1.734 0.42,-3.977 -1.35,-4.134 -2.048,-0.178 -4.872,2.65 -5.035,2.96 z m 7.87,-0.727 c 0.127,1.996 -1.862,3.356 -3.884,2.893 -0.818,-0.205 -1.065,-0.018 -1.614,1.152 -1.192,3.21 -1.664,6.427 -1.98,8.532 -0.137,1.894 -0.832,6.824 -0.33,8.395 5.764,7.12 11.832,14.474 18.475,21.805 l 39.512,0.054 0.24,-46.516 -11.477,-10.854 0.022,-17.205 c -12.284,5.788 -24.53,11.656 -36.792,17.494 2.672,8.568 -6.387,10.365 -8.374,4.62 -1.718,1.578 -3.128,10.085 -2.494,10.506 0,0 0.228,0.307 0.61,-0.37 0.626,-1.114 1.445,-1.935 2.322,-2.478 2.554,-1.58 5.593,-0.8 5.768,1.97 z m -31.447,-0.868 c -1.94,-1.54 -0.9,-3.892 0.71,-4.596 0.855,-0.374 2.224,-0.323 3.733,0.21 1.325,0.608 2.117,0.522 3.474,0.355 0.9,-0.1 0.734,1.785 -0.207,2.27 -0.663,0.344 -2.184,0.182 -4.033,-0.87 -3.19,-1.817 -4.59,0.537 -2.615,2.662 1.094,1.172 -0.78,0.234 -1.062,-0.032 z m -65.676,-28.173 c 1.705,-1.097 0.997,-3.033 -0.592,-3.357 -2.14,0.045 -2.683,2.5 -1.153,3.35 0,0.298 -0.76,0.054 -1.172,-0.253 -0.638,-0.478 -0.056,-2.345 -0.65,-2.42 -0.452,0.01 -4.87,1.57 -5.346,1.883 -1.986,1.126 -0.123,3.67 1.03,3.378 2.392,-0.604 5.644,-1.14 7.882,-2.58 z m -9.875,-3.633 c 0.04,1.132 0.358,1.636 1.102,1.646 1.553,-0.27 3,-1.01 4.45,-1.48 1.135,-0.372 1.595,-0.79 0.73,-1.5 -0.26,-0.298 -0.493,-0.728 -0.366,-1.545 0.297,-0.934 0.07,-0.98 -0.327,-1.026 -0.395,-0.047 -1.297,0.33 -3.61,1.22 -1.22,0.467 -1.454,0.67 -1.77,1.34 -0.14,0.513 -0.228,0.828 -0.21,1.344 z m 12.88,14.615 c 0.27,-0.315 0.863,-2.29 0.863,-2.777 -0.12,-0.812 -0.725,-0.996 -1.26,-0.472 -0.65,0.583 -0.475,1.463 -0.86,2.137 -0.136,0.234 -0.278,0.56 -0.24,0.69 0.21,0.71 1.084,0.84 1.498,0.422 z m 5.07,-10.746 c 19.8,-21.087 32.066,-50.268 10.608,-90.514 -2.407,-1.024 -3.15,2.887 -3.38,3.047 l -2.742,2.39 c 14.526,25.046 12.003,53.86 -5.757,74.346 l 0.02,1.3 c 0.04,2.86 0.865,2.738 2.07,1.4 1.273,-1.346 0.42,-0.25 -0.1,0.303 -0.45,0.476 -1.164,1.423 -1.354,1.67 0.233,1.716 1.314,4.916 0.634,6.058 z m -1.315,-6.336 c -0.204,-0.57 -0.42,-1.87 -0.53,-2.872 -0.07,-0.653 -0.097,-1.268 -0.13,-1.906 -0.21,-1.267 -0.728,-4.176 -1.148,-4.817 -0.453,-0.69 -1.56,-1.196 -2.795,-1.275 -1.056,-0.068 -1.144,-0.05 -1.37,0.294 -0.385,0.59 -0.12,3.57 0.272,4.66 0.442,1.28 0.183,1.977 -0.176,3.246 -0.125,0.46 -0.17,0.49 0.056,0.524 0.988,-0.07 1.317,-1.28 1.708,-0.92 0.13,0.132 -0.21,1.126 -0.672,2.13 -0.487,1.06 -0.632,2.522 -0.053,4.318 0.323,1.006 0.186,1.324 -0.01,1.93 -0.13,0.406 -0.36,1.65 -0.367,2.886 0.46,1.55 0.23,2.244 -0.042,2.756 -0.59,1.316 -1.044,3.098 -0.727,4.1 0.138,0.438 0.5,0.063 0.768,-0.69 0.415,-1.485 0.9,-1.816 2.12,-1.816 0.89,0 0.973,0.31 1.267,-0.087 0.667,-0.903 2.296,-4.1 2.327,-4.99 0.63,-2.273 0.66,-4.226 -0.5,-7.472 z m 9.47,14.927 c 0.537,-0.204 1.365,-1.342 1.365,-1.734 0,-0.432 -3.32,-3.66 -4.702,-4.55 -0.626,-0.405 -0.924,-0.12 -2.03,1.372 -0.985,1.324 -1.114,1.335 -0.93,1.59 0.22,0.307 3.602,2.507 4.725,3.13 0.39,0.217 1.047,0.392 1.57,0.193 z m 6.22,-5.746 c -0.494,-0.382 -4.468,-4.787 -5.647,-5.005 -0.448,-0.084 -1.885,1.553 -1.885,1.924 0,0.254 2.48,2.78 4.238,4.314 0.503,0.44 1.057,0.798 1.233,0.798 0.56,-0.287 1.992,-1.443 2.063,-2.033 z m 4.223,-4.157 c 0,-0.26 -0.438,-0.798 -1.508,-1.85 -2.725,-2.675 -4.243,-3.9 -4.72,-3.896 -0.523,0.173 -1.466,1.76 -1.523,2.314 0.178,0.332 4.736,4.466 5.326,4.867 0.73,0.703 2.323,-0.936 2.425,-1.434 z m 4.275,-4.268 c 0.116,-0.393 -0.112,-0.73 -0.69,-1.282 -0.408,-0.392 -1.86,-1.814 -3.23,-3.16 -2.865,-2.826 -2.87,-2.828 -3.792,-1.51 -0.948,1.36 -0.943,1.37 1.85,4.097 2.98,2.906 3.678,3.496 4.14,3.496 0.707,-0.327 1.477,-0.87 1.722,-1.64 z m -31.948,-2.55 c -0.5,-0.15 -0.958,-0.06 -1.35,0.252 -2.112,1.796 0.884,4.106 2.116,2.665 0.82,-0.81 0.786,-2.548 -0.766,-2.917 z m 36.334,-1.88 c 0,-0.3 -0.615,-0.974 -2.745,-3.008 -5.27,-5.03 -5.032,-4.84 -5.616,-4.527 -0.365,0.195 -1.073,1.548 -1.073,2.05 0,0.377 0.508,0.898 4.414,4.546 2.29,2.14 2.968,2.68 3.362,2.68 0.625,-0.31 1.633,-0.98 1.66,-1.74 z m -36.2,0.19 c 1.035,-0.45 1.228,-1.57 0.64,-2.455 -1.124,-0.992 -2.69,-0.173 -2.715,1.106 0.195,1.198 1.212,1.704 2.076,1.35 z m 40.53,-4.414 c 0,-0.6 -9.023,-9.038 -9.666,-9.038 -0.435,0 -0.748,0.353 -1.157,1.308 -0.356,0.83 -0.32,1.32 0.128,1.75 0.653,0.628 2.392,2.23 4.046,3.728 0.978,0.886 2.103,1.944 2.5,2.35 0.927,0.953 1.95,1.69 2.34,1.69 0.56,-0.326 1.336,-0.767 1.81,-1.787 z m -41.003,-1.087 c 0.01,-0.34 -0.078,-0.685 -0.32,-0.943 -0.62,-0.66 -1.772,-0.312 -2.06,0.562 -0.264,2.054 2.296,2.145 2.38,0.38 z m 6.684,-65.68 1.765,-5.397 5.392,-0.14 0.756,-5.363 5.55,-0.8 0.09,-5.542 5.31,-0.724 -0.33,-5.935 4.924,-1.164 -0.245,-5.495 4.473,-1.37 -0.18,-4.784 0.77,-0.603 -1.935,-1.968 -1.666,0.542 -0.03,4.916 -4.47,1.437 0.472,5.44 -4.516,1.03 -0.057,5.913 -5.188,0.583 -0.37,5.218 -5.062,0.997 -0.754,5.112 -4.912,0.334 -1.5,4.492 -3.244,0.038 0,3.007 z m 58.673,96.546 c -0.17,-0.406 0.273,-0.346 1.044,0.14 0.807,0.51 1.98,0.935 2.816,0.937 0.35,0 1.593,-0.22 2.765,-0.493 1.4,-0.514 2.644,-0.545 4.1,-0.23 1.08,0.146 2.17,0.263 2.42,0.26 0.723,0.102 1.948,-0.79 2.276,-1.35 0.89,-1.523 0.68,1.242 0.683,1.557 0.016,1.418 0.193,3.046 -0.82,2.288 -0.602,-0.31 -1.65,-0.586 -2.486,-0.027 -0.843,0.563 -1.54,0.683 -2.526,0.09 -0.81,-0.32 -1.237,-0.387 -1.843,0.176 -0.675,0.627 -2.313,0.403 -3.19,0.116 -1.51,-0.25 -2.353,-0.47 -3.364,0.33 -0.54,0.31 -0.678,0.08 -1.084,-1.117 -0.407,-1.195 -0.728,-2.528 -0.79,-2.676 z m 3.84,-1 c -0.097,-0.155 0.713,-0.948 1.26,-1.23 1.604,-0.83 4.792,-0.794 7.072,0.05 1.188,0.438 1.37,1.19 0.215,1.03 -2.405,-0.504 -5.423,-0.92 -7.748,0.188 -0.183,0.097 -0.756,0.034 -0.8,-0.038 z m 2.034,-3.758 c -1.645,-0.61 -2.452,-1.26 -2.452,-1.467 0,-0.223 0.352,-0.182 1.646,0.17 1.762,0.655 3.845,1 5.583,0.39 1.25,-0.462 1.875,-0.754 1.875,-0.476 0,0.293 -0.516,1.058 -1.375,1.5 -1.71,0.696 -3.966,0.365 -5.276,-0.118 z m 35.708,-4.57 1.22,-0.167 -0.423,-5.094 4.496,-1.334 -0.316,-5.067 4.793,-1.65 -0.286,-5.703 4.98,-0.98 0.65,-4.992 4.702,-0.334 0.973,-5.43 5.05,-0.173 1.04,-4.513 3.362,-0.02 -0.015,-2.536 -5.235,0.016 -1.108,4.885 -4.94,0.14 -1.05,5.367 -5.18,-0.038 -0.662,5.783 -4.872,0.798 0,6.23 -4.7,1.218 0.364,5.325 -4.692,1.712 0.53,5.082 z m 31.396,-119.54 c -0.672,0.48 -0.926,1.427 -0.718,2.2 0.662,1.746 2.99,1.2 3.266,-0.07 0.138,-0.55 -0.228,-1.383 -0.864,-1.564 -0.11,-0.032 -0.506,0.01 -0.712,-0.207 -0.15,-0.152 0.777,-0.627 1.323,-0.447 0.682,0.225 1.24,1.127 1.24,1.907 0,0.303 -0.085,0.75 0.025,0.902 1.127,-0.028 2.417,-0.648 3.624,-0.982 2.04,-0.566 2.78,-1.736 2.326,-3.107 -0.377,-1.143 -1.546,-1.596 -3.082,-1.018 -2.11,0.794 -4.584,1.173 -6.428,2.387 z m -87.13,125.074 c 6.912,-4.855 10.982,-7.63 19.85,-8.11 -3.163,-1.3 -3.68,-3.01 -4.57,-4.647 -10.988,1.038 -16.822,4.547 -22.042,7.822 2.157,1.016 4.41,2.197 6.763,4.934 z m 38.523,-6.734 c -3.35,-2.368 -7.34,-3.8 -11.475,-4.906 l -3.17,3.285 c -0.186,-0.116 9.18,0.096 14.646,1.622 z m 32.177,-31.164 c -21.614,-33.213 -7.095,-62.438 7.934,-81.06 0.484,-0.612 0.6,-0.643 0.492,-1.13 -0.143,-0.64 -0.32,-3.867 -0.21,-5.732 -27.78,27.532 -28.493,63.4 -11.068,91.867 1.246,-1.113 3.758,-2.596 2.853,-3.945 z m 3.24,-2.842 c -3.547,-5.908 -22.444,-37.9 6.42,-73.592 0,0 -0.1,-1.82 -0.315,-2.503 -0.387,-1.225 -0.99,-1.72 -0.99,-1.72 -12.123,18.2 -29.742,40.97 -7.736,80.516 z M 2472,1098.05 c 0.432,-0.352 1.06,-1.632 1.06,-2.16 0,-0.472 -0.34,-0.866 -3.597,-4.17 -4.34,-4.403 -5.09,-5.077 -5.645,-5.077 -0.525,0 -1.895,1.3 -1.895,1.797 0,0.24 1.277,1.615 4.292,4.624 5.594,5.585 5.33,5.357 5.785,4.986 z m 3.998,-8.11 c 0,-0.266 -0.402,-0.792 -1.353,-1.77 -2.51,-2.584 -6.088,-5.858 -6.403,-5.858 -0.4,0 -1.495,0.886 -1.782,1.443 -0.203,0.39 -0.2,0.48 0.038,0.85 0.444,0.692 6.043,6.006 7.634,7.343 0.955,0.878 1.82,-1.34 1.866,-2.008 z m 2.164,-3.296 c 0.443,-0.237 1.284,-1.81 1.183,-2.212 -0.048,-0.188 -1.468,-1.716 -3.156,-3.396 -3.34,-3.325 -3.534,-3.445 -4.366,-2.7 -0.754,0.674 -1.226,1.35 -1.133,1.62 0.114,0.332 5.114,5.414 6.136,6.238 0.808,0.65 0.902,0.682 1.338,0.45 z m 25.487,-0.246 c 1.57,-1.506 -0.208,-3.16 -1.5,-2.397 -0.55,0.34 -0.878,1.082 -0.71,1.574 0.28,0.818 1.388,1.264 2.21,0.824 z m 3.11,-0.384 c 2.656,-0.697 3.93,-1.164 4.485,-1.992 0.385,-0.573 0.43,-0.926 -0.01,-1.86 -0.4,-0.863 -0.866,-1.127 -2.53,-0.215 -1.144,0.626 -3.69,0.926 -4.58,1.45 -0.355,0.308 -0.18,0.305 0.105,0.487 0.64,0.406 0.954,0.683 0.884,1.222 -0.153,1.17 -0.032,1.35 1.64,0.906 z m -2.813,-4.165 c 1.29,-0.66 1.03,-2.252 -0.412,-2.884 -1.902,-0.5 -3.126,1.788 -1.57,2.903 0.417,0.29 1.476,0.24 1.982,-0.02 z m 4.287,-0.644 c 1.865,-0.64 2.582,-1.14 3.12,-2.17 0.427,-0.818 0.245,-1.183 0.19,-1.973 -0.087,-1.197 -0.69,-1.06 -2.427,-0.434 -0.85,0.327 -4.91,1.47 -4.967,1.886 1.96,1.12 1.46,1.712 1.476,3.142 0.103,0.325 1.023,0.09 2.608,-0.452 z m -25.43,-1.907 c 0,-0.542 -5.21,-5.647 -5.763,-5.647 -0.86,0 -2.093,1.34 -1.91,2.073 0.085,0.333 4.973,5.252 5.583,5.617 0.854,0.5 2.038,-1.23 2.092,-2.044 z m 2.997,-3.183 c 0.226,-0.177 0.624,-0.634 0.887,-1.016 0.562,-0.815 0.522,-1.27 -0.15,-1.7 -0.246,-0.16 -1.338,-1.148 -2.43,-2.2 -1.09,-1.05 -2.12,-1.962 -2.293,-2.025 -0.898,-0.12 -2.522,1.32 -2.354,2.056 0.097,0.387 4.092,4.32 4.983,4.91 0.576,0.378 0.853,0.374 1.358,-0.023 z m 7.06,-7.604 c 0,-0.146 -0.908,-0.73 -2.36,-1.518 -4.438,-2.412 -4.514,-2.43 -5.902,-1.3 -0.475,0.39 -0.865,0.83 -0.865,0.982 0,0.155 0.962,1.187 2.19,2.347 2.544,2.408 3.17,2.928 3.525,2.928 0.734,-0.54 3.298,-2.77 3.41,-3.44 z m 6.212,-2.267 c 0.548,-0.656 1.164,-2.93 0.87,-3.39 -0.268,-0.268 -0.96,-0.226 -1.292,0.074 -0.342,0.31 -1.186,3.167 -1.056,3.506 0.132,0.345 1.003,0.184 1.478,-0.19 z m -48.49,96.802 c 0.42,-0.057 1.243,-0.57 2.44,-1.598 1.278,-1.098 5.33,-3.54 5.77,-4.524 0.195,-0.56 0.052,-1.36 -0.37,-1.42 -0.32,-0.047 -0.39,0.198 -3.083,2.14 -1.817,1.31 -5.01,3.65 -5.49,4.146 -0.207,0.53 0.263,1.2 0.733,1.256 z m -0.376,15.643 c 2.772,-1.922 5.018,-3.915 8.632,-6.142 0.28,-0.368 0.322,-0.916 0.152,-1.364 -0.21,-0.554 -0.502,-0.335 -1.596,0.424 -2.664,1.795 -5.404,3.91 -7.7,5.477 -0.735,0.498 -1.355,0.774 -1.2,1.054 0.207,0.37 1.345,0.484 1.712,0.55 z m 2.695,1.182 c 1.825,-1.492 4.007,-2.916 5.954,-4.358 0.272,-0.272 0.343,-1.19 0.063,-1.565 -0.22,-0.298 -0.038,-0.243 -0.577,0.063 -0.788,0.447 -5.504,3.662 -6.382,4.39 -0.512,0.422 -0.94,0.634 -0.812,0.782 0.59,0.38 1.215,0.613 1.755,0.687 z m 2.293,1.155 c 0.377,-0.252 3.618,-2.324 3.88,-2.6 0.298,-0.315 0.21,-1.725 -0.08,-1.836 -0.818,0.652 -5.14,3.285 -5.15,3.71 0.44,0.395 1.023,0.76 1.35,0.727 z m 3.466,0.29 c 0.497,-0.457 0.596,-0.535 0.607,-1.046 0.02,-0.925 -0.21,-0.886 -1.53,0.058 -0.923,0.596 -1.484,1.015 -1.318,1.373 0.654,1.026 1.583,0.217 2.24,-0.384 z m 0.356,1.89 c 0.26,-0.095 0.26,-0.23 0.224,-0.552 -0.042,-0.36 -0.094,-0.345 -0.486,-0.345 -1.05,0.04 -0.103,0.99 0.262,0.897 z m -12.62,-5.182 c 0.477,-1.573 1.144,-2.817 2.235,-3.996 4.36,-3.864 3.03,-8.62 0.276,-12.492 3.562,-4.987 7.12,-10.27 10.18,-15.112 l -0.01,-7.87 0.41,0.043 c -0.142,17.175 0.642,45.337 0.642,45.337 l 3.542,2.7 -0.477,0.238 c 0.582,-0.092 -10.312,-6.912 -16.797,-8.85 z m 3.202,-1.96 c 3.015,-2.277 5.95,-4.067 8.94,-6.49 0.317,-0.262 0.505,-0.277 0.514,-0.872 0.017,-1.134 -0.21,-1.145 -1.327,-0.345 -0.495,0.354 -2.308,1.622 -4.03,2.784 -1.796,1.212 -3.46,2.29 -3.794,2.678 -1.682,1.95 -2.303,2.87 -2.13,3.15 0.18,0.29 0.52,-0.025 1.828,-0.906 z m 3.29,-5.517 c 1.548,-1.02 5.256,-3.594 5.593,-3.912 0.59,-0.552 0.692,-1.432 0.16,-1.533 -0.258,-0.05 -3.128,1.864 -5.553,3.703 -1.18,0.895 -1.443,1.102 -1.443,1.945 0,0.512 0.31,0.413 1.243,-0.202 z m 1.544,-4.008 c 4.75,-3.378 4.63,-3.092 4.526,-4.35 -0.035,-0.425 -0.13,-0.618 -0.318,-0.654 -0.148,-0.028 -0.987,0.575 -1.933,1.24 -0.945,0.666 -2.072,1.56 -2.638,1.95 -1.652,1.147 -2.2,1.456 -2.2,2.112 0,0.648 0.176,1.056 0.462,1.056 0.108,0 1.053,-0.61 2.1,-1.354 z m -0.682,-2.616 c 2.19,-1.546 4.6,-3.29 4.928,-3.704 0.4,-0.503 0.328,-1.597 -0.18,-1.597 -2.197,1.467 -4.84,3.396 -6.698,4.92 -0.24,0.21 -0.546,0.414 -0.642,0.69 -0.02,0.358 0.43,0.83 0.61,0.845 0.362,0 0.92,-0.403 1.982,-1.154 z m -1.425,-5.23 c 1.67,-1.133 3.19,-2.478 4.85,-3.62 1.247,-0.853 1.6,-1.117 1.526,-2.19 -0.042,-0.62 -0.586,-0.263 -2.698,1.144 -1.547,1.03 -2.26,1.44 -2.808,2.144 -0.385,0.89 -1.655,1.726 -1.722,2.744 0,0.378 0.25,0.2 0.853,-0.223 z m 5.13,-6.805 c 1.284,-0.85 1.405,-0.87 1.266,-2 -0.173,-1.413 -0.318,-1.33 -1.545,0.544 -0.806,1.23 -1.083,1.588 -0.96,1.817 0.21,0.392 0.44,0.17 1.24,-0.36 z m -4.674,-10.4 c -0.135,-0.63 -0.328,-0.493 -0.974,0.074 -1.19,1.044 -1.376,1.8 -0.636,2.196 0.393,0.21 0.698,0.186 0.932,-0.33 0.504,-1.11 0.645,-1.503 0.68,-1.94 z m -6.658,9.88 c -0.153,-0.574 -0.855,-1.356 -1.39,-1.632 -0.528,-0.274 -0.85,-0.223 -1.356,0.42 -0.466,0.593 -0.25,0.945 0.452,1.832 0.513,0.65 0.72,0.855 1.125,0.855 0.49,-0.192 1.272,-0.85 1.17,-1.474 z m -25.77,24.777 c -0.34,-0.656 -1.06,-1.348 -1.392,-1.232 -0.35,0.122 -0.69,0.624 -0.695,0.94 0.145,0.643 0.688,1.08 1.106,1.092 0.79,-0.112 1.268,-0.25 0.98,-0.8 z m 3.14,-1 c -0.678,-0.715 -2.02,-2.294 -2.24,-2.294 -0.342,0 -1.162,0.86 -1.162,1.213 0,0.417 1.222,2.128 1.63,2.265 1.026,-0.095 2.913,0.02 1.773,-1.182 z m 3.88,0.202 c -0.07,-0.347 -3.89,-4.408 -4.173,-4.408 -0.366,0 -1.085,0.8 -1.085,1.168 0,0.296 1.233,1.905 2.374,3.097 0.566,0.592 0.617,0.678 1.312,0.57 0.758,-0.12 1.747,0.045 1.57,-0.428 z m 6.75,-0.908 c 0,-0.82 -0.428,-1.27 -2.153,-3.136 -0.627,-0.677 -1.685,-1.854 -2.35,-2.615 -1.29,-1.47 -1.843,-1.922 -2.357,-1.923 -0.405,0 -1.027,0.657 -1.027,1.076 0,0.27 3.175,3.91 6.05,7 0.64,0.685 0.925,0.885 1.537,0.56 0.352,-0.24 0.3,-0.647 0.3,-0.96 z m -4.97,-9.752 c -0.646,0.53 -0.886,0.747 -0.89,1.1 0,0.54 5.477,6.562 5.965,6.562 0.287,0 0.243,-0.04 0.413,-0.687 0.34,-1.965 -0.195,-2.542 -1.615,-3.838 -0.953,-0.87 -2.873,-3.86 -3.874,-3.137 z m 9.664,-4.03 c -1.53,-1.828 -2.376,-2.67 -2.686,-2.67 -0.213,0 -0.53,0.205 -0.874,0.585 -0.572,0.54 -0.517,0.522 -0.155,1.166 0.19,0.335 0.715,0.993 1.17,1.463 0.843,0.87 1.274,1.146 1.68,0.73 0.36,-0.37 1.248,-0.806 0.866,-1.272 z m -0.798,-4.563 c -0.373,0 -1,0.668 -1,1.034 0,0.31 1.24,1.866 2.107,2.64 0.7,0.628 1.03,0.797 1.517,0.383 0.365,-0.528 0.282,-1.012 0.055,-1.415 -0.62,-0.706 -1.974,-2.61 -2.68,-2.64 z m 4.3,0.448 c -0.01,-0.533 -1.575,-2.57 -2.07,-2.772 -0.413,0 -1.288,0.96 -1.288,1.402 0,0.238 0.335,0.767 0.903,1.426 1.118,1.298 1.404,1.583 1.648,1.38 0.4,-0.33 0.817,-0.912 0.808,-1.435 z m 1.766,-2.292 c 0.104,-0.447 -0.173,-0.908 -0.798,-1.693 -0.782,-0.982 -1.166,-1.048 -1.902,-0.287 -0.272,0.28 -0.4,0.525 -0.4,0.66 0,0.376 1.64,2.46 1.945,2.46 0.703,-0.087 0.918,-0.6 1.154,-1.14 z m -2.884,5.16 c -0.147,0.674 -0.43,1.113 -1.08,1.425 -5.006,3.608 -4.844,9.486 -5.913,14.913 -8.107,-0.08 -20.923,3.245 -20.844,3.42 l 43.083,-43.463 c 0,0 0.535,0.133 0.208,0.514 -3.487,2.507 -3.27,7.38 -5.563,9.822 -3.83,4.63 -7.39,8.647 -9.89,13.372 z m -23.385,17.754 c 0.07,-0.492 -0.382,-0.625 -0.777,-0.23 -0.387,0.387 -0.234,0.69 0.317,0.626 0.29,-0.034 0.425,-0.15 0.46,-0.396 z m 13.278,-1.827 c 0.158,-0.413 -0.22,-0.8 -2.528,-3.362 -2.338,-2.594 -2.868,-3.202 -3.272,-3.202 -0.344,0 -1.18,0.85 -1.18,1.198 0,0.16 0.367,0.685 0.816,1.168 0.448,0.483 1.3,1.43 1.893,2.107 1.022,1.164 1.507,1.726 1.896,1.998 0.38,0.266 0.67,0.252 1.28,0.252 0.84,0 1.02,0.028 1.093,-0.16 z m 3.994,-8.156 c 0.16,-0.51 0.385,-0.96 0.386,-1.152 0,-0.357 -2.948,-3.365 -3.447,-3.688 -0.598,-0.386 -1.72,0.875 -1.44,1.61 0.076,0.205 0.954,1.237 1.95,2.296 1.266,1.346 1.9,1.98 2.104,1.948 0.21,-0.032 0.24,-0.35 0.447,-1.014 z m 1.234,-3.16 c 0.217,-0.318 0.393,-0.738 0.393,-0.932 0,-0.22 -0.494,-0.82 -1.2,-1.614 -1.316,-1.48 -1.654,-1.65 -2.375,-0.96 -0.717,0.688 -0.474,1.006 0.787,2.435 1.58,1.79 1.76,2.007 2.396,1.07 z m 11.284,-14.13 c 0.49,-0.583 0.5,-0.872 0.052,-1.405 l -0.617,-0.736 c -0.407,-0.485 -0.942,-0.405 -1.495,0.224 -0.264,0.3 -0.438,0.604 -0.438,0.708 0,0.103 0.285,0.518 0.63,0.922 0.78,0.91 1.26,1.007 1.867,0.287 z m 1.728,-2.23 c 0.334,-0.51 0.184,-1.07 -0.44,-1.64 -0.592,-0.54 -0.886,-0.562 -1.302,-0.1 -0.555,0.617 -0.466,0.823 0.13,1.484 0.676,0.747 1.218,0.86 1.612,0.257 z m 1.386,-1.85 c 0.462,-0.46 0.453,-0.856 0.04,-1.382 -0.39,-0.493 -0.79,-0.627 -1.198,-0.408 -0.71,0.38 -0.635,1.032 0.064,1.768 0.424,0.446 0.623,0.494 1.094,0.023 z m -32.965,92.71 c 8.823,0.988 18.302,1.68 35.013,-0.918 l 0.084,-5.67 c -5.212,4.064 -12.054,1.278 -12.448,-3.4 -0.047,-4.17 1.067,-8.98 2.005,-12.41 0.7,-2.55 0.898,-3.533 0.244,-4.03 -1.44,-0.812 -4,-0.914 -4.652,-2.608 -0.314,-0.894 -0.343,-1.85 0.115,-1.17 0.21,0.314 1.874,1.088 3.174,1.378 2.263,0.505 2.627,0.674 2.883,1.603 0.162,0.586 -0.21,2.61 -0.807,4.44 -0.427,1.307 -0.925,3.408 -0.925,3.814 0,0.443 0.347,0.515 0.736,0.392 0.167,-0.053 0.963,-0.85 1.463,-1.296 2.174,-1.94 2.805,-1.882 0.948,0.016 -0.738,0.754 -1.757,1.795 -1.757,1.874 0,0.402 0.378,0.356 1.212,0.055 1.286,-0.464 4.3,-0.41 5.64,0.265 1.668,0.838 1.738,0.8 1.7,-1.738 -0.3,-4.745 -1.073,-10.358 -2.62,-14.74 -2.356,-6.68 -7.253,-12.88 -14.487,-12.6 -8.817,0.46 -14.138,3.97 -20.137,8.176 3.623,8.038 -1.613,14.195 -3.51,15.008 -0.183,0.078 2.374,8.17 3.466,12.282 0.993,3.734 2.66,11.276 2.66,11.276 z m 37.536,-193.873 c -0.206,-0.528 -5.11,-16.513 -6.483,-23.198 -13.26,-0.772 -23.067,-1.873 -34.743,1.442 0,0 -0.254,4.504 -0.13,4.723 0.117,0.556 0.52,0.543 0.848,0.36 5.393,-2.963 11.238,-1.628 11.644,5.68 0.155,2.79 -0.783,4.758 -0.954,7.405 -0.15,2.312 -1.968,5.393 -0.866,7.15 0.142,0.216 0.918,0.64 1.98,1.096 1.98,0.847 2.756,1.626 2.9,2.92 0.217,0.894 -0.33,1.494 -0.494,0.576 -0.105,-0.582 -0.207,-1.095 -2.652,-1.932 -2.382,-0.816 -3.025,-1.762 -3.262,-2.26 -0.328,-0.687 -0.266,-1.174 0.04,-2.268 0.652,-2.33 1.296,-4.707 1.236,-5.83 -0.02,-0.402 -0.468,-0.206 -1.04,0.28 -0.727,0.618 -3.833,2.664 -3.92,2.576 -0.04,-0.04 0.512,-0.865 1.382,-1.696 1.055,-1.01 2.368,-2.23 2.368,-2.455 0,-0.398 -0.155,-0.122 -1.178,0.18 -1.783,0.493 -3.837,0.422 -5.22,-0.188 -1.17,-0.516 -1.992,-0.815 -2.166,-0.533 -0.434,7.118 0.623,14.456 3.61,20.18 2.675,5.202 8.236,11.715 16.6,10.253 8.64,-1.51 17.045,-8.46 16.743,-8.468 -3.224,-7.3 0.45,-12.738 3.756,-15.994 z m -68.493,194.347 c -3.83,-3.834 -13.48,-8.005 -20.112,-9.92 -0.53,-0.114 -1.054,-0.366 -1.057,0.262 l -0.08,13.158 -11.852,11.11 0.21,5.42 25.147,-0.122 16.695,-24.476 c 0,0 0.805,-0.144 0.894,-0.294 -3.065,-12.998 -7.68,-23.378 -10.61,-28.58 0.048,0.063 -4.216,3.444 -7.966,-0.76 -2.104,-2.358 -0.813,-6.5 1.184,-8.018 -1.685,-1.24 -5.175,-3.485 -7.463,-4.134 -0.475,-0.116 -1.185,0.847 -1.417,1.718 -0.418,1.416 -1.113,2.682 -1.58,4.11 -0.513,1.192 -1.007,1.372 -1.773,1.037 -1.192,-0.355 -1.508,-0.478 -1.508,-0.478 l 0.038,15.47 c 9.15,3.174 18.567,11.308 21.25,24.495 z m 38.03,-165.318 2.712,-2.946 c -4.29,-0.526 -8.787,-1.292 -14.047,-2.944 3.653,2.715 7.478,4.396 11.335,5.89 z m -14.897,-8.284 c 4.78,1.594 10.83,5.31 18.382,3.912 -6.885,-2.732 -12.113,-9.113 -14.34,-22.105 -0.487,2.52 -1.495,7.765 -3.08,8.333 -2.228,-8.622 -11.186,-3.608 -7.594,3.424 -9.08,6.238 -19.994,9.757 -29.895,14.568 0,0 -1.49,4.574 -8.906,10.84 -1.4,-7.346 0.268,-18.245 -0.6,-25.625 l -11.627,-10.98 c 0.178,2.09 0.097,3.388 0,5.837 0.32,0.426 0.76,0.65 1.208,0.917 0.75,42.316 -0.26,84.146 -0.25,122.58 -0.115,23.555 0.508,48.097 0.163,70.336 l -0.435,0.804 0.02,5.316 11.87,-11.304 c 0,0 -0.552,-8.022 0.07,-14.15 7.493,1.508 14.48,5.028 20.745,8.89 0.79,0.218 -3.845,-15.4 -20.693,-22.337 0,0 -0.023,-4.88 -0.022,-15.484 0,-10.23 -0.16,-11.314 -0.387,-11.48 -0.682,0.74 -9.304,3.646 -9.74,3.155 0.23,0.077 -2.433,-18.11 -0.13,-20.87 l 8.247,0.173 c 2.36,1.904 1.412,-0.415 2.78,-0.797 0.823,-0.22 4.637,1.266 4.637,1.266 15.72,-18.556 14.15,-49.074 2.868,-66.244 -2.89,2.347 -5.963,5.528 -8.86,6.893 -0.035,-0.1 -0.053,-9.467 -0.053,-9.467 15.02,-9.64 31.36,-37.57 30.317,-37.663 0,0 4.65,4.53 6.455,7.09 l -14.827,21.476 c 3.396,6.84 6.832,13.04 9.06,19.055 0.302,0.813 1.23,0.79 1.465,1.646 0.2,0.733 -0.693,1.75 -0.57,2.556 3.13,11.967 3.84,24.666 0.752,36.17 -0.65,2.59 0.542,4.69 2.135,6.636 0.132,0.17 -1.485,-1.4 -1.63,-1.486 -0.554,-0.333 -1.478,0.835 -1.673,2.31 0.127,0.902 0.618,1.06 1.267,1.793 1.145,0.95 5.69,5.427 7.693,7.47 1.778,1.817 2.238,1.9 3.436,0.61 0.34,-0.314 0.69,-0.744 1.017,-1.012 0.062,0.1 0.505,-0.362 0.656,-0.51 l 26.777,-26.136 c 3.11,-3.035 -26.738,27.424 -26.738,27.424 0,0 -14.474,14.21 -18.025,17.713 -3.667,3.617 -4.162,4.41 -4.31,4.678 -0.26,0.48 1.184,0.466 1.84,0.37 0.053,-0.01 -0.55,0.138 -1.162,0.134 -3.77,-0.843 -5.054,3.324 -7.43,4.163 -6.287,4.465 -2.06,11.634 3.947,9.267 l 1.463,-0.704 c 3.64,6.762 8.892,19.08 11.357,29.786 l -0.994,0.46 -15.837,23.76 89.823,0 c -6.452,-6.424 -11.94,-14.31 -17.53,-20.213 -8.957,2.68 -36.044,2.134 -35.616,0.97 0,0 -4.102,-16.604 -6.42,-24.76 7.363,-6.308 6.608,-16.257 -4.082,-20.723 7.783,-6.144 15.616,-8.226 23.254,-8.725 2.48,6.3 8.305,6.697 11.054,0.928 0.02,-0.064 10.33,3.17 14.13,6.67 -5.637,-0.584 -11.203,-1.706 -16.843,-1.976 4.964,1.96 10.02,7.08 11.638,12.935 0.794,2.09 2.006,8.993 2.327,9.018 0,0 1.88,-7.973 3.34,-7.534 3.72,7.763 10.134,1.924 7.432,-4.26 9.474,-4.523 20.134,-9.574 28.85,-13.766 2.544,-3.835 8.8,-11.12 9.21,-11.152 0,0 11.504,-65.908 11.502,-87.94 -0.382,-26.49 0.53,-55.974 -0.61,-80.75 l -0.012,-7.12 -24.298,0.01 -17.347,25.51 c 0,0 -0.13,0.403 -0.128,0.58 2.368,10.29 5.405,19.05 10.17,28.558 6.578,-4.967 12.12,3.213 7.188,7.963 -0.926,0.89 -0.678,1.116 0.25,1.737 0.912,0.612 7.154,3.752 7.445,3.752 1.13,-1.677 1.456,-4.154 2.217,-6.046 0.192,-0.72 0.736,-0.81 1.824,-0.68 1.4,0.163 1.392,0.744 1.345,-8.15 l -0.04,-7.642 c -8.433,-3.883 -19.598,-13.758 -20.12,-24.028 4.877,3.547 16.08,8.705 19.072,9.167 1.314,0.367 1.112,-1.923 1.153,-2.842 0.356,0.238 0.485,3.776 0.485,3.776 -4.95,-1.495 -7.543,-1.19 -19.896,-8.348 2.118,10.1 12.233,18.068 19.568,21.7 0,0 0.307,4.798 0.29,10.172 -0.046,16.39 0.118,17.112 0.118,17.112 0,-0.01 4.037,-1.03 5.157,-1.585 2,-1.602 5.21,-0.373 5.652,0.808 0.65,6.185 0.025,11.92 -0.112,17.827 -3.42,0.244 -5.292,0.963 -6.978,1.032 -1.096,-0.147 -1.763,-0.154 -2.323,-0.777 -1.633,-3.527 -1.527,-1.29 -1.725,1.358 -0.15,0.784 -4.237,-0.58 -4.645,-0.816 -17.65,20.318 -16.147,43.71 -4.16,65.372 1.98,-1.336 5.39,-3.887 8.8,-5.562 0.083,2.756 0.13,8.43 0.13,8.43 -13.818,10.137 -30.366,36.996 -29.807,37.07 l -5.613,-6.702 c 0,0 3.533,-5.618 4.78,-7.103 0.144,-0.17 0.237,-1.913 0.237,-1.913 l 8.578,-12.404 c -3.88,-6.87 -6.528,-12.746 -9.288,-19.503 -0.156,-0.565 -0.83,-2.994 -0.682,-3.224 -5.723,-25.857 0.478,-38.72 0.02,-39.698 0,0 -0.075,-0.518 -0.196,-0.62 -0.188,-0.154 0.048,-0.304 0.26,-0.673 0.407,-0.716 1.057,-2.186 0.835,-2.62 -0.164,-0.322 -4.805,-4.963 -8.784,-8.784 -2.093,-2.01 -2.01,-2.24 -3.09,-1.143 -0.402,0.407 -1.388,1.566 -1.388,1.566 -14.377,13.302 -25.786,25.414 -40.214,39.573 l -0.692,-0.63 c 20.988,-20.86 42.17,-41.512 62.954,-62.575 l -3.656,0.062 c 0.104,-0.265 0.256,-0.512 0.468,-0.584 1.96,0 3.976,-0.592 5.432,-1.42 2.965,-2.202 7.22,-5.15 7.554,-8.055 -0.214,-5.59 -4.93,-6.4 -8.334,-3.666 -4.733,-8.5 -8.48,-18.728 -10.486,-28.276 -0.095,-0.474 -0.762,-1.29 -0.862,-1.832 1.014,-3.17 17.087,-25.074 17.087,-25.074 l -90.264,0 17.18,20.456 c 0,-0.816 24.482,-3.707 35.695,-0.293 l 6.828,24.257 c -6.203,5.997 -8.036,15.86 3.372,20.994 0.222,0.48 -1.08,1.272 -1.08,1.272 0.18,-0.296 0.496,-0.602 0.368,-0.874 -3.075,-1.344 -6.368,-4.747 -6.368,-4.747 -6.863,5.362 -13.28,8.347 -19.563,8.612 0,0 3.318,2.248 3.96,4.72 0,0 -0.31,-0.038 -0.39,-0.137 -0.68,-0.833 -2.246,-3.525 -3.566,-4.32 -2.237,-0.535 -3.56,-0.145 -5.326,1.072 l -2.39,2.31 c -5.484,-1.67 -11.575,-4.397 -14.93,-8.54 z m -0.918,59.368 2.503,-2.47 c 0.286,-1.832 0.783,-4.163 2.898,-6.7 2.346,-2.816 4.94,-5.463 6.848,-7.97 2.295,-3.01 3.54,-5.736 2.937,-7 3.418,-0.615 6.556,-3.63 6.656,-9.107 0.04,-2.876 1.428,-7.07 1.533,-7.013 0,0 23.858,-0.812 40.27,-16.458 0,0 1.15,0.25 0.88,0.458 -6.218,6.23 -12.83,10.82 -20.648,13.745 l -43.114,43.064 z m 4.773,-4.94 c 0.645,-0.646 0.79,-0.857 0.425,-1.16 -0.556,-0.46 -1.626,0.492 -1.626,1.448 0,0.608 0.482,0.43 1.2,-0.29 z m 2.232,-2.195 c 0.513,-0.492 0.494,-0.85 0.07,-1.274 -0.582,-0.582 -1.43,-0.224 -1.715,0.716 -0.287,0.947 0.84,1.328 1.645,0.557 z m 1.965,-1.99 c 0.264,-0.3 0.48,-0.607 0.48,-0.683 0,-0.333 -0.823,-1.09 -1.186,-1.09 -0.463,0 -1.29,0.778 -1.29,1.213 0,0.363 0.83,1.108 1.234,1.108 0.155,0 0.498,-0.246 0.762,-0.547 z m 1.852,-3.7 c -0.587,-0.492 -0.973,-0.496 -1.457,-0.012 -0.562,0.562 -0.504,1.18 0.168,1.77 0.51,0.53 0.728,0.48 1.418,0.054 0.578,-0.59 0.682,-1.143 -0.13,-1.81 z m 2.173,-0.328 c 0.635,-0.534 0.544,-0.973 -0.147,-1.664 -0.728,-0.728 -1.29,-0.734 -1.808,0.037 -0.194,0.29 -0.23,0.58 -0.23,0.662 0,0.282 1.2,1.35 1.517,1.35 0.173,0 0.406,-0.165 0.667,-0.385 z m 2.09,-2.065 c 0.54,-0.562 0.47,-0.965 -0.302,-1.76 -0.65,-0.67 -1.103,-0.72 -1.676,-0.19 -0.593,0.55 -0.47,1.128 0.198,1.796 0.677,0.677 1.18,0.782 1.78,0.154 z m 2.37,-2.397 c 0.395,-0.418 0.288,-0.385 0.01,-0.84 -0.433,-0.7 -1.7,-1.863 -2.06,-1.863 -0.452,0 -0.848,0.724 -0.845,1.438 0,0.71 0.35,0.998 1.25,1.706 0.597,0.472 0.414,0.514 0.874,0.245 0.256,-0.15 0.603,-0.458 0.772,-0.685 z m 1.878,-1.717 c 0.847,-0.965 0.687,-1.152 -1.36,-3.31 -0.695,-0.73 -0.84,-0.813 -1.335,-0.772 -0.472,0.04 -0.504,0.157 -0.747,0.654 -0.447,0.915 -0.115,1.38 1.173,2.75 1.325,1.41 1.52,1.53 2.27,0.68 z m 2.098,-2.253 c 0.328,-0.288 0.547,-0.623 0.547,-0.835 0,-0.377 -1.658,-2.215 -2.25,-2.554 -0.42,-0.24 -0.857,-0.103 -1.4,0.364 -0.327,0.28 -0.32,0.35 -0.24,0.658 0.125,0.505 2.257,2.752 2.61,2.75 0.145,0 0.433,-0.118 0.733,-0.382 z m 2.082,-2.02 c 0.352,-0.36 0.63,-0.793 0.63,-0.983 0,-0.406 -1.787,-2.473 -2.34,-2.763 -0.47,-0.246 -0.742,-0.143 -1.206,0.508 -0.535,0.75 -0.327,1.093 0.733,2.314 1.006,1.16 1.328,1.51 1.516,1.51 0.06,0 0.318,-0.232 0.665,-0.586 z m 1.965,-2.114 c 0.45,-0.274 1.04,-0.852 0.802,-1.324 -0.254,-0.483 -3.382,-3.8 -3.72,-3.98 -0.66,-0.352 -0.64,0.157 -0.64,1.8 l 0,0.85 1.44,1.41 c 2.1,2.056 1.63,1.555 2.118,1.244 z m 2.544,-2.335 c 0.25,-0.247 0.484,-0.666 0.48,-0.822 -1.298,-1.58 -5.074,-6.58 -5.756,-6.396 -0.072,0.02 -0.1,0.022 -0.15,0.166 -0.168,0.5 -0.237,1.537 -0.12,2.375 1.193,1.145 4.003,4.876 4.64,5.107 0.38,0.146 0.547,-0.07 0.906,-0.43 z m 2.03,-2.127 c 0.238,-0.23 0.433,-0.54 0.433,-0.688 0,-0.15 -0.42,-0.676 -0.867,-1.202 -0.446,-0.526 -1.32,-1.59 -1.942,-2.367 -3.558,-4.437 -3.817,-4.77 -4.36,-4.318 -0.356,0.296 -0.442,1.34 -0.263,1.732 0.31,0.674 4.194,5.36 5.447,6.57 0.797,0.77 0.954,0.845 1.55,0.273 z m 2.046,-1.962 c 0.304,-0.285 0.553,-0.665 0.553,-0.843 0,-0.178 -0.574,-0.9 -1.175,-1.606 -0.6,-0.704 -1.6,-1.908 -2.223,-2.673 -1.597,-1.964 -1.61,-2.035 -2.8,-2.158 -1.806,-0.186 -1.566,0.212 0.48,2.598 0.495,0.578 1.43,1.718 2.077,2.535 1.517,1.91 2.186,2.614 2.486,2.614 0.133,0 0.298,-0.18 0.602,-0.466 z m 2.087,-2.044 c 0.926,-0.778 0.743,-1.033 -2.267,-4.14 -0.986,-1.02 -1.057,-1.182 -1.823,-1.182 -0.772,0 -1.02,0.16 -1.02,0.533 0,0.23 3.92,4.888 4.206,5.002 0.386,0.154 0.43,0.184 0.904,-0.214 z m 2.193,-2.245 c 0.247,-0.263 0.45,-0.605 0.45,-0.76 0,-0.333 -0.852,-1.414 -1.65,-2.113 -0.373,-0.328 -0.843,-0.667 -1.146,-0.667 -0.51,0 -1.39,0.29 -1.54,0.534 -0.098,0.158 1.066,1.597 2.21,2.803 0.76,0.798 1.055,0.868 1.676,0.204 z m 1.925,-1.91 c 0.485,-0.484 0.48,-0.928 -0.015,-1.577 -0.36,-0.47 -0.467,-0.517 -1.206,-0.517 -1.4,0 -1.44,0.358 -0.357,1.516 0.806,0.862 1.028,1.13 1.578,0.58 z m 2.06,-2.027 c 0.546,-0.692 0.08,-1.072 -0.814,-0.665 -0.21,0.097 -0.324,0.348 -0.37,0.464 -0.275,0.72 0.663,0.867 1.186,0.2 z m -34.416,5.85 c -1.99,1.258 -5.336,3.642 -7.61,5.235 -0.06,0.34 -0.104,1.212 0,1.89 1.29,-0.877 5.434,-3.524 7.315,-5.016 0.096,-0.56 0.233,-1.545 0.294,-2.108 z m 3.65,-5.774 c -0.067,-0.34 -0.29,-0.125 -0.88,0.373 -0.77,0.652 -7.315,5.5 -9.053,6.72 -0.66,0.465 -1.283,0.857 -1.354,1.02 -0.067,0.153 -0.13,1.47 0.12,1.802 1.418,-1.083 8.146,-5.595 8.247,-5.75 0.696,-1.11 2.247,-3.047 2.92,-4.166 z m -0.75,14.614 c 0,0 -8.027,9.65 -10.61,14.456 0,0 -0.017,5.498 -0.09,8.665 l -0.44,0.122 c 0,0 -0.036,-8.486 -0.145,-17.697 -0.27,-23.016 -0.496,-28.605 -0.496,-28.605 l -2.608,-1.908 -0.11,-0.906 c 0,0 11.568,8.1 17.212,9.39 -4.123,6.464 -7.936,8.956 -2.714,16.484 z m -9.526,11.54 c 0.16,-0.388 0.05,-0.37 -0.28,-0.355 -0.244,0.01 -0.382,0.235 -0.393,0.48 -0.012,0.283 0.014,0.35 0.233,0.307 0.157,-0.03 0.363,-0.246 0.44,-0.433 z m 1.93,-2.86 c 1.155,-1.422 2.11,-2.345 2.282,-3.39 -0.74,0.12 -5,3.106 -5.066,3.423 0.04,1.58 -0.32,1.77 0.98,1.073 0.57,-0.31 1.033,-0.692 1.804,-1.106 z m 0.364,-3.525 c 1.242,-1.032 5.77,-3.467 6.287,-4.667 0.2,-0.55 -0.445,-1.068 -0.546,-1.017 0.08,0.072 -6.483,4.005 -8.877,6.068 -0.214,0.266 -0.16,0.72 -0.017,1.094 0.263,0.69 0.787,0.13 3.152,-1.48 z m -1.506,-1.898 c 1.35,-0.9 4.543,-3.107 5.338,-3.66 1.35,-0.938 1.62,-1.253 1.132,-1.948 -0.195,-0.277 -0.46,-0.442 -0.905,-0.246 -3.91,2.722 -4.246,3.183 -7.213,5.09 -0.2,0.536 -0.15,1.335 0.16,1.62 0.224,0.012 0.6,-0.265 1.488,-0.856 z m -0.015,-2.938 c 3.56,-2.575 5.482,-3.878 5.61,-4.162 0.138,-0.314 0.18,-1.54 -0.053,-1.67 -1.325,1.008 -4.867,3.176 -7.288,5.14 -0.063,0.403 -0.137,1.31 0.058,1.504 0.492,0.203 0.638,-0.063 1.673,-0.812 z m -0.424,-9.3 c 2.592,-1.922 4.987,-3.595 7.686,-5.398 2.286,-1.518 2.668,-1.856 1.79,-2.31 -0.302,-0.156 -0.91,-0.402 -1.3,-0.27 -3.04,2.452 -6.415,4.8 -9.636,7.183 -0.08,0.354 0,1.053 -0.02,1.368 -0.03,0.486 0.612,0.07 1.48,-0.573 z m -0.357,-2.742 c 0.213,-0.187 1.57,-1.087 3.016,-2.133 3.878,-2.808 4.336,-3.08 4.336,-3.38 0,-0.814 -1.12,-0.987 -2.138,-0.157 -1.87,1.522 -6.333,4.296 -6.344,4.69 -0.015,0.58 -0.113,1.15 0.057,1.405 0.214,0.322 0.528,0.053 1.073,-0.426 z m 1.12,-3.802 c 3.945,-2.752 3.79,-2.624 3.79,-3.118 0,-0.43 -0.385,-0.237 -0.99,-0.28 -0.568,-0.043 -0.58,0.117 -1.66,0.935 -2.304,1.74 -3.147,2.216 -3.388,2.73 -0.076,0.16 -0.13,0.8 0.01,0.94 0.28,0.278 0.6,-0.064 2.238,-1.207 z m 0.26,-2.737 c 0.773,-0.643 1.392,-1.115 1.444,-1.25 0.112,-0.293 -0.47,-0.815 -0.91,-0.815 -0.477,0 -0.848,0.246 -2.028,1.262 -1.04,0.896 -1.252,0.708 -1.17,1.214 0.047,0.293 0.053,0.94 0.15,1.06 0.252,0.302 0.792,-0.038 2.514,-1.47 z m -1.598,-1.777 c 0.834,-0.702 1.01,-0.847 0.402,-1.455 -0.55,-0.55 -1.193,-0.687 -1.53,-0.348 -0.19,0.248 -0.01,1.7 -0.027,1.99 -0.033,0.465 0.586,0.292 1.155,-0.186 z m 17.87,-15.145 c 0,-0.3 1.45,-1.362 2.54,-1.604 1.388,-0.31 3.13,-0.15 4.35,0.46 1.052,0.525 2.192,1.786 0.503,1.018 -1.55,-0.69 -4.874,-0.698 -6.078,-0.14 -0.893,0.452 -1.314,0.568 -1.314,0.267 z m -1.08,-5.317 c 0.114,-0.113 1.564,0.262 2.363,0.472 2.144,0.565 3.904,0.233 6.15,-0.415 0.527,-0.152 0.79,0.213 0.464,0.48 -1.14,0.79 -2.62,1.25 -3.896,1.37 -2.807,0.26 -5.827,-1.173 -5.08,-1.907 z m -13.764,-4.143 c 1.197,-0.586 2.66,-8.803 2.19,-10.217 -1.467,2.24 -3.112,3.245 -5.453,2.857 -3.834,-0.636 -3.976,-5.355 -1.013,-5.83 1.183,-0.19 2.63,0.59 2.87,0.407 1.262,-0.592 2.25,-4.835 2.56,-6.207 0.226,-1.346 0.56,-5.077 0.61,-6.265 0.107,-2.524 0,-6.25 0,-6.25 l -18.66,-22.323 -40.87,-0.176 c 0,0 -0.13,31.27 -0.033,47.267 l 11.57,11.106 0.147,17.95 c 12.93,-5.643 25.447,-11.57 37.7,-17.98 -1.42,-1.697 -1.38,-5.976 1.21,-7.594 3.814,-2.383 6.983,0.77 7.167,3.254 z m 10.244,3.805 c 0.087,-1.012 0.84,-1.844 0.892,-2.874 0,-0.228 0.186,-0.493 0.794,-0.17 0.793,0.42 1.037,0.124 1.933,-0.29 1.592,-0.732 2.048,-0.715 3.273,-0.225 0.793,0.425 1.036,0.422 1.78,0.037 1.016,-0.672 2.097,-0.89 2.99,-0.576 1.336,0.464 1.8,0.72 2.56,0.352 0.384,-0.185 0.864,-0.88 0.95,-0.828 0.546,0.813 0.436,2.095 0.786,2.815 0.62,1.223 0.377,2.1 -0.353,1.498 -1.534,-1.265 -2.73,-1.296 -4.93,-0.75 -1.288,0.318 -1.936,0.566 -3.363,0.397 -4.423,-0.524 -4.722,-0.392 -5.62,0.21 -0.874,0.583 -1.545,0.642 -1.692,0.405 z m 11.872,-8.015 c -1.277,-0.32 -2.736,-1.48 -3.794,-1.17 -1.303,0.09 -2.046,-1.448 -1.377,-2.29 1.143,-1.114 2.92,0.01 3.61,0.532 1.498,1.138 1.71,1.228 2.317,1.228 2.487,-0.05 2.01,-2.372 0.81,-3.22 -0.714,-0.748 -0.785,-1.232 -0.633,-1.415 0.246,-0.296 0.956,-0.046 1.734,0.772 1.488,1.398 1.524,4.185 -0.303,5.027 -0.91,0.507 -1.506,0.75 -2.365,0.536 z m 5.19,-8.055 c -1.157,-0.838 -3.217,-2.72 -3.755,-3.39 -0.91,-1.133 -1.274,-1.858 -1.16,-2.768 0.09,-0.707 0.196,-1.13 -0.26,-1.363 -0.482,-0.25 -0.946,-1.318 -0.852,-1.88 0.026,-0.155 0.57,-0.062 0.9,0.35 0.42,0.068 0.332,-0.18 0.786,-0.48 4.728,-3.175 8.523,-2.564 13.01,-0.382 1.302,0.625 4.7,3.202 2.88,2.366 -0.11,-0.05 -1.3,-0.566 -2.505,-1.173 -3.89,-1.863 -8.225,-2.99 -11.755,-0.597 -0.607,0.425 -0.974,0.752 -0.502,0.752 1.984,-0.386 3.946,-1.21 5.984,-1.082 3.038,0.04 4.877,1.54 7.155,2.575 2.474,1.105 2.95,1.483 2.05,2.395 -0.255,0.28 -0.46,0.273 -1.653,0.18 -1.285,-0.097 -1.39,-0.06 -2.114,0.403 -1.894,1.214 -4.354,1.876 -6.54,1.693 -2.573,-0.217 -2.85,-0.423 -2.902,-0.052 -0.034,0.238 0.52,0.648 1.282,1.346 0.578,0.53 1.356,1.31 1.424,1.43 0.215,0.378 -0.766,0.192 -1.474,-0.32 z m -0.722,-4.12 c 0,-0.304 -0.573,-1.63 -0.91,-1.97 -0.326,-0.33 -0.58,-0.2 -1.273,0.286 -0.52,0.367 -0.576,0.656 -0.097,1.082 1.018,0.904 2.29,1.13 2.28,0.604 z m 3.877,0.183 c 1.04,-0.503 2.096,-2.285 1.616,-2.864 -0.285,-0.345 -0.533,-0.018 -1.078,0.95 -0.26,0.462 -0.71,1.048 -0.903,1.183 -0.85,0.594 -1.97,0.04 -2.442,-1.273 -0.285,-0.79 -0.584,-1.295 -0.916,-0.994 -0.6,0.543 0.08,2.5 1.27,3.007 0.704,0.3 1.724,0.344 2.453,-0.01 z m 3.232,-0.293 c 1.054,-0.325 1.557,-0.8 1.468,-1.26 -0.073,-0.38 -0.832,-0.828 -1.347,-0.828 -0.23,0 -0.683,-0.01 -0.845,0.206 -0.36,0.477 -0.928,1.926 -0.954,2.082 0.122,0.32 0.48,0.17 1.677,-0.2 z m 3.64,-7.853 c -5.254,-2.01 -9.404,-2.817 -14.403,-0.685 -1.6,0.695 -2.514,0.767 -2.594,0.2 -0.068,-0.478 1.084,-1.894 2.33,-2.548 3.49,-1.597 7.678,-1.747 11.188,-0.063 1.312,0.642 4.994,3.26 4.994,3.497 0,0.26 -0.333,0.06 -1.514,-0.402 z m 61.512,58.884 c 1.25,-0.66 1.826,-1.957 1.06,-2.724 -0.225,-0.225 -0.54,-0.223 -0.8,-0.223 -0.438,0 -3.725,0.88 -4.363,1.22 -0.416,0.224 -0.265,0.612 0.132,0.97 0.183,0.167 0.32,0.523 0.347,0.91 0.037,0.5 -0.062,0.95 0.268,0.874 0.67,-0.154 1.73,-0.302 3.354,-1.028 z m -4.674,1.204 c 0.357,-0.65 0.205,-1.54 -0.732,-2.085 -0.488,-0.253 -0.874,-0.118 -1.267,0.443 -0.93,1.697 1.38,2.426 2,1.642 z m -4.69,0.797 c 0.2,-2.17 0.103,-8.58 0.103,-8.58 0,0 -1.17,0.987 -1.905,1.02 0.27,-0.937 0.563,-1.28 0.982,-2.2 0.24,-0.972 0.374,-2.693 0.307,-3.677 -0.074,-1.078 -0.834,-1.107 -0.05,-3.043 0.4,-0.99 0.472,-2.03 -0.047,-3.256 -0.224,-0.604 -0.296,-0.95 0.286,-1.718 0.542,-0.712 0.328,-1.068 0.318,-2.554 -0.014,-2.058 0,-2.393 -0.624,-0.732 -0.93,1.375 -1.36,1.112 -2.777,0.946 -1.373,3.074 -2.977,6.297 -3.04,8.947 -0.04,1.66 -0.062,1.92 0.975,5.413 0.386,1.3 0.518,1.733 0.54,3.306 0.022,1.5 0.134,2.028 0.363,2.857 0.406,1.474 2.058,3.913 4.568,3.27 z m -47.716,138.26 0.01,-3.09 c 0,0 -4.944,1.523 -7.454,0.585 -2.583,-0.7 -2.575,-0.827 -2.524,-0.547 0.09,0.5 2.008,1.51 3.783,1.927 1.25,0.293 3.75,0 4.976,-0.366 0.697,-0.206 0.77,-0.012 0.492,0.2 -3.03,2.37 -6.876,1.28 -9.29,-0.687 -1.29,-1.265 -2.156,-1.272 -1.46,0.426 3.317,6.723 11.555,2.757 11.472,1.55 z m -3.337,-4.594 1.124,0.02 c 0,0 -0.345,-1.958 -0.927,-2.53 -1.193,-1.168 -2.877,-0.99 -3.946,0.158 -0.49,0.528 -0.864,2.387 -0.864,2.387 l 0.904,0.02 c 0.336,-0.87 1.762,-4.942 3.71,-0.054 z m -4.5,-2.963 c -0.638,-0.175 -2.04,0.462 -2.723,0.906 -0.253,0.28 -0.255,0.32 0.046,0.715 0.655,0.864 1.657,1.276 1.728,0.954 0.29,-0.455 1.016,-2.398 0.95,-2.574 z m 7.43,2.18 c 0.147,-0.604 -0.42,-1.634 -1.306,-1.995 -0.383,-0.095 -0.76,-0.172 -0.65,0.25 0.125,0.472 0.39,1.247 0.637,1.765 0.18,0.388 0.294,0.584 0.672,0.437 0.296,-0.1 0.546,-0.192 0.646,-0.458 z m 48.248,-40.976 0.01,-5.235 c -2.643,2.68 -6.098,7.175 -7.145,8.858 z m -80.747,-144.277 c 1.12,-0.48 1.942,-1.943 1.658,-2.683 -0.175,-0.46 -0.64,-0.09 -1.11,0.59 -0.757,1.093 -0.95,1.212 -1.614,1.212 -0.708,0 -0.99,-0.183 -1.474,-1.135 -0.335,-0.9 -0.572,-1.04 -0.884,-0.648 -0.147,0.177 -0.135,0.43 0.056,1.087 0.498,1.715 1.782,2.258 3.37,1.577 z m 3.052,-0.54 c 1.242,-0.43 1.496,-0.565 1.437,-0.978 -0.062,-0.434 -1.05,-1.012 -1.61,-0.905 -0.405,0.244 -1.454,1.905 -1.395,2.202 0.144,0.232 0.56,0.026 1.568,-0.32 z m -7.165,-0.725 c -0.043,-0.383 -0.096,-0.76 -0.202,-0.887 -0.398,-0.48 -1.24,-0.14 -1.24,0.47 0,0.463 0.66,0.988 1.195,0.988 0.376,0 0.322,0.092 0.247,-0.57 z m 7.02,-3.13 c 1.767,0.665 2.663,0.74 1.702,-0.164 -1.322,-1.466 -7.38,-3.14 -10.63,-0.748 -0.23,0.33 -0.183,1.594 0.07,1.525 2.645,-1.784 6.03,-1.69 8.858,-0.613 z m -6.05,-5.055 c -1.484,0.494 -2.878,1.27 -3.057,1.993 -0.287,1.165 0.234,1.177 2.176,0.566 2.5,-0.818 5.297,-0.447 7.43,0.784 1.618,1.177 2.097,0.788 1.824,-0.2 -0.905,-3.275 -5.965,-3.865 -8.373,-3.143 z"
         id="path4555" />
      <path
         style="fill:#e2cf00"
         inkscape:connector-curvature="0"
         d="m 2512.167,1008.135 -10.92,10.82 0.152,12.807 c 1.097,2.012 -16.856,-5.738 -19.69,-8.084 0.33,8.555 12.005,18.302 19.597,21.868 l 0.207,27.164 c 0,0 3.056,-1.185 4.737,-1.77 1.246,-0.43 4.095,-0.39 5.033,-0.84 1.49,-18.62 2.762,-42.848 0.884,-61.965 z m -60.742,13.403 c -1.064,0.018 -1.7,0.307 -1.687,0.99 -0.32,-0.052 4.036,15.99 6.018,22.69 -3.86,3.898 -7.886,10.67 -2.122,16.94 1.23,1.34 3.483,2.47 5.626,3.756 0.955,0.927 -11.72,9.098 -23.002,9.102 -3.617,-7.93 -8.67,-3.545 -11.456,-0.778 -2.176,-0.192 -10.3,-5.03 -14.457,-7.802 -0.066,-0.044 -0.022,-1.19 -0.014,-1.4 0.29,1.89 16.283,5.967 17.005,4.073 -0.462,0 -7.174,-4.54 -9.1,-9.02 -2.462,-5.052 -4.434,-11.992 -4.434,-11.992 -0.894,2.566 -0.587,6.123 -3.053,7.395 -0.74,-8.352 -12.665,-4.092 -6.73,4.075 -3.334,0.978 -6.186,2.704 -9.424,4.142 6.775,9.217 16.098,15.348 25.946,18.962 -1.3,2.767 -8.97,8.995 -2.67,16.337 0.285,0.225 -6.02,7.1 -9.12,12.48 -2.334,4.047 -1.63,7.154 -1.363,7.254 8.54,-9.788 13.34,-18.067 13.34,-18.067 -0.072,1.138 10.138,0.522 9.967,-8.672 0.226,-2.48 0.675,-5.17 1.63,-7.472 15.58,0.733 28.974,-4.817 40.296,-16.473 0,0 2.306,0.658 3.76,0.885 0.73,0.113 1.763,-0.362 1.934,-0.41 0.655,-0.035 1.6,-0.162 2.484,-0.658 1.21,-0.68 2.43,-1.85 3.722,-2.896 1.694,-1.37 3.386,-2.694 3.988,-4.107 0.675,-1.57 0.147,-3.466 -0.43,-5.143 -3.635,-4.28 -6.046,0.322 -7.657,-0.275 -5.59,-7.602 -10.254,-29.103 -11.014,-29.272 -3.124,-0.63 -13.808,-4.716 -17.98,-4.645 z m -38.378,14.675 c -0.417,0.027 -1.915,6.713 -3.243,6.66 -5.623,-3.622 -5.744,3.874 -0.91,3.533 4.086,-0.288 6.37,-6.88 4.173,-10.19 -0.01,0 -0.013,0 -0.02,0 z m -60.104,12.716 c 0.186,40.644 0.918,81.274 1.87,121.905 3.674,-0.907 6.345,-1.6 9.948,-0.025 0.34,-11.55 -0.677,-40.7 -0.434,-68.925 13.73,-10.678 23.373,-22.454 30.146,-37.846 l -20.963,9.816 c 0,0 -6.85,9.82 -9.04,10.45 -0.31,-1.398 -0.66,-18.02 -0.376,-25.15 z m 46.58,25.138 -4.118,5.96 c 0,0 0.096,20.468 0.334,30.33 0.17,1.964 1.954,3.765 0.525,5.525 0.87,0 4.678,26.554 1.06,37.32 -0.65,1.927 -0.042,3.29 0.97,3.73 l 7.85,7.966 c 2.476,0.82 4.887,0.5 6.965,0 7.43,-6.798 17.986,-18.706 17.986,-18.706 l -27.904,-26.377 c -2.393,-6.398 -3.67,-45.75 -3.67,-45.75 z m 101.692,85.36 c -20.203,15.102 -28.887,36.593 -29.02,36.45 0.07,0.25 -0.102,1.13 1.164,0.434 5.228,-2.832 18.67,-8.937 18.67,-8.937 3.194,-3.836 5.65,-7.54 9.306,-11.19 0,0 0.395,16.654 0.072,25.01 3.298,2.45 11.127,10.11 11.127,10.11 0,0 2.162,-118.322 -2.504,-121.325 -4.53,0.878 -6.804,2.533 -8.494,-2.72 -1.195,24.09 -0.013,48.263 -0.32,72.168 z m -43.873,-66.592 c -4.873,3.983 -21.627,20.416 -21.592,20.587 4.443,7.45 21.99,22.377 30.403,30.72 l 1.218,42.512 c 1.238,-1.664 2.138,-3.23 3.48,-4.897 0,0 -0.22,-21.524 -0.74,-31.616 -0.152,-2.983 -0.837,-5.335 -0.622,-5.606 -2.367,-12.248 -3.35,-25.78 0,-38.91 -7.944,-6.844 -10.47,-11.395 -12.146,-12.79 z m 1.304,48.553 c -0.012,0 -0.025,0.013 -0.038,0.028 -4.114,5.858 -11.98,18.576 -12.543,18.546 -0.167,-0.38 -8.128,-0.025 -9.633,4.983 -1.264,3.73 -1.36,7.16 -2.282,11.006 -15.974,-0.52 -27.668,4.53 -39.982,15.878 -3.503,0.14 -6.57,0.426 -8.725,1.224 -1.805,0.67 -2.776,1.873 -3.886,2.678 -3.125,2.265 -3.972,4.198 -3.818,6.564 0.277,4.287 7.852,4.896 8.24,1.875 0.384,0 7.412,16.058 8.096,18.794 1.658,4.423 3.433,12.698 3.644,12.712 2.83,0.182 18.716,4.637 18.774,3.02 1.496,-0.642 -5.525,-23.618 -5.525,-23.618 12.272,-10.295 -1.258,-21.298 -4.438,-20.895 6.988,-4.974 15.006,-8.325 23.848,-8.766 1.37,4.914 7.715,7.44 10.91,0.91 0,0 13.744,4.918 13.688,6.548 -5.66,-0.854 -10.313,-1.3 -15.98,-1.84 10.858,5.892 11.19,13.66 13.408,21.392 0.302,-1.37 3.166,-7.352 3.166,-7.352 3.683,8.167 10.686,2.5 7.797,-4.094 l 8.713,-4.04 c 1.004,-0.51 -13.026,-16.29 -25.786,-18.526 0.643,-1.176 0.897,-2.28 1.56,-3.24 3.2,-3.138 5.68,-7.733 0.79,-13.233 3.228,-4.51 10.715,-15.403 10.24,-15.597 0,0 0.147,-5.09 -0.24,-4.954 z m -104.918,50.197 c -0.124,0 -0.35,37.768 -0.084,56.516 -0.314,0.776 -0.517,4.925 -0.517,4.925 l 11.62,-10.914 0.347,-14.11 c 3.034,-0.725 21.945,8.875 20.43,8.822 1.445,-0.608 -8.728,-19.818 -20.594,-21.95 -0.22,-10.882 -0.332,-23.203 -0.643,-26.515 -4.12,0.788 -10.56,3.252 -10.56,3.227 z m 103.164,22.72 c -3.254,0.97 -4.61,7.81 -3.558,11.127 0.195,0.613 0.072,0.746 0.59,0.145 1.268,-1.863 0.868,-5.57 3.108,-7.527 5.916,1.784 5.33,-5.908 -0.14,-3.746 z"
         id="path4557" />
      <path
         style="fill:#d40000"
         inkscape:connector-curvature="0"
         d="m 2518.33,1275.154 0,-3.48 3.132,0 0,-18.774 c 0,0 0.016,-4.518 0.222,-5.087 2.415,-8.23 15.787,-7.657 16.453,-0.316 0.282,1.25 0.204,5.403 0.204,5.403 l -3.537,0 c 0,0 -0.025,-1.324 -0.073,-2.302 0.458,-7.796 -9.005,-6.177 -9.475,-0.94 -0.196,0.938 -0.216,3.242 -0.216,3.242 l 0,18.774 3.653,0 0,3.48 z m -136.717,-16.3 15.382,-23.24 c 18.364,6.138 37.112,6.25 56.06,3.22 l 16.932,20.02 -6.923,0 -10.658,-15.22 c -3.862,0.89 -7.876,1.28 -11.876,1.83 l 4.988,13.39 -5.43,0 -3.917,-13.245 c -9.192,0.356 -15.452,-0.463 -21.835,-1.21 l -2.3,14.453 -5.523,0 3.73,-14.924 c -4.344,-0.814 -8.725,-1.512 -12.363,-2.678 l -11.293,17.6 z m 17.615,-13.676 6.386,1.73 -3.12,11.945 -11.68,0 z m 16.493,13.675 1.806,-10.553 c 4.288,0.845 9.884,1.016 15.784,0.956 l 2.775,9.597 z m 30.227,-9.784 5.038,-1.336 7.552,11.12 -9.18,0 z m 39.874,7.932 c -5.323,-10.705 -12.594,-20.02 -20.498,-28.88 7.717,-8.112 14.224,-17.49 20.472,-28.15 6.2,10.76 13.352,20.728 21.23,28.568 -8.667,8.62 -15.304,18.005 -21.203,28.462 z m 42.903,-19.274 c -2.564,-4.192 -5.633,-8.383 -9.402,-12.575 3.442,-3.87 6.442,-8.014 9.14,-12.346 3.113,4.777 6.322,8.922 9.62,12.494 -3.487,3.898 -6.412,8.17 -9.357,12.428 z m -156.264,-55.812 c 24.57,-28.577 21.3,-58.577 7.728,-82.774 l 2.886,-2.968 c 15.697,25.794 19.038,62.47 -9.89,90.892 -0.305,-1.714 -0.725,-5.15 -0.725,-5.15 z m 97.98,-32.05 c 3.53,6.008 5.69,12.09 9.42,18.133 l -8.85,11.96 z m -105.713,18.928 c -0.23,-18.856 0.057,-57.062 0.057,-57.062 l 8.29,-6.34 c 9.92,12.04 15.333,43.777 -2.48,64.9 -1.296,-0.943 -4.824,-0.55 -5.867,-1.498 z m 117.706,-3.805 c -22.738,-38.353 -11.174,-66.32 10.74,-91.153 0.063,1.914 0.207,3.82 0.38,5.726 -18.814,21.542 -26.338,53.4 -7.892,82.223 z m -41.174,-5.573 10.354,-14.11 c 0,0 1.963,-5.612 3.616,-7.27 l 1.9,-1.68 c 0.632,0.61 1.836,1.382 1.8,2.084 -0.04,0.663 -1.017,4.165 -1.017,4.165 l -12.11,17.71 c 0,0 -3.676,-0.646 -4.544,-0.898 z m 55.078,-68.487 c 0.327,-0.37 4.438,1.346 4.438,1.346 l 0.263,57.983 -8.23,5.286 c -2.388,1.212 -21.045,-36.84 3.528,-64.616 z m -86.692,24.426 c 3.747,-5.104 7.694,-9.522 11.325,-14.21 0.94,0.323 3.406,0.377 3.406,0.377 0.26,0.14 -0.83,3.89 -3.516,6.474 -2.7,2.752 -9.13,10.293 -9.32,14.092 -0.057,1.17 -2.686,2.512 -2.686,2.512 l -1.87,-1.972 c 0.573,-2.89 1.47,-5.103 2.662,-7.274 z m -23.37,-22.242 8.247,-10.697 0.822,28.422 z m -28.178,-63.03 c 7.85,-8.358 14.79,-17.947 21.344,-27.86 5.982,9.842 12.616,19.903 20.917,28.06 -7.56,8.29 -14.722,18.233 -20.972,28.09 -6,-9.598 -12.71,-19.533 -21.29,-28.29 z m -31.325,2.504 c 3.736,-3.618 6.842,-7.624 9.372,-11.985 2.902,4.404 5.642,8.94 9.52,12.545 -3.58,3.837 -4.727,5.058 -9.608,12.22 -2.755,-4.464 -5.615,-8.865 -9.284,-12.78 z m 86.493,-11.57 -16.326,-20.406 7.905,0 9.723,14.44 11.645,-1.33 -4.098,-13.11 4.825,0 3.407,12.9 c 7.143,0.17 14.124,0.726 20.902,1.405 l 3.483,-14.305 4.914,0 -4.46,14.97 13.15,3.45 11.718,-18.42 5.82,0 -16.605,23.783 c -21.71,-6.52 -39.147,-5.773 -56.004,-3.378 z m -87.304,-10.426 c -0.254,-1.803 -0.31,-3.58 0.017,-5.312 l 3.527,0 c 0,0 -0.023,1.3 0.026,2.406 0,6.987 8.363,6.088 9.598,1.687 0.437,-1.555 0.37,-4.042 0.37,-4.042 l 0.014,-18.588 -3.582,0 0,-3.61 10.61,0 0,3.61 -3.31,0 0,18.538 c 0,0 -0.026,0.08 -0.01,0.4 0.062,1.12 0.1,3.8 -0.495,5.06 -3.353,8.35 -15.613,6.457 -16.768,-0.148 z m 134.372,1.884 3.72,-11.877 11.126,0.012 -8.516,13.567 z m -26.928,-2.89 -2.35,-8.974 19.615,0 -2.532,10.035 c -5.18,-0.875 -9.91,-1.042 -14.732,-1.06 z m -23.515,-8.974 7.83,0 3.05,9.288 -4.516,0.51 z"
         id="path4559" />
      <path
         inkscape:connector-curvature="0"
         d="m 2394.38,999.297 18.907,22.618 c 3.94,-1.41 23.792,-3.674 35.702,-0.957 2.074,8.13 4.27,16.34 6.592,23.742 0,0 -0.744,0.868 -1.28,1.42 -7.607,8.766 -2.223,17.23 4.736,19.993 -1.254,2.607 -14.592,9.096 -22.714,8.325 0.014,-0.08 -2.494,-5.957 -7.578,-3.97 -1.737,0.678 -2.454,1.985 -3.8,3.262 -4.85,-1.463 -11.258,-4.653 -14.588,-8.16 6.232,3.102 12.37,4.772 18.53,3.95 0,0 -0.763,-0.636 -1.63,-1.034 -0.52,-0.24 -1.776,-0.995 -2.79,-1.678 -2.863,-1.93 -4.766,-4.256 -6.727,-8.236 -2.257,-4.032 -2.625,-8.37 -3.862,-12.196 -0.655,1.96 -0.937,7.14 -2.648,8.213 -0.444,0.29 -0.525,0.202 -0.856,-0.895 -1.305,-3.982 -6.084,-3.478 -7.66,-0.643 -0.8,2.437 -0.685,3.508 0.325,5.772 l -2.898,1.61 -0.01,0.478 -1.784,0.85 -0.372,-0.25 c -8.29,4.003 -16.417,8.17 -24.876,12.006 0,0 -4.493,7.454 -8.604,10.42 l -0.16,-25.313 -12.175,-10.996 -0.058,6.022 c 0,0 0.584,0.61 0.875,0.918 0.166,42.374 0.027,84.06 0.053,122.53 l 0.056,35.412 -0.742,0.045 -0.038,4.13 0.837,0.188 -0.117,5.833 -0.435,0.03 -0.063,3.69 0.664,0.105 -0.012,20.845 -0.657,0.846 0.015,5.95 12.712,-12.08 0.283,-13.737 c 10.028,1.893 20.51,9.098 20.51,9.098 -1.766,-11.506 -13.962,-20.988 -20.967,-22.88 l 0.022,-27.264 c 0,0 -5.207,2.172 -7.78,2.506 -1.274,0.18 -1.765,-0.013 -2.373,-0.933 -0.445,-0.67 -0.455,-1.282 -0.055,-2.668 0.188,-0.648 0.18,-0.818 -0.053,-1.47 -0.328,-0.914 -0.33,-1.328 -0.01,-2.943 0.337,-0.95 0.19,-1.455 -0.164,-2.335 -0.378,-0.94 -0.408,-1.116 -0.246,-1.658 0.426,-1.428 0.45,-1.66 0.227,-2.297 -0.438,-1.245 -0.453,-2.145 -0.05,-2.953 1.875,-3.146 6.077,-2.37 8.358,-2.257 1.155,1.286 1.846,2.003 1.953,0.14 0.81,-2.224 3.947,0.053 5.413,0.998 12.473,-16.714 18.626,-39.343 2.978,-67.665 l -8.704,6.966 0.02,-8.72 c 11.543,-7.416 24.53,-24.282 30.153,-37.58 1.87,2.19 4.017,4.344 6.04,6.553 l -1.322,2.214 -0.39,-0.22 c -3.582,6.83 -13.306,19.752 -13.463,19.622 3.6,6.67 6.805,13.405 9.53,20.22 l 0.714,-0.32 0.637,2.054 -1.26,0.376 c 4.26,13.97 4.4,26.907 1.195,38.836 l 0.752,3.17 c 0,0 4.506,4.365 5.722,5.648 3.175,3.073 6.714,6.505 6.714,6.505 l 4.113,-4.027 -0.24,-0.342 36.056,-35.796 2.248,2.15 c -22.083,22.24 -60.44,60.636 -60.44,60.636 l -1.33,0.194 c -0.754,0.11 -1.872,0.16 -2.584,0.11 -1.173,-0.08 -1.317,-0.055 -2.258,0.392 -1.06,0.504 -1.935,1.25 -3.108,2.654 -0.536,0.64 -0.904,0.918 -1.498,1.13 -7.518,4.484 -0.72,13.51 5.673,8.76 4.686,8.952 8.655,19.38 10.843,29.696 0,0.075 -0.84,0.362 -0.84,0.362 l -16.85,24.985 6.48,0 0.678,-1.15 -4.858,0 15.5,-22.39 c 19.72,5.372 37.82,6.136 56.19,2.94 l 15.99,19.45 -6.342,0 0.904,1.15 8.207,0.13 -18.794,-22.178 c -6.728,1.798 -24.478,3.245 -35.61,1.36 -1.704,-8.27 -4.512,-17.26 -6.59,-24.413 10.627,-8.317 2.648,-19.296 -3.91,-20.827 -0.317,-0.6 13.3,-8.88 23,-8.305 2.776,6.67 8.858,5.683 11.042,0.72 4.022,1.476 9.243,2.95 13.387,6.246 -5.528,-1.21 -11.932,-1.872 -17.202,-1.953 10.025,3.886 12.837,12.077 14.072,19.802 0.217,1.28 0.904,2.935 0.904,2.935 0.854,-2.79 1.552,-5.67 3.233,-8.058 0.773,2.732 3.618,4.853 6.487,3.23 1.664,-1.206 2.243,-3.276 1.716,-6.135 -0.147,-0.795 -0.22,-1.23 -0.22,-1.23 l 2.227,-1.206 0.29,0.247 c 0,0 2.44,-1.042 3.653,-1.63 0.19,-0.094 -0.223,-0.473 -0.223,-0.473 l 22.52,-10.62 c -0.085,-0.047 5.68,-7.915 8.987,-10.95 0.1,9.428 0.076,13.302 0.07,24.495 l 1.272,1.24 c 1.128,1.102 3.587,3.387 9.13,8.48 1.248,1.146 2.12,1.713 2.12,1.713 l -0.17,-164.867 -0.185,0 0,-3.17 0.26,-0.015 0,-8.248 -0.233,-0.136 0,-2.6 0.31,-0.225 0.02,-22.268 -0.357,-0.062 -0.02,-5.34 -12.554,13.275 0.094,12.52 c -5.602,-0.724 -12.533,-4.31 -17.304,-7.2 -1.542,-0.942 -2.402,-1.192 -2.354,-0.654 0.67,7.455 11.462,18.856 19.755,21.84 l 0.014,28.04 c 0,0.016 1.96,-0.977 3.155,-1.48 l 0.18,0.498 2.673,-1.106 0.217,-0.577 2.317,-0.293 c 0.026,0.474 0.106,0.41 0.106,0.41 2.065,0.576 2.978,1.984 2.146,3.566 -0.29,0.53 -0.347,1.28 -0.106,1.48 0.895,1.41 1.13,2.655 0.048,3.99 -0.416,0.684 -0.413,1.07 0.015,1.794 1.118,2.253 0.483,2.105 -0.357,3.447 -0.19,1.013 0.922,1.674 0.556,2.628 -0.172,0.63 -0.836,1.368 -1.286,1.7 -0.528,0.384 -0.962,-0.327 -0.962,-0.327 0,0 -1.673,0.718 -2.876,0.948 -1.183,0.384 -3.22,1.07 -3.925,-0.522 -0.403,-0.912 -0.078,-1.745 -0.105,-2.765 l -1.736,-0.187 -0.063,4.63 c -0.993,0.528 -4.94,-1.488 -4.94,-1.488 -16.936,21.95 -16.462,46.295 -3.9,66.692 0.122,0.327 8.85,-5.97 8.85,-5.97 0,0 -0.02,5.162 0.057,7.96 -11.095,9.177 -21.812,21.524 -29.474,36.745 l -4.747,-5.626 c 0.817,-0.722 0.848,-1.866 0.832,-2.73 l 3.446,-5.14 0.03,-1.333 8.96,-12.517 c 0.14,0.75 -9.245,-16.804 -10.495,-22.518 l 0.62,-0.17 c -4.21,-15.936 -3.347,-27.096 -0.305,-40.093 l -0.868,-0.84 -11.823,-11.805 c -0.96,0.886 -1.918,1.777 -2.873,2.67 -0.146,0.137 -0.867,0.056 -1.013,0.193 -6.223,5.833 -12.203,11.69 -18.124,17.773 -0.153,0.157 0.105,0.806 -0.048,0.963 -5.93,6.107 -12.077,11.903 -18.08,18 l -2.19,-2.09 c 21.25,-21.243 61.284,-60.703 61.284,-60.703 0,0 0.173,-0.313 0.45,-0.324 1.113,-0.042 2.11,-0.295 3.21,-0.614 1.32,-0.307 1.53,-0.404 2.087,-0.977 0.34,-0.35 0.897,-0.842 1.237,-1.092 0.58,-0.425 1.906,-1.54 3.978,-3.344 1.267,-1.103 2.048,-2.71 2.02,-4.142 -0.048,-2.553 -1.738,-4.73 -3.914,-5.042 -0.905,-0.13 -2.68,0.34 -3.577,0.948 -0.685,0.462 -1.008,0.673 -1.302,0.466 -4.337,-8.795 -8.557,-19.857 -10.347,-28.984 -0.096,-0.576 -0.044,-0.746 0.425,-1.47 0.292,-0.45 0.927,-1.443 1.417,-2.208 3.876,-5.606 8.373,-12.415 12.59,-18.56 0.7,-1.022 2.06,-2.988 2.06,-2.988 l 1.03,-1.69 -6.688,0 -0.825,1.316 5.504,0 -16.372,23.565 c -30.173,-9.863 -54.898,-3.61 -55.49,-3.476 l -16.313,-20.088 7.46,0 -0.904,-1.315 z m 14.686,0 0.83,1.315 7.825,0 -0.442,-1.315 z m 13.05,1.315 4.823,0 -0.278,-1.315 -4.948,0 z m 8.632,-1.315 0.307,1.315 19.616,0 0.35,-1.315 z m 23.985,1.315 4.914,0 0.37,-1.315 -4.943,0 z m 9.726,-1.315 -0.423,1.315 11.143,0 0.835,-1.315 z m 47.65,9.094 0.173,3.654 -8.033,8.466 0.01,11.822 -2.338,-0.543 -0.093,-12.217 z m -2.253,7.788 c 0.068,3.62 -0.518,7.09 0.44,10.783 0.47,1.818 1.427,3.95 1.547,6.096 l -2.65,-0.062 c -0.336,-1.085 -0.467,-2.28 -0.864,-3.616 -0.98,-3.29 -1.772,-6.758 -1.05,-10.247 z m -57.833,5.905 c 0.097,0.18 0.414,1.71 0.706,3.13 1.39,7.787 3.256,13.567 5.158,19.448 2.417,7.412 5.995,16.742 9.473,21.066 0.462,0.54 0.69,1.153 0.523,1.42 -0.28,0.454 -1.7,-0.18 -2.653,-1.183 -0.39,-0.412 -1.14,-1.564 -1.692,-2.596 -1.215,-2.275 -2.85,-5.586 -3.01,-6.11 -0.068,-0.212 -0.708,-1.848 -1.427,-3.634 -1.257,-3.125 -2.003,-5.264 -3.054,-8.74 -0.834,-2.756 -1.602,-5.64 -2.533,-8.545 -1.52,-4.75 -2.402,-8.528 -3.248,-12.896 -0.124,-0.64 -0.338,-1.39 -0.26,-1.543 0.48,-0.348 1.788,-0.21 2.02,0.183 z m 0.85,0.296 c -0.15,-0.127 1.382,-0.15 1.872,0.26 0.145,0.145 0.405,1.06 0.628,2.233 1.385,7.166 3.47,14.57 5.892,21.586 1.936,5.605 4.05,11 6.685,15.37 0.827,1.456 1.945,3.012 3.37,4.693 0.798,0.942 0.863,1.075 0.647,1.334 -0.263,0.318 -0.724,0.278 -1.614,-0.145 -0.83,-0.393 -1.727,-1.255 -2.57,-2.474 -0.29,-0.417 -0.728,-1.043 -0.978,-1.392 -3.885,-6.718 -6.244,-13.1 -8.38,-19.58 -2.192,-6.647 -4.162,-13.368 -5.5,-21.114 -0.018,-0.257 -0.034,-0.515 -0.05,-0.773 z m 4.882,1.01 c 0.34,0.345 0.535,1.007 0.832,2.392 1.618,6.644 2.942,12.58 4.853,18.034 1.03,2.933 1.92,5.864 3.022,8.627 1.76,4.415 3.916,8.436 6.564,11.784 0.873,1.103 2.458,2.463 3.79,3.253 0.922,0.548 1.06,0.688 1,1.006 -0.08,0.285 -0.98,0.404 -1.276,0.382 -1.457,-0.25 -3.61,-1.378 -4.225,-2.214 -4.454,-4.813 -7.638,-12.69 -9.958,-19.152 -3.987,-11.126 -7.202,-25.024 -6.59,-24.592 -0.04,-0.323 1.595,0.048 1.99,0.48 z m 1.915,0.4 c 0.145,0 0.308,0.028 0.49,0.078 0.83,0.227 0.94,0.343 1.14,1.26 1.424,6.355 2.933,11.957 4.616,17.286 1.712,5.423 3.475,10.537 6.22,15.902 2.014,3.915 4.563,6.62 7.304,7.99 0.787,0.393 1.49,0.77 1.56,0.84 0.073,0.07 0.054,0.276 -0.042,0.455 -0.145,0.272 -0.31,0.327 -0.98,0.315 -1.245,-0.02 -2.117,-0.408 -3.453,-1.305 -3.5,-2.414 -6.56,-7.88 -7.912,-10.98 -1.648,-3.785 -3.163,-7.716 -4.53,-12.003 -2.45,-7.692 -3.98,-12.78 -5.098,-19.27 0,-0.374 0.253,-0.574 0.686,-0.567 z m 52.464,10.383 -0.024,2.252 c -8.815,0.585 -17.853,-3.142 -25.118,-6.496 5.473,7.258 11.314,13.7 25.117,15.03 l 0.024,2.324 c -17.978,-0.254 -30.64,-18.46 -29.974,-22.998 7.394,4.777 20.752,10.3 29.974,9.887 z m -49.616,-9.537 c 0.432,0.02 1.015,0.203 1.242,0.43 1.47,5.485 2.54,11.575 4.97,17.686 2.984,7.51 4.64,14.138 10.173,20.325 1.722,1.77 5.095,1.716 5.095,1.716 0,0 -0.426,0.957 -1,1.116 -1.186,0.18 -2.046,0.232 -2.91,-0.047 -3.206,-1.354 -5.656,-4.778 -6.922,-7.097 -1.185,-1.74 -4.078,-8.903 -6.462,-16.207 -2.596,-7.953 -4.735,-16.22 -4.49,-17.885 0.09,-0.035 0.16,-0.045 0.304,-0.04 z m 2.963,0.924 c 0.213,0 0.494,0.08 0.832,0.24 0.36,0.173 0.518,0.28 0.706,0.958 0.122,0.443 0.102,1.126 0.32,2.238 1.25,5.727 2.972,10.377 4.683,14.907 1.626,4.304 3.37,8.53 5.52,12.35 1.086,1.923 2.163,3.723 2.843,4.402 1.85,1.852 4.994,1.944 5.92,0.107 0.514,-1.045 0.41,-2.7 -0.608,-3.557 -0.788,-0.752 -2.573,-0.434 -2.62,0.473 0,0.24 0.444,0.134 1.087,0.058 1.797,-0.208 2.36,2.974 0.05,3.504 -2.927,0.672 -4.958,-3.284 -2.375,-5.708 4.378,-2.968 7.72,1.088 6.685,4.988 -1,2.306 -2.674,3.48 -4.887,3.562 -2.855,0.092 -4.037,-0.79 -6.965,-5.046 -3.356,-5.387 -4.812,-10.644 -7.177,-16.535 -2.237,-5.57 -3.727,-11.51 -4.428,-16.7 0.062,-0.16 0.204,-0.24 0.416,-0.24 z m 2.777,0.92 c 0.258,0.01 0.803,0.145 1.042,0.293 0.143,0.088 0.35,0.286 0.35,0.286 3.936,14.362 7.218,22.966 10.56,29.04 0,0 -0.055,1.116 -0.277,1.433 -0.398,0.57 -0.593,0.43 -1.112,-0.47 -2.1,-4.068 -4.103,-8.562 -5.968,-13.194 -2.195,-5.452 -4.143,-11.095 -4.97,-16.464 0.045,-0.692 -0.11,-0.886 0.375,-0.926 z m 26.553,8.21 c 0.557,0 1.01,0.45 1.01,1.005 0,0.557 -0.453,1.01 -1.01,1.01 -0.556,0 -1.01,-0.453 -1.01,-1.01 0,-0.556 0.454,-1.005 1.01,-1.005 z m -81.792,-0.184 c -1.167,1.59 -2.123,7.283 -3.338,7.352 -1.336,-0.02 -2.96,-0.787 -4.01,0.42 -1.272,1.468 -0.49,3.09 1.08,3.983 0.72,0.358 2.257,0.443 3.19,0.175 3.82,-1.28 5.27,-7.478 3.078,-11.93 z m 85.61,1.494 c 0.806,0 1.456,0.655 1.456,1.46 0,0.804 -0.65,1.454 -1.455,1.454 -0.806,0 -1.456,-0.65 -1.456,-1.454 0,-0.805 0.65,-1.46 1.455,-1.46 z m -85.542,0.69 c 1.306,3.284 -0.14,7.21 -1.73,8.532 -1.465,1.217 -3.764,1.374 -5.076,0.19 -1.093,-1.03 -0.607,-3.496 1.43,-3.312 0.687,0.022 1.503,0.645 1.964,1.305 1.327,0.136 2.856,-6.595 3.412,-6.714 z m 90.618,0.803 c 0.908,0 1.643,0.736 1.643,1.644 0,0.907 -0.735,1.643 -1.643,1.643 -0.908,0 -1.643,-0.736 -1.643,-1.643 0,-0.908 0.736,-1.644 1.644,-1.644 z m 5.82,1.16 c 0.926,0 1.677,0.75 1.677,1.678 0,0.927 -0.75,1.678 -1.676,1.678 -0.927,0 -1.678,-0.75 -1.678,-1.677 0,-0.926 0.75,-1.677 1.678,-1.677 z m -54.16,7.628 c 0.25,0 0.426,0.24 0.59,0.72 0.34,1.002 0.333,1.118 -0.198,1.79 -5.16,7.14 -0.456,14.442 7.018,15.234 0.63,0.045 0.947,0.754 1.28,1.58 -0.045,0.39 -0.048,0.39 -1.744,0.42 -1.11,0.022 -1.997,-0.048 -2.552,-0.197 -2.62,-0.705 -5.827,-3.07 -7.14,-5.263 -1.51,-2.527 -1.763,-5.14 -0.83,-8.623 0.598,-2.235 1.358,-3.712 2.532,-4.93 0.47,-0.485 0.794,-0.728 1.044,-0.73 z m 48.906,0.793 0.087,24.5 -2.61,0.953 0.106,-26.057 z m 4.938,0.946 c 3.25,8.07 3.395,15.47 0.46,22.202 l -2.966,0.428 c 4.067,-9.483 2.338,-16.272 0.04,-22.825 z m -155.946,1.344 10.556,9.962 0.368,110.982 -1.682,-0.595 -0.672,-109.16 -8.57,-7.858 z m 103.088,0.32 c 0.018,0 0.036,0 0.054,0 0.282,0.034 0.54,0.39 0.778,1.064 0.28,0.793 0.275,0.817 -0.04,1.604 -1.447,3.55 -0.265,6.93 3.312,7.995 0.85,0.27 0.99,0.408 1.49,1.46 0.323,0.685 0.468,0.932 0.342,1.083 -0.186,0.136 -0.64,0.2 -1.987,-0.092 -5.323,-1.815 -7.255,-7.637 -4.834,-12.256 0.302,-0.528 0.578,-0.816 0.83,-0.856 0.02,0 0.037,-0.01 0.054,-0.01 z m -42.38,-0.44 c 0,0 1.113,3.927 1.006,4.82 -0.282,1.72 -2.728,4.47 -4.867,5.475 -1.986,0.76 -4.983,0.377 -6.237,-0.944 -4.555,-5.33 3.943,-10.683 6.08,-5.133 1.285,3.642 -3.94,4.503 -4.17,1.706 0,-0.722 0.232,-0.948 0.903,-1.417 0.598,-0.417 0.53,-0.788 0.015,-0.788 -1.972,0.72 -2.017,2.538 -1.13,3.684 1.778,1.857 3.977,0.775 5.492,-0.59 2.04,-1.836 2.442,-4.472 2.908,-6.816 z m 44.075,4.05 c 0.102,0 2.19,4.99 2.466,5.7 -0.068,0.502 -0.613,0.465 -1.545,-0.185 -0.945,-0.66 -1.228,-1.128 -1.63,-2.66 -0.118,-0.544 -0.322,-2.525 0.71,-2.855 z m -42.378,2.107 c 0.46,0 0.937,1.69 0.72,2.554 -0.375,1.496 -4.297,4.025 -7.052,4.548 -0.553,0.105 -1.144,0.216 -1.315,0.246 -0.57,0.102 -1.235,-0.217 -1.928,-0.923 -0.49,-0.498 -0.722,-0.993 -0.604,-1.11 0.096,-0.097 1.36,0.123 2.43,0.106 3.003,0.036 5.32,-2.117 7.1,-4.684 0.273,-0.404 0.564,-0.735 0.65,-0.735 z m -59.67,1.25 c 0,0 2.033,1.84 3.104,2.894 -0.114,4.893 -1.92,10.198 -1.918,14.573 0.043,3.805 2.505,6.974 2.755,10.285 0.148,2.142 -0.48,5.324 -1.537,7.734 -0.983,2.244 -1.5,4.636 -1.498,6.96 0.125,5.406 4.008,11.318 2.643,16.666 -1.28,5.024 -2.74,7.926 -2.353,10.595 0.746,5.148 3.483,9.71 2.755,13.993 -0.678,3.987 -2.48,7.97 -2.287,11.566 0.223,4.153 1.776,7.624 2.214,11.412 0.286,2.467 -0.41,6.305 -0.41,6.305 l -2.85,0.235 c 1.567,-5.833 -0.766,-11.107 -1.66,-16.714 -0.76,-4.774 1.378,-8.573 2.015,-12.645 0.395,-2.53 -0.053,-4.938 -1.306,-8.16 -2.476,-5.947 -1.586,-9.824 0.198,-15.003 2.206,-5.515 -0.828,-9.883 -1.585,-15.167 -0.39,-4.554 -0.086,-7.774 1.624,-11.823 1.276,-3.898 1.636,-6.158 -0.265,-9.9 -1.2,-2.363 -1.515,-3.76 -1.517,-6.872 0.62,-6.176 2.287,-9.64 1.88,-16.934 z m 61.028,2.464 c 0.443,0 0.662,0.312 0.662,0.942 0,1.152 -1.718,2.612 -4.756,4.04 -1.574,0.742 -2.49,0.852 -3.41,0.417 -0.862,-0.408 -0.82,-0.764 0.125,-1.04 2.374,-0.693 4.06,-1.64 5.98,-3.364 0.61,-0.548 1.24,-0.997 1.4,-0.996 z m -13.747,0.794 c 7.837,8.39 15.523,12.706 21.398,14.724 l -0.924,2.192 c -7.72,-2.99 -15.595,-7.15 -22.266,-16.09 z m 15.1,1.37 c 0.212,0 1.01,1.013 1.01,1.282 0,0.157 -0.29,0.664 -0.647,1.12 -0.518,0.666 -0.975,1.008 -2.27,1.717 -1.756,0.96 -2.816,1.195 -3.577,0.793 -0.757,-0.4 -0.503,-0.736 1.387,-1.847 0.975,-0.573 2.277,-1.498 2.89,-2.054 0.614,-0.557 1.155,-1.01 1.21,-1.01 z m -20.76,1.238 c 6.42,8.785 14.69,14.622 24.41,17.737 l -1.53,2.065 c -8.88,-3.06 -17.563,-8.593 -25.496,-18.34 z m 22.423,1.083 c 0.324,0 1.05,0.818 1.05,1.183 0,0.175 -0.142,0.497 -0.314,0.716 -0.344,0.435 -2.136,1.783 -2.9,2.178 -0.598,0.31 -1.046,0.305 -1.697,-0.02 -0.774,-0.384 -0.642,-0.706 0.618,-1.517 0.617,-0.395 1.55,-1.132 2.074,-1.632 0.524,-0.5 1.05,-0.91 1.17,-0.91 z m -25.828,0.64 c -0.182,0.23 -9.452,21.462 -29.093,36.517 l -0.093,-3.526 c 10.878,-8.627 18.788,-20.44 24.754,-30.755 z m 27.695,1.524 c 0.297,-0.01 0.507,0.194 0.715,0.59 0.25,0.474 -0.022,0.896 -1.12,1.726 -0.687,0.518 -0.942,0.62 -1.51,0.61 -1.46,-0.028 -1.424,-0.38 0.18,-1.814 0.832,-0.744 1.353,-1.1 1.735,-1.112 z m 37.928,1.05 4.094,0.313 c 1.102,0.768 -16.002,11.962 -27.86,10.958 l 0.313,-2.683 c 10.41,0.297 23.737,-8.105 23.452,-8.59 z m -35.118,1.047 c 0.94,0.53 2.112,1.152 1.82,1.356 -0.435,0.272 -3.212,0.095 -3.852,-0.247 -0.48,-0.257 -0.452,-0.39 0.208,-1.132 0.808,-0.908 0.948,-0.464 1.824,0.023 z m -36.494,-0.665 c -6.488,11.446 -14.215,21.892 -23.16,28.7 l -0.12,-6.055 c 8.514,-6.553 14.958,-18.523 14.974,-18.566 z m 81.257,0.73 1.984,1.16 c -12.37,11.45 -25.733,16.384 -38.572,15.148 l 1.033,-2.32 c 20.835,1.646 34.67,-13.767 35.555,-13.988 z m 3.007,0.406 c 0,0 0.665,-0.083 0.594,0.053 -4.107,4.025 -9.746,8.322 -13.44,10.72 -17.49,17.963 -32.465,32.138 -47.7,48.14 l -2.437,-2.55 2.205,-2.333 c 0.01,-4.61 5.653,-9.78 9,-13.76 1.397,-1.575 4.02,-5.623 3.722,-7.324 -0.102,-0.39 -0.116,-0.537 -0.116,-0.537 5.294,-1.058 6.56,-5.35 6.675,-9.145 0.246,-2.538 0.585,-4.842 1.44,-6.927 23.96,1.92 39.398,-15.72 40.057,-16.337 z m -41.754,2.65 c 2.718,-0.01 4.772,2.14 4.766,5.19 -0.024,1.276 -0.473,2.244 -2.202,5.618 -1.674,2.882 -1.893,4.638 -2.55,7.968 l -1.704,-1.53 -3.098,2.79 0.044,-4.067 c 0,0 1.068,-1.358 2.796,-3.3 2.19,-2.43 4.172,-5.56 4.08,-7.318 -0.057,-1.76 -1.915,-3.19 -3.815,-2.04 -1.65,1.153 -2.412,3.24 -3.384,9.482 -0.172,1.106 -0.334,2.408 -0.424,2.692 -0.244,0.77 -2.632,3.027 -2.632,3.027 -0.203,0 -1.146,-4.58 -1.146,-4.58 l -2.413,0.397 c 2.797,-3.034 4.966,-6.694 6.376,-10.526 1.295,-2.365 2.944,-3.78 5.307,-3.804 z m -52.496,0.97 c 0,0 -4.804,9.98 -13.238,16.47 l -0.056,-3.907 c 4.9,-3.8 8.634,-10.347 8.628,-10.333 z m 115.62,0.254 c -16.675,17.267 -38.44,49.06 -11.43,93.724 l 3.568,-4.117 c -21.748,-40.394 -6.336,-61.33 7.98,-82.34 z m -90.167,1.424 c 4.882,3.472 9.978,6.918 16.568,9.108 -0.35,1.174 -9.41,8.798 -2.91,15.846 0.272,0.37 -0.42,1.267 -1.478,2.54 -3.106,4.244 -6.206,7.266 -8.802,12.045 l -0.106,8.975 -2.596,-2.29 z m 89.525,0.827 0.112,5.12 c -24.776,30.11 -21.986,57.222 -7.982,82.194 l -2.682,2.72 c -22.955,-39.507 -8.634,-69.29 10.552,-90.035 z m -61.122,3.028 c -1.093,2.885 -5.872,7.828 -5.872,7.828 0,0 0.634,-4.812 1.033,-6.33 0.304,-1.16 0.99,-2.726 1.667,-3.476 1.93,-2.12 3.854,0.287 3.173,1.98 z m -32.872,-2.707 0.465,40.343 -3.482,-3.512 -0.513,-30.85 z m -4.703,7.895 0.693,27.393 c -3.476,-8.207 -8.362,-17.19 -8.46,-17.103 0,0 3.998,-5.304 7.767,-10.29 z m 27.505,8.572 c 0,0 0.53,-0.446 1.364,-1.402 1.806,-1.826 1.97,-1.838 1.803,0.624 -0.065,0.946 -0.01,2.16 -0.01,2.16 1.056,-0.613 3.55,-3.557 4.253,-3.027 0.545,0.512 0.984,1.578 0.996,3.235 -0.063,3.243 -1.898,6.22 -4.806,7.192 -8.028,2.486 -13.412,-6.772 -7.837,-12.643 0.554,-0.582 2.132,-1.663 2.89,-1.45 0.94,1.717 0.907,3.62 1.345,5.312 z m 79.654,-2.91 c 0.467,1.277 1.064,2.54 2.69,3.113 -0.25,39.224 -0.063,108.67 -0.063,108.67 l 7.89,7.4 -0.053,3.235 -10.454,-9.57 c 0,0 -0.56,-81.896 -0.01,-112.848 z m 7.833,1.817 c 0.28,3.794 -0.362,7.79 0.29,11.687 0.642,2.695 1.616,5.125 1.696,7.777 0.073,2.425 -0.085,3.805 -1.122,7.192 -0.723,2.364 -0.795,2.74 -0.962,5.104 -0.39,3.29 0.673,6.272 1.49,8.894 1.083,3.476 0.78,7.68 -0.953,13.224 -0.625,1.995 -0.745,2.837 -0.654,4.645 0.24,3.796 1.597,7.405 2.287,11.132 0.373,2.135 -0.01,4.928 -1.325,9.667 -0.49,1.762 -1.005,4.832 -1.005,5.993 0,1.245 0.398,3.59 0.783,4.602 1.824,4.794 1.913,5.653 2.007,8.534 0.013,2.164 -0.61,4.353 -1.38,6.257 -1.277,3.042 -0.437,6.166 0,9.585 l -3.143,-2.687 c -0.928,-2.926 -0.602,-5.663 0.26,-7.845 1.222,-3.418 1.528,-3.735 1.51,-5.7 -0.02,-2.608 -1.516,-5.69 -2.135,-7.525 -1.097,-3.255 -1.1,-6.447 -0.01,-9.89 0.536,-1.69 1.31,-5.005 1.484,-6.35 0.334,-2.587 0.08,-4.63 -1.22,-9.822 -0.632,-2.533 -0.766,-3.51 -0.81,-6.032 -0.042,-2.334 0.298,-4.763 1.048,-7.578 1.08,-4.474 1.068,-7.16 -0.338,-11.31 -1.137,-3.43 -1.455,-5.757 -1.165,-8.488 0.168,-1.584 0.6,-3.07 1.33,-4.553 1.346,-3.363 1.552,-6.58 0.55,-9.792 -1.723,-6.572 -1.695,-9.912 -1.525,-15.845 z m -8.837,2.15 c -0.274,26.88 0,57.656 0,57.656 0,0 -7.964,5.576 -7.93,5.286 -10.262,-16.92 -14.173,-41.844 3.75,-64.324 0,0 2.884,1.23 4.175,1.382 z m -121.11,6.408 c 14.52,27.115 16.41,54.508 -7.6,82.61 0.773,2.485 0.646,4.8 0.26,7.066 4.682,-3.644 42.222,-41.14 10.606,-93.347 z m 74.003,-2.207 7.133,0.42 0.48,6.135 -2.306,2.286 c 0,0 -0.043,-1.267 -0.073,-2.4 -0.036,-1.388 -0.232,-2.6 -0.36,-2.558 -0.12,0.04 -0.252,1.658 -0.354,3.422 l -0.107,2.634 -0.798,0.798 c -1.064,1.062 -1.28,0.98 -1.32,-0.517 -0.09,-3.255 -0.08,-3.478 -0.32,-3.24 -0.133,0.134 -0.208,1.248 -0.24,2.93 -0.026,1.335 -0.12,2.614 -0.208,2.84 -0.18,0.467 -1.537,1.678 -1.88,1.678 -0.33,0 -0.312,-0.47 -0.315,-2.494 0,-1.707 -0.18,-2.645 -0.455,-2.015 -0.065,0.148 -0.18,1.844 -0.203,3.223 -0.024,1.378 -0.114,2.637 -0.198,2.794 -0.296,0.553 -1.697,1.737 -1.943,1.643 -0.353,-0.136 -0.44,-1.15 -0.43,-2.842 0.01,-0.83 0.136,-1.53 -0.183,-1.755 -0.32,-0.225 -0.376,0.735 -0.29,3.17 l -0.024,2.65 -0.894,0.976 c -1.42,1.46 -1.516,1.39 -1.52,-1.132 0.064,-1.994 -0.01,-2.87 -0.4,-2.71 -0.394,0.157 -0.237,1.12 -0.16,3.087 0.07,1.758 0.047,2.638 -0.072,2.862 -0.096,0.177 -0.555,0.696 -1.02,1.15 -0.465,0.454 -1.04,1.083 -1.107,1.083 -0.107,-2.118 -0.29,-6.675 -0.29,-6.675 l -7.438,-0.33 c 0,0 1.523,-1.807 2.17,-2.155 0.336,-0.18 0.862,-0.202 2.726,-0.12 1.272,0.054 2.98,-0.054 3.133,-0.112 0.56,-0.214 -0.605,-0.406 -2.247,-0.512 -1.096,-0.08 -1.38,-0.05 -2.596,-0.227 l 1.083,-1.118 0.812,-0.807 2.373,0.077 c 1.436,0.05 2.503,0.04 2.668,-0.053 1.405,-0.278 0.09,-0.598 -1.512,-0.6 -1.562,0 -2.445,-0.01 -2.445,-0.348 0,-0.35 1.75,-1.937 2.247,-2.04 0.258,-0.053 1.53,-0.106 2.828,-0.116 2.23,-0.018 3.04,-0.05 2.915,-0.42 -0.126,-0.37 -1.603,-0.262 -2.586,-0.305 -2.732,0 -2.858,-0.106 -0.992,-1.74 l 0.904,-0.792 1.71,0.05 c 2.583,0.07 3.834,-0.032 3.834,-0.277 0,-0.22 -1.68,-0.434 -3.108,-0.434 -0.854,0 -1.547,0.015 -1.547,0.015 0.64,-0.83 1.323,-1.503 2.07,-2.242 l 2.305,-0.044 c 1.683,0.026 2.717,0.09 2.746,-0.217 0.03,-0.307 -0.602,-0.305 -1.377,-0.31 -1.047,-0.01 -2.29,-0.096 -2.455,-0.26 -0.177,-0.177 0.153,-0.67 0.884,-1.325 l 0.754,-0.68 z m -70.617,0.08 c 19.952,32.594 12.75,67.814 -9.498,89.736 l -0.653,-4.277 c 21.002,-25.543 24.67,-51.914 7.678,-82.944 z m 37.106,4.377 c -3.582,5.386 -9.06,10.7 -11.127,15.098 -0.424,0.495 -0.562,1.61 -1.22,1.834 -0.327,0 -0.434,-0.623 -0.352,-2.06 0.062,-1.083 0.163,-1.447 0.687,-2.504 2.827,-5.16 6.103,-8.87 9.72,-13.77 z m 0.84,0.52 3.31,0.212 c -0.735,2.34 -1.728,4.013 -2.9,5.533 -1.502,1.95 -3.31,3.914 -5.415,6.312 -3.05,3.473 -4.577,7.01 -4.435,8.564 -0.763,0.803 -1.292,1.357 -2.26,2.18 l -1.932,-1.775 c 1.432,-7.345 8.366,-14.093 13.632,-21.027 z m 40.51,2.984 1.073,0.064 c 3.672,0.215 5.962,0.44 6.094,0.6 0.082,0.098 0.19,0.662 0.242,1.25 0.08,0.897 0,1.493 -0.47,3.626 -0.31,1.404 -0.658,2.65 -0.772,2.765 -0.423,0.43 -0.59,0 -0.788,-1.99 -0.12,-1.204 -0.166,-2.08 -0.324,-1.983 -0.075,0.047 -0.24,1.338 -0.193,2.3 0.122,2.508 0.106,3.12 -0.673,3.877 -1.364,1.323 -1.44,1.19 -1.542,-1.16 -0.043,-0.975 -0.275,-2.397 -0.343,-2.466 -0.296,-0.295 -0.394,1.056 -0.396,3.34 l 0,2.436 -0.648,0.706 c -0.845,0.916 -1.12,1.055 -1.43,0.744 -0.193,-0.192 -0.122,-0.61 -0.122,-2 0,-1.632 -0.285,-2.57 -0.594,-2.258 -0.058,0.06 -0.073,1.637 -0.078,3.01 0,1.376 -0.02,2.592 -0.038,2.703 -0.05,0.33 -1.597,1.885 -1.876,1.885 -0.325,0 -0.584,-1.795 -0.584,-3.262 0,-0.98 -0.21,-1.153 -0.416,-0.614 -0.052,0.134 -0.092,1.51 -0.092,2.745 l 0,2.242 -0.91,0.938 c -1.214,1.257 -1.412,1.184 -1.415,-0.537 0,-1.483 -0.102,-2.267 -0.4,-2.267 -0.173,0 -0.214,0.702 -0.214,2.37 0,1.14 -0.075,2.272 -0.165,2.512 -0.09,0.24 -0.49,0.765 -0.885,1.17 -0.396,0.404 -0.802,0.734 -0.903,0.734 -0.168,0 -0.407,-1.405 -0.344,-2.01 0.014,-0.128 0.014,-1.013 0,-1.968 -0.032,-2.278 0.123,-2.18 -3.514,-2.296 -4.268,-0.133 -4.33,-0.16 -3.046,-1.4 1.22,-1.18 1.048,-1.137 3.877,-0.95 2.272,0.153 2.547,0.143 2.775,-0.086 0.14,-0.14 0.217,-0.29 0.174,-0.333 -0.044,-0.045 -0.91,-0.124 -1.925,-0.18 -2.81,-0.155 -3.054,-0.358 -1.865,-1.547 l 0.672,-0.676 2.875,0 c 1.94,0 3.262,-0.086 3.333,-0.202 0.187,-0.3 -0.583,-0.377 -2.43,-0.485 -0.99,-0.058 -1.923,-0.14 -2.072,-0.183 -0.47,-0.14 -0.295,-0.613 0.498,-1.354 l 0.763,-0.715 2.537,0 c 2.356,0 3.51,-0.154 3.51,-0.464 0,-0.22 -0.47,-0.308 -1.678,-0.324 -1.712,-0.022 -2.853,-0.187 -2.93,-0.42 0.417,-0.808 0.993,-1.26 1.667,-1.934 l 2.58,0.092 c 2.6,0.092 3.414,0 3.414,-0.454 0,-0.236 -1.11,-0.407 -2.55,-0.32 -0.928,0.057 -2.05,-0.165 -2.05,-0.492 0,-0.14 0.372,-0.63 0.83,-1.083 l 0.837,-0.823 2.528,0.102 c 1.41,0.056 2.914,0.04 3.026,-0.035 0.42,-0.287 -0.553,-0.512 -2.14,-0.604 -2.45,-0.14 -2.61,-0.332 -1.315,-1.556 z m -88.143,1.355 c 13.096,23.45 11.134,45.545 -2.813,64.348 -1.602,-0.933 -3.308,-1.44 -5.133,-1.634 l -0.353,-56.625 z m 93.668,9.164 c 0.263,-0.042 0.258,0.39 0.185,1.3 -0.06,0.73 -0.17,1.496 -0.247,1.7 -0.15,0.396 -0.27,0.414 -1.542,0.233 -1.448,-0.207 -1.427,-0.47 0.165,-2.035 0.77,-0.76 1.21,-1.163 1.44,-1.2 z m -70.312,1.053 c 0,0 1.726,-0.012 2.588,0.02 0,0 0.134,4.387 0.486,6.92 l 5.613,0.268 -2.18,2.268 -4.256,-0.136 c 0,0 -1.295,-6.23 -2.252,-9.34 z m 66.89,2.653 c 0.79,-0.013 2.866,0.343 3.11,0.585 0.188,0.19 0.195,0.66 0.028,3.49 -0.06,1.022 -0.122,3.214 -0.136,4.873 -0.024,3.003 -0.025,3.015 -0.372,3.064 -0.457,0.065 -0.51,-0.095 -0.633,-2.073 -0.07,-1.114 -0.223,-2.09 -0.353,-2.132 -0.15,-0.05 -0.135,0.933 -0.135,2.963 l 0,2.625 c -0.447,0.37 -0.86,0.86 -1.373,1.12 -0.314,0 -0.482,-0.492 -0.638,-1.865 -0.154,-1.363 -0.305,-2.324 -0.488,-2.02 -0.043,0.07 -0.025,1.556 0.063,2.774 l 0.16,2.218 -0.986,0.99 c -1.01,1.02 -1.138,1.104 -1.3,0.842 -0.377,-1.01 0.157,-5.64 -0.754,-6.226 -0.146,-0.077 -1.356,-0.11 -2.76,-0.17 -2.37,-0.1 -3.715,-0.138 -4.045,-0.424 -0.2,-0.173 0.918,-1.47 1.493,-1.73 0.414,-0.188 0.883,-0.2 2.837,-0.068 2.262,0.15 3.404,0.135 3.103,-0.155 -0.078,-0.075 -1.23,-0.244 -2.13,-0.333 -1.82,-0.18 -2.46,-0.364 -2.46,-0.7 0.422,-0.753 0.94,-1.195 1.565,-1.838 l 0.88,0.092 c 0.483,0.048 1.627,0.17 2.542,0.275 0.914,0.105 2.76,0.122 2.015,0.058 0.242,-0.24 -0.7,-0.49 -2.01,-0.65 -2.468,-0.307 -2.692,-0.586 -1.45,-1.81 l 0.763,-0.748 c 1.296,0.098 2.606,0.13 3.89,0.33 0.942,0.148 1.45,0.095 1.45,-0.224 0,-0.223 -0.468,-0.214 -1.603,-0.44 -0.413,-0.08 -2.537,-0.05 -2.572,-0.676 0.5,-0.694 1.4,-1.96 2.3,-2.016 z m -57.518,5.322 c 0.377,-0.02 0.396,0.897 0.435,3.32 0.044,2.655 0.087,3.113 0.315,3.34 0.217,0.218 0.762,0.293 3.093,0.41 3.57,0.182 3.66,0.234 2.402,1.446 -0.875,0.844 -0.913,0.737 -1.633,0.653 -1.886,-0.22 -4.644,-0.17 -4.752,0 -0.186,0.3 0.016,0.362 1.74,0.493 2.1,0.16 2.673,0.234 2.673,0.59 0,0.156 -0.357,0.617 -0.792,1.024 l -0.792,0.74 -2.21,-0.088 c -2.324,-0.094 -3.518,-0.127 -3.518,0.188 0,0.19 1.327,0.402 3.432,0.61 0.546,0.053 1.106,0.062 1.136,0.154 0.075,0.23 -0.988,1.546 -1.644,2.035 -0.533,0.397 -0.713,0.175 -3.045,0.124 -2.38,-0.05 -2.586,0.04 -2.142,0.48 0.106,0.104 0.5,0.116 1.387,0.178 1.457,0.102 2.156,0.32 2.156,0.68 0,0.346 -1.312,1.706 -1.928,1.998 -0.542,0.257 -0.775,0.27 -1.976,0.1 -0.947,-0.13 -1.127,-0.33 -1.102,-1.217 l 0.154,-5.766 c 0.142,-5.354 0.186,-5.626 0.894,-5.525 0.303,0.043 0.374,0.408 0.455,2.223 0.086,1.933 0.167,2.316 0.488,2.316 0.12,0 0.138,-0.766 0.063,-2.63 -0.118,-2.89 -0.122,-3.318 0.76,-4.156 0.39,-0.372 0.703,-0.67 0.888,-0.4 0.373,1.14 0.267,2.384 0.377,3.528 -0.01,1.15 0.437,1.392 0.54,0.295 -0.05,-1.74 -0.065,-3.3 -0.076,-5.158 l 1.073,-1.064 c 0.566,-0.562 0.924,-0.915 1.15,-0.928 z m -6.955,2.165 c 0.426,-0.07 2.815,-0.03 3.16,0.05 -0.6,0.95 -1.88,2.184 -2.754,2.73 -0.22,0.012 -0.447,-2.305 -0.405,-2.78 z m 67.654,5.254 0.507,3.572 -3.9,-0.267 z m -52.56,0.58 c 0.026,0 0.05,0 0.068,0.01 0.28,0.108 0.36,0.797 0.473,4.113 0.054,1.562 0.16,2.784 0.258,2.9 0.112,0.136 0.598,0.203 1.503,0.203 0.735,0 2.118,0.047 3.075,0.102 2.087,0.12 2.142,0.208 0.9,1.435 l -0.842,0.832 -2.615,-0.107 c -2.68,-0.11 -3.127,-0.064 -3.127,0.305 0,0.25 0.458,0.37 1.315,0.348 0.34,-0.01 1.193,0.036 1.895,0.1 1.566,0.147 1.598,0.266 0.43,1.524 l -0.84,0.904 -0.818,-0.11 c -1.313,-0.182 -4.764,-0.138 -4.964,0.06 -0.32,0.323 0.097,0.462 1.668,0.557 2.437,0.15 2.86,0.22 2.86,0.498 0,0.136 -0.343,0.592 -0.762,1.01 l -0.76,0.76 -3.093,-0.16 c -2.167,-0.036 -2.908,0 -2.957,0.14 -0.084,0.245 0.272,0.32 2.51,0.552 2.146,0.222 2.46,0.443 1.642,1.46 -0.896,1.115 -1.233,1.24 -2.924,1.077 -1.86,-0.18 -3.76,-0.185 -4.035,-0.01 -0.428,0.27 0.012,0.453 1.334,0.55 2,0.15 3.17,0.365 3.17,0.658 0,0.332 -0.663,1.183 -1.305,1.673 l -0.527,0.402 -2.286,-0.242 c -2.277,-0.242 -3.442,-0.122 -3.118,0.203 0.094,0.095 0.942,0.227 1.88,0.295 1.718,0.124 2.572,0.347 2.572,0.7 0,0.107 -0.438,0.627 -0.972,1.156 -0.54,0.537 -1.15,0.893 -1.15,0.893 l -7.037,-0.632 c 0,0 -0.36,-1.256 0.347,-4.67 0.637,-3.076 0.898,-3.766 1.204,-3.194 0.085,0.16 0.163,0.907 0.222,1.417 0.142,1.235 0.446,2.01 0.63,2.01 0.203,0 0.202,-0.733 -0.064,-2.46 -0.37,-2.406 -0.414,-2.5 0.502,-3.47 0.786,-0.83 1.23,-1.026 1.475,-0.647 0.068,0.106 0.163,1.196 0.256,2.112 0.163,1.61 0.258,1.978 0.468,1.77 0.135,-0.136 0.235,-0.597 0.087,-2.983 l -0.19,-2.322 1.03,-1.048 c 0.942,-0.96 1.05,-1.026 1.238,-0.78 0.13,0.17 0.275,1.168 0.343,2.355 0.102,1.756 0.242,2.335 0.498,2.08 0.12,-0.123 0.062,-4.11 -0.068,-5.033 -0.084,-0.603 -0.042,-0.69 0.72,-1.547 0.91,-1.02 1.386,-1.44 1.634,-1.445 0.327,-0.01 0.506,0.994 0.508,2.325 0,1.42 0.113,1.982 0.246,2.16 0.34,0.458 0.38,-1.145 0.3,-2.73 l -0.092,-2.89 0.938,-0.938 c 0.887,-0.888 0.96,-0.927 1.208,-0.677 0.206,0.206 0.193,0.697 0.276,2.156 0.124,2.017 0.52,3 0.633,1.6 0.06,-0.317 0.05,-0.934 -0.02,-1.373 -0.07,-0.44 -0.127,-1.435 -0.125,-2.21 0,-1.18 0.06,-1.495 0.348,-1.962 0.417,-0.673 1.644,-1.724 2.03,-1.763 z m 40.654,2.2 c 0,0 1.57,1.342 1.57,1.725 0,0.17 -0.62,0.908 -1.463,1.735 -1.553,1.524 -1.7,1.786 -1.88,3.422 -0.067,0.61 -0.374,1.418 -1.092,2.86 -0.55,1.107 -1.344,2.398 -1.344,2.398 -2.48,2.962 -4.818,5.676 -9.165,11.93 -0.25,0.575 -0.262,1.15 -0.516,1.628 -0.196,0.354 -0.634,0.645 -0.828,0.725 -0.286,0.12 -0.86,0.477 -1.276,0.794 -1.623,1.24 -2.67,2.87 -3.14,4.9 -0.257,1.098 -0.408,2.084 -0.852,5.468 -0.182,1.39 -0.793,3.813 -0.793,3.813 -9.34,-0.132 -18.082,1.486 -25.877,5.885 z m 12.48,1.435 2.08,9.44 -2.142,-0.044 -0.213,-6.854 -6.68,-0.638 2.387,-2.31 z m -10.135,0.865 c 0.57,0.583 1.283,1.223 1.802,1.856 -1.786,5.97 -7.443,13.718 -13.06,21.403 l -4.12,-0.45 c -0.07,-0.168 5.706,-8.223 8.47,-11.276 1.053,-1.275 1.77,-2.484 2.708,-4.363 0.34,-0.68 0.934,-2.44 1.39,-4.274 0.972,-1.17 2.815,-2.878 2.81,-2.896 z m 2.217,2.093 3.113,3.156 0.76,44.693 c -4.8,-3.77 -10.46,-6.56 -16.493,-8.684 l 1.053,-2.402 1.16,-1.247 c 4.104,-4.44 3.19,-9.222 0.068,-12.6 3.803,-5.547 7.248,-9.678 10.146,-15.09 l -0.04,-3.714 c -0.033,-3.42 0.233,-4.113 0.233,-4.113 z m -37.242,1.866 c 0.326,-0.033 0.367,0.793 0.45,3.137 0.077,2.19 0.17,3.228 0.314,3.456 0.194,0.304 0.38,0.33 2.967,0.41 2.73,0.083 3.296,0.16 3.296,0.454 0,0.083 -0.35,0.503 -0.778,0.933 l -0.778,0.778 -2.432,-0.04 c -1.295,0.043 -2.826,0.017 -2.866,0.054 -0.216,0.2 0.593,0.47 1.778,0.473 0.737,0 1.91,0.132 2.045,0.184 0.46,0.177 0.244,0.63 -0.76,1.595 l -1,0.967 -2.21,-0.045 c -1.212,-0.022 -2.688,0.014 -2.88,0.077 -0.67,0.224 -0.337,0.406 0.774,0.42 1.858,0.026 3.14,0.18 3.195,0.47 0.027,0.14 -0.318,0.656 -0.774,1.145 l -0.826,0.885 -3.248,-0.135 c -3.07,0.022 -3.486,0.25 -0.923,0.507 0.98,0.098 2.522,0.34 2.577,0.348 0.055,0.01 0.142,0.124 0.193,0.256 0.108,0.28 -1.13,1.675 -1.788,2.016 -0.34,0.175 -0.576,0.187 -1.165,0.053 -0.692,-0.157 -3.668,-0.128 -3.988,0.063 -0.27,0.16 0.314,0.346 1.14,0.362 1.243,0.026 2.726,0.385 2.726,0.682 0,0.243 -0.63,1.024 -1.3,1.61 -0.31,0.27 -1.048,0.028 -3.103,0.096 -1.407,0.046 -2.344,0.178 -2.344,0.27 0,0.086 0.697,0.362 1.594,0.426 0.888,0.064 2.107,0.276 2.19,0.358 0.208,0.21 -1.373,2.076 -1.373,2.076 l -6.753,-0.095 -0.622,-7.153 0.575,-0.662 c 1.292,-1.493 1.574,-1.276 1.832,1.4 0.19,1.963 0.33,2.563 0.613,2.278 0.104,-0.104 0.062,-1.223 -0.043,-2.87 -0.086,-1.356 -0.16,-2.593 -0.16,-2.747 0,-0.37 1.536,-1.985 1.837,-1.927 0.294,0.057 0.46,0.725 0.618,2.557 0.13,1.505 0.2,1.916 0.498,1.62 0.138,-0.14 0.158,-0.928 0.02,-2.833 l -0.185,-2.49 0.654,-0.773 c 1.31,-1.552 1.566,-1.38 1.725,1.14 0.107,1.7 0.27,2.596 0.584,2.596 0.105,0 0.108,-1.27 0.044,-3.19 l -0.097,-2.88 0.818,-0.832 c 0.45,-0.455 0.91,-0.826 1.015,-0.826 0.318,0 0.5,0.723 0.7,2.43 0.226,1.915 0.3,2.244 0.484,2.06 0.08,-0.078 0.062,-1.237 -0.043,-2.726 l -0.227,-2.852 0.995,-1.01 c 0.55,-0.554 1.1,-0.986 1.223,-0.962 0.3,0.058 0.494,0.92 0.517,2.14 0.022,1.14 0.216,2.122 0.47,2.374 0.124,0.126 0.16,-0.575 0.13,-2.61 -0.05,-3.13 -0.13,-3.37 1.28,-4.838 0.377,-0.392 0.623,-0.645 0.793,-0.662 z m 36.463,1.28 0.03,4.37 c -1.752,3.75 -5.8,9.243 -9.904,15.14 l -2.14,-1.16 c 5.133,-6.73 9.425,-13.003 12.014,-18.35 z m -58.62,1.373 c 0.097,0 0.204,0 0.324,0.01 1.108,0.064 1.138,0.446 0.107,1.41 -0.433,0.405 -0.925,0.725 -1.113,0.725 -0.32,0 -0.335,-0.047 -0.237,-0.88 0.12,-1.023 0.245,-1.26 0.92,-1.266 z m 66.9,3.15 3.027,2.978 0.758,32.008 -3.185,5.194 z m 3.79,4.22 c 2.728,6.418 5.562,12.437 8.7,17.317 l -8.09,11.42 z m -27.212,9.977 c 3.72,-0.052 7.143,2.89 7.574,5.882 0.813,3.433 -0.956,7.133 -3.86,8.27 -1.01,0.362 -1.603,0.387 -1.603,0.387 -0.353,-2.07 -0.2,-4.066 -0.67,-6.17 0,0 -1.74,2.297 -2.72,3.1 -0.51,0.282 -0.737,0.357 -0.67,-0.308 0.033,-1.164 0.122,-3.744 0.122,-3.744 l -4.298,4.447 c 0,0 -0.35,-0.483 -0.764,-1.59 -1.35,-3.614 0.403,-7.387 3.17,-9.12 1.207,-0.793 2.478,-1.14 3.718,-1.156 z m 57.17,-0.27 0.082,3.912 c -6.744,5.227 -16.364,16.245 -24.607,30.604 l -3.63,1.53 c 5.594,-13.364 17.4,-26.975 28.156,-36.048 z m 0.074,5.144 0.07,5.833 c -5.95,5.72 -11.12,11.63 -15.62,19.238 -2.627,1.262 -7.493,3.66 -7.493,3.66 -0.61,-0.15 13.256,-21.734 23.043,-28.73 z m -60.027,4.995 c 0.272,0 0.258,0.523 0.173,1.283 -0.193,1.72 -0.395,2.346 -1.025,3.185 -2.18,2.573 -5.642,6.073 -6.113,9.33 -0.24,1.737 1.12,3.365 2.452,3.198 4.143,-0.517 4.588,-7.878 4.937,-11.51 0.146,-0.9 0.213,-1.656 0.362,-1.94 0.873,-1.115 1.81,-2.2 2.99,-3.08 l 0.507,5.627 2.334,-0.78 c -6.582,8.947 -4.69,9.508 -8.163,13.173 -3.227,3.406 -9.487,-0.474 -7.885,-5.652 1.392,-3.484 3.547,-6.98 4.13,-10.712 0.157,-1.11 0.25,-1.878 0.25,-1.878 l 1.496,3.123 c 0.76,-0.75 2.983,-3.233 3.555,-3.365 z m 60.272,1.93 -0.015,4.018 c -3.07,3.456 -5.718,6.11 -8.854,10.888 l -4.98,2.272 c 3.25,-6.194 8.585,-11.99 13.85,-17.177 z m -60.857,3.545 c 0,0 0.33,1.875 -0.398,5.28 -0.345,1.616 -1.9,6.33 -4.356,5.22 -2.086,-1.843 0.456,-5.26 1.737,-6.877 0.992,-1.16 2.066,-2.414 3.018,-3.623 z m -6.555,0.482 -1.36,2.905 c -12.202,0.044 -24.053,4.41 -34.602,13.32 l -2.667,-0.874 c 11.176,-10.57 25.03,-15.708 38.63,-15.35 z m 12.828,2.233 c 13.753,4.604 20.103,11.323 25.305,18.37 l -2.175,1.115 c -5.45,-7.054 -12.178,-13.51 -24.705,-17.243 z m -15.756,4.345 -0.585,2.49 c -7.702,0.23 -15.83,2.963 -23.738,8.453 l -2.852,-0.454 c 7.96,-6.247 17.05,-9.813 27.174,-10.49 z m 35.197,16.816 -2.44,1.153 c -7.29,-9.457 -13.88,-12.15 -21.37,-14.558 l 0.808,-2.097 c 10.063,2.67 17.446,7.778 23.003,15.5 z m -101.634,-11.15 0.21,25.233 -1.756,-0.352 -0.25,-24.403 z m -4.07,1.368 c -3.35,12.552 -0.752,15.802 0.46,23.126 l -2.774,-0.444 c -2.7,-7.42 -2.978,-14.17 -0.7,-22.05 z m 84.293,1.927 c 0.208,0.2 -0.17,0.817 -0.688,1.123 -0.5,0.295 -0.39,0.25 -1.19,-0.04 -0.777,-0.28 -1.768,-1.015 -1.768,-1.294 0.567,0.01 3.147,-0.02 3.645,0.21 z m 2.362,0.18 c 0.46,0.056 1.786,0.03 1.87,0.445 0.03,0.248 -0.49,0.65 -1.556,1.377 -1.618,1.106 -2.168,1.323 -2.644,0.798 -0.45,-0.497 -0.318,-1.012 0.44,-1.71 0.74,-0.682 1.166,-0.913 1.89,-0.91 z m -55.242,0.276 c 0.927,0 2.586,1.146 3.587,2.474 1.013,1.588 2.18,3.218 3.122,4.824 2.14,3.65 3.793,7.354 5.176,11.146 3.623,9.016 5.75,17.758 7.516,26.444 -0.033,0.732 -0.668,0.72 -1.19,0.546 -0.27,-0.087 -0.54,-0.268 -0.594,-0.406 -0.75,-2.127 -1.008,-4.303 -1.58,-6.438 -1.43,-5.34 -1.943,-8.4 -4.698,-15.93 -1.43,-3.91 -3.5,-9.35 -5.762,-13.53 -1.45,-2.68 -3.127,-5.157 -5.302,-7.347 -0.576,-0.573 -1.29,-1.097 -1.29,-1.21 0,-0.37 0.36,-0.574 1.014,-0.574 z m 58.77,0.29 c 0.86,0.21 2.933,0.454 2.147,1.14 -2.915,1.12 -3.86,2.336 -5.404,3.572 -0.234,0 -1.155,-1.142 -1.155,-1.42 1.253,-1.54 2.833,-2.2 4.413,-3.292 z m -54.555,0.01 c 1.218,-0.044 2.41,1.53 2.973,2.522 3.747,5.514 6.955,13.378 9.594,21.084 2.84,8.295 4.645,16.27 5.428,21.93 -0.067,0.175 -0.42,0.24 -0.822,0.237 -0.767,-0.01 -0.876,-0.184 -1.073,-0.794 -1.954,-9.362 -4.577,-19.025 -7.752,-27.227 -1.706,-4.373 -3.64,-8.762 -6.36,-13.168 -1.857,-2.72 -2.91,-4.147 -2.83,-4.36 0.057,-0.144 0.363,-0.217 0.72,-0.217 0.04,0 0.083,-0.01 0.122,-0.01 z m -8.376,0.164 c 1.643,0 4.363,1.945 6.21,4.45 3.915,5.37 6.157,11.64 8.482,17.726 2.67,6.972 4.597,14.722 5.747,20.822 0.195,0.875 0.515,1.258 -0.31,1.532 -1.25,-0.356 -1.222,-0.32 -1.576,-1.84 -0.486,-1.635 -0.635,-3.285 -1.097,-4.946 -2.64,-9.5 -5.597,-20.04 -10.508,-28.62 -5.9,-9.442 -7.617,-6.815 -8.566,-8.482 0.073,-0.376 0.73,-0.64 1.615,-0.642 z m 14.195,2.305 c 5.07,8.822 7.305,14.238 8.847,19.566 2.337,8.076 5.104,14.524 6.32,23.95 0,0 -1.332,0.026 -1.866,-0.192 -0.22,-0.22 -0.455,-1.162 -0.594,-1.934 -1.217,-6.657 -3.2,-14.534 -5.307,-20.74 -2.27,-6.91 -4.973,-13.48 -8.966,-19.827 -1.048,-1.71 -1.247,-2.383 -0.606,-2.412 1.144,0.078 1.647,0.958 2.17,1.59 z m 52.82,-0.942 c 0.235,0 0.33,-0.032 0.76,0.116 0.67,0.23 0.884,0.376 0.922,0.64 0.055,0.388 -0.36,0.515 -1.658,0.818 -1.02,0.24 -3.01,1.3 -4.395,2.45 -0.642,0.535 -1.194,1.108 -1.348,1.108 -0.318,0 -1.078,-0.836 -1.078,-1.184 1.058,-1.62 4.43,-3.84 6.795,-3.95 z m -69.858,0.217 c 4.29,0.13 7.65,5.116 9.41,8.478 0.686,1.316 1.576,2.746 2.248,4.25 3.484,7.786 6.44,17.554 7.883,23.794 0.695,3.002 1.497,5.204 1.214,5.79 -0.354,0.224 -1.1,0.054 -1.446,-0.236 -0.22,-0.186 -0.34,-0.873 -0.73,-2.127 -1,-3.216 -2.658,-12.408 -6.98,-22.066 -0.096,-0.216 -2.187,-6.326 -5.8,-12.122 -1.47,-2.36 -3.848,-3.843 -6.017,-4.326 -1.092,-0.178 -1.417,-0.05 -1.35,-0.638 0.043,-0.375 0.16,-0.478 0.745,-0.663 0.26,-0.082 0.533,-0.127 0.822,-0.135 z m 26.825,19.92 c -0.294,0 -0.553,-0.56 -0.75,-1.48 -0.095,-0.452 -0.227,-0.774 0.62,-1.305 5.324,-5.662 0.746,-13.975 -5.945,-14.7 -0.62,-0.093 -1.42,-0.095 -1.653,-0.182 -0.34,-0.192 -0.963,-1.396 -1.234,-1.88 9.248,-2.242 19.063,10.996 8.962,19.546 z m 46.068,-18.5 c 0.55,0.14 1.75,1.253 1.6,1.495 -0.18,0.29 -1.217,0.3 -2.71,0.565 -3.182,0.564 -4.545,2.636 -6.024,4.176 -0.328,0.1 -0.62,-0.128 -0.913,-0.628 -0.217,-0.37 -0.392,-0.812 -0.392,-0.986 1.654,-2.407 6.08,-4.84 8.44,-4.62 z m -75.068,0.712 c 2.703,0 5.405,1.31 6.926,3.446 5.55,8.307 11.785,26.77 13.273,35.88 -0.15,0.292 -0.545,0.323 -1.314,0.1 -0.43,-0.124 -0.377,-0.26 -0.648,-1.106 -1.743,-6.636 -3.654,-13.077 -5.9,-18.986 -1.16,-3.046 -2.522,-6.022 -3.805,-8.696 -0.813,-1.69 -2.445,-4.7 -3.065,-5.62 -1.46,-2.743 -4.408,-3.547 -6.267,-2.66 -1.922,1.04 -2.164,3.524 -0.7,4.627 1.215,0.85 3.133,0.71 3.836,-0.605 0.24,-0.465 0.165,-1.043 0.01,-1.19 -0.15,-0.14 -0.423,-0.1 -0.48,0.054 0.1,1.615 -1.958,1.718 -2.857,1.083 -1.437,-1.075 -0.48,-4.472 3.432,-3.104 1.51,0.793 2.016,2.296 1.3,3.89 -0.732,1.633 -1.867,2.375 -3.62,2.364 -2.127,-0.038 -4.54,-1.53 -4.558,-4.215 0.01,-2.003 0.934,-3.67 2.673,-4.785 0.644,-0.413 0.897,-0.478 1.764,-0.478 z m 22.896,1.247 c 6.56,0.3 9.575,8.023 6.124,12.682 -0.88,1.113 -1.437,0.91 -1.813,-0.527 -0.185,-0.59 -0.39,-0.68 0.14,-1.136 3.072,-2.945 0.548,-8.668 -4.515,-8.9 0,0 -0.945,-1.376 -1.04,-2.107 0.34,-0.122 0.794,-0.015 1.103,-0.014 z m 54.71,0.53 c 0.498,0.122 1.55,1.134 1.55,1.49 0,0.42 -0.205,0.34 -1.37,0.14 -2.76,-0.494 -5.525,1.103 -7.832,4.586 -1.12,2.092 -1.257,1.894 -1.846,0.092 -0.302,-0.925 -0.307,-0.904 0.865,-2.61 2.19,-2.81 5.423,-4.092 8.633,-3.698 z m 2.566,3.543 c 2.308,2.097 1.232,6.716 -1.888,7.194 -2.75,0.317 -5.195,-2.657 -3.462,-4.68 1.126,-1.222 2.536,-1.347 3.403,-0.295 0.896,1.084 0.517,2.563 -0.76,2.716 -0.148,0.053 -0.27,0.17 -0.27,0.257 0,0.27 1.132,0.196 1.518,-0.116 0.776,-0.858 0.79,-2.166 0.096,-3.1 -0.612,-0.827 -1.922,-1.485 -2.97,-1.058 -1.852,0.662 -3.737,3.17 -4.815,6.332 -0.303,0.888 -0.48,1.723 -0.61,1.918 -0.263,0.403 -0.244,0.393 -0.488,0.237 -0.213,-0.137 -0.61,-2.072 -0.61,-2.81 0,-0.558 0.484,-2.037 1.123,-3.305 2.003,-3.724 6.51,-6.222 9.734,-3.292 z m -56.258,-0.937 c 2.687,0.162 4.813,3.967 3.644,6.617 -0.36,0.487 -0.882,0.818 -1.124,0.512 -0.087,-0.11 -0.5,-1.354 -1.073,-2.673 -0.572,-1.318 -1.1,-2.607 -1.262,-2.93 -0.426,-0.913 -0.735,-1.535 -0.184,-1.526 z m -18.254,2.21 c 3.06,5.42 5.62,11.636 7.743,17.704 1.654,4.728 3.01,9.365 3.79,13.466 0.073,0.414 0.176,0.63 -0.01,0.812 -0.3,0.3 -1.762,-0.447 -1.762,-0.447 -2.56,-8.818 -4.627,-17.66 -10.72,-28.89 0,0 -0.265,-0.446 -0.336,-0.738 -0.08,-0.703 0.124,-1.592 0.552,-2.09 0.173,-0.185 0.406,-0.198 0.738,0.183 z m -34.342,10.238 c 14.473,0.972 25.67,7.07 31.65,23.18 -2.126,-1.198 -12.904,-9.468 -31.486,-10.564 l -0.03,-2.234 c 13.32,-0.11 26.316,6.824 26.044,6.724 -4.955,-10.217 -17.407,-14.357 -26.218,-14.627 z m 100.415,3.256 c -0.912,1.43 -0.872,1.37 -1.31,2.605 0.05,0.4 0.124,2.898 0.184,4.355 0.076,1.857 0.128,2.666 0.275,2.842 0.248,0.3 0.752,0.347 0.97,0.077 0.088,-0.107 0.238,-0.507 0.34,-0.89 1.194,-4.513 1.756,-6.203 2.237,-6.762 0.317,-0.408 0.425,-0.37 1.736,-0.222 2.95,0.26 3.952,-3.255 2.025,-4.67 -2.58,-1.435 -5.317,0.97 -6.458,2.664 z m 3.114,0.958 c -2.11,1.735 -2.172,4.233 -2.81,6.534 -0.343,1.547 -0.827,2.362 -1.02,0.03 -0.36,-3.24 0.092,-5.657 1.496,-7.56 0.87,-1.397 2.296,-2.34 3.58,-2.43 2.76,-0.193 3.042,1.995 2.274,3.17 -0.557,0.853 -2.104,1.225 -3.52,0.256 z m -99.702,1.043 c 1.04,0 1.885,0.845 1.885,1.886 0,1.04 -0.844,1.885 -1.885,1.885 -1.04,0 -1.885,-0.843 -1.885,-1.884 0,-1.04 0.844,-1.885 1.885,-1.885 z m 6.008,1.29 c 0.93,0 1.687,0.753 1.687,1.683 0,0.93 -0.757,1.687 -1.687,1.687 -0.93,0 -1.682,-0.756 -1.682,-1.687 0,-0.93 0.75,-1.682 1.682,-1.682 z m 5.476,1.848 c 0.758,0 1.368,0.615 1.368,1.372 0,0.758 -0.61,1.373 -1.368,1.373 -0.758,0 -1.373,-0.615 -1.373,-1.373 0,-0.757 0.614,-1.372 1.372,-1.372 z m 3.886,2.46 c 0.585,0 1.06,0.478 1.06,1.063 0,0.586 -0.475,1.06 -1.06,1.06 -0.585,0 -1.063,-0.474 -1.063,-1.06 0,-0.584 0.478,-1.062 1.063,-1.062 z m -13.616,3.383 c -0.403,2.045 -0.087,4.146 0.382,5.594 1.073,3.12 0.585,8.706 0.585,8.706 l -3.143,3.145 c 0.225,-2.93 0.574,-6.01 0.412,-8.47 -0.113,-1.635 -0.852,-3.163 -1.044,-4.802 -0.178,-1.518 0.09,-4.556 0.09,-4.556 z m 5.09,0.942 0.11,13.323 -10.753,10.42 -0.016,-2.75 9.17,-9.09 -0.195,-12.346 z m 26.52,30.38 -0.704,1.15 12.132,0 0.256,-1.15 z m 15.705,0 -0.285,1.15 5.617,0 0.186,-1.15 c 0,0 -2.953,0 -5.52,0 z m 9.203,0 -0.18,1.15 20.853,0 -0.31,-1.15 z m 24.37,0 0.334,1.15 5.554,0 -0.46,-1.15 z m 9.286,0 0.406,1.15 9.546,0 -0.793,-1.15 z"
         id="path4561" />
    </g>
  </g>
</svg>
