<?xml version="1.0" encoding="UTF-8" standalone="no"?>
<!-- Created with Inkscape (http://www.inkscape.org/) -->

<svg
   xmlns:dc="http://purl.org/dc/elements/1.1/"
   xmlns:cc="http://creativecommons.org/ns#"
   xmlns:rdf="http://www.w3.org/1999/02/22-rdf-syntax-ns#"
   xmlns:svg="http://www.w3.org/2000/svg"
   xmlns="http://www.w3.org/2000/svg"
   xmlns:sodipodi="http://sodipodi.sourceforge.net/DTD/sodipodi-0.dtd"
   xmlns:inkscape="http://www.inkscape.org/namespaces/inkscape"
   width="63.281277mm"
   height="88.281372mm"
   viewBox="0 0 224.225 312.80801"
   id="svg20865"
   version="1.1"
   inkscape:version="0.91 r13725"
   sodipodi:docname="JH.svg">
  <defs
     id="defs20867" />
  <sodipodi:namedview
     id="base"
     pagecolor="#ffffff"
     bordercolor="#666666"
     borderopacity="1.0"
     inkscape:pageopacity="0.0"
     inkscape:pageshadow="2"
     inkscape:zoom="0.35"
     inkscape:cx="-462.88754"
     inkscape:cy="107.83257"
     inkscape:document-units="px"
     inkscape:current-layer="layer1"
     showgrid="false"
     fit-margin-top="0"
     fit-margin-left="0"
     fit-margin-right="0"
     fit-margin-bottom="0"
     inkscape:window-width="1600"
     inkscape:window-height="838"
     inkscape:window-x="-8"
     inkscape:window-y="-8"
     inkscape:window-maximized="1" />
  <metadata
     id="metadata20870">
    <rdf:RDF>
      <cc:Work
         rdf:about="">
        <dc:format>image/svg+xml</dc:format>
        <dc:type
           rdf:resource="http://purl.org/dc/dcmitype/StillImage" />
        <dc:title></dc:title>
      </cc:Work>
    </rdf:RDF>
  </metadata>
  <g
     inkscape:label="Calque 1"
     inkscape:groupmode="layer"
     id="layer1"
     transform="translate(-179.31611,-327.38677)">
    <g
       transform="translate(-2140.7144,-19.736738)"
       id="g13798">
      <rect
         style="fill:#ffffff;stroke:#000000;stroke-width:0.99699998"
         width="223.228"
         height="311.811"
         x="2243.739"
         y="483.93701"
         rx="10.63"
         ry="10.63"
         transform="translate(76.79,-136.315)"
         id="rect13800" />
      <path
         style="fill:#e2cf00"
         inkscape:connector-curvature="0"
         d="m 2512.614,383.79 -11.526,7.514 -0.16,8.762 c -6.834,-3.28 -9.805,-8.65 -10.88,-14.944 -1.935,2.438 -1.55,14.75 -1.55,14.75 -1.757,0.91 -2.4,2.1 -3.522,3.17 1.103,1.82 4.223,4.92 4.223,4.92 -0.023,-0.055 -1.43,12.818 0.273,13.33 1.558,-5.486 3.63,-10.273 11.266,-15.292 0,0 0.115,20.437 -0.374,40.182 -3.23,-2.224 -10.06,-6.218 -14.473,-10.304 5.722,-7.38 -0.112,-16.998 -8.65,-10.61 -5.535,-2.994 -6.385,-17.142 -7.754,-24.553 -0.264,-1.486 -1.552,-5.845 -1.552,-5.845 0,0 -18.236,-5.043 -26.067,-4.633 6.578,17.138 5.302,38.024 -23.806,41.937 -13.947,6.377 -30.06,13.487 -45.72,26.768 -2.884,19.775 -13.084,29.512 -20.286,34.898 0.052,8.014 -0.053,15.946 0.276,24.035 -0.01,0.05 6.574,-4.32 7.608,-3.515 5.5,35.74 25.637,42.827 23.623,43.818 -0.325,0.16 -6.6,6.608 -6.6,6.608 l -24.577,-16.19 c -0.843,24.712 -0.354,49.912 0,74.666 4.34,-2.453 12.316,-8.32 12.316,-8.32 l 0.12,-8.408 c -0.036,-0.8 11.178,7.004 11.205,16.3 0.872,0.593 2.785,-13.377 1.043,-14.89 l 4.596,-4.74 -4.95,-4.768 c 0,0 1.255,-7.91 -1.31,-12.467 -1.663,10.43 -10.323,13.683 -10.323,13.683 0,0 -0.17,-38.13 -0.393,-38.164 l 15.448,9.78 c -1.15,0.236 -4.092,5.704 -1.023,10.133 1.868,2.698 8.587,2.52 9.105,-0.587 9.5,8.853 5.843,19.438 9.998,31.997 l 26.96,4.946 c -11.112,-20.615 0.945,-44.102 22.763,-42.423 4.087,-1.702 7.787,-4.16 7.787,-4.16 0,0 -2.713,-4.434 -6.138,-8.548 l -46.698,-0.772 21.77,-40.815 -14.32,-0.46 c 0,0 11.637,-24.678 9.123,-26.666 -0.883,-0.698 -0.514,-8.655 -0.514,-8.655 l 12.79,0.476 c 0.505,-5.696 -6.186,-27.4 -15.627,-41.593 l 52.487,0.47 -29.548,41.21 15.87,0.456 -9.47,19.454 1.517,15.17 -14.08,0.457 c 2.427,21.035 18.052,43.196 23.544,50.04 9.082,-2.152 26.036,-15.127 36.557,-23.195 1.363,-14.115 6.223,-26.13 18.93,-35.094 l 0.038,-23.236 c 0,0 -7.252,4.682 -7.25,4.36 0.03,-5.03 -2.592,-15.5 -7.428,-24.832 -5.19,-10.013 -13.708,-19.083 -15.667,-19.65 4.506,-6.818 6.428,-7.43 6.364,-7.537 l 24.543,15.74 z m -123.706,49.547 c 0,0 -4.773,1.817 -8.92,1.76 -7.434,0.384 -13.104,0.983 -16.118,7.08 -0.613,1.856 0.73,2.54 1.716,3.025 5.604,-6.956 20.494,2.233 23.322,-11.865 z m -32.995,31.924 c 0,0.984 1.098,2.59 1.648,0.923 0.48,-1.19 0.576,-3.12 0.04,-4.306 -1.492,-0.84 -1.67,2.422 -1.687,3.384 z m 80.493,33.66 -7.258,0.035 -0.044,8.52 7.395,0.35 z m 71.3,42.413 c -0.158,0.846 -0.94,4.652 0.83,3.99 2.09,-1.61 0.31,-9.008 -0.83,-3.99 z m -6.832,21.387 c -0.857,-1.25 -3.51,1.856 -5.685,1.972 -9.67,0.518 -16.796,-0.776 -18,9.34 5.576,-3.56 13.39,-1.936 18.424,-3.088 3.64,-1.208 7.814,-4.503 5.26,-8.224 z"
         id="path13802" />
      <path
         style="fill:#131f67"
         inkscape:connector-curvature="0"
         d="m 2351.1,634.83 c -1.086,-88.7 -0.567,-176.257 -0.263,-263.966 l 163.717,0.918 c -0.586,87.536 -0.697,175.34 0.466,263.75 z m 7,-170.65 c 0.14,-2.538 -0.904,-3.59 -1.81,-1.843 -0.213,0.413 -0.916,4.823 0.753,4.97 1.096,0.097 0.996,-2.038 1.056,-3.127 z m -2.65,2.978 c -0.01,-0.6 -0.38,-0.86 0.437,-6.074 -1.56,-0.6 -2.91,-3.133 -1.774,-4.734 0.443,-0.624 0.314,-0.762 0.133,-1.286 -0.448,-1.296 -0.21,-2.352 0.992,-3.18 0.77,-0.527 0.802,-0.667 0.556,-1.362 -0.635,-1.79 -0.04,-3.54 1.674,-4.136 1.187,-0.412 0.958,-0.47 1.083,-1.224 0.28,-1.684 1.21,-2.703 2.9,-2.533 1.573,0.158 1.677,0.158 1.812,-0.61 0.373,-2.124 2.948,-4.444 6.31,-6.02 1.67,-0.784 4.438,-1.34 9.74,-1.325 3.04,-0.052 6.826,-0.458 8.95,-2.325 0.352,-0.327 0.838,-1.187 1.008,-1.07 0.396,0.273 0.3,2.388 -0.476,4.316 -2.26,5.62 -5.322,7.17 -13.973,7.118 -2.58,-0.123 -6.38,0.226 -7.99,1.867 -0.48,0.51 -0.8,0.99 -0.62,1.25 3.585,0.508 7.265,2.126 9.407,9.198 6.5,-4.607 16.86,-11.665 29.706,-18.044 -1.543,-8.452 5.787,-9.755 9.897,-8.073 0,0 0.105,-0.55 -0.054,-1.19 -0.155,-0.624 -0.383,-1.437 -1.142,-2.487 -0.19,-0.383 -1.345,-1.11 -1.117,-1.684 0.372,-0.942 0.206,-1.2 -0.58,-2.067 -0.512,-0.563 -0.173,-1.766 -0.05,-2.252 0.163,-0.904 0.76,-2.196 0.233,-2.683 -0.815,-0.753 -3.587,-2.028 -5.015,-3.042 -1.58,-1.148 -1.61,-2.18 0.704,-5.956 1.053,-2.196 2.05,-4.553 2.888,-6.13 1.27,-2.385 1.403,-3.957 0.632,-5.325 -1.006,-1.786 -0.84,-3.904 -0.816,-3.85 0,0 -9.494,-13.508 -13.406,-18.82 l -44.418,-0.144 -0.437,101.556 7.918,-7.303 -2.075,-2.457 c -0.294,1.427 -0.027,2.822 -1.787,2.903 -0.6,0.02 -1.153,-0.23 -1.248,-0.822 z m 26.396,135.406 c 0.253,-4.015 -1.67,-10.59 -4.565,-15.143 0.126,3.46 0.375,7.688 -0.32,11.07 z m 70.094,10.48 c -0.35,-0.113 -3.265,-0.29 -5.096,-0.388 -6.072,-0.323 -10.014,-3.234 -12.645,-7.262 -0.648,-0.99 -0.38,-0.946 1.055,0.175 4.03,3.148 7.803,5.03 11.116,4.56 4.697,-0.67 7.23,1.05 6.58,3.057 -0.114,0.35 -0.152,0.133 -1.01,-0.143 z m -15.904,-8.958 c -0.94,-0.815 -1.01,-1.18 0.106,-0.44 3.41,2.27 7.524,5.973 12.61,3.804 1.055,-0.677 0.084,-0.587 -1.68,-0.4 -2.7,0.288 -5.988,-1.083 -10.033,-3.875 -1.976,-1.364 -1.106,-2.515 1.118,-1.447 0.687,0.33 1.383,0.573 1.827,0.6 2.188,-1.452 6.79,-1.435 6.682,-1.427 0.525,-0.45 -1.195,-1.167 -3.753,-2.133 -1.662,-0.627 -2.063,-0.885 -0.826,-0.933 1.08,-0.042 2.78,0.496 4.006,1.29 2.047,1.315 3.077,2.044 3.688,2.13 1.003,0.078 2.027,0.223 0.304,1.022 -0.782,0.363 -0.713,0.455 -0.623,1.334 0.14,1.374 0.223,1.358 0.856,2.135 1.068,1.177 1.534,3.37 0.01,1.998 -0.33,-0.152 -0.363,0.14 -1.26,0.502 -5.272,1.487 -9.198,-0.834 -13.034,-4.16 z m 9.73,0.39 c 0.293,-0.386 0.735,-1.375 0.795,-1.65 -0.1,-0.64 -0.67,-0.44 -0.958,-0.08 -0.492,0.604 -1.18,1.492 -0.615,1.795 0.268,0.145 0.53,0.265 0.778,-0.063 z m -1.8,-0.415 1.17,-2.087 c -0.288,-0.135 -4.257,0.685 -3.635,1.254 0.552,0.504 2.466,0.834 2.466,0.834 z m 4.467,-7.005 c -1.807,-0.967 -2.334,-3.05 -0.983,-4.435 1.135,-1.163 3.06,-1.064 5.362,0.353 0.81,0.5 1.307,0.752 1.862,0.548 0.93,-0.34 1.284,0.18 1.207,0.908 -0.167,1.602 -2.662,1.994 -4.236,0.166 -2.08,-2.418 -4.343,-0.73 -3.68,1.017 0.338,0.89 0.993,1.03 1.746,1.363 0,0.175 -0.75,0.363 -1.277,0.082 z m -8.24,-10.77 c 2.995,-0.807 7.447,2.36 9.86,1.93 1.048,-0.224 0.9,1.283 -0.186,1.83 -1.27,0.638 -3.076,0.208 -6.907,-1.79 -3.155,-1.704 -5.708,1.12 -3.6,3.23 0.454,0.425 1.113,0.682 1.92,0.644 1.068,-0.05 1.382,0.24 0.01,0.593 -0.79,0.204 -2.26,-0.117 -2.972,-0.837 -1.7,-1.72 -1.28,-5.027 1.88,-5.6 z m -63.374,-9.25 c -0.09,-3.56 1.812,-5.536 1.86,-5.55 l -13.46,-9.13 0.2,36.467 c 6.67,-4.234 8.86,-9.57 9.24,-16.457 13.167,14.746 9.058,32.697 0.835,42.92 -0.338,-6.257 -2.206,-13.65 -9.808,-17.44 l -0.014,7.464 -12.615,8.945 0.076,8.245 29.68,0.092 14.355,-20.96 c -2.597,-9.506 -2.207,-17.417 -3.964,-21.766 -1.317,-3.576 -3.82,-8.195 -5.438,-7.48 -5.47,4.33 -10.842,-0.72 -10.95,-5.35 z m 11.325,4.21 c 4.662,3.356 5.906,8.842 6.862,13.717 0.032,0.042 2.447,16.53 2.523,16.75 0.313,0.905 0.21,1.807 -0.59,2.494 -4.305,5.905 -12.72,18.57 -12.72,18.57 l 82.487,0.484 c -4.4,-6.402 -7.838,-12.732 -12.02,-17.996 0.177,-0.28 -0.325,-3.875 -1.022,-5.038 -0.718,-1.197 -0.883,-1.824 -0.397,-2.92 1.206,-2.697 2.444,-5.62 3.56,-8.097 2.133,-4.744 2.377,-4.784 -0.537,-6.324 -3.453,-2.01 -4.07,-2.665 -3.344,-4.96 0.264,-0.837 0.297,-1.17 -0.772,-1.39 -0.496,-0.1 -1.7,-0.388 -2.51,-0.612 -2.33,-0.736 -1.656,-0.28 -2.51,0.324 -0.648,0.32 -1.207,-0.91 -1.97,-2.365 -0.874,-1.673 -1.096,-1.712 0.352,-0.85 2.683,1.594 7.443,0.974 5.766,-0.872 -0.818,-0.9 -1.576,-1.362 -1.49,-3.4 0.086,-2.024 0.117,-2.617 -1.257,-2.898 -2.75,-0.563 -5.737,-0.328 -8.295,0.31 -7.786,1.944 -14.033,8.698 -16.4,13.717 -0.534,0.873 0.69,0.828 1.22,0.832 2.55,-0.228 4.36,3.838 2.69,5.66 -0.77,0.815 -1.54,0.315 -0.717,-0.74 0.94,-1.75 -0.46,-4.06 -2.516,-3.472 -2.586,0.74 -2.66,4.083 -2.98,6.412 -0.88,6.712 2.53,15.684 3.364,17.515 0,0 0.183,0.273 0.12,0.272 -0.062,0 -0.47,0.378 -0.646,0.18 -0.598,-0.68 -2.11,-6.17 -2.928,-10.093 -1.588,-10.848 1.218,-20.824 10.245,-26.49 7.996,-5.768 12.023,-4.526 16.563,-4.792 1.55,-0.558 3.7,-1.404 5.33,-2.203 7.996,-4.368 14.475,-8.09 21.27,-11.79 6.594,-3.59 11.017,-8.718 17.046,-11.92 0.273,-0.146 0.556,-0.485 0.838,-0.624 7.5,-6.516 14.91,-12.914 19.382,-17.373 0.543,-0.545 0.99,-1.282 0.99,-1.282 l -0.757,-37.6 c 0,0 -0.754,-0.627 -0.75,-1.226 0.01,-1.305 -0.477,-1.055 -3.16,0.832 -3.37,2.37 -3.6,2.252 -3.6,2.252 -1.784,-17.252 -11.113,-34.215 -22.42,-44.135 l 0.464,-0.635 c 0,0 3.782,2.497 5.67,3.686 l 0,-2.406 -4.554,-2.852 c 0,0 -0.405,-0.33 0.038,-0.932 0.245,-0.33 0.868,-0.085 0.868,-0.085 l 3.65,2.69 0,-2.197 -2.95,-1.88 0.944,-1.19 1.58,1.025 c -0.67,-1.737 0.278,-1.676 1.25,-0.524 0.405,0.528 0.927,1.205 1.15,1.845 0.083,0.245 0.335,0.845 0.335,0.845 l 2.587,1.924 c 0,0 -0.1,-0.938 -0.01,-1.226 0.436,-1.364 3.56,3.037 3.166,3.14 l 2.65,1.91 c 0.627,-0.957 2.987,0.95 3.084,1.888 0.21,0.408 9.13,6.148 9.13,6.148 l 0.1,-3.17 0.96,-1.252 0.433,-73.24 -11.847,7.572 -0.13,8.867 c -5.596,-1.81 -10.444,-9.917 -11.153,-14.974 -0.365,-0.198 -1.986,9.974 -1.128,14.426 -1.48,1.1 -3.972,3.675 -3.952,3.688 l 4.488,4.91 c 0,0 -0.897,7.52 -0.687,11.256 0.183,1.773 0.218,1.953 0.748,1.956 0.43,0.003 0.817,-0.462 0.82,-0.868 1.054,-4.473 4.516,-11.452 10.508,-13.83 0.396,-0.01 -0.033,39.902 -0.033,39.902 l -14.868,-10.143 c -0.74,-0.635 0.97,-0.594 2.016,-3.973 2.695,-8.712 -6.65,-11.79 -10.26,-6.746 -0.595,-0.002 -3.076,-3.068 -3.447,-4.35 -2.75,-5.54 -3.276,-11.82 -3.81,-16.857 -0.323,-2.29 -1.164,-6.045 -1.86,-8.305 -0.372,-1.208 -0.41,-2.08 0.393,-3.204 3.683,-4.974 7.25,-10.2 10.35,-15.3 2.833,-3.72 2.28,-3.908 2.28,-3.908 l -82.705,-0.267 13.222,17.416 1.34,0.52 c -2.288,0.296 -1.51,2.296 -0.623,4.447 1.09,2.644 0.97,3.19 -1.8,8.637 -4.062,7.985 -4.28,7.284 -0.228,9.755 2.502,1.602 2.957,1.952 2.59,4.128 -0.37,2.175 -0.47,1.502 1.595,1.68 1.104,0.095 1.985,0.294 2.482,0.52 0.564,0.255 0.984,0.612 1.71,0.374 1.225,-0.4 1.255,-0.105 1.304,0.79 0.02,0.383 0.598,1.17 0.777,1.465 0.472,0.772 0.252,0.9 -0.612,0.357 -2.66,-1.676 -7.106,-0.96 -5.47,0.86 0.674,0.75 1.352,3.245 1.41,4.485 0.103,2.22 1.544,3.005 4.57,2.548 5.812,-0.432 18.917,-7.647 21.97,-15.75 -6.712,2.286 -5.333,-5.952 -2.94,-5.692 0,0 -0.644,1.462 -0.664,2.296 -0.073,2.946 2.395,3.173 4.094,1.087 0.74,-1.096 1.637,-5.167 1.196,-9.763 -0.535,-5.566 -2.79,-11.792 -3.2,-13.338 9.6,22.913 0.785,32.988 -12.703,39.563 -5.165,2.157 -5.874,2.144 -8.918,2.286 -2.083,0.17 -3.962,1.205 -5.96,1.862 -11.542,5.508 -25.725,12.377 -38.412,22.624 -9.104,6.744 -16.335,12.806 -23.523,20.595 l -0.03,40.428 c 2.162,-0.336 5.67,-2.442 7.75,-3.653 2.38,15.1 10.145,32.585 23.007,43.042 -0.01,-0.005 -0.304,0.57 -0.31,0.566 -1.832,-1.217 -3.663,-2.427 -5.438,-3.36 l -0.093,1.924 4.33,2.976 c 0.113,0.462 -0.743,1.108 -0.743,1.108 l -3.573,-2.468 -0.027,1.96 2.766,1.763 c 0.747,0.75 -0.906,1.14 -0.906,1.14 l -1.638,-1.19 c 0,0 0.117,0.953 0.067,1.122 -0.43,1.446 -2.795,-1.748 -3.223,-3.34 l -2.328,-1.38 c 0.33,0.942 -0.504,1.074 -1.164,0.838 -1.75,-0.887 -1.652,-2.377 -2.017,-3.26 l -3.1,-1.966 c -0.532,2.95 -3.68,-1.206 -3.184,-2.202 l -3.973,-2.704 c 0.22,0.082 -1.515,0.44 -2.102,0.058 -0.675,-0.44 -0.913,-2.243 -0.913,-2.243 l -2.382,-1.476 0,2.582 24.505,17.11 -0.354,0.663 -25.56,-17.49 1.035,75.9 12.463,-8.62 c -0.24,-2.84 0.285,-5.376 0.05,-8.613 6.403,3.985 8.558,6.696 11.382,15.065 1.827,-4.764 1.506,-9.335 0.686,-13.564 1.638,-1.34 3.23,-2.64 4.054,-4.66 -1.54,-2.12 -3.046,-2.716 -4.668,-4.683 -0.127,-2.397 1.277,-9.538 -0.607,-11.894 0,0 -3.444,10.375 -10.86,13.494 -0.225,-10.954 0.03,-38.492 0.03,-38.492 0,0 7.623,5.26 11.51,7.397 1.826,0.974 3.1,1.586 3.123,2.28 0.012,0.353 -0.722,0.803 -1.044,1.3 -0.2,0.31 -1.045,3.272 -0.716,5.59 0.15,1.706 0.954,2.787 1.725,3.605 2.443,2.595 6.922,1.37 8.695,-0.63 z m 14.752,-19.386 29.315,-41.008 c 3.488,15.09 9.375,28.91 17.056,41.437 z m 14.496,-43.103 c 0,0 2.046,-4.056 2.984,-6.207 l -3.59,0 2.147,-2.41 5.345,0 -2.86,6.095 2.27,0 3.136,-6.094 8.33,0 -2.914,6.095 1.92,0 3.116,-6.094 7.745,0 -2.724,6.095 1.813,0 1.59,-3.075 0.39,5.597 -7.694,0 3.04,-6.207 -2.48,0 -3.435,6.207 -7.208,0 3.126,-6.207 -2.74,0 -3.433,6.207 z m 23.738,-21.838 3.11,-6.566 -2.46,0 -3.438,6.428 -7.682,0 3.023,-6.355 -1.914,0.007 c -1.3,2.003 -3.37,6.074 -3.37,6.074 l -8.147,0 c 0,0 2.305,-4.317 3.213,-6.43 l -2.01,0 -1.635,2.61 c -0.576,-0.974 -0.196,-3.56 -0.293,-4.658 l 7.68,0 -3.085,6.3 2.45,0 3.364,-6.3 8.11,0 -3.304,6.3 1.92,0 3.274,-5.955 8.25,0 -2.892,5.956 2.548,0 -1.124,2.59 z m -7.59,-11.44 -1.554,0.29 c -1.99,-17.014 -11.406,-34.36 -15.392,-41.522 l 46.85,0.66 z m 55.01,-98.24 c 0,0 -4.47,5.744 -4.767,15.382 l 4.255,-3.398 c -0.27,-9.78 0.51,-11.984 0.51,-11.984 z m -4.72,16.106 c -0.07,7.17 1.81,11.743 4.187,15.322 0.04,-4.62 0.505,-9.295 0.78,-10.52 z m -115.985,137.206 -15.15,-10.434 0,2.287 18.005,12.23 z m -2.73,-5.6 c -4.058,-2.037 -12.42,-8.344 -12.42,-8.344 l 0,2.087 13.312,9.352 c 0.26,0.257 0.612,0.192 0.735,-0.096 -0.524,-0.883 -1.155,-2.087 -1.627,-2.998 z m -3.718,-9.06 -8.702,-6.07 0,1.888 c 2.23,2 9.575,6.755 9.575,6.755 z m -8.702,-7.453 8.187,5.29 -0.51,-2.342 -5.814,-3.948 z m 147.122,-73.356 0.438,-37.708 c -8.53,4.034 -10.222,15.798 -9.937,16.164 -8.49,-8.75 -11.692,-27.62 0.218,-40.307 0.896,4.07 1.196,9.972 9.622,15.367 l 0.216,-7.987 11.805,-7.54 -0.1,-9.076 -28.313,-0.22 c -4.392,5.563 -8.782,11.895 -13.127,17.8 -1.63,2.213 -2.038,3.254 -1.725,4.41 2.856,10.266 2.284,22.905 8.28,28.882 8.044,-7.564 15.58,3.822 9.327,10.843 z M 2377.48,608.14 c 1.09,3.434 0.34,10.362 0.27,10.362 1.3,-0.706 4.83,-10.737 3.947,-14.506 m 40.978,-184.155 c -2.002,-0.567 -3.51,-1.428 -5.624,-1.226 -1.664,0.173 -2.23,-0.378 -1.215,-1.285 1.328,-1.125 2.615,-1.59 5.075,-0.302 7.403,3.873 7.63,-1.783 4.298,-2.183 -0.946,-0.114 -0.902,-0.717 0.04,-0.565 5.173,0.206 3.597,7.058 -2.573,5.56 z m -8.656,-5.647 c -0.98,-0.357 -2.162,-0.955 -2.597,-0.838 -1.1,0.296 -1.137,-0.31 -1.006,-1.024 0.316,-1.727 2.082,-1.413 4.416,0.073 3.344,2.128 4.626,-0.932 1.583,-2.584 -1.024,-0.556 -0.708,-0.71 -0.11,-0.735 1.585,-0.065 3.078,2.092 2.658,3.857 -1.066,2.83 -3.655,1.722 -4.945,1.25 z m 9.798,-5.227 c -2.163,-0.375 -5.297,-3.284 -6.752,-3.484 -0.817,-0.093 -1.778,0.007 -2.04,-0.322 -0.8,-1.004 1.465,-1.004 1.62,-1.37 0.01,-0.846 0.058,-1.377 0.024,-1.666 -0.4,-0.54 -1.974,-2.706 -1.92,-3.754 0.038,-0.065 0.826,0.58 1.232,0.582 3.863,-2.036 6.504,-1.133 9.764,0.306 1.348,0.595 4.825,3.29 4.87,3.718 0.073,0.724 -1.476,-0.633 -2.686,-1.445 -2.983,-2.072 -5.665,-3.546 -9.41,-2.317 -0.582,0.2 -0.48,0.308 1.436,0.19 1.874,-0.113 3.41,0.46 5.804,2.023 0.595,0.388 1.313,1.05 1.74,1.255 3.013,1.436 3.67,2.847 1.752,2.465 -0.41,-0.082 -1.205,-0.51 -1.987,-0.785 -1.376,-0.487 -0.89,-0.34 -2.214,0.277 -0.464,0.216 -1.584,0.673 -2.503,0.782 -0.704,0.116 -2.99,0.097 -1.978,1.062 1.072,1.074 2.85,1.866 4.073,2.356 0.88,0.39 0.203,0.306 -0.825,0.128 z m 0.257,-4.676 c 1.41,-0.522 0.308,-1.705 -1.49,-1.966 -0.41,-0.06 -1.29,1.883 -1.31,2.292 -0.014,0.304 2.028,-0.04 2.8,-0.326 z m -3.893,0.21 c 0.324,-0.206 1.407,-1.772 1.41,-2.02 0.01,-1.006 -1.282,-0.727 -1.58,0.32 -0.36,1.273 -0.392,2.057 0.17,1.7 z m -4.506,-8.102 c -1.16,-0.513 -2.735,-2.756 -0.933,-2.377 0.39,0.09 2.412,0.195 3.718,0.2 4.446,0.02 8.876,2.034 11.695,4.964 1.568,1.63 1.67,2.836 0.08,1.713 -5.64,-5.06 -9.097,-4.118 -14.56,-4.5 z m 43.907,174.417 -1.573,0.837 c 0,0.872 0.318,0.736 1.015,1.353 0,0 -0.965,0.157 -1.67,0.11 -1.15,-0.076 -1.414,-0.057 -0.906,0.752 0.234,0.374 0.555,0.926 0.555,0.926 0,0 -0.623,0.135 -1.56,-0.123 -1.423,-0.39 -2.15,-0.194 -1.613,0.597 0.148,0.218 0.433,0.628 0.433,0.628 -1.037,-0.236 -2.943,-1.163 -2.943,-1.163 l -1.344,0.408 c 2.68,5.24 12.22,1.935 9.605,-4.325 z m 46.518,-7.474 c 1.475,-1.236 0.76,-2.753 -1.394,-3.865 -0.896,-0.463 -0.808,-0.47 -2.26,0.384 -1.792,1.05 -1.918,1.105 -0.643,2.458 1.54,1.633 3.215,1.932 4.298,1.023 z m -5.47,-3.496 c 1.355,-0.602 0.852,-0.5 0.76,-1.917 -0.395,-1.633 0.53,-1.747 0.986,-3.27 0.19,-0.835 -0.516,-0.527 -1.886,0.748 -1.13,0.948 -1.465,1.18 -1.462,0.718 0.128,-0.385 -0.776,-1.375 -1.585,-1.51 -0.685,-0.114 -0.62,-0.27 0.05,-1.136 1.16,-1.5 1.637,-3.395 0.858,-5.064 -0.983,-2.11 -1.308,-2.42 -3.483,-0.577 -1.114,1.025 -2.688,1.813 -3.448,3.08 -0.545,0.935 -0.23,1.838 0.63,3.672 2.15,4.578 5.47,6.634 8.58,5.256 z m 7.618,0.04 c 2.39,-0.937 1.427,-3.518 -2.31,-6.12 -2.25,-1.567 -2.89,-1.55 -0.978,0.148 1.223,1.087 1.415,1.47 0.89,2.253 -0.436,0.652 -0.896,1.418 -0.462,2.015 0.684,0.94 1.852,2.098 2.86,1.703 z m -134.6,-4.292 -2.604,-1.645 0,2.25 2.605,1.556 z m 130.233,2.033 c 0.518,-0.363 0.962,-1.384 0.965,-1.836 0.117,-1.047 -1.587,-0.796 -2.4,0.36 -0.917,1.303 0.166,2.368 1.436,1.475 z m 5.836,-3.542 c 1.187,-1.244 0.61,-2.57 -1.828,-4.148 -0.942,-0.617 -1.42,-1.02 -1.306,0.203 0.036,0.373 -0.373,0.866 -0.636,1.16 -0.845,0.946 -0.47,1.116 1.94,2.642 1.225,0.777 1.16,0.845 1.83,0.143 z m -136.067,-2.392 -2.606,-1.573 0,2.042 2.605,1.758 z m -5.698,2.04 0.034,-2.05 -3.376,-2.243 -0.048,2.283 z m 132.765,-0.83 c -0.435,1.174 1.315,0.642 1.415,0.523 0.304,-0.593 0.036,-0.65 -0.113,-0.71 -0.31,-0.13 -1.5,0.074 -1.303,0.188 z m 0.763,-1.48 c 0.6,-0.193 0.67,-0.117 0.587,-1.2 -0.126,-1.632 0.12,-1.763 1.204,-2.48 0.868,-0.575 0.875,-0.49 0.86,-1.49 -0.016,-1.21 0.067,-1.73 1.657,-1.975 0.65,-0.1 1.023,-0.26 1.077,-0.774 0.09,-0.862 -1.297,-2.32 -3.023,-3.16 -0.253,-0.002 -4.11,3.353 -5.186,4.513 l -0.658,0.708 0.787,1.475 c 1.227,2.3 1.026,3.145 0.304,6.194 -0.148,0.815 0.482,0.696 0.647,-0.286 0.217,-0.917 0.342,-1.25 1.746,-1.523 z m 5.877,-8.133 c -0.296,1.852 0.663,2.99 1.57,2.07 0.49,-0.5 0.906,-4.588 0.563,-5.237 -1.86,-1.992 -2.06,2.722 -2.133,3.167 z m -29.962,30.665 c 6.915,-4.05 15.803,-0.74 20.81,-4.06 2.336,-2.573 4.684,-4.214 3.36,-5.99 -1.03,-1.382 -1.7,-1.593 -1.7,-1.593 0.072,0.097 -3.65,3.232 -9.05,2.507 -9.002,-0.31 -13.256,2.516 -13.42,9.135 z m 11.818,-9.64 c 4.404,0.153 7.984,-0.613 9.62,-1.89 1.018,-0.793 1.172,-0.932 -0.422,-1.06 -3.42,-0.276 -6.883,-4.242 -7.968,-8.088 -0.22,-0.79 -0.48,-1.65 -0.48,-1.65 -9.114,7.273 -29.173,18.73 -29.173,18.73 1.33,6.19 -3.156,9.883 -9.23,7.685 -1.058,-0.097 -0.92,1.263 -0.72,1.82 0.33,0.918 1.064,1.685 1.208,1.808 0.904,0.775 1.073,1.287 0.936,2.03 -0.134,0.732 -0.12,0.707 0.393,0.982 0.912,0.49 0.865,1.185 0.367,2.622 -0.536,2.02 -0.573,2.53 0.88,3.49 1.87,1.202 5.538,2.516 4.996,4.322 -1.228,4.094 -3.243,7.618 -5.015,11.45 -0.658,1.06 -0.517,2.81 0,3.627 0.644,1.253 0.57,2.75 1.403,3.9 4.607,6.838 8.573,12.855 12.77,19.03 l 43.91,0.416 -1.092,-101.268 c 0,0 -6.77,6.666 -6.748,7.137 0.025,0.56 1.59,1.438 2.262,1.55 0.027,-0.304 -0.01,-1.504 0.082,-1.925 0.062,-0.61 2.016,-0.452 2.663,0.078 0.453,0.372 0.314,2.795 -0.144,4.768 -0.374,1.614 -0.322,1.636 0.37,2.568 0.843,1.137 1.135,2.1 1.025,3.385 -0.06,0.703 -0.055,1.26 0.144,1.724 0.468,1.095 0.33,2.637 -0.186,3.354 -0.75,1.04 -0.76,1.2 -0.598,1.755 0.614,1.928 0.384,3.57 -1.765,4.405 -0.274,0.106 -0.575,0.582 -0.75,0.993 -0.94,3.085 -2.697,3.08 -5.102,2.193 -1.702,6.636 -8.628,8.304 -13.616,8.107 -5.197,-0.205 -10.482,0.185 -12.834,3.584 0.55,-8.052 4.153,-11.933 12.815,-11.632 z m 15.683,-13.37 c 0.884,-0.33 0.993,-1.25 0.25,-1.842 -1.138,-0.907 -2.447,0.016 -1.912,1.328 0.3,0.736 0.804,0.834 1.662,0.514 z m -136.8,-2.923 -3.46,-2.4 0.02,2.15 3.45,2.213 z m 6.53,1.763 -2.45,-2.938 c -7.22,-4.415 -13.477,-9.353 -19.48,-13.33 l -0.046,2.723 1.716,0.865 c 0,0 0.146,-0.598 0.263,-0.944 0.22,-0.65 2.205,1.176 2.837,2.64 0.158,0.363 0.5,1.177 0.5,1.177 l 2.314,1.278 c 0,0 0.035,-0.657 0.036,-0.84 0.01,-1.392 2.483,0.524 3.612,2.802 0.273,0.552 0.632,1.137 0.632,1.137 l 2.177,1.323 c 0.86,-1.174 3.05,0.433 3.608,1.858 0.71,1.81 1.96,1.965 2.01,1.97 z m -13.032,-0.396 0.01,-2.086 -3.61,-2.372 -0.046,2.115 z m 148.554,0.17 c 0.094,-0.547 -0.446,-2.677 -1.256,-2.796 -0.507,-0.073 -1.3,0.693 -1.302,1.23 0,0.694 2.456,2.16 2.558,1.568 z m -2.935,-2.53 c 0.788,-0.86 -0.207,-1.983 -1.41,-1.593 -1.433,0.463 -0.938,1.76 0.664,1.787 0.358,0.007 0.573,-0.004 0.746,-0.193 z m -145.806,-1.535 0.014,-1.988 -3.332,-2.203 -0.07,1.945 z m -6.555,-0.702 0.033,-1.913 -2.19,-1.527 0,2.293 z m 0.08,-5.734 -2.237,-1.458 0,2.075 2.337,1.337 z m 9.085,-6.31 c -0.232,-0.614 -1.176,-2.554 -1.176,-2.554 l -10.145,-7.082 0,2.18 11.35,7.633 z m -4.748,-16.828 -0.12,-0.887 -0.903,0.482 z m -2.15,0.22 -1.42,0.768 4.287,2.788 -0.345,-1.982 z m 148.845,-23.487 1.106,-0.8 -1.952,-1.322 -0.146,1.342 z m 1.978,-1.272 1.452,-1.2 -4.857,-3.424 0.344,2.13 z m 3.443,-1.792 0,-1.464 -7.878,-5.32 0.545,2.675 c 1.39,0.802 3.085,1.975 4.86,3.222 1.124,0.792 1.128,1.097 2.473,0.886 z m 0,-2.71 0,-2.322 -9.113,-6.05 0.74,2.724 z m 0,-3.487 0,-2.434 -11.03,-7.288 1.206,3.22 z m 0,-6.113 -13.906,-9.306 1.78,3.567 12.126,8.104 z m 0,-3.555 -17.452,-11.61 1.96,3.25 15.492,10.475 z m 0,-3.775 -0.653,-0.002 c -0.052,1.663 -1.854,0.457 -2.532,-1.373 -0.512,-1.225 -0.626,-1.533 -0.626,-1.533 l -3.514,-2.377 0.277,1.862 -2.368,-1.446 c 0,0 -0.685,-2.29 -0.707,-2.304 l -4.045,-2.748 c 0.086,0.468 0.154,1.24 -0.11,1.293 0,0 -1.23,-0.524 -1.792,-1.343 -0.585,-0.85 -0.673,-1.708 -0.673,-1.708 l -3.3,-2.137 -0.823,0.09 c 0,0 -0.444,-0.303 -0.863,-0.642 -0.783,-1.398 -1.7,-1.61 -2.794,-2.18 0,0 2.323,2.713 3.564,4.314 1.14,1.48 2.522,2.535 2.522,2.535 l 18.436,12.3 z m 0,-3.794 -1.425,-0.856 0.106,2.246 1.32,0.897 z m -143.73,-4.942 c 0.087,-0.14 -0.277,-0.303 -0.678,-1.184 -0.992,-2.18 -1.09,-2.942 -0.56,-5.234 0.253,-1.093 -0.74,-1.562 -1.196,-0.396 -0.356,0.907 -0.908,1.418 -1.436,1.35 -0.5,-0.06 -0.605,0.148 -0.388,0.836 0.265,0.953 -0.31,2.195 -1.11,2.533 -0.807,0.208 -0.954,0.72 -0.727,1.46 0.377,1.23 -0.95,2.27 -1.992,2.21 -1.61,-0.092 -0.98,1.374 0.963,2.77 0.72,0.517 1.04,0.797 1.606,0.536 1.47,-1.387 4.202,-3.374 5.52,-4.88 z m 139.775,4.5 -0.08,-2.14 -4.052,-2.737 0.5,2.866 z m 3.956,-0.897 0,-2.157 -1.668,-1.07 0.085,2.29 z m -152.514,-3.34 c 0.388,0.392 0.774,0.427 1.39,0.056 0.71,-0.372 0.44,-0.934 -0.305,-1.3 -0.694,-0.365 -1.667,0.748 -1.085,1.242 z m -1.21,-0.947 c -0.055,-0.45 0.496,-1.06 0.876,-1.082 0.833,-0.05 0.685,-0.494 -0.266,-1.07 -0.447,-0.27 -1.238,-0.902 -1.527,-1.112 -1.423,-1.033 -2.8,0.56 -1.74,1.91 0.884,1.128 2.19,1.798 2.657,1.354 z m 149.368,1.337 -0.314,-2.383 -3.66,-2.432 0.29,2.624 z M 2374,456.055 c 0.2,-0.33 0.26,-0.646 0.24,-1.045 -0.076,-1.5 -0.85,-3.262 -1.932,-4.736 -0.807,-1.098 -1.785,-2.035 -2.776,-2.586 -2.8,-1.44 -6.535,-0.82 -5.99,1.034 0.385,1.252 0.295,2.302 -0.78,2.932 -0.73,0.428 -0.824,1.005 -0.05,1.006 0.56,0 2.05,-0.514 2.67,-1.49 0.875,-1.38 1.376,-2.18 1.18,0.07 -0.083,0.94 0.035,0.87 1.494,0.794 1.978,-0.102 1.61,0.27 0.455,1.16 -1.683,1.297 -2.017,3.492 -1.167,5.36 0.526,1.154 0.89,1.77 1.575,1.614 1.48,-0.973 3.898,-2.927 5.08,-4.113 z m 126.567,2.78 -3.602,-2.37 0.14,2.537 3.89,2.295 z m -138.233,-2.32 c -1.32,-1.665 -2.87,0.463 -1.87,1.393 0.728,0.64 2.563,-0.015 1.87,-1.392 z m -3.122,0.233 c -0.164,-0.52 0.79,-1.353 0.94,-1.685 0.437,-0.965 -3.472,-3.65 -4.688,-2.06 -0.838,1.098 -0.257,2.195 2.003,3.695 1.363,0.905 2.016,0.905 1.745,0.05 z m 141.004,-1.608 -3.33,-2.073 0.06,2.19 3.534,2.132 z m -5.87,1.96 0,-2.237 -3.353,-2.338 -0.055,2.316 z m -130.4,-2.644 c 0.61,-0.602 0.403,-0.798 -0.774,-0.737 -0.744,0.037 -0.972,-0.087 -1.022,0.254 -0.11,0.754 1.17,1.1 1.796,0.482 z m -2.79,-0.846 c 0.06,-0.156 -0.362,-0.462 -1.048,-1.037 -1.31,-1.1 -1.46,-1.782 -0.2,-2.64 1.798,-1.22 -0.086,-2.955 -2.17,-2.25 -1.686,0.57 -1.69,2.267 -0.69,3.358 1.372,0.915 3.86,3.55 4.107,2.57 z m 133.19,-2.237 -3.298,-2.26 0,2.2 3.3,1.925 z m -132.57,0.145 c 1.47,-0.75 1.548,-2.627 0.076,-1.94 -0.607,0.284 -1.402,1.053 -1.404,1.4 0,0.678 0.578,0.922 1.328,0.54 z m 1.08,-4.31 c 1.903,-1.024 1.612,-1.975 -0.286,-3.164 -2.316,-1.327 -3.937,1.22 -2.03,2.95 1,0.908 1.23,0.795 2.315,0.213 z m 2.47,-1.847 c 3.094,-3.325 5.146,-3.155 9.234,-3.066 10.542,0.095 13.774,-4.943 13.44,-8.476 -5.123,2.544 -9.696,1.178 -14.573,1.914 -8.414,1.88 -9.4,5.836 -9.988,8.1 z m 42.264,-11.328 c 2.717,0.024 2.595,0.107 1.478,-2.126 2.644,0.362 3.71,1.63 2.838,-1.003 1.403,0.5 2.243,0.885 3.692,1.362 l 0.92,-0.533 c -5.596,-5.446 -11.802,-0.832 -10.167,4.66 l 2.08,-0.992 z"
         id="path13804" />
      <path
         style="fill:#d40000"
         inkscape:connector-curvature="0"
         d="m 2517.868,650.167 0,-3.585 3.233,0 c 0,0 -0.025,1.253 0,-11.646 0.024,-11.25 0.112,-11.333 0.44,-12.426 2.252,-7.53 15.645,-7.52 16.504,0.838 0.046,4.068 0.067,4.92 0.093,4.925 l -3.584,0 c 0,0 0,-1.02 0,-1.604 0.02,-4.19 -1.28,-6.045 -4.594,-6.07 -2.522,-0.02 -3.93,0.888 -4.72,2.95 -0.445,1.005 -0.49,1.943 -0.49,2.857 0,4.64 0,20.178 0,20.175 l 3.604,0 0.045,3.562 z m -96.622,-17.084 1.3,-6.305 11.615,0.565 c 0,0 1.35,3.958 1.896,5.74 z m -26.82,-0.153 6.162,-10.176 8.75,2.374 -2.014,7.955 z m 17.02,0.153 2.65,-10.863 c -5.005,-1.102 -9.727,-1.826 -15.25,-3.317 l -8.97,14.168 -5.394,-0.142 c 4.648,-6.193 13.138,-18.7 13.138,-18.7 19.473,6.7 39.105,7.83 58.87,4.29 0,0 7.284,9.607 9.894,14.817 l -5.136,-0.252 -6.38,-10.685 c -4.444,0.482 -8.814,1.073 -13.45,1.267 l 3.174,9.418 -5.1,0 -2.893,-9.392 c -5.562,-0.214 -10.235,0.22 -16.9,-0.822 l -2.35,10.21 z m 36.75,0.004 -1.757,-6.68 6.266,-0.732 c 0,0 2.907,5.093 4.5,7.408 z m 18.358,-20.02 c 0.306,-4.65 1.232,-8.3 5.552,-14.468 5.522,-7.885 15.556,-23.245 15.8,-23.968 0,0 10.292,15.437 14.895,22.413 3.927,5.976 6.32,12.64 6.45,16.64 0.248,7.673 -4.585,12.473 -11.07,13.272 -4.452,0.547 -9.074,-3.485 -9.424,-8.23 -0.144,-1.943 -1.202,-2.532 -1.486,-0.827 -0.374,5.914 -5.056,9.42 -10.427,8.893 -7.978,-0.78 -10.625,-8.63 -10.29,-13.726 z m 55.88,-0.7 c -2.047,-0.652 -3.514,-2.75 -3.772,-5.39 -0.296,-3.02 0.796,-6.107 4.483,-11.75 1.748,-2.744 3.58,-5.635 5.022,-8.55 2.17,3.185 3.295,5.63 5.483,8.92 5.022,8.05 5.98,12.382 3.422,15.467 -1.805,2.176 -5.607,2.234 -7.178,0.108 -0.472,-0.638 -0.586,-0.93 -0.918,-2.334 -0.148,-0.627 -0.598,-0.71 -0.725,-0.132 -0.655,2.966 -3.122,4.518 -5.816,3.66 z M 2391.95,571.022 c 7.795,-11.85 35.325,-50.05 35.325,-50.05 l 4.01,0.383 c 0,0 -24.452,34.1 -36.328,51.397 z m -39.754,-18.432 9.6,6.912 0.07,53.818 -9.756,6.866 z m 39.854,-88.045 5.81,11.372 c -24.69,23.393 -19.846,50.844 -6.618,70.424 0,0 -1.71,4.38 -5.437,9.033 -17.897,-11.802 -23.34,-42.474 -23.204,-42.802 19.723,-17.59 22.382,-23.19 29.45,-48.025 z m 100.895,83.837 c 1.275,-17.32 9.746,-28.64 19.238,-35.556 l 0.486,17.616 c -6.215,5.964 -12.786,12.12 -19.725,17.94 z m -25.78,-17.446 c 21.623,-20.193 22.36,-48.87 6.607,-69.922 l 6.447,-9.002 c 9.137,9.78 18.097,20.028 21.91,43.844 -13.693,10.794 -25.793,28.63 -29.012,46.633 z m -29.797,-23.495 -0.04,-8.252 8.088,-0.04 -0.23,8.24 z m -17.098,-0.064 -0.116,-8.224 7.996,0.058 -0.124,8.337 z m 13.847,-22.02 c 0,0 26.802,-37.516 37.322,-51.057 l 2.234,1.642 -35.644,49.622 z m -62.603,-26.236 c -0.026,14.802 -9.514,26.53 -19.206,34.183 l 0.133,-16.852 z m 5.645,-26.935 c 0,0 -19.29,-25.81 -21.35,-37.04 -0.69,-6.833 3.194,-14.004 9.9,-14.92 5.212,-0.638 10.24,3.104 10.87,8.43 0.117,1.045 0.355,1.33 0.906,1.083 0.4,-0.18 0.46,-0.39 0.637,-2.2 0.5,-5.15 5.302,-8 10.286,-7.562 8.93,1.143 12.052,12.302 9.556,17.934 -5.27,11.893 -21.894,34.71 -20.807,34.275 z m -51.088,-29.807 c -0.745,-3.022 0.395,-6.917 2.562,-7.897 3.223,-1.456 6.32,0.383 6.837,3.246 0.196,1.077 0.65,1.005 0.83,-0.113 0.44,-2.752 3.637,-4.304 6.41,-2.876 3.44,1.77 4.124,6.347 1.56,11.45 -2.868,4.848 -8.717,14.134 -8.717,14.134 -0.18,-0.534 -8.184,-12.588 -9.48,-17.942 z m 186.26,-14.684 0.056,65.698 -9.057,-5.454 0.77,-55.095 z m -43.172,3.89 c -20.447,-5.316 -39.074,-6.907 -58.656,-2.71 -2.553,-3.044 -11.13,-15.72 -11.13,-15.72 l 4.95,0.072 7.007,11.214 13.348,-1.745 -3.436,-9.12 5.503,0.022 2.74,8.946 c -0.027,-0.07 10.86,0.108 16.91,0.824 0.962,-3.32 2.752,-9.922 2.752,-9.922 l 6.06,-0.004 c -0.777,3.173 -2.87,10.72 -2.87,10.72 4.966,0.69 14.175,3.03 14.26,3.132 3.23,-4.566 6.233,-9.133 9.155,-13.7 l 5.907,-0.027 c -1.74,2.948 -12.173,18.166 -12.5,18.02 z m -142.937,-12.702 3.677,0 c -0.122,2.682 -0.082,5.873 2.39,7.02 4.387,1.497 7.297,-1.16 7.593,-5.013 0.197,-4.417 0.09,-20.39 0.09,-20.39 l -3.493,0 0,-3.612 10.72,0 0,3.612 -3.52,0 c 0,0 0.25,13.682 -0.02,20.506 -0.172,6.732 -5.314,9.008 -9.56,8.763 -8.802,-0.33 -8.07,-6.623 -7.877,-10.888 z m 139.164,4.827 -9.033,-2.107 2.36,-7.96 12.625,-0.008 z m -51.87,-2.88 -4.2,-7.39 8.08,0 2.677,6.508 z m 18.344,-1.506 -1.223,-5.883 14.677,0 -1.5,6.268 z"
         id="path13806" />
      <path
         inkscape:connector-curvature="0"
         d="m 2398.305,372.947 13.053,18.837 c 0.06,-0.06 7.314,-1.445 14.444,-1.794 7.09,-0.348 15.542,0.095 15.613,0.31 0,0 2.23,6.735 2.987,10.042 1,4.418 0.894,9.504 -0.16,12.878 -1.544,4.944 -2.36,6.428 -5.81,9.824 -2.557,2.48 -6.17,5.177 -9.9,6.618 -5.166,2.157 -5.692,2.146 -8.736,2.288 -2.013,0.094 -2.22,0.172 -3.32,0.744 -0.34,0.118 -0.56,0.472 -0.863,0.574 -0.255,0.086 -0.738,-0.01 -0.738,-0.01 -16.79,7.357 -29.932,15.562 -39.86,22.89 -0.116,0.085 -0.19,0.464 -0.3,0.555 -0.814,0.665 -1.563,1.17 -2.354,1.776 -0.108,0.083 -0.352,-0.067 -0.46,0.016 -11.68,9 -18.3,16.297 -20.732,18.403 l 0.238,41.9 c 0,0 5.32,-2.73 8.046,-4.397 1.916,16.225 10.008,31.985 22.785,42.93 l -5.543,7.642 -25.543,-17.586 0.355,77.312 13.582,-9.43 0,-8.156 c 4.047,2.725 7.997,3.787 10.87,16.2 2.298,-4.36 2.097,-10.854 1.067,-15.192 0.017,0 3.448,-2.835 4.5,-5.01 l -5.048,-4.474 c 0,0 1.308,-10.84 -1.07,-13.024 -1.884,4.92 -3.386,10.135 -10.42,13.93 l -0.088,-37.66 c 3.506,2.222 6.822,4.724 10.29,7.002 l 0.476,-0.096 3.586,2.458 c 0,0 -0.38,0.767 -0.728,1.294 -4.357,6.61 2.904,14.716 8.81,9.838 2.313,-1.91 6.654,6.03 7.472,13.67 0.834,4.933 1.283,11.06 2.624,15.345 0.414,1.25 0.252,1.952 -0.63,2.71 -4.527,6.37 -13.626,19.2 -13.626,19.2 l 6.556,0 0.474,-0.75 -4.833,0 c 4.16,-5.538 8.133,-11.99 12.45,-17.397 16.09,6.056 42.444,7.454 58.36,3.782 3.287,4.61 6.483,9.442 9.644,14.14 l -4.578,0 0.63,0.983 6.193,0 -13.044,-19.2 c -8.99,2.673 -30.908,1.632 -30.51,1.41 0,0 -0.06,-0.15 -0.818,-2.327 -3.763,-12.148 -4.11,-22.93 5.33,-31.643 5.013,-4.46 10.614,-7.4 16.867,-6.842 2.797,-0.054 2.85,-0.206 4.015,-0.732 0.643,-0.29 1.974,-0.59 1.974,-0.59 l 6.335,-3.514 0.835,-0.167 1.823,-0.96 0.377,-0.447 2.944,-1.496 0.33,0.027 3.98,-2.29 0.053,-0.323 1.566,-0.964 0.373,0.392 c 0.434,0.037 15.604,-9.918 21.93,-15.467 l 0.393,0.146 c 7.388,-5.978 17.434,-15.403 20.413,-18.982 l -0.16,-17.936 -0.253,-0.218 -0.102,-19.86 -0.577,0 -0.024,-2.45 c -3.266,1.21 -6.862,4.244 -7.103,4.118 -2.08,-16.815 -9.822,-32.304 -22.473,-43.678 l 5.387,-7.438 25.014,16.83 0.068,-4.916 0.31,0 c 0.308,-18.854 0.476,-67.722 0.476,-67.722 l -0.247,-0.025 -0.01,-3.902 -12.786,8.163 -0.18,8.25 c -5.67,-1.853 -9.26,-8.663 -10.45,-14.73 -1.65,0.66 -2.417,7.052 -1.807,15.146 -1.752,1.046 -2.874,2.19 -3.947,3.574 1.388,1.748 2.928,3.18 4.626,4.648 -0.354,0.763 -1.104,11.564 -0.36,12.904 0.342,0.988 1.522,0.847 1.528,-0.192 1.725,-8.424 9.715,-13.952 10.163,-13.443 l -0.195,38.84 -14.195,-9.95 c 2.98,-3.364 3.608,-9.04 -0.147,-11.817 -3.763,-2.785 -7.45,-0.423 -8.32,1.348 -4.608,-3.004 -6.16,-14.132 -6.832,-18.49 -0.168,-2.118 -0.71,-4.995 -1.338,-7.592 -0.393,-1.627 -0.86,-3.183 -0.92,-4.64 -0.028,-0.686 0.054,-0.983 0.678,-1.842 l 13.8,-19.58 -7.046,-0.024 -0.068,0.12 5.542,0.016 -12.447,17.674 c -18.724,-5.883 -38.138,-7.305 -58.908,-3.574 l -10.26,-14.43 4.665,-0.02 -0.184,-0.31 z m 10.827,0.164 0.2,0.355 8.063,-0.024 -0.122,-0.3 -8.14,-0.03 z m 11.957,0.045 0.155,0.427 5.502,0.02 -0.17,-0.418 z m 28.093,0.15 -0.056,0.194 6.063,0.01 0.054,-0.195 z m -18.58,0.005 0.058,0.248 14.628,0 0.054,-0.233 z m 28.166,0.13 -0.06,0.205 12.627,-0.01 0.106,-0.194 z m 53.272,10.77 0.038,2.657 -8.48,5.392 c -0.212,11.365 -0.538,55.085 -0.538,55.085 l -2.032,-1.333 0.398,-54.747 c 0,0 7.504,-4.822 10.614,-7.055 z m -22.256,2.138 0.286,0 0.087,0.616 -0.495,0 z m 0.6,1.605 0.224,0.834 -1.24,-0.004 0.208,-0.805 z m 21.408,0.432 0,1.736 -7.316,4.573 0,-1.72 z m -22.585,1.445 1.914,0.024 0.32,0.96 -2.41,0 z m -46.995,0.514 1.28,0.19 c 2.932,6.998 3.69,13.006 4.2,19.258 1.168,8.115 3.527,16.248 5.168,19.705 l -1.876,-0.02 c -0.217,-0.027 -4.18,-11.774 -5.004,-18.71 -0.222,-1.374 -0.134,-2.65 -0.204,-3.923 -0.42,-5.363 -1.153,-9.394 -3.565,-16.5 z m 2.405,0.283 1.634,0.166 c 1.142,4.97 2.806,9.658 3.482,14.65 1.08,7.983 1.657,16.137 5.508,24.006 l -1.528,-0.016 c -2.336,-5.32 -3.782,-10.87 -4.713,-16.868 -0.727,-3.44 -0.734,-6.025 -1.12,-9.135 -0.468,-3.735 -1.907,-8.483 -3.263,-12.803 z m 2.483,0.23 1.634,0.243 c 1.075,4.934 2.92,10.363 3.408,14.823 0.995,9.082 2.42,17.544 5.286,23.55 l -1.144,-0.034 c -4.425,-8.573 -4.496,-16.21 -5.736,-24.245 -0.73,-4.73 -2.278,-9.462 -3.447,-14.337 z m 2.604,0.384 1.444,0.224 c 1.005,4.908 2.807,10.464 3.226,15.443 0.742,8.813 2.305,15.485 5.586,22.6 l -1.353,0.024 c -3.962,-6.93 -4.494,-15.434 -5.728,-24.048 -0.68,-4.76 -2.216,-9.547 -3.175,-14.24 z m 62.087,0.01 0,2.15 -7.316,4.697 0,-2.12 z m -59.726,0.418 1.508,0.232 c 0.97,4.734 2.778,9.787 3.205,14.396 0.73,7.878 2.18,15.833 5.427,23.162 l -1.392,0.088 c -3.435,-7.4 -4.93,-14.137 -5.58,-22.644 -0.366,-4.77 -2.2,-10.584 -3.167,-15.234 z m 39.852,0.024 0.523,1.275 -3.505,0.17 0.043,-1.43 z m -37.37,0.446 1.794,0.35 c 1.9,7.55 2.4,14.7 3.693,21.878 1.618,8.918 3.322,13.4 4.715,15.063 l -1.484,0.048 c -3.62,-7.72 -4.904,-15.398 -5.745,-23.352 -0.497,-4.692 -2.036,-9.316 -2.973,-13.988 z m 2.735,0.51 1.367,0.275 c 1.63,6.172 2.366,11.945 3.083,17.53 1.304,10.61 4.84,18.68 5.592,19.054 l -1.508,-0.068 c -3.272,-4.52 -4.483,-12.216 -6.09,-23.076 -0.708,-4.774 -1.41,-9.265 -2.445,-13.717 z m 2.2,0.44 1.534,0.378 c 0,0 1.38,5.43 2.423,12.636 0.87,6.005 1.327,17.822 7.855,24.617 3.26,3.39 9,6.338 12.917,3.136 1.673,-1.426 2.752,-3.713 1.745,-6.158 -1.69,-4.093 -7.42,-3.392 -5.513,0.902 0.214,1.03 -1.132,1.074 -2.07,0.068 -0.985,-1.074 -0.74,-2.3 -0.04,-3.426 1.472,-2.374 5.416,-2.617 7.73,-0.497 3.698,3.622 2.098,9.837 -2.584,11.807 -5.394,2.292 -12.346,-2.44 -15.1,-6.953 -4.553,-7.865 -5.26,-15.33 -6.327,-23.27 -0.543,-4.288 -1.588,-8.79 -2.57,-13.242 z m 2.31,0.635 1.556,0.38 c 0.01,0.02 1.706,7.652 2.27,12.174 0.697,5.588 1.467,12.173 3.86,17.256 1.487,3.162 3.653,5.82 5.842,7.37 1.883,1.332 3.572,2.175 6.076,1.63 2.89,-0.63 3.016,-5.105 0.257,-5.116 -1.41,-0.006 -0.492,-1.363 0.68,-1.4 4.156,-0.138 4.277,6.416 0.362,7.878 -4.483,1.674 -9.33,-1.48 -12.33,-5.445 -5.25,-8.155 -5.044,-15.593 -6.197,-22.168 -0.308,-3.464 -2.26,-12.396 -2.376,-12.56 z m 31.463,0.228 0.95,1.272 -5.28,-0.025 0.024,-1.207 z m -29.146,0.423 1.49,0.52 c 0.04,0 1.492,5.923 2.394,12.926 1.07,6.75 1.42,12.37 4.917,17.246 1.454,2.028 4.2,4.734 5.93,5.057 1.07,0.23 2.18,-0.005 2.453,-0.82 0.446,-1.334 1.59,-0.72 1.615,0.49 -0.01,0.847 -0.626,1.726 -1.677,2.032 -5.14,0.89 -9.842,-5.563 -11.27,-8.835 -1.93,-4.76 -2.758,-10.077 -3.596,-16.7 -0.355,-2.802 -2.05,-11.74 -2.255,-11.917 z m 47.682,0.238 -0.024,2.14 -7.292,4.596 0,-2.08 z m -45.442,0.418 1.668,0.455 c 0,0 1.39,5.21 2.22,11.647 0.843,6.527 2.65,14.11 6.028,18.032 0.307,0.376 0.517,0.643 0.65,0.864 0.24,0.533 -0.046,1.434 -0.296,1.435 -6.018,-3.13 -7.44,-15.713 -7.957,-19.966 -0.762,-6.58 -2.313,-12.466 -2.313,-12.466 z m 23.4,1.008 5.31,0.15 1.265,1.247 -7.03,-0.063 c -0.743,-0.767 -0.28,-0.678 0.455,-1.334 z m 22.042,1.736 0,1.775 -7.316,4.635 0,-1.813 z m -21.858,0.563 7.768,0.135 2.725,1.62 -11.87,-0.097 z m 21.858,2.25 0,2.128 -7.316,4.587 0,-1.998 z m -24.733,0.402 13.2,0.14 0.033,1.43 -14.313,-0.368 z m -1.72,2.448 14.93,0.04 0.038,1.58 -13.577,-0.13 z m 26.454,0.243 0,2.22 -7.316,4.534 0,-2.104 z m -23.647,2.327 11.443,0.054 -1.24,1.322 -8.632,-0.087 z m 23.647,0.78 0,2.095 -7.316,4.602 0,-2.066 z m -15.035,1.6 -1.388,1.35 -5.93,-0.084 0.203,-1.225 z m 15.034,1.47 0,2.245 -7.316,4.47 0,-1.944 z m -22.435,0.82 4.892,0.106 -0.747,1.03 -4.28,0.02 z m -43.998,1.79 c 0.738,5.646 4.836,17.03 4.834,17.027 l -1.614,0.015 c 0.08,0.11 -2.93,-7.172 -4.015,-14.032 -0.132,-0.655 0.316,-2.862 0.795,-3.01 z m 43.677,0.324 3.767,0.066 -0.82,1.455 -3.07,-0.004 z m 22.754,0.343 0,1.964 -7.316,4.5 0,-1.79 z m -22.876,1.988 2.497,0.078 -0.59,1.348 -1.936,-0.058 z m 22.876,1.058 0,2.094 -7.316,4.54 0,-2.023 z m -67.974,0.446 c 0.735,4.113 3.855,12.375 4.092,12.917 l -1.38,0.02 c -0.064,0.19 -3.245,-7.407 -3.585,-10.657 -0.163,-0.68 0.197,-2.027 0.873,-2.28 z m 45.074,0.873 1.48,0.068 -0.253,0.77 -1.197,0.03 z m 0.13,1.852 0.772,0.018 -0.184,0.732 -0.48,0 z m 22.77,0.038 0,1.692 -7.316,4.63 0,-1.605 z m -69.807,0.184 c 1.11,3.297 2.22,6.657 3.535,9.872 l -1.64,-0.04 c -1.085,-2.317 -1.848,-4.923 -2.695,-7.48 -0.233,-1.068 0.264,-1.98 0.8,-2.352 z m -1.634,2.2 2.725,7.614 -1.546,0 c -0.637,-1.53 -1.353,-3.243 -1.855,-4.82 -0.513,-1.634 -0.466,-1.687 0.676,-2.793 z m 71.44,0.476 0,2.008 -7.315,4.528 0,-1.73 z m -72.58,2.945 1.494,4.217 -1.91,-0.05 c -0.56,-1.326 -0.902,-2.485 -1.043,-3.776 -0.052,-0.627 -0.166,-1.252 0.272,-1.516 0.862,-0.488 0.764,-0.086 1.187,1.125 z m -2.03,1.727 0.794,2.47 -1.784,-0.043 c -0.525,-1.168 -0.725,-2.008 -0.567,-3.23 1.073,-1.24 1.153,-0.592 1.558,0.803 z m 74.61,-1.452 0,2.1 -7.315,4.397 0,-1.95 z m -77.142,1.508 0.748,2.434 -1.61,-0.04 c -0.267,-0.57 -0.097,-1.265 -0.107,-1.91 z m -2.108,1.246 c 0.024,0 0.044,0.007 0.053,0.02 0.23,1.076 0.01,1.144 0.02,1.134 l -2.25,-0.015 c 0,0 1.824,-1.155 2.177,-1.138 z m 79.252,0.63 0,1.678 -7.316,4.563 0,-1.702 z m -87,2.657 43.968,0.126 1.464,2.07 c 0,0 -4.277,0.116 -18.29,0.03 -11.794,0.15 -35.497,-0.253 -35.497,-0.253 l 2.307,-1.086 c 3.193,-0.075 6.092,-0.904 6.047,-0.888 z m 87,0.247 0,1.847 -7.316,4.432 0,-1.79 z m -123.724,1.772 c -3.535,1.566 -6.835,1.952 -9.3,1.752 -5.31,-0.43 -13.432,1.79 -15.065,6.89 -0.513,1.8 -0.52,1.85 0.456,2.768 0.484,0.456 0.953,0.8 1.043,0.767 0.854,-0.758 1.987,-2.165 3.2,-2.575 1.595,-0.483 2.46,-0.55 5.077,-0.664 5.637,-0.25 6.908,-0.487 8.31,-0.86 3.086,-0.816 6.197,-3.85 6.384,-7.23 0.02,-0.39 -0.104,-0.85 -0.104,-0.85 z m -0.15,0.462 c -0.596,7.054 -8.238,7.973 -11.594,7.773 -6.806,-0.408 -9.486,1.624 -10.564,2.886 -0.355,0.34 -0.562,0.26 -0.505,-0.05 0.79,-3.905 7.1,-4.052 10.28,-4.01 7.785,0.356 9.758,-3.398 9.537,-3.435 -0.59,0.265 -1.03,0.498 -1.627,0.782 -0.258,0.107 -0.203,-0.05 -0.876,-0.44 -0.01,0.052 -0.78,1.797 -1.774,0.14 0.026,0.084 -0.707,1.472 -2.065,0.175 0.01,0.14 -0.82,1.33 -2.147,0.113 -1.248,1.07 -1.842,0.48 -2.38,-0.27 -0.392,0.235 -1.55,1.796 -2.513,0.116 -1.028,0.655 -1.457,1.363 -2.34,0.935 -2.065,0.37 -3.85,2.487 -4.58,4.427 -0.226,0.666 -0.685,0.77 -0.74,0.04 -0.245,-2.025 3.086,-5.53 6.43,-6.498 2.6,-0.753 4.37,-1.297 10.086,-1.08 3.25,0.125 7.373,-1.602 7.373,-1.602 z m 83.412,0.533 2.06,1.397 -35.865,49.452 -3.167,-0.082 z m -57.535,0.034 4.078,0 0,6.74 -3.516,0 -1.256,-1.868 c 0.324,0.19 0.7,0.306 1.105,0.306 1.206,0 2.186,-0.98 2.186,-2.187 0,-1.206 -0.98,-2.18 -2.187,-2.18 -1.208,0 -2.188,0.974 -2.188,2.18 0,0.108 0.01,0.213 0.025,0.316 l -1.315,-1.95 c 0,0 0.56,-0.33 1.89,-0.925 0.346,-0.153 1.175,-0.43 1.175,-0.43 z m 12.568,0 6.91,0 0,6.74 -6.91,0 z m 15.137,0 7.152,0 0,6.783 -7.152,-0.044 z m 15.444,0 7.147,0 0,6.74 -7.147,0 z m 54.742,0.16 0.106,2.104 -7.316,4.446 0,-2.08 z m -51.43,0.698 c -1.277,0 -2.318,1.03 -2.318,2.308 0,1.276 1.04,2.312 2.317,2.312 1.277,0 2.313,-1.036 2.313,-2.312 0,-1.277 -1.036,-2.308 -2.313,-2.308 z m -30.422,0.12 c -1.276,0 -2.312,1.032 -2.312,2.31 0,1.276 1.036,2.312 2.312,2.312 1.277,0 2.313,-1.036 2.313,-2.313 0,-1.277 -1.037,-2.308 -2.314,-2.308 z m 15.07,0.044 c -1.277,0 -2.313,1.032 -2.313,2.308 0,1.277 1.036,2.313 2.313,2.313 1.277,0 2.313,-1.036 2.313,-2.313 0,-1.276 -1.037,-2.308 -2.314,-2.308 z m 7.787,0.277 c 1.07,0 1.94,0.867 1.94,1.938 0,1.07 -0.87,1.94 -1.94,1.94 -1.07,0 -1.94,-0.87 -1.94,-1.94 0,-1.07 0.87,-1.94 1.94,-1.94 z m -30.658,0.028 c 1.072,0 1.94,0.868 1.94,1.94 0,1.07 -0.868,1.94 -1.94,1.94 -1.07,0 -1.94,-0.87 -1.94,-1.94 0,-1.072 0.87,-1.94 1.94,-1.94 z m 45.956,0.068 c 0.462,0 0.88,0.175 1.2,0.46 l -2.115,2.87 c -0.524,-0.312 -0.873,-0.882 -0.873,-1.536 0,-0.99 0.8,-1.794 1.79,-1.794 z m -30.362,0.01 c 1.072,0 1.94,0.868 1.94,1.94 0,1.07 -0.868,1.938 -1.94,1.938 -1.07,0 -1.94,-0.868 -1.94,-1.94 0,-1.07 0.87,-1.94 1.94,-1.94 z m -23.42,0.14 c 0.8,0 1.446,0.646 1.446,1.445 0,0.8 -0.646,1.45 -1.445,1.45 -0.8,0 -1.45,-0.65 -1.45,-1.45 0,-0.798 0.65,-1.444 1.45,-1.444 z m -4.436,0.078 c 12.323,15.692 18.87,31.6 21.752,48.938 l -2.066,-0.097 c -3.424,-18.856 -11.133,-35.028 -21.586,-48.08 z m 50.485,0.014 c 0.845,0 1.533,0.682 1.533,1.528 0,0.845 -0.688,1.532 -1.533,1.532 -0.845,0 -1.532,-0.687 -1.532,-1.532 0,-0.846 0.687,-1.528 1.532,-1.528 z m -30.42,0.12 c 0.845,0 1.532,0.684 1.532,1.53 0,0.844 -0.688,1.53 -1.534,1.53 -0.845,0 -1.532,-0.686 -1.532,-1.53 0,-0.846 0.687,-1.53 1.532,-1.53 z m 15.07,0.045 c 0.844,0 1.53,0.682 1.53,1.527 0,0.845 -0.686,1.533 -1.53,1.533 -0.846,0 -1.533,-0.688 -1.533,-1.533 0,-0.845 0.687,-1.527 1.532,-1.527 z m 38.343,1.096 c 0.812,6.21 -0.79,10.22 -5.528,10.87 -6.04,0.83 -6.822,1.283 -6.856,7 -0.04,6.78 -1.042,8.736 -5.842,9.272 -5.4,0.603 -6.657,1.242 -6.173,7.957 0.355,4.898 -1.576,6.983 -5.735,7.892 -3.25,0.712 -6.067,1.8 -7.273,5.077 l -2.972,0.038 c 0.772,-5.16 5.96,-7.626 9.285,-7.797 3.585,-0.85 4.334,-2.05 3.753,-8.334 -0.437,-4.73 1.3,-6.168 6.856,-7.25 4.443,-0.874 5.532,-2.15 5.29,-5.783 -0.518,-7.79 -0.01,-8.963 4.422,-9.91 2.256,-0.535 5.93,-0.775 7.33,-2.498 1.595,-1.96 1.188,-3.63 1.044,-6.037 z m 28.544,0.207 0,2.037 -7.316,4.514 0,-1.983 z m -107.54,1.208 c -1.564,6.755 3.816,8.223 7.09,9.363 3.808,1.326 4.733,3.247 4.3,9.96 -0.327,5.076 0.233,6.198 3.52,7.94 5.03,2.596 6.38,6.283 4.146,11.682 -1.377,3.328 -0.654,4.26 0.218,7.166 l -2.44,-0.024 c -0.177,0.055 -2.236,-3.624 -0.48,-7.584 2.083,-4.692 2.024,-7.047 -2.617,-9.16 -3.59,-1.632 -4.692,-3.173 -4.916,-6.535 -0.094,-1.415 -0.084,-2.12 0.248,-5.198 0.418,-3.88 -0.965,-5.548 -6.7,-7.68 -2.557,-0.95 -4.293,-3.16 -4.816,-6.667 -0.147,-0.982 -0.015,-2.114 -0.015,-2.114 z m 85.784,0.732 21.815,14.512 -0.15,3.228 -23.144,-15.462 z m -14.056,0.32 c 1.055,0 1.91,0.855 1.91,1.91 0,1.055 -0.855,1.91 -1.91,1.91 -1.056,0 -1.91,-0.855 -1.91,-1.91 0,-1.055 0.854,-1.91 1.91,-1.91 z m -68.63,0.834 c 0.96,0 1.732,0.774 1.732,1.732 0,0.957 -0.773,1.736 -1.73,1.736 -0.96,0 -1.736,-0.78 -1.737,-1.736 0,-0.958 0.778,-1.73 1.736,-1.73 z m 104.38,0.204 -0.073,1.945 -7.182,4.44 0,-1.944 z m -113.84,1.358 c 6.597,8.598 13.082,17.457 18.082,34.15 l -2.133,0.82 c -4.127,-13.436 -10.477,-24.6 -17.964,-33.83 z m 17.23,-0.082 49.698,0 -1.275,1.716 -47.48,-0.485 z m 96.672,1.614 0,2.13 -5.503,3.35 -1.618,-1.058 z m -116.82,0.228 0.975,1.28 c 0,0 -1.057,0.828 -2.25,1.683 -3.255,2.327 -3.678,2.592 -3.895,4.107 -0.514,3.598 3.185,5.372 6.9,3.292 1.332,-0.61 4.252,-2.458 4.252,-2.458 l 0.84,1.236 c 0,0 -4.187,3.13 -6.643,3.845 -5.39,1.566 -9.413,-5.264 -5.43,-9.32 0.608,-0.62 1.894,-1.452 2.918,-2.113 1.05,-0.68 2.332,-1.552 2.332,-1.552 z m 22.183,0.85 45.79,0.27 -29.24,39.968 -1.3,-0.072 c -2.268,-14.95 -7.89,-28.01 -15.25,-40.167 z m -19.967,1.69 2.677,3.74 c 0,0 -1.746,1.668 -4.626,3.243 -2.31,1.263 -4.808,-1.033 -3.355,-3.103 1.493,-2.056 5.305,-3.88 5.305,-3.88 z m 114.604,0.384 0,1.95 -3.17,1.944 -1.45,-0.927 z m -114.94,1.498 c -1.268,0.067 -3.374,1.507 -4.09,2.75 -0.31,0.533 -0.198,0.98 0.086,1.347 0.433,0.56 0.946,0.527 2.468,-0.285 3.11,-1.657 3.693,-2.64 2.323,-3.612 -0.188,-0.134 -0.415,-0.194 -0.668,-0.2 l -0.117,0 z m -0.1,0.8 c 0.2,-0.02 0.433,0.042 0.625,0.025 0.537,0.22 0.372,0.888 -0.19,1.046 -0.123,-0.195 -1.056,-0.22 -0.994,0.727 -0.227,0.537 -0.218,0.496 -0.902,0.572 -0.453,-0.11 -0.755,0.204 -0.844,0.403 -0.47,0.252 -1.05,0.173 -1.158,-0.112 -0.105,-0.276 0.283,-1.073 0.61,-1.07 0.158,0.01 0.44,-0.224 0.728,-0.418 -0.01,-0.52 0.6,-0.594 0.776,-0.592 0.173,0.036 0.756,0.044 1.037,-0.43 0.08,-0.1 0.19,-0.14 0.31,-0.152 z m 115.04,0.466 0,3.006 -2.298,-1.47 z m -127.056,0.378 c 8.34,9.847 14.346,20.328 18.17,34.833 l -1.674,1.155 c -2.527,-10.17 -6.417,-20.916 -17.926,-34.886 z m 97.57,0.165 c 3.777,3.207 19.25,17.77 22.2,43.62 l -2.072,1.27 c -1.662,-13.644 -7.03,-29.286 -21.465,-43.15 z m -7.46,0.897 c 1.054,0 1.91,0.855 1.91,1.91 0,1.055 -0.856,1.91 -1.91,1.91 -1.056,0 -1.91,-0.855 -1.91,-1.91 0,-1.055 0.854,-1.91 1.91,-1.91 z m -92.432,0.747 c 0,0 1.753,1.8 1.75,2.23 -0.01,0.85 -0.68,1.33 -4.708,2.798 -0.68,0.247 -3.655,0.933 -3.655,0.933 l -0.108,-1.443 c 1.518,-0.548 5.593,-1.524 5.892,-2.39 0.146,-0.34 -0.58,-1.202 -0.427,-1.202 z m 27.785,0.366 c 0.96,0 1.732,0.78 1.732,1.736 0,0.957 -0.773,1.735 -1.73,1.735 -0.96,0 -1.737,-0.778 -1.737,-1.736 0,-0.958 0.778,-1.737 1.736,-1.737 z m 70.194,0.497 c 12.606,12.313 19.544,27.528 21.165,43.24 -14.682,11.94 -24.655,26.95 -28.618,45.73 -1.96,-3.266 -3.625,-7.02 -5.436,-10.688 19.59,-17.214 23.712,-48.216 6.77,-69.947 z m -77.095,2.346 0.882,1.368 c 0,0 -0.184,0.168 -2.93,1.87 -4.013,2.494 -4.675,4.118 -3.335,6.668 1.37,2.608 2.9,2.747 7.21,0.66 1.523,-0.737 2.817,-1.513 2.817,-1.513 l 0.69,1.43 c 0,0 -1.93,1.57 -5.65,2.933 -3.497,1.282 -6.802,-0.902 -7.423,-4.94 -0.45,-2.937 0.83,-4.51 5.93,-7.405 0.575,-0.304 1.81,-1.072 1.81,-1.072 z m 60.065,0.65 c 1.056,0 1.91,0.856 1.91,1.91 0,1.055 -0.854,1.91 -1.91,1.91 -1.055,0 -1.91,-0.855 -1.91,-1.91 0,-1.054 0.855,-1.91 1.91,-1.91 z m -77.9,0.073 1.155,1.087 c 0,0 -0.498,0.732 -3.34,2.442 -2.556,1.536 -2.82,1.287 -1.547,2.362 2.372,2.004 5.663,6.44 5.645,7.588 -0.017,1.104 -1.006,2.122 -2.903,2.976 -1.038,0.467 -5.148,1.933 -5.752,2.038 -1.2,0.13 -1.538,0.612 -0.338,1.703 2.04,2.34 3.78,7.344 3.08,8.87 -0.788,1.72 -1.733,2.01 -9.285,2.356 -0.86,0.04 -1.27,-0.204 -0.805,0.897 0.34,0.8 0.695,1.9 1.368,5.295 0.6,3.028 0.497,4.39 -0.68,5.014 -0.675,0.357 -5.927,0.23 -8.096,-0.195 -2.484,-0.488 -2.754,-0.52 -2.352,1.096 0.52,2.234 0.845,8.218 -0.844,9.373 -0.702,0.458 -1.458,0.345 -4.542,-0.693 -1.967,-0.663 -3.67,-1.42 -3.67,-1.42 l 0.033,-1.858 c 1.605,0.66 6,2.558 7.25,1.96 1.483,-2.125 -0.575,-9.573 -1.362,-11.168 -0.95,-1.904 0.043,-2.32 2.23,-1.14 1.148,0.81 11.037,4.71 10.475,1.22 -0.603,-3.31 -1.678,-7.077 -3.764,-9.443 -1.93,-2.187 -0.97,-3.08 1.177,-2.122 3.8,1.697 11.65,1.28 11.26,-0.478 -0.518,-2.862 -3.118,-6.742 -6.676,-9.75 -0.988,-0.836 -1.025,-1.194 0.142,-1.4 3.323,-0.265 12.835,-1.242 11.505,-3.475 -1.14,-1.827 -2.665,-3.848 -3.963,-4.936 -2.13,-1.787 -4.28,-2.563 -5.232,-2.934 l 0.06,-1.37 c 4.332,-0.36 6.584,-1.664 9.774,-3.897 z m -10.487,1.347 c -1.553,16.283 -8.365,29.7 -22.425,39.056 l -0.078,-1.823 c 12.36,-9.285 18.295,-22.48 19.904,-35.25 z m 29.955,1.023 c 0.01,0 0.01,0.003 0.01,0.005 0,0 2.262,4.067 2.26,4.436 -1.343,1.245 -4.867,3.067 -6.31,2.64 -2.222,-0.71 -2.57,-3.082 -0.435,-4.48 1.844,-1.344 4.142,-2.513 4.45,-2.595 l 0.025,-0.005 z m -18.017,-0.253 1.156,1.036 c 0,0 -0.297,0.45 -1.96,1.782 -1.296,0.996 -0.844,0.603 0.037,1.79 0.784,0.94 2.18,2.83 2.18,2.83 l -0.416,2.517 c -1.463,-2.084 -2.677,-3.6 -4.848,-5.828 -1.104,-1.137 -1.042,-1.168 0.533,-1.988 1.18,-0.653 2.14,-1.445 3.316,-2.14 z m 31.565,1.62 c 0.958,0 1.73,0.774 1.732,1.732 0,0.957 -0.774,1.735 -1.73,1.735 -0.96,0 -1.737,-0.778 -1.737,-1.736 0,-0.96 0.778,-1.732 1.736,-1.732 z m -14.022,0.146 c -1.65,0.435 -3.27,1.91 -4.18,2.56 -0.33,0.236 -0.07,1.424 0.248,1.833 0.408,0.524 1.16,0.437 2.06,-0.063 0.378,-0.21 1.06,-0.552 1.513,-0.762 1.27,-0.585 1.8,-1.023 1.755,-1.51 -0.204,-0.66 -0.723,-2.105 -1.397,-2.057 z m 0.092,0.75 c 0.464,0.02 0.8,0.618 0.65,0.97 -0.796,0.43 -1.237,0.067 -1.135,0.67 0,0 0.08,0.938 -1.086,0.96 -0.285,-0.124 -0.78,-0.102 -1.02,0.14 -0.813,0.338 -1.525,-0.375 -0.64,-0.78 0.24,-0.11 0.832,-0.295 0.995,-0.66 0.084,-0.45 0.458,-0.813 0.868,-0.562 0.218,0.017 0.705,0.05 0.863,-0.295 -0.06,-0.388 0.215,-0.42 0.412,-0.436 0.032,-0.005 0.06,-0.007 0.092,-0.006 z m -33.327,-0.12 c 0.357,1.828 -0.746,5.037 -1.37,6.846 -3.698,4.837 -9.06,7.31 -14.158,9 -1.133,0.375 -2.655,0.185 -2.655,0.185 7.054,-7.258 13.103,-12.578 18.183,-16.03 z m -12.886,1.644 c 0.05,-0.407 -1.81,-0.9 -1.988,-0.645 -0.344,0.322 -0.89,5.363 -0.534,5.726 0.495,0.504 1.863,0.643 1.993,0.042 0.427,-1.978 0.323,-3.455 0.527,-5.123 z m 31.62,-0.15 1.206,1.498 c -2.558,24.294 -19.912,45.313 -38.44,53.646 l -0.054,-1.61 c 21.196,-11.132 33.95,-29.668 37.286,-53.534 z m 83.857,0.1 2.3,3.163 -3.294,0.1 z m -116.09,0.588 c -0.02,0.83 -0.114,2.557 -0.434,3.52 -0.2,0.75 -0.78,0.58 -1,-0.11 -0.226,-0.72 -0.037,-2.758 0.393,-3.594 0.46,-0.787 0.822,-0.655 1.04,0.185 z m 17.537,0.44 c 1.138,0 7.175,3.716 6.368,5.567 -0.642,1.473 -5.695,1.592 -8.01,1.386 l 0.348,-1.42 c 0,0 0.706,0.247 3.398,-0.038 2.827,-0.19 2.62,-1.16 -0.62,-3.21 -1.395,-0.873 -1.718,-1.088 -1.718,-1.088 z m 16.732,1.994 c 1.87,3.152 3.64,6.705 5.305,10.686 -22.825,21.538 -21.054,50.87 -6.662,70.122 l -6.202,8.37 c -12.4,-11.832 -19.15,-26.387 -21.43,-41.846 18.098,-13.02 26.602,-32.453 28.99,-47.333 z m 84.76,0.954 1.363,2.604 -3.273,-0.053 z m -14.133,1.305 c 1.054,0 1.91,0.854 1.91,1.91 0,1.054 -0.856,1.904 -1.91,1.904 -1.057,0 -1.91,-0.85 -1.912,-1.905 0,-1.056 0.855,-1.91 1.91,-1.91 z m -53.11,0.512 0.65,1.48 c 0.03,0.185 -4.618,1.652 -6.114,3.54 -1.382,1.74 -1.253,3.56 -0.475,4.814 1.326,1.788 2.265,2.038 4.5,1.352 1.823,-0.558 3.162,-1.313 4.97,-2.235 l 0.287,0.747 c 0,-0.04 -2.596,1.526 -4.578,2.642 -0.745,0.42 -1.64,0.596 -2.415,0.577 -4.51,-0.11 -6.9,-5.927 -3.18,-9.363 0.544,-0.504 2.386,-1.513 3.936,-2.313 1.033,-0.533 2.42,-1.242 2.42,-1.242 z m 59.693,0.917 c 14.887,21.47 4.695,45 -4.916,53.325 l -0.257,-2.526 c 16.184,-18.436 10.555,-39.965 3.81,-49.536 z m 9.58,0.964 1.17,2.652 -3.457,-0.364 z m -60.004,0.87 c 0.957,0 1.735,0.777 1.735,1.734 0,0.958 -0.778,1.73 -1.736,1.73 -0.96,0 -1.732,-0.772 -1.732,-1.73 0,-0.957 0.773,-1.735 1.73,-1.735 z m 48.65,0.337 c 13.047,18.957 5.77,49.182 -19.12,58.39 l -0.126,-2.12 c 25.377,-10.61 27.87,-38.853 17.674,-54.79 z m -56.562,0.117 1.65,4.452 c -2.075,1.388 -2.89,1.625 -5.214,2.19 -1.83,0.418 -3.258,-2.748 -1.852,-3.96 1.606,-1.386 3.335,-1.985 5.416,-2.683 z m -42.32,0.015 c 0.307,-0.014 -0.017,0.745 -0.804,2.652 -1.736,4.202 -1.85,4.292 -6.22,4.985 -2.275,0.36 -3.97,0.45 -5.587,0.295 -2.438,-0.235 -3.48,-0.924 -1.9,-1.256 4.58,-1.008 9.646,-3.382 12.94,-5.68 0.86,-0.615 1.362,-0.988 1.572,-0.998 z m 82.936,0.517 c 1.185,0 2.147,0.962 2.148,2.147 0,1.185 -0.963,2.143 -2.148,2.143 -1.185,0 -2.143,-0.958 -2.143,-2.143 0,-1.185 0.96,-2.148 2.144,-2.148 z m -64.864,0.594 -0.184,1.652 c 0,0 -2.647,1.4 -3.9,1.926 -0.958,0.388 -1.024,0.474 -0.716,1.36 0.62,1.774 1.813,3.972 1.813,3.972 l -1.106,2.506 c -0.675,-2.254 -1.386,-4.635 -2.628,-6.734 -1.178,-1.642 -1.398,-1.846 0.435,-2.19 2.366,-0.796 4.207,-1.373 6.285,-2.492 z m 23.637,0.537 c -1.295,0.057 -4,1.146 -4.267,2.187 -0.15,0.588 0.017,1.41 0.514,1.596 1.347,0.5 4.05,-0.608 4.762,-1.62 0.222,-0.312 -0.116,-0.96 -0.354,-1.362 -0.182,-0.308 -0.147,-0.822 -0.655,-0.8 z m 0.068,0.888 c 0.023,-0.002 0.045,-0.002 0.068,0 0.22,-0.02 1.018,0.992 0.12,0.907 -0.308,-0.03 -0.59,0.086 -0.842,0.35 -0.03,0.484 -0.726,0.668 -1.06,0.503 -0.25,-0.123 -0.6,0.13 -0.636,0.28 -0.504,0.364 -1.14,0.346 -1.222,0.088 -0.17,-0.18 0.338,-0.924 0.78,-0.897 0.096,0.005 0.41,-0.207 0.703,-0.46 0.14,-0.508 0.676,-0.42 1.014,-0.394 0.38,0.154 0.73,-0.343 1.075,-0.378 z m 70.098,0.077 0.955,2.658 -3.418,-0.306 z m -14.692,3.062 c -0.707,0.902 -1.36,0.91 -2.39,0.863 0.844,1 1.217,2.384 0.394,3.29 -1.25,1.276 -3.665,-0.68 -3.486,-0.858 l 4.33,-5.77 c 1.15,0.325 1.786,1.4 1.153,2.475 z m -94.055,-1.505 c 0,0 5.265,4.535 5.302,6.567 0.015,0.774 -0.234,1.025 -0.853,1.23 -2.068,0.686 -7.824,-1.078 -7.824,-1.078 l 0.74,-1.403 c 0.906,0.248 5.365,1.403 5.75,0.835 0.397,-0.59 -3.726,-4.612 -3.735,-4.617 z m 26.13,1.896 0.63,2.19 -2.152,-0.532 z m 84.073,0.393 0.562,3.03 -3.447,-0.804 z m -65.72,0.05 0.514,1.778 c -22.868,10.604 -29.546,34.956 -17.62,55.053 l -1.348,1.853 c -15.963,-25.866 0.204,-52.118 18.454,-58.684 z m -20.602,1.86 0.31,2.702 -2.657,-0.156 z m -31.472,-0.07 c 0.453,0.006 0.54,0.25 0.537,0.517 0,0.364 -2.308,3.31 -3.056,3.974 -1.622,0.656 -7.88,-1.958 -8.814,-3.98 -0.184,-0.594 0.434,-0.333 1.82,-0.05 3.51,1 7.067,-0.375 9.514,-0.46 z m 60.926,0.035 c 0.957,0 1.735,0.773 1.735,1.73 0,0.958 -0.778,1.737 -1.735,1.737 -0.958,0 -1.73,-0.78 -1.73,-1.736 0,-0.958 0.772,-1.73 1.73,-1.73 z m -72.035,2.133 c 1.74,1.565 4.298,2.86 6.566,3.31 1.413,0.31 1.004,0.457 -0.306,1.81 -1.225,1.28 -1.124,1.44 -2.37,0.808 -2.082,-1.055 -4.345,-3.453 -4.254,-4.757 0.038,-0.544 0.133,-1.174 0.365,-1.172 z m 129.892,0.293 0.43,2.88 -3.257,-1.128 z m -90.55,1.04 1.062,2.578 -2.89,-0.082 z m 73.44,2.462 c 0,0.36 -0.088,0.97 -0.088,0.97 1.698,-1.082 3.954,-0.194 3.887,1.554 -0.094,2.464 -1.3,2.487 -3.268,2.16 1.077,1.787 -0.202,3.51 -2.228,2.85 -1.848,-0.6 -1.492,-2.55 -0.63,-3.703 -4.357,0.71 -5.522,6.91 -0.488,8.752 -1.012,-1.566 -1.263,-3.436 0.93,-3.75 2.04,-0.292 2.903,1.253 2.023,3.114 1.915,-0.667 3.72,0.43 3.143,2.296 -0.696,2.252 -2.7,2.096 -3.88,0.724 0.848,2.042 -1.116,3.513 -2.597,2.722 -2.335,-1.247 -1.18,-3.473 0.384,-4.065 -6.013,-0.62 -7.41,7.697 -2.976,8.883 -1.137,-0.713 -1.266,-3.988 1.332,-3.54 2.552,0.514 1.945,2.884 0.308,3.962 1.976,-0.422 3.826,1.304 2.623,3.05 -1.417,2.057 -3.37,0.59 -4.097,-0.81 0.228,1.877 -0.967,3.073 -2.503,2.37 -2.638,-1.21 -0.69,-4.237 1.373,-4.043 -4.184,-2.473 -9.872,2.712 -6.52,7.005 -0.132,-1.95 0.84,-3.55 2.18,-3.33 1.18,0.133 2.21,1.477 1.88,2.534 -0.31,0.9 -1.337,1.592 -2.413,1.81 3.2,0.354 3.473,2.617 2.147,3.733 -2.25,1.894 -3.297,-0.293 -3.82,-1.572 -0.457,3.18 -4.204,2.1 -4.334,-0.197 -0.128,-2.516 2.775,-2.464 3.312,-2.323 0.067,-0.087 -2.247,-2.377 -4.716,-2.703 l 0.015,-1.46 c 9.737,-6.106 13.085,-16.767 9.995,-26.874 l 0.587,-0.674 c 1.586,1.212 3.18,3.813 6.116,2.86 0,0 -0.683,-0.482 -1.02,-0.814 -1.513,-1.49 -0.663,-3.244 1.44,-3.34 1.362,-0.064 1.89,0.988 1.9,1.846 z m -66.055,-0.005 1.008,1.48 c -14.764,17.296 -12.074,37.087 -3.583,50.188 l -1.236,1.494 c -7.514,-9.635 -13.65,-32.99 3.812,-53.163 z m 12.582,2.39 c -0.02,0.386 0.01,0.696 0.01,0.696 0,0 0.317,-0.395 0.575,-0.868 1.26,-2.108 3.975,-0.895 3.53,1.525 -0.21,1.136 -2.124,1.58 -2.644,1.255 0.495,1.353 1.837,1.67 3.472,2.256 0.572,0.11 1.552,0.39 1.552,0.39 l 0.038,0.915 c -8.856,5.58 -13.87,15.04 -10.623,27.977 l -0.98,1.324 c -1.786,-4.297 -3.416,-4.203 -6.353,-4.372 0,0 0.73,0.515 1.15,1.012 0.89,1.052 0.495,2.888 -0.737,3.08 -2.856,0.44 -2.885,-1.582 -2.507,-2.954 0,0 -0.51,0.43 -0.76,0.592 -1.134,0.736 -2.546,-0.03 -2.678,-1.49 -0.124,-1.373 0.346,-2.262 1.76,-2.433 0.475,-0.056 1.208,0.064 1.208,0.064 0,0 -0.282,-0.54 -0.437,-0.844 -0.678,-1.328 0.808,-2.464 2.17,-2.178 2.154,0.52 1.985,2.376 0.738,3.835 3.34,0.25 5.09,-1.93 4.843,-4.098 -0.3,-2.645 -1.516,-4.074 -4.142,-4.535 0,0 0.423,0.665 0.605,0.987 0.672,1.192 -0.294,2.656 -1.707,2.648 -1.45,-0.01 -2.376,-1.337 -1.818,-2.648 0.136,-0.32 0.68,-0.72 0.596,-0.756 -0.057,-0.026 -0.803,0.205 -1.008,0.237 -1.74,0.272 -2.86,-1.26 -2.13,-2.788 0.518,-1.083 2.072,-1.375 3.2,-0.843 0.18,0.065 0.4,0.317 0.433,0.26 0.032,-0.052 -0.116,-0.408 -0.16,-0.658 -0.36,-1.4 0.314,-2.148 1.83,-2.05 2.126,0.135 2.917,1.866 1.49,3.427 -0.368,0.404 -0.935,1 -0.935,1 0.07,0.306 3.03,0.53 4.542,-1.052 1.75,-1.83 2.026,-5.653 0.267,-6.9 -0.29,-0.206 -0.873,-0.615 -0.873,-0.615 0.838,1.68 -0.703,3.612 -2.063,3.25 -2.72,-0.655 -2.484,-2.88 -0.696,-3.584 0,0 -1.813,-0.68 -2.335,-1.41 -0.74,-1.03 -0.49,-1.982 0.396,-2.707 1.117,-0.897 2.704,-0.31 3.47,0.798 0.462,-1.407 1.113,-2.36 3.04,-1.592 1.347,0.643 1.336,2.44 -0.148,3.42 -0.475,0.313 -1.322,0.605 -1.322,0.605 0,0 1.276,0.727 2.828,0.744 2.993,0.034 5.362,-3.495 4.155,-6.192 -0.245,-0.547 -0.857,-1.254 -0.857,-1.254 0,0 -0.066,0.944 -0.252,1.306 -0.692,1.345 -2.282,1.37 -3.222,0.52 -0.855,-0.77 -0.605,-1.802 0.058,-2.504 0.502,-0.534 0.956,-0.638 1.658,-0.965 -0.797,-0.27 -1.685,-0.464 -2.072,-1.288 -0.36,-0.788 -0.108,-1.755 0.848,-2.355 1.725,-0.9 3.078,0.625 3,1.813 z m -59.377,-2.176 c 1.22,0.705 2.033,1.768 3.17,2.696 0.88,0.713 0.87,0.84 0.143,1.517 -1.635,1.577 -2.554,-0.705 -3.082,-1.64 -0.647,-1.248 -0.714,-2.524 -0.23,-2.572 z m 130.726,0.437 0.204,3.05 -3.4,-1.304 z m -93.668,0.18 1.222,2.773 -3.156,-0.015 z m 65.958,0.004 c 2.966,10.966 -1.206,18.837 -9.12,25 l -0.878,-1.148 c 6.187,-5.256 10.817,-11.45 8.77,-22.488 z m -36.366,0.05 34.8,0.64 -1.043,1.833 -2.71,0.014 -5.378,9.504 -25.01,-0.004 z m -50.916,7.93 c -1.213,1.916 -8.442,-2.207 -8.347,-2.424 l 0.906,-0.872 c 1.147,0.465 4.72,2.436 5.51,2.125 0.277,-1.795 -1.83,-4.117 -2.623,-5.663 l 0.884,-1.11 c 0,0 4.585,5.936 3.67,7.944 z m 11.86,-6.975 -1.202,2.175 c -1.127,0.346 -4.526,0.407 -4.8,0.632 0.41,1.115 0.86,4.39 0.86,4.39 l -1.338,1.714 c -0.358,-2.107 -0.954,-4.77 -1.48,-6.724 -0.452,-1.657 -0.326,-1.293 3.204,-1.566 1.582,-0.09 3.213,-0.29 4.757,-0.62 z m 7.138,2.623 1.43,2.54 -2.9,0.03 z m -34.848,0.17 c 0.158,-0.065 1.056,0.94 1.21,1.23 -0.066,0.66 -1.09,1.023 -1.25,0.787 -0.062,-0.095 -0.08,-1.577 0.02,-1.988 0.01,-0.016 0.01,-0.025 0.02,-0.03 z m 131.27,0.034 -0.03,3.18 -3.447,-1.527 z m 27.37,0.717 -0.048,2.06 c -12.5,6.106 -31.148,22.498 -36.467,51.9 l -1.09,-1.202 c 5.315,-28.073 23.662,-44.67 37.606,-52.76 z m -125.75,2.836 1.556,2.342 -2.808,0.305 z m 98.448,0.897 -0.277,2.817 -3.393,-1.88 z m -65.308,0.587 c 0.013,0.668 0.07,1.15 0.112,1.818 -7.704,4.987 -10.307,12.835 -9.024,22.71 l -1.067,1.577 c -2.505,-8.955 0.025,-19.99 9.98,-26.105 z m 89.314,0.58 c 0.785,0.462 3.33,1.212 3.33,1.212 l -0.028,1.873 -5.242,-1.88 z m -150.6,7.97 c -1.126,0.92 -3.727,-0.61 -4.91,-1.234 l -0.033,-1.58 c 0,0 0.902,0.462 1.81,0.824 1.865,0.827 1.87,-0.158 0.848,-2.918 -0.36,-0.97 -0.715,-2.094 -0.715,-2.094 l 1.227,-1.163 c 0,0 2.934,6.608 1.775,8.165 z m 26.317,-5.927 2.01,2.1 -2.8,0.64 z m 122.36,0.252 c 1.775,0.002 5.2,1.445 5.2,1.445 l -0.02,2.077 c -1.74,-0.503 -3.76,-1.47 -5.6,-1.74 -1.453,-0.202 -1.367,0.612 -1.375,2.664 -0.01,2.782 0.687,5.294 2.017,8.074 1.1,2.303 0.528,2.92 -1.27,1.89 -3.237,-2.22 -10.135,-3.896 -11.196,-2.604 -1.092,1.33 1.058,7.948 3.544,11.105 1.01,1.283 1.073,1.488 0.6,1.988 -0.38,0.405 -0.998,0.43 -2.088,0.082 -3.586,-1.14 -8.776,-1.397 -10.27,-0.43 -1.484,0.96 2.378,7.586 5.62,9.725 2.102,1.5 1.696,2.247 -1.702,2.323 -5.55,0.026 -9.818,1.263 -9.58,2.778 0.4,2.576 3.995,6.108 8.12,7.982 2.525,1.032 1.47,1.442 -0.21,2.038 -2.806,0.947 -5.503,2.465 -8.144,3.883 l -1.27,-1.625 c 0,0 2.657,-1.688 5.546,-3.31 0.678,-0.382 0.644,-0.52 -0.305,-1.315 -3.078,-2.58 -5.337,-5.46 -5.81,-7.4 -0.458,-1.883 0.483,-3.073 3.28,-4.135 1.726,-0.657 2.363,-0.85 3.888,-1.193 2.197,-0.493 2.233,-0.56 1.294,-2.25 -0.422,-0.758 -1.112,-2.008 -1.533,-2.778 -3.274,-5.598 -1.547,-7.62 6.05,-7.734 1.867,-0.098 2.222,-0.104 2.12,-0.747 -0.404,-2.638 -1.57,-5.666 -1.405,-7.9 0.348,-3.37 3.814,-4.185 9.905,-2.665 1.41,0.353 1.508,0.28 1.26,-0.857 -1.178,-5.13 0.05,-9.76 3.332,-9.368 z m -22.354,0.36 -0.533,3.267 -3.244,-2.158 z m -121.31,0.77 8.946,0.586 -1.42,1.67 -5.407,-0.103 -0.204,4.616 -1.73,1.484 z m 57.98,0.354 7.366,0 -0.058,7.786 -7.34,0 z m 8.777,0 6.856,0 0,7.786 -6.8,0.072 z m 8.21,0 7.35,0 -0.068,7.786 -7.278,0 z m 64.196,0.62 c -0.174,2.002 0.245,5.622 0.415,7.176 -0.12,0.463 -0.44,0.396 -2.365,-0.04 -1.335,-0.446 -5.035,-0.577 -5.035,-0.577 l 1.55,-1.644 c 1.268,0.15 2.27,0.14 3.58,0.303 -0.017,-1.312 0.038,-3.815 0.038,-3.815 z m -119.027,1.54 2.055,2.07 -2.632,0.675 z m 100.46,0.675 -0.82,3.33 -2.976,-2.675 z m 28.198,1.77 0.012,1.7 -2.927,-1.317 c -0.034,1.94 1.682,5.44 1.682,5.44 l -1.392,0.655 c -1.204,-1.97 -2.043,-3.738 -2.112,-5.957 0.016,-0.803 -0.095,-2.16 0.63,-2.2 1.488,-0.034 2.733,0.47 4.108,1.68 z m -129.66,1.682 2.443,1.455 -2.71,1.096 z m 100.528,0.747 -1.198,3.428 -2.614,-2.967 z m -129.597,1.09 6.595,2.236 -1.173,1.246 -5.48,-1.73 z m 92.52,0.908 0.542,12.146 -34.843,-0.286 1.212,-1.717 2.264,-0.02 5.964,-10.055 z m -63.917,0.945 2.59,1.828 -2.69,1.188 z m 130.286,1.072 0,1.987 c -8.412,6.215 -17.507,16.926 -19.055,35.866 l -2.27,1.94 c 1.108,-18.494 8.81,-31.243 21.32,-39.794 z m -30.694,0.072 -1.222,3.083 -2.42,-2.87 z m 23.706,4.193 -0.81,0.907 c -0.23,0.077 -3.437,-1.643 -5.96,-2.046 0.827,1.633 1.218,2.853 3.046,5.44 l -1.178,1.164 c -0.355,-0.08 -4.928,-6.83 -3.718,-8.356 1.964,-1.322 6.726,1.45 8.62,2.89 z m -13.68,-3.625 c -0.053,1.833 1.43,7.523 1.43,7.523 -2.292,0.113 -4.517,-0.15 -6.992,0.545 l 1.166,-2.08 c 0,0 1.078,-0.112 2.02,-0.3 1.95,-0.387 1.75,-0.153 1.296,-1.848 -0.425,-1.595 -0.45,-1.927 -0.45,-1.927 0,0 1.39,-1.923 1.53,-1.913 z m -128.592,1.967 c 3.01,18.235 10.204,30.757 21.553,42.024 l -1.154,1.51 c -13.342,-12.21 -20.624,-27.747 -22.528,-42.36 z m 18.775,0.767 2.453,1.338 -2.52,1.47 z m 130.45,0.053 -0.015,2.675 -1.537,-1.55 c 0.415,-0.375 0.918,-0.75 1.552,-1.125 z m -32.34,0.548 -1.674,3.07 -2.183,-2.91 z m 32.16,6.943 c -0.343,-0.54 -3.406,-2.445 -4.796,-3.244 -0.09,-0.235 2.152,-2.237 2.596,-2.375 2.225,0.308 2.94,4.753 2.2,5.618 z m -130.236,-3.336 2.772,1.353 -2.516,1.775 z m 92.27,0 3.56,0.335 -1.892,2.938 z m 32.947,1.304 c 0.462,0.003 0.98,0.197 1.63,0.558 2.506,1.397 3.823,2.927 3.684,4.286 -0.063,0.625 -0.412,0.75 -0.818,0.296 -0.732,-0.818 -3.198,-1.882 -5.324,-2.298 -1.61,-0.315 -1.76,-0.453 -1.275,-1.198 0.732,-1.13 1.335,-1.648 2.104,-1.644 z m -42.887,1.29 c 3.856,14.6 10.633,25.833 19.143,35.08 l -1.765,1.504 c -6.46,-7.413 -13.568,-16.088 -19.37,-34.843 z m 7.697,0.78 3.562,0.54 -2.086,2.656 z m -50.235,0.156 c 0.413,0.014 -1.226,6.228 -6.885,6.657 -3.583,0.594 -3.985,1.197 -4.04,6.773 -0.073,7.56 -1.292,9.327 -7.47,9.794 -4.092,0.31 -4.63,1.142 -3.938,7.017 0.658,5.59 -1.456,8.44 -6.668,8.436 -4.515,0.374 -6.38,2.48 -6.376,6.662 0,1.695 0.03,2.105 0.03,2.105 l -2.92,0.228 c 0,0 0.01,-2.754 0.228,-4.093 0.89,-5.41 3.208,-7.578 8.092,-7.554 3.776,-0.287 4.364,-0.9 4.233,-6.623 -0.147,-5.822 -0.225,-5.783 1.294,-7.307 0.978,-0.982 2.095,-1.423 4.078,-1.61 6.175,-0.582 6.663,-0.994 6.647,-7.327 -0.574,-5.26 0.88,-8.48 4.223,-8.746 6.76,-0.536 6.6,-4.206 6.303,-4.36 l 3.147,-0.047 c 0.01,-0.003 0.013,-0.005 0.02,-0.005 z m 13.83,0 c 3.965,21.39 16.512,41.42 23.4,48.812 l -1.345,0.713 c -10.037,-12.466 -19.16,-26.78 -23.67,-49.49 z m -7.163,0.01 3.136,0.034 -36.137,50.858 -1.907,-1.435 z m 4.382,0.034 c 3.395,12.328 6.067,24.383 16.743,40.51 l -45.287,-0.295 z m 12.505,0.048 c 0.264,-0.122 1.328,6.238 -0.258,9.174 -1.427,3.974 -0.73,6.213 2.37,7.66 5.326,2.487 6.67,4.97 5.994,11.075 -0.473,4.275 0.82,6.34 4.834,7.715 4.787,1.638 6.882,4.213 6.857,8.432 0,0.647 -0.248,1.386 -0.248,1.386 l -2.67,1.57 c 0,0 0.032,-0.573 0.134,-1.26 0.698,-4.676 -0.19,-5.945 -5.71,-8.15 -5.215,-2.083 -6.508,-4.492 -5.62,-10.497 0.29,-1.96 -0.11,-3.94 -0.92,-5.432 -1.366,-2.43 -4.383,-2.406 -6.552,-4.626 -1.792,-1.9 -1.992,-4.555 -0.465,-9.1 0.947,-2.817 1.09,-3.884 0.353,-6.23 -0.484,-1.547 -0.673,-1.684 -0.673,-1.684 z m -62.897,0.68 3.074,0.848 -2.313,2.4 z m 122.01,0.636 c 1.056,-0.03 3.094,0.34 4.764,1.172 3.83,1.907 4.526,3.47 1.17,2.628 -1.894,-0.476 -4.615,-0.368 -7.24,0.28 -2.775,0.687 -2.716,0.718 -1.76,-0.96 1.21,-2.123 1.525,-3.078 3.067,-3.12 z m -6.952,2.253 -0.696,1.197 c -1.523,-0.252 -3.123,-1 -5.44,-0.815 0.95,1.82 2.076,2.76 3.587,4.365 l -0.564,1.202 c -0.135,0.162 -4.417,-3.41 -5.275,-5.81 -0.386,-1.082 -0.035,-1.554 1.524,-1.594 2.323,-0.035 4.663,0.63 6.864,1.455 z m -57.203,-1.177 c 1.147,0 2.075,0.928 2.075,2.075 0,1.148 -0.928,2.08 -2.075,2.08 -1.147,0 -2.075,-0.932 -2.076,-2.08 0,-1.146 0.928,-2.074 2.075,-2.074 z m 29.246,0.562 3.508,0.63 -2.337,2.618 z m -65.567,0.026 c 0.83,-0.066 2.11,1.54 2.107,1.544 l -4.25,5.87 c -2.022,-0.406 -1.59,-3.47 0.263,-3.562 0.428,0.002 1.21,0.075 1.21,0.075 0,0 -0.57,-0.31 -0.9,-0.746 -1.24,-1.5 -0.066,-3.05 1.57,-3.18 z m 79.314,-0.525 c 0,0 3.383,6.69 3.167,6.946 -2.097,0.924 -4.386,1.4 -6.69,2.24 l 0.442,-1.944 c 0,0 0.768,-0.055 3.344,-1.036 1.234,-0.47 -1.346,-3.9 -1.346,-3.9 z m -23.404,1.976 c 4.936,0.04 5,6.1 4.054,8.102 -0.687,1.375 -1.733,2.137 -4.892,3.564 -2.74,1.237 -3.045,1.154 -3.045,1.154 l -0.655,-1.46 c 0,0 1.595,-0.703 3.312,-1.396 3.55,-1.433 4.413,-2.53 4.024,-5.096 -0.55,-3.635 -3.358,-4.2 -8.79,-1.765 -0.63,0.282 -1.425,0.566 -1.425,0.566 l -0.374,-0.732 c 0.088,-0.072 4.352,-2.306 6.74,-2.86 0.375,-0.054 0.724,-0.08 1.053,-0.078 z m -76.348,0.66 2.793,0.92 -2.036,2.003 z m 124.414,0.78 c 2.467,-0.007 4.5,0.41 4.494,1.29 0,0.417 -0.098,0.454 -2.315,0.76 -3.37,0.468 -8.998,3.343 -12.165,6.01 -1.876,1.582 -1.39,1.213 -0.6,-1.078 0.785,-2.28 1.958,-5 2.593,-5.414 1.587,-1.037 5.194,-1.56 7.99,-1.568 z m -40.357,0.315 2.376,0.52 -1.548,1.498 z m -7.962,1.29 c 0.852,-0.012 1.272,0.39 1.606,1.203 0.723,1.76 0.01,2.792 -2.744,3.972 -1.248,0.558 -2.362,1.345 -3.73,1.595 l -1.73,-4.645 c 0,0 0.546,-0.2 2.347,-0.946 2.05,-0.85 3.4,-1.167 4.25,-1.18 z m -8.028,0.563 c 5.495,15.545 12.22,25.643 19.336,34.01 l -1.72,1.076 c -7.56,-8.943 -14.515,-19.42 -19.527,-34.844 z m 7.622,0.553 c -0.666,0.02 -1.664,0.422 -2.997,0.936 -1.937,0.747 -2.105,1.65 -1.236,2.77 0.38,0.486 0.77,0.378 2.634,-0.36 1.9,-0.754 2.722,-1.088 2.836,-1.765 0.166,-0.987 -0.38,-1.605 -1.236,-1.58 z m 53.425,0.212 c -0.01,0.652 -9.888,10.02 -15.54,14.79 -2.575,2.172 -2.487,2.155 -2.707,1.886 -0.138,-1.614 0.956,-7.378 1.62,-8.384 3.775,-3.996 9.6,-7.248 15.266,-8.47 0.89,-0.178 1.442,-0.16 1.36,0.178 z m -53.252,0.312 c 0.355,0.01 0.663,0.318 0.66,0.713 0,0.302 -0.44,0.594 -0.892,0.59 -0.16,0 -0.554,0.09 -0.8,0.345 -0.245,0.355 -0.403,0.695 -0.844,0.61 -0.257,-0.047 -0.73,-0.063 -0.916,0.098 -0.868,0.756 -1.73,0.13 -1.33,-0.63 0.102,-0.19 0.453,-0.288 0.738,-0.286 0.247,0 0.81,-0.056 0.892,-0.36 0.098,-0.36 0.652,-0.462 1.038,-0.45 0.42,0.056 0.76,-0.154 0.868,-0.33 0.156,-0.14 0.34,-0.28 0.514,-0.295 0.024,-0.002 0.05,-0.006 0.072,-0.005 z m -74.733,0.165 3.147,0.426 -1.983,2.542 z m 30.04,-0.043 c 1.147,0 2.08,0.928 2.08,2.075 0,1.147 -0.933,2.08 -2.08,2.08 -1.147,0 -2.075,-0.933 -2.076,-2.08 0,-1.147 0.928,-2.075 2.075,-2.075 z m 32.774,1.645 c 1.146,0 2.075,0.928 2.075,2.075 0,1.147 -0.93,2.075 -2.076,2.075 -1.147,0 -2.076,-0.928 -2.076,-2.075 0,-1.147 0.93,-2.075 2.075,-2.075 z m -61.41,2.345 3.415,0.218 -1.954,2.613 z m 18.024,0.5 c 1.147,0 2.075,0.927 2.075,2.074 0,1.147 -0.93,2.075 -2.076,2.075 -1.147,0 -2.075,-0.927 -2.075,-2.074 0,-1.147 0.927,-2.075 2.074,-2.075 z m 85.28,1.294 c 1.423,-0.023 3.073,0.12 3.073,0.12 l -0.398,1.597 c -1.737,0.166 -3.967,-0.316 -5.83,0.463 0.693,1.13 4.746,2.73 5.194,3.13 0.042,0.168 -0.334,1.69 -0.334,1.69 0.11,0.39 -6.858,-2.827 -7.09,-5.54 0.01,-0.92 3.01,-1.422 5.383,-1.46 z m -23.958,1.658 c 3.958,0.036 5.91,5.563 4.373,8.01 -0.61,1.106 -1.984,2.418 -3.797,3.573 -0.872,0.556 -3.18,1.688 -3.18,1.688 l -1.04,-1.605 c 0,0 0.923,-0.37 1.79,-0.844 2.18,-1.23 6.605,-3.855 4.466,-7.428 -1.2,-1.934 -3,-2.312 -6.73,-0.417 -2.787,1.415 -3.42,1.548 -3.42,1.548 l -0.707,-1.28 c 0.185,0.106 5.562,-3.13 8.243,-3.244 z m -77.28,0.577 3.11,0.006 -1.33,2.802 z m 90.032,-0.368 c 1.89,3.657 5.124,6.42 6.007,7.083 0,0 -3.22,2.07 -5.144,3.386 l -1.13,-1.328 2.764,-2.37 -3.112,-4.34 z m 30.326,0.88 c -0.35,1.808 -0.406,3.725 -0.554,5.834 0.68,0.623 1.294,0.934 1.83,0.898 0.6,-1.897 1.033,-4.052 0.747,-6.27 -0.57,-0.445 -1.317,-0.395 -2.023,-0.46 z m 1.558,1.375 c -0.01,1.19 0.155,2.678 -0.354,3.827 -0.29,0.654 -0.952,0.408 -0.974,-0.48 -0.03,-1.203 0.213,-2.212 0.283,-3.307 0.04,-0.624 0.31,-0.998 0.68,-0.853 0.39,0.187 0.357,0.464 0.365,0.813 z m -44.874,0.82 c 2.04,0.152 2.828,1.858 2.075,3.083 -1.844,2.356 -3.73,2.783 -6.148,4.146 l -2.414,-4.514 c 0,0 4.7,-2.652 6.488,-2.716 z m -0.056,1.007 c -1.35,0.158 -2.202,0.816 -3.336,1.372 -1.39,0.68 -1.842,1.733 -0.9,2.687 1.04,1.16 4.67,-1.602 5.268,-2.27 0.37,-0.572 0.308,-1.095 -0.21,-1.507 -0.225,-0.178 -0.502,-0.28 -0.822,-0.282 z m -74.435,0.19 3.04,0.034 -1.643,2.323 z m 74.713,0.475 c 0.518,0.366 0.473,1.025 -0.256,1.21 -0.37,0.096 -1.005,0.098 -1.02,0.59 -0.01,0.367 -0.57,0.505 -0.89,0.452 -0.327,-0.053 -0.88,-0.08 -0.986,0.33 -0.28,0.556 -0.49,0.565 -0.88,0.176 -0.42,-0.424 -0.225,-0.962 0.595,-1.052 0.35,-0.038 0.655,-0.294 0.78,-0.563 -0.018,-0.348 0.226,-0.55 0.612,-0.47 0.545,-0.006 0.902,-0.207 1.29,-0.716 0.272,-0.127 0.57,-0.09 0.755,0.042 z m -17.787,0.06 c 1.147,0 2.075,0.928 2.075,2.074 0,1.147 -0.928,2.08 -2.075,2.08 -1.147,0 -2.075,-0.933 -2.075,-2.08 0,-1.146 0.928,-2.075 2.075,-2.075 z m -44.324,3.818 c 1.146,0 2.08,0.933 2.08,2.08 0,1.147 -0.934,2.076 -2.08,2.076 -1.148,0 -2.076,-0.93 -2.076,-2.076 0,-1.147 0.928,-2.08 2.075,-2.08 z m -49.666,1.843 23.773,16.258 -1.624,2.37 -22.082,-15.015 z m 119.36,0.53 c 1.547,0 2.74,0.89 3.894,2.685 2.29,3.564 1.142,6.375 -3.602,9.247 -2.205,1.334 -2.22,1.348 -2.22,1.348 l -1.12,-1.382 c 0,0 1.604,-0.944 2.268,-1.363 3.9,-2.463 4.997,-4.643 3.283,-7.098 -1.653,-2.365 -3.388,-2.177 -8.205,0.887 -0.973,0.62 -2.138,1.106 -2.138,1.106 l -1.057,-1.435 c 0,0 2.727,-1.402 3.656,-1.993 2.134,-1.363 3.876,-2.004 5.242,-2.003 z m 17.722,-0.613 0.015,1.562 c 0.054,0.07 -3.23,1.517 -5.154,2.39 -0.623,0.34 -0.38,1.002 -0.342,1.684 l -0.927,0.626 c 0,0 -1.28,-0.934 -1.448,-1.533 -0.47,-1.893 5.556,-4.158 7.856,-4.73 z m -34.323,1.68 c 1.147,0 2.08,0.928 2.08,2.074 0,1.148 -0.933,2.08 -2.08,2.08 -1.146,0 -2.075,-0.932 -2.075,-2.08 0,-1.145 0.93,-2.074 2.075,-2.074 z m -64.404,0.582 c 1.145,0 2.074,0.927 2.074,2.074 0,1.147 -0.93,2.075 -2.075,2.075 -1.148,0 -2.077,-0.93 -2.077,-2.076 0,-1.147 0.93,-2.075 2.076,-2.075 z m 80.917,1.656 c 0.788,-0.028 1.38,0.486 1.702,1.27 0.824,2.01 -0.298,3.495 -4.36,5.77 -0.34,0.19 -1.062,0.582 -1.062,0.582 l -2.99,-4.13 c 0,0 1.052,-0.725 2.045,-1.32 2.225,-1.455 3.65,-2.135 4.664,-2.172 z m -0.397,0.99 c -0.192,0.004 -0.413,0.08 -0.67,0.227 -1.042,0.6 -2.785,1.254 -3.607,2.342 -0.48,0.666 -0.262,1.328 0.65,2.182 0.772,0.51 4.76,-2.425 4.858,-3.278 -0.336,-0.903 -0.656,-1.49 -1.23,-1.475 z m -118.707,0.222 0.665,0.446 -0.665,0.524 z m 119.34,0.724 c 0.295,0.36 0.118,0.968 -0.507,1.075 -0.315,0.054 -0.78,0.14 -0.93,0.606 -0.127,0.307 -0.557,0.57 -0.98,0.558 -0.49,-0.112 -0.748,0.184 -0.774,0.4 -0.24,0.41 -0.837,0.477 -1.2,0.09 -0.283,-0.3 0.223,-1.168 0.558,-1.155 0.06,0.028 0.427,0.11 0.872,-0.483 0.09,-0.432 0.592,-0.697 0.957,-0.68 0.37,0.125 0.586,-0.285 0.735,-0.512 0.34,-0.18 1.03,-0.18 1.268,0.102 z m -117.76,0.314 0.956,0.645 -2.537,1.8 0,-1.45 z m 1.853,1.212 1.3,0.868 -4.733,3.39 0,-1.838 z m 2.425,1.547 1.373,0.906 -7.23,4.884 0,-1.88 z m 2.604,1.32 0,1.57 -8.46,5.905 0,-1.59 z m 0.955,1.128 1.823,1.246 0.455,53.238 -11.4,7.83 0.01,-2.326 9.572,-6.92 z m 137.515,1.44 c -2.556,2.918 -5.985,3.115 -8.976,3.036 -8.06,0.11 -13.06,0.54 -14.097,10.15 3.283,-2.454 6.764,-2.77 10.794,-2.655 5.104,-0.007 7.4,-0.342 9.475,-1.377 3.332,-1.663 5.44,-4.64 5.037,-6.73 -0.396,-0.45 -1.432,-2.314 -2.235,-2.426 z m -138.47,0.466 0,1.84 -8.462,5.67 0,-1.872 z m 96.612,0.17 c 1.147,0 2.08,0.928 2.08,2.075 0,1.147 -0.933,2.075 -2.08,2.075 -1.147,0 -2.075,-0.928 -2.075,-2.075 0,-1.147 0.928,-2.075 2.075,-2.075 z m -55.234,0.212 c 14.95,0.465 46.698,0.286 46.698,0.286 l 1.694,2.44 -49.918,-0.525 z m 97.01,1.6 c -1.79,1.754 -3.645,2.612 -9.524,2.507 -6.213,-0.112 -8.634,0.87 -10.242,3.635 -0.467,0.804 -0.457,1.117 0.22,0.51 0.566,-0.675 1.857,-1.975 2.39,-0.744 1.056,-0.69 1.968,-1.742 2.52,-0.412 0.306,-0.068 2.096,-1.86 2.52,-0.273 0.856,-0.956 1.59,-1.256 1.99,0.1 1.216,-0.576 1.862,-1.667 2.553,-0.158 0.98,-0.702 1.724,-1.578 2.295,-0.243 0.836,-0.246 1.686,-1.78 2.168,-0.557 0.09,0.03 3.112,-1.787 3.967,-3.584 0.7,-1.586 1.345,-0.533 0.548,1.086 -2.048,3.964 -5.55,5.412 -13.586,5.425 -4.88,0.005 -6.897,0.483 -8.43,1.376 -2.46,1.436 -1.135,-2.176 0.59,-4.367 2.172,-2.762 4.65,-3.58 11.437,-3.33 3.71,0.02 6.08,-0.49 7.083,-1.3 0.85,-0.687 1.467,-1.152 1.925,-1.183 0.457,-0.03 0.52,0.586 -0.426,1.512 z m -109.842,-0.672 c 1.148,0 2.08,0.934 2.08,2.08 0,1.147 -0.932,2.076 -2.08,2.076 -1.146,0 -2.074,-0.93 -2.074,-2.075 0,-1.146 0.928,-2.08 2.075,-2.08 z m -28.546,1.54 0,1.872 -8.46,5.774 0,-1.915 z m 40.91,0.897 6.564,0 0,6.93 -6.565,0 z m 14.71,0 7.07,0 0,6.93 -7.066,0 z m 15.724,0.223 6.818,0 0,6.706 -6.818,0 z m 14.77,0.136 4.538,0.155 c 0,0 2.52,3.207 3.583,4.685 l -3.356,1.72 -4.766,0.01 z m -42.05,0.47 c -1.275,0 -2.31,1.03 -2.31,2.308 0,1.277 1.035,2.313 2.31,2.313 1.278,0 2.314,-1.036 2.314,-2.313 0,-1.277 -1.036,-2.308 -2.313,-2.308 z m 15.097,0.228 c -1.277,0 -2.313,1.03 -2.313,2.308 0,1.277 1.036,2.313 2.313,2.313 1.277,0 2.313,-1.036 2.313,-2.313 0,-1.277 -1.036,-2.308 -2.313,-2.308 z m 15.44,0.06 c -1.278,0 -2.314,1.03 -2.314,2.308 0,1.277 1.037,2.313 2.314,2.313 1.277,0 2.312,-1.036 2.312,-2.313 0,-1.277 -1.035,-2.308 -2.312,-2.308 z m -36.85,0.47 c 0.457,0.324 0.758,0.85 0.758,1.453 0,0.99 -0.804,1.794 -1.794,1.794 -0.35,0 -0.676,-0.098 -0.952,-0.27 z m 6.314,0.023 c 0.845,0 1.532,0.682 1.532,1.527 0,0.845 -0.687,1.532 -1.533,1.532 -0.846,0 -1.533,-0.687 -1.533,-1.532 0,-0.845 0.687,-1.527 1.532,-1.527 z m 45.902,0.063 c -1.277,0 -2.312,1.03 -2.312,2.308 0,1.277 1.035,2.313 2.312,2.313 1.278,0 2.313,-1.035 2.313,-2.312 0,-1.277 -1.035,-2.308 -2.313,-2.308 z m -38.41,0.068 c 1.024,0 1.856,0.83 1.856,1.857 0,1.025 -0.832,1.857 -1.857,1.857 -1.025,0 -1.85,-0.832 -1.85,-1.857 0,-1.026 0.825,-1.857 1.85,-1.857 z m 30.59,-0.073 c 1.025,0 1.856,0.832 1.856,1.857 0,1.025 -0.83,1.857 -1.857,1.857 -1.024,0 -1.85,-0.833 -1.85,-1.858 0,-1.025 0.826,-1.857 1.85,-1.857 z m -82.148,0.2 0,1.86 -8.46,5.91 0,-1.832 z m 59.16,-0.03 c 0.847,0 1.533,0.682 1.533,1.527 0,0.845 -0.686,1.532 -1.532,1.532 -0.845,0 -1.532,-0.687 -1.532,-1.532 0,-0.845 0.687,-1.527 1.532,-1.527 z m 15.44,0.06 c 0.845,0 1.532,0.682 1.532,1.527 0,0.845 -0.687,1.532 -1.532,1.532 -0.846,0 -1.533,-0.687 -1.533,-1.532 0,-0.845 0.688,-1.527 1.534,-1.527 z m -7.74,0.192 c 1.025,0 1.856,0.832 1.856,1.857 0,1.025 -0.83,1.857 -1.857,1.857 -1.025,0 -1.857,-0.83 -1.857,-1.856 0,-1.025 0.832,-1.857 1.857,-1.857 z m 23.108,0.363 c 0.846,0 1.533,0.683 1.533,1.528 0,0.845 -0.687,1.532 -1.533,1.532 -0.845,0 -1.532,-0.687 -1.532,-1.532 0,-0.845 0.687,-1.528 1.532,-1.528 z m -65.807,1.605 c 3.94,-0.046 8.205,1.956 10.61,5.276 3.64,4.867 6.07,11.072 7.176,19.216 0.548,4.034 2.43,16.146 3.497,19.007 l -1.47,-0.28 c -0.198,0.093 -2.084,-7.62 -3.273,-17.805 -0.44,-3.773 -1.242,-8.642 -3.432,-13.087 -2.5,-5.074 -6.748,-10.453 -12.413,-10.88 -3.305,-0.25 -6.407,1.82 -6.74,4.737 -0.477,2.304 0.875,4.45 2.647,5.17 1.74,0.705 3.82,0.18 4.053,-2.192 0.04,-0.39 0,-0.783 -0.145,-1.145 0.805,-0.13 1.418,0.232 1.745,0.912 0.17,0.02 0.01,3.44 -2.68,4.112 -3.245,1.06 -6.988,-2.15 -7.28,-5.42 -0.22,-2.757 1.876,-6.162 4.52,-7.085 1.004,-0.352 2.082,-0.522 3.185,-0.535 z m -24.16,1.062 0,1.9 -8.462,5.84 0,-1.916 z m 24.345,1.208 c 4.733,-0.135 9.34,5.14 11.292,8.616 2.037,3.628 3.65,9.388 4.204,14.81 0.945,9.218 2.71,16.757 3.084,17.1 l -1.29,-0.28 c -0.27,0.18 -2.05,-8.143 -3.132,-17.408 -0.607,-5.197 -2.536,-10.348 -4.83,-14.318 -2.116,-3.664 -4.97,-6.4 -8.35,-6.798 -2.116,-0.213 -4.294,0.4 -4.72,2.628 -0.228,1.31 0.457,2.594 2.01,2.705 0.367,0.026 0.717,0.056 0.78,0.067 0.824,0.147 -0.468,1.48 -1.317,1.363 -3.034,-0.423 -4.432,-4.477 -2.04,-6.633 1.398,-1.262 2.86,-1.81 4.31,-1.852 z m 10.134,1.352 53.146,0.54 c 0,0 0.045,0.95 -3.263,0.794 -2.813,-0.132 -4.627,0.26 -6.492,0.86 l -41.757,-0.093 z m -34.48,0.616 0,1.765 -8.46,5.92 0,-1.95 z m 24.7,0.747 c 1.02,-0.014 2.062,0.25 2.846,0.703 6.583,3.813 9.097,13.277 9.964,19.235 1.183,8.823 2.548,17.02 2.93,17.222 l -1.437,-0.324 c -0.19,0.007 -1.76,-7.643 -2.74,-16.215 -0.79,-6.928 -3.16,-13.886 -7.86,-16.814 -3.015,-2.052 -3.607,-2.26 -5.003,-1.062 -1.204,1.034 -2.43,-0.522 -1.42,-1.79 0.695,-0.65 1.7,-0.94 2.72,-0.954 z m -24.7,2.39 0,1.45 -8.46,5.89 0,-1.715 z m 38.683,0.04 c 0.11,-0.1 4.573,7.477 5.984,19.423 0.744,6.29 2.87,17.014 3.21,17.1 l -1.546,-0.163 c -1.582,-6.326 -2.457,-12.312 -3.302,-17.708 -0.956,-6.104 -1.724,-11.527 -5.528,-18.604 l 1.18,-0.04 c 0,-0.005 0,-0.007 0,-0.01 z m 1.014,0.062 1.383,0.02 c 2.364,4.5 4.877,11.49 5.745,18.497 0.75,6.052 1.51,12.208 3.676,18.618 l -1.484,-0.407 c -1.86,-5.202 -2.52,-11.49 -3.52,-18.007 -1.106,-7.204 -2.842,-13.476 -5.8,-18.72 z m 8.53,0.01 c 2.418,6.262 3.99,9.25 5.096,16.956 0.857,5.98 2.068,13.463 4.824,21.387 l -1.4,-0.06 c -2.042,-5.47 -3.605,-12.797 -4.32,-19.834 -0.974,-9.557 -5.266,-18.48 -5.306,-18.424 z m -2.38,0.024 c 0.13,-0.195 4.61,8.768 5.648,18.62 0.69,6.553 2.224,13.04 4.33,19.302 l -1.43,-0.032 c -1.653,-1.91 -2.89,-10.962 -4.253,-19.41 -1.39,-8.626 -3.352,-13.93 -5.528,-18.465 l 1.227,0 c 0,-0.007 0,-0.01 0.01,-0.014 z m -3.613,0.01 1.27,0.005 c 3.323,7.262 4.703,11.583 5.726,18.605 1.295,8.88 2.538,16.892 3.913,18.978 l -1.55,-0.102 c -2.142,-6.4 -3.106,-12.794 -3.866,-19.195 -0.822,-6.93 -2.815,-12.87 -5.493,-18.29 z m 7.01,0.058 1.51,0.024 c 2.598,5.266 4.76,11.67 5.522,18.993 0.417,3.97 1.147,10.065 4.13,19.467 l -1.208,-0.076 c -2.442,-6.305 -3.91,-13.727 -4.785,-20.2 -0.883,-6.527 -2.442,-11.914 -5.17,-18.206 z m 9.29,0.044 c 1.426,3.65 2.6,7.278 3.37,11.01 l -0.852,1.664 c -1.338,-4.927 -2.843,-8.763 -4.34,-12.65 z m -6.88,0.004 1.838,0.044 c 3.157,7.326 4.78,15.074 5.222,17.674 0,0 0.437,2.3 0.466,3.054 -0.106,6.402 1,10.97 3.384,17.853 l -1.09,-0.077 c -2.767,-8 -3.512,-13.684 -4.22,-19.114 -0.584,-6.826 -2.805,-13.86 -5.6,-19.434 z m 4.243,0.06 c 1.882,4.695 3.316,9.223 4.62,13.754 -0.058,1.03 -0.157,2.155 -0.828,2.987 -1.534,-5.542 -2.828,-11.302 -5.198,-16.733 z m 3.472,0.037 1.455,0.024 2.9,8.305 -1.135,1.255 c -0.852,-2.75 -1.724,-5.773 -3.22,-9.586 z m 8.49,0.058 1.062,2.497 -1.144,0.97 c 0,0 -1.168,-2.337 -1.474,-3.438 z m 2.158,0 0.533,1.44 -0.96,0.732 -0.747,-2.143 z m -8.33,0.03 1.498,0.008 c 0.605,1.745 2.216,6.018 2.216,6.018 l -1.077,1.13 c 0,0 -2.028,-5.402 -2.637,-7.157 z m 2.322,0 1.33,0.013 c 0.4,1.135 1.643,4.273 1.643,4.273 l -0.917,0.873 z m 6.95,0.057 1.313,0.063 -0.156,0.325 -0.82,0.407 z m -43.097,1.847 c 5.504,2.902 7.02,11.59 7.617,16.37 1.042,8.337 2.21,15.12 2.46,15.302 l -1.223,-0.194 c 0,0 -0.904,-4.283 -1.53,-8.36 -0.518,-3.39 -0.92,-6.23 -1.06,-7.53 -0.088,-0.81 -0.224,-1.757 -0.3,-2.1 -0.77,-3.423 -1.017,-4.208 -2.008,-6.292 -0.952,-2 -1.288,-2.503 -2.87,-4.287 -0.608,-0.683 -1.2,-1.184 -1.407,-1.623 -0.296,-0.627 0.32,-1.285 0.32,-1.285 z m -27.86,0.446 0,1.64 -8.462,5.973 0,-1.87 z m 0,2.876 0,1.886 -8.462,5.58 0,-1.672 z m 0,3.214 0,1.75 -8.462,5.897 0,-1.81 z m 14.128,1.77 0.747,0 0.054,1.227 -1.154,-0.073 z m -14.13,1.513 0,1.872 -8.46,5.586 0,-1.745 z m 13.258,0.714 1.79,0.02 -0.02,1.284 -2.298,-0.078 z m -1.037,2.06 2.938,0.054 0,1.222 -3.64,-0.06 z m -12.22,0.267 0,1.965 -8.46,5.624 0,-1.974 z m 10.722,2.042 4.3,0.05 -0.024,1.022 -5.133,-0.034 z m -10.72,1.14 0,1.92 -8.462,5.416 0,-1.726 z m 8.926,0.91 5.907,0.084 -0.146,0.99 -6.734,-0.03 z m -8.926,2.09 0,1.848 -8.46,5.51 0,-1.776 z m 6.71,0 7.773,0.18 1.64,1.49 -12.098,0.072 z m -2.35,2.726 13.362,0.165 0.93,0.863 -14.336,0.053 z m -4.36,0.422 0,1.96 -8.46,5.54 0,-1.788 z m 4.374,1.72 14.808,0.07 -1.072,1.187 -13.756,0.04 z m -4.374,1.485 0,1.794 -8.46,5.74 0,-2.06 z m 4.005,0.936 12.8,0.044 -1.503,1.18 -8.844,0.202 z m -4.006,2.217 0,1.71 -8.46,6.062 0,-1.92 z m 7.75,0.218 7.514,0.034 0.14,1.007 -6.463,-0.014 z m 2.08,2.08 5.77,0.058 0.27,1.304 -5.135,-0.067 z m -9.83,0.91 0,1.592 -8.46,5.906 0,-1.76 z m 15.996,1.306 0.068,1.242 -3.442,0.13 -0.97,-1.298 z m -0.03,2.202 -0.028,1.304 -2.4,0.04 -0.538,-1.257 z m -2.132,2.323 1.89,0.014 -0.16,1.003 -1.464,0.02 z m 0.567,2.41 0.92,0 -0.154,0.785 -0.47,0 z m 18.716,13.275 -0.44,0.568 13.227,0 0.146,-0.568 z m 17.054,0 -0.233,0.766 5.97,0 0.165,-0.766 z m 9.75,0.15 -0.183,0.723 15.26,0 -0.253,-0.722 z m 18.256,0 0.31,0.878 5.135,0 -0.34,-0.877 z m 17.715,0 -9.01,0.005 0.324,0.98 9.318,0 z"
         id="path13808" />
    </g>
  </g>
</svg>
