<?xml version="1.0" encoding="UTF-8" standalone="no"?>
<!-- Created with Inkscape (http://www.inkscape.org/) -->

<svg
   xmlns:dc="http://purl.org/dc/elements/1.1/"
   xmlns:cc="http://creativecommons.org/ns#"
   xmlns:rdf="http://www.w3.org/1999/02/22-rdf-syntax-ns#"
   xmlns:svg="http://www.w3.org/2000/svg"
   xmlns="http://www.w3.org/2000/svg"
   xmlns:sodipodi="http://sodipodi.sourceforge.net/DTD/sodipodi-0.dtd"
   xmlns:inkscape="http://www.inkscape.org/namespaces/inkscape"
   width="63.281277mm"
   height="88.281372mm"
   viewBox="0 0 224.225 312.80801"
   id="svg10482"
   version="1.1"
   inkscape:version="0.91 r13725"
   sodipodi:docname="JS.svg">
  <defs
     id="defs10484" />
  <sodipodi:namedview
     id="base"
     pagecolor="#ffffff"
     bordercolor="#666666"
     borderopacity="1.0"
     inkscape:pageopacity="0.0"
     inkscape:pageshadow="2"
     inkscape:zoom="0.35"
     inkscape:cx="-708.60179"
     inkscape:cy="276.40401"
     inkscape:document-units="px"
     inkscape:current-layer="layer1"
     showgrid="false"
     fit-margin-top="0"
     fit-margin-left="0"
     fit-margin-right="0"
     fit-margin-bottom="0"
     inkscape:window-width="1600"
     inkscape:window-height="838"
     inkscape:window-x="-8"
     inkscape:window-y="-8"
     inkscape:window-maximized="1" />
  <metadata
     id="metadata10487">
    <rdf:RDF>
      <cc:Work
         rdf:about="">
        <dc:format>image/svg+xml</dc:format>
        <dc:type
           rdf:resource="http://purl.org/dc/dcmitype/StillImage" />
        <dc:title></dc:title>
      </cc:Work>
    </rdf:RDF>
  </metadata>
  <g
     inkscape:label="Calque 1"
     inkscape:groupmode="layer"
     id="layer1"
     transform="translate(-425.03036,-495.95821)">
    <g
       transform="translate(-1894.9091,-163.97332)"
       id="g4601">
      <rect
         style="fill:#ffffff;stroke:#000000;stroke-width:0.99699998"
         width="223.228"
         height="311.811"
         x="1867.658"
         y="589.95203"
         ry="10.63"
         rx="10.63"
         transform="translate(452.78,70.478)"
         id="rect4603" />
      <path
         style="fill:#131f67"
         inkscape:connector-curvature="0"
         d="m 2349.42,682.998 -0.038,265.885 164.638,0.357 0.098,-266.05 z m 52.292,1.555 74.595,0.274 c 0,0 -8.546,11.056 -10.314,16.09 -1.373,1.76 -1.995,1.44 -4.26,0.98 -6.063,-1.584 -16.28,-1.554 -21.355,-1.646 -9.58,-0.427 -18.186,2.543 -27.78,3.028 -3.316,-5.543 -8.123,-12.502 -10.886,-18.725 z m -50.227,0.484 47.972,0.142 11.248,20.523 c 0.408,0.57 0.02,1.748 -0.225,2.41 -1.388,3.91 -2.615,6.174 -5.423,10.833 -2.66,4.412 -3.614,8.453 -2.67,11.17 0.14,0.333 0.264,0.84 0.215,1.265 -0.156,1.356 -1.293,2.924 -2.84,3.997 -1.053,0.17 -3.24,0.303 -4.505,1.555 -1.085,1.073 -1.974,2.642 -1.834,5.51 0.065,1.027 0.195,1.678 0.195,1.678 -14.304,5.952 -24.555,12.924 -24.216,13.18 -0.134,-0.062 -12.573,-5.787 -17.75,-7.204 z m 127.482,0.362 32.887,0.028 0.195,93.843 -12.622,-8.18 c 1.035,-0.72 1.674,-1.15 2.763,-1.888 0.194,-0.058 0.56,-0.064 0.798,-0.117 2.198,-0.49 3.73,-2.135 2.968,-3.84 -0.518,-1.156 0.19,-1.085 0.826,-2.028 0.718,-1.062 0.57,-2.007 0.113,-2.9 -0.226,-0.443 -0.102,-0.62 0.28,-1.438 1.006,-1.25 0.278,-3.362 -1.023,-4.045 -0.137,-0.2 0.142,-0.512 0.205,-0.802 0.367,-1.692 -0.307,-3.178 -1.77,-3.555 -0.754,-0.195 -1.004,-0.325 -0.74,-0.998 0.473,-1.193 -0.148,-1.637 -1.128,-2.024 -1.65,-0.652 -1.183,-0.757 0.854,-1.673 4.17,-1.875 5.153,-7.45 2.284,-12.51 -0.365,-0.642 -1.34,-2.152 -2,-3.163 -0.772,-1.182 -1.52,-2.2 -1.52,-2.2 l 5.52,-7.698 c 0,0 -3.844,-4.553 -5.213,-7.07 0.323,-1.244 4.17,-5.147 4.67,-8.935 0.783,-5.94 -3.728,-9.743 -7.995,-9.297 -2.96,0.31 -6.602,2.203 -6.328,7.702 0.085,1.71 0.752,3.473 1.96,5.61 0.846,1.598 1.94,3.29 2.99,4.914 l -5.556,7.595 5.614,7.11 c 0,0 -0.074,0.115 -0.196,0.31 -0.56,0.887 -2.182,3.503 -2.885,5.036 -2.072,4.094 -2.805,8.588 1.446,11.756 0.744,0.457 1.317,0.845 1.634,1.16 0.417,0.413 0.157,0.727 -0.514,0.884 -0.79,0.167 -1.594,0.155 -2.425,0.484 -2.665,0.973 -5.337,2.542 -7.237,4.08 -1.066,0.86 -2.786,3.59 -3.834,5.808 -1.14,2.41 -1.458,2.944 -1.458,2.944 l -19.527,-12.5 c 0,0 -0.495,-0.39 -0.63,-0.542 -0.364,-0.407 -0.233,-0.644 0.02,-1.095 0.213,-0.383 0.22,-1.508 0.126,-2.362 -0.025,-1.64 -0.013,-1.645 0.93,-3.15 0.333,-0.53 0.47,-1.06 0.28,-1.878 -0.307,-0.918 -0.336,-0.626 0.25,-1.256 0.227,-0.282 0.502,-0.42 0.546,-0.725 0.06,-0.407 0.022,-1.118 0.03,-2.445 0.014,-2.66 -0.022,-2.44 1.472,-3.61 1.855,-1.45 2.546,-2.135 2.84,-2.79 0.423,-0.942 0,-1.653 -1.04,-3.532 -0.477,-0.86 -1.214,-2.018 -1.57,-2.665 -0.667,-1.164 -1.63,-2.697 -2.09,-4.162 -0.693,-1.124 -0.587,-3.074 0.055,-4.22 0.807,-1.437 1.03,-2.306 1.003,-5.212 -0.027,-2.694 -0.222,-2.443 0.464,-3.345 5.13,-6.79 13.277,-19.414 13.277,-19.414 z m 20.9,9.93 c 0.11,0 0.223,0.006 0.333,0.01 1.615,0.078 3.22,0.597 4.71,2.04 2.026,2.032 1.888,4.96 1.222,8.005 -0.307,0.885 -0.535,1.785 -1.16,2.71 -0.346,0.514 -0.63,0.99 -0.63,1.056 0,0.065 -0.5,0.868 -1.11,1.79 -0.596,0.9 -1.28,2.157 -1.28,2.157 0,0 0.953,1.712 2.645,3.854 1.276,1.897 2.103,3.55 2.2,3.453 0,0 -0.323,0.82 -0.768,1.403 -1.342,1.763 -3.814,5.44 -3.913,5.825 -0.024,0.093 -0.278,0.188 -0.274,0.28 0.018,0.34 0.51,0.746 1.247,1.76 4.46,6.123 5.09,11.292 1.74,14.328 -1.665,1.51 -3.31,1.984 -5.075,1.795 -3.233,-0.347 -6.217,-3.106 -5.868,-7.13 0.158,-1.848 0.06,-2.4 1.15,-4.548 0.49,-1.21 1.603,-3.282 2.342,-4.328 0.645,-0.75 1.334,-1.82 1.334,-1.82 0,0 -1.587,-2.442 -4.504,-5.877 -0.526,-0.628 -0.85,-1.477 -0.85,-1.477 l 4.997,-7.403 c 0,0 -0.58,-1.437 -1.555,-2.89 -2,-2.98 -3.288,-6.15 -3.276,-7.934 0.03,-4.445 2.937,-7.048 6.342,-7.055 z m 12.446,105.77 c -2.95,1.57 -5.824,6.93 -0.21,3.193 l 0.142,3.082 c -2.92,4.145 -8.632,1.107 -7.18,-3.186 -3.942,0.51 -4.557,-3.492 -4.357,-5.396 -5.186,-1.13 -3.395,-6.623 -3.395,-6.623 -2.996,-2.503 -3.522,-5.127 -1.094,-7.893 -2.455,-1.526 -3.147,-2.504 -5.844,-3.612 2.068,18.39 11.994,27.943 22.44,36.456 0,0 0.232,5.924 -0.962,4.833 -14.918,-11.146 -24.507,-23.89 -26.157,-44.508 -0.127,0.324 -7.073,-5.377 -8.22,-5.074 -2.41,33.385 24.17,55.33 35.222,59.654 0,0 0.155,4.65 -0.035,4.668 -16.75,-7.307 -35.376,-28.752 -38.965,-54.267 l -9.883,15.307 -3.702,-1.585 15.982,-25.18 -10.808,-6.772 -17.596,27.88 c 0,0 -0.467,2.323 0.807,2.287 24.7,2.643 61.43,32.316 49.123,80.61 -1.067,-0.422 -2.767,-1.25 -2.85,-1.212 1.93,-4.162 7.315,-31.124 -8.886,-52.903 -7.423,-9.978 -18.934,-20.597 -37.405,-23.732 1.526,3.15 0.86,10.294 0.86,10.294 l 4.304,0.87 c -1.453,-1.535 -2.667,-2.8 -3.243,-4.465 -0.806,-2.594 0.376,-4.13 3.248,-2.587 1.14,0.64 1.428,0.615 2.54,-0.21 2.31,-1.72 4.95,0.05 4.34,2.91 -0.09,0.422 0.023,0.688 1.12,0.787 2.488,0.247 4.995,1.48 6.617,3.413 0.796,1.02 0.976,0.868 1.683,0.254 1.735,-1.507 4.61,0.582 4.098,2.915 -0.294,1.334 -0.132,1.653 0.484,1.912 3.392,1.425 4.225,2.325 5.28,5.295 0.388,1.088 0.706,1.446 0.906,1.384 0.14,-0.045 0.697,-0.23 1.188,-0.417 2.533,-0.96 4.015,2.104 2.22,4.504 -0.368,0.492 -0.095,0.964 0.558,1.32 2.108,1.15 3.54,3.898 3.79,6.778 0.094,1.096 0.21,1.098 1.305,1.052 2.803,-0.118 4.14,3.668 1.858,5.06 -0.795,0.486 -0.647,1.113 -0.03,1.845 1.635,1.94 2.017,3.34 1.873,5.55 -0.19,2.942 0,2.885 0.935,3.242 2.725,1.038 2.217,5.392 -0.455,5.378 1.924,4.483 -0.61,9.95 -0.527,10.05 5.134,2.89 0.498,5.96 -0.993,5.42 0,0 -0.76,2.013 0.102,3.05 -4.503,5.96 -10.4,6.95 -16.93,9.908 l -0.205,-20.98 c 2.716,2.188 5.408,4.228 8.098,6.26 0,0 0.682,-0.204 0.06,-0.778 -1.195,-1.106 -4.206,-3.053 -5.048,-3.828 -1.817,-1.38 -8.478,-7.748 -9.663,-9.257 -0.53,-1.006 -1.332,-0.424 -1.31,-0.363 0.796,1.376 1.39,2.98 2.422,4.41 2.228,3.088 4.39,6.52 4.165,9.914 -0.01,1.9 -0.76,3.863 -1.183,4.817 -0.313,1.304 -2.39,-0.222 -1.868,-1.32 0.923,-3.01 1.688,-5.474 -1.615,-10.31 -1.61,-2.356 -3.697,-6.635 -3.697,-6.635 l -1.335,0.323 0.05,27.37 c -1.12,0.047 -3.96,0.783 -3.375,0.803 8.85,-1.768 11.557,10.893 3.012,11.306 -1.623,0.057 -3.3,2.85 -3.472,4.367 0.074,3.675 0.612,7.553 -2.078,11.085 -0.707,0.928 -1.033,2.4 -1.687,3.56 -3.285,5.816 -4.75,9.15 -4.416,10.65 0.086,0.387 0.166,0.896 0.166,0.896 -10.46,2.615 -18.307,3.285 -28.847,3.53 -0.103,-0.164 3.538,-10.406 6.196,-15.657 1.964,-3.88 2.977,-6.534 2.426,-7.335 -8.358,0.42 -6.756,-11.836 1.242,-11.404 0,0 2.006,-7.06 4.25,-10.245 2.125,-1.185 6.403,0.427 8.802,-1.16 5.65,-1.733 9.35,4.948 9.35,4.948 l 1.52,-6.357 -49.968,-0.238 c 0,0 -5.148,1.928 -7.78,0.84 -1.682,-0.694 -3.612,-2.665 -3.614,-2.664 0,0 19.094,-30.668 21.9,-35.092 0.227,-0.36 -0.5,-1.133 -0.5,-1.14 -0.105,-1.004 -22.228,33.48 -22.138,35 0,0 -0.59,0.835 -1.653,0.097 -12.513,-8.633 -42.414,-27.194 -42.414,-27.194 l -0.04,-13.752 c 10.402,-6.555 9.46,-9.232 -0.165,-2.09 -0.133,0.115 -0.204,-5.163 -0.204,-5.163 7.336,-6.555 1.235,-4.502 -0.214,-2.23 0.035,-1.635 -0.344,-3.854 0.703,-4.83 3.205,-2.956 6.984,-0.243 7.173,4.126 4.182,0.82 3.664,4.495 4.742,5.972 4.263,2.407 2.018,6.06 3.076,7.3 4.49,2.833 1.358,7.386 0.408,7.283 0.566,0.38 6.147,4.122 6.626,3.985 -0.484,-19.616 -22.085,-38.344 -22.686,-37.36 l 0.46,-4.23 c 0,0 26.996,17.267 26.76,44.974 l 8.606,5.115 c -0.765,-28.43 -13.46,-47.616 -35.165,-59.822 l -0.46,-5.355 c 18.22,8.48 35.118,25.645 39.053,53.777 l 10.088,-15.658 3.556,1.72 -16.198,25.99 10.114,6.653 c 7.846,-10.33 14.39,-22.997 18.378,-29.023 -0.106,-0.55 -0.323,-1.34 -0.323,-1.34 -38.57,-6.362 -60.294,-42.504 -49.94,-80.268 l 2.68,1.18 c -8.04,27.968 5.074,68.225 47.02,76.457 -0.083,-2.973 -0.606,-10.288 -0.606,-10.288 0,0 -5.512,-1.657 -4.7,-0.992 1.35,1.153 4.383,6.13 3.1,7.897 -0.92,0.13 -2.463,-0.387 -4.15,-1.623 -0.638,-0.467 -0.655,-0.367 -1.37,0.396 -1.983,2.116 -4.864,0.904 -4.89,-2.005 -0.012,-1.23 -0.058,-1.49 -1.8,-1.502 -2.643,-0.02 -3.83,-0.472 -5.414,-2.59 -1.123,-1.505 -1.02,-1.51 -2.342,-1.058 -2.532,1.206 -4.554,-1.326 -3.76,-3.413 0.392,-0.978 -0.025,-1.29 -1.178,-1.482 -2.244,-0.37 -4.78,-3.186 -5.247,-5.487 -0.096,-0.47 -0.33,-0.588 -1.653,-0.542 -2.595,0.09 -4.03,-1.483 -3.008,-3.687 0.554,-1.19 0.71,-1.672 -0.327,-2.48 -1.27,-0.988 -1.99,-1.675 -2.553,-2.874 -0.447,-0.952 -0.514,-1.56 -0.82,-3.586 -0.11,-0.704 -0.343,-0.82 -1.263,-0.94 -2.682,-0.35 -3.74,-3.094 -1.77,-4.874 0.602,-0.544 0.6,-0.53 -0.312,-1.712 -1.756,-2.272 -2.413,-5.238 -1.648,-7.213 0.207,-0.534 0,-1.19 -0.62,-1.345 -2.448,-0.61 -2.49,-3.322 -0.148,-4.846 0.68,-0.442 0.714,-0.736 0.2,-1.628 -0.9,-1.564 -0.855,-5.66 0.015,-7.62 0.563,-1.266 0.56,-1.295 -0.313,-1.853 -1.86,-1.187 -1.328,-4.454 0.87,-4.992 1.068,-0.26 1.14,-0.4 0.85,-1.696 -0.51,-2.31 -0.6,-2.912 0.764,-3.824 3.75,-2.436 13.355,-7.09 13.355,-7.09 l 3.174,-1.512 c 0,0 0.317,19.385 0.113,21.678 -0.124,0.987 0.763,1.584 1.794,2.61 2.133,2.098 3.302,4.633 6.147,6.393 0,0 1.775,-0.987 2.872,-1.693 l 0.107,-27.625 c 0.224,-0.627 0.38,-0.696 1.11,-0.782 0.605,-0.117 2.126,-0.287 2.635,-0.436 1.226,-0.358 1.42,-0.853 -0.19,-0.69 -0.485,0.05 -1.212,0.257 -2.025,0.42 -5.03,1.51 -8.75,-6.32 -4.92,-10.268 0.736,-0.658 3.482,-1.804 4.73,-1.883 0.36,0.003 1.433,-1.318 2.166,-2.538 0.736,-1.226 1.042,-2.137 0.62,-3.364 -0.886,-2.584 -0.04,-6.552 2.612,-10.885 2.872,-4.09 5.09,-8.653 6.255,-13.51 10.178,-1.23 18.81,-3.76 28.01,-3.2 0.36,3.11 -10.057,21.44 -7.882,22.515 8.197,1.963 5.4,11.682 -0.83,11.36 -0.934,-0.005 -1.025,0.077 -1.62,2.142 -1.13,3.013 -1.86,5.313 -3.075,8.117 0,0.72 -0.51,0.65 -3.917,0.625 -3.116,-0.46 -5.265,1.237 -7.53,1.335 -2.89,0.132 -5.355,-1.253 -6.358,-3.55 -0.447,-1.023 -0.863,-0.35 -0.876,2.078 -0.01,1.933 -0.088,3.062 -0.088,3.062 0,0 11.943,0.035 25.55,0.058 27.51,0.048 24.77,0.47 26.95,-0.62 1.276,-0.638 2.115,-1.328 4.32,0.112 3.53,2.306 3.414,1.992 2.386,3.477 -6.915,10.253 -22.197,34.926 -22.197,34.926 l 1.07,1.046 c 0,0 15.435,-24.39 22.467,-35.817 0.32,-0.37 1.79,0.098 1.79,0.098 l 42.104,27.386 c -0.355,4.138 0.06,13.413 0.06,13.413 -11.836,6.284 -8.22,9.486 -0.072,1.874 z m -71.45,-98.536 c 0,0 12.213,0.1 18.338,1.08 5.364,0.86 5.088,0.702 5.067,4.597 -0.015,2.767 -0.02,2.704 -0.73,4.03 -1.307,2.446 -1.084,4.856 0.984,8.23 2.01,3.277 3.48,5.696 3.478,6.162 0,0.724 -0.123,1.607 -1.863,2.822 -2.052,1.434 -2.444,2.436 -2.416,3.893 0.022,1.18 -0.2,1.563 -0.905,1.56 -0.283,-0.002 -1.28,0.462 -2.352,0.968 -1.886,0.89 -1.89,0.89 -3.65,0.875 -0.88,-0.007 -1.308,-0.34 -1.554,-0.244 -0.474,0.22 -0.905,1.807 -0.89,2.27 0.05,0.162 0.302,0.064 0.82,-0.114 2.918,-0.998 7.258,-0.55 7.38,-0.112 0.588,0.533 0.59,1.356 -0.298,2.21 -0.576,0.905 -0.837,1.372 -0.597,2.773 0.327,1.903 0.083,2.658 -0.89,3.316 -2.967,2.005 -6.928,2.258 -13.262,1.04 -6.675,-1.283 -11.24,-3.83 -15.037,-8.387 -1.696,-2.036 -2.115,-2.75 -1.277,-2.89 1.034,-0.16 2.18,-0.374 3.242,-0.83 4.69,-2.02 4.608,-10.61 -1.712,-11.508 -2.578,-0.09 5.324,-12.247 8.123,-21.74 z m 6.026,5.918 c -2.27,1.27 -3.456,2.82 -3.46,3.66 0,0.346 0.075,0.284 1.16,-0.43 3.144,-2.067 11.43,-5.054 14.386,-3.33 2.132,1.28 2.96,0.864 1.725,-0.858 -2.897,-4.04 -10.71,-0.73 -13.81,0.958 z m 8.1,1.353 c -0.335,0.003 -0.685,0.042 -1.03,0.113 -2.19,0.488 -4.595,2.29 -6.59,3.878 -0.982,0.783 -2.373,2.333 -2.59,2.738 -0.492,0.918 0.594,1.93 2.073,1.12 0.86,-0.47 0.937,-0.364 1.765,-0.25 1.91,0.576 4.087,1.467 7.453,1.184 0.314,0.072 0.29,0.146 0.182,0.44 -0.2,0.54 -1.392,1.567 -2.95,2.72 -0.8,0.593 -1.504,1.08 -1.56,1.168 -0.246,0.396 0.826,0.427 2,-0.24 1.67,-0.946 3.59,-3.038 4.764,-4.72 0.112,-0.16 0.267,-0.29 0.318,-0.463 0.115,-0.39 -0.587,-0.23 -0.963,-0.333 -0.16,-0.045 -0.128,-0.453 -0.17,-0.64 -0.112,-0.493 0.08,-1.31 0.17,-2.01 0.073,-0.567 0.682,-1.017 1.082,-1.433 1.758,-1.83 1.62,-2.658 -0.744,-1.252 -0.398,0.237 -0.713,0.38 -1.1,0.41 -3.49,0.11 -5.507,-0.025 -8.416,2.426 -1.294,1.044 -2.07,1.146 -0.92,0.035 1.756,-1.422 3.958,-3.445 6.392,-3.98 1.47,-0.366 2.868,0.76 3.51,0.47 0.01,-0.805 -1.222,-1.392 -2.674,-1.38 z m -0.506,5.056 c 0.4,0.264 0.793,1.63 0.756,2.09 -0.043,0.535 -0.963,0.313 -1.09,0.06 l -0.5,-1.517 c -0.217,-0.512 0.444,-0.803 0.834,-0.632 z m -1.777,0.31 c 0.427,0.42 0.525,1.335 0.767,2.088 -0.154,0.543 -3.59,-0.19 -4.02,-0.8 0.515,-0.668 2.285,-1.47 3.253,-1.288 z m 6.024,9.79 c -0.257,-0.017 -0.6,0.11 -0.908,0.425 -1.546,1.584 -1.048,4.28 0.812,5.155 0.906,0.425 2.28,0.112 4.298,-0.51 0.962,-0.295 1.66,-0.43 1.84,-0.43 0.788,0.005 1.218,-1.218 0.664,-1.78 -0.64,-0.647 -2.157,-0.552 -3.79,0.71 -0.826,0.638 -1.416,0.947 -2.083,0.94 -1.633,-0.022 -2.427,-1.703 -0.758,-3.468 0.555,-0.588 0.357,-1.013 -0.074,-1.042 z m -11.444,11.607 c 1.927,1.554 5.583,0.74 8.042,-0.888 2.197,-1.454 3.108,-1.884 4.87,-1.58 2.16,0.372 2.08,-0.478 1.145,-1.546 -1.06,-1.21 -3.68,-0.837 -5.873,0.617 -4.86,3.223 -6.618,3.762 -8.03,2.018 -1.514,-1.872 0.29,-4.276 2.073,-2.964 1.464,0.996 1.442,0.247 0.837,-0.436 -3.525,-2.97 -6.07,2.354 -3.064,4.78 z m -17.084,1.528 c 2.453,3.11 4.8,5.68 8.328,7.575 l 0.04,0.587 -11.405,-0.025 c 0.796,-1.39 3.06,-8.044 3.037,-8.137 z m -38.613,8.103 c -0.242,4.688 0.598,7.442 3.344,10.72 2.918,3.483 2.7,8.913 0.824,12.268 -0.83,1.485 -2.52,-0.34 -1.724,-1.29 1.133,-1.425 1.2,-4.903 0.665,-7.076 -1.203,-3.593 -3.93,-5.352 -5.033,-9.15 -0.372,-1.62 -0.254,-4.533 -0.254,-4.533 z m 3.57,0.396 c 0.2,-0.03 0.516,0.175 0.987,0.582 1.613,1.396 1.338,5.393 -0.51,7.957 -0.565,0.777 -1.033,0.555 -1.574,-0.167 -0.73,-0.72 -0.477,-0.793 0.137,-2.06 0.64,-1.32 0.846,-2.805 0.714,-4.542 -0.088,-1.17 -0.047,-1.724 0.245,-1.77 z m 104.605,1.37 c 1.423,-0.022 3.203,0.28 3.364,0.797 0.154,0.63 -0.184,1.132 -0.98,1.468 -2.082,0.88 -4.835,-0.35 -4.14,-1.854 0.173,-0.268 0.9,-0.398 1.755,-0.41 z m -3.61,0.342 c 0.41,-0.01 0.728,0.09 0.98,0.205 0.682,0.353 -0.39,2.757 3.007,2.71 0.812,0.12 1.412,-0.067 1.3,0.3 -0.17,0.553 -1.626,1.383 -3.208,1.617 -4.734,0.7 -4.527,0.464 -4.313,3.81 0.14,2.184 0,2.92 -0.297,4.244 -0.514,2.298 -0.717,4.516 -0.372,3.786 0.463,-0.975 1.642,-4.057 1.635,-5.81 -0.01,-2.583 0.912,-3.095 1.28,-1.222 0.16,1.24 -0.396,1.94 0.436,3.203 0.473,0.71 0.69,0.7 0.373,1.8 -0.28,0.972 -0.085,1.257 0.254,1.75 0.342,0.497 0.686,0.612 0.396,1.306 -0.624,1.5 0.355,2.917 1.775,3.037 0.657,0.056 0.838,0.342 0.64,0.592 -0.346,0.432 -1.038,0.637 -1.613,0.763 l -15.037,-9.61 c 0,0 1.115,-2.237 1.447,-2.836 2.16,-4.737 3.874,-6.895 10.19,-9.375 0.438,-0.188 0.813,-0.262 1.13,-0.27 z m 7.992,3.11 c 0.414,-0.016 0.72,0.202 1.07,0.65 0.924,1.187 0.118,2.67 -2.15,3.947 -1.94,1.103 -2.505,1.235 -2.925,-0.5 -0.098,-0.312 -0.356,-0.696 -0.524,-0.85 -0.45,-0.41 -0.347,-0.753 0.225,-1.056 0.274,-0.145 1.146,-0.503 1.844,-0.964 1.212,-0.8 1.927,-1.207 2.46,-1.227 z m -6.402,3.443 c 0.475,0.006 0.965,0.12 1.326,0.356 0.602,0.39 0.608,1.373 0,1.765 -1.207,0.494 -3.114,-0.166 -2.953,-1.275 0.082,-0.564 0.837,-0.86 1.628,-0.846 z m 7.737,1.21 c 0.428,-0.01 0.75,0.19 1.017,0.603 0.707,1.094 -0.125,2.192 -2.51,3.36 -1.57,0.768 -3.575,1.102 -3.443,0.65 0.107,-0.364 -0.454,-2.16 -0.704,-2.445 -0.096,-0.304 0.03,-0.03 2.01,-0.656 0.718,-0.226 1.585,-0.6 1.986,-0.85 0.68,-0.427 1.213,-0.65 1.642,-0.66 z m -112.812,2.838 c -1.104,2.652 -1.278,3.823 -0.753,6.61 0.437,2.322 0.943,3.486 3.325,6.916 1.813,2.61 2.393,3.626 1.956,4.45 -0.308,0.444 -1,0.86 -1.43,0.432 -0.886,-1.158 -1.418,-2.565 -2.282,-3.855 -3.328,-4.882 -3.56,-6.124 -3.985,-9.98 -0.194,-1.762 0.82,-5.513 1.685,-6.074 0.97,-0.38 1.784,0.892 1.485,1.502 z m 76.913,-1.223 c -0.08,0.01 -0.162,0.054 -0.245,0.137 -0.452,0.453 -1.746,2.562 -1.702,2.88 0.1,0.7 0.67,0.243 2.172,-1.96 0.36,-0.53 0.115,-1.1 -0.225,-1.057 z m 28.65,1.198 c 1.334,0.04 1.806,1.235 1.21,1.86 -0.87,0.908 -2.436,0.22 -2.436,-1.053 0,-0.54 0.25,-0.818 1.227,-0.807 z m 7.39,1.702 c 0.764,0.033 0.865,0.792 0.46,1.893 -0.507,1.022 -1.117,1.194 -2.95,1.765 -2.192,0.683 -2.55,0.584 -2.88,-1.433 -0.126,-0.775 -0.063,-0.603 1.957,-1.14 0.867,-0.23 1.88,-0.64 2.42,-0.865 0.41,-0.165 0.74,-0.23 0.993,-0.22 z m -129.507,0.904 0.538,4.072 0.876,-3.05 z m 122.382,1.37 c 1.08,0.003 1.658,0.97 1.11,1.55 -0.305,0.322 -1.082,0.33 -1.457,0.14 -0.856,-0.625 -0.7,-1.695 0.348,-1.69 z m -32.96,2.126 2.103,1.296 -17.08,26.97 -2.06,-0.044 -0.195,-0.43 z m 38.76,0.26 c 1.26,-0.018 1.37,1.17 -0.156,2.264 -0.626,0.4 -1.328,0.5 -1.873,0.523 -0.76,0.033 -1.272,-0.164 -1.33,-0.69 -0.33,-1.287 -0.52,-1.607 0.654,-1.53 0.234,0.015 0.872,-0.022 1.384,-0.24 0.524,-0.223 0.967,-0.323 1.32,-0.328 z m -5.222,1.178 c 0.87,0.005 1.426,0.95 0.84,1.413 -0.722,0.572 -1.623,0.22 -1.618,-0.645 0,-0.553 0.153,-0.77 0.778,-0.768 z m -122.91,1.907 -4.648,4.118 c 1.704,2.015 3.133,4.028 4.608,6.14 z m 93.97,0.265 c 2.016,-0.08 2.677,0.895 1.72,1.55 -1.3,0.87 -2.412,0.827 -3.887,0.626 -1.952,-0.36 -0.4,-1.924 1.74,-2.145 0.146,-0.016 0.29,-0.024 0.425,-0.03 z m -2.143,2.934 c 0.408,-0.012 1.008,0.103 1.785,0.366 1.32,0.447 2.963,1.83 2.886,2.597 -0.126,1.24 -2.462,0.6 -4.343,-1.18 -1.177,-1.113 -1.223,-1.76 -0.327,-1.784 z m -1.784,0.02 c 1.142,0.107 2.284,3.978 1.397,5.168 -0.87,1.166 -2.4,-1.344 -2.122,-3.316 0.11,-0.78 0.306,-1.81 0.61,-1.848 0.038,-0.005 0.077,-0.01 0.114,-0.005 z m -74.694,0.85 c 0.644,0.154 1.47,1.045 1.29,1.72 -0.13,0.273 -0.4,0.194 -0.694,0.123 -0.53,-0.224 -0.938,-0.96 -0.836,-1.574 0.05,-0.167 0.12,-0.26 0.24,-0.27 z m 86.673,0.665 3.36,2.28 -3.36,0.13 z m -13.923,4.61 c 2.578,0.015 3.123,0.85 1.198,1.864 -0.8,0.422 -2.748,0.5 -3.755,0.15 -1.6,-0.554 0.32,-2.026 2.557,-2.014 z m 20.852,1.737 0.175,2.338 -6.47,0.567 -0.332,-2.435 z m -22.37,1.164 c 0.45,-0.028 1.164,0.18 2.1,0.66 1.76,0.906 2.76,2.425 1.852,2.905 -0.823,0.436 -2.29,-0.08 -3.325,-1.168 -1.37,-1.44 -1.48,-2.342 -0.626,-2.396 z m -2.2,0.005 c 1.176,0.072 2.193,3.293 1.42,4.886 -0.425,0.872 -0.962,0.682 -1.732,-0.753 -0.746,-1.387 -0.786,-3.835 0.073,-4.103 0.08,-0.024 0.162,-0.034 0.24,-0.03 z m -84.148,0.91 -2.828,5.688 5.124,4.473 z m 109.514,4.382 0.455,2.25 -6.21,1.53 -0.606,-2.45 z m -27.12,0.44 c 0.757,0.014 1.468,0.194 1.877,0.553 0.566,0.498 0.443,0.722 -0.895,1.267 -2.382,0.97 -5.317,0.382 -3.614,-1.067 0.602,-0.51 1.657,-0.77 2.63,-0.753 z m 40.343,-0.13 c -2.372,1.59 -0.088,2.463 1.607,1.26 -0.127,-0.408 -1.11,-1.255 -1.608,-1.26 z m -42.086,3.187 c 1.697,0.054 5.025,2.38 4.313,3.495 -0.386,0.61 -2.612,0.09 -3.496,-0.758 -1.16,-1.113 -1.776,-2.603 -1.134,-2.72 0.097,-0.016 0.205,-0.022 0.318,-0.018 z m -2.142,0.106 c 0.876,-0.163 2.275,3.918 1.218,4.964 -0.396,0.39 -0.505,0.368 -1.17,-0.22 -1.324,-1.175 -1.097,-3.34 -0.302,-4.548 0.076,-0.116 0.164,-0.18 0.254,-0.196 z m 52.132,2.15 c -0.23,-0.43 -0.52,-0.63 -0.836,-0.87 -8.246,3.17 -6.132,6.188 0.836,0.87 z m -19.54,0.28 0.823,2.28 -6.255,2.48 -0.92,-2.495 z m -106.98,4.314 -2.12,5.575 c 2.303,0.013 4.38,1.1 6.48,2.068 z m 109.06,1.638 1.325,2.24 -5.884,3.183 -1.174,-2.36 z m -136.672,4.362 2.41,1.702 -3.54,4.4 -0.322,-0.62 0.04,-3.653 z m 139.884,1.384 1.424,2.054 -5.663,3.937 -1.39,-2.235 z m -133.81,2.64 2.602,2.006 -4.113,4.963 -2.49,-1.902 z m 28.627,1.228 -0.122,5.97 6.124,0.236 z m 70.766,2.69 6.958,4.01 -1.048,-6.118 c -1.818,0.355 -4.15,1.54 -5.91,2.11 z m 38.22,-1.252 1.625,2.02 -5.233,4.396 -1.677,-2.103 z m -132.303,1.77 2.425,2.255 -4.274,4.616 -2.244,-2.117 z m 136.774,3.277 1.883,1.912 -4.768,4.957 -1.882,-1.912 z m -131.262,2.43 1.878,2.19 -4.88,3.88 -1.81,-2.202 z m 28.124,0.514 1.37,5.85 c -0.1,-0.426 6.075,-1.745 6.88,-1.302 z m 71.893,0.495 5.828,6.154 0.655,-5.93 z m 36.043,0.968 2.108,1.648 -3.912,5.576 -2.387,-1.873 z m -131.86,3.716 1.737,2.508 -5.115,3.047 -1.453,-2.216 z m 137.38,0.59 0.324,0.324 0,3.98 -1.624,2.387 -2.215,-1.305 z m -32.97,4.472 5.155,9.373 1.454,-6.99 c -1.907,-0.028 -4.925,-1.25 -6.61,-2.383 z m -100.33,1.25 1.227,2.705 -5.404,2.464 -1.23,-2.688 z m 2.92,6.456 0.986,2.714 -5.746,1.907 -0.91,-2.617 z m -25.69,4.915 1.79,1.254 c 9.322,-4.9 6.416,-6.347 -1.79,-1.254 z M 2408,836.675 c 0.353,-0.036 0.76,0.45 1.086,1.526 0.496,1.626 0.233,3.64 -0.87,3.614 -0.742,-0.09 -1.02,-1.996 -1.02,-2.548 -0.01,-1.632 0.353,-2.546 0.805,-2.593 z m 5.11,0.973 2.22,0.24 -0.01,0.626 -17.682,28.074 -2.142,-1.36 z m -9.52,0.65 c 0.704,0.007 1.736,0.493 2.65,1.463 0.535,0.58 1.108,1.402 1.247,2.244 -0.016,0.278 -0.49,0.173 -0.95,0.108 -1.173,-0.166 -2.9,-0.98 -3.45,-1.98 -0.678,-1.23 -0.296,-1.84 0.502,-1.834 z m 81.293,1 2.358,11.498 c 0.73,-2.878 2.273,-4.537 3.415,-6.797 -3.004,-1.383 -4.238,-3.023 -5.772,-4.7 z m -101.598,2.326 0.553,2.973 -5.956,1.378 -0.616,-2.885 z m 22.217,1.032 c 0.084,-0.002 0.168,0 0.25,0.01 2.177,0.243 2.486,0.728 1.02,1.71 -0.887,0.597 -3.29,0.68 -3.686,0.045 -0.422,-0.678 1.15,-1.753 2.417,-1.765 z m -43.22,1.746 1.848,1.08 c 3.167,-2.288 -0.29,-2.747 -1.848,-1.08 z m 40.085,1.002 c 0.666,0.008 1.066,1.197 1.3,2.29 0.228,1.056 0.306,2.01 -0.102,2.542 -0.5,0.65 -0.988,0.765 -1.384,0.122 -1.162,-1.886 -1.124,-4.97 0.186,-4.954 z m -4.91,1.726 c 0.31,-0.01 0.703,0.068 1.16,0.24 1.545,0.583 3.593,2.95 2.728,3.276 -1.278,0.483 -4.072,-0.92 -4.597,-2.337 -0.265,-0.714 0.025,-1.154 0.71,-1.178 z m -12.744,1.908 0.142,2.94 -6.264,0.253 -0.186,-2.924 z m 15.346,2.474 c 0.617,-0.018 1.233,0.064 1.73,0.28 0.898,0.386 0.245,1.088 -1.295,1.622 -1.017,0.353 -2.466,0.444 -2.974,0.04 -1.19,-0.938 0.687,-1.89 2.538,-1.942 z m -48.443,0.342 c 4.292,2.606 13.137,8.41 13.137,8.41 -0.42,0.084 -0.867,0.413 -1.282,0.735 -0.32,0.264 -0.666,0.508 -0.968,0.632 -0.475,0.194 -0.913,0.22 -1.31,0.308 -2.766,0.6 -4.12,2.166 -3.257,4.113 0.34,0.764 0.427,0.64 -0.162,1.286 -1.65,1.572 -1.448,2.043 -0.86,4.058 0.01,0.284 -1.964,2.705 -0.22,4.528 0.964,0.84 1.01,0.314 0.66,2.225 -0.122,1.15 0.19,2.093 1.863,2.422 0.93,0.426 0.917,0.277 0.588,1.066 -0.226,1.13 0.097,1.598 0.89,2.01 0.72,0.45 1.012,0.572 0.503,0.968 -5.567,2.85 -7.28,7.81 -2.028,15.12 0.62,0.862 2.177,3.293 2.177,3.293 -1.77,2.627 -3.46,4.79 -5.267,7.138 l 5.256,7.35 c -0.853,1.334 -2.843,4.047 -4.065,6.723 -1.837,4.02 -0.625,9.656 4.66,11.34 2.266,0.724 5.258,0.138 7.144,-2.052 1.528,-1.777 2.362,-5.308 0.966,-8.984 -1.766,-4.12 -3.884,-6.14 -4.57,-7.31 l 5.628,-7.064 c 0,0 -3.877,-5.577 -5.423,-7.602 10.552,-12.917 1.933,-16.528 0.28,-17.634 -0.257,-0.172 -0.196,-0.998 -0.196,-0.998 9.477,-1.086 12.714,-6.294 15.502,-12.886 5.653,3.64 13.748,8.538 19.42,12.368 0.545,0.507 0.904,0.82 0.82,1.1 -0.068,0.228 -0.287,1.276 -0.298,2.352 0.264,1.713 0.138,2.49 -0.553,3.145 -0.65,0.617 -0.52,0.897 -0.415,1.564 0.18,1.158 0.356,1.274 -0.162,1.858 -0.638,0.72 -0.852,1.056 -0.733,2.802 0.07,1.037 0.202,1.813 -0.07,2.425 -0.35,0.797 -1.318,1.2 -2.586,2.196 -2.22,1.744 -1.92,2.276 1.144,8.603 2.61,5.39 2.91,6.624 1.907,8.538 -0.833,1.594 -1.147,2.825 -1.046,5.126 0.026,0.587 0.076,1.22 0.074,1.53 -0.01,0.745 0,0.66 -0.426,1.125 -0.334,0.364 -0.89,1.08 -1.232,1.596 -3.643,5.465 -13.228,19.37 -13.228,19.37 l -32.23,-0.054 z m 45.202,2.543 c 0.377,-0.028 0.833,0.648 1.35,2.014 0.297,0.79 0.266,2.158 -0.216,2.685 -0.96,1.047 -2.28,-1.41 -1.863,-3.356 0.188,-0.88 0.435,-1.324 0.73,-1.345 z m 90.646,-1.478 c 0.01,4.98 -0.102,11.443 -1.816,16.207 l 1.944,0.88 c -0.627,-4.89 0.15,-8.908 4.638,-11.024 -2.042,-1.386 -3.602,-3.727 -4.766,-6.064 z m -95.478,3.14 c 0.156,-0.004 0.336,0.035 0.533,0.098 0.727,0.2 1.613,0.624 2.152,1.173 0.922,0.94 1.873,2.07 1.633,2.176 -1.524,0.668 -5.392,-1.375 -4.885,-2.974 0.11,-0.338 0.307,-0.467 0.567,-0.474 z m -6.778,0.21 0.04,2.44 -3.747,-2.396 z m 85.544,1.174 c 0.607,0.053 1.545,0.847 1.4,1.398 -0.262,0.597 -0.582,0.542 -1,-0.085 -0.522,-0.783 -0.733,-1.272 -0.4,-1.314 z m -75.9,3.017 c 0.91,-0.025 1.694,0.176 1.78,0.65 0,0.45 -0.694,1.03 -1.546,1.29 -2.13,0.657 -3.726,0.234 -3.144,-0.81 0.365,-0.692 1.74,-1.098 2.91,-1.13 z m 74.174,2.768 c -0.9,1.615 -1.01,6.776 0.577,8.882 2.468,2.725 4.747,6.274 4.484,10.998 l -2.37,1.06 c 0.13,-3.884 -0.024,-6.41 -3.057,-9.76 -3.61,-3.924 -2.762,-10.724 -1.515,-12.724 1.07,-1.974 2.61,0.82 1.882,1.545 z m -103.907,-2.146 c 0.76,-0.045 1.686,0.404 3.365,1.51 4.292,3.04 6.62,4.212 10.876,7.22 0.622,0.582 0.59,0.498 0.484,0.958 -1.628,6.227 -6.353,11.168 -13.355,12.073 -0.81,0.105 -0.393,-0.402 -0.88,-1.38 -0.503,-1.004 -1.43,-1.44 -2.46,-1.45 -2.892,-0.028 -0.42,-1.65 3.11,-2.114 1.166,-0.178 2.572,-0.336 3.315,-1.04 0.16,0.076 -0.613,-4.87 0.18,-6.612 0.406,-1.565 0.023,-2.322 -0.414,-1.36 -0.275,0.605 -0.66,2.193 -0.866,3.82 -0.174,1.374 -0.464,1.562 -0.787,0.895 -0.147,-0.305 -0.144,-1.025 0.09,-1.594 0.262,-1.296 -1.372,-2.273 -1.043,-3.46 0.438,-0.99 -0.017,-2.08 -0.567,-2.444 -0.3,-0.642 -0.264,-1.106 -0.225,-1.555 0.092,-1.05 -0.607,-2.058 -1.712,-2.498 -0.488,-0.246 -0.342,-0.514 0.167,-0.767 0.237,-0.12 0.47,-0.186 0.723,-0.2 z m -3.51,1.775 c 0.277,-0.005 0.553,0.025 0.816,0.092 0.567,0.346 1.024,2.314 0.39,2.39 -0.234,0.03 -0.964,0.12 -1.53,0.285 -1.92,0.564 -2.83,0.49 -2.793,-0.616 0.038,-1.125 1.614,-2.125 3.115,-2.15 z m 2.552,0.2 c 0.756,0.004 1.365,0.89 0.89,1.36 -0.492,0.486 -1.437,0.13 -1.433,-0.573 0,-0.38 0.174,-0.79 0.543,-0.787 z m 0.513,3.066 c 0.217,-0.008 0.457,0.037 0.714,0.156 0.703,0.325 1.108,1.534 0.66,1.976 -0.34,0.336 -1.313,0.218 -1.833,-0.225 -0.932,-0.79 -0.48,-1.87 0.458,-1.907 z m -2.38,0.176 c 0.434,0.01 0.747,0.15 0.83,0.45 0.072,0.258 -0.048,0.497 0.07,0.865 0.182,0.58 0.55,1.024 0.228,1.257 -1.472,-0.088 -4.53,1.76 -5.413,1.673 -0.737,-0.1 -0.82,-0.778 -0.18,-1.878 0.737,-1.273 3.16,-2.395 4.464,-2.368 z m 0.89,3.575 c 0.32,-0.02 0.373,0.157 0.243,0.626 -0.09,0.333 -0.015,1.126 0.212,1.638 0.242,0.55 0.683,0.876 0.454,1.09 -0.377,0.11 -1.64,0.363 -2.704,0.76 -1.372,0.758 -5.224,3.045 -4.254,-0.612 0.31,-1.22 1.726,-2.07 4.2,-2.934 0.94,-0.328 1.528,-0.547 1.85,-0.567 z m 2.018,0.044 c 0.596,-0.043 1.276,0.244 1.58,0.984 0.893,1.778 -1.67,2.033 -2.49,0.552 -0.485,-0.877 0.145,-1.48 0.91,-1.535 z m 0.49,4.143 c 1.33,0.007 2.365,1.658 1.398,2.283 -0.717,0.43 -1.605,0.35 -2.426,0.147 -1.233,-0.542 -0.664,-2.44 1.027,-2.43 z m 127.516,0.034 c 5.067,2.653 11.96,5.098 18.642,6.915 l -0.225,65.734 -45.466,0.03 -12.51,-21.718 c 0,0 -0.414,-0.707 -0.546,-1.018 -0.253,-0.59 -0.162,-1.073 0.01,-1.687 0.414,-1.48 1.67,-4.385 2.826,-6.445 3.02,-5.547 7.313,-11.63 4.988,-16.96 -0.266,-0.608 2.4,-3.913 2.4,-3.913 4.108,0.335 7.503,-2.342 6.288,-8.663 8.573,-3.505 15.636,-6.354 23.592,-12.275 z m -129.88,0.323 c 0.118,-0.005 -0.232,1.438 0.495,2.323 0.454,0.696 0.38,0.673 -1.16,1.28 -0.574,0.313 -1.15,0.787 -1.475,1.077 -2.204,1.965 -4.384,-0.605 -2.255,-2.67 1.72,-1.545 3.516,-1.883 4.367,-1.99 0.013,-0.015 0.022,-0.02 0.03,-0.02 z m 104.753,1.358 c 0.74,0.132 1.696,1.115 1.39,1.65 -1.043,1.748 -1.09,2.687 -1.183,4.493 -0.104,2.018 0.24,2.315 -0.528,1.967 -0.502,-0.234 -1.438,-0.636 -1.648,-1.15 -0.485,-1.18 0.754,-7.175 1.97,-6.96 z m -105.47,5.063 c 0.818,-0.014 1.677,0.254 2.16,0.876 0.404,0.518 0.446,0.962 0.045,1.173 -0.954,0.503 -4.11,0.24 -4.27,-0.406 -0.244,-1 0.868,-1.623 2.065,-1.643 z m 47.816,1.282 c 3.857,0.015 8.357,0.836 11.84,2.357 4.944,1.864 9.3,6.617 10.284,8.65 0.3,0.617 -0.312,0.617 -0.84,0.674 -5.89,0.973 -7.85,8.22 -2.88,11.683 1.557,0.974 2.816,0.87 2.816,0.87 1.26,-0.107 -5.602,13.06 -8.333,21.263 -8.452,-0.346 -14.84,0.956 -23.102,-1.887 -0.888,-1.476 -0.677,-4.734 -0.03,-6.416 0.594,-1.528 1.376,-2.707 1,-4.465 -0.66,-3.062 -3.45,-7.05 -4.383,-9.58 -0.82,-1.93 -0.767,-2.65 0.66,-3.756 1.682,-1.303 2.096,-1.576 2.558,-2.235 0.43,-0.612 0.247,-0.753 0.254,-2.136 0.01,-1.676 -0.03,-1.416 1.355,-1.662 0.482,-0.086 1.622,-0.45 2.493,-0.91 1.806,-0.952 3.066,-0.918 4.127,-0.327 0.46,0.124 0.418,-0.354 0.61,-0.988 0.086,-0.277 0.28,-0.73 0.265,-0.866 -0.032,-0.282 -0.643,-0.2 -1.315,-0.106 -2.696,0.377 -4.82,0.46 -5.912,0.053 -0.948,-0.352 -0.95,-0.99 -0.397,-2.05 0.495,-0.942 0.844,-0.927 0.642,-2.894 -0.253,-2.47 0.09,-2.99 1.242,-3.8 1.437,-1.01 4.048,-1.483 7.047,-1.47 z m 13.938,2.176 12.534,0 c -1.23,1.984 -2.6,5.045 -3.375,7.946 -0.113,0.227 -0.247,0.45 -0.538,0.157 -1.69,-2.42 -3.616,-5.01 -8.622,-8.102 z m -10.392,8.827 c -1.498,0.042 -3.37,0.763 -5.726,2.112 -1.6,0.917 -2.907,1.487 -4.607,1.174 -0.97,-0.178 -1.095,-0.04 -1.222,0.275 -0.57,1.418 1.55,2.94 3.693,1.94 0.623,-0.26 5.4,-2.736 5.663,-2.948 0.287,-0.23 2.265,-0.813 2.787,-0.807 1.58,0.02 2.555,1.262 2.362,2.695 -0.258,1.914 -2.972,2.01 -3.15,0.308 -0.136,-1.31 -0.682,-0.728 -0.733,-0.083 0,0.55 0.413,1.805 0.866,2.088 2.293,1.432 5.316,-1.355 3.868,-4.225 -0.886,-1.756 -2.102,-2.577 -3.8,-2.528 z m -10.285,6.67 c -1.554,0.297 -2.566,0.902 -4.242,1.042 -1.384,0.305 -1.28,1.406 -0.416,1.98 0.664,0.44 1.5,0.174 3.922,-1.364 2.377,-1.512 4.415,1.637 2.513,3.25 -1.197,1.014 -0.375,1.28 0.445,0.67 2.106,-1.572 0.897,-6.17 -2.22,-5.577 z m 7.362,8.103 c -0.182,-0.013 -0.47,0.053 -0.856,0.23 -1.78,0.816 -3.15,1.676 -4.005,2.82 -0.145,0.25 -0.065,0.67 -0.136,1 -0.055,0.258 -0.26,0.586 -0.225,0.762 0.03,0.153 0.534,0.316 0.61,0.46 0.31,0.582 0.11,2.066 -0.068,3.14 -0.086,0.513 -0.85,0.672 -1.154,0.982 -1.004,1.02 -0.752,1.332 0.318,0.934 0.747,-0.278 0.43,-0.794 2.28,-0.435 2.393,0.465 4.29,-0.185 6.175,-1.232 2.093,-1.162 2.85,-1.806 2.935,-1.667 0.14,0.23 0.03,0.35 -1.462,1.59 -3.74,3.108 -6.52,3.83 -8.617,2.665 -0.628,-0.427 -1.13,-0.6 -0.655,0.313 0.062,0.1 0.57,0.495 0.925,0.656 2.155,0.972 4.857,0.15 8.294,-2.568 0.754,-0.596 1.42,-1.265 2.293,-1.995 2.852,-2.386 2.102,-3.48 -1.12,-2.317 -1.016,0.367 -1.302,-0.03 -2.675,-0.562 -1.845,-0.716 -2.45,-0.783 -4.572,-0.82 -1.848,-0.033 -2.125,0.14 -2.123,-0.172 0,-0.396 1.244,-1.793 2.64,-2.4 1.364,-0.595 1.746,-1.342 1.2,-1.38 z m 3.4,5.893 c 0.343,0.35 -0.15,0.57 -1.483,1.204 -0.756,0.358 -1.45,0.652 -1.546,0.65 -0.12,0.215 -1.376,-2.62 -1.032,-2.758 0.147,-0.06 3.224,0.2 4.06,0.905 z m -4.838,-0.298 c 0.31,0.643 0.545,1.316 0.665,1.937 0.027,0.19 0.163,0.466 -0.138,0.463 -0.236,0.035 -0.627,0.055 -0.767,-0.166 -0.302,-0.473 -0.636,-2.083 -0.524,-2.396 0.233,-0.313 0.64,-0.093 0.764,0.162 z m 10.964,5.096 c -0.112,0 -0.32,0.084 -0.65,0.28 -5.303,3.13 -11.663,4.76 -15.752,3.216 -1.38,-0.52 -1.63,-0.337 -1.13,0.607 0.35,0.656 1.04,1.424 2.09,1.712 3.34,0.92 8.72,-0.42 12.86,-3.134 1.685,-1.106 3.066,-2.684 2.582,-2.68 z m 31.21,8.39 c 0,0 9.37,19.32 11.193,20.227 l -76.247,-0.137 12.847,-18.362 c 0.113,1.02 30.987,5.26 52.207,-1.727 z"
         id="path4605" />
      <path
         style="fill:#d40000"
         inkscape:connector-curvature="0"
         d="m 2387.215,946.875 12.313,-18.185 c 18.212,3.462 34.596,1.633 52.543,-1.57 l 11.954,20.16 z m 96.778,-68.278 c -0.234,-0.236 -0.053,-10.23 0.12,-10.066 0.233,0.222 2.288,1.74 3.208,0.98 -1.162,-9.563 5.01,-9.38 4.86,-10.632 -9.59,-7.235 -1.358,-14.62 -1.523,-14.785 -10.49,-5.414 -5.227,-13.726 -5.954,-14.47 -12.78,-3.315 -7.79,-13.46 -8.756,-12.413 -7.44,2.237 -11.538,-3.997 -11.663,-9.067 -6.438,3.65 -16.386,-1.52 -13.27,-7.33 0,0 3.412,1.618 4.014,1.29 5.256,-3.82 4.845,1.665 5.937,2.856 3.92,-0.57 6.235,2.432 7.212,3.89 5.783,0.006 5.545,-1.38 5.595,4.227 4.357,1.106 4.183,3.462 6.708,6.68 5.492,0.06 4.568,1.85 3.325,4.89 3.96,3.15 4.28,5.62 4.932,8.485 4.32,1.566 5.095,2.203 2.276,5.844 3.81,5.715 1.977,9.025 2.556,9.337 4.752,3.43 2.377,4.67 0.3,5.987 0.722,4.557 1.3,5.226 -0.376,9.866 5.463,3.877 -0.868,5.625 -1.19,5.545 0,0 -0.615,3.802 -0.612,3.82 0.138,0.74 -7.193,5.58 -7.7,5.067 z m -132.51,-27.64 -0.11,-13.377 46.315,29.928 -5.852,9.186 z m 61.528,19.688 10.947,-22.92 c 0,0 -4.993,-25.152 -3.933,-25 0.655,0.093 31.376,0.685 31.376,0.685 3.527,8.02 5.654,14.837 14.693,28.11 l -9.55,2.975 0.332,16.068 z m 26.834,-6.028 c -0.32,-0.663 -0.498,-1.116 -0.438,-1.412 0.117,-0.38 0.408,-0.364 0.783,-0.16 1.332,0.65 2.666,1.207 3.648,-0.02 0.492,-0.64 0.364,-1.553 -0.054,-2.08 -0.752,-1.533 -3.12,-0.424 -3.914,-0.37 -0.74,0.017 -1.024,-0.604 -0.417,-1.49 0.362,-0.384 0.59,-0.81 0.65,-1.31 0.414,-3.503 -5.558,-2.257 -3.486,1.14 0.942,1.26 0.393,2.015 -0.99,1.22 -1.523,-0.876 -3.64,-0.06 -3.57,1.782 0.053,1.395 1.805,2.257 3.28,1.416 0.34,-0.195 0.605,-0.405 0.846,-0.51 0.685,-0.298 1.178,-0.053 0.95,0.72 -0.613,0.963 -1.333,2.35 -0.73,3.26 0.602,1.33 2.68,1.205 3.392,0.378 0.49,-0.568 0.628,-1.494 0.05,-2.563 z m 72.378,-70.257 -46.405,-30.076 1.605,-2.542 c 2.078,-1.16 2.933,-2.603 2.863,-4.614 l 1.26,-2.778 40.724,26.133 z m -71.227,-6.587 3.427,20.702 -32.21,0.305 c -1.19,-5.28 -12.147,-25.285 -13.064,-26.127 5.445,-5.212 5.538,-14.127 8.638,-21.23 0.25,-0.32 42.48,-0.37 42.99,-0.05 -0.173,5.038 -13.108,27.44 -9.78,26.4 z m -13.483,-12.62 c 0.82,-0.752 0.765,-1.9 -0.14,-3.192 -0.876,-1.25 -0.486,-2.152 0.92,-1.305 0.777,0.522 2.012,0.63 2.846,0.365 1.06,-0.36 1.5,-1.206 1.342,-2.273 -0.19,-1.292 -1.62,-1.646 -3.15,-1.082 -0.442,0.093 -0.71,0.454 -1.092,0.626 -0.824,0.364 -1.153,-0.628 -0.398,-1.913 0.836,-1.424 -0.032,-2.95 -1.57,-3.086 -1.643,-0.143 -2.62,1.726 -1.95,2.75 0.96,1.473 0.264,2.498 -1.116,1.514 -1.985,-1.417 -4.576,0.38 -3.503,2.485 0.522,1.02 2.227,1.29 3.755,0.642 1.277,-0.542 1.657,0.08 0.883,1.39 -1.59,2.688 1.022,5.052 3.174,3.08 z m -47.004,-23.842 -0.342,12.94 c -4.846,-2.964 -4.126,-3 -4.305,-2.956 1.427,3.89 -0.238,8.695 -4.35,11.057 7.41,6.95 3.407,11.837 2.19,15.137 9.465,5.495 4.663,14.99 4.702,14.498 9.332,0.053 9.143,8.212 9.412,11.617 11.54,-0.724 9.992,8.495 11.513,9.288 5.593,-2.503 12.127,-1.645 13.86,5.873 1.12,4.266 -2.992,0.155 -4.784,0.335 -6.378,3.97 -5.15,-2.09 -5.51,-2.934 -5.282,0.5 -5.993,-2.017 -8.307,-3.804 -5.705,1.098 -5.235,-0.78 -4.9,-4.244 -4.475,-0.907 -5.447,-3.7 -7.23,-6.433 -6.18,0.2 -3.66,-4.166 -3.637,-5.024 -0.75,-0.672 -4.3,-4.164 -4.474,-8.16 -6.343,-1.794 -2.36,-4.995 -2.13,-6.093 -2.4,-2.99 -3.03,-5.195 -2.228,-8.962 -5.632,-2.633 -0.928,-5.094 -0.53,-6.59 -1.836,-4.91 -0.498,-6.377 0.227,-9.033 -3.624,-4.248 -1.46,-4.012 1.193,-6.59 0.336,-0.465 -0.59,-2.6 -0.54,-3.854 z m 32.54,-47.953 -10.157,-18.18 72.54,0 c 0,0 -7.894,10.94 -10.955,16.445 -18.09,-2.856 -35.02,-1.5 -51.428,1.735 z"
         id="path4607" />
      <path
         style="fill:#e2cf00"
         inkscape:connector-curvature="0"
         d="m 2362.413,935.067 c -6.362,-1.445 -7.443,-9.442 -1.47,-16.093 0.483,-0.538 0.812,-1.37 0.812,-1.37 0,0 -1.063,-1.75 -3.85,-5.608 -0.52,-0.718 -1.274,-1.868 -1.274,-1.868 1.527,-2.202 3.13,-4.026 4.838,-6.413 0.23,-0.323 0.653,-0.684 0.594,-0.98 -0.085,-0.423 -0.705,-0.846 -1.446,-1.938 -4.308,-6.346 -4.783,-8.86 -2.596,-12.636 2.055,-3.547 6.966,-3.956 9.955,-0.83 3.23,3.38 3.08,6.452 -1.115,12.703 -0.92,1.372 -1.586,2.61 -1.586,2.61 0,0 -0.038,0.436 1.48,2.397 2.107,2.72 3.654,5.055 3.654,5.055 0,0 -0.96,1.224 -1.867,2.29 -2.43,2.858 -3.525,4.828 -3.525,4.828 0,0 0.166,0.57 0.53,0.98 6.666,7.555 6.14,16.23 -1.398,16.967 -0.388,0.038 -1.33,-0.02 -1.734,-0.093 z m 53.62,-96.394 c -0.174,-0.287 -23.99,38.254 -23.99,38.254 l 2.72,1.744 22.78,-35.626 c 0.345,0.26 0.68,0.572 0.612,1.005 0,0 -18.765,30.577 -21.89,35.464 -0.084,0.13 4.652,2.937 4.81,2.945 6.98,-3.44 36.084,-0.462 55.41,-1.646 0.077,0.06 -0.297,6.79 -0.297,6.79 0,0 -4.406,-5.098 -5.297,-5.13 -4.392,-0.153 -9.014,1.72 -12.324,1.51 -2.114,0.646 -4.527,8.35 -5.002,10.282 -3.846,-0.447 -7.56,3.577 -6.672,7.326 1.257,4.164 3.417,3.85 5.755,3.92 -0.217,4.713 -8.54,17.14 -8.576,23.26 8.803,-0.695 18.327,-0.855 27.407,-3.593 0,0 3.41,-9.81 7.714,-16.274 1.42,-2.472 2.1,-6.185 1.525,-8.525 -0.364,-2.56 0.74,-3.21 1.726,-5.002 0.602,-1.12 2.82,-1.075 3.104,-1.157 5.775,-1.672 3.712,-9.14 1.255,-10.468 -3.067,-1.657 -7.4,0.91 -9.066,-2.45 -1.763,-3.556 -1.192,-10.91 -1.192,-10.91 l -43.603,0.208 c 0,0 12.32,-23.41 12.006,-23.583 -3.37,-1.85 -8.87,-8.277 -8.912,-8.344 z m -29.163,21.31 c 0.203,-2.37 0.582,-40.843 -35.772,-59.97 l 0.193,-5.057 c 0.224,-0.26 33.072,14.827 38.706,54.017 l 10.135,-15.886 3.73,1.464 c -5.51,8.28 -16.467,28.374 -16.99,25.432 z m -22.076,-13.86 c 1.497,-4.443 -0.96,-2.086 -3.2,-2.268 -1.53,-0.833 -3.033,-1.91 -4.455,-2.845 10.623,-5.63 4.296,-5.357 -1.894,-1.404 -1.604,-0.87 -3.634,-2.777 -3.762,-2.615 11.99,-7.712 7.492,-7.867 -0.18,-2.284 0.264,-5.236 0.078,-3.27 0.18,-5.03 6.54,-7.01 0.45,-3.2 0,-3.118 -1.61,-6.99 6.09,-5.528 6.797,-0.242 1.356,1.008 4.02,2.255 4.805,6.592 3.7,2.355 3.31,4.305 3.14,7.126 1.445,1.43 5.178,4.445 0.824,7.23 z m -13.79,-31.904 0.246,-3.87 c 0.5,-1.576 28.538,18.427 26.517,44.13 0.33,-0.18 -3.103,-1.794 -4.088,-2.677 0.014,-18.914 -22.243,-38.523 -22.676,-37.584 z m 160.807,21.697 c -18.707,-8.575 -36.47,-29.12 -37.403,-55.845 l -10.566,17.698 -3.75,-1.588 c 0.35,0.29 8.357,-14.57 16.6,-24.842 2.325,33.718 15.547,49.397 35.58,60.786 z m -97.97,-12.33 c -18.126,-2.25 -44.336,-26.93 -36.503,-60.386 1.11,-3.396 18.593,15.427 18.594,15.426 0.11,-0.854 15.728,24.306 15.29,29.22 13.18,3.756 38.908,0.195 38.908,0.195 21.392,4.78 43.76,27.86 35.684,60.66 0,0 -5.686,-3.735 -10.44,-8.08 -14.436,-13.957 -19.018,-25.425 -24.133,-38.075 -18.485,-1.674 -35.814,1.642 -37.4,1.042 z m 98.145,-27.862 c 0.316,1.666 0.11,5.118 0.174,5.11 -4.82,5.247 -5.32,5.343 0.72,3.657 -0.748,5.03 -4.467,5.857 -6.677,4.144 -0.814,-0.63 -0.822,-4.097 -0.822,-4.097 -3.66,-0.92 -4.92,-2.02 -4.4,-5.96 -4.218,-0.504 -4.052,-2.558 -3.705,-6.845 -3.84,-2.16 -2.884,-5.6 -0.612,-7.07 l 1.9,1.31 c -0.61,0.545 -0.313,3.96 3.054,1.42 0,0 2.693,2.235 3.987,3.102 -9.74,6.264 -3.836,4.887 2.164,0.772 1.126,0.767 2.663,2.023 3.463,2.565 -7.904,5.67 -10.497,10.408 0.755,1.89 z m 0.473,21.296 -0.322,4.517 c -19.232,-11.768 -24.438,-27.286 -25.867,-43.814 0,0 2.58,1.9 3.76,2.69 1.717,21.322 21.242,35.72 22.428,36.608 z m -105.363,-55.95 46.12,0.295 -12.232,23.394 6.457,7.627 c 0,0 16.02,-24.97 24.077,-38.05 l -2.787,-1.665 -22.994,36.14 -0.913,-1.014 22.668,-36.11 c -1.358,-0.89 -3.93,-2.32 -3.93,-2.32 0,0 -39.277,0.632 -56.35,0.563 0.555,-2.356 0.674,-6.532 0.674,-6.532 2.517,3.615 5.215,6.843 11.085,3.29 0,0 6.942,0.235 7.197,-0.096 0.848,-1.374 2.354,-5.694 4.11,-10.574 6.696,-0.448 6.03,-3.686 6.79,-4.748 -0.512,-9.52 -5.85,-4.393 -5.39,-7.853 1.508,-6.167 9.22,-20.126 8.246,-21.35 -1.99,-1.32 -21.716,2.565 -27.457,3.272 -0.532,-0.206 -3.333,8.956 -6.29,12.873 -3.216,4.26 -4.362,8.83 -2.72,13.14 -1.702,4.74 -4.962,4.253 -7.582,5.595 -2.97,3.218 -2.152,8.146 0.68,10.052 1.972,1.327 5,1.258 8.083,-1.247 z m 91.648,-33.09 -5.396,-7.248 5.23,-7.624 c -2.064,-3.274 -5.47,-8.285 -4.858,-12.256 1.332,-7.876 11.953,-6.72 12.878,0.813 0.503,3.497 -2.045,7.785 -4.633,11.434 1.708,3.114 2.443,3.622 4.927,7.192 -1.476,2.606 -5.07,7.704 -5.07,7.704 2.24,3.77 5.36,7.926 5.133,11.76 -0.237,3.295 -3.826,6.632 -7.175,5.93 -10.416,-2.18 -4.6,-13.32 -1.037,-17.706 z"
         id="path4609" />
      <path
         inkscape:connector-curvature="0"
         d="m 2336.022,668.42 0,3.482 3.442,0 c 0,0 0.082,3.357 0.113,10.485 0.03,6.917 0.17,10.35 -0.274,12.318 -1.21,4.543 -7.91,4.565 -9.242,1.3 -0.775,-1.9 -0.565,-3.375 -0.606,-5.285 l -3.702,0 c 0,0 0.02,0.96 0.025,2.137 0.02,5.11 1.744,7.548 5.775,8.513 4.145,1.1 8.985,-0.575 10.71,-4.054 1.028,-1.982 0.91,-2.113 0.934,-14.093 0.016,-7.997 0.14,-11.32 0.14,-11.32 l 3.17,0 0,-3.483 z m 65.147,15.928 c 2.86,5.373 10.982,19.868 10.982,19.868 19.318,-4.006 35.562,-5.026 52.633,-1.286 l 12.197,-18.494 z m 2.517,1.09 3.492,0 6.85,14.1 11.82,-2.363 -2.015,-11.708 3.345,0.02 1.692,11.257 17.365,-0.44 2.25,-10.866 3.203,0.04 -2.3,11.04 13.752,1.855 6.73,-12.935 4.62,0 -10.23,15.97 c -18.2,-3.546 -36.28,-2.354 -51.41,1.37 z m 6.587,0 10.196,0 2.446,9.516 c -1.252,0.654 -5.928,1.772 -7.492,1.614 -1.87,-3.272 -3.798,-8.004 -5.15,-11.13 z m 19.664,0 15.517,0 -1.326,8.103 -13.014,0.417 z m 24.598,0 11.956,0 -4.72,9.84 -9.016,-1.228 z m -76.44,2.465 c -2.398,5.163 -5.778,10.2 -8.61,13.922 -8.397,10.976 -10.2,14.1 -11.86,20.563 -2.597,10.117 6.357,18.29 14.123,12.793 1.83,-1.294 3.855,-4.864 3.863,-6.405 0.01,-1.11 0.764,-1.707 1.38,-1.086 0.123,0.125 0.154,0.62 0.116,1.33 -0.43,4.583 -2.27,12.037 -5.83,16.714 l 14.226,0 c -4.306,-5.71 -5.746,-11.464 -5.668,-16.876 0.01,-2.326 1.387,-2.097 1.697,0.284 1.517,11.676 16.574,9.483 17.277,-2.196 0.413,-6.107 -3.442,-12.614 -8.465,-19.825 -4.098,-5.882 -9.083,-12.235 -12.25,-19.217 z m 121.962,7.384 c -0.7,-0.004 -1.344,0.057 -1.936,0.18 -3.102,0.65 -4.727,3.034 -4.753,6.925 -0.013,1.784 1.3,4.937 3.3,7.918 0.974,1.453 1.623,2.792 1.623,2.792 l -5.203,7.648 5.536,7.233 c 0,0 -0.863,1.01 -1.375,1.736 -2.537,3.59 -3.71,6.947 -3.55,9.7 0.177,2.975 1.91,5.245 5.16,6.334 1.784,0.597 4.326,-0.133 6.035,-1.682 1.38,-1.25 2.073,-2.875 2.103,-4.783 0.04,-2.726 -1.275,-6.028 -3.898,-9.63 -0.712,-0.978 -1.06,-1.746 -1.06,-1.746 0,0 3.67,-5.227 5.055,-7.62 l -5.017,-7.207 c 3.99,-5.995 4.794,-7.323 4.905,-11.008 -0.18,-3.652 -2.83,-6.77 -6.925,-6.793 z m -0.498,0.44 c 0.172,-0.003 0.346,0 0.518,0.015 4.556,0.35 6.962,3.737 6.357,8.083 -0.618,4.145 -4.354,8.007 -4.954,9.34 1.798,2.92 5.185,7.072 5.185,7.072 -1.437,2.613 -5.15,7.677 -5.15,7.677 0,0 0.215,0.42 0.45,0.753 3.876,5.492 4.942,8.088 4.676,11.38 -0.21,2.597 -2.26,4.913 -4.816,5.384 -4.05,0.746 -7.373,-2.128 -7.78,-6.01 -0.25,-3.396 1.94,-6.7 3.643,-9.276 0.72,-1.08 1.34,-2.112 1.34,-2.112 l -5.517,-7.243 c 0,0 0.396,-0.623 0.65,-0.993 0.97,-1.408 2.225,-3.15 2.867,-3.986 1.16,-1.51 1.848,-2.552 1.848,-2.552 0,0 -0.822,-1.323 -1.584,-2.528 -3.024,-4.778 -3.868,-7.228 -3.403,-9.868 0.572,-3.25 3.09,-5.092 5.673,-5.135 z m 0.41,2.45 c -1.683,0.045 -3.29,1.286 -3.93,3.08 -0.926,3.367 2.616,8.462 4.23,9.83 3.02,-3.473 4.944,-7.37 3.828,-10.098 -0.735,-1.65 -2.444,-2.858 -4.128,-2.813 z m 0.416,1.09 c 3.05,0.064 4.193,3.685 1.84,7.805 -0.814,1.406 -2.01,2.876 -2.01,2.876 0,0 -1.12,-1.393 -1.79,-2.445 -2.728,-4.27 -2.025,-7.6 1.324,-8.196 0.22,-0.03 0.433,-0.044 0.636,-0.04 z m -60.712,1.883 c -7.985,0.043 -18.656,1.373 -28.035,3.502 -0.815,5.03 -3.34,10.076 -6.094,14.083 -2.653,4.333 -3.61,8.106 -2.724,10.69 0.83,2.42 -1.437,6.033 -3.927,6.26 -3.095,0.282 -5.065,2.437 -5.027,5.506 -0.088,4.918 3.305,7.933 7.912,6.26 0.463,-0.057 0.773,0.245 0.773,0.245 l -0.27,28.143 c -2.592,0.407 -4.323,0.972 -6.528,2.142 l -0.93,-0.997 c -0.51,-0.55 -1.155,-1.252 -1.436,-1.565 -0.282,-0.314 -0.792,-0.752 -1.13,-0.97 -0.34,-0.215 -0.8,-0.684 -1.023,-1.04 -0.543,-0.87 -2.85,-3.087 -4.108,-3.947 -0.215,-0.145 -0.76,-0.606 -1.21,-1.02 l -0.82,-0.754 0.01,-9.345 c 0,-5.138 -0.05,-9.398 -0.118,-9.466 -0.067,-0.068 -1.12,0.38 -2.342,0.997 -4.198,1.838 -8.21,4.372 -11.287,6.427 -1.363,0.913 -1.5,1.42 -0.988,3.73 0.288,1.298 0.217,1.437 -0.85,1.698 -2.2,0.538 -2.886,4.04 -1.027,5.228 0.872,0.557 0.875,0.586 0.313,1.853 -0.87,1.96 -0.837,5.708 0.063,7.272 0.513,0.893 0.48,1.18 -0.2,1.623 -2.343,1.525 -2.184,4.786 0.263,5.395 0.625,0.156 0.79,0.424 0.582,0.96 -0.765,1.973 -0.068,4.974 1.687,7.246 0.912,1.182 0.91,1.17 0.308,1.713 -1.97,1.78 -0.903,4.97 1.78,5.32 0.92,0.12 0.925,0.122 1.032,0.827 0.307,2.024 0.447,2.59 0.895,3.54 0.564,1.2 1.242,2.01 2.513,2.998 1.037,0.806 1.038,0.818 0.484,2.01 -1.023,2.203 0.604,4.388 3.198,4.298 1.323,-0.046 1.324,-0.05 1.42,0.42 0.465,2.3 3.198,5 5.44,5.37 1.155,0.19 1.337,0.465 0.945,1.443 -0.63,1.572 -0.222,2.586 1.37,3.402 1.066,0.548 1.378,0.568 2.547,0.167 1.322,-0.455 1.336,-0.448 2.46,1.055 1.584,2.12 2.634,2.65 5.277,2.67 1.743,0.012 1.81,0.057 1.82,1.286 0.026,2.91 3.103,4.123 5.086,2.006 0.714,-0.763 0.713,-0.76 1.35,-0.293 2.788,2.043 5.26,2.57 5.03,0.66 -0.538,-4.474 -3.774,-7.203 -3.774,-7.203 l 4.044,1.056 c 0.178,4.723 0.346,10.42 1.33,14.357 l -18.025,28.71 c 0,0 -1.092,-0.667 -2.244,-1.46 -1.694,-1.17 -3.77,-2.545 -5.04,-3.34 -0.653,-0.41 -1.484,-0.907 -2.138,-1.46 -0.628,-0.522 0.387,-1.21 0.6,-1.764 4.152,-7.412 10.648,-16.32 15.376,-24.98 l -4.577,-1.77 c -3.502,5.513 -6.08,9.95 -9.34,15.032 -3.247,-23.82 -19.87,-44.73 -39.983,-53.538 l 0.07,6.235 c 21.112,10.8 36.18,33.09 35.78,59.38 -0.082,0.1 -1.767,-0.91 -4.044,-2.425 -1.2,-0.8 -3.617,-2.38 -3.917,-2.533 0.977,-29.116 -27.898,-46.33 -27.947,-45.518 l -0.265,5.507 c 12.306,8.245 21.972,23.242 22.95,36.59 0.012,0.108 -5.774,-3.61 -5.774,-3.61 3.443,-1.714 2.495,-6.156 0.015,-7.36 -0.776,-0.348 -0.82,-0.516 -0.435,-1.565 0.794,-2.15 -0.66,-5.388 -2.665,-5.93 -0.878,-0.24 -1.023,-0.47 -1.066,-1.703 -0.078,-2.255 -1.326,-3.73 -3.575,-4.225 -0.62,-0.137 -0.627,-0.142 -0.66,-0.92 -0.19,-4.37 -4.463,-6.148 -7.67,-3.193 -0.357,0.33 -0.732,0.96 -0.732,0.96 l -0.025,4.737 c 1.095,-0.6 2.756,-2.66 3.438,-2.576 0.755,0.088 0.39,0.595 -1.305,2.06 -1.098,0.95 -2.166,1.95 -2.166,1.95 l 0.068,6.24 c 1.825,-1.185 3.653,-2.525 5.364,-3.717 1.475,-1.028 2.23,-1.363 2.41,-1.066 0.205,0.335 -0.125,0.77 -0.962,1.273 -2.248,1.497 -4.863,3.254 -6.754,4.733 l -0.01,4.3 0.363,0.532 0.108,3.765 -0.337,0.083 0.01,4.744 44.408,28.368 22.598,-35.65 0.37,0.377 -22.6,35.498 c 0,0 0.928,0.8 1.808,1.262 0.897,0.502 2.02,1.17 2.978,1.81 0.453,0.74 1.245,1.393 2.093,1.3 0.778,-0.85 4.173,-1.748 4.5,-2.14 12.643,-0.186 48.936,0.06 48.936,0.06 l 0.204,5.806 c -1.63,-5.628 -6.892,-6.79 -11.027,-4.268 l -6.793,0.01 c -0.052,0 -4.02,7.23 -4.602,11.003 -2.854,-0.388 -6.653,2.394 -6.846,5.217 -0.462,4.018 2.178,6.948 5.63,6.377 0.062,0.024 -0.543,3.98 -2.495,7.07 -2.59,5.455 -3.924,8.507 -5.506,13.16 -1.07,2.924 -0.705,3.443 -0.523,3.516 10.134,-0.146 19.457,-1.128 29.073,-4.23 0,0 -0.178,-0.685 -0.264,-1.07 -0.348,-1.558 0.96,-4.745 4.66,-11.327 2.856,-5.084 3.674,-7.024 3.96,-9.424 0.146,-1.215 0.12,-1.53 -0.302,-3.795 -0.027,-0.21 -0.192,-0.514 -0.147,-0.742 0.3,-1.526 2.622,-4.207 2.676,-4.142 0,0 0.842,-0.157 1.178,-0.186 5.24,-0.368 6.862,-7.488 2.44,-10.7 -2.154,-1.32 -3.423,-1.42 -5.706,-0.82 l -0.04,-27.616 3.185,0.12 3.5,-1.73 c 5.624,4.804 9.292,9.713 15.346,13.41 l -0.1,0.244 -4.498,-3.085 0.01,18.093 c 5.208,-2.71 10.062,-5.21 14.744,-9.002 l -0.944,-0.817 0.04,-2.587 c 4.398,0.347 4.822,-5.254 1.207,-5.922 0,0 0.082,-0.45 0.43,-1.164 1.11,-2.276 1.247,-4.42 0.44,-6.787 -0.493,-1.445 -0.472,-1.808 0.112,-1.805 2.672,0.015 2.427,-4.728 -0.298,-5.766 -0.938,-0.357 -0.872,-0.06 -0.68,-3.002 0.144,-2.21 -0.395,-3.71 -2.03,-5.648 -0.617,-0.732 -0.564,-1.085 0.23,-1.57 2.28,-1.393 0.628,-5.413 -2.176,-5.296 -1.095,0.046 -1.093,0.044 -1.188,-1.05 -0.25,-2.882 -1.858,-5.63 -3.966,-6.78 -0.653,-0.356 -0.75,-0.647 -0.38,-1.14 1.793,-2.4 0.115,-5.68 -2.417,-4.723 -0.49,0.186 -1.01,0.373 -1.15,0.416 -0.2,0.062 -0.36,-0.218 -0.748,-1.306 -1.054,-2.962 -1.99,-3.89 -5.34,-5.3 -0.66,-0.278 -0.7,-0.473 -0.402,-1.825 0.514,-2.333 -2.7,-4.504 -4.435,-2.997 -0.707,0.613 -0.73,0.608 -1.526,-0.41 -1.585,-1.825 -4.165,-3.096 -6.46,-3.336 -1.098,-0.1 -1.263,-0.186 -1.173,-0.608 0.61,-2.858 -2.172,-4.72 -4.485,-3.002 -1.11,0.825 -1.398,0.85 -2.54,0.21 -2.395,-1.345 -3.446,-1.395 -3.696,-0.18 -0.077,1.01 0.146,2.208 0.39,2.953 0.585,2.008 1.34,2.753 2.994,4.166 0,0 -2.745,-0.762 -3.438,-0.9 0.07,-0.072 -0.2,-9.53 -2,-14.886 l 17.55,-27.933 10.055,6.632 -16.078,25.434 4.68,1.902 c 0,0 6.25,-10.382 9.52,-15.472 2.143,25.28 21.687,47.45 39.39,54.026 -0.06,0.03 0.058,-3.634 0.133,-5.408 -18.68,-8.224 -36.446,-31.207 -35.327,-58.79 l 7.502,4.802 c 2.178,22.108 11.808,35.063 27.86,46.017 l 0,-6.773 c -11.055,-8.18 -20.24,-18.867 -22.676,-35.967 0,0 3.747,2.368 5.427,3.49 0,0 -0.474,0.272 -0.72,0.476 -2.005,1.668 -1.402,5.092 1.243,7.03 0.43,0.316 0.434,0.316 0.03,1.394 -0.803,2.14 0.434,4.726 2.523,5.267 1.198,0.312 1.19,0.297 1.212,1.67 0.043,2.662 1.116,3.89 3.96,4.527 0.39,0.087 0.404,0.127 0.398,1.32 -0.016,2.944 2.812,4.925 5.276,3.692 0.77,-0.386 3.197,-2.416 3.197,-2.416 l 0,-4.74 c 0,0 -1.098,0.9 -1.892,1.64 -1.39,1.294 -1.828,1.455 -1.824,0.664 0,-0.573 0.643,-1.325 1.976,-2.318 0.692,-0.514 1.74,-1.613 1.74,-1.613 l 0,-5.52 c 0,0 -0.62,-0.985 -0.58,-2.163 0.02,-0.64 0.2,-1.614 0.2,-1.614 l 0.665,0.015 -0.01,-6.39 -0.806,-0.632 0.035,-4.235 -43.91,-28.412 -22.872,36.373 -0.572,-0.67 22.896,-36.144 -6.084,-3.888 -3.672,1.81 c 0,0 -25.416,-0.4 -50.203,-0.084 0,0 -0.06,-0.684 -0.05,-2.616 0.014,-2.43 0.126,-2.77 0.573,-1.746 1.003,2.297 3.493,3.682 6.382,3.55 1.632,-0.074 1.86,-0.14 3.672,-1.12 0.675,-0.363 0.797,-0.374 3.976,-0.35 3.408,0.023 4.02,-0.102 4.025,-0.823 1.187,-2.7 2.356,-5.832 3.033,-8.187 0.326,-1.142 0.47,-1.645 0.738,-1.878 0.208,-0.18 0.37,-0.14 0.867,-0.17 2.18,-0.142 2.787,-0.282 4.357,-1.815 3.15,-3.164 1.343,-9.6 -3.218,-9.624 -1.208,-0.007 -0.38,-3.22 2.17,-8.436 2.642,-5.395 3.013,-6.223 4.378,-9.84 0.893,-2.363 1.32,-4.058 1.428,-5.09 l -0.768,0 z m -0.24,1.56 c 0.632,0.53 -0.946,4.427 -3.79,10.323 -2.346,4.868 -3.396,7.303 -3.897,9.067 l -0.46,1.628 c -0.153,0.544 -0.355,0.813 -0.894,1.198 -0.383,0.274 -0.917,0.678 -1.19,0.895 -0.768,0.618 -0.95,0.422 -0.76,-0.82 0.348,-2.306 1.262,-4.793 3.373,-9.12 1.672,-3.445 3.31,-7.136 4.582,-10.9 0.286,-0.88 0.42,-1.773 0.895,-2.1 0.683,-0.382 1.407,-0.306 2.142,-0.17 z m -3.422,0.225 c 0.435,0.3 -1.63,5.638 -5.204,13.047 -4.46,9.245 -4.696,15.722 -0.684,17.307 3.162,1.248 6.348,-2.237 4.396,-4.78 -0.938,-1.22 -2.96,-1.324 -3.663,-0.058 -0.382,0.69 0.15,1.488 0.827,0.52 0.986,-1.412 2.962,0.217 2.484,1.886 -0.327,1.145 -1.93,2.067 -2.924,1.868 -4.382,-0.874 -3.557,-7.054 0.987,-7.394 4.35,-0.325 6.327,5.514 3.17,8.856 -1,1.083 -2.174,1.622 -4.215,1.62 -2.83,-0.005 -5.476,-2.343 -5.208,-4.51 0.374,-1.983 0.43,-3.586 -0.24,-5.15 -0.215,-0.5 -0.48,-1 -0.464,-1.632 0.04,-1.757 1.487,-4.485 4.714,-11.223 1.156,-2.415 2.575,-6.6 3.276,-9.243 0.248,-0.773 0.126,-0.99 0.416,-1.097 0.72,-0.16 1.752,-0.376 2.332,-0.018 z m -3.732,0.093 c 0.662,0.03 -0.862,4.89 -2.782,9.032 -1.458,3.172 -3.45,7.246 -4.93,11.013 -0.473,0.8 -0.79,0.86 -1.76,0.342 -1.07,-0.57 -0.753,-1.48 1.77,-6.5 1.903,-3.81 3.73,-8.122 5.013,-12.464 0.117,-0.52 0.292,-0.97 0.724,-1.22 0.66,-0.29 1.3,-0.23 1.966,-0.202 z m -3.55,0.548 c 0.353,0.467 -1.96,7.02 -5.536,14.41 -0.764,1.57 -1.28,3.005 -2.05,4.608 -0.368,0.37 -1.79,0.56 -2.502,0.704 -0.735,-0.098 -0.04,-1.476 2.053,-5.707 1.706,-3.448 2.19,-4.424 3.086,-6.522 0.654,-1.537 1.604,-4.176 2.495,-6.64 0.072,-0.2 0.14,-0.643 0.333,-0.745 0.664,-0.28 1.472,-0.394 2.122,-0.107 z m -3.492,0.41 c 0.058,0.158 -0.073,0.484 -0.122,0.734 -0.562,2.638 -1.848,5.093 -2.787,7.614 -0.114,0.344 -1.143,2.49 -2.29,4.768 -1.146,2.278 -2.198,4.453 -2.337,4.837 -0.14,0.382 -0.52,1.4 -0.846,2.258 -2.06,4.415 0.155,7.895 2.88,8.138 4.252,0.352 4.654,-5.608 1.654,-6.18 -1.13,-0.192 -2.374,0.43 -2.38,1.73 -0.08,0.68 0.756,1.47 0.744,0.493 -0.045,-1.777 2.437,-1.695 2.742,-0.187 0.596,2.94 -2.744,4.377 -4.735,2.07 -0.818,-0.952 -0.81,-2.036 -0.66,-3.01 0.414,-2.63 3.446,-4.532 6.256,-2.547 3.844,2.717 2.517,8.725 -2.45,9.703 -1.698,0.44 -3.84,-0.125 -5.18,-1.503 -0.852,-0.877 -1.413,-2.17 -1.627,-3.775 -0.12,-0.893 -0.168,-1.945 -0.03,-2.93 0.402,-3.084 2.652,-7.588 4.625,-11.403 1.524,-3.166 2.72,-7.347 4.108,-10.71 0.392,-0.287 2.494,-0.552 2.435,-0.103 z m -3.75,0.42 c 0.226,0.07 -0.935,3.725 -2.592,7.674 -1.823,4.005 -4.19,8.587 -5.53,12.53 -0.423,0.966 -0.73,0.937 -1.933,-0.182 -0.634,-0.59 -0.277,-1.47 1.947,-6.01 3.42,-6.983 4.69,-9.962 5.203,-11.624 0.24,-0.782 0.435,-1.74 0.95,-2.045 0.656,-0.31 1.302,-0.54 1.955,-0.343 z m -3.42,0.877 c -0.36,1.175 -1.546,4.66 -3.573,8.787 -1.272,2.606 -2.515,5.492 -3.77,8.18 -0.702,1.66 -0.722,1.66 -1.918,1.91 -2.015,0.42 -2.015,0.397 -0.234,-3.214 0.53,-1.073 1.546,-3.044 2.264,-4.377 1.322,-2.457 3.366,-7.24 4.108,-9.625 0.198,-0.638 0.474,-1.238 0.797,-1.565 0.207,-0.11 1.794,-0.584 2.327,-0.097 z m -4.405,0.44 c 0.36,-0.013 0.684,0.05 0.837,0.25 0.09,0.82 -2.126,6.063 -3.487,8.493 -0.416,0.745 -0.828,1.71 -1.296,2.573 -1.735,2.758 -3.82,8.062 -4.357,10.263 -0.854,3.497 3.143,6.14 5.216,3.598 1.315,-1.538 -0.054,-4.307 -1.95,-3.533 -0.662,0.27 -0.39,0.565 0.513,0.64 1.492,0.126 1.605,2.428 0.023,2.933 -1.758,0.54 -3.054,-0.986 -3.047,-2.548 0.013,-3.202 3.516,-4.378 5.708,-2.63 2.187,1.823 2.536,6.152 -0.777,7.83 -3.23,1.635 -7.206,-0.582 -8.005,-4.46 -0.61,-2.96 0.05,-5.672 2.9,-10.235 1.637,-2.627 4.18,-7.16 5.482,-11.14 0.255,-0.674 0.48,-1.233 0.714,-1.516 0.217,-0.25 0.925,-0.496 1.525,-0.517 z m -77.827,0.802 c 0,0 -1.288,2.47 -3.066,5.433 -2.17,3.664 -5.364,7.282 -5.834,11.38 -0.127,1.166 0.067,2.337 0.303,3.055 0.99,3.015 5.308,3.47 6.816,0.93 0.452,-0.764 0.605,-0.905 1.046,-0.665 0.19,0.102 0.27,0.4 0.26,0.816 -0.375,2.705 -1.418,4.192 -2.915,6.225 l 7.203,0 c -1.516,-1.67 -2.803,-3.973 -2.958,-6.304 -0.047,-0.955 0.536,-1.035 1.408,0.01 2.81,3.883 7.227,-0.48 6.866,-4.103 -0.402,-4.032 -4.62,-9.248 -5.78,-11.296 -1.757,-2.6 -3.35,-5.482 -3.35,-5.482 z m 164.408,8.513 -4.337,5.517 c 1.25,1.808 4.225,5.364 4.225,5.364 l 4.112,-5.312 z m 0.04,3.086 1.794,2.328 -2.054,2.425 -1.927,-2.264 z m 0.16,11.99 c 0,0 -5.243,5.747 -4.04,10.01 1.078,3.8 6.792,4.723 8.183,-0.835 0.098,-0.444 0.02,-1.042 -0.04,-1.786 -0.12,-2.264 -4.102,-7.39 -4.102,-7.39 z m 0,1.135 c 0,0 1.507,2.183 2.568,4.117 1.188,1.84 1.5,6.982 -2.72,6.822 -2.286,0.235 -4.468,-2.78 -2.65,-6.466 0.496,-1.123 2.803,-4.475 2.803,-4.475 z m -86.556,0.924 c 0.292,-0.046 0.585,0.584 0.768,1.04 0.25,0.623 -0.464,2.415 -1.218,3.307 -0.143,0.15 -1.106,0.234 -2.538,0.964 0,-0.67 0.406,-2.14 0.675,-2.792 0.976,-0.965 1.805,-2.113 2.19,-2.455 0.042,-0.036 0.082,-0.057 0.123,-0.063 z m -10.45,0.322 c 0.644,0.73 1.278,1.363 1.252,1.815 -0.038,0.66 -0.816,1.48 -1.404,2.06 -0.738,0.73 -2.21,0.295 -2.205,-0.65 0,-0.35 2.105,-3.225 2.358,-3.224 z m 22.197,0.95 c 0.622,0.333 1.253,1.47 1.335,1.985 -0.913,4.915 -4.29,10.92 -4.177,10.695 0,0 -2.07,0.37 -2.948,-0.078 2.275,-3.158 3.797,-7.175 4.83,-10.465 0.445,-1.42 0.646,-2.133 0.96,-2.137 z m -1.917,0.69 c 0.348,-0.02 0.482,0.26 0.19,1.02 -1.336,5.435 -4.342,11.147 -6.704,12.187 -3.102,1.366 -6.187,0.232 -7.51,-2.103 -1.436,-2.527 -1.18,-6.516 3.598,-7.39 2.81,-0.287 5.69,1.93 4.19,5.493 -1.67,2.644 -6.156,1.17 -4.84,-2.24 0.993,-1.25 3.075,-0.166 2.396,1.247 -0.345,0.717 -0.012,1.157 0.498,0.66 1.637,-1.593 -1.055,-4.326 -2.87,-2.958 -2.96,2.23 0.695,7.136 4.142,5.032 1.05,-0.642 2.95,-4.24 3.663,-6.86 0.307,-1.13 0.584,-2.2 1.31,-2.886 0.693,-0.652 1.49,-1.178 1.938,-1.203 z m -7.85,0.214 c 0.17,0.006 0.37,0.09 0.64,0.225 0.347,0.17 0.753,0.48 0.706,0.88 -0.055,0.463 -0.32,1.468 -0.85,1.956 -0.322,-0.11 -1.207,-0.462 -1.81,-0.625 -0.38,-0.102 0.125,-0.918 0.356,-1.37 0.374,-0.726 0.58,-1.03 0.885,-1.06 0.023,-0.002 0.05,-0.006 0.074,-0.005 z m -9.765,0.186 c 0.446,-0.01 1.153,0.486 1.62,0.552 0.088,0.675 -0.77,2.12 -2.168,3.824 -1.146,1.4 -1.14,1.402 -1.902,-0.137 -0.496,-1 -0.51,-0.974 0.905,-2.733 0.76,-0.946 1.126,-1.38 1.457,-1.497 0.027,-0.005 0.058,-0.01 0.088,-0.01 z m 4.436,0.494 c 0.02,0.36 -0.164,1.156 -0.32,1.618 -1.584,4.735 -5.287,9.425 -8.342,10.578 -3.987,1.303 -7.64,-0.797 -7.73,-5.64 0.1,-5.703 6.89,-7.284 8.943,-2.082 0.927,2.35 -1.597,5.88 -3.78,5.29 -2.2,-0.593 -3.12,-4.03 -1.305,-4.88 1.19,-0.556 2.42,0.377 2.16,1.64 -0.09,0.437 -0.064,0.497 0.192,0.45 1.132,-0.213 0.534,-2.486 -0.802,-3.052 -2.525,-1.072 -4.433,2.33 -2.73,4.865 2.04,3.036 5.25,2.454 7.097,-1.29 0.315,-0.638 0.913,-1.553 1.325,-2.03 1.12,-1.295 1.476,-1.805 2.465,-3.516 0.545,-0.942 0.837,-1.538 1.115,-1.848 0.443,-0.03 0.746,0.093 1.712,-0.102 z m 8.943,0.25 c 0.478,0.003 0.847,0.314 0.836,0.977 -0.01,0.555 -0.804,2.893 -1.175,3.452 -0.142,0.214 -0.474,0.966 -0.523,0.8 -0.466,-1.554 -1.3,-2.035 -1.418,-2.444 -0.14,-0.478 0.282,-0.938 0.47,-1.37 0.398,-0.915 1.194,-1.422 1.81,-1.417 z m 8.43,0.737 c 0.58,-0.004 1.397,0.26 1.565,0.69 0.528,0.926 -3.043,9.55 -3.173,9.575 l -2.666,-0.117 c 1.6,-3.44 3.015,-6.846 4.044,-10.128 0.07,-0.012 0.147,-0.02 0.23,-0.02 z m 35.757,13.65 3.39,2.014 -22.34,35.5 -3.246,-2.486 z m -55.733,0.732 c 20.865,0.077 49.6,0.04 49.6,0.04 l -1.212,2.302 c 0,0 -31.386,-0.306 -48.388,-0.274 z m -28.168,1.452 -0.045,11.668 c 0,0 -0.156,-0.07 -2.146,-1.394 -2.39,-1.59 -5.01,-3.23 -5.855,-3.658 -1.244,-0.632 -1.08,-0.937 1.31,-2.46 2.35,-1.413 6.734,-4.156 6.734,-4.156 z m 89.338,1.16 2.098,1.324 -23.473,37.36 -1.305,-2.56 z m -61.166,0.517 3.266,0 0,3.69 -3.266,0 z m 7.482,0 3.966,0 0,3.69 -3.966,0 z m 8.665,0.038 4.078,0 0,3.692 -4.08,0 z m 8.503,0.015 4.123,0 0,3.692 -4.123,0 z m 8.568,0.024 4.07,0 0,3.693 -4.07,0 z m 8.573,0.08 4.162,0 0,2.6 -0.63,1.09 -3.532,0 z m 22.432,1.202 39.81,25.755 -0.024,3.555 -41.443,-26.783 z m -2.612,3.01 0.343,0.246 -1.687,2.582 -0.35,-0.196 z m -61.5,0.382 44.688,0 -1.344,2.265 -43.342,-0.064 z m -36.685,1.155 c 0.3,-0.02 0.887,0.245 1.8,0.758 2.197,1.232 3.58,3.833 2.63,4.772 -0.844,0.836 -2.822,-0.954 -4.05,-3.51 -0.65,-1.356 -0.82,-1.992 -0.38,-2.02 z m 79.07,2.23 -14.417,23.042 c -3.258,-4.467 -6.91,-8.326 -14.89,-5.713 -4.16,-3.216 -8.556,-3.712 -13.237,-0.983 l 0.054,-16.27 z m -74.214,0.01 1.125,0.972 c -0.333,0.634 -0.486,1.552 -0.7,2.37 -0.017,-1.122 -0.115,-2.24 -0.426,-3.344 z m 91.393,0.24 44.418,29.223 0,2.71 -45.968,-29.616 z m -97.286,0.664 c 0.576,-0.01 1.138,0.235 1.56,0.744 0.673,0.808 0.396,2.287 -0.546,2.92 -1.878,1.26 -4.13,-1.178 -2.64,-2.856 0.466,-0.526 1.053,-0.796 1.627,-0.807 z m 7.356,0.348 2.426,1.942 c -4.21,24.01 7.817,48.25 33.723,55.513 l 0.293,3.076 c 0.05,0.146 -11.006,-3.284 -15.835,-6.896 -6.6,-4.466 -12.18,-10.755 -16.025,-18.07 -2.623,-4.716 -4.063,-9.91 -4.993,-14.108 -1.1,-7.2 -1.068,-14.33 0.41,-21.458 z m -2.753,3.257 c 0.93,0.038 1.03,0.708 0.284,1.995 -0.96,1.655 -2.4,2.808 -4.734,3.79 -1.286,0.54 -1.62,0.296 -1.472,-1.076 0.225,-2.062 1.66,-3.57 4.143,-4.367 0.596,-0.165 1.2,-0.346 1.78,-0.342 z m 7.14,0.26 c 0.38,0.32 0.498,0.422 0.963,0.816 -0.796,0.274 -1.37,1.025 -1.37,1.913 0,1.118 0.907,2.024 2.025,2.024 1.003,0 1.83,-0.726 1.992,-1.682 0.362,0.31 0.702,0.6 0.968,0.832 -0.467,1.177 -1.615,2.01 -2.96,2.01 -1.756,0 -3.182,-1.427 -3.182,-3.184 0,-1.165 0.63,-2.175 1.565,-2.73 z m 1.618,1.593 c 0.112,0 0.218,0.02 0.32,0.05 l 0.703,0.6 c 0.07,0.15 0.113,0.31 0.113,0.485 0,0.626 -0.508,1.134 -1.135,1.134 -0.625,0 -1.133,-0.508 -1.133,-1.134 0,-0.626 0.508,-1.135 1.134,-1.135 z m -7.642,0.734 c -0.264,3.096 -0.18,6.334 -0.083,9.575 -0.598,-2.568 -1.932,-4.49 -4.152,-5.805 1.533,-1.06 3.137,-2.348 4.235,-3.77 z m 11.673,2.43 2.157,1.864 c -1.854,25.416 20.42,35.06 21.02,34.637 l 0.937,2.875 c -15.38,-5.234 -26.013,-21.132 -24.113,-39.376 z m 124.07,60.934 -0.112,3.2 c -17.454,-6.77 -37.346,-31.757 -37.093,-55.698 -4.48,6.87 -7,11.455 -10.846,17.644 l -3.063,-1.458 c 5.036,-7.502 9.823,-15.527 14.874,-22.897 0.575,-0.832 1.047,-1.214 1.073,0.606 0,8.237 2.55,42.126 35.167,58.603 z m -141.913,-58.948 c 0.56,-0.036 1.364,0.236 2.376,0.914 1.597,1.07 3.387,4.378 2.768,5.115 -0.556,0.664 -2.922,-0.126 -4.097,-1.37 -2.328,-2.463 -2.48,-4.568 -1.046,-4.66 z m 13.61,0.332 c 1.756,0 3.182,1.422 3.182,3.18 0,1.756 -1.427,3.182 -3.184,3.182 -1.757,0 -3.184,-1.426 -3.184,-3.183 0,-1.758 1.427,-3.18 3.184,-3.18 z m 7.124,0.303 2.08,2.436 c 0.406,21.33 17.243,27.908 17.086,27.96 l 0.508,2.294 c -0.938,0.132 -20.832,-8.924 -19.673,-32.69 z m -7.124,0.85 c -1.118,0 -2.025,0.908 -2.025,2.026 0,1.117 0.908,2.023 2.026,2.023 1.118,0 2.025,-0.906 2.025,-2.024 0,-1.12 -0.906,-2.026 -2.024,-2.026 z m 0,0.89 c 0.626,0 1.134,0.51 1.134,1.136 0,0.625 -0.508,1.133 -1.134,1.133 -0.626,0 -1.135,-0.508 -1.135,-1.134 0,-0.627 0.51,-1.136 1.136,-1.136 z m 10.758,1.933 c 0.256,0 1.458,1.746 1.458,1.746 0,0 -1.32,0.462 -1.888,-0.113 -0.565,-0.572 -0.26,-1.638 0.43,-1.634 z m 92.195,0.787 3.12,2.132 c 1.456,14.392 9.7,27.52 22.132,36.628 l -0.078,3.565 c -15.143,-10.232 -23.55,-24.134 -25.175,-42.325 z m -116.896,0.245 c 0.05,-0.003 0.102,0 0.152,0 1.908,0.032 2.717,2.964 0.674,3.804 -1.284,0.53 -2.68,-0.234 -2.816,-1.54 -0.096,-0.92 0.587,-1.903 1.516,-2.176 0.164,-0.048 0.32,-0.08 0.474,-0.088 z m 26.035,1.922 c 0.5,0 1.044,0.288 1.56,0.87 1.368,1.544 1.355,1.992 -0.09,2.577 -2.03,0.824 -3.717,-0.32 -3.04,-2.063 0.355,-0.916 0.926,-1.385 1.57,-1.384 z m -20.79,0.073 c 0.166,-0.003 0.32,0.018 0.46,0.073 1.498,0.584 -1.747,6.528 -3.892,7.13 -1.362,0.383 -1.648,-0.15 -1.203,-2.235 0.495,-2.317 3.042,-4.934 4.636,-4.967 z m 9.547,0.137 c 1.757,0 3.183,1.422 3.183,3.18 0,1.756 -1.426,3.182 -3.183,3.182 -1.757,0 -3.184,-1.426 -3.184,-3.183 0,-1.758 1.427,-3.18 3.184,-3.18 z m 0,1.154 c -1.118,0 -2.025,0.906 -2.025,2.025 0,1.117 0.907,2.023 2.025,2.023 1.118,0 2.024,-0.906 2.024,-2.024 0,-1.12 -0.905,-2.026 -2.023,-2.026 z m -7.956,0.17 c 0.283,2.945 0.762,5.668 2.07,9.293 -1.227,-1.96 -2.975,-2.934 -4.652,-4.045 1.175,-1.75 2.535,-3.498 2.583,-5.247 z m 7.957,0.72 c 0.626,0 1.134,0.508 1.134,1.135 0,0.625 -0.507,1.133 -1.133,1.133 -0.626,0 -1.135,-0.508 -1.135,-1.134 0,-0.628 0.51,-1.136 1.135,-1.136 z m 18.015,0.347 c 3.32,-0.07 5.667,2.664 5.52,5.283 0.098,3.04 0.208,4.99 -0.043,8.768 l -2.695,-4.933 c -0.038,-1.4 0.2,-2.457 0.093,-3.85 -0.306,-3.74 -3.973,-3.22 -4.147,-2.85 l -1.158,-1.883 c 0.85,-0.35 1.664,-0.516 2.43,-0.533 z m 11.693,0.378 c 3.11,-0.004 4.912,1.748 5.007,4.866 0.182,5.968 -0.137,19.595 -0.137,19.595 l -6.728,0.003 -3.673,-9.105 c 0,0 -0.146,-0.876 -0.117,-1.51 0.233,-2.92 0.087,-6.17 0.185,-8.808 0.388,-2.796 2.686,-5.04 5.463,-5.042 z m -15.57,0.944 c 0.432,-0.006 0.834,0.126 1.14,0.435 1.56,1.578 1.55,2.613 -0.03,3.325 -2.092,0.942 -3.18,0.764 -3.893,-0.636 -0.7,-1.37 1.237,-3.105 2.782,-3.124 z m 98.097,0.43 1.706,1.1 c 0,0 -0.358,0.562 -0.552,0.895 -0.97,1.667 0.678,2.645 2.958,1.76 0.412,-0.16 0.763,-0.386 0.763,-0.386 l 1.41,0.96 c 0,0 -1.017,0.548 -2.124,1.09 -2.846,1.393 -4.892,0.802 -5.58,-1.61 -0.272,-0.955 0,-2.154 0.534,-2.854 0.272,-0.36 0.885,-0.954 0.885,-0.954 z m -72.18,0.2 c 2.605,-0.088 5.14,1.946 5.742,4.68 0.25,1.28 -0.074,18.21 -0.074,18.21 l -10.333,-0.003 0.18,-17.763 c -0.067,-1.123 0,-2.234 0.603,-3.032 1.135,-1.414 2.518,-2.046 3.882,-2.093 z m -10.73,0.778 c -2.086,0.096 -3.27,3.477 -1.123,5.07 0.896,0.667 0.914,0.792 0.434,3.043 -0.548,2.567 0.02,6.085 1.3,8.064 0.983,1.64 0.783,0.8 0.28,-0.66 -0.647,-2.74 -0.33,-4.753 1.25,-7.937 1.415,-2.682 2.784,-6.806 -1.71,-7.55 -0.147,-0.025 -0.292,-0.036 -0.43,-0.03 z m 85.756,0.773 0.934,0.63 c 0,0 -0.14,0.117 -0.342,0.313 -0.374,0.362 -1.117,0.42 -1.345,0.142 -0.378,-0.46 0.753,-1.085 0.753,-1.085 z m -74.44,1.31 c -2.242,-0.075 -3.72,4.085 -0.85,5.09 0.652,0.422 0.762,0.973 0.357,1.752 -0.543,1.045 -1.087,3.53 -1.002,4.567 0.122,1.49 0.502,3.433 0.802,4.108 0.753,1.86 0.602,1.116 0.406,-1.032 -0.075,-2.4 0.41,-4.132 1.805,-6.426 1.66,-2.75 3.943,-7.224 -1.296,-8.04 -0.075,-0.01 -0.148,-0.016 -0.22,-0.02 z m -38.592,0.015 c 1.757,0 3.183,1.422 3.183,3.18 0,1.755 -1.427,3.182 -3.184,3.182 -1.757,0 -3.184,-1.427 -3.184,-3.183 0,-1.757 1.427,-3.18 3.184,-3.18 z m 14.754,0.323 c 0.55,-0.005 0.962,0.36 1.462,1.106 1.374,2.05 1.216,2.47 -1.433,3.927 -2.808,1.544 -4.686,-2.34 -2,-4.137 0.81,-0.544 1.386,-0.845 1.857,-0.89 0.038,-0.004 0.076,-0.005 0.113,-0.005 z m -29.136,0.152 c 2.96,0.03 7.586,4.258 5.33,4.87 -0.322,0.09 -0.728,0.148 -0.9,0.138 -3.72,-0.227 -7.98,-5.044 -4.43,-5.008 z m 14.382,0.68 c -1.118,0 -2.025,0.906 -2.025,2.025 0,1.118 0.908,2.024 2.026,2.024 1.118,0 2.024,-0.905 2.024,-2.023 0,-1.12 -0.906,-2.025 -2.024,-2.025 z m 117.267,0.597 1.477,1 c 0,0 -0.903,0.416 -1.966,0.984 -2.888,1.542 -3.727,2.674 -2.73,3.682 0.357,0.36 0.78,0.517 1.537,0.23 2.002,-0.777 3.87,-2.146 5.737,-3.227 l 1.11,0.762 c -0.026,-0.05 -4.415,3.12 -6.812,4.454 -3.764,1.933 -5.913,-2.017 -3.82,-4.655 1.616,-1.605 3.346,-2.132 5.468,-3.23 z m -117.267,0.292 c 0.626,0 1.134,0.508 1.134,1.135 0,0.626 -0.508,1.134 -1.134,1.134 -0.627,0 -1.135,-0.507 -1.135,-1.133 0,-0.627 0.51,-1.135 1.136,-1.135 z m 119.575,1.06 0.808,0.544 c 0,0 -0.087,0.04 -2.553,1.457 -2.683,1.54 -2.8,1.568 -2.95,1.326 -0.13,-0.075 0.053,-0.704 0.877,-1.258 1.443,-0.97 3.997,-2.15 3.82,-2.07 z m -69.797,0.08 c 1.828,-0.036 3.69,0.832 4.753,2.69 0.542,1.41 0.59,2.72 0.582,4.2 l -0.044,9.94 -10.406,0 c 0,0 -0.483,-6.775 0,-12.415 0.472,-2.833 2.766,-4.37 5.115,-4.416 z m -32.32,1.47 c 0.662,-0.047 1.148,0.6 1.776,2.006 0.62,1.392 0.153,2.18 -1.8,3.022 -0.247,0.107 -0.53,0.186 -0.627,0.177 -1.975,-0.19 -2.783,-2.466 -1.364,-3.85 0.88,-0.856 1.5,-1.316 2.014,-1.354 z m 105.766,1.02 0.904,0.56 c 0,0 -0.464,0.42 -3.824,2.87 -2.714,1.98 -3.105,2.52 -2.538,3.63 0.457,0.897 1.45,0.78 2.82,-0.274 1.903,-1.462 4.896,-3.936 4.896,-3.936 l 0.098,1.692 c -1.97,1.582 -4.347,4.283 -6.24,5.31 -3.652,1.8 -6.272,-3.14 -2.934,-5.575 2.877,-2.1 6.817,-4.28 6.817,-4.28 z m -73.05,0.003 c -2.72,-0.022 -3.733,4.015 -0.808,4.87 0.842,0.452 0.772,0.685 0.21,2.696 -0.34,1.218 -0.45,2.72 -0.263,3.673 0.217,1.216 0.487,1.188 0.375,-0.117 0,-0.714 0.74,-2.62 1.472,-3.815 2.713,-3.78 2,-7.268 -0.988,-7.305 z m -63.378,0.05 c 1.795,0.012 2.8,2.51 1.242,3.59 -1.102,0.762 -3.41,-0.17 -3.403,-1.375 0.01,-1.028 0.816,-2.007 1.796,-2.18 0.126,-0.024 0.247,-0.037 0.366,-0.036 z m 5.164,0.21 c 0.565,-0.002 0.89,0.826 0.885,2.464 -0.01,2.35 -0.84,4.397 -2.277,5.594 -2.082,1.732 -2.547,-2.99 -0.602,-6.113 0.81,-1.3 1.498,-1.945 1.996,-1.945 z m 133.17,0.62 c 0.513,-0.007 0.433,0.385 -0.16,0.798 -0.462,0.32 -1.245,0.962 -3.67,3.007 -0.44,0.37 -1.07,0.856 -1.397,1.076 -0.81,0.54 -1.493,0.4 -1.102,-0.225 0.385,-0.614 5.867,-4.647 6.328,-4.654 z m -121.952,0.108 c 1.757,0 3.184,1.422 3.184,3.18 0,1.756 -1.427,3.182 -3.184,3.182 -1.756,0 -3.183,-1.426 -3.183,-3.183 0,-1.757 1.428,-3.18 3.184,-3.18 z m 0,1.154 c -1.118,0 -2.024,0.907 -2.024,2.025 0,1.118 0.906,2.024 2.024,2.024 1.12,0 2.025,-0.906 2.025,-2.024 0,-1.118 -0.907,-2.025 -2.026,-2.025 z m -38.07,0.06 c 21.53,10.885 34.953,31.25 38.266,54.45 l 10.46,-16.59 2.827,1.065 -15.243,24.842 -0.66,-0.205 c -0.064,-24.27 -12.16,-47.23 -35.7,-59.828 z m 38.07,0.83 c 0.627,0 1.135,0.51 1.135,1.135 0,0.626 -0.51,1.134 -1.136,1.134 -0.626,0 -1.134,-0.508 -1.134,-1.134 0,-0.626 0.508,-1.135 1.134,-1.135 z m -8.885,0.132 c 0.94,2.08 2.087,4.266 3.857,6.763 -1.795,-1.687 -3.758,-1.614 -5.702,-1.87 z m 25.6,0.45 c 0.333,-0.017 0.667,0.124 0.928,0.483 0.88,1.21 1.043,2.333 0.43,2.94 -0.838,0.83 -2.174,0.5 -2.777,-0.68 -0.626,-1.23 0.416,-2.695 1.42,-2.744 z m 105.588,1.682 0.034,1.882 c 0,0 -0.4,0.483 -0.826,0.88 -1.2,1.123 -2.84,2.913 -2.96,3.37 -0.38,1.485 1.088,2.03 2.535,0.94 0.5,-0.378 1.218,-0.95 1.218,-0.95 l 0,2.318 c -1.22,1.038 -2.437,2.057 -4.103,1.72 -0.97,-0.295 -1.822,-1.058 -2,-2.033 -0.695,-2.92 2.134,-4.55 4.328,-6.505 0.708,-0.63 1.775,-1.623 1.775,-1.623 z m -117.82,1.643 c 0.055,-0.003 0.107,0 0.162,0 1.757,0 3.184,1.42 3.184,3.178 0,1.757 -1.427,3.184 -3.184,3.184 -1.757,0 -3.183,-1.427 -3.183,-3.184 0,-1.702 1.34,-3.093 3.022,-3.178 z m 63.925,0.714 c 1.735,-0.008 2.654,2.328 1.257,3.652 -0.55,0.52 -1.787,0.89 -2.49,0.4 -1.933,-1.347 -0.51,-3.965 1.233,-4.053 z m -3.462,1.852 c 1.005,1.065 1.766,4.16 1.175,4.743 -1.31,1.35 -5.11,-3.142 -4.884,-6.078 0.405,-1.76 3.34,0.94 3.71,1.335 z m -46.524,-1.687 c 0.727,0.004 0.864,0.656 0.7,1.04 -0.157,0.368 -0.727,0.398 -1.18,0.212 -0.77,-0.316 -0.408,-1.257 0.48,-1.252 z m -13.776,0.274 c -1.118,0 -2.024,0.905 -2.024,2.023 0,1.118 0.906,2.025 2.024,2.025 1.118,0 2.025,-0.907 2.025,-2.025 0,-1.118 -0.907,-2.024 -2.025,-2.024 z m -15.155,0.89 c 3.84,0.003 7.89,3.027 4.367,3.627 -2.615,0.445 -4.31,-0.072 -6.347,-1.93 -1.035,-0.947 -0.666,-1.45 1.218,-1.66 0.25,-0.027 0.507,-0.04 0.762,-0.038 z m 15.155,0 c 0.627,0 1.135,0.507 1.135,1.133 0,0.627 -0.508,1.135 -1.135,1.135 -0.626,0 -1.134,-0.508 -1.134,-1.135 0,-0.626 0.508,-1.134 1.134,-1.134 z m 5.316,2.88 c 0.054,-0.004 0.11,0 0.166,0 1.757,0 3.184,1.42 3.184,3.178 0,1.757 -1.427,3.183 -3.184,3.183 -1.757,0 -3.183,-1.425 -3.183,-3.182 0,-1.702 1.335,-3.094 3.016,-3.18 z m 62.56,0.16 c 0.908,-0.015 1.706,0.156 2.166,0.577 0.564,0.516 -0.283,1.506 -2.01,2.348 -2.017,0.983 -5.536,0.846 -5.53,-0.215 0.01,-1.413 3.053,-2.67 5.374,-2.71 z m -76.64,0.837 c 1.766,0.01 2.243,5.48 0.71,8.103 -0.795,1.36 -1.866,0.45 -2.63,-2.235 -0.628,-2.203 0.575,-5.876 1.92,-5.868 z m 14.246,0.156 c -1.118,0 -2.024,0.907 -2.024,2.025 0,1.118 0.906,2.024 2.024,2.024 1.118,0 2.025,-0.906 2.025,-2.024 0,-1.118 -0.907,-2.025 -2.025,-2.025 z m 65.964,0.357 c 0.15,0.003 0.34,0.077 0.592,0.2 1.926,0.947 3.327,5.362 2.322,7.33 -1.057,2.074 -3.434,-1.916 -3.413,-5.73 0.01,-1.248 0.088,-1.75 0.435,-1.795 0.02,-0.002 0.043,-0.005 0.064,-0.005 z m -85.212,0.284 c 0.04,-0.002 0.082,-0.002 0.123,0 1.742,0.043 3.008,2.45 1.37,3.687 -0.72,0.542 -1.823,0.627 -2.5,0.197 -1.335,-0.85 -1.263,-2.916 0.127,-3.64 0.297,-0.153 0.595,-0.232 0.88,-0.243 z m 19.248,0.25 c 0.626,0 1.135,0.507 1.135,1.134 0,0.626 -0.51,1.134 -1.135,1.134 -0.626,0 -1.134,-0.508 -1.134,-1.134 0,-0.627 0.508,-1.135 1.134,-1.135 z m -11.893,0.38 c 0.953,1.42 4.814,5.164 5.35,5.487 -1.707,-0.55 -3.463,-0.317 -5.22,-0.082 0.2,-1.296 0.408,-3.423 -0.13,-5.403 z m 62.06,0.323 c 26.178,6.128 42.158,33.905 35.84,59.964 0,0 -2.203,-1.23 -2.552,-1.818 0.926,-4.51 1.496,-11.65 0.338,-18.832 -1.966,-12.182 -11.84,-30.057 -33.474,-36.188 -0.24,-0.788 -0.15,-3.125 -0.15,-3.125 z m 14.106,0.19 c 0.297,1.783 0.582,3.58 1.02,5.182 -1.843,-1.326 -3.932,-2.464 -6.07,-3.384 1.526,-0.32 2.92,-0.592 5.05,-1.798 z m 7.548,0.573 c 1.042,-0.027 2.102,0.716 2.08,2 -0.01,0.566 -0.614,1.58 -1.082,1.82 -1.74,0.887 -3.525,-0.804 -2.758,-2.612 0.344,-0.81 1.048,-1.19 1.76,-1.208 z m -65.768,0.69 c 1.757,0 3.184,1.42 3.184,3.178 0,1.757 -1.427,3.184 -3.184,3.184 -1.757,0 -3.183,-1.427 -3.183,-3.184 0,-1.757 1.426,-3.178 3.183,-3.178 z m 0,1.154 c -1.118,0 -2.024,0.906 -2.024,2.024 0,1.118 0.906,2.025 2.024,2.025 1.118,0 2.025,-0.907 2.025,-2.025 0,-1.118 -0.906,-2.024 -2.024,-2.024 z m -54.17,0.303 c 13.008,7.677 24.677,24.003 25.543,42.466 l -3.15,-2.058 c -1.357,-12.436 -7.723,-25.967 -22.495,-37.058 0,0 0.038,-1.194 0.102,-3.35 z m 72.03,0 16.812,0 0,3.624 5.04,-2.596 0,8.015 -5.04,-3.053 0,3.497 -16.813,0 0,-3.677 -5.15,2.49 0.06,-7.977 5.09,2.86 z m -17.86,0.587 c 0.626,0 1.135,0.508 1.135,1.134 0,0.627 -0.508,1.135 -1.134,1.135 -0.626,0 -1.134,-0.508 -1.134,-1.135 0,-0.626 0.508,-1.134 1.134,-1.134 z m 6.612,0.636 c 0.02,-0.002 0.042,0 0.063,0 l 0.202,1.154 c -0.033,-0.002 -0.065,-0.005 -0.098,-0.005 -1.118,0 -2.025,0.905 -2.025,2.023 0,1.118 0.906,2.025 2.024,2.025 0.27,0 0.527,-0.05 0.763,-0.147 l 0.195,1.16 c -0.303,0.096 -0.623,0.147 -0.958,0.147 -1.757,0 -3.184,-1.427 -3.184,-3.184 0,-1.702 1.337,-3.088 3.018,-3.173 z m 37.977,0.4 c 0.056,-0.002 0.11,0 0.166,0 1.758,0 3.185,1.422 3.185,3.18 0,1.508 -1.055,2.767 -2.465,3.095 l -0.19,-1.145 c 0.86,-0.233 1.496,-1.016 1.496,-1.95 0,-1.12 -0.907,-2.025 -2.025,-2.025 -0.044,0 -0.09,0.002 -0.136,0.005 l -0.195,-1.145 c 0.053,-0.005 0.11,-0.012 0.165,-0.014 z m 22.324,1.076 c 3.924,0.022 5.554,2.276 2.336,3.233 -1.49,0.442 -3.44,0.207 -5.37,-0.647 -1.606,-0.71 0.607,-2.6 3.033,-2.587 z m -82.064,0.216 c 0.95,-0.004 1.87,0.142 2.548,0.464 1.64,0.778 1.604,1.306 -0.15,2.318 -2.45,1.412 -8.212,-0.017 -6.47,-1.604 0.817,-0.745 2.49,-1.173 4.072,-1.178 z m 21.928,0.347 c 0.087,0 0.173,0.01 0.254,0.028 l 0.352,2.064 c -0.175,0.11 -0.383,0.176 -0.606,0.176 -0.626,0 -1.135,-0.508 -1.135,-1.135 0,-0.626 0.508,-1.134 1.134,-1.134 z m 37.987,0.405 c 0.623,0.005 1.126,0.51 1.126,1.134 0,0.493 -0.317,0.91 -0.758,1.065 z m 6.925,0.81 c 1.757,0 3.184,1.423 3.184,3.18 0,1.757 -1.428,3.184 -3.185,3.184 -1.756,0 -3.183,-1.428 -3.183,-3.185 0,-1.757 1.427,-3.18 3.183,-3.18 z m -61.973,0.803 c 0.19,-0.01 0.403,0.078 0.63,0.264 1.908,1.56 2.86,4.86 2.11,7.316 -0.718,2.342 -3.692,-1.817 -3.674,-5.135 0.01,-1.53 0.368,-2.413 0.934,-2.445 z m 82.424,0.28 c 0.263,0 0.542,0.2 0.817,0.66 1.185,1.972 1.13,6.046 -0.098,7.315 -0.697,0.72 -0.956,0.584 -1.682,-0.885 -1.24,-2.51 -0.305,-7.1 0.963,-7.09 z m -20.45,0.072 c -1.118,0 -2.025,0.907 -2.025,2.025 0,1.118 0.908,2.025 2.025,2.025 1.12,0 2.025,-0.907 2.025,-2.025 0,-1.118 -0.906,-2.025 -2.025,-2.025 z m -59.446,0.543 c 2.404,1.517 4.864,2.902 7.424,4.054 -2.396,-0.566 -4.165,0.238 -5.99,1.32 0.35,-2.002 -0.333,-3.63 -1.434,-5.374 z m 72.228,0.43 c 1.792,0.252 3.566,0.545 5.644,0.154 -0.384,1.762 -0.52,3.556 -0.35,5.392 -1.545,-2.002 -3.27,-3.88 -5.294,-5.548 z m -12.783,-0.082 c 0.627,0 1.135,0.51 1.135,1.135 0,0.626 -0.508,1.135 -1.135,1.135 -0.626,0 -1.134,-0.51 -1.134,-1.135 0,-0.626 0.51,-1.134 1.135,-1.134 z m -65.636,0.783 c 0.353,0.007 0.73,0.107 1.12,0.298 1.472,0.724 1.515,2.51 0.082,3.444 -1.8,1.174 -4.15,-0.886 -3.027,-2.655 0.432,-0.68 1.01,-1.046 1.673,-1.082 0.05,-0.003 0.1,-0.006 0.15,-0.005 z m 72.022,1.33 c 1.757,0 3.184,1.422 3.184,3.18 0,1.756 -1.427,3.182 -3.184,3.182 -1.757,0 -3.183,-1.426 -3.183,-3.183 0,-1.757 1.425,-3.18 3.182,-3.18 z m 18.622,0.533 c 0.306,-0.006 0.626,0.064 0.944,0.23 1.132,0.593 1.37,2.096 0.47,2.973 -0.997,0.97 -2.357,0.804 -3.028,-0.372 -0.765,-1.342 0.285,-2.807 1.614,-2.832 z m -30.706,0.47 c 15.67,5.333 26.163,22.765 23.635,39.547 l -1.956,-1.85 c 1.49,-9.51 -3.734,-27.68 -21.185,-35.14 z m 12.084,0.15 c -1.118,0 -2.024,0.908 -2.024,2.026 0,1.118 0.906,2.024 2.024,2.024 1.118,0 2.025,-0.906 2.025,-2.024 0,-1.118 -0.907,-2.025 -2.025,-2.025 z m 0,0.89 c 0.626,0 1.135,0.51 1.135,1.136 0,0.626 -0.51,1.134 -1.135,1.134 -0.626,0 -1.134,-0.508 -1.134,-1.134 0,-0.627 0.508,-1.135 1.134,-1.135 z m -59.577,0.202 c 0.8,0.07 2.148,-0.074 2.465,0.68 0.355,0.953 -1.6,2.6 -4.08,2.924 -1.01,0.06 -3.172,0.316 -3.627,-0.41 -0.428,-0.91 2.49,-3.167 5.242,-3.194 z m -49.743,0.557 c 2.118,-0.093 4.505,2.74 2.362,5.052 -1.716,1.775 -5.228,4.196 -5.228,4.196 l 0,-1.556 c 0,0 3.44,-2.516 3.497,-3.648 0.01,-1.316 -1.076,-2.057 -2.284,-1.267 -0.24,0.156 -1.185,0.924 -1.185,0.924 l 0.08,-2.606 c 0.64,-0.7 1.77,-1.05 2.757,-1.095 z m 54.11,0.665 c 1.57,0.06 5.21,5.673 4.284,6.822 -0.735,0.91 -3.692,-1.107 -4.803,-3.276 -0.596,-1.165 -0.417,-3.24 0.304,-3.512 0.066,-0.025 0.138,-0.037 0.215,-0.034 z m 24.216,0.68 c 0,0 0.162,13.06 -0.572,14.294 -2.943,5.327 -9.297,2.555 -9.84,-1.438 -0.39,-2.408 -0.156,-12.832 -0.156,-12.832 z m 0.93,0 10.15,0 c 0,0 -0.044,18.384 -0.454,19.438 -0.333,0.86 -1.807,2.34 -2.733,2.744 -2.98,1.303 -6.17,-0.545 -6.958,-4.035 -0.57,-2.515 -0.01,-18.147 -0.01,-18.147 z m 11.002,0 6.74,0 c 0,0 0.23,0.975 0.498,1.775 0.467,1.397 2.056,5.404 2.24,5.648 0.822,1.1 0.863,13.116 0.048,14.485 -2.972,4.457 -7.918,3.16 -9.726,-1.775 -0.454,-1.582 0.2,-20.133 0.2,-20.133 z m 7.86,0.455 c 12.084,5.74 21.334,17.912 20.176,33.532 l -2.22,-2.215 c 0.81,-10.78 -7.397,-24.256 -16.974,-28.26 z m 16.64,0.367 c 1.757,0 3.183,1.42 3.183,3.178 0,1.757 -1.426,3.184 -3.183,3.184 -1.757,0 -3.184,-1.427 -3.184,-3.184 0,-1.757 1.427,-3.178 3.184,-3.178 z m 11.922,0.322 c 1.183,0.018 2.627,0.426 3.707,1.316 1.29,1.064 1.47,1.906 0.47,2.215 -1.936,0.597 -4.26,0.02 -5.718,-1.418 -1.355,-1.335 -0.187,-2.138 1.54,-2.113 z m -11.922,0.832 c -1.118,0 -2.025,0.906 -2.025,2.024 0,1.118 0.907,2.025 2.025,2.025 1.118,0 2.025,-0.907 2.025,-2.025 0,-1.118 -0.907,-2.024 -2.025,-2.024 z m -63.68,0.254 c 1.695,0.01 2.474,2.396 1.174,3.604 -0.533,0.495 -1.99,0.602 -2.622,0.19 -1.74,-1.13 -0.72,-3.806 1.448,-3.794 z m 22.412,0.606 c -0.56,1.614 -1.464,3.435 -2.21,4.68 -2.002,3.337 -1.742,5.575 0.37,6.705 3.103,1.66 5.357,-2.795 2.3,-4.542 -1.073,-0.613 -1.073,-0.62 -0.685,-2.274 0.484,-2.064 0.568,-4.525 0.225,-4.568 z m 41.268,0.03 c 0.626,0 1.135,0.508 1.135,1.134 0,0.627 -0.51,1.135 -1.135,1.135 -0.626,0 -1.135,-0.508 -1.135,-1.135 0,-0.626 0.51,-1.134 1.135,-1.134 z m -30.388,0.655 c -0.142,-0.008 -0.033,0.822 -0.044,2.294 -0.017,2.378 -0.216,3.1 -1.736,6.29 -1.94,4.07 -1.682,6.853 0.724,7.755 1.87,0.7 3.685,-0.73 3.697,-2.91 0.01,-1.04 -0.458,-1.854 -1.17,-2.064 -0.642,-0.04 -1.354,-0.342 -1.304,-0.65 0.393,-2.432 2.5,-7.01 -0.168,-10.715 z m 40.15,0.33 c 1.57,0.987 3.186,1.924 5.525,2.043 -0.997,2.39 -0.895,4.134 -1.06,6.04 -1.002,-2.566 -2.546,-5.404 -4.466,-8.084 z m -119.87,0.37 c 0.127,0 0.253,0.007 0.377,0.025 1.5,0.233 2.77,2.157 2.366,3.59 -0.353,1.25 -0.463,1.46 -5.296,4.69 -2.683,1.79 -2.964,1.867 -2.964,1.867 l -1.438,-0.968 c 0,0 1.218,-0.813 3.145,-2.108 3.71,-2.493 4.254,-3.087 3.873,-4.2 -0.415,-1.21 -1.802,-0.957 -3.995,0.733 -3.246,2.5 -3.584,2.664 -3.584,2.664 l 0,-1.492 c 0,0 1.423,-1.132 2.04,-1.662 1.505,-1.07 3.584,-3.12 5.476,-3.14 z m 96.05,0.65 c 0.363,-0.003 0.644,0.337 0.517,0.66 -0.062,0.156 -0.275,0.257 -0.558,0.255 -0.583,-0.003 -0.614,-0.83 -0.035,-0.91 0.025,-0.003 0.05,-0.004 0.074,-0.004 z m 32.592,1.736 c 0.686,2.353 -0.79,6.276 -1.694,6.778 -0.962,0.953 -1.565,0.044 -1.773,-2.42 0.01,-2 2.294,-8.246 3.467,-4.358 z m -38.647,-1.32 c 0.294,3.39 0.4,6.206 -1.19,8.96 -2.06,3.57 -1.525,6.63 0.68,7.305 2.198,0.674 4.14,-0.9 3.752,-3.036 -0.12,-0.654 -1.018,-1.723 -1.566,-1.863 -0.676,-0.173 -0.756,-0.592 -0.372,-1.935 0.746,-2.604 0.495,-5.902 -0.63,-8.284 -0.104,-0.355 -0.517,-1.156 -0.675,-1.144 z m 7.394,1.13 c 1.854,0.01 2.728,2.42 1.34,3.692 -0.773,0.71 -1.264,0.387 -2.073,-1.35 -0.75,-1.61 -0.52,-2.35 0.734,-2.342 z m 17.263,0.494 c 1.757,0 3.183,1.422 3.183,3.178 0,1.757 -1.426,3.184 -3.183,3.184 -1.757,0 -3.184,-1.427 -3.184,-3.184 0,-1.756 1.426,-3.178 3.183,-3.178 z m 0,1.154 c -1.118,0 -2.025,0.906 -2.025,2.024 0,1.12 0.907,2.025 2.025,2.025 1.118,0 2.025,-0.906 2.025,-2.025 0,-1.118 -0.907,-2.024 -2.025,-2.024 z m 0,0.89 c 0.626,0 1.135,0.508 1.135,1.134 0,0.627 -0.51,1.135 -1.135,1.135 -0.626,0 -1.135,-0.508 -1.135,-1.135 0,-0.626 0.51,-1.134 1.135,-1.134 z m -13.658,0.836 c 0.26,-0.01 0.513,0.033 0.748,0.147 1.677,0.81 1.493,3.132 -0.357,4.518 -1.17,0.878 -1.666,0.574 -2.758,-1.692 -0.593,-1.23 0.962,-2.914 2.367,-2.973 z m -97.198,0.264 c 0.17,0.005 0.33,0.032 0.484,0.074 1.73,0.475 2.825,2.492 2.393,4.024 -0.954,2.363 -4.18,3.158 -6.632,4.147 l -1.27,-0.93 c 0,0 1.796,-1.02 3.54,-1.824 1.634,-0.752 1.898,-1.052 1.776,-2 -0.24,-1.853 -1.134,-1.786 -5.194,0.4 -1.65,0.89 -2.865,1.678 -2.865,1.678 l -0.9,-0.738 c 1.343,-0.885 2.15,-1.374 3.62,-2.377 2.45,-1.68 3.85,-2.4 4.874,-2.45 0.06,-0.004 0.12,-0.007 0.177,-0.006 z m 129.127,1.373 c 0.59,1.796 -0.614,3.37 -2.43,2.665 -0.985,-0.383 -1.684,-1.643 -1.073,-2.81 0.818,-1.28 3.108,-1.06 3.504,0.145 z m -36.438,-0.625 2.86,5.14 c 0,0 0.038,1.43 0.064,2.225 0.11,3.337 0.824,4.44 2.778,4.118 0.14,-0.024 0.836,-0.225 0.836,-0.225 l 1.242,2.093 c 0,0 -1.343,0.587 -1.692,0.66 -2.3,0.483 -5.486,-1.245 -5.98,-3.555 -0.48,-2.236 -0.108,-10.456 -0.108,-10.456 z m -93.716,2.113 c 0.864,0.063 0.497,0.723 0.098,0.94 -1.68,0.855 -3.268,1.785 -5.022,2.796 l -1.174,-0.728 c 0,0 0.906,-0.505 1.53,-0.89 1.923,-1.18 3.88,-2.09 4.568,-2.117 z m 114.97,0.66 c 1.756,0 3.182,1.422 3.182,3.18 0,1.756 -1.426,3.182 -3.183,3.182 -1.758,0 -3.185,-1.426 -3.185,-3.183 0,-1.757 1.427,-3.18 3.184,-3.18 z m -13.47,0.435 c 0.734,-0.02 1.345,0.294 1.742,0.954 0.85,1.41 -0.05,3.135 -2.113,4.054 -1.152,0.513 -1.345,0.407 -2.573,-1.413 -0.83,-1.23 -0.825,-1.45 0.093,-2.235 1.03,-0.878 2.02,-1.336 2.85,-1.36 z m -111.725,0.28 45.59,29.52 -1.3,2.212 -44.202,-28.936 z m 135.468,0.38 c 2.77,0.054 6.386,3.262 5.105,4.53 -0.136,0.133 -0.4,0.235 -0.586,0.224 -3.955,-0.234 -8.32,-4.826 -4.52,-4.753 z m -10.274,0.06 c -1.12,0 -2.026,0.906 -2.026,2.024 0,1.118 0.907,2.024 2.025,2.024 1.117,0 2.023,-0.906 2.023,-2.024 0,-1.118 -0.906,-2.025 -2.024,-2.025 z m -60.89,0.562 1.21,3.14 -22.692,36.123 -2.23,-1.433 z m 60.89,0.327 c 0.625,0 1.133,0.507 1.133,1.134 0,0.626 -0.508,1.134 -1.134,1.134 -0.628,0 -1.136,-0.508 -1.136,-1.134 0,-0.627 0.508,-1.135 1.135,-1.135 z m 8.332,0.376 c 1.11,2.066 2.96,3.332 5.066,4.22 -1.987,1.64 -2.987,3.767 -2.91,5.99 -0.504,-3.338 -0.94,-6.658 -2.156,-10.21 z m -119.952,1.09 c 0.486,0.004 0.925,0.105 1.27,0.343 4.254,2.912 0.35,5.794 -0.013,5.57 l -1.448,-0.916 c 0.497,-0.825 1.627,-1.944 -0.19,-2.988 -1.033,-0.45 -2.183,0.09 -3.185,0.787 l -1.52,-1.04 c 0,0 2.978,-1.772 5.085,-1.757 z m 100.278,1.648 c 0.16,-0.005 0.317,0.005 0.47,0.035 2.4,0.462 2.234,3.01 -0.274,4.19 -1.427,0.67 -1.68,0.534 -2.924,-1.605 -0.585,-1.004 1.18,-2.57 2.728,-2.62 z m -101.046,0.934 c 0.256,0.007 0.582,0.23 0.62,0.44 0.125,0.67 -1.114,1.34 -1.114,1.34 l -1.423,-0.943 c 0.608,-0.336 1.244,-0.79 1.917,-0.837 z m 127.874,0.612 c 0.348,-0.027 0.602,0.137 0.704,0.552 0.486,1.98 -1.712,5.65 -3.74,6.245 -1.186,0.348 -1.528,-0.21 -1.14,-1.85 0.545,-2.302 2.934,-4.85 4.176,-4.947 z m -73.54,0.15 3.693,2.68 -22.153,35.015 -3.834,-2.28 z m 60.283,0.285 c 1.755,0 3.182,1.42 3.182,3.178 0,1.757 -1.426,3.184 -3.183,3.184 -1.758,0 -3.185,-1.427 -3.185,-3.184 0,-1.757 1.427,-3.178 3.184,-3.178 z m 0,1.154 c -1.12,0 -2.026,0.905 -2.026,2.023 0,1.12 0.906,2.025 2.025,2.025 1.117,0 2.023,-0.906 2.023,-2.025 0,-1.118 -0.906,-2.024 -2.024,-2.024 z m 0,0.89 c 0.625,0 1.133,0.507 1.133,1.133 0,0.627 -0.508,1.135 -1.134,1.135 -0.628,0 -1.136,-0.508 -1.136,-1.135 0,-0.626 0.508,-1.134 1.135,-1.134 z m -50.903,0.116 c 2.403,2.71 5.104,8.772 14.533,5.913 3.212,2.616 7.65,4.106 13.116,1.202 l 0.04,16.333 -41.866,0.044 z m -76.464,0.416 41.23,27.136 -1.29,2.278 -39.98,-25.55 z m 115.747,0.024 c 0.04,0 0.073,0.003 0.102,0.01 2.108,0.516 2.345,2.622 0.387,3.428 -1.05,0.432 -1.265,0.324 -2.266,-1.15 -0.4,-0.587 -0.624,-1.074 -0.567,-1.222 0.14,-0.36 1.752,-1.073 2.343,-1.066 z m 26.455,2.23 c 0.737,0.005 1.47,0.395 1.815,1.164 0.516,1.154 0.218,2.122 -0.846,2.763 -1.762,1.06 -3.73,-0.887 -2.817,-2.787 0.367,-0.764 1.112,-1.145 1.848,-1.14 z m -25.815,2.216 c 0.972,0.005 1.788,0.933 1.316,1.496 -0.314,0.374 -0.717,0.266 -1.233,-0.328 -0.605,-0.697 -0.64,-1.17 -0.083,-1.168 z m 11.82,0.405 c 1.757,0 3.183,1.422 3.183,3.18 0,1.756 -1.426,3.183 -3.183,3.183 -1.757,0 -3.184,-1.427 -3.184,-3.184 0,-1.757 1.427,-3.18 3.184,-3.18 z m 8.968,0.177 c 2.4,0.013 5.724,4.02 5.16,6.22 -0.185,0.717 -1.53,0.33 -3.13,-0.9 -2.162,-1.66 -3.56,-5.33 -2.03,-5.32 z m -8.968,0.978 c -1.118,0 -2.025,0.906 -2.025,2.024 0,1.118 0.907,2.025 2.025,2.025 1.118,0 2.024,-0.906 2.024,-2.024 0,-1.118 -0.906,-2.024 -2.024,-2.024 z m 7.712,0.41 c 0.662,1.94 1.34,3.962 4.332,5.365 -4.642,2.163 -5.528,5.805 -4.83,10.475 l -1.087,-0.665 c 0.995,-4.184 1.748,-8.95 1.585,-15.175 z m -7.712,0.48 c 0.626,0 1.134,0.508 1.134,1.134 0,0.627 -0.508,1.135 -1.134,1.135 -0.627,0 -1.135,-0.507 -1.135,-1.134 0,-0.626 0.508,-1.134 1.135,-1.134 z m -0.592,5.11 c 1.757,0 3.184,1.42 3.184,3.178 0,1.11 -0.57,2.09 -1.433,2.66 l -1.028,-0.767 c 0.76,-0.292 1.3,-1.03 1.3,-1.893 0,-1.118 -0.906,-2.024 -2.024,-2.024 -1.065,0 -1.934,0.824 -2.015,1.868 l -1.032,-0.773 c 0.4,-1.3 1.615,-2.248 3.048,-2.248 z m 14.485,0.406 c 1.514,0.008 -0.84,4.21 -3.003,5.354 -1.646,0.872 -3.153,0.94 -3.15,0.142 0.012,-2.088 3.84,-5.51 6.153,-5.496 z m -14.485,1.638 c 0.626,0 1.135,0.508 1.135,1.134 0,0.627 -0.51,1.135 -1.135,1.135 -0.622,-0.068 -1.127,-0.557 -1.135,-1.135 0,-0.626 0.51,-1.134 1.135,-1.134 z m 13.996,3.83 c 0.745,0.01 1.485,0.333 1.8,0.962 0.406,0.814 0.25,1.542 -0.495,2.28 -1.83,1.81 -4.322,-0.05 -3.125,-2.333 0.325,-0.62 1.073,-0.92 1.82,-0.91 z m -5.854,1.706 c 2.55,0.08 4.48,3.252 4.02,5.046 -0.405,0.476 -3.213,-1.655 -3.516,-1.873 -0.36,-0.635 -0.38,-1.664 -0.504,-3.173 z m -3.477,1.965 7.99,4.803 -7.97,5.12 z m -71.152,2.377 42.922,0.157 0,1.805 -44.1,0.025 1.174,-1.986 z m -1.75,2.822 2.885,0 0,3.516 -3.96,0 0,-1.936 z m 41.244,0.083 3.472,0 0,3.515 -3.472,0 z m -34.07,0.023 3.95,0 0,3.516 -3.95,0 z m 8.22,0.03 4.27,0 0,3.516 -4.27,0 z m 8.734,0 4.108,0 0,3.516 -4.108,0 z m 8.773,0.058 3.914,0 0,3.517 -3.913,0 z m -35.736,4.334 47.606,0.113 0,2.107 -48.966,-0.112 z m 40.618,4.44 c 4.847,-0.053 7.67,5.356 3.883,9.155 -3.483,3.49 -9.292,-0.97 -6.392,-4.896 1.62,-2.193 5.6,-0.426 4.607,1.912 -0.655,1.538 -2.8,0.82 -2.734,-0.846 0,-0.67 -0.49,-0.212 -0.548,0.5 -0.072,0.9 0.854,1.9 1.932,1.9 2.813,0.007 3.234,-3.72 0.523,-5.09 -2.42,-1.223 -4.97,0.338 -5.56,3.433 -0.064,0.338 -0.463,1.183 -0.768,1.78 -0.895,1.798 -1.184,2.837 -1.633,4.89 -0.206,0.257 -0.834,0.667 -1.27,0.885 -1.383,0.69 -1.326,0.4 -0.808,-1.848 1.49,-6.474 3.924,-10.644 6.9,-11.492 0.648,-0.184 1.273,-0.277 1.868,-0.284 z m 14.333,0.338 c 2.993,-0.065 5.246,2.4 5.64,4.305 1.72,5.795 -5.974,9.344 -8.655,4.094 -1.498,-3 1.605,-6.58 4.448,-5.185 2.327,1.142 2.177,4.692 -0.2,4.68 -1.29,0.06 -2.077,-1.1 -1.365,-2.03 0.37,-0.366 0.812,-0.08 0.998,-0.694 0.078,-0.257 -0.287,-0.462 -1.168,-0.283 -1.46,0.296 -1.31,3.238 0.38,3.824 2.523,0.874 4.678,-1.785 3.478,-4.415 -1.443,-3.16 -5.348,-3.175 -7.135,0.132 -0.26,0.48 -0.665,1.168 -0.89,1.472 -2.664,3.615 -2.874,4.156 -3.667,6.17 -0.08,0.202 -0.22,0.35 -0.46,0.324 -0.734,0 -1.454,0.16 -1.946,0.352 -0.332,-0.088 0.11,-1.356 0.142,-1.453 1.815,-5.604 6.477,-11.155 10.4,-11.29 z m -23.19,1.574 c -0.63,1.1 -2.53,4.678 -3.848,9.962 -0.347,-0.216 -1.28,-0.605 -1.956,-0.84 -0.255,-0.09 -0.047,-0.386 -0.062,-0.833 0.48,-2.383 2.02,-6.55 3.716,-8.67 0.36,-0.265 2.677,-0.348 2.152,0.38 z m 2.715,1.057 c -1.626,2.075 -3.323,7.59 -3.678,10.435 -0.053,0.43 -0.13,0.906 -0.176,1.057 -0.253,0.85 -1.846,-0.977 -1.838,-2.108 0.012,-1.92 2.142,-7.774 3.662,-10.01 0.53,-0.78 0.594,-0.908 1.727,-0.95 1.82,-0.044 1.02,0.66 0.303,1.576 z m -79.49,-1.37 c -0.402,0.01 -0.8,0.063 -1.194,0.157 -2.354,0.584 -5.16,3.08 -5.433,5.726 -0.13,0.08 -0.45,1.932 -0.244,2.87 0.777,3.554 2.85,5.964 5.388,9.488 0,0 -3.187,4.94 -5.374,7.223 l 5.173,7.487 c -1.43,2.825 -3.918,4.963 -4.543,8.45 -0.975,4.59 1.43,9.065 6.544,9.477 3.816,0.116 6.318,-2.463 6.792,-6.37 0.193,-2.598 -0.876,-5.856 -4.72,-11.004 -0.19,-0.255 -0.56,-0.782 -0.56,-0.782 0,0 0.43,-0.507 0.66,-0.846 1.35,-1.83 4.874,-6.3 4.874,-6.3 l -5.266,-7.447 c 0,0 0.228,-0.5 0.635,-1.055 4.3,-5.863 5.1,-8.843 4.338,-11.756 -0.3,-1.15 -1.013,-2.032 -1.98,-3.013 -1.563,-1.587 -3.35,-2.345 -5.09,-2.304 z m -0.123,0.72 c 1.68,-0.025 3.413,0.648 4.817,2.117 3.23,3.38 2.944,6.238 -1.252,12.49 -0.92,1.37 -1.824,2.88 -1.824,2.88 l 5.296,7.315 c 0,0 -0.858,1.285 -1.75,2.333 -2.422,2.845 -3.776,4.89 -3.776,4.89 0.918,1.41 2.41,2.914 3.345,4.607 1.13,1.917 1.805,3.83 2.005,5.58 0.422,3.68 -1.97,7.602 -6.063,7.697 -3.973,0.027 -6.997,-3.283 -6.91,-7.438 0.038,-1.853 0.804,-3.565 1.736,-5.233 0.953,-1.696 3.184,-4.997 3.184,-4.997 l -5.125,-7.472 5.427,-7.246 c 0,0 -3.947,-4.834 -5.16,-8.318 -0.983,-3.957 0.86,-6.213 1.106,-6.558 1.203,-1.694 3.04,-2.618 4.944,-2.646 z m 114.265,0.41 c 3.048,3.474 4.696,8.444 5.403,12.715 0.286,1.753 0.338,4.746 0.088,5.07 -0.48,0.625 -1.564,0.288 -1.496,-0.464 0.55,-6.023 -5.933,-10.337 -11.546,-7.726 -4.327,2.013 -6.64,6.693 -5.56,12.514 2.04,10.977 11.25,19.02 17.48,30.03 2.204,3.73 2.727,5.83 2.713,5.756 0,0 0.816,-2.18 2.67,-5.276 4.44,-8.154 10.47,-13.414 14.954,-21.57 2.105,-3.83 3.444,-7.617 3.668,-11.038 0.042,-7.96 -7.73,-13.962 -13.8,-9.78 -2.404,1.476 -4.434,4.33 -4.754,6.68 -0.135,1.003 -0.312,1.303 -0.762,1.3 -1.036,-0.005 -1.05,-0.398 -0.215,-5.12 1.267,-4.69 2.78,-9.14 5.53,-13.09 z M 2359.8,895.71 c 0.787,2.053 2.07,3.58 3.52,5.04 1.345,-1.573 2.847,-3.64 3.67,-5.614 3.967,-9.504 -11.354,-10.28 -7.19,0.574 z m 3.462,4.106 c -1.944,-2.262 -3.317,-4.142 -3.45,-7.125 -0.213,-5.907 7.51,-5.244 7.126,0.04 -0.43,2.875 -1.94,4.693 -3.676,7.086 z m 95.72,-9.288 c 0.147,0.832 0.958,2.24 0.89,2.572 -0.377,0.873 -0.925,1.307 -1.688,2.744 -0.16,0.306 -0.086,0.37 -0.514,0.293 -0.402,-0.057 -1.11,-0.278 -1.486,-0.386 -0.216,-0.062 -0.464,-0.18 -0.362,-0.454 0.732,-1.684 1.553,-3.693 3.16,-4.768 z m -12.804,2.543 -0.908,2.357 c -0.087,0.254 -0.096,0.295 -0.362,0.24 -0.518,-0.066 -0.972,-0.106 -1.488,-0.068 -1.126,-0.14 0.996,-4.35 1.315,-4.988 0.46,0.078 1.142,1.876 1.443,2.46 z m 0.856,0.544 c 0.02,-0.003 0.04,-0.002 0.06,0 0.46,0.06 1.15,0.31 1.66,0.533 0.283,0.116 0.292,0.124 0.168,0.474 -0.26,0.52 -0.58,2.016 -0.925,2.538 -0.01,0.076 -1.605,-0.948 -2.06,-1.145 -0.017,-0.284 0.505,-2.32 1.097,-2.4 z m 13.53,0.278 c 0.53,0.02 1.18,0.498 1.537,0.773 0.168,0.332 0.015,0.664 -0.57,1.677 -0.52,0.897 -1.063,1.864 -1.195,1.76 -0.394,-0.308 -1.125,-0.71 -1.486,-1.207 -0.27,-0.37 0.242,-1.32 0.59,-1.84 0.55,-0.818 0.815,-1.114 1.125,-1.163 z m -8.605,-0.12 c 0.487,0.11 -0.287,2.623 -0.432,2.937 -0.46,0.69 -1.18,1.6 -1.75,1.965 -0.292,0.187 -1.19,-0.35 -1.17,-0.978 0.015,-0.446 0.87,-2.698 1.154,-3.296 0.04,-0.087 1.65,-0.617 2.197,-0.627 z m -19.91,0.962 c 0.11,-0.004 0.22,-0.002 0.328,0.004 1.917,-0.055 3.888,0.89 5.13,3.003 0.587,1 0.595,1.043 0.46,1.977 -0.317,2.194 -0.207,3.668 0.37,5.012 0.66,1.53 0.56,2.056 -1.05,5.46 -1.617,3.43 -3.58,7.607 -5.07,11.48 -0.663,1.658 -1.27,3.536 -1.65,5.075 -0.25,0.967 -1.43,0.676 -2.606,0.63 -0.597,0.13 0.863,-3.893 3.027,-8.704 1.732,-3.85 4.088,-8.187 5.028,-12.496 0.767,-3.513 0.52,-4.958 0.1,-6.433 -1.62,-4.292 -7.265,-3.24 -7.25,0.715 0.12,2.562 3.084,3.935 4.17,1.423 0.18,-1.154 -0.388,-0.483 -0.865,0.078 -1.023,1.202 -2.775,-0.134 -2.5,-1.907 0.363,-2.33 3.37,-3.095 4.823,-1.253 1.592,2.018 1.242,4.098 -1.057,5.658 -2.37,1.74 -4.525,0.75 -5.708,-1.056 -2.525,-4.058 0.928,-8.56 4.318,-8.666 z m 11.713,1.7 c 2.35,0.05 4.902,2.02 5.315,3.58 0.222,1.058 -0.12,2.304 0.26,3.326 0.314,0.82 0.617,1.292 0.39,2.02 -1.934,6.226 -6.5,12.865 -8.758,20.236 -0.26,0.513 -0.498,0.577 -1.08,0.743 -0.902,0.256 -1.255,0.23 -1.35,-0.24 -0.09,-0.45 0.21,-1.3 0.738,-2.896 0.63,-1.91 2.027,-5.185 2.846,-6.724 1.908,-3.585 2.972,-6.037 4.357,-9.1 0.26,-0.573 0.333,-0.912 0.74,-1.736 1.746,-3.542 -0.227,-7.032 -3.844,-7.052 -2.866,-0.016 -4.147,4.473 -1.638,5.785 2.454,1.283 4.285,-2.088 2.103,-3.28 -0.526,-0.29 -0.66,-0.014 -0.24,0.493 0.973,1.167 0.1,2.737 -1.25,2.112 -2.094,-0.967 -1.016,-4.533 1.427,-4.328 3.77,0.318 4.262,5.804 0.416,7.194 -5.288,1.91 -8.062,-6.602 -3.086,-9.468 0.826,-0.475 1.745,-0.68 2.656,-0.665 z m 11.14,0.172 c 1.39,-0.034 2.853,0.46 4.053,1.614 2.958,2.84 2.17,7.222 -2.826,15.698 -1.636,2.84 -3.232,6.25 -4.103,8.743 -0.216,0.623 -0.398,0.938 -0.89,1.21 -0.866,0.477 -1.85,0.537 -1.976,0.2 -0.324,-0.86 2.152,-6.215 6.56,-14.627 1.158,-2.24 2.62,-4.844 2.547,-7.51 -0.29,-2.12 -2.052,-3.643 -4.41,-2.95 -1.588,0.466 -2.237,2.706 -1.067,3.834 0.488,0.47 1.09,0.72 1.477,0.68 0.73,0.023 1.562,-0.7 0.146,-0.778 -1.496,-0.01 -2.007,-1.89 -0.743,-2.74 1.817,-1.22 3.902,0.22 3.756,2.593 -0.304,4.773 -7.273,4.06 -7.458,-0.856 -0.114,-3.043 2.277,-5.044 4.934,-5.11 z m 69.093,2.064 c 1.727,1.223 2.97,3.455 3.262,5.59 0.092,0.66 0.177,1.33 -0.108,1.48 -0.35,0.186 -0.595,-0.086 -1.315,-1.035 -1.678,-2.213 -4.996,-1.27 -6.108,1.765 -1.06,2.89 0.036,6.136 4.49,12.592 1.6,2.39 3.007,4.37 4.332,6.71 0.937,-2.33 2.528,-4.836 3.886,-6.905 5.087,-7.704 6.02,-11.706 3.252,-14.285 -1.778,-1.62 -4.592,-1.67 -5.545,0.4 -0.65,0.853 -1.034,1.264 -1.306,0.75 -0.118,-0.225 -0.105,-0.906 -0.03,-1.41 0.484,-2.445 1.28,-4.047 3.043,-5.652 z m -88.786,5.58 c 1.053,-0.08 -0.76,5.594 -3.927,11.96 -1.728,3.527 -3.038,7.317 -4.382,11.004 -0.363,0.494 -2.546,0.584 -2.542,0.074 3.873,-12.41 6.61,-14.546 7.932,-19.273 0.23,-0.816 0.4,-1.996 0.43,-2.098 0.98,-0.28 1.804,-1.453 2.49,-1.667 z m -71.69,0.836 -4.104,5.35 4.006,5.682 4.16,-5.433 z m 88.844,1.653 c 0,0.64 -1.233,3.725 -2.15,5.58 -4.02,8.11 -5.02,10.297 -5.713,12.46 -0.124,0.39 -0.327,0.647 -0.58,0.742 -0.5,0.187 -1.895,0.455 -2.01,0.264 0.85,-4.74 7.354,-15.525 8.616,-20.25 0.506,-0.022 1.796,0.746 1.838,1.203 z m 3.218,-0.495 c 0.272,-0.02 0.38,0.092 0.303,0.455 -0.126,0.588 -0.827,1.97 -2.05,4.372 -3.384,6.654 -5.16,10.595 -5.725,12.62 -0.133,0.476 -0.214,0.85 -0.44,0.97 -0.466,0.247 -2.094,0.904 -2.17,0.195 0.507,-3.007 2.49,-4.965 7.613,-17.507 0.24,-0.412 0.45,-0.613 0.674,-0.65 0.63,-0.104 1.176,-0.403 1.795,-0.455 z m -13.888,2.06 c -0.13,0.774 -1.017,2.397 -2.484,5.393 -2.44,4.985 -4.02,8.7 -4.978,11.995 -0.156,0.536 -0.37,1.098 -0.578,1.242 -0.396,0.275 -2.176,0.19 -2.176,0.19 -0.27,-1.362 1.878,-6.444 4.27,-11.79 1.3,-2.906 2.81,-5.803 3.82,-8.41 0.694,0.102 2.03,0.768 2.126,1.38 z m 3.622,-1.284 c 0.724,-0.006 0.162,1.21 -1.573,4.64 -1.407,2.78 -3.65,6.68 -5.1,11.163 -0.38,0.987 -0.824,2.214 -0.988,2.73 -0.213,0.663 -0.41,0.992 -0.685,1.128 -0.523,0.262 -1.788,0.247 -2.01,-0.023 -0.353,-0.43 1.52,-5.476 3.345,-9.35 1.61,-3.257 2.745,-5.87 4.137,-8.88 0.38,-0.6 0.397,-0.64 0.784,-0.717 0.805,-0.065 1.638,-0.603 2.09,-0.69 z m -81.728,0.648 2.112,2.827 -2.48,3.085 -2.063,-3.002 z m -0.318,12.19 c 0,0 -0.897,1.035 -1.82,2.67 -2.698,4.495 -2.772,7.812 0.412,9.782 1.343,0.684 3.094,0.534 4.2,-0.43 3.606,-3.146 0.926,-7.467 -1.403,-10.397 -0.62,-0.86 -1.39,-1.624 -1.39,-1.624 z m 0.132,1.15 c 1.352,1.596 2.34,2.793 3.242,4.798 1.036,2.693 0.372,4.81 -1.633,5.805 -3.168,1.573 -6.05,-1.958 -4.547,-5.726 1.114,-2.792 2.94,-4.875 2.94,-4.875 z m 88.742,5.32 c 0.297,0.568 -30.162,7.613 -52.633,1.566 l -13.672,19.786 78.938,-0.137 z m -1.154,1.405 c 0,0 7.338,12.7 10.94,18.92 l -5.062,0 -7.213,-15.443 c -3.858,1.075 -7.663,1.853 -11.52,2.342 l 2.566,13.1 -3.79,0 -2.14,-12.518 c -5.53,0.426 -11.16,0.59 -16.91,0.425 l -2.48,12.093 -3.966,0 2.543,-12.01 c -4.365,-0.59 -8.71,-1.145 -13.145,-1.874 l -7.438,13.883 -5.6,0 11.674,-17.424 c 17.425,3.496 33.496,2.673 51.542,-1.497 z m 78.85,2.91 c -3.45,0.01 -7.09,1.863 -8.123,5.838 -0.363,1.264 -0.364,1.267 -0.376,12.515 -0.01,9.3 -0.087,11.54 -0.087,11.54 l -3.18,0 0,3.716 10.35,0 0,-3.714 -3.434,0 c 0,0 -0.05,-11.568 -0.05,-18.86 -0.142,-1.892 0.03,-3.557 0.533,-4.716 1.83,-4.217 8.27,-3.294 9.047,0.304 0.462,2.144 0.203,2.706 0.234,4.557 l 3.585,0 c 0,0 0.094,-3.254 -0.255,-5.153 -0.472,-4.24 -4.128,-6.125 -7.913,-6.02 -0.11,-0.003 -0.22,-0.005 -0.332,-0.005 z m -81.608,3.907 5.722,12.103 -10.837,0 -1.995,-10.798 z m -46.393,0.88 9.47,1.227 -2.444,9.996 -12.793,0 z m 30.924,1.49 1.3,9.733 -16.322,0 1.814,-9.54 z"
         id="path4611" />
    </g>
  </g>
</svg>
