<?xml version="1.0" encoding="UTF-8" standalone="no"?>
<!-- Created with Inkscape (http://www.inkscape.org/) -->

<svg
   xmlns:dc="http://purl.org/dc/elements/1.1/"
   xmlns:cc="http://creativecommons.org/ns#"
   xmlns:rdf="http://www.w3.org/1999/02/22-rdf-syntax-ns#"
   xmlns:svg="http://www.w3.org/2000/svg"
   xmlns="http://www.w3.org/2000/svg"
   xmlns:sodipodi="http://sodipodi.sourceforge.net/DTD/sodipodi-0.dtd"
   xmlns:inkscape="http://www.inkscape.org/namespaces/inkscape"
   width="63.281277mm"
   height="88.281372mm"
   viewBox="0 0 224.225 312.80801"
   id="svg12197"
   version="1.1"
   inkscape:version="0.91 r13725"
   sodipodi:docname="KC.svg">
  <defs
     id="defs12199" />
  <sodipodi:namedview
     id="base"
     pagecolor="#ffffff"
     bordercolor="#666666"
     borderopacity="1.0"
     inkscape:pageopacity="0.0"
     inkscape:pageshadow="2"
     inkscape:zoom="0.35"
     inkscape:cx="-634.31608"
     inkscape:cy="362.11829"
     inkscape:document-units="px"
     inkscape:current-layer="layer1"
     showgrid="false"
     fit-margin-top="0"
     fit-margin-left="0"
     fit-margin-right="0"
     fit-margin-bottom="0"
     inkscape:window-width="1600"
     inkscape:window-height="838"
     inkscape:window-x="-8"
     inkscape:window-y="-8"
     inkscape:window-maximized="1" />
  <metadata
     id="metadata12202">
    <rdf:RDF>
      <cc:Work
         rdf:about="">
        <dc:format>image/svg+xml</dc:format>
        <dc:type
           rdf:resource="http://purl.org/dc/dcmitype/StillImage" />
        <dc:title></dc:title>
      </cc:Work>
    </rdf:RDF>
  </metadata>
  <g
     inkscape:label="Calque 1"
     inkscape:groupmode="layer"
     id="layer1"
     transform="translate(-350.74465,-581.67249)">
    <g
       transform="translate(-2417.7379,547.35596)"
       id="g4685">
      <rect
         style="fill:#ffffff;stroke:#000000;stroke-width:0.99699998"
         width="223.228"
         height="311.811"
         x="2314.3311"
         y="589.95203"
         ry="10.63"
         rx="10.63"
         transform="translate(454.65,-555.137)"
         id="rect4687" />
      <path
         style="fill:#e2cf00"
         inkscape:connector-curvature="0"
         d="m 2929.736,64.82 -80.526,0.393 10.226,19.372 c 20.93,-1.882 39.27,-0.208 58.376,0.415 z m -54.996,68.113 c -0.084,0.113 -3.35,0.956 -3.018,1.697 8.528,18.255 12.337,33.11 15.898,51.87 1.8,-1.46 4.712,-1.402 4.712,-1.402 -1.436,-6.967 7.348,-7.836 7.405,-0.547 1.686,0.392 3.42,0.398 4.943,2.1 0.684,-20.5 8.042,-41.714 17.544,-56.412 -10.83,4.285 -26.717,14.965 -26.717,14.965 0,0 -13.22,-5.46 -20.767,-12.27 z m 65.82,2.183 c -14.412,13.678 -20.052,51.648 -19.018,52.172 -18.577,-0.62 -24.208,19.854 -8.105,30.894 -0.636,2.142 -2.21,3.884 -3.427,5.776 1.66,0.95 3.474,1.154 5.285,1.353 1.375,1.63 2.726,3.51 4.22,3.664 1.62,-1.02 2.77,-2.513 4.12,-3.805 1.683,-0.43 3.353,-0.903 4.95,-1.632 -1.415,-1.973 -3.092,-3.97 -3.135,-5.818 14,-9.867 12.08,-23.285 -0.542,-30.154 3.76,-22.597 9.244,-37.032 15.61,-47.297 z m -99.256,17.458 c -1.83,0.893 -2.83,2.778 -4.158,4.257 -1.824,0.084 -3.58,0.707 -5.318,1.482 0,0 4.176,5.767 3.917,6.077 -13.54,8.865 -13.43,21.824 -0.43,30.36 2.204,18.444 -13.473,47.632 -14.265,46.784 l -0.028,6.034 c 10.91,-12.065 17.083,-33.985 18.165,-51.987 22.282,-1.482 23.07,-23.002 7.732,-31.097 -1.18,-1.08 3.856,-6.082 3.856,-6.082 -1.28,-1.257 -3.417,-1.4 -5.29,-1.554 -1.182,-1.412 -2.212,-2.82 -4.182,-4.272 z m 94.24,14.893 c 3.15,7.006 14.66,-1.53 16.657,2.197 1.62,2.114 5.152,2.33 4.96,-1.23 -0.663,-3.527 -2.986,-4.31 -12.2,-2.772 -3.497,0.583 -4.93,0.928 -4.91,-0.665 -2.417,-2.918 -4.49,1.05 -4.506,2.47 z m 10.69,10.223 c -2.585,-0.002 -3.024,10.097 -2.986,13.13 -7.48,11.808 15.345,10.466 5.474,-2.4 0.343,-1.68 -1.26,-4.42 -1.215,-5.633 -0.81,-0.103 -1.164,-4.663 -1.274,-5.097 z m -131.596,6.07 c -4.048,0.103 -8.498,3.82 -2.008,9.162 0.433,0.148 -0.218,1.275 0,3.007 1.83,3.946 1.335,9.79 2.697,8.89 1.576,-1.036 2.89,-5.396 2.552,-11.484 -0.022,-0.4 -0.552,-0.822 -0.453,-1.254 3.642,-6.008 0.562,-8.405 -2.792,-8.32 z m 41.423,11.316 c -1.04,19.725 -5.873,39.078 -16.827,55.86 9.43,-4.393 18.58,-10.06 27.435,-14.914 l 20.694,12.805 c 1.2,-0.52 2.03,-0.775 2.823,-1.56 -9.536,-13.944 -12.488,-34.012 -16.643,-52.167 -1.58,1.12 -4.554,1.683 -4.554,1.683 -0.212,6.297 -6.82,8.338 -8.17,0.125 z m -49.946,15.39 c -2.207,0.138 -3.867,5.6 2.386,6.41 4.412,0.624 10.063,-1.547 12.866,-0.542 3.26,5.197 6.184,-2.453 1.83,-3.7 -4.68,-1.34 -14.208,2.156 -15.262,-0.816 -0.542,-1.015 -1.202,-1.393 -1.82,-1.353 z m 37.533,85.436 -12.484,22.046 79.818,-0.48 -10.432,-21.028 c 0.178,-0.233 -34.86,4.165 -56.9,-0.538 z"
         id="path4689" />
      <path
         style="fill:#d40000"
         inkscape:connector-curvature="0"
         d="m 2860.97,86.47 1.296,3.093 c 17.145,-2.072 35.082,-4.22 53.04,0.347 0,0 1.318,-2.86 1.297,-3.066 -16.733,-4.256 -54.15,-3.15 -55.634,-0.374 z m 17.348,43.436 16.315,10.552 c 0,0 7.814,-5.52 11.144,-7.855 l -2.022,-2.97 c -6.9,15.21 -19.03,3.18 -23.576,-3.975 0,0 -1.237,2.772 -1.862,4.248 z m 43.82,5.105 c 1.13,-0.023 1.758,0.412 2.326,1.563 0.642,1.3 0.887,0.98 0.474,-0.64 -0.65,-2.556 2.063,-4.22 4.62,-2.513 1.846,1.232 1.765,4.212 -0.252,4.764 -1.63,0.446 -1.672,0.874 -0.24,0.804 2.567,-0.125 3.25,3.3 1.423,4.975 -2.102,1.926 -4.78,0.56 -5.024,-1.854 -0.112,-0.684 -0.257,-0.675 -0.482,-0.288 -0.65,1.115 -0.71,2.563 -0.582,3.875 l -3.794,-2.353 c 1.35,-0.67 2.174,-1.072 3.15,-2.086 0.128,-0.133 0.224,-0.23 0.223,-0.287 0,-0.102 -0.422,0.036 -1.195,0.116 -2.292,0.24 -4.056,-1.246 -3.586,-3.404 0.4,-1.835 1.35,-2.636 2.94,-2.67 z m -16.728,59.528 c 4.126,-4.72 9.25,-7.75 16.373,-7.326 0.906,-19.78 7.765,-37.366 18.75,-53.21 l -12.085,-7.266 -4.85,2.925 c -11.66,16.538 -18.823,37.52 -18.188,64.878 z m -90.584,-46.217 c 0,0 -8.18,6.128 -11.982,9.087 l 0.184,54.537 1.056,0.362 c 0.076,0.116 -0.092,-0.81 0.393,-1.232 0.396,-0.345 1.024,-0.738 1.397,-0.873 1.052,-0.382 1.098,-1.083 0.117,-1.69 -0.76,-0.47 -1.05,-1.196 -0.963,-2.404 0.062,-0.852 0.026,-1.038 -0.33,-1.617 -0.442,-0.72 -0.48,-1.63 -0.103,-2.574 0.174,-0.438 0.157,-0.556 -0.154,-1.148 -0.396,-0.754 -0.443,-1.566 -0.148,-2.44 0.112,-0.335 0.194,-1.066 0.183,-1.63 -0.04,-2.172 1.754,-3.613 5.067,-4.067 1.295,-0.177 1.334,-0.23 0.74,-1.316 -3.355,-6.126 4.182,-9.32 4.745,-8.338 z m 103.214,3.043 c 3.06,-0.044 5.58,2.398 5.624,5.46 0.045,3.06 -2.402,5.58 -5.463,5.623 -3.06,0.045 -5.58,-2.402 -5.623,-5.463 -0.045,-3.06 2.402,-5.575 5.463,-5.62 z m 0.052,0.99 c -2.45,0.035 -4.407,2.05 -4.37,4.5 0.034,2.45 2.048,4.412 4.5,4.376 2.45,-0.036 4.41,-2.055 4.375,-4.506 -0.035,-2.45 -2.054,-4.407 -4.505,-4.37 z m 0.115,1.408 c 1.662,-0.023 3.032,1.303 3.056,2.965 0.024,1.662 -1.307,3.032 -2.97,3.056 -1.66,0.025 -3.026,-1.306 -3.05,-2.968 -0.024,-1.662 1.302,-3.027 2.964,-3.05 z m -110.04,2.278 c 0.225,-0.004 0.465,0.03 0.708,0.108 1.38,0.44 1.864,1.655 1.116,2.808 -0.587,0.905 -0.52,0.983 0.51,0.6 0.808,-0.3 1.22,-0.205 1.86,0.426 1.91,1.894 -0.936,5.077 -2.808,3.148 -0.928,-0.955 -1.016,-0.673 -0.373,0.968 0.207,0.53 0.55,1.356 0.55,1.356 l -2.744,-0.04 c 0,0 0.426,-1.094 0.623,-1.61 0.474,-1.243 0.49,-1.425 -0.5,-0.643 -2.234,1.763 -4.766,-1.255 -2.71,-3.23 0.417,-0.4 1.088,-0.42 2.02,-0.052 0.68,0.267 0.763,0.08 0.252,-0.56 -1.11,-1.395 -0.084,-3.252 1.494,-3.28 z m 56.892,4.887 c -1.117,7.31 -0.143,17.565 -0.167,23.046 2.977,0.568 3.01,2.596 3.467,5.115 1.447,-0.504 4.61,1.633 5.043,1.445 0.33,-7.415 -3.526,-28.94 -8.344,-29.605 z m 49.384,7.325 c 4.225,0.34 3.416,3.602 2.157,4.943 -0.595,0.687 -0.484,0.996 0.17,0.6 1.785,-1.077 3.2,-0.3 3.776,1.558 0.983,3.174 -3.188,5.907 -5.048,3.06 -0.63,-0.966 -1.016,-0.747 -0.86,0.262 0.094,0.973 1.044,2.99 1.044,2.99 l -4.145,-0.373 c 0,0 1.266,-2.108 1.49,-2.675 0.46,-1.177 0.216,-1.49 -0.67,-0.542 -2.592,2.372 -6.184,-0.665 -4.51,-3.81 0.825,-1.55 2.347,-2.053 3.99,-0.817 1.11,0.723 1.348,0.41 0.357,-0.468 -1.85,-1.64 -0.238,-4.927 2.25,-4.728 z m -106.077,2.59 c 0.047,-0.002 0.093,-0.002 0.14,-0.002 0.357,0.007 0.73,0.106 1.1,0.315 1.03,0.58 1.312,1.72 0.666,2.715 -0.37,0.572 -0.263,0.933 0.17,0.56 0.577,-0.5 1.853,-0.17 2.35,0.61 1.28,2.003 -1.218,4.622 -2.813,2.955 -0.704,-0.735 -0.974,-0.765 -0.892,-0.282 0.23,0.908 0.826,2.456 0.826,2.456 l -2.87,0.05 c 0,0 0.62,-1.628 0.757,-2.454 0.106,-0.653 -0.154,-0.558 -0.838,0.214 -0.665,0.75 -1.27,0.828 -2.118,0.266 -2.093,-1.386 -0.417,-4.946 1.765,-3.75 0.75,0.412 0.856,0.174 0.27,-0.603 -1.05,-1.388 0.02,-2.978 1.487,-3.05 z m 149.063,-1.27 c -4.647,4.8 -3.19,1.962 -1.035,5.623 0.01,2.413 1.417,4.302 0.3,8.11 -0.358,0.746 -0.39,1.1 -0.193,1.85 -0.34,4.207 -3.712,4.153 -6.99,4.806 0.544,-0.037 5.194,8.553 -3.48,9.225 l 0.098,34.922 13.602,-10.028 -0.06,-54.51 z m -102.072,18.436 c -3.856,2.485 -9.274,8.696 -16.087,7.346 -0.824,21.788 -7.974,38.656 -18.174,53.152 3.522,2.082 7.398,4.58 11,6.182 3.045,-1.57 4.754,-2.225 7.743,-4.684 12.26,-18.94 16.15,-39.647 15.518,-61.996 z m 32.02,3.985 c 0.688,11.19 2.51,21.787 8.33,30.288 l 0.394,-23.78 c -2.075,-0.497 -3.774,-1.837 -4.38,-5.64 z m -42.068,6.602 3.89,0.092 c 0,0 -0.883,1.758 -1.265,2.74 -0.464,1.202 -0.244,1.447 0.643,0.612 1.154,-1.086 2.994,-1.187 3.962,-0.218 2.57,2.575 -0.118,6.772 -3.158,4.93 -1.302,-0.787 -1.52,-0.523 -0.487,0.593 2.01,1.865 -0.09,4.55 -2.437,4.56 -1.698,-0.006 -2.798,-1.363 -2.93,-2.858 -0.066,-0.94 0.406,-1.885 1.223,-2.344 0.852,-0.478 0.242,-0.79 -0.682,-0.29 -3.02,1.623 -5.04,-2.55 -2.762,-4.923 1.314,-1.37 2.704,-1.24 4.04,0.065 0.932,0.913 1.266,0.83 1.003,-0.248 -0.266,-1.214 -1.04,-2.71 -1.04,-2.71 z m 104.993,3.275 2.787,0.003 c -0.274,0.69 -0.628,1.393 -0.85,2.074 -0.24,0.743 -0.065,0.838 0.673,0.12 1.92,-1.29 3.97,0 3.554,2.043 -0.288,1.41 -1.468,2.1 -2.83,1.49 -1.203,-0.54 -0.818,-0.31 -0.134,0.512 0.813,0.978 0.606,2.12 -0.47,2.875 -1.9,1.337 -4.412,-0.884 -3.153,-2.823 0.74,-1.153 0.4,-1.028 -0.274,-0.47 -1.014,0.74 -2.547,-0.308 -2.577,-1.764 -0.118,-2.094 1.996,-3.272 3.486,-1.79 0.71,0.597 0.886,0.524 0.566,-0.345 -0.294,-0.63 -0.39,-1.307 -0.78,-1.926 z m 0.15,15.228 2.92,-0.034 c 0,0 -0.04,0.225 -0.49,1.07 -0.53,0.993 -0.448,2.02 0.104,1.323 0.93,-1.177 2.91,-0.85 3.56,0.59 0.754,1.676 -0.718,3.528 -2.247,2.824 -0.994,-0.458 -1.062,-0.36 -0.402,0.595 0.643,0.928 0.358,2.07 -0.686,2.735 -2.05,1.31 -4.51,-1.304 -2.802,-2.977 0.458,-0.447 0.314,-0.665 -0.24,-0.364 -2.265,1.23 -3.935,-1.83 -1.977,-3.62 0.834,-0.764 1.47,-0.71 2.842,0.236 0.427,0.295 0.51,-0.01 0.2,-0.757 -0.523,-1.275 -0.782,-1.62 -0.782,-1.62 z m -108.424,1.83 c 3.25,-0.046 5.92,2.55 5.967,5.8 0.047,3.25 -2.547,5.925 -5.797,5.973 -3.25,0.047 -5.927,-2.552 -5.974,-5.803 -0.047,-3.25 2.552,-5.92 5.803,-5.97 z m 0.066,1.052 c -2.67,0.04 -4.806,2.232 -4.767,4.902 0.038,2.67 2.236,4.804 4.906,4.766 2.67,-0.04 4.805,-2.237 4.767,-4.907 -0.04,-2.672 -2.237,-4.802 -4.907,-4.763 z m 0.055,1.857 c 1.645,-0.024 2.995,1.287 3.02,2.93 0.023,1.645 -1.29,3 -2.933,3.024 -1.644,0.024 -2.998,-1.292 -3.022,-2.936 -0.024,-1.644 1.292,-2.994 2.936,-3.018 z m -7.398,14.26 3.398,1.662 c 0,0 -1.607,1.308 -2.246,1.98 -0.818,0.87 -0.76,1.275 0.343,0.86 2.104,-0.79 4.212,0.394 4.25,2.578 0.054,2.915 -3.394,4.318 -5.05,2.11 -0.492,-0.655 -1.08,-0.928 -0.85,-0.392 0.56,1.305 0.218,2.948 -0.758,3.623 -0.782,0.54 -2.213,0.7 -2.934,0.325 -2.48,-1.286 -2.61,-4.144 -0.237,-5.273 1.192,-0.567 1.232,-1.1 0.058,-0.807 -2.442,0.61 -3.866,-2.347 -2.105,-4.378 1.87,-2.155 4.918,-1.71 5.255,1.48 0.06,0.567 0.447,0.157 0.62,-0.712 0.207,-0.646 0.254,-3.055 0.254,-3.055 z m 31.674,4.796 c 0,0 -12.443,7.08 -12.064,7.38 0.073,0.042 2.757,3.82 2.757,3.82 6.173,-13.988 20.957,-2.404 23.325,4.737 0.513,0.317 0.6,0.226 1.16,0.477 0.052,-0.505 1.077,-5.465 1.077,-5.465 z m -19.955,51.427 c -0.622,0.78 -2.708,2.993 -2.445,3.076 18.287,3.93 37.146,3.618 56.343,1.535 l -1.466,-4.61 c -18.956,4.83 -52.43,0 -52.43,0 z"
         id="path4691" />
      <path
         style="fill:#131f67"
         inkscape:connector-curvature="0"
         d="m 2800.3,62.99 1.122,257.078 160.477,-0.567 -0.963,-256.82 z m 48.806,1.833 80.04,-0.327 c -3.754,9.746 -14.566,25.144 -14.054,25.18 -16.65,-2.75 -33.81,-4.138 -53.004,-0.04 z m -46.952,0.626 44.915,-0.06 14.813,26.554 c 0,0 0.87,1.657 0.35,3.39 -0.567,1.892 -1.054,2.732 -1.564,3.698 0.05,-0.55 -4.27,-1.098 -3.91,2.6 0.246,2.504 3.414,3.92 5.773,1.972 0.378,-0.03 0.375,0.318 0.292,0.93 -0.218,1.434 -1.74,5.985 -2.785,6.287 -5.318,-4.36 -7.216,3.604 -3.63,5.192 2.076,0.92 5.268,0.16 6.76,-2.336 1.14,-1.91 1.015,-1.594 1.375,0.723 0.134,0.86 0.323,1.86 0.42,2.308 0.304,1.404 0,1.676 -2.363,2.313 -1.902,0.742 -3.83,1.15 -5.79,1.575 -3.586,0.588 -5.418,3.292 -5.507,6.583 -0.02,0.71 0.01,1.04 -0.147,1.25 -15.165,5.757 -31.28,13.81 -48.184,27.563 z m 101.833,63.047 c -0.574,-0.93 -2.41,-5.807 -2.915,-7.842 -1.316,-9.866 -1.566,-21.578 -2.972,-30.762 l 1.853,0.208 c 0,0 0.696,2.66 1.446,9.844 0.37,3.56 0.758,10.965 1.068,14.368 0.468,5.057 2.753,13.144 4.168,15.185 2.31,3.33 6.95,1.176 5.397,-2.777 -0.805,-2.05 -3.923,-1.72 -3.49,0.41 0.01,0.38 0.296,-0.272 0.752,-0.672 1.347,-0.51 2.864,0.892 2.073,2.58 -0.983,2.156 -3.89,1.173 -4.854,-1.545 -1.152,-3.246 2.73,-5.68 5.632,-3.7 3.234,2.206 3.24,7.797 0.636,9.56 -4.383,1.6 -7.364,-1.594 -8.795,-4.856 z m 10.838,4.112 c -0.177,-0.105 0.01,-0.445 0.223,-1.252 0.81,-3.017 0.3,-5.372 -1.652,-7.59 -1.088,-1.237 -1.497,-1.454 -0.928,-1.678 1.208,-0.475 3.876,1.462 4.61,3.366 0.723,1.87 0.904,3.805 -0.115,5.92 -0.71,0.453 -1.81,1.363 -2.138,1.233 z m 3.303,-2.01 c 0,-0.353 0.235,-1.467 0.29,-2.01 0.21,-2.106 -0.774,-4.244 -2.516,-5.915 -1.462,-1.403 -1.596,-1.547 -0.212,-1.57 3.568,-0.06 5.844,5.708 4.197,8.55 -0.424,0.45 -1.717,1.372 -1.76,0.945 z m 3.022,-1.953 c 1.05,-4.918 -3.706,-8.195 -3.802,-8.042 0.237,-1.102 2.126,-0.47 2.77,-0.04 2.404,1.615 3.787,5.835 2.31,8.233 -0.16,0.295 -0.357,0.464 -0.616,0.622 -0.496,0.312 -0.79,0.563 -0.89,0.344 -0.076,-0.165 0.2,-0.88 0.228,-1.117 z M 2879.3,112.69 c 0.497,-0.488 0.646,-0.502 1.6,-0.14 2.994,1.13 5.385,-1.02 4.678,-3.276 -0.255,-0.817 -1.377,-1.704 -2.067,-1.775 -1.127,-0.116 -1.15,0.48 0.066,0.933 1.494,0.558 1.645,2.143 0.33,2.858 -1.545,1.043 -4.074,-1.603 -5.93,-1.38 -0.885,0.265 -1.453,1.094 -0.946,2.107 0.395,0.71 1.73,1.14 2.27,0.675 z m -3.32,-0.323 c -1.037,-0.483 -1.433,-0.474 -1.234,-1.607 0.13,-0.745 1.193,-5.76 1.7,-7.7 1.512,-5.807 0.09,-9.026 -4.196,-10.324 -2.904,-0.88 -5.405,-0.435 -8.364,1.14 l -0.532,-1.643 c 12.405,-3.245 33.577,-2.525 33.5,-2.4 0.42,1.67 0.578,3.34 0.742,5.01 0,0 -3.967,-1.946 -6.036,-2.594 -3.188,-0.977 -8.227,0.094 -9.12,1.924 -0.506,1.038 -0.242,1.73 1.9,0.576 3.505,-1.888 10.665,-0.45 13.188,1.552 0.582,0.46 0.552,0.562 0.563,1.103 0.018,0.824 0.067,0.873 -1.08,0.26 -6.018,-3.077 -11.16,-2.72 -12.933,1.318 -0.41,-0.123 -1.97,-0.392 -1.97,-0.392 l 1.676,2.477 0.32,2.594 c 0,0 2.736,1.518 4.245,2.16 1.485,0.63 0.63,-0.04 -1.193,-1.308 -1.338,-0.93 -0.273,-1.23 0.61,-0.873 1.816,0.417 4.47,0.946 7.544,-1.005 0.953,-0.606 3.138,-0.08 3.172,0.194 0,0 0.29,2.267 0.58,6.998 0.137,2.238 0.412,5.162 0.57,6.362 0.472,3.626 0.607,3.832 -1.3,2.094 -0.64,-0.584 -1.707,-1.55 -1.72,-1.494 -0.242,1.125 2.573,3.1 3.228,3.777 0.995,1.028 1.793,3.66 1.395,3.817 -0.252,0.1 -2.926,-2.17 -5.03,-4.208 -0.79,-0.765 -1.964,-1.79 -1.997,-1.754 -0.435,0.29 1.332,2.284 2.987,3.776 1.932,1.74 2.155,1.896 1.506,2.158 -1.198,0.484 -2.277,-0.118 -5.188,-2.525 -0.283,-0.234 -1.385,-1.016 -1.438,-0.96 -0.265,0.355 2.42,2.897 3.03,3.116 1.133,0.407 1.46,1.5 0.566,1.93 -0.596,0.287 -2.82,-0.93 -4.6,-2.474 -0.32,-0.277 -1.206,-0.748 -1.264,-0.684 -0.354,0.227 1.638,1.95 3.538,3.093 1.86,1.12 2.16,1.397 1.684,2.328 -0.44,0.96 -4.525,-1.26 -6.567,-3.55 -0.434,-0.486 -0.777,-0.695 -0.69,-0.53 0.89,2.465 3.816,4.23 5.994,4.935 0.39,0.127 0.952,0.284 1.206,0.486 0.62,0.492 0.483,1.005 -0.19,1.294 -2.32,0.65 -5.984,-2.16 -8.603,-5.108 -0.304,-0.125 -0.123,0.26 -0.043,0.388 2.185,3.487 6.37,6.14 8.89,5.645 1.473,-0.29 2.656,0.154 2.668,0.648 0.01,0.406 -0.803,1.052 -2.387,1.165 -3.585,0.255 -9.185,-3.666 -12.46,-8.66 -0.103,-0.156 -0.224,-0.213 -0.232,-0.12 -0.09,1.06 1.948,3.656 3.51,5.14 4.642,4.413 9.03,5.904 12.453,3.418 1.93,-1.495 3.795,-4.765 0.92,-5.858 -1.522,-0.578 -2.485,1.518 -1.183,0.92 1.71,-0.206 2.1,0.7 1.876,1.554 -0.436,1.463 -1.888,1.696 -3.068,1.08 -2.053,-1.112 -1.617,-4.924 1.04,-5.59 2.397,-0.578 4.487,1.453 4.762,3.38 0.427,2.992 -2.95,6.23 -5.657,7.035 -9.235,2.748 -16.447,-10.083 -16.49,-10.374 -0.462,-0.89 -1.02,-1.362 -1.37,-0.323 -0.38,1.505 -2.463,5.918 -3.578,5.892 0.346,-1.558 1.807,-4.175 1.452,-6.468 -0.616,1.883 -1.916,5.9 -4.402,8.04 -0.644,0.586 -2.536,1.278 -1.234,-0.233 1.572,-2.21 3.628,-5.23 3.202,-8.067 -0.417,0.637 -0.644,2.25 -1.12,3.316 -1.195,2.667 -3.802,5.833 -5.524,6.346 -1.272,0.38 -1.153,-0.05 0.15,-1.42 1.394,-1.47 3.865,-5.786 3.702,-7.647 -0.07,-0.822 -2.563,7.105 -7.25,9.276 -1.264,0.462 -1.983,-0.12 -1.983,-0.12 1.842,-1.06 6.93,-6.076 6.45,-11.774 0,0 -0.272,0.843 -0.673,2.11 -1.725,5.437 -5.43,9.013 -8.32,9.31 -2.306,0.236 -3.916,-0.695 -3.344,-1.106 2.99,0.022 5.447,-1.01 7.367,-3.925 1.95,-2.96 2.678,-7.72 1.496,-12.757 -1.067,-4.542 -1.302,-8.627 -1.674,-12.993 3.276,1.12 6.572,1.863 9.762,0.617 -0.32,1.3 -0.853,1.463 -1.694,2.445 -0.61,0.718 -0.402,0.89 1.98,-0.794 0.694,-0.49 0.944,-0.882 1.07,-0.75 0.203,0.21 -0.113,1.55 -0.807,4.22 -1.036,3.994 -0.767,4.28 3.07,5.784 0.715,0.28 0.982,0.556 1.233,0.855 0.117,0.14 0.746,1.273 0.806,1.313 0.14,0.094 0.103,-1.156 0.026,-1.47 -0.206,-0.84 -0.66,-1.47 -1.056,-1.718 -0.753,-0.693 -1.84,-0.755 -2.535,-1.073 z m 72.42,52.078 0.038,-4.146 4.028,2.858 -0.05,1.368 z m -6.884,0.9 -0.148,-76.68 c 0,0 3.092,-2.053 4.637,-3.07 0.965,3.04 0.96,9.558 0.597,12.46 -0.605,1.892 -0.875,10.306 -0.19,14.587 0.548,3.413 0.447,9.057 -0.07,11.76 -0.2,1.054 -0.045,6 0.335,10.578 0.29,3.497 0.206,6.677 -0.217,8.497 -0.332,1.434 -0.217,6.573 0.163,8.545 0.558,2.9 0.654,12.217 0.403,12.723 -0.664,0.752 -5.858,0.858 -5.51,0.6 z M 2947.64,85.1 c 0,0 3.114,2.057 4.615,3.085 l 0.02,3.303 -4.498,-2.936 z m -46.473,5.338 1.925,0.12 c 0.767,3.994 1.1,8.533 1.405,13.084 0.098,7.016 0.964,14.417 2.612,19.267 l -1.417,1.485 c -2.41,-5.558 -2.6,-14.326 -3.138,-20.26 -0.235,-6.675 -1.333,-13.65 -1.388,-13.694 z m 46.847,-0.698 4.188,2.834 0.043,3.593 -4.22,-2.8 z m -44.07,0.963 1.692,0.184 c 0.515,4.74 1.303,7.957 1.604,13.18 0.388,6.754 1.56,12.3 2.287,17.576 l -1.267,0.42 c -0.848,0.392 -2.253,-5.843 -2.88,-18.482 -0.188,-3.825 -0.836,-8.128 -1.435,-12.88 z m 2.56,0.178 2.02,0.362 c 0.892,12 2.303,23.27 3.78,29.73 l -1.755,0.115 c -2.18,-9.23 -2.32,-19.91 -4.047,-30.207 z m 2.916,0.426 1.856,0.32 c 2.233,27.444 3.61,27.09 4.04,28.17 l -2.008,0.814 c -2.17,-7.887 -2.61,-19.005 -3.888,-29.305 z m 8.427,26.954 c -0.318,0.925 -1.07,0.84 -1.89,0.934 -0.92,-2.522 -1.458,-5.53 -1.843,-8.472 -0.847,-6.466 -1.153,-12.528 -2.035,-18.91 l 2.213,0.228 c -0.072,0.05 1.57,22.503 3.554,26.22 z m -47.633,-24.122 c 2.918,0.14 5.34,1.45 5.572,3.368 0.052,0.43 -0.29,0.222 -0.685,-0.08 -2.51,-1.924 -5.365,-2.524 -8.813,-1.283 -0.752,0.27 -1.367,0.696 -1.702,0.638 -0.302,-0.193 -0.396,-0.66 -0.165,-1.046 0.804,-1.346 4.35,-1.667 5.794,-1.598 z m -6.767,3.85 c 0.063,3.022 -0.673,4.69 -2.26,5.387 -1.913,0.842 -4.368,-0.963 -3.175,-2.982 0.902,-1.527 2.452,-1.067 2.747,0.537 l 2.43,-5.415 c 0,0 0.25,1.715 0.257,2.472 z m 88.834,-0.485 -0.025,3.115 -4.488,-3 0.3,-2.994 z m -79.614,-0.406 c 2.21,0.877 3.023,1.946 3.105,2.422 -0.127,0.354 -0.348,0.112 -1.962,-0.76 -2.487,-1.524 -5.727,-1.772 -8.575,0.163 -0.71,0.14 -0.782,-0.262 -0.07,-1.027 2.168,-1.7 5.165,-1.723 7.503,-0.797 z m 16.79,-0.582 c 1.947,-0.062 4.272,0.433 6.237,1.418 0.868,0.436 1.648,0.707 2.214,1.208 0.453,0.236 0.488,1.264 0.157,1.34 -0.296,0.043 -0.78,-0.188 -1.505,-0.694 -4.668,-3.03 -8.027,-2.657 -10.725,-0.79 -0.15,0.102 -0.614,0.208 -0.797,0.194 -0.515,-0.04 -0.54,-0.25 -0.327,-0.528 1.25,-1.412 3.118,-2.092 4.747,-2.148 z m 58.324,2.18 4.498,3.144 0,3.09 -4.78,-3.324 z m -81.185,1.257 0.657,0.02 c 1.53,3.708 3.45,1.796 4.248,0.31 l 0.8,0.13 c -1.252,4.97 -6.347,2.37 -5.705,-0.46 z m -1.118,0.494 c 0.743,0.09 0.717,0.93 0.95,1.542 0.52,1.368 -1.452,0.21 -1.79,-0.123 -0.573,-0.603 0.24,-1.36 0.84,-1.42 z m 22.26,-0.145 c 1.94,2.95 3.058,1.203 4.164,-0.08 l 0.527,0.167 c -0.138,2.118 -3.704,4.376 -5.396,-0.035 z m 5.964,0.333 c 0.21,0.004 0.625,0.152 1.008,0.307 1.06,0.43 1.005,0.743 -0.17,1.265 -1.878,0.836 -2.53,0.944 -1.97,-0.236 0.325,-0.54 0.54,-1.255 1.133,-1.336 z m -7.367,0.45 c 0.473,0.347 0.783,0.732 0.838,1.357 0.04,0.44 -1.427,-0.067 -1.424,-0.77 0.046,-0.445 0.288,-0.807 0.587,-0.587 z m -12.995,0.168 c 0.964,0.357 0.848,0.816 0.177,1.232 -1.205,0.672 -1.72,0.54 -0.942,-0.516 0.36,-0.488 0.437,-0.706 0.765,-0.716 z m 74.14,1.555 4.872,3.425 -0.044,3.143 -4.866,-3.317 c -0.227,-1.346 -0.013,-2.252 0.04,-3.25 z m -84.173,4.866 c 0.23,0.006 0.322,0.77 0.376,1.885 0.09,1.857 -1.798,4.44 -3.708,5.33 -2.3,1.074 -4.762,-0.43 -4.35,-2.658 0.38,-2.053 3.297,-2.138 3.407,-0.24 -0.284,0.498 0.113,0.916 0.276,0.872 0.75,-0.2 2.52,-1.793 3.24,-3.574 0.28,-0.694 0.45,-1.408 0.65,-1.57 0.04,-0.03 0.076,-0.045 0.11,-0.044 z m 84.043,-0.58 4.867,3.552 0.022,3.123 -4.827,-3.32 c -0.19,-1.39 -0.108,-2.384 -0.062,-3.353 z m -59.06,4.946 c -0.366,0.62 -0.065,1.726 0.69,0.783 1.94,-2.258 4.748,0.567 3.245,2.362 -1.364,1.63 -3.042,1.104 -6.586,-0.25 -2.582,-0.984 -2.99,-0.648 -3.625,0.063 -0.524,0.587 -0.257,1.767 0.422,1.753 2.092,0.475 3.903,0.937 6.07,1.388 4.577,0.94 7.368,-4.956 3.187,-7.123 -1,-0.518 -3.07,0.155 -3.4,1.025 z m -20.2,0.68 c -1.786,1.6 -0.322,5.806 2.306,6.182 0.55,0.078 1.372,0.055 2.305,-0.214 1.837,-0.53 3.863,-1.618 3.946,-2.25 0.377,-2.88 -3.91,-0.3 -4.476,0.042 -1.352,0.82 -2.782,0.715 -3.503,-0.26 -1.623,-2.196 1.287,-4.716 3.054,-2.03 0.447,0.68 0.29,-0.47 -0.196,-1.25 -0.687,-1.103 -2.46,-1.03 -3.437,-0.22 z m 79.582,-0.907 4.575,3.233 -0.026,3.007 -4.437,-3.198 z m 0.343,4.402 4.332,3.116 0.074,3.126 -4.548,-2.994 c 0.09,-1.125 0.11,-2.183 0.14,-3.25 z m -24.29,1.795 c 3.808,0.063 5.958,5.69 3.95,8.032 -0.6,0.697 -1.076,0.884 -1.346,0.624 -0.06,-0.056 0.037,-0.685 0.076,-1.397 0.124,-2.267 -0.36,-3.82 -2.018,-5.543 -1.245,-1.293 -1.716,-1.693 -0.663,-1.715 z m -46.907,0.897 c -0.72,0.256 -1.48,0.775 -2.07,0.647 -0.582,-0.127 -0.86,0.16 -1.088,0.618 -0.872,1.746 -0.602,2.31 1.126,1.32 0.82,-0.47 1.107,-0.302 3.302,0.112 1.57,0.296 2.636,0.266 4.016,-0.092 1.716,-0.445 2.74,-0.48 3.607,-0.005 0.867,0.475 1.46,1.13 1.483,0.596 -0.096,-0.623 -0.64,-2.217 -0.766,-2.747 -0.06,-0.256 -0.487,-0.03 -0.89,-0.002 -1.423,0.103 -3.12,-1.176 -4.22,-0.5 -0.878,0.54 -0.994,0.683 -2.2,-0.025 -0.9,-0.527 -1.522,-0.2 -2.3,0.076 z m 45.882,0.39 c 2.58,2.155 3.24,4.066 2.99,5.634 -0.128,1.14 -0.213,2.4 -1.33,3.087 -0.207,0.1 -0.514,0.16 -0.8,0.202 0.868,-3.24 -0.154,-6.14 -3.8,-9.237 1.06,-0.525 2.142,-0.35 2.94,0.316 z m -58.178,-0.005 c 0.115,0 0.24,0.02 0.37,0.06 0.446,0.148 0.517,1.32 0.165,1.687 -0.353,0.367 -0.637,0.064 -1.045,-0.867 -0.304,-0.507 0.014,-0.878 0.51,-0.88 z m -2.382,0.912 c 0.942,-0.02 1.3,0.843 1.46,1.53 0.138,0.586 -0.036,2.333 -0.536,1.724 -0.12,-0.37 -0.63,-1.564 -1.04,-1.875 -0.912,-0.69 -0.822,-1.36 0.116,-1.378 z m -2.65,0.868 c 0.136,-0.004 0.313,0.013 0.527,0.05 1.47,0.245 2.597,2.585 2.255,3.913 -0.78,1.428 -1.066,0.465 -1.323,-0.83 -0.2,-0.536 -0.803,-1.378 -1.172,-1.812 -0.766,-0.902 -0.885,-1.304 -0.288,-1.32 z m 88.4,-0.68 4.476,3.21 0.01,3.433 -4.685,-3.15 c 0.105,-1.2 0.158,-2.352 0.202,-3.493 z m -91.31,1.392 c 2.193,0.004 4.065,2.553 3.374,5.01 -0.857,2.563 -5.125,2.016 -4.417,-0.54 0.204,-0.734 0.99,-1.272 1.738,-0.812 1.082,0.665 0.963,-0.417 0.276,-0.8 -1.062,-0.593 -2.52,-0.234 -2.845,0.965 -1.132,4.18 4.242,5.606 7.167,1.287 1.07,-1.58 2.233,-3.268 2.875,-3.988 0.577,-0.65 0.7,-0.58 0.607,0.254 -0.372,3.884 -3.08,8.74 -8.16,8.473 -4.938,-0.468 -6.482,-5.706 -2.753,-8.975 0.627,-0.55 1.287,-0.82 1.926,-0.867 0.072,-0.005 0.142,-0.008 0.212,-0.008 z m 26.16,0.212 c -1.806,0.874 -3.443,1.205 -5.22,0.43 -1.316,-0.572 -1.295,0.05 -0.724,0.56 1.652,1.406 4.655,0.77 5.942,-0.022 0.418,-0.257 0.555,-1 0,-0.97 z m 69.64,6.208 0.014,3.123 -4.998,-3.347 c -0.08,-0.747 0,-1.883 0.17,-3.055 z m -4.818,1.043 4.76,3.135 0.125,3.095 -4.624,-2.867 z m 0.332,4.342 4.546,3.144 0.066,3.38 -4.504,-2.964 z m -110.856,3.553 -2.783,8.405 1.822,0.11 1.23,2.217 1.263,-2.272 1.917,-0.145 z m 111.046,1.122 4.38,3.01 0.067,3.12 -4.553,-3.146 z m -0.178,3.82 4.49,3.244 0.09,3.317 -5.09,-3.392 z m -100.495,1.876 -2.756,9 1.553,-0.212 1.454,2.408 1.47,-2.162 1.39,0.08 z m -20.738,0.67 -2.623,8.944 1.757,-0.007 1.485,2.256 1.303,-2.178 1.994,-0.053 z m 120.647,1.646 5.27,3.697 0.044,3.52 -5.11,-3.422 z m 5.21,8.36 0.058,3.084 -4.435,-3.157 -0.48,-3.423 z m -94.1,0.53 -3.22,9.092 2.16,0.02 1.31,2.183 1.047,-2.194 1.736,0.02 z m 90.015,0.908 4.115,2.82 -0.032,3.165 -4.05,-2.713 z m -77.987,36.784 -2.345,-2.253 c -0.03,-0.185 1.917,-1.128 3.116,-0.528 1.58,0.792 2.394,3.64 0.622,5.14 -1.41,1.192 -3.562,0.2 -3.604,0.06 z m -2.087,-3.716 c 0.043,-3.48 -1.79,-4.374 -3.306,-5.08 0,0 -0.254,-22.053 -0.22,-22.712 0,0.096 -0.39,-2.388 -0.434,-2.535 0,0 -0.363,-0.098 -0.363,-0.094 0.063,2.236 0.21,25.152 0.174,25.3 -2.836,0.328 -3.628,2.248 -3.885,4.827 -2.213,-0.166 -3.653,1.166 -3.697,1.387 -0.818,-1.122 -0.21,-2.776 -0.854,-3.947 -1.96,6.858 1.853,10.96 5.182,10.58 0.534,6.583 7.786,7.773 7.54,-0.213 8.774,-0.515 5.8,-8.58 -0.135,-7.514 z m -41.222,-27.688 -3.176,8.906 2.226,-0.254 0.812,1.643 c 3.566,-3.142 5.367,1.71 3.552,-2.45 z m 120.75,15.846 c 0.41,-0.03 0.95,0.34 1.057,0.843 0.078,1.504 -1.943,1.166 -2.007,0.216 -0.046,-0.674 0.565,-1.03 0.95,-1.06 z m 1.32,9.778 c 0.872,-0.715 2.26,-0.31 2.282,0.767 0.02,0.954 -1.076,1.268 -1.932,0.732 -0.665,-0.405 -0.707,-1.16 -0.35,-1.5 z m 0.124,2.65 c 4.777,0.364 8.33,-2.88 6.808,-5.21 1.283,-1.612 0.236,-2.538 0.587,-3.463 1.014,-1.04 0.166,-3.276 -0.088,-3.284 -0.21,-3 -1.08,-3.385 -2.377,-4.983 -0.39,-0.463 0.908,-0.916 1.407,-1.713 -1.32,0.508 -2.617,-0.472 -2.61,-0.695 l -0.562,-0.697 c -8.845,0.412 -16.788,1.03 -16.488,13.022 -1.273,5.09 0.883,9.625 7.057,8.224 1.352,-1.207 0.46,-2.957 0.296,-3.798 -0.528,-2.313 0.08,-3.817 0.25,-4.9 0.526,-3.353 2.983,-6.465 3.25,-1.21 0.43,-0.66 0.228,-0.757 0.94,-1.03 1.694,-0.612 1.69,1.1 1.344,1.792 -0.223,0.356 -0.56,0.325 -0.904,0.286 -0.493,-0.06 -1.137,-0.242 -1.148,-0.423 -0.133,0.547 0.896,1.562 0.79,2.073 -0.137,0.486 -0.224,0.447 0.226,0.125 2.13,-1.522 3.46,1.88 0.382,1.49 1.517,0.81 -0.728,3.18 0.84,4.394 z m -3.15,-18.304 c 1.678,-0.085 2.08,-0.1 2.002,0.78 0.318,1.624 0.725,2.378 2.843,2.207 2.134,-0.277 2.81,-0.41 0.663,0.88 -1.085,0.477 -1.437,0.57 -2.723,0.454 -1.296,-0.117 -1.197,-0.248 -1.937,0.194 -0.414,0.247 -0.865,0.548 -1.202,0.61 -0.498,0.09 -1.376,0.28 -1.376,0.28 -0.5,2.523 -1.258,3.793 -2.303,4.992 -1.48,1.68 -2.23,1.974 -0.417,1.848 0.67,0.042 0.323,-0.294 0.616,2.425 0.102,0.95 0.28,2.055 0.42,2.426 0.472,1.24 0.535,1.855 -1.257,1.943 -4.472,0.337 -5.517,-4.016 -4.92,-6.24 0.05,-0.35 0.254,-1.508 0.298,-2.426 0.025,-0.503 -0.076,-0.928 -0.063,-1.44 0.102,-4.15 1.085,-5.242 4.767,-7.938 1.11,-0.813 3.105,-0.98 4.588,-0.998 z m 3.93,0.224 c 2.064,-0.043 4.06,0.95 3.064,1.593 -0.644,0.416 -2.966,0.243 -3.61,-0.216 -0.834,-0.593 -0.52,-1.356 0.545,-1.378 z m -92.075,3.522 -0.818,1.45 -0.856,6.75 0.152,1.37 1.69,2.214 1.336,-2.296 2.103,0.037 z m 96.542,-0.673 c 1.336,0.268 1.39,1.49 1.05,2.24 -0.748,1.652 -5.75,2.452 -5.75,2.452 -0.042,-0.71 0.057,-1.393 -0.463,-2.19 0,0 3.332,-0.873 4.036,-1.515 0.47,-0.43 0.756,-0.972 1.126,-0.986 z m 0.988,3.76 c 0.485,0.006 0.743,0.357 0.874,1.07 0.062,0.384 -0.082,0.71 -0.394,1.13 -1.27,1.38 -4.84,2.335 -6.13,1.984 -0.09,-0.12 0.13,-1.573 0.223,-2.22 1.717,0.052 4.608,-1.47 5.428,-1.965 z m -50.887,8.497 c -1.704,-2.46 -5.488,-2.1 -5.082,-1.928 0.027,-2.108 -0.334,-5.002 -3.532,-5.31 -3.226,-0.244 -4.883,4.01 -3.66,5.812 -1.99,-0.826 -4.976,1.245 -4.976,1.44 -0.254,0.008 -2.536,6.037 4.368,6.347 0.63,2.845 1.705,4.222 3.912,5.393 l 0.054,23.23 0.78,1.055 0.07,-24.345 c 3.532,-0.156 3.968,-4.2 3.706,-5.13 1.57,0.067 2.994,-0.248 4.195,-1.164 l 0.413,3.967 c 0,0 0.83,-1.4 0.646,-2.142 -1.537,-22.815 6.716,-47.496 17.552,-63.494 0.58,-0.67 0.756,-1.472 1.042,-1.478 2.643,-1.424 4.312,-2.382 4.312,-2.382 4.357,2.094 12.138,7.148 12.138,7.148 l 0.126,32.51 c -0.12,-0.32 14.498,-1.63 14.278,-1.235 0,0 -1.28,-0.502 -1.3,-1.357 l -0.38,-76.077 -6.396,-4.178 c 0,0 -5.258,3.436 -6.73,4.61 l 0.162,44.79 -11.33,-6.636 c 0,0 0.183,-1.584 0.2,-2.098 -0.182,-6.112 -3.183,-8.163 -8.896,-6.35 -0.765,0.243 -1.298,0.456 -1.672,0.143 -2.406,-7.03 -3.488,-25.508 -3.485,-25.508 l 16.123,-27.31 27.35,-0.152 0.472,104.35 0.99,54.696 -13.96,10.166 -0.203,-35.037 c 0,0 -2,-0.956 -2.524,-1.02 -0.197,-0.016 -0.45,0.424 -0.095,0.65 0.513,0.328 1.775,0.786 1.775,0.786 l 0.296,34.728 c 0,0 -5.427,3.652 -7.854,5.174 -1.81,1.124 -7.53,4.005 -10.92,5.664 -1.314,0.644 -2.642,1.16 -2.764,1.26 -4.617,1.984 -8.78,3.373 -12.626,5.42 -2.655,1.086 -2.536,0.022 -3.1,-0.846 -5.54,-5.478 -12.694,-5.802 -18.49,-3.273 -0.897,0.333 -2.01,0.623 -2.76,1.144 -0.217,0.16 -0.595,0.34 -0.843,0.4 -0.508,0.12 -1.064,0.346 -1.53,0.715 -0.834,0.658 -1.39,1.733 -1.865,2.8 -0.295,0.66 -1.18,3.74 -1.3,4.652 -0.018,0.153 0.297,0.12 0.308,0.134 0.04,0.057 0.89,-3.73 1.23,-4.445 0.72,-1.53 1.627,-2.445 2.108,-2.59 0.22,-0.037 0.41,0.304 0.113,0.843 -0.592,1.07 -1.072,3.348 -1.216,4.374 -0.127,0.948 -0.153,1.708 0.024,1.74 0.03,0.03 0.87,-2.867 1.245,-3.89 0.982,-2.668 1.6,-3.773 2.548,-4.342 0.97,-0.583 1.2,-0.5 1.01,0.12 -1.445,2.815 -2.04,4.944 -2.323,7.943 -0.043,0.598 0.26,0.615 0.498,-0.375 0.79,-3.15 1.876,-7.407 4.44,-8.678 1.096,-0.495 1.582,-0.47 1.465,-0.118 -3.054,3.858 -3.818,8.142 -3.782,9.524 0.012,0.462 0.2,0.37 0.59,-0.63 1.035,-3.8 2.568,-7.034 4.388,-8.62 0.705,-0.615 1.557,-0.784 2.272,-0.872 2.156,-0.268 2.23,0.53 0.353,1.625 -2.14,1.244 -4.613,5.774 -4.888,9.176 -0.095,1.177 0.322,1.305 0.616,-0.265 1.268,-6.76 7.065,-11.23 11.71,-9.16 2.092,0.932 2.47,2.226 0.65,1.65 -3.682,-1.165 -7.773,1.446 -9.46,5.088 -1.524,3.292 -1.49,5.022 -0.42,9.43 0.732,4.074 2.157,9.28 1.687,13.267 -0.507,0.776 -2.106,-0.318 -3.995,-0.55 -1.14,-0.214 -2.532,-0.268 -3.72,0.187 -1.04,0.397 -1.627,0.496 -1.82,-0.062 -0.06,-0.18 0.8,-1.057 1.185,-1.543 0.614,-0.776 0.262,-0.9 -0.603,-0.057 -0.423,0.412 -1.333,1.378 -1.583,1.428 -0.547,0.11 -0.57,-0.505 -0.128,-2.072 1.547,-6.085 1.133,-6.188 -1.52,-7.42 -2.63,-1.002 -1.798,-1.507 -2.962,-2.502 -0.82,0.64 1.07,3.58 3.212,4.224 1.75,0.526 1.538,1.42 0.77,3.83 -0.777,3.37 -2.104,7.832 -1.336,10.826 1.613,6.29 8,6.162 12.89,3.62 l 0.598,1.603 c -4.135,1.674 -25.934,3.105 -33.28,2.26 -0.568,-1.984 -0.625,-2.494 -0.855,-4.83 0,0 4.537,2.048 6.803,2.403 2.828,0.444 7.184,0.465 8.3,-2.14 0.34,-0.763 -0.01,-1.408 -0.986,-0.966 -1.794,0.813 -4.86,1.415 -7.338,1.262 -2.08,-0.13 -5.044,-0.963 -6.325,-1.735 -0.61,-0.366 -1.123,-1.083 -0.646,-1.983 0.422,-0.094 0.978,0.373 1.307,0.542 3.75,1.892 5.81,2.26 8.256,1.533 1.857,-0.55 4.357,-2.553 3.74,-3.12 -0.627,0.217 -2.707,1.964 -4.14,2.345 -2.953,0.784 -6.1,-0.417 -9.167,-2.403 -0.946,-0.82 -0.514,-1.42 0.645,-0.763 4.594,2.312 6.51,3.846 10.905,0.6 0.982,-0.727 1.53,-0.634 2.106,-0.193 2.283,2.043 2.276,0.895 0.604,-1.228 -0.38,-0.482 -0.724,-1.158 -0.95,-1.877 -0.17,-0.532 -0.207,-1.064 -0.51,-1.413 -0.52,-0.596 -1.453,-0.885 -2.52,-1.355 -1.54,-0.677 -2.053,-0.35 -0.916,0.203 1.99,0.97 2.96,2.01 0.488,1.45 -2.245,-1.004 -5.992,-0.442 -8.112,1.03 -1.665,0.81 -2.398,1.68 -2.79,-0.156 -0.824,-3.832 -0.022,-9.03 -1.125,-15.717 -0.21,-1.275 -0.468,-2.083 -0.202,-2.257 0.343,-0.224 1.197,0.6 2.257,2.088 0.482,0.678 1.442,1.983 1.436,1.71 0.038,-1.415 -2.165,-4.072 -3.983,-5.12 -0.998,-0.574 -1.677,-3.232 -0.534,-2.647 0.882,0.43 5.47,4.464 6.345,5.902 0.406,0.668 0.75,0.242 0.32,-0.544 -0.26,-0.47 -1.338,-1.855 -2.385,-2.878 -1.86,-1.815 -2.075,-1.73 -1.718,-2.102 0.706,-0.736 2.218,0.212 4.913,2.65 0.692,0.873 1.606,1.66 1.493,1.227 0.277,-0.68 -2.42,-3.58 -4.022,-4.356 -0.3,-0.19 -0.34,-0.386 -0.312,-0.747 0.152,-1.37 3.25,0.642 5.82,2.99 0.963,0.88 0.165,-0.775 -0.95,-1.9 -0.877,-0.883 -2.29,-1.983 -3.248,-2.36 -0.952,-0.392 -1.01,-1.222 -0.265,-1.57 2.577,-0.11 5.237,2.524 6.822,4.594 0.438,0.568 0.84,1.006 0.384,-0.07 -1.47,-3.24 -4.524,-5.067 -6.64,-5.437 -1.718,-0.3 -1.68,-1.85 -0.065,-1.676 1.777,0.193 4.686,1.797 7.153,4.28 0.717,0.72 1.925,2.36 1.676,1.398 -0.01,-0.262 -0.763,-1.288 -1.638,-2.277 -2.017,-2.004 -4.363,-3.775 -6.85,-4.302 -1.163,-0.33 -4.614,0.336 -4.634,-0.262 -0.01,-0.44 0.36,-0.706 1.46,-1.07 4.265,-1.42 10.51,2.244 13.924,7.877 0.244,0.403 0.707,0.575 0.735,0.484 -1.647,-4.603 -6.77,-8.776 -10.845,-9.49 -2.77,-0.445 -5.565,0.262 -6.894,2.13 -1.494,2.1 -0.91,4.91 1.336,4.686 1.178,-0.11 1.084,-0.777 1.062,-0.8 -0.08,-0.078 -0.764,0.244 -1.188,0.16 -1.535,-0.3 -1.374,-3.077 0.873,-2.803 2.584,0.315 2.95,4.39 0.06,5.247 -2.664,0.79 -3.64,-0.427 -4.37,-1.87 -1.067,-2.115 0.08,-5.525 1.96,-6.832 5.27,-3.66 11.935,-0.592 15.7,3.036 1.865,1.795 3.226,3.93 4.08,6.23 0.22,0.536 0.617,0.504 0.475,-0.07 -5.296,-13.51 -21.1,-14.97 -23.45,-4.605 0,0 -0.08,0.316 -1.6,-1.845 -2.464,-3.502 -6.144,-4.282 -10.676,-1.895 -4.58,1.72 -6.123,2.816 -9.298,4.458 -0.463,0.164 -3.4,2.19 -3.87,1.768 -4.496,-2.982 -8.417,-4 -10.552,-6.184 0.074,-0.4 -0.306,-6.46 -0.306,-6.46 l 0.105,-26.124 c 0.033,-0.255 -2.38,0.173 -6.395,0.803 -10.68,2.132 -9.745,-3.484 -11.158,-3.88 -0.747,-0.148 -0.692,0.172 -0.895,-19.97 -0.06,-5.85 -0.175,-16.133 -0.26,-22.854 -0.087,-6.72 -0.11,-12.32 -0.05,-12.438 0.06,-0.118 0.66,-0.633 1.352,-1.123 2.602,-1.844 4.063,-2.96 9.757,-7.304 1.29,-0.983 1.616,-1.15 1.616,-1.15 0.654,12.102 0.067,24.81 0.39,35.212 l 0.48,0.003 -0.187,-34.932 c -0.983,-0.257 22.452,-13.97 35.296,-18.42 0.24,-0.083 0.84,0.185 0.84,0.185 7.372,9.033 26.768,6.298 28.33,-4.7 3.214,6.705 17.332,19.73 23.783,4.03 0,0 2.337,4.51 4.343,4.807 4.508,0.6 5.008,-0.113 14.93,-4.925 -11.345,17.212 -17.6,35.436 -18.402,57.507 z m -6.03,-4.292 c 0.25,0.76 0.333,1.743 0.12,2.518 -0.29,0.607 -0.72,0.598 -0.72,0.598 l -2.198,-1.877 -2.15,1.993 c 0,0 -1.315,-1.325 -0.593,-3.16 1.374,-2.568 4.522,-2.104 5.54,-0.07 z m 56.773,-0.303 c 1.407,-0.09 0.68,1.53 -1.4,2.626 -1.307,0.688 -2.39,0.882 -2.858,0.633 -0.257,-0.758 -0.04,-1.45 0.12,-1.76 0.888,-0.455 3.328,-1.255 4.138,-1.498 z m -90.81,3.05 c 1.563,-0.04 2.916,1.073 2.966,3.044 0.02,0.803 -0.392,1.6 -0.392,1.6 l -2.61,-1.925 -1.993,2.127 c -0.34,0.12 -1.56,-1.404 -0.722,-3.06 0.61,-1.206 1.682,-1.76 2.75,-1.786 z m 37.733,0.903 c 2.195,0.996 2.576,4.065 0.44,5.247 -1.014,0.562 -2.61,0.875 -3.358,-0.262 l 2.158,-2.352 -2.477,-2.084 c -0.098,-0.097 1.896,-1.156 3.236,-0.55 z m 52.692,-0.806 c 0.378,-0.002 0.475,0.143 0.583,0.496 0.31,1.002 -0.473,2.01 -1.825,2.33 -1.25,0.295 -1.13,0.44 -1.72,-0.675 -0.465,-0.873 -0.588,-0.836 0.137,-1.113 0.877,-0.284 1.814,-0.616 2.826,-1.038 z m -62.435,1.504 c 0,0 -1.558,1.583 -2.24,2.245 l 2.345,2.444 c 0.113,0.297 -2.704,1.572 -4.186,-0.35 -0.962,-1.25 -0.42,-3.625 0.946,-4.44 1.395,-0.832 3.394,-0.14 3.135,0.1 z m 3.357,-0.276 c 1.384,-0.02 2.52,1.083 2.54,2.467 0.02,1.383 -1.083,2.524 -2.467,2.544 -1.383,0.02 -2.524,-1.09 -2.544,-2.473 -0.02,-1.383 1.087,-2.52 2.47,-2.54 z m -34.25,4.216 -2.248,2.353 2.43,2.645 c 0,0 -1.923,0.314 -2.606,0.186 -3.31,-0.62 -2.985,-4.5 -0.426,-5.525 1.08,-0.38 1.883,-0.252 2.85,0.34 z m -44.117,0.8 c 0,0 0.443,4.983 0.847,6.686 -0.266,1.942 -1.523,3.265 -2.088,5.26 -0.3,0.886 -1.434,2.08 -1.652,0.83 -0.818,-1.545 -0.037,-3.455 -0.713,-4.555 -0.342,-1.026 -0.24,-1.62 -0.468,-2.695 -0.5,-0.874 -0.9,-1.287 -0.833,-2.08 -0.134,-3.524 -1.014,-2.826 -2.578,-2.538 -1.29,0.425 -3.03,0.596 -4.05,1.35 -2.215,1.56 -1.01,2.454 -1.845,4.81 0.132,1.03 0.384,1.402 0.203,2.292 -0.854,4.206 0.723,3.857 0.675,3.923 -0.657,0.966 0.154,3.14 0.468,3.03 1.926,0.47 1.23,1.876 1.855,2.622 0.628,0.72 0.595,1.084 3.232,1.15 4.764,0.372 12.334,-0.336 13.97,-6.144 1.02,-8.19 2.512,-15.404 -7.024,-13.943 z m 47.36,-0.803 c 1.337,-0.02 2.435,1.048 2.454,2.384 0.02,1.336 -1.047,2.434 -2.383,2.453 -1.336,0.02 -2.434,-1.047 -2.453,-2.383 -0.02,-1.336 1.048,-2.434 2.384,-2.453 z m -45.274,1.27 c 0.9,-0.01 1.96,0.18 2.833,1.016 1.87,1.793 1.95,3.418 1.122,10.315 -0.234,1.944 -0.918,3.568 -1.824,4.276 -1.82,1.42 -4.048,2.434 -5.884,2.886 -0.97,0.238 -1.812,0.243 -2.468,0.238 -0.708,-0.005 -1.12,-0.332 -1.173,-0.926 0.156,-1.606 -1.484,-1.762 -2.434,-1.67 -1.692,0.066 -1.865,0.244 -0.81,-0.574 1.207,-0.934 3.985,-0.947 4.513,-0.4 1.083,-1.085 2.213,-1.212 3.596,-1.373 -0.206,-0.3 -0.7,-1.504 -0.373,-2.276 0.716,-1.258 1.92,-3.48 3.186,-4.313 1.25,-1.636 0.188,-0.896 -0.588,-0.868 -0.444,0.015 -0.406,-0.13 -0.478,-0.428 -0.31,-1.275 -0.754,-3.658 -0.757,-5.077 0,-0.684 0.64,-0.813 1.54,-0.824 z m -7.972,1.767 c 0.49,0.435 0.483,1.042 -0.03,1.493 -0.59,0.517 -1.755,0.232 -1.784,-0.74 0.078,-0.98 1.222,-1.258 1.814,-0.753 z m 84.418,3.453 c -2.03,0.1 -3.702,-2.07 -2.936,-4.234 0.42,-0.586 0.6,-0.502 0.6,-0.502 l 2.31,2.064 2.217,-2.32 c 1.827,2.205 0.26,4.828 -2.19,4.992 z m -86.89,-3.362 c -0.167,0.634 0.05,1.265 0.08,1.573 -0.403,0.287 -2.117,0.788 -3.036,1.24 -0.64,0.22 -1.1,-0.38 -1.012,-0.928 0.24,-1.02 1.742,-1.686 2.832,-2.002 0.337,-0.083 0.89,-0.114 1.135,0.118 z m 0.375,2.92 c 0.62,-0.075 0.437,1.27 0.205,1.96 -0.23,0.49 -0.91,0.47 -1.523,0.506 -1.08,0.064 -2.443,1.31 -3.028,1.11 -0.194,-0.09 -0.333,-0.603 -0.353,-0.93 0.128,-1.796 3.113,-2.455 4.7,-2.646 z m 3.267,1.87 c -0.206,0.302 -0.87,0.448 -1.424,0.295 -0.908,-0.25 -1.047,-1.552 -0.25,-2 1.407,-0.465 2.252,0.855 1.674,1.706 z m 89.714,-2.966 -1.23,1.876 -1.873,-0.034 3.025,9.282 1.4,-3.627 c 0.188,-1.67 0.41,-3.334 0.582,-5.003 z m -39.824,0.783 2.394,1.952 2.053,-2.1 c 1.528,3.406 -0.232,4.965 -2.105,4.924 -2.065,-0.045 -4.267,-2.002 -2.342,-4.775 z m -52.552,3.52 c 0.758,-0.144 0.434,1.905 0.328,1.964 -0.484,0.178 -2.572,0.45 -3.45,1.192 -1.873,1.467 -2.672,0.572 -1.805,-1.186 0.82,-1.02 3.84,-1.952 4.927,-1.97 z m 2.382,0.097 c 0.835,-0.078 1.42,0.845 0.91,1.725 -0.69,0.642 -1.904,0.17 -1.9,-0.74 0,-0.57 0.47,-0.955 0.99,-0.985 z m -1.23,5.2 c 0.114,0.478 -0.053,0.33 -0.93,0.59 -0.483,0.14 -1.243,0.463 -2.034,0.863 -1.16,0.585 -1.485,0.9 -1.897,0.834 -0.327,-0.073 -0.704,-0.214 -0.806,-0.546 -0.405,-1.324 0.674,-2.674 3.187,-3.602 0.523,-0.192 1.457,-0.348 1.777,-0.384 0.853,0.003 -0.058,1.312 0.702,2.244 z m 1.485,-1.993 c 1.215,-0.018 1.443,1.594 0.534,1.878 -2.128,0.55 -1.948,-1.88 -0.533,-1.88 z m -1.497,5.94 c 0.34,0.327 0.39,0.864 0.01,1.144 -0.702,0.346 -3.397,0.052 -3.415,-0.705 -0.01,-0.5 0.89,-0.668 1.728,-0.685 0.837,-0.016 1.406,-0.02 1.68,0.244 z m 121.656,0.825 -2.22,2.97 2.98,7.458 2.72,-9.03 -2.137,0.846 z m -125.622,7.663 c 0.514,22.97 0.427,75.607 0.427,75.607 l 6.537,4.443 6.883,-4.946 c -0.07,-16.568 -0.137,-27.996 -0.202,-43.335 l 10.086,5.54 c 0,0 0.308,0.446 0.26,2.52 -0.695,5.723 4.84,9.44 8.513,7.18 1.417,-0.597 1.532,-0.703 1.832,-0.255 0.826,1.23 1.757,6.504 1.912,9.87 0.235,5.067 1.57,15.402 1.89,15.47 l -16.416,27.816 -25.59,0.124 -0.292,-103.443 c 1.33,1.566 1.936,2.593 4.16,3.408 z m 95.255,-2.215 -1.232,1.88 -1.484,0 2.606,9.613 3.154,-9.4 -1.738,-0.216 z m -82.198,76.664 c 0,0 -3.194,2.293 -4.214,2.952 -0.536,0.2 -0.796,0.237 -0.923,-0.276 -0.156,-0.63 0.095,-1.823 0.317,-3.795 0.206,-1.825 0.205,-1.927 -0.098,-4.526 -0.317,-2.715 -0.355,-2.828 -0.098,-6.41 0.286,-3.998 0.342,-7.878 0.025,-10.28 -0.3,-2.285 -0.296,-7.494 -0.066,-10.4 0.282,-3.56 0.19,-6.684 -0.276,-9.267 -0.83,-4.605 -0.968,-6.19 -0.102,-9.655 0.325,-1.297 0.486,-1.986 0.418,-4.157 -0.075,-2.414 -0.12,-3.202 -0.984,-8.547 -0.497,-3.077 -0.536,-3.5 -0.07,-8.368 0.094,-0.982 0.126,-1.64 0.5,-1.95 0.438,-0.365 4.994,-0.63 4.994,-0.63 z m -11.98,-74.362 4.962,-0.054 c -0.383,1.555 -0.47,2.737 -0.508,3.86 l -4.41,-2.896 z m 0.072,1.986 4.364,2.85 c 0.01,1.202 -0.084,2.348 0.09,3.55 l -4.423,-2.936 z m 0.01,4.52 4.67,3.193 c 0.183,1.244 0.563,2.5 0.71,3.62 l -5.296,-3.584 z m 151.026,1.26 0.246,91.718 -46.49,0.208 -14.735,-28.31 c 0,0 0.15,-2.604 0.516,-3.933 0.44,-1.606 0.558,-1.956 1.176,-2.032 1.654,0.858 3.497,-0.282 4.062,-1.535 0.695,-1.544 -0.713,-3.88 -2.872,-4.386 -0.952,-0.228 -1.993,0.2 -3.044,1.002 -0.61,0.51 -0.748,0.568 -0.87,0.124 -0.274,-1 0.614,-3.715 2.2,-6.047 0.882,-1.297 1.12,-1.67 1.406,-1.177 1.155,1.995 3.63,1.582 4.57,0.455 1.138,-1.364 0.9,-4.473 -1.675,-5.298 -5.04,-1.612 -7.353,3.444 -7.29,3.432 l -1.08,-6.062 c 6.067,-1.486 9.568,-2.01 11.495,-3.85 1.516,-1.448 2.24,-3.95 2.05,-6.176 0,0 16.852,-6.844 24.737,-11.094 13.577,-7.318 25.6,-17.04 25.6,-17.04 z m -25.656,0.664 -1.246,2.19 -1.768,0.003 3.576,9.256 2.73,-9.663 -1.704,0.152 z m -125.15,2.656 5.35,3.69 c 0.118,1.198 0.272,2.265 0.11,3.622 l -5.632,-3.726 z m 104.402,-1.134 -1.332,1.77 -1.535,-0.163 3.008,9.165 c 0.915,-2.65 1.748,-6.246 2.653,-8.898 l -1.422,0.068 z m -104.496,5.846 5.537,3.667 c 0.02,1.132 0.075,2.2 -0.32,3 l -5.225,-3.353 z m 114.872,0.53 -1.344,2.584 -1.79,-0.243 3.2,8.785 3.5,-8.703 -2.166,0.116 z m -114.862,3.742 4.8,3.525 c 0.07,0.05 -0.267,1.607 -0.19,2.49 l -4.568,-2.815 z m 0.13,4.36 4.476,3.075 c 0.01,1.164 0.09,2.26 0.274,3.253 l -4.86,-3.155 z m -0.077,4.442 5.175,3.684 0.274,2.96 -5.483,-3.447 z m 42.604,1.234 c 4.967,1.852 9.624,11.296 9.48,23.524 -0.098,8.49 2.466,20.605 2.42,20.465 0,0 -1.442,0.192 -1.85,-0.128 -1.87,-6.232 -2.493,-12.82 -2.79,-18.25 -0.24,-4.53 -0.502,-8.976 -0.79,-10.015 -0.815,-3.653 -1.7,-7.915 -4.034,-10.69 -1.82,-2.095 -3.894,-2.46 -5.133,-0.11 -1.016,1.927 1.122,5.114 2.897,4.055 0.43,-0.24 0.685,-0.65 0.123,-0.638 -1.842,0.273 -3.08,-2.275 -1.914,-3.49 2.053,-2.138 5.645,2.627 3.98,5.25 -0.735,1.134 -2.654,1.334 -4.19,0.916 -3.417,-1.652 -4.274,-5.696 -3.13,-8.36 0.87,-2.032 2.785,-3.246 4.93,-2.53 z m -6.008,1.215 c 0.402,0.018 0.127,0.763 -0.245,1.923 -0.88,2.783 0.77,7.105 3.052,7.966 0.685,0.466 0.648,0.643 0.19,0.9 -1.49,0.837 -4.194,-1.674 -4.908,-4.472 -0.517,-2.023 -0.39,-4.412 0.583,-5.426 0.532,-0.554 0.954,-0.846 1.24,-0.885 0.03,-0.004 0.06,-0.007 0.086,-0.005 z m -36.65,1.64 5.525,3.612 c 0.257,1.127 0.145,2.328 -0.028,3.54 l -5.532,-3.854 z m 33.348,-0.046 c 0.41,-0.014 0.257,0.673 0.143,1.926 -0.263,2.903 0.636,5.013 2.687,6.766 0.864,0.74 1.102,0.97 0.73,1.358 -0.53,0.55 -2.044,-0.187 -3.232,-1.425 -2.175,-2.268 -2.896,-6.548 -1.2,-8.1 0.37,-0.34 0.658,-0.52 0.873,-0.526 z m 61.47,0.503 c 2.36,-0.092 4.355,0.824 4.574,3.71 0.32,4.224 -3.616,6.535 -6.362,4.11 -2.462,-2.436 0.033,-6.248 2.887,-4.462 1.434,0.906 -0.278,2.968 -1.44,1.902 -0.522,-0.48 -0.752,-0.182 -0.38,0.373 1.123,1.677 3.335,0.283 3.177,-1.194 -0.312,-2.902 -3.88,-2.865 -5.223,-1.728 -1.837,1.556 -3.457,3.847 -4.664,5.516 -0.99,1.45 -1.202,1.41 -1.056,-0.38 0.386,-4.728 4.804,-7.702 8.488,-7.845 z m -64.31,0.924 c 0.375,-0.014 0.225,0.525 0.254,1.916 0.152,3.57 1.657,5.79 3.565,7.035 0.64,0.706 -0.18,1.207 -1.383,0.865 -2.74,-0.845 -5.54,-6.735 -3.217,-9.268 0.326,-0.355 0.583,-0.54 0.78,-0.548 z m -2.667,1.17 c 0.38,-0.024 0.166,0.764 0.202,2.253 0.075,3.134 1.045,4.64 3.375,6.552 0.76,0.623 0.854,0.553 0.554,0.9 -0.797,0.918 -3.5,-0.384 -4.654,-2.26 -1.372,-2.234 -1.573,-5.604 -0.297,-6.877 0.356,-0.356 0.622,-0.555 0.82,-0.568 z m -2.65,1.51 c 0.314,0 0.138,0.567 0.187,1.92 0.117,3.282 0.867,4.906 2.95,6.424 1.307,0.955 1.625,0.67 1.225,1.046 -0.7,0.66 -2.617,0.093 -4.055,-1.12 -2.156,-1.82 -2.76,-6.308 -1.01,-7.844 0.314,-0.274 0.537,-0.426 0.702,-0.425 z m -25.097,0.463 5.31,3.68 -0.15,3.11 -5.283,-3.577 z m 92.854,5.828 c -2.163,-0.443 -2.98,-2.003 -2.717,-3.77 0.087,-0.59 0.433,-0.93 0.803,-0.158 0.318,1.226 1.136,2.924 2.253,3.254 0.45,0.133 0.074,0.76 -0.34,0.674 z m -46.494,-3.67 c 2.44,6.137 2.395,12.844 2.8,19.18 0.537,8.423 2.027,14.095 2.514,15.05 0,0 -2.38,0.028 -2.502,-0.316 0,0 -2.246,-11.17 -1.908,-16.693 0.024,-6.182 -1.18,-11.615 -1.914,-14.057 -0.778,-2.163 -0.81,-0.734 1.01,-3.164 z m -46.39,2.397 5.11,3.34 c -0.073,1.143 -0.083,2.286 -0.07,3.43 l -5.007,-3.545 z m 68.7,-0.286 c 0,0.185 0.74,0.342 1.892,0.063 1.28,-0.31 2.553,-0.254 3.536,0.016 1.046,0.286 1.16,-0.05 0.216,-0.463 -0.46,-0.202 -1.194,-0.66 -2.292,-0.64 -1.098,0.02 -3.358,0.618 -3.35,1.022 z m 20.697,-0.13 c 0.124,0.23 0.513,0.745 0.86,1.148 0.658,0.763 0.843,0.768 0.543,1.08 -0.688,0.717 -2.135,-0.323 -2.29,-1.65 -0.135,-0.97 0.348,-1.58 0.887,-0.577 z m -45.747,0.26 c 2.385,3.402 2.738,11.377 2.786,17.046 0.044,5.105 1.77,14.458 1.91,14.417 -0.49,0.29 -1.153,0.19 -1.773,-0.05 -0.614,-0.8 -0.99,-3.04 -1.702,-9.107 -0.184,-1.565 -0.545,-6.545 -0.626,-10.554 -0.073,-3.537 -2.048,-11.19 -2.048,-11.19 0,0 0.767,-0.546 1.45,-0.56 z m -2.656,0.852 c 2.175,4.852 2.528,9.67 2.626,15.517 0.093,5.53 1.32,12.008 1.786,14.867 -0.736,0.076 -1.51,0.137 -1.818,-0.194 -0.196,-0.268 -0.35,-0.688 -0.447,-1.23 -0.99,-4.782 -1.226,-9.983 -1.51,-14.382 -0.425,-6.816 -0.535,-8.503 -1.5,-11.902 -0.55,-1.928 -0.742,-1.887 -0.328,-2.258 0.314,-0.282 0.915,-0.424 1.19,-0.418 z m 24.45,1.116 c 0.06,2.258 0.35,1.338 1.147,0.978 0.6,-0.05 1.09,0.277 2.207,0.687 1.423,0.522 1.295,0.697 2.294,0.207 0.616,-0.303 1.107,-0.407 1.402,-0.168 1.168,0.95 2.676,0.415 3.524,-0.354 0.662,-0.345 1.385,-0.157 1.945,-0.105 0.81,0.074 0.598,-0.44 0.698,-1.463 0.088,-0.906 -0.258,-0.986 -1.196,-0.68 -0.96,0.313 -1.913,0.358 -2.746,0.103 -2.13,-0.65 -3.688,-0.228 -4.744,-0.06 -2.494,0.39 -2.627,0.14 -3.193,-0.218 -0.422,-0.267 -1.118,-0.758 -1.358,-0.743 -0.24,0.014 -0.16,0.832 0.02,1.816 z m 22.127,-1.038 c 0.237,-0.12 0.347,0.202 0.677,0.632 0.553,0.72 0.714,1.058 0.252,1.125 -1.225,0.177 -1.53,0.05 -1.487,-0.712 0.034,-0.607 0.168,-0.845 0.56,-1.045 z m -49.14,1.072 c 1.798,1.81 2.254,11.973 2.458,14.16 0.648,11.855 1.774,13.558 1.196,14.448 -0.68,-0.012 -0.918,0.24 -1.363,-0.355 -1.54,-4.342 -1.45,-8.804 -1.698,-13.335 -0.352,-6 -0.948,-9.25 -1.792,-12.223 -0.56,-1.977 -0.555,-2.01 0.458,-2.552 0.18,-0.097 0.58,-0.15 0.74,-0.143 z m -2.423,1.428 c 0.634,1.44 1.907,7.985 2.08,13.635 0.137,4.486 1.208,13.258 1.407,13.305 -0.655,0.06 -1.44,-0.073 -1.758,-0.57 -1.962,-8.646 -1.337,-17.03 -3.604,-25.725 0.135,-0.42 0.852,-1.117 1.875,-0.645 z m -35.933,1.067 5.298,3.8 0.114,3.24 -5.41,-3.836 z m 78.752,-0.41 c -2.992,1.162 -3.767,2.114 -3.296,2.952 0.396,0.704 1.586,0.456 4.773,-0.874 2.382,-0.993 3.13,-0.56 3.612,0.94 -0.024,2.216 -2.173,2.474 -3.386,2.17 -0.52,-0.02 -0.443,0.027 0.112,0.72 2.466,1.936 5.49,-1.847 3.983,-4.246 -1.18,-2.19 -3.222,-2.815 -5.8,-1.662 z m -18.78,0.9 c -2.467,1.937 -1.585,5.426 0.47,5.95 0.57,0.29 1.423,0.153 1.757,-0.068 0.308,-0.205 0.305,-0.538 -0.325,-0.642 -1.907,-0.318 -2.99,-1.716 -2.07,-3.134 0.896,-1.377 2.553,-1.112 5.74,0.26 2.753,1.188 3.96,0.82 4.285,-0.604 0.144,-0.63 -0.03,-1.22 -1.352,-1.268 -3.676,-0.136 -6.113,-2.372 -8.504,-0.495 z m 33.036,5.342 c -0.164,-1.006 -1.797,0.025 -2.88,1.804 -1.063,1.75 -1.174,2 -1.39,0.184 -0.323,-2.71 2.49,-4.83 4.245,-4.9 2.115,-0.243 3.504,0.94 3.558,2.302 0.106,2.682 -3.095,2.708 -3.532,0.61 z m -93.127,-1.602 5.61,3.853 c 0,0 0.19,2.066 0.07,3.176 l -5.636,-3.606 z m 67.373,1.294 c -2.44,1.655 -1.006,4.675 0.7,5.015 1.8,0.358 1.927,-0.898 0.138,-1.268 -0.955,-0.377 -1.2,-1.287 -0.827,-1.99 0.853,-1.396 2.43,-0.493 3.35,-0.057 2.035,0.968 3.09,1.323 3.733,0.653 1.143,-1.19 0.123,-3.313 -1.386,-2.564 -0.407,0.202 -0.713,0.394 -1.58,0.18 -1.314,-0.276 -2.892,-0.57 -4.127,0.03 z m -67.326,3.287 5.52,3.777 -0.17,3.34 -5.18,-3.8 z m 0.114,4.59 5.192,3.7 c -0.076,1.412 -0.04,1.974 0.016,2.874 l -5.25,-3.39 z m 91.805,0.713 c 4.164,0.407 2.784,5.188 -0.123,3.898 -0.775,-0.582 -1.01,-0.535 -1.87,1.562 -1.102,2.683 -1.37,2.465 -1.22,-0.635 0.112,-3.035 1.506,-4.8 3.213,-4.824 z m -32.8,0.728 c 0.1,0.003 0.18,0.02 0.228,0.06 0.28,0.314 -0.563,1.562 -1.28,2.295 -0.526,0.346 -1.81,-0.59 -1.497,-1.045 0.363,-0.443 1.88,-1.24 2.55,-1.31 z m 5.556,2.463 -0.743,0.107 c -1.124,-2.503 -3.458,-1.93 -4.18,0.395 l -1.025,-0.117 c 1.036,-2.85 4.733,-4.597 5.95,-0.385 z m 20.96,0.572 -1.258,0.075 c -1.13,-2.715 -2.73,-3.12 -4.085,-0.438 l -0.975,-0.282 c 1.678,-3.43 4.484,-3.704 6.32,0.645 z m -6.294,-3.097 c 0.645,-0.04 0.56,0.257 -0.11,1.174 -0.582,0.797 -0.724,0.922 -1.31,0.487 -0.96,-0.714 0.636,-1.61 1.42,-1.662 z m 5.967,0.08 c 0.123,0.007 0.266,0.02 0.43,0.06 1.297,0.32 1.893,0.935 1.256,1.724 -0.397,0.49 -0.784,0.684 -1.045,0.355 -0.876,-1.444 -1.36,-2.183 -0.642,-2.14 z m -19.607,0.854 c 0.136,0.538 -0.29,0.92 -0.764,0.473 -0.193,-0.182 -0.36,-0.493 -0.337,-0.722 0.297,-0.28 1.007,-0.047 1.1,0.25 z m -65.638,1.847 5.338,3.832 c 0.175,1.35 0.21,2.376 0.203,3.298 l -5.496,-3.64 z m 77.804,1.16 c 3.074,2.107 6.68,2.078 8.935,0.228 0.504,-0.413 0.943,-0.43 0.952,-0.034 -0.322,1.477 -4.243,3.37 -7.305,2.298 -1.683,-0.59 -3.065,-1.174 -4.17,-2.746 -0.655,-1.023 0.695,-0.363 1.587,0.254 z m -1.3,1.027 c 4.492,3.876 8.065,2.8 10.772,0.845 0.4,-0.1 0.407,0.26 0.496,0.93 0.114,0.856 -0.598,1.28 -2.545,1.863 -3.764,1.127 -8.18,-0.108 -8.975,-2.632 -0.093,-0.496 -0.284,-1.14 0.25,-1.006 z m -76.523,2.322 5.41,3.71 -0.172,2.837 -5.27,-3.563 z m 0.085,4.345 5.11,3.462 -0.018,2.348 -4.97,-3.54 z m 37.105,1.102 c 21.794,4.93 37.24,2.588 52.398,-0.083 l 13.43,26.337 -80.927,0.11 c 5.286,-8.56 9.683,-17.918 15.1,-26.363 z"
         id="path4693" />
      <path
         inkscape:connector-curvature="0"
         d="m 2776.29,48.528 0,2.87 2.937,0 0,24.98 -2.937,0 0,3.092 8.533,0 0,-3.093 -2.263,0 0,-7.087 3.428,-4.747 5.14,11.834 -3.283,0 0,3.093 9.307,0 0,-3.093 -2.226,0 -6.812,-15.214 6.473,-9.81 2.4,0.046 0,-2.872 -9.24,0 0,2.87 2.663,0 -7.85,12.047 0,-12.044 2.33,0 0,-2.872 z m 71.737,15.42 4.033,7.54 0.01,0.354 2.23,4.353 0.336,0.216 0.502,0.95 0.056,0.46 1.245,1.99 -0.01,0.428 5.28,9.82 c 4.353,-1.625 40.123,-4.552 53.368,0.236 l 1.93,-3.27 0.46,-0.002 3.402,-5.968 -0.054,-0.502 1.145,-1.305 0.167,-0.594 3.754,-5.874 0.014,-0.948 4.695,-7.826 z m 80.992,1.128 c 0,0 -2.45,4.707 -3.71,6.61 -1.023,-0.806 -3.983,-0.26 -3.806,2.862 -4.826,-1.828 -5.99,3.928 -2.258,5.223 -1.915,1.673 -3.745,-0.218 -5.197,-1.5 -1.42,0.352 -4.37,1.395 -6.038,-1.675 0,0 0.698,0.377 1.394,0.786 3.947,1.2 4.266,-4.124 1.33,-4.996 -0.37,-0.098 -1.066,-0.137 -1.066,-0.137 0.987,-4.096 -5.35,-5.525 -5.47,-0.604 0,0 -0.752,-0.123 -1.323,-0.018 -3.36,0.612 -2.59,5.564 0.843,5.327 0.474,-0.033 0.896,0.052 0.896,0.052 -0.056,0.793 -4.21,2.31 -7.204,-0.42 -1.42,1.08 -3.666,2.436 -6.595,-0.26 1.926,-0.077 3.774,-0.626 3.752,-2.81 -0.014,-1.42 -1.293,-2.69 -3.136,-2.757 -0.104,-1.588 -1.287,-3.104 -2.824,-3.22 -1.875,0.11 -2.834,1.622 -2.847,3.22 -1.595,0.165 -3.087,1.57 -2.744,3.182 0.466,2.2 2.16,2.47 4.096,2.05 -2.353,3.782 -6.184,1.81 -7.365,0.604 -1.405,1.312 -3.857,3.088 -6.877,0.66 1.61,-0.276 3.4,-1.22 3.097,-3.465 -0.238,-1.77 -2.224,-2.297 -3.088,-2.203 0,-1.17 -0.885,-3.1 -2.97,-2.9 -2.275,0.218 -2.14,3.094 -2.112,3.117 -1.88,-0.155 -3.242,2.054 -2.706,3.465 0.652,1.715 2.017,2.25 4.526,1.786 -2.927,2.746 -4.786,1.68 -6.384,1.103 -1.414,1.48 -3.302,1.96 -5.238,0.645 4.33,0.206 3.64,-7.448 -1.494,-4.672 -0.444,-1.436 -1.106,-3.204 -3.795,-2.79 l -3.066,-5.918 z m -99.15,4.894 c -0.22,0.002 -0.445,0.013 -0.673,0.028 -8.294,0.53 -11.357,6.295 -10.966,11.4 0.264,3.445 2.144,6.386 4.876,7.982 1.17,0.892 1.417,1.227 1.21,1.645 -0.242,0.493 -0.57,0.446 -1.234,-0.165 -9.49,-9.077 -22.85,1.586 -16.94,13.356 4.7,9.36 17.89,7.194 20.716,-3.337 0.225,-0.84 0.587,-1.202 0.976,-0.973 0.277,0.163 0.058,1.25 -0.165,2.9 0.015,5.962 -6.19,15.345 -6.54,15.662 l 16.27,-0.015 c -3.732,-5.096 -5.92,-10.095 -6.374,-17.37 -0.045,-2.2 0.78,-1.73 1.476,0.765 3.18,11.388 17.662,11.28 20.947,0.188 3.063,-10.35 -8.462,-19 -16.102,-12.03 -1.098,1 -1.842,1.187 -1.857,0.456 -0.01,-0.31 1.02,-1.463 1.962,-2.197 1.906,-1.486 3.496,-4.268 3.512,-7.086 0.035,-5.694 -4.2,-11.29 -11.093,-11.21 z m -8.74,48.5 -0.02,0 c 0,0.01 0.01,0.01 0.02,0 z m 67.537,-45.85 c 0.21,-0.01 0.432,0.034 0.65,0.145 0.678,0.345 0.804,0.946 0.392,1.834 -0.146,0.31 -0.356,0.67 -0.322,1 4.768,8.79 15.28,4.862 16.27,0.777 0.063,-0.26 -0.057,-0.543 -0.193,-0.82 -0.404,-0.673 -0.35,-1.223 0.174,-1.684 1.118,-0.98 2.723,0.177 2.074,1.5 -0.172,0.348 -0.352,0.73 -0.222,1.197 2.7,6.128 8.073,6.588 12.583,4.163 -2.077,3.72 -10.13,6 -13.512,-2.956 -5.397,7.296 -13.962,7.158 -17.85,-1.08 -3.495,8.427 -14.043,8.626 -17.882,1.627 -3.493,8.007 -11.597,6.19 -13.892,1.18 7.528,5.446 12.488,-0.24 13.38,-2.665 0,0 -0.175,-0.284 -0.415,-0.52 -0.964,-0.945 -0.937,-2.057 0.06,-2.498 1.28,-0.566 2.477,0.662 1.82,1.866 -0.183,0.338 -0.346,0.412 -0.226,0.703 2.343,5.46 13.88,7.047 16.22,-0.612 0.078,-0.438 0.033,-0.842 -0.166,-1.174 -0.548,-0.915 0.15,-1.947 1.057,-1.985 z m -33.68,3.092 c 1.82,0.103 1.31,1.668 0.946,1.787 z m 67.578,0.976 c 0.012,0.03 -1.122,2.027 -1.122,2.027 -0.6,-0.96 -0.445,-2.153 1.122,-2.027 z m -6.153,10.094 c 0,0 -1.162,2.57 -1.546,2.786 -21.557,-5.52 -51.635,-0.72 -52.375,-0.188 l -1.323,-2.494 c 18.9,-3.776 37.746,-2.97 55.245,-0.104 z M 2785.977,85.91 c -0.667,0.008 -1.37,0.16 -2.098,0.49 -3.748,1.7 -4.07,6 -0.702,9.396 0.536,0.54 0.98,1.055 0.98,1.14 0.01,0.384 -0.373,0.315 -1.29,-0.24 -5.153,-3.105 -10.18,0.622 -8.087,5.998 1.692,4.34 8.37,3.683 9.407,-0.93 0.137,-0.614 0.582,-0.992 0.778,-0.66 0.166,0.285 -0.324,2.633 -0.82,3.938 -0.653,1.713 -1.04,2.61 -1.434,3.31 -0.478,0.852 -0.51,1.132 -0.14,1.22 0.533,0.128 6.372,-0.032 6.37,-0.174 0,-0.08 -0.248,-0.65 -0.548,-1.273 -1.173,-2.44 -2.068,-6.663 -1.513,-7.143 0.31,-0.27 0.415,-0.132 0.838,1.118 2.09,6.178 9.856,4.688 9.707,-1.863 -0.1,-4.456 -4.178,-6.413 -7.854,-3.77 -0.835,0.6 -1.083,0.633 -1.16,0.168 -0.03,-0.185 0.116,-0.4 0.41,-0.598 4.656,-3.147 1.83,-10.184 -2.842,-10.127 z m 94.02,39.07 c -2.083,8.027 -7.12,8.844 -13.207,9.82 -7.537,1.21 -12.45,-1.537 -14.746,-5.733 0,0 -10.78,4.073 -14.714,6.44 8.18,3.747 18.985,12.045 25.128,21.466 2.19,2.872 2.078,2.223 2.075,8.524 -0.01,13.665 0.023,18.745 0.023,18.745 3.375,0.506 3.56,2.826 3.376,5.433 2.71,-1.196 5.315,0.267 5.303,2.823 -0.02,4.698 -4.637,3.422 -5.596,2.904 1.5,4.14 -0.262,5.856 -2.06,6.06 -2.218,0.25 -4.762,-0.817 -4.02,-5.556 -2.42,0.94 -5.48,-0.767 -5.905,-3.62 l -0.118,-4.833 c 5.98,-11.252 -1.527,-20.4 -8.576,-23.408 0,0 1.996,-4.123 4.575,-5.28 0.262,-0.08 -1.564,-2.758 -4.635,-2.174 -1.413,0.03 -1.084,0.02 -2.414,-1.706 -2.628,-3.412 -3.865,-3.646 -6.426,0.005 -1.127,1.606 -1.396,1.65 -2.73,1.677 -1.468,0.03 -3.722,1.085 -4.205,2.028 -0.11,0.215 0.466,0.435 1.23,1.33 1.102,1.285 2.8,3.052 2.532,4.85 -5.804,2.362 -15.433,12.724 -5.308,25.992 l -7.323,0.094 -0.35,-47.23 -5.09,2.834 0.226,36.995 -1.452,-0.482 c 0.112,-11.8 -0.066,-23.593 -0.438,-35.387 l -13.427,9.784 0.6,55.47 1.427,0.303 c 1.06,7.558 16.033,2.272 16.907,2.928 l 0.178,30.824 -0.655,1.526 11.913,6.51 10.93,-5.666 c 0,0 1.474,-0.265 2.026,-0.556 4.532,-2.388 7.91,-1.852 10.372,1.65 1.52,2.16 1.778,2.48 1.778,2.48 0.92,-6.234 6.448,-8.53 11.81,-6.902 3.943,1.198 9.33,5.127 10.98,9.924 0,0 0.296,0.722 0.59,1.047 l 0.226,0.1 c -0.015,-0.126 -0.26,-0.724 -0.354,-1.015 -5.53,-12.7 -21.113,-14.647 -23.516,-4.27 l -2.207,-3.094 11.604,-7.114 15.855,10.433 c 0,0 -0.746,3.668 -0.83,5.252 l 0.273,0.127 c 0.077,-0.2 0.19,-0.96 0.26,-1.438 0.25,-1.732 0.71,-3.187 1.333,-4.3 0.375,-0.67 0.81,-1.215 1.297,-1.62 0.947,-0.55 1.825,-0.495 2.786,-1.397 l -2.316,-1.73 -0.052,-5.554 4.654,6.516 c 1.463,-0.34 7.16,-2.04 10.54,-0.157 0.383,0.118 5.34,-1.295 8.426,5.62 l 14.86,-6.17 c 0,0 0.948,-0.535 0.958,-0.676 -14.818,-5.467 -29.78,-24.826 -28.34,-25.138 0,0 -0.043,-1.987 0.07,-6.86 0.12,-5.433 0.056,-10.978 0.147,-16.428 -5.043,-1.61 -3.79,-5.674 -3.79,-5.674 -3.03,0.664 -3.514,0.076 -4.28,-0.458 l -0.524,-5.143 c 1.817,-1.547 2.908,-1.69 5.157,-1.198 0,0 -1.09,-2.236 -0.1,-4.074 0.836,-1.455 3.06,-2.373 4.834,-1.35 2.294,1.564 1.562,4.838 1.235,5.296 2.383,-1.068 5.298,0.122 6.015,2.48 0.357,-6.972 0.963,-14.777 2.362,-20.858 2.58,-10.975 6.803,-22.47 12.093,-31.507 0.865,-1.51 1.97,-3.023 2.86,-4.437 0.83,-1.26 1.223,-2.074 1.223,-2.074 0,0 -1.132,0.623 -2.33,0.957 -1.722,0.467 -3.018,0.91 -3.215,1.108 -1.26,1.06 -2.912,1.847 -4.262,2.434 -4.76,1.852 -7.96,-0.91 -9.935,-5.13 -1.1,5.36 -6.008,9.892 -13.25,7.075 -4.09,-2.172 -5.377,-3.56 -9.203,-9.226 -0.32,-0.58 -1.15,-1.244 -1.15,-1.244 z m 0.156,0.875 c 2.708,5.353 6.76,9.145 10.7,10.66 7.035,2.307 11.675,-2.196 12.984,-6.334 l 1.357,2.3 -10.65,7.56 -16.072,-10.215 c 0.27,-0.247 1.706,-3.846 1.68,-3.97 z m 48.365,0.37 -4.772,2.81 c 0,0 -3.17,5.112 -4.234,7.038 -5.566,9.83 -9.744,20.525 -11.923,31.135 -0.88,3.885 -1.814,10.982 -2.125,14.394 -0.497,5.442 -0.473,7.677 -0.33,12.668 l 0.372,0.405 c 0,0 -0.585,1.026 -1.004,1.89 -1.14,2.35 -1.418,3.68 -1.348,6.403 0.16,6.27 3.97,12.27 9.353,14.715 0.304,0.137 0.708,0.315 0.708,0.315 0,0 -0.923,2.496 -2.598,4.253 -1.117,1.173 -1.357,1.23 -0.962,1.807 0.55,0.802 2.323,1.498 4.526,1.466 0.78,-0.01 0.775,-0.013 2.216,1.556 2.813,3.062 3.66,3 6.22,-0.473 0.76,-1.032 1.192,-1.28 2.304,-1.306 1.635,-0.038 4.62,-1.357 4.606,-1.974 -2.013,-0.89 -4.345,-5.486 -3.974,-5.535 11.008,-5.823 13.34,-17.896 5.3,-26.773 l 7.68,-0.123 0.282,48.16 c 1.503,-0.998 4.903,-3.145 4.903,-3.145 l -0.113,-37.477 c 0.528,0.1 1.066,0.48 2.092,0.646 l 0.3,35.434 c 0,0 1,-0.405 1.868,-0.97 4.29,-2.828 12.692,-9.365 12.692,-9.365 l -0.288,-54.61 -1.122,0 0.18,54.58 -13.037,9.52 -0.085,-33.922 c 0,0 1.03,-0.153 1.415,-0.207 3.815,-0.533 5.582,-5.398 3.05,-8.575 -0.9,-1.128 -0.26,-1.048 1.65,-1.414 3.39,-0.298 5.267,-2.86 4.28,-4.686 -0.422,-0.783 0.13,-0.698 0.487,-1.442 0.234,-0.586 0.19,-1.31 0.09,-1.886 -0.134,-0.755 0.176,-1.09 0.367,-1.57 0.3,-0.754 0.01,-1.607 -0.49,-2.315 -0.527,-0.747 -0.382,-1.55 -0.387,-2.045 -0.023,-1.11 -0.424,-1.268 -1.598,-2.34 -0.89,-0.81 -0.176,-0.986 1.13,-1.658 2.057,-1.058 2.2,-4.803 -0.536,-6.398 -1.462,-0.853 -4.122,-0.784 -9.887,0.126 -2.186,0.346 -4.753,0.576 -4.753,0.576 0,0 -0.02,-21.35 -0.17,-32.357 z m 0,0.754 c 0,0 11.704,6.846 11.61,7.037 -3.93,5.384 -18.59,26.836 -18.697,52.776 -10.75,-1.35 -15.153,7.056 -15.676,7.024 -1.413,-31.75 11.473,-54.467 18.076,-64.11 z m -7.384,4.176 -0.038,0.778 -2.32,3.465 -0.06,-3.466 z m -3.583,1.207 0.085,5.582 -4.752,3.63 -0.28,-5.823 z m -44.048,1.277 2.442,1.688 -0.085,5.54 -3.677,-6.69 z m 66.853,1.867 0.018,4.008 c -9.37,13.216 -14.286,28.31 -15.79,47.428 l -2.28,-0.075 c 0.603,-19.01 7.003,-36.355 18.052,-51.36 z m -63.46,0.41 5.78,3.777 -0.25,6.317 -5.246,-3.365 -0.49,-1.292 z m 34.993,0.27 -0.023,5.874 -4.464,3.315 -0.208,-5.832 z m -54.113,1.536 c 0.662,0.008 1.19,0.49 1.315,1.405 0.49,3.904 3.46,2.777 4.168,3.95 0.267,0.4 -0.366,0.75 -2.4,0.586 -3.728,-0.28 -6.446,-3.295 -4.54,-5.28 0.49,-0.45 1.004,-0.666 1.457,-0.66 z m 25.765,2.518 4.936,3.145 -0.014,6.488 -4.837,-2.952 z m 22.522,0.02 0.38,5.737 -5.4,3.593 -0.195,-5.7 z m 10.282,0.023 -3.102,6.605 -18.1,13.022 -15.02,-9.726 -2.786,-6.374 17.524,11.433 z m -48.81,2.62 c 4.81,-0.058 8.5,5.047 9.764,9.52 0.918,2.958 1.058,4.022 1.155,8.717 0.1,4.784 0.25,5.61 1.146,6.285 0.553,0.416 0.713,0.304 0.783,-0.542 0.156,-1.88 2.403,-0.72 2.442,1.26 0.044,2.198 -2.377,2.905 -4.167,1.215 -0.954,-0.9 -0.966,-0.89 -1.264,0.877 -0.198,1.184 -1.578,8.598 1.947,10.443 0.665,0.063 0.824,-0.47 0.33,-1.09 -0.988,-1.242 0.988,-2.676 2.6,-1.885 1.946,0.956 1.75,4.094 -0.33,5.21 -2.38,1.276 -5.456,-0.175 -6.894,-3.25 -1.054,-2.256 -1.05,-5.384 0.02,-10.032 0.492,-2.14 0.71,-3.504 0.82,-5.147 0.036,-0.54 0.1,-1.126 0.14,-1.306 0.116,-0.5 -0.13,-0.524 -0.984,-0.094 -2.328,1.173 -4.867,0.34 -5.493,-1.806 -0.75,-2.565 2.11,-5.214 3.874,-3.592 0.67,0.615 0.59,1.227 -0.212,1.622 -1.387,0.683 -0.913,2.482 0.56,2.126 4.864,-1.455 0.418,-15.1 -5.057,-16.044 -3.62,-0.626 -6.463,3.498 -3.843,5.704 1.027,0.864 2.068,0.4 1.844,-0.82 -0.313,-1.703 1.95,-1.52 2.786,0.226 1.36,2.84 -2.153,5.15 -5.436,3.578 -5.89,-3.498 -1.864,-11.066 3.47,-11.174 z m 21.805,1.086 4.852,3.257 0.043,6.33 -4.82,-2.856 z m 10.69,0.546 0.022,5.813 -4.68,3.403 0,-6.186 z m 12.61,3.81 -2.395,6.67 -15.11,10.335 -12.465,-7.816 -2.145,-6.172 14.686,9.514 z m -98.068,0.485 0,33.77 c -4.897,0.21 -7.708,5.053 -4.04,9.63 0,0 -0.64,0.085 -1.387,0.187 -3.31,0.454 -5.53,2.21 -5.09,4.338 0.134,0.65 0,1.31 -0.19,1.635 -0.294,0.875 -0.216,1.543 0.18,2.297 0.31,0.59 0.26,0.83 0.085,1.268 -0.376,0.943 -0.286,1.67 0.155,2.39 0.546,0.534 0.394,0.965 0.32,1.82 -0.087,1.208 0.13,1.694 0.892,2.164 0.98,0.605 1.347,1.6 0.23,1.517 -0.553,-0.04 -2.503,1.84 -2.503,1.84 l -0.184,-54.196 z m 26.548,4.333 c 0.876,-0.002 1.78,1.1 3.074,2.956 0.783,1.33 0.797,1.15 2.588,1.08 1.83,0.132 2.945,0.616 3.423,1.168 0.18,0.21 -0.3,0.264 -1.457,1.438 -1.2,1.218 -1.366,1.702 -2.164,3.065 -0.287,0.492 -0.913,0.538 -1.207,0.09 -0.237,-0.362 0.37,-1.542 1.51,-2.932 1.605,-1.55 1.268,-1.707 -1.066,-1.462 -1.64,0.173 -1.814,0.09 -2.437,-0.905 -1.856,-3.69 -2.843,-3.565 -4.62,0.114 -0.485,1.03 -0.292,0.964 -2.395,0.802 -1.656,-0.128 -2.066,0.29 -1.132,1.16 1.46,1.197 2.028,4.022 1.947,3.988 l -1.126,0.104 c 0,0 -0.345,-0.636 -0.495,-1.037 -0.306,-0.81 -1.127,-2.03 -2.018,-2.993 -1.263,-1.364 -0.57,-2.11 2.25,-2.414 1.57,-0.17 1.605,-0.19 2.328,-1.25 1.272,-1.864 2.122,-2.967 2.998,-2.97 z m 68.54,3.362 -1.626,5.76 -12.89,9.04 -10.485,-6.997 -1.39,-5.418 12.044,7.63 z m -44.44,4.564 c 0,0 3.727,7.257 5.08,11.96 1.175,4.09 2.81,15.937 2.38,16.666 -0.916,-1.257 -3.943,-0.974 -3.984,-0.962 0.256,-1.388 -0.865,-4.185 -3.447,-4.738 z m 42.41,2.653 -1.288,5.672 -10.976,7.934 -9.057,-6.186 -1.19,-5.483 10.025,6.695 z m -63.808,0.316 1.423,0.494 0.27,10.245 10.98,1.823 0.25,1.754 -12.716,-2.05 c -0.134,-4.37 -0.208,-12.268 -0.208,-12.268 z m -5.573,0.305 0.305,11.914 c -0.118,-0.04 -9.153,1.247 -12.61,2.154 l 0.202,-1.632 c 0,0 6.28,-1.365 10.83,-1.89 0,-3.332 -0.027,-6.836 -0.034,-10.23 z m 102.155,2.193 c 0,0 1.494,0.138 4.69,-0.425 8.242,-1.442 10.474,-0.857 11.528,1.683 1.15,3.94 -3.168,4.035 -3.938,1.534 -0.49,-1.62 -2.26,-1.265 -8.17,0.135 -5.053,1.198 -8.256,0.24 -8.194,-2.624 0.064,-2.943 3.418,-3.203 4.085,-0.302 z m -67.73,-2.155 c 1.02,-0.015 1.86,0.8 1.876,1.82 0.016,1.02 -0.8,1.857 -1.82,1.872 -1.018,0.014 -1.855,-0.797 -1.87,-1.816 -0.015,-1.02 0.796,-1.862 1.815,-1.877 z m -26.774,0.325 1.302,0.392 c 0,0 0.192,7.77 0.23,7.783 2.8,0.618 8.68,1.72 8.68,1.72 l 0.312,1.538 c -2.46,-0.577 -10.306,-1.86 -10.306,-1.86 -0.245,-3.37 -0.217,-9.572 -0.217,-9.572 z m -9.5,0.146 c 0,0 0.01,6.202 -0.098,9.533 0.044,-0.03 -6.658,1.067 -10.06,1.773 l 0.263,-1.245 c 2.69,-0.607 5.62,-1.217 8.585,-1.838 -0.06,-2.44 -0.056,-7.79 -0.056,-7.79 z m 4.786,1.335 c 0.818,-0.013 1.497,0.647 1.51,1.465 0.01,0.818 -0.65,1.487 -1.468,1.5 -0.818,0.01 -1.487,-0.64 -1.5,-1.458 -0.01,-0.818 0.64,-1.496 1.458,-1.508 z m 111.51,3.87 c 0.91,1.35 1.676,1.31 2.574,1.178 -0.226,0.067 -1.287,0.693 -1.226,0.9 0.03,0.104 -0.447,1.812 0.278,1.882 2.735,0.264 1.35,3.104 1.68,3.54 0.738,0.843 1.28,1.377 0.772,2.428 -0.45,0.933 -1.096,0.904 -0.594,1.702 1.09,1.638 -0.416,1.978 -0.283,3.093 0.09,0.673 0.328,1.593 0.08,2.117 -0.75,1.58 -3.393,2.48 -6.332,2.602 -0.418,0.02 -0.1,-0.665 -0.297,-1.098 -0.726,-0.46 -0.33,-1.233 -0.085,-1.74 0.24,-0.672 0.244,-0.673 -0.207,-1.013 -1.254,-0.78 -1.19,-1.138 -1.09,-1.7 0.276,-1.666 0.017,-1.83 -0.485,-2.076 -0.642,-0.316 -0.554,-1.018 -0.267,-1.92 0.197,-0.62 0.057,-0.777 -0.246,-1.342 -0.178,-0.333 -0.23,-0.513 -0.235,-0.726 0.09,-0.86 -0.68,-0.857 -1.76,-0.015 -0.913,1.577 -1.227,3.645 -1.8,4.952 -0.443,1.003 -0.513,2.052 0.014,4.365 1.013,3.537 0.26,4.127 -3.72,3.37 -2.993,-0.735 -3.877,-3.93 -3.045,-7.84 0.135,-0.63 0.1,-1.243 0.04,-1.74 -0.327,-2.69 0.37,-5.276 2.247,-7.042 3.136,-2.95 4.687,-3.398 11.17,-2.985 2.536,0.18 2.73,0.34 2.73,0.34 0,0 0.01,-1.22 0.09,-1.23 z m -46.69,0.81 -0.753,5.483 -6.087,4.295 c -2.866,-2.262 -5.08,-1.51 -7.095,0.915 -1.597,-0.81 -4.79,-3.017 -4.79,-3.017 l -0.815,-6.22 8.85,6.14 z m -64.688,1.302 c 0.818,-0.012 1.487,0.643 1.5,1.46 0.01,0.82 -0.64,1.493 -1.457,1.505 -0.818,0.012 -1.496,-0.64 -1.508,-1.457 -0.012,-0.818 0.648,-1.497 1.466,-1.508 z m 63.67,5.615 -0.334,5.28 -2.164,1.626 -2.178,-0.22 -0.514,-3.273 z m -63.708,0.042 c 0.82,-0.013 1.497,0.647 1.51,1.465 0.01,0.82 -0.65,1.488 -1.467,1.5 -0.818,0.01 -1.488,-0.64 -1.5,-1.457 -0.01,-0.82 0.64,-1.497 1.457,-1.51 z m 5.97,0.164 c 0.817,-0.012 1.486,0.64 1.498,1.457 0.012,0.82 -0.64,1.493 -1.457,1.505 -0.817,0.012 -1.49,-0.643 -1.502,-1.462 -0.012,-0.818 0.643,-1.487 1.46,-1.5 z m -11.868,0.283 c 0.82,-0.012 1.492,0.643 1.504,1.46 0.012,0.82 -0.638,1.493 -1.456,1.505 -0.82,0.012 -1.497,-0.643 -1.51,-1.46 -0.01,-0.82 0.644,-1.493 1.462,-1.505 z m 110.223,0.24 c 0.417,-0.033 1.036,0.586 0.735,1.514 -0.402,1.06 -0.12,1.42 0.552,2.278 0.568,0.726 0.468,0.827 0.382,1.292 -0.13,3.048 1.833,1.73 0.98,3.946 -0.185,0.482 0.06,1.17 0.147,1.74 -0.19,-0.522 -3.804,-0.474 -4.11,0.056 -0.515,-0.077 -1.166,-3.47 -0.646,-3.918 0.066,0 0.443,0.582 0.636,0.91 0.485,0.823 0.59,0.793 0.44,-0.16 -0.602,-3.783 -0.242,-7.633 0.885,-7.657 z m -92.373,0.264 c 0.818,-0.01 1.492,0.645 1.504,1.463 0.012,0.818 -0.643,1.487 -1.462,1.5 -0.818,0.01 -1.487,-0.64 -1.5,-1.458 -0.01,-0.818 0.64,-1.492 1.458,-1.504 z m -24.007,0.275 c 0.818,-0.012 1.487,0.643 1.5,1.46 0.01,0.82 -0.64,1.49 -1.457,1.5 -0.82,0.012 -1.497,-0.638 -1.51,-1.456 -0.01,-0.82 0.65,-1.493 1.467,-1.505 z m 58.122,0.43 4.44,2.88 c 0.074,0.908 -0.043,2.208 0.255,2.65 -2.898,-0.27 -4.365,1.38 -4.365,1.38 z m -45.58,2.38 c 4.86,0.035 9.57,0.81 13.945,2.225 l -0.344,1.565 c -8.75,-2.252 -18.532,-2.37 -27.878,0.104 l -0.726,-1.646 c 4.71,-1.467 9.436,-2.185 14.03,-2.245 0.326,-0.005 0.648,-0.008 0.972,-0.005 z m -27.487,2.126 c 1.274,-0.02 2.576,0.454 3.493,1.48 1.723,1.932 0.894,5.51 -1.54,6.65 -3.646,1.702 -7.442,-1.94 -5.895,-5.692 0.643,-1.558 2.304,-2.41 3.942,-2.437 z m 90.195,0.458 -0.057,1.57 -1.108,-0.924 z m -23.19,0.07 c 1.605,-0.022 2.927,1.265 2.95,2.872 0.023,1.607 -1.26,2.928 -2.866,2.952 -1.608,0.023 -2.93,-1.26 -2.953,-2.867 -0.023,-1.607 1.26,-2.933 2.867,-2.956 z m -66.925,0.095 c -0.39,0.006 -1.043,0.166 -1.34,0.44 -0.774,0.714 0.01,0.735 1.03,0.923 1.818,0.334 2.32,1.9 2.153,3.592 -0.15,1.538 0.367,1.514 0.783,0.943 1.695,-2.322 0.248,-5.71 -2.626,-5.897 z m 84.424,0.774 c -0.037,0.02 -0.08,0.047 -0.08,0.047 0.02,0.017 0.048,-0.005 0.08,-0.047 z m -57.49,0.914 c 2.177,-0.044 2.406,3.536 0.48,7.535 -0.577,1.202 -0.872,1.053 -1.507,-0.764 -1.565,-4.476 -1.225,-6.722 1.028,-6.77 z m 5.036,0.105 c 0.42,-0.02 0.826,0.14 1.16,0.518 1.17,1.335 0.27,3.494 -2.848,6.818 -0.758,0.81 -1.15,1.117 -1.43,1.123 -0.78,0.016 -0.776,-0.114 0.11,-3 0.39,-1.27 0.776,-2.668 0.858,-3.1 0.26,-1.387 1.226,-2.31 2.15,-2.358 z m -7.878,3.2 c 0.212,0.993 0.585,2.37 0.825,3.066 0.24,0.696 0.397,1.357 0.358,1.467 -0.192,0.533 -1.582,-0.192 -2.574,-1.344 -1.997,-2.32 -2.794,-4.337 -2.38,-5.42 0.605,-0.868 2.155,-1.253 2.87,-0.495 0.737,0.783 0.846,2.462 0.902,2.728 z m 13.77,-2.31 c 2.107,1.243 -0.32,4.08 -5.04,6.432 -2.018,1.006 -1.874,0.553 -0.343,-1.434 0.585,-0.76 1.37,-1.997 1.753,-2.753 0.847,-1.67 1.695,-3.342 3.63,-2.244 z m -21.026,0.01 c 0.67,-0.005 1.353,0.71 2.62,2.546 0.566,0.82 1.484,1.983 2.043,2.59 0.557,0.606 0.996,1.21 0.974,1.338 -0.217,1.288 -6.787,-2.79 -7.26,-4.507 -0.162,-1.045 0.66,-1.98 1.622,-1.965 z m 94.037,3.734 c 1.185,2.436 1.287,3.95 0.307,4.502 -1.393,0.783 -3.184,-0.41 -3.22,-2.145 -0.013,-0.583 -0.612,-2.616 -1.16,-3.937 -0.452,-1.087 -0.514,-1.758 -0.142,-1.812 1.452,0.233 3.602,2.247 4.215,3.39 z m -7.864,-1.85 c -0.46,1.394 -0.945,3.57 -0.94,4.202 0,0.25 -0.148,0.758 -0.33,1.13 -1.202,2.478 -4.05,0.458 -3.002,-2.13 0.944,-2.333 3.347,-4.762 4.294,-4.842 0.647,-0.055 0.042,1.437 -0.023,1.64 z m 1.917,-1.336 c 0.475,-0.047 0.873,0.99 1.486,2.737 0.83,2.36 0.794,4.2 -0.1,4.985 -1.913,1.68 -3.922,-0.76 -3.148,-3.824 0.618,-2.448 1.224,-3.843 1.762,-3.896 z m -64.226,0.432 c 2.384,35.07 -15.594,62.052 -16.875,62.788 l -6.117,3.345 -10.73,-5.847 c 11.118,-15.247 17.765,-32.723 18.27,-53.017 10.286,1 15.578,-7.233 15.453,-7.27 z m 58.953,0.11 c 0.75,-0.204 0.227,0.45 -0.517,1.524 -0.795,1.146 -1.826,4.26 -2.643,4.758 -1.835,0.882 -3.91,-0.798 -2.798,-2.26 1.025,-1.343 4.036,-3.494 5.958,-4.02 z m 10.914,0.24 c 0.288,-0.002 0.826,0.188 1.607,0.57 3.82,1.865 5.704,4.325 4.07,5.502 -1.148,0.826 -2.376,0.185 -3.523,-1.99 -0.388,-0.74 -1.1,-1.836 -1.573,-2.442 -0.86,-1.1 -1.06,-1.64 -0.58,-1.64 z m 21.475,1.248 c 2.454,-0.035 4.47,1.92 4.507,4.375 0.034,2.454 -1.926,4.476 -4.38,4.51 -2.456,0.037 -4.473,-1.93 -4.508,-4.383 -0.036,-2.455 1.925,-4.467 4.38,-4.503 z m -1.353,1.154 c -2.89,1.28 -2.02,5.815 0.47,6.47 1.05,0.294 2.33,-0.144 1.803,-0.65 -3.288,-1.03 -3.31,-3.455 -1.985,-5.23 0.213,-0.285 -0.072,-0.686 -0.29,-0.59 z m -120.32,6.238 c -0.11,2.563 0.444,5.535 -0.78,8.317 -1.856,4.276 -7.816,6.23 -11,5.85 -0.663,-0.27 -1.435,-0.53 -2.09,-0.252 -0.395,0.17 -0.883,0.147 -1.305,-0.05 -0.407,-0.188 -0.797,0.06 -1.192,-0.083 -0.46,-0.31 -1.215,-1.02 -1.127,-1.546 0.144,-0.742 0.087,-1.292 -0.782,-1.536 -1.205,-0.338 -1.45,-0.988 -1.094,-2.895 0.076,-0.413 0.17,-0.6 -0.1,-0.78 -0.886,-0.593 -1.223,-1.693 -0.64,-2.85 0.38,-0.668 0.673,-1.14 -0.01,-1.67 -0.27,-0.61 -0.222,-0.842 0.36,-1.622 0.618,-0.74 0.726,-0.824 0.33,-1.456 -0.893,-1.422 0.117,-2.47 1.32,-3.056 1.608,-0.66 3.015,-1 4.713,-1.197 0.632,0.035 0.605,0.59 0.986,1.126 0.558,0.87 -0.23,2.128 0.225,2.574 0.658,0.304 0.957,0.91 0.905,1.428 -0.023,1.208 0.05,1.62 0.377,2.127 0.363,0.56 0.5,1.588 0.16,2.287 -0.3,0.622 -0.268,0.58 0.128,0.947 0.392,0.362 0.584,2.183 0.445,2.148 l 1.652,-0.15 c -0.172,0.182 0.622,-3.406 2.504,-6.18 -0.103,-2.173 -0.93,-4.17 -0.858,-7.04 4.08,-1.462 7.03,2.007 6.873,5.558 z m 63.39,-4.884 c 0.59,0.463 3.514,1.277 3.62,1.184 -0.09,1.4 0.762,4.12 3.81,5.03 0.037,3.904 0.01,21.928 0.01,21.928 -4.247,-7.115 -6.878,-16.3 -7.435,-28.142 z m -71.03,0.637 c 0,0 0.162,0.518 0.31,1.522 0.262,2.05 -0.02,2.33 -0.565,0.928 -0.638,-1.64 -0.67,-0.362 0.047,3.395 0.174,0.91 0.168,1.12 -0.056,1.735 -0.14,0.385 -0.39,1.28 -0.585,1.98 -0.573,2.063 -0.91,2.655 -1.498,1.014 -0.3,-0.837 -0.552,-0.968 -0.338,-1.623 0.27,-0.82 0.204,-1.434 -0.336,-2.233 -0.09,-0.13 -0.283,-0.43 -0.316,-1.277 0.166,-1.905 -0.682,-1.923 -0.85,-2.415 0.03,-0.745 -0.318,-2.55 0.195,-2.503 0.422,0.04 1.95,0.082 2.673,-0.184 0.32,-0.118 1.32,-0.34 1.32,-0.34 z m 63.298,0.235 c 1.577,-0.023 2.872,1.237 2.895,2.814 0.023,1.576 -1.238,2.87 -2.815,2.894 -1.577,0.023 -2.877,-1.233 -2.9,-2.81 -0.022,-1.577 1.243,-2.877 2.82,-2.9 z m -44.09,1.74 2.163,0.41 c 0.483,0.16 0.132,29.996 -17.188,51.53 l -0.15,-4.988 c 8.24,-11.928 14.175,-26.556 15.175,-46.953 z m 36.693,0.626 0.397,7.13 c -1.22,-1.036 -4.313,-2.976 -4.29,-3.018 l 0.014,-2.635 c 0,0.005 2.66,0.204 3.88,-1.476 z m -16.68,0.1 c 0.522,0.22 0.977,0.725 1.424,1.09 l -1.414,0.952 z m 49.58,0.36 c 9.343,2.77 18.543,2.69 27.64,0.663 l 0.623,1.745 c -9.87,2.676 -19.68,2.52 -29.428,-0.59 z m -45.252,1.333 0.5,3.074 -5.272,3.413 0.256,-4.667 2.75,-1.782 z m 46.68,2.56 c 0.85,-0.012 1.553,0.67 1.565,1.523 0.012,0.852 -0.67,1.553 -1.523,1.565 -0.852,0.013 -1.548,-0.67 -1.56,-1.522 -0.013,-0.852 0.666,-1.553 1.518,-1.565 z m 24.006,0.127 c 0.852,-0.012 1.553,0.67 1.566,1.523 0.012,0.852 -0.67,1.553 -1.523,1.565 -0.852,0.013 -1.548,-0.67 -1.56,-1.523 -0.013,-0.852 0.665,-1.552 1.517,-1.565 z m -44.963,4.796 c 0.692,2.436 0.542,7.94 -0.348,11.672 -0.267,1.12 -0.43,5.1 -0.43,5.1 -0.164,0.21 5.294,-4.516 7.048,1.68 0.604,2.13 -1.848,4.15 -3.49,3.558 -0.32,-0.115 -0.223,-1.17 0.083,-1.79 0.91,-1.853 -1.685,-2.816 -3.163,-1.174 -3.417,3.794 0.098,13.4 5.454,14.332 4.447,0.775 8.012,-3.65 5.045,-6.29 -1.3,-1.152 -3.374,0.437 -2.424,1.906 1.015,1.568 -0.854,2.194 -2.268,0.74 -2.465,-2.536 0.303,-6.352 4.026,-5.47 5.953,1.354 4.728,10.66 -1.513,11.184 -4.772,0.4 -7.985,-1.678 -10.004,-5.365 -1.895,-3.544 -2.036,-6.367 -1.17,-12.58 0.517,-3.688 0.093,-6.796 -0.932,-6.775 -0.562,0.012 -1,0.283 -1.09,0.943 -0.18,1.35 -0.336,1.604 -1.183,1.113 -1.074,-0.622 -1.67,-2.63 0.086,-3.988 1.802,-1.392 4.136,0.78 4.04,1.155 0.044,-0.068 0.225,-0.422 0.467,-2.003 0.787,-5.146 -0.96,-10.584 -3.12,-9.712 -0.475,0.19 -0.418,0.405 0.202,0.754 1.44,0.81 0.17,2.883 -1.636,2.673 -2.56,-0.298 -3.14,-3.867 -0.887,-5.446 3.55,-1.914 6.442,1.083 7.208,3.782 z m -17.466,-4.287 c 0,0 4.54,2.768 4.78,3.48 0.155,0.455 0.34,4.426 0.34,4.426 l -7.878,-4.932 -11.295,6.983 c 0.186,-1.533 1,-5.48 1,-5.48 l 6.005,-3.8 c 0.03,0.23 4.155,2.953 7.05,-0.678 z m 56.4,0.263 c 0.853,-0.012 1.553,0.67 1.566,1.523 0.012,0.852 -0.666,1.553 -1.518,1.565 -0.852,0.014 -1.553,-0.665 -1.566,-1.517 -0.012,-0.852 0.667,-1.557 1.518,-1.57 z m -12.022,0.024 c 0.852,-0.012 1.557,0.666 1.57,1.518 0.013,0.852 -0.676,1.558 -1.527,1.57 -0.852,0.012 -1.55,-0.67 -1.56,-1.523 -0.013,-0.852 0.665,-1.553 1.517,-1.565 z m 6.044,0.35 c 0.852,-0.014 1.558,0.67 1.57,1.522 0.013,0.85 -0.67,1.552 -1.523,1.564 -0.852,0.012 -1.552,-0.67 -1.565,-1.523 -0.012,-0.85 0.666,-1.552 1.518,-1.564 z m -15.134,2.186 c 4.09,0.852 8.19,1.726 12.112,2.155 l 0.16,12.036 -1.145,-0.066 -0.166,-10.754 c -3.788,-0.27 -7.36,-1.084 -10.716,-1.952 z m 30.414,0.392 -0.212,1.414 c 0,0 -7.077,1.224 -10.773,1.7 -0.058,2.424 -0.05,10.52 -0.05,10.52 l -1.415,0.26 -0.01,-12.255 c 4.197,-0.456 8.388,-0.928 12.456,-1.64 z m -68.474,0.68 8.33,5.505 0.98,5.837 -9.71,-6.454 c 0,0 -8.805,5.926 -12.1,8.123 l 1.005,-5.502 z m 38.456,1.088 c 3.354,0.71 6.708,1.447 10.06,1.735 l 0.143,9.683 -1.54,-0.41 -0.123,-7.858 c -2.62,-0.227 -5.31,-0.734 -8.015,-1.306 z m 29.67,0.287 -0.283,1.316 c 0,0 -5.368,0.81 -8.138,1.306 -0.245,0.056 -0.155,8.524 -0.155,8.524 l -1.325,0.202 -0.156,-9.886 z m -15.035,1.085 c 0.852,-0.013 1.547,0.67 1.56,1.522 0.012,0.853 -0.666,1.553 -1.518,1.566 -0.852,0.012 -1.553,-0.666 -1.565,-1.518 -0.013,-0.853 0.67,-1.558 1.523,-1.57 z m -53.22,3.493 9.85,6.648 c 0,0 1.142,3.462 1.386,5.38 l -11.335,-7.318 -14.18,9.4 1.64,-5.807 z m -59.695,0.203 c 0.584,0.01 1.167,0.4 1.47,1.297 0.43,1.264 1.226,1.637 3.325,1.6 4.12,-0.22 8.44,-2.157 12.328,-0.704 1.892,0.696 2.565,3.484 0.982,4.21 -1.718,0.788 -2.45,0.293 -3.046,-1.056 -0.55,-0.573 -1.234,-0.483 -4.926,0.15 -1.63,0.265 -3.543,0.503 -5.153,0.633 -4.117,0.333 -6.39,-0.964 -6.902,-3.414 -0.328,-1.565 0.95,-2.728 1.923,-2.715 z m 112.83,2.25 c 0.852,-0.013 1.552,0.666 1.565,1.518 0.012,0.852 -0.67,1.557 -1.523,1.57 -0.852,0.012 -1.553,-0.67 -1.565,-1.523 -0.012,-0.852 0.67,-1.553 1.523,-1.565 z m -30.174,1.88 c 1.11,-0.015 2.02,0.873 2.037,1.98 0.017,1.11 -0.87,2.022 -1.98,2.038 -1.107,0.016 -2.015,-0.872 -2.03,-1.98 -0.017,-1.11 0.866,-2.02 1.974,-2.037 z m -22.946,1.406 c 0,0 8.105,5.415 11.858,7.916 l 2.074,5.96 -13.804,-8.978 -16.892,10.99 2.027,-6.13 z m 58.518,1.862 c 0.735,1.98 2.07,3.49 3.48,5.02 0,0 -0.786,1.49 -3.588,1.4 -1.53,-0.047 -1.613,0.194 -2.136,1.232 -0.86,1.315 -1.557,2.175 -2.112,2.602 -0.982,0.756 -2.82,-0.373 -4.338,-2.668 -0.552,-0.836 -0.78,-1.034 -2.447,-1 -2.557,0.053 -3.483,-0.656 -2.154,-1.805 1.16,-1.412 1.99,-2.964 3.028,-4.447 l 1.15,0.132 c 0.05,0.17 -0.894,3.02 -2.22,4.177 -0.674,0.76 0.27,1.035 1.913,0.688 1.045,-0.314 1.312,-0.19 2.085,1.405 1.61,3.044 2.447,2.897 4.357,-0.188 0.666,-1.378 0.64,-1.515 2.475,-1.118 1.968,0.197 2.562,-0.05 1.754,-0.736 -1.634,-1.387 -2.536,-4.658 -2.536,-4.658 z m -58.447,4.078 c 0,0 14.657,9.6 14.62,9.392 l 2.936,6.92 -17.203,-11.442 -21.018,13.668 3.145,-6.85 z m 0.565,6.304 5.11,3.36 -0.014,6.05 -5.218,-3.508 z m -1.31,0.174 0.094,5.97 -4.584,2.728 -0.255,-5.6 z m -5.814,3.847 -0.04,0.232 0.107,0.057 0.038,0.003 0.165,5.38 -5.27,3.654 0.018,-6.078 z m 13.5,0.067 4.803,3.206 0.198,6.402 -5.213,-3.413 z m 5.93,3.91 4.818,3.346 0.17,6.393 -4.922,-3.314 z m -25.5,0.022 -0.025,5.907 -4.795,3.347 -0.226,-6.035 z m 50.71,7.623 c -0.953,0.99 -1.304,0.868 -2.118,-0.77 -0.845,-1.698 -2.113,-2.492 -3.95,-2.46 -2.32,0.04 -0.803,-1.48 1.654,-1.66 4.25,-0.187 6.405,2.664 4.413,4.89 z m -56.836,-3.466 0.128,5.927 -4.77,2.48 -0.148,-2.81 2.457,-4.295 z m -6.152,7.92 0.165,1.08 -0.882,0.34 z m 82.27,14.842 c -0.013,-0.002 -0.018,0.003 -0.02,0.018 l 0.057,0 c -0.015,-0.01 -0.03,-0.017 -0.038,-0.02 z m 0.037,0.018 c 0.615,0.406 6.104,8.364 6.487,16.963 0.212,2.28 -0.773,2.714 -1.264,0.548 -0.8,-3.524 -3.013,-6.606 -5.888,-8.208 -14.527,-5.382 -20.73,12.847 -11.155,20.216 3.408,2.467 9.98,2.187 12.29,-1.22 0.72,-1.06 1.446,-0.958 1.538,-0.288 0.045,0.333 -0.122,0.562 -1.01,1.358 -3.59,3.22 -5.736,7.78 -4.596,11.117 1.513,4.428 5.647,7.493 10.415,8.193 5.116,0.752 10.436,-2.85 12.003,-7.53 1.437,-4.29 0.173,-7.908 -3.81,-11.52 -1.872,-1.7 -1.966,-1.836 -1.58,-2.24 0.378,-0.394 0.625,-0.297 1.552,0.598 2.862,2.764 8.197,4.25 11.71,2.626 5.628,-2.6 8.05,-11.364 4.197,-17.1 -2.33,-4.664 -8.68,-6.4 -13.99,-3.823 -2.826,1.373 -5.316,4.58 -6.057,7.798 -0.333,1.446 -1.164,1.707 -1.287,0.405 0.39,-5.233 1.126,-8.66 6.87,-17.878 z m 48.343,8.982 c 0,0 2.092,4.32 2.404,6.595 0.23,1.674 0.264,2.353 -0.193,2.362 -0.146,0.004 -0.507,-0.805 -0.646,-1.438 -1.123,-5.183 -8.65,-5.1 -9.74,0.08 -1.11,5.265 3.654,8.995 7.812,5.718 1.71,-1.175 1.792,-0.635 0.1,1.08 -3.26,3.262 -1.825,7.826 2.276,9.043 5.575,1.654 9.007,-5.142 4.276,-9.462 -0.604,-0.622 -1.152,-1.24 -1.155,-1.372 -0.01,-0.33 0.405,-0.36 0.73,-0.014 2.714,2.848 8.18,1.97 9.02,-1.683 1.572,-6.848 -7.27,-9.773 -9.703,-3.655 -0.595,1.526 -0.504,1.737 -0.81,1.443 -0.172,-0.165 -0.124,-0.798 0.065,-1.655 0.382,-1.734 2.856,-6.992 2.856,-6.992 z m -73.232,18.872 c -20.078,4.296 -39.328,2.778 -53.142,0.222 l -6.313,10.787 -0.434,-0.018 -1.625,2.79 0.174,0.32 c 0,0 -5.246,10.066 -7.454,13.24 25.804,-0.248 82.444,-0.372 82.444,-0.372 l -3.45,-6.94 0.187,-0.19 -3.408,-7.245 -1.11,-1.254 c 0,0 -0.676,-1.31 -1.183,-2.715 -0.466,-1.294 -2.465,-4.837 -2.465,-4.837 l -0.283,0.024 z m -52.416,1.518 c 0.266,0.21 25.72,5.008 52.1,0.08 l 1.444,2.414 c -23.09,5.314 -56.498,0.238 -55.18,-0.254 z m 0.44,4.748 c 2.326,-0.083 4.684,1.167 6.274,3.253 0.506,0.665 1.334,2.622 1.334,2.622 0,0 1.114,-1.844 2.206,-2.767 1.653,-1.396 3.796,-2.562 6.898,-2.452 2.855,0.102 6,1.648 8.835,6.115 0.717,-2.578 10.1,-11.336 17.827,-0.415 0.884,-2.902 5.02,-8.7 11.716,-4.648 0.457,0.978 0.928,2.055 0.928,2.055 -3.95,-2.768 -10.466,-0.91 -12.007,3.41 -0.138,0.525 0.037,0.798 0.24,1.31 2.037,2.91 -3.262,2.84 -1.692,0.485 0.295,-0.535 0.32,-0.976 -0.15,-1.678 -1.242,-1.863 -4.982,-4.18 -7.727,-4.12 -3.17,0.068 -6.68,2.17 -7.854,4.082 -0.434,0.704 -0.533,1.41 -0.152,2.026 0.276,0.622 0.18,1.142 -0.283,1.523 -1.092,0.895 -2.463,-0.138 -1.938,-1.463 0.346,-0.583 0.292,-1.298 -0.415,-2.29 -1.42,-1.995 -4.734,-4.096 -7.618,-4.037 -4.128,0.096 -8.298,3.07 -8.034,5.517 0.116,1.075 -0.178,1.477 -1.056,1.353 -1.068,-0.15 -1.19,-1.16 -0.434,-1.98 0.112,-0.264 0.293,-0.902 -0.052,-1.368 -4.36,-5.895 -10.885,-4.176 -12.38,-2.857 1.452,-2.49 3.48,-3.604 5.535,-3.677 z m -3.882,4.092 c 1.636,0.014 3.398,1.25 3.956,2.216 0.404,-0.42 4.104,-2.183 5.903,0.34 -4.71,-0.355 -4.767,4.643 -1.286,5.124 -1.588,4.822 5.528,5.114 5.077,0.585 5.318,0.786 4.662,-5.954 -0.343,-5.243 2.622,-1.91 4.406,-1.293 7.558,0.896 1.06,-1.38 5.38,-2.668 6.44,-0.26 -4.952,-0.305 -4.108,5.43 -0.41,5.48 -1.1,3.973 6.175,5.434 5.054,-0.5 4.616,0.323 3.947,-5.915 -0.478,-5.4 0.328,-1.134 4.82,-1.625 6.804,0.543 1.823,-1.663 3.836,-2.803 7.472,-0.423 -4.958,-0.826 -5.02,5.61 -0.415,5.224 -0.43,4.263 6.08,4.335 4.993,-0.59 4.956,-1.336 2.23,-6.64 -1.41,-5.18 1.62,-1.927 4.373,-1.018 5.465,-0.627 3.374,-3.86 6.313,-0.632 6.313,-0.632 -5.87,-0.612 -4.594,7.756 1.127,4.72 -0.01,1.722 0.734,3.213 3.07,3.456 l 2.776,5.747 -78.69,0.52 4.342,-7.637 c 0.44,0.138 2.948,0.366 3.488,-2.576 5.17,1.64 5.518,-4.38 1.655,-5.332 0.47,-0.323 0.997,-0.452 1.542,-0.448 z m 121.83,0.712 0,2.918 2.306,0 6.567,14.738 -6.29,10.292 -2.422,0 0,2.612 9.174,0 0,-2.609 -3.055,0 8.41,-12.135 0,12.135 -2.526,0 0,2.612 8.378,0 0,-2.546 -2.754,0 0,-25.096 2.754,0 0,-2.918 -8.378,0 0,2.918 2.527,0 0,7.412 -3.574,4.6 -5.357,-12.012 3.574,0 0,-2.918 z m -124.9,1.466 c 0.515,0.826 0.085,1.364 -0.8,1.386 0,0 0.575,-0.836 0.8,-1.386 z m 64.737,1.066 0.51,1.07 c -0.552,-0.223 -0.62,-0.46 -0.51,-1.07 z"
         id="path4695" />
    </g>
  </g>
</svg>
