<?xml version="1.0" encoding="UTF-8" standalone="no"?>
<!-- Created with Inkscape (http://www.inkscape.org/) -->

<svg
   xmlns:dc="http://purl.org/dc/elements/1.1/"
   xmlns:cc="http://creativecommons.org/ns#"
   xmlns:rdf="http://www.w3.org/1999/02/22-rdf-syntax-ns#"
   xmlns:svg="http://www.w3.org/2000/svg"
   xmlns="http://www.w3.org/2000/svg"
   xmlns:sodipodi="http://sodipodi.sourceforge.net/DTD/sodipodi-0.dtd"
   xmlns:inkscape="http://www.inkscape.org/namespaces/inkscape"
   width="63.281277mm"
   height="88.281372mm"
   viewBox="0 0 224.225 312.80801"
   id="svg19095"
   version="1.1"
   inkscape:version="0.91 r13725"
   sodipodi:docname="KD.svg">
  <defs
     id="defs19097" />
  <sodipodi:namedview
     id="base"
     pagecolor="#ffffff"
     bordercolor="#666666"
     borderopacity="1.0"
     inkscape:pageopacity="0.0"
     inkscape:pageshadow="2"
     inkscape:zoom="0.35"
     inkscape:cx="-546.45893"
     inkscape:cy="156.404"
     inkscape:document-units="px"
     inkscape:current-layer="layer1"
     showgrid="false"
     fit-margin-top="0"
     fit-margin-left="0"
     fit-margin-right="0"
     fit-margin-bottom="0"
     inkscape:window-width="1600"
     inkscape:window-height="838"
     inkscape:window-x="-8"
     inkscape:window-y="-8"
     inkscape:window-maximized="1" />
  <metadata
     id="metadata19100">
    <rdf:RDF>
      <cc:Work
         rdf:about="">
        <dc:format>image/svg+xml</dc:format>
        <dc:type
           rdf:resource="http://purl.org/dc/dcmitype/StillImage" />
        <dc:title></dc:title>
      </cc:Work>
    </rdf:RDF>
  </metadata>
  <g
     inkscape:label="Calque 1"
     inkscape:groupmode="layer"
     id="layer1"
     transform="translate(-262.8875,-375.9582)">
    <g
       transform="translate(-2505.5018,-596.7813)"
       id="g4563">
      <rect
         style="fill:#ffffff;stroke:#000000;stroke-width:0.99699998"
         width="223.228"
         height="311.811"
         x="7374.0708"
         y="-2435"
         rx="10.63"
         ry="10.63"
         transform="translate(-4605.183,3408.238)"
         id="rect4565" />
      <path
         style="fill:#131f67"
         inkscape:connector-curvature="0"
         d="m 2797.99,998.074 c 0.084,79.126 0.926,176.366 0.984,262.546 l 163.716,-0.04 -1.09,-262.124 z m 48.393,1.68 c 28.245,0.767 56.666,-0.062 85.12,0.16 0,0 -10.337,18.007 -13.47,23.675 -0.687,1.245 -0.757,2.127 -0.387,2.644 0.572,0.8 0.525,2.152 -0.116,2.935 -0.274,0.334 -0.4,0.55 -0.42,0.752 -0.02,0.2 0.16,0.42 0.304,0.782 0.506,1.726 -0.8,2.92 -2.167,3.475 -0.917,0.37 -2.958,0.616 -4.465,0.544 -9.442,-0.448 -27.962,-8.428 -35.593,-9.05 -5.296,-1.478 -12.138,-0.96 -17.778,-0.642 -1.065,0.064 -0.878,-2.418 -0.878,-2.418 -0.89,-8.198 -6.696,-15.336 -10.15,-22.86 z m 86.656,0.748 26.69,0.03 0.122,4.31 -11.232,11.512 c -1.058,1.076 -1.892,1.97 -1.892,1.97 l -0.068,10.386 c -7.656,-4.114 -9.182,-9.03 -10.58,-14.437 -12.8,9.443 -13.398,30.106 0.574,40.743 0.114,-4.62 3.636,-13.7 9.876,-14.374 l 0.087,35.994 -7.675,-7.496 -16.686,0.217 c 2.75,-4.464 2.813,-8.01 1.033,-12.193 -3,-6.835 -7.63,-22.44 -7.275,-22.387 0,0 0.133,-0.335 0.51,-0.42 1.384,-0.308 2.264,-1.643 1.87,-3.248 -0.076,-0.518 -0.073,-0.396 0.28,-1.068 1.357,-2.316 -0.26,-4.83 -0.26,-4.83 z m -88.53,0.217 10.016,18.105 c 0,0 -0.13,0.83 -0.078,1.318 0.08,0.7 0.314,1.325 0.715,1.98 0.265,0.43 0.46,1.022 0.52,1.567 0.1,0.9 0.1,0.9 1.415,2.085 0.277,0.25 0.33,0.403 0.227,0.662 -0.435,1.1 -0.18,3.348 0.68,6.033 1.088,3.39 1.37,3.347 -0.656,7.882 -0.423,0.948 -0.934,2.212 -1.482,3.374 -2.5,5.134 -2.886,6.527 1.404,9.263 1.208,0.77 1.562,1.438 1.26,2.972 -0.237,1.208 -0.286,1.98 0.294,2.66 0.377,0.44 0.717,0.514 0.623,0.854 -0.065,0.232 -0.346,1.236 -0.252,2.08 0.253,2.276 -2.376,5.627 -4.774,6.802 -0.48,0.34 -0.616,-0.075 -0.888,-0.55 -2.484,-4.35 -8.668,-2.588 -9.08,2.6 -0.108,1.373 -0.065,1.968 -0.42,2.26 -0.12,0.1 -0.482,0.304 -0.482,0.304 0,0 -9.254,6.02 -15.14,9.113 -0.385,0.202 -0.73,0.535 -1,0.59 -0.313,0.062 -0.546,0.01 -0.74,-0.19 -2.172,-4.132 -0.967,-9.013 -0.78,-10.744 -0.048,-0.612 -0.572,-0.723 -1.362,-0.732 -1.338,-0.016 -3.264,1.34 -3.683,2.606 -0.357,1.075 -0.586,1.772 -0.908,1.767 -0.325,0 -0.483,-0.438 -1.29,-1.988 -1.676,-3.225 -1.935,-3.634 -3.503,-5.507 -1.252,-1.495 -2.32,-1.693 -3.544,-0.58 -0.853,0.774 -0.824,0.102 -1.55,-0.29 -1.252,-0.85 -3.134,-0.088 -3.18,1.11 -0.04,1.007 -0.048,1.764 -1.067,1.83 -1.137,0.074 -1.63,1.54 -1.31,3.63 0.17,1.1 0.202,1.277 -0.135,1.68 -1.097,1.315 -1.24,2.223 -0.637,4.06 1.722,5.233 4.216,8.755 6.56,13.514 0,0 -5.955,3.38 -9.49,5.343 l -0.09,-97.372 z m 115.723,5.174 0.14,84.585 -12.78,-12.565 c 0,0 -0.25,-16.21 -0.238,-22.836 0.013,-6.628 0.11,-13.254 0.082,-14.486 -0.026,-1.233 0.066,-6.476 0.106,-11.86 0.084,-11.278 -0.948,-9.884 1.15,-12.047 z m -24.98,10.14 0.706,2.043 c -5.357,3.07 -11.91,20.17 0.12,32.726 l -0.242,2.587 c -12.608,-11.437 -10.275,-27.838 -0.584,-37.355 z m 0.918,2.414 c 1.84,3.794 3.932,7.153 6.783,9.21 -1.536,3.666 -2.196,7.71 0.406,13.163 -1.826,1.002 -4.362,3.66 -6.986,9.104 -9.493,-9.59 -7.38,-23.493 -0.203,-31.476 z m -70.62,7.168 c 5.265,0.01 10.756,0.868 15.79,2.385 3.174,16.05 8.75,26.838 8.726,33.122 0,0 -0.44,-0.073 -1.376,-0.748 -2.293,-1.656 -5.304,-0.732 -6.917,1.376 -1.528,1.998 0.01,4.776 -0.772,5.942 -1.482,2.172 -5.297,6.19 -5.936,6.057 -0.465,-0.097 -0.39,-0.3 1.245,-2.81 1.702,-2.613 3.008,-4.982 2.446,-5.56 -0.238,-0.246 -0.365,0.273 -1.636,2.48 -2.983,5.182 -5.607,8.386 -6.646,7.97 -0.487,-0.195 -0.235,-0.625 1.974,-3.543 2.495,-3.296 3.187,-5.358 2.94,-6.27 -0.19,-0.7 -0.577,0.432 -1.613,2.457 -1.103,2.143 -3.098,4.53 -4.71,6.825 -0.512,0.83 -1.168,1.31 -2.01,1.688 -0.622,0.27 -1.614,0.71 -2.19,0.637 -0.296,-0.038 -0.092,-0.212 0.314,-0.608 3.18,-3.278 5.918,-6.932 7.47,-10.44 0.24,-0.46 -0.104,-1.116 -0.497,-0.633 -2.38,4.19 -5.696,9.418 -9.296,11.725 -0.773,0.493 -1.935,0.912 -2.983,0.824 -1.772,-0.05 -1.146,-0.445 0.468,-1.482 3.454,-2.22 8.3,-8.6 9.084,-10.855 0.185,-0.534 -0.02,-0.838 -0.362,-0.802 -2.842,4.547 -6.597,9.55 -10.962,11.643 -2.352,1.128 -5.318,1.35 -6.776,0.637 -1.07,-0.523 -0.8,-0.703 1.095,-0.826 4.565,-0.45 9.912,-4.735 12.56,-9.268 1.55,-2.51 0.463,-1.934 -1.307,0.487 -3.022,4.132 -9.023,8.093 -12.743,7.78 -3.763,-0.222 -5.928,-3.138 -5.445,-5.637 0.293,-1.512 1.366,-3.053 3.47,-3.495 3.604,-0.756 5.963,4.952 2.665,6.03 -1.123,0.365 -1.55,0.087 -1.144,-0.363 2.447,-1.07 1.36,-4.01 -0.705,-4.31 -1.297,-0.19 -2.802,0.685 -2.866,2.698 0.038,1.5 1.273,2.967 3.75,3.002 2.938,0.04 7.445,-2.073 10.18,-5.966 1.94,-2.976 0.154,-1.972 -1.293,0.013 -1.276,1.752 -5.4,4.203 -5.714,4.113 l 0.14,-2.018 c 0.063,0.35 6.35,-3.955 5.98,-7.158 -0.236,-2.325 0.104,-3.036 2.525,-3.007 1.81,0.022 4.11,0.656 4.78,1.487 0.69,0.82 1.46,1.08 1.12,-0.305 -0.556,-2.247 0.11,-2.617 -1.193,-2.19 -0.9,0.293 -1.696,-0.428 -2.597,-1.068 -0.99,-0.703 -2.245,-1.004 -3.74,-0.95 -1.118,0.04 -1.622,-0.028 -1.444,-1.082 0.126,-0.743 0.268,-1.42 0.053,-1.906 -0.35,-0.794 -1.75,-1.612 -3.33,-2.777 -1.868,-1.375 -1.522,-1.456 2.455,-10.624 1.67,-3.85 1.678,-4.64 0.676,-7.482 -1.58,-4.49 -1.83,-6.29 1.136,-6.917 1.678,-0.192 3.41,-0.287 5.164,-0.284 z m 16.84,2.602 1.54,0.44 c 0.012,0 4.808,16.414 7.555,24.428 0.838,2.445 1.476,5.75 1.636,8.852 -0.074,4.273 -2.48,7.34 -5.415,7.675 -2.077,0.237 -4.33,-0.84 -5.362,-3.152 -0.87,-2.198 -0.215,-4.79 2.292,-5.685 4.34,-1.55 7.52,3.99 3.263,5.695 -2.2,0.882 -4.293,-0.707 -3.3,-2.558 0.694,-1.297 2.65,-1.156 3.112,0.184 0.377,1.426 1,0.753 0.734,-0.213 -0.807,-3.077 -4.76,-2.352 -5.078,0.483 0,3.512 3.846,4.337 6.14,2.365 1.777,-1.576 1.964,-4.424 1.52,-6.896 -0.61,-5.135 -3.517,-11.795 -5.58,-19.395 -1.03,-3.796 -2.522,-8.32 -3.055,-12.222 z m 61.268,0.183 2.89,1.145 -0.066,9.528 -2.452,0.845 c -3.21,-4.902 -0.54,-11.512 -0.372,-11.517 z m -58.603,0.62 2.12,0.815 c 1.16,6.726 6.63,19.582 8.562,29.178 0.538,5.767 0.624,7.46 -3.282,10.532 l 0,-0.043 -2.114,0 c 0,0 -0.01,-0.13 0.918,-0.82 5.116,-3.827 2.062,-12.258 0.13,-18.74 -3.366,-10.348 -6.374,-20.936 -6.333,-20.923 z m -19.804,0.67 c -0.267,0 -0.54,0.014 -0.815,0.03 -3.196,0.17 -3.72,0.375 -3.73,1.07 -0.02,1.31 0.516,1.89 3.49,1.57 2.57,-0.28 6.298,0.12 8.866,1.225 2.93,1.26 3.625,1.558 4.678,2.1 2.643,1.36 2.18,0.01 -0.208,-1.564 -4.88,-3.208 -8.252,-4.478 -12.28,-4.43 z m 23.06,0.463 1.987,0.758 c 0,0 0.526,1.552 0.715,2.44 1.935,8.585 7.198,18.24 7.814,28.284 0.14,3.29 -0.425,6.36 -2.838,7.844 l -1.82,0 c 1.946,-1.935 3.242,-2.494 2.7,-9.22 -0.862,-8.637 -6.56,-19.43 -8.56,-30.105 z m 3.527,1.395 1.834,0.676 c 2.113,11.595 12.585,28.92 5.92,37.278 l -1.666,0 c 1.487,-2.32 2.1,-4.357 1.877,-7.487 -0.647,-10.535 -6.02,-20.76 -7.963,-30.467 z m 3.075,1.067 1.974,0.603 c 2.68,11.748 12.98,30.998 5.638,36.322 l -1.448,-0.038 c 5.532,-10.34 -2.854,-21.042 -6.164,-36.887 z m 3.44,1.096 c 0.608,0.338 1.474,0.5 2.135,0.69 2.077,8.883 5.874,17.62 7.602,25.892 0.58,4.53 -0.413,7.92 -3.26,9.21 l -0.607,0 c 2.554,-3.856 2.072,-8.72 0.71,-13.974 -1.833,-7.067 -5.393,-14.843 -6.58,-21.817 z m -31.103,0.155 c -0.918,-0.01 -1.877,0.13 -2.892,0.454 -1.04,0.392 -0.91,1.21 0.053,1.042 l 1.29,-0.227 c 2.368,-0.413 5.287,0.44 8.823,2.582 0.854,0.517 1.783,1.016 2.013,1.187 0.65,0.485 1.343,0.483 1.105,-0.135 -0.094,-0.248 -1.457,-1.305 -2.663,-1.98 -2.58,-1.56 -4.976,-2.9 -7.728,-2.925 z m 34.458,0.773 1.99,0.304 c 3.74,17.19 11.95,27.872 4.927,34.25 l -1.757,0 c 1.92,-1.962 2.79,-5.035 2.153,-8.668 -0.65,-3.708 -2.566,-9.594 -4.155,-14.77 -1.843,-6 -3.326,-11.074 -3.157,-11.116 z m 2.853,0.482 1.685,0.314 c 1.974,6.988 5.324,15.65 7.342,22.865 1.24,4.436 0.742,9.9 -2.028,10.907 l -1.424,0.024 c 2.35,-3.14 2.685,-6.41 1.612,-10.642 -2.204,-8.684 -5.54,-16.262 -7.187,-23.468 z m 10.398,0.01 c 1.702,7.244 5.786,18.296 7.254,22.112 1.953,3.896 1.367,9.667 -1.568,11.95 l -1.39,0.03 c 1.68,-1.57 2.255,-4.215 1.988,-6.956 -0.756,-7.746 -6.24,-18.49 -8.225,-26.74 z m -7.39,0.343 1.737,0.16 c 1.74,7.576 5.125,14.942 7.323,22.52 0.41,1.71 0.766,3.8 0.622,5.34 -0.3,3.224 -1.636,5.767 -2.81,5.767 l -1.196,0 c 2.445,-2.913 2.326,-6.885 1.28,-11.154 -1.73,-7.057 -5.914,-15.565 -6.956,-22.633 z m -45.242,0.038 c -0.724,0.01 -0.737,0.668 0.42,1.68 0.707,0.62 0.653,0.414 0.613,0.807 -0.173,1.678 0.09,3.214 0.78,1.487 0.185,-0.462 0.455,-0.982 0.725,-0.917 0.51,0.157 0.25,1.094 0.497,1.568 0.416,0.836 -0.026,1.04 -1.038,0.782 -0.728,-0.186 -0.77,0.208 -1.22,0.71 -0.792,0.878 -0.663,1.402 0.554,1.13 0.2,-0.046 0.37,0.012 0.526,0.048 0.38,0.087 0.727,0.328 1.632,1.018 1.162,0.887 2.808,2.07 3.876,2.25 1.71,0.288 1.328,-0.53 -0.073,-1.067 -1.2,-0.46 -2.69,-1.737 -2.685,-2.09 0,-0.272 0.38,-0.11 2.544,-0.705 0.938,-0.257 2.257,-0.834 2.813,-1.09 0.918,-0.423 0.962,-0.42 2.4,-0.377 2.447,0.074 2.82,-0.01 1.105,-1.283 -3.47,-2.574 -8.098,-4.25 -10.552,-3.18 -0.744,0.322 -0.727,0.124 -1.265,-0.185 -0.7,-0.403 -1.275,-0.586 -1.654,-0.584 z m 49.65,0.233 c 2.403,9.26 7.054,17.56 8.185,26.345 0.257,2.513 -0.165,4.967 -2.253,7.09 l -1.41,0.024 c -0.206,0 1.968,-3.358 1.78,-6.236 0.058,-1.535 -0.11,-3.182 -0.55,-4.807 -2.73,-7.812 -5.42,-14.89 -7.51,-22.335 z m -43.42,3.04 0.04,0 c 0.656,0.104 0.678,0.364 0.487,0.705 -0.282,0.506 -0.782,1.477 -0.782,1.477 0,0 -0.663,0.13 -0.8,-0.038 -0.24,-0.348 0.637,-2.092 1.057,-2.143 z m 1.667,0.3 c 0.072,0 0.162,0.036 0.304,0.092 0.63,0.248 1.722,0.76 1.25,1.153 -0.56,0.468 -2.727,0.678 -2.62,0.483 l 0.723,-1.336 c 0.153,-0.284 0.22,-0.39 0.343,-0.39 z m -6.637,8.095 c -0.056,0 -0.104,0.016 -0.14,0.038 -0.126,0.075 0.16,0.58 0.574,1.15 1.917,2.586 -0.737,3.353 -2.616,1.968 -1.784,-1.387 -4.54,-1.256 -4.14,0.198 0.14,0.513 0,0.763 0.998,0.777 0.885,0.012 1.113,0.062 1.91,0.608 3.052,2.087 6.995,-0.707 5.07,-3.703 -0.364,-0.565 -1.264,-1.06 -1.656,-1.037 z m 7.53,4.04 c -1.11,0 -1.808,0.826 -0.42,1.074 4.956,0.89 1.632,6.03 -1.864,3.38 -3.15,-2.843 -7.363,-2.823 -7.414,-0.805 -0.01,0.508 0.016,0.525 0.763,0.666 1.757,0.332 4.38,1.13 5.383,1.636 0.59,0.297 1.21,0.575 1.38,0.617 2.1,0.763 4.792,-0.23 5.325,-1.997 0.488,-1.618 0.094,-4.572 -3.152,-4.572 z m -62.175,16.536 c 0.665,0.01 1.37,0.59 1.874,1.44 1.164,1.963 2.578,5.265 3.48,7.085 0.228,0.457 0.237,0.867 0.222,1.085 0.07,1.066 0.43,1.47 1.062,0.99 0.623,-0.473 1.487,-1.264 0.473,-1.39 -1.018,-0.77 -1.586,-1.897 -0.955,-2.583 0.465,-0.506 0.283,-0.834 -0.09,-0.855 -1.43,-0.02 -3.558,-4.27 -2.555,-5.184 1.354,-1.234 2.852,0.295 6.04,6.618 1.403,2.793 1.468,5.85 0.264,4.335 -0.41,-0.38 -0.326,-0.184 -0.806,1.02 -0.36,0.903 -0.657,1.33 -2.032,2.654 -1.675,1.61 -2.69,2.88 -2.727,3.16 -0.073,0.533 0.903,0.036 1.616,-0.893 1.59,-1.554 1.65,-1.97 1.636,0.092 -0.013,1.862 -0.11,2.203 0.227,2.19 0.522,-0.02 0.802,-1.494 1.046,-3.272 0.292,-1.603 1.125,-2.41 2.51,-3.302 0.38,-0.245 0.387,-0.413 0.314,-1.12 -0.256,-2.263 1.03,-6.483 1.617,-5.44 0.083,0.235 0.337,0.784 0.473,1.168 0.11,0.596 0.485,1.268 1.057,1.313 0.712,0.533 0.71,0.82 0.956,2.77 0.08,0.638 0.362,1.593 0.56,2.1 0.368,0.946 0.697,1.5 0.492,1.782 -0.13,0.138 -0.405,0.4 -0.405,0.4 l -11.604,6.878 c 0,0 -0.91,0.503 -1.24,0.642 -0.92,0.415 -1.48,0.108 -1.93,-0.58 -2.46,-3.66 -4.148,-7.775 -5.875,-11.57 -1.037,-2.252 -0.022,-3.74 1.318,-1.925 0.52,0.705 0.255,1.155 -0.01,2.52 -0.046,0.246 0.183,0.152 0.613,0.22 0.678,-0.072 1.005,0.533 0.98,1.56 -0.428,1.47 0.164,0.677 0.444,0.604 0.537,0.01 0.656,0.33 0.956,0.94 0.188,0.86 0.567,0.612 1.12,0.043 0.457,-0.47 0.46,-0.458 -0.463,-1.56 -1.593,-1.724 -3.802,-5.62 -4.374,-7.992 -0.158,-0.653 -0.1,-1.176 0.02,-1.524 0.718,-1.62 1.72,-1.626 2.813,0.637 0.186,0.385 0.55,1.006 0.81,1.38 0.42,0.608 0.68,1.13 0.667,2.095 -0.323,0.81 -0.376,0.826 -0.097,0.937 0.693,0.273 1.924,1.525 1.98,2.645 0.055,1.137 0.248,1.74 1.143,1.066 1.02,-0.77 0.586,-1.08 -0.42,-2.065 -1.054,-1.254 -1.118,-2.342 -0.492,-3.248 0.102,-0.304 0.06,-0.39 -0.328,-0.352 -1.225,0.118 -2.415,-1.432 -1.564,-2.612 0.392,-0.69 0.346,-0.87 -0.208,-0.888 -0.288,-0.01 -0.764,0.045 -1,-0.087 -0.36,-0.678 -1.117,-1.627 -1.11,-2.403 0.358,-1.092 0.912,-1.533 1.497,-1.526 z m 72.727,0.058 c 2.012,1.234 4.004,2.518 6.265,3.104 -5.238,9.434 -13.662,14.49 -20.712,16.464 0.24,1.208 0.41,2.41 1.58,3.152 -0.04,-0.182 -0.56,-2.325 -0.445,-2.766 9.71,-2.48 18.26,-11.993 20.446,-16.898 l 42.68,-0.464 c -31.64,30.35 -32.9,73.066 -7.086,108.87 l -2.968,1.732 c -19.892,-29.795 -19.69,-58.502 -13.723,-77.726 4.23,-13.63 11.82,-24.043 17.59,-29.994 0,0 -23.14,-0.318 -34.658,0.106 -1.673,2.56 -3.23,4.65 -5.478,7.067 0,0 5.85,-5.652 5.7,-6.634 10.674,-0.01 21.68,-0.622 32.34,0.12 -12.474,14.93 -18.622,30.34 -19.69,44.838 -0.038,1.885 -0.152,0.832 -0.776,1.525 l -1.968,3.054 -1.58,-3.176 c -1.07,-0.346 -3.182,0.213 -4.077,-0.11 -4.388,19.577 0.046,43.206 5.82,58.626 0,0 -1.45,0.812 -3.233,0.675 -1.953,-0.434 -2.43,0.105 -4.122,0.448 -1.945,0.37 -2.625,0.368 -3.055,0.86 -0.24,0.273 -0.673,0.655 -1.164,0.92 -4.738,1.723 -10.3,8.178 -10.3,8.086 l -5.217,-2.34 c 4.808,-9.442 10.45,-12.84 20.37,-17.03 l -0.923,-4.218 c -10.564,3.935 -17.287,8.647 -22.59,17.8 -6.432,-0.09 -32.49,-0.274 -32.518,-0.192 10.63,-12.087 19.01,-30.318 19.926,-44.532 0.224,-2.77 -0.163,-1.438 1.06,-2.264 l 1.927,-2.293 1.51,2.26 c 0,0 1.095,1.392 1.787,0.23 1.94,-19.82 -0.112,-42.422 -9.663,-58.177 1.693,-0.112 3.38,-0.16 5.004,0.8 3.736,8.46 5.937,18.913 6.893,26.747 1.21,9.916 1.04,21.1 -0.193,30.597 l 0.637,0.087 c 1.863,-12.344 1.232,-25.47 -0.477,-36.946 -0.877,-5.985 -3.7,-15.347 -5.642,-19.67 -0.536,-1.193 -0.952,-1.502 -0.443,-1.68 11.64,-0.978 16.99,-4.862 21.17,-11.062 z m -32.272,1.043 c 0.89,0 1.612,0.722 1.612,1.612 0,0.89 -0.722,1.612 -1.612,1.612 -0.89,0 -1.612,-0.723 -1.612,-1.613 0,-0.89 0.72,-1.612 1.612,-1.612 z m 87.48,0.82 c -3.406,3.085 -6.144,6.28 -9.02,9.688 8.51,11.705 17.97,24.393 25.925,34.53 0,0 2.753,-1.63 2.74,-1.833 -0.01,-0.107 -0.22,-0.646 -0.27,-0.526 -0.117,0.28 -2.23,1.462 -2.23,1.462 l -25.17,-33.035 c 0,0 1.363,-1.632 1.785,-2.147 1.956,-0.643 7.398,-7.383 7.665,-7.245 4.264,3.267 17.125,17.114 22.078,21.36 l 0.063,38.435 c -0.512,1.538 -14.223,7.464 -23.907,29.574 -4.87,2.73 -10.264,4.197 -15.28,6.57 0,0 1.276,2.008 1.9,2.558 -0.766,-1.657 -0.902,-1.973 0.836,-2.68 l 36.234,-14.77 -0.068,2.984 -0.59,5.15 c -9.86,6.08 -18.182,8.628 -31.755,17.8 -0.968,0.226 -1.748,1.156 -2.77,1.207 -34.67,-51.06 -12.506,-89.53 7.7,-108.86 z m -112.903,2.612 c 0.946,0.015 0.707,2.21 0.357,2.968 -0.7,0.55 -1.396,0.062 -1.38,-0.965 0,-0.335 -0.062,-0.65 -0.146,-0.705 -0.524,-0.335 0.353,-1.31 1.168,-1.298 z m 21.175,1.37 c 0.797,0.605 1.092,1.41 1.386,2.216 -1.075,-0.17 -3.952,-0.994 -2.602,-1.636 z m -5.237,2.853 c 25.006,37.818 23.887,77.984 -4.02,108.43 l 35.308,-0.053 c 4.494,-8.87 11.98,-14.274 21.56,-17.604 l 0.836,2.786 c -11.01,3.533 -16.58,9.392 -21.01,17.51 l -42.11,0 c 16.178,-17.407 23.59,-32.112 24.756,-52.004 1.11,-18.944 -3.708,-36.246 -18.346,-57.063 z m 7.047,0.435 5.9,2.785 -0.875,6.053 -6.178,-2.848 z m -10.633,1.7 c 31.537,47.706 18.01,81.263 -7.168,109.19 l -4.64,0.078 -10.81,-10.044 0.197,61.034 c 0,0 -10.542,10.327 -11.753,11.565 -1.197,1.15 -2.095,-0.62 -2.095,-0.62 l 0.03,-80.91 0.467,-3.172 0.145,-17.435 6.72,-3.543 25.195,33.026 c 0,0 -1.012,1.492 -1.482,1.757 -0.305,0.172 -0.082,0.467 0.174,0.434 0.707,-0.093 2.726,-2.35 2.302,-2.713 -9.14,-11.323 -26.132,-33.493 -26.132,-33.493 l -7.076,3.693 c 0,0 0.205,-14.474 0.077,-20.03 0.272,-1.312 1.254,-0.96 1.916,-1.545 8.15,-5.238 13.892,-11.63 17.436,-17.83 0.26,-0.464 1.83,-3.248 1.984,-3.5 0.552,-0.9 1.923,-3.718 2.722,-5.517 0.446,-1.005 0.92,-2.223 1.1,-2.37 4.903,-1.595 10.05,-3.862 14.973,-5.898 l -7.09,-10.643 z m -19.327,0.607 c -0.266,0 -0.943,0.304 -1.858,1.134 -1.69,1.534 -3.918,4.053 -3.925,4.533 0.453,0.162 0.854,-0.1 1.216,-0.465 1.415,-2.086 3.6,-2.902 4.88,-4.73 0.2,-0.338 -0.01,-0.477 -0.313,-0.473 z m 15.885,2.215 c 0,0 4.893,7.128 6.145,9.022 -12.893,5.104 -26.385,11.846 -38.335,16.207 l 0,-2.857 1.887,-5.13 z m 19.182,4.71 4.822,2.492 -1.36,5.44 -4.867,-2.724 z m 3.977,9.052 3.964,2.885 -1.81,4.615 -3.992,-2.747 z m -32.334,3.382 c 0,0 -0.61,2.14 -1.636,4.055 -4.904,8.52 -9.702,16.092 -19.616,22.667 -0.377,-0.336 -1.458,-2.226 -1.458,-2.226 l -0.096,-2.524 c 5.256,-4.222 9.792,-7.322 16.754,-19.713 l 2.017,-0.82 1.72,0.744 1.163,-2.076 z m 20.625,0.02 c -4.567,9.692 -9.063,19.69 -16.342,27.242 l 19.92,27.807 c 6.555,-19.632 4.12,-38.033 -3.577,-55.048 z m -25.064,2.114 -0.956,1.655 1.656,0.957 0.955,-1.656 z m -2.703,0.178 c -3.61,8.07 -9.026,14.278 -16.136,18.743 l -0.275,-11.84 z m 1.27,2.41 -0.956,1.654 1.655,0.956 0.956,-1.655 z m 40.713,0.346 3.592,3.408 -2.134,3.76 -3.683,-3.045 z m 55.017,1.675 c 0,0 -0.01,0.01 -0.01,0.01 -6.31,19.616 -4.416,38.354 4.243,54.664 4.248,-10.574 7.735,-17.65 16.03,-28.904 -5.108,-6.687 -19.75,-25.982 -20.263,-25.77 z m -97.14,0.314 -1.004,1.626 1.625,1.004 1.004,-1.627 z m 27.537,2.287 c 5.69,13.6 5.188,25.863 2.162,36.49 l -14.21,-17.95 c 5.206,-6.462 8.664,-12.58 12.048,-18.54 z m -29.005,0.048 -1.076,1.58 1.577,1.08 1.077,-1.583 z m -1.588,2.26 -1.177,1.51 1.506,1.178 1.177,-1.51 z m 46.816,1.607 3.22,3.055 -2.033,3.963 -3.268,-2.988 z m -48.674,0.743 -1.237,1.453 1.453,1.235 1.236,-1.452 z m 103.795,0.43 14.336,18.496 c -4.794,5.708 -8.78,12.432 -12.34,19.68 -3.996,-12.516 -5.798,-24.813 -1.995,-38.176 z m -105.81,1.872 -1.32,1.38 1.38,1.323 1.322,-1.38 z m 33.49,1.85 -6.56,9.484 7.52,9.6 c 0.81,-5.196 0.99,-11.23 -0.96,-19.084 z m -35.627,0.308 -1.41,1.293 1.294,1.41 1.41,-1.294 z m -2.07,1.85 -1.487,1.205 1.207,1.487 1.482,-1.207 z m 56.024,0.978 2.694,3.147 -2.732,3.24 -2.56,-2.878 z m 34.242,0.565 1.83,0.068 c -3,29.593 2.896,44.567 8.113,57.59 0,0 -0.013,0.52 -0.188,0.674 -0.85,0.293 -2.57,0.61 -3.95,-0.603 -7.02,-18.04 -8.55,-40.264 -5.806,-57.73 z m -92.675,0.38 -1.55,1.12 1.12,1.55 1.55,-1.12 z m 114.655,1.054 c -0.465,0 -0.87,12.175 0.883,18.12 l 6.6,-8.94 z m -17.058,2.008 2.206,2.963 -2.34,3.19 -2.395,-3.02 z m -99.39,0.806 c 0.112,-0.018 0.293,0.29 0.648,0.535 0.33,0.346 0.282,0.32 -0.087,0.614 -0.577,0.46 -0.75,0.386 -0.74,-0.333 0.05,-0.59 0.094,-0.8 0.18,-0.814 z m 60.356,2.225 2.437,3.49 -2.698,3.47 -2.307,-3.653 z m 38.84,4.422 2.57,3.128 -2.207,3.432 -2.804,-3.278 z m 59.458,0.662 0.228,3.605 -0.888,-1.32 -1.632,1.252 1.14,1.51 1.423,-1.11 0.088,1.453 c -9.044,6.536 -12.944,14.043 -16.614,19.674 l -1.63,0.69 -1.86,-0.59 -0.907,1.608 -1.58,0.372 c -0.047,-0.01 3.17,-6.902 8.675,-13.916 4.902,-6.246 13.533,-13.288 13.56,-13.23 z m 1.048,5.642 0.077,12.82 -16.184,6.252 c 4.2,-7.157 9.154,-13.8 16.108,-19.072 z m -4.02,-1.56 -1.478,1.213 1.275,1.46 1.472,-1.21 z m -2.274,1.932 -1.424,1.27 1.328,1.413 1.423,-1.278 z m -54.046,0.71 3.05,3.248 -2.234,3.837 -3.176,-3.046 z m 51.75,1.365 -1.34,1.366 1.464,1.404 1.337,-1.366 z m -2.106,2.158 -1.284,1.42 1.554,1.347 1.284,-1.42 z m -2.114,2.42 -1.192,1.495 1.617,1.25 1.192,-1.5 z m -46.482,2.297 3.813,2.476 -1.864,4.537 -3.81,-2.9 z m 44.638,0.02 -1.12,1.553 1.723,1.178 1.135,-1.607 z m -1.723,2.45 -1.037,1.608 1.743,1.12 1.033,-1.66 z m -1.54,2.43 -0.955,1.654 1.806,1.03 0.956,-1.675 z m -1.39,2.51 -0.955,1.654 2,0.865 0.79,-1.578 z m -37.92,1.022 3.906,2.644 -1.728,4.755 -4.122,-2.917 z m 56.625,4.676 0.193,97.83 -42.993,0.15 c 0,0 -2.01,-3.537 -6.216,-11.71 -1.783,-3.46 -3.29,-4.93 -3.443,-7.67 0.16,-1.61 -0.583,-3.434 -1.902,-4.17 -0.443,-0.247 -1.184,0.05 -0.936,-0.637 0.27,-0.76 -0.565,-1.926 -0.793,-2.173 -0.26,-0.44 -0.098,-0.546 -0.125,-2.177 -0.027,-1.577 -0.11,-2.237 -0.45,-3.427 -0.853,-3.01 -1.043,-4.512 -0.554,-6.072 1.27,-3.957 2.593,-6.992 4.305,-10.68 0.996,-2.16 0.844,-3.004 -2.21,-4.572 -2.287,-1.174 -2.59,-1.162 -2.303,-2.877 0.135,-0.802 0.26,-1.31 0.092,-1.698 -0.103,-0.237 -0.483,-0.568 -0.705,-0.758 -0.298,-0.255 -0.21,-0.78 0.097,-1.173 0.3,-0.383 0.302,-0.932 0.01,-1.847 -0.626,-1.926 0.788,-4.478 3.46,-6.24 1.18,-0.78 1.147,-0.62 2.38,0.674 3.6,3.78 8.947,1.406 8.958,-3.924 0,-1.66 -0.563,-1.562 1.008,-2.346 5.326,-3.388 16.257,-9.552 16.185,-9.383 0.713,1.45 0.95,2.69 1.4,4.252 0.39,1.34 0.34,1.443 0.194,4.05 -0.132,2.357 -0.202,2.904 0.352,3.055 3.155,0.35 3.875,-0.767 4.48,-2.803 0.26,-0.9 0.764,-0.717 1.076,-0.338 1.2,2.184 2.72,4.455 3.716,6.01 1.247,1.98 3.347,2.967 4.446,2.03 0.23,-0.77 0.422,-0.794 1.815,-0.477 1.688,0.384 2.65,-0.563 2.813,-1.805 0.064,-0.496 -0.297,-0.476 0.608,-0.966 2.245,-1.66 1.39,-3.93 1.053,-5.295 0.03,0.072 0.96,-0.565 0.98,-1.844 0.107,-6.638 -5.646,-16.2 -5.517,-15.952 z m -54.283,3.823 4.567,2.205 -1.078,5.454 -4.69,-2.11 z m 44.43,2.026 c 2.63,3.05 4.533,8.133 5.514,11.445 0.484,1.65 0.543,3.533 0.11,3.795 -0.426,0.258 -0.625,-0.02 -0.545,-1.004 0.068,-0.82 0.092,-1.456 -0.26,-1.447 -1.02,0.263 -1.06,-1.283 -0.955,-1.646 0.07,-0.243 0.195,-0.414 0.25,-0.546 0.252,-0.598 -0.405,-0.517 -1.085,-0.525 -0.602,0.015 -0.758,-0.35 -0.73,-0.922 -0.016,-0.633 -0.855,-0.51 -1.33,-0.03 -0.437,0.44 -0.346,0.957 0.245,1.32 0.848,0.518 1.65,1.795 3.625,6.197 1.147,2.555 0.807,4.37 -0.56,4.35 -0.948,-0.03 -2.052,-2.626 -2.944,-4.54 -0.23,-0.493 0.347,-1.045 0.55,-1.31 0.524,-0.69 0.445,-0.907 -0.333,-0.92 -0.73,-0.01 -1.038,0.055 -1.477,-0.843 -0.166,-0.34 -0.285,-0.854 -0.227,-1.183 0.374,-0.99 -0.397,-1.23 -1.145,-0.85 -0.943,0.394 -0.936,1.235 0.502,2.612 0.926,1.52 0.684,1.414 -0.193,2.437 -0.184,0.362 -0.073,0.584 0.314,0.59 1.112,-0.34 2.324,1.664 1.993,2.35 -0.34,0.295 -1.272,1.364 -0.37,1.158 1.83,-0.497 2.946,2.186 1.867,3.095 -1.61,0.808 -1.99,0.555 -4.47,-4.397 -0.77,-1.538 -1.695,-3.19 -1.81,-3.36 -0.113,-0.168 -0.164,-0.623 -0.16,-0.99 0.11,-0.895 -0.273,-1.098 -1.05,-0.742 -0.585,0.14 -1.113,0.62 -0.373,1.076 0.865,1.49 1.17,1.73 0.696,2.11 -1.08,0.86 -0.612,0.826 0.598,1.066 0.593,0.18 0.894,0.484 1.057,0.85 0.626,1.404 1.734,3.385 1.844,3.79 0.366,1.03 -0.297,1.492 -1.203,1.447 -0.948,0.023 -1.383,-0.726 -1.844,-1.366 -1.724,-2.397 -2.966,-4.77 -4.725,-7.492 l 0.236,-2.544 c 0,0 0.46,0.1 0.72,-0.024 0.506,-0.244 0.807,-1.038 1.095,-2.095 0.462,-0.92 3.192,-3.01 4.237,-4.132 0.193,-0.127 0.355,-0.336 0.357,-0.463 -0.01,-0.412 -1.184,-0.137 -1.96,0.753 -1.138,1.01 -1.624,0.664 -1.587,-0.628 -0.112,-1.595 -1.086,-0.795 -1.135,0.763 -0.125,1.23 -0.553,1.98 -1.414,2.67 -1.626,1.3 -1.355,0.97 -1.28,2.775 0.133,3.147 -1.082,5.736 -1.877,4.02 -0.28,-0.61 -0.61,-1.3 -1.32,-1.332 -0.504,-0.02 -0.753,-0.514 -1.03,-1.732 -0.41,-1.97 -0.985,-3.238 -1.51,-5.053 z m -40.472,6.782 5.262,2.095 -0.985,5.503 -5.213,-1.994 z m 40.116,0.507 c -0.035,0 -0.076,0.01 -0.12,0.03 -1.483,1.12 -2.85,2.376 -4.465,3.34 -0.605,0.357 -1.313,1.282 -1.317,1.53 0,0.24 0.72,0.235 1.424,-0.073 0.67,-0.292 4.485,-3.875 4.49,-4.204 0.262,-0.29 0.236,-0.64 -0.01,-0.623 z m -48.31,6.68 c 1.243,0 0.517,0.366 -2.198,2.25 -2.65,1.838 -7.018,7.65 -7.525,9.808 -0.23,0.98 0.39,1.055 1.09,-0.29 3.22,-6.184 9.305,-11.835 14.877,-11.584 2.73,0.122 4.205,0.858 1.946,1.18 -6.195,0.76 -10.824,4.294 -14.877,11.335 0,0.157 0.367,0.15 0.79,-0.12 3.71,-4.536 7.89,-10.54 15.23,-10.055 5.295,0.32 6.8,6.616 2.403,8.765 -3.832,1.874 -7.366,-2.69 -4.19,-5.396 1.032,-0.88 1.676,-0.494 0.686,0.404 -2.126,1.93 0.48,5.364 3.07,4.06 1.575,-0.66 2.213,-2.917 0.824,-4.62 -3.09,-3.788 -9.745,-0.908 -14.384,5.213 -0.486,0.644 -0.907,2.043 -0.497,1.892 0.72,-0.297 1.155,-0.862 1.58,-1.497 1.654,-2.296 2.926,-3.448 5.168,-4.682 1.733,-0.952 1.84,-0.774 1.193,0.88 -0.272,0.696 -0.49,0.928 -1.163,1.36 -2.824,1.93 -4.578,4.513 -4.648,6.16 -0.05,1.202 0.83,2.772 -0.126,3.094 -1.617,0.764 -6.03,0.14 -7.22,-1.38 -0.857,-1.095 -1.19,-0.46 -0.546,1.317 0.425,1.175 0.407,1.84 1.047,1.72 0.81,-0.43 1.368,-0.33 2.94,0.53 0.758,0.415 2.102,0.8 2.92,0.99 1.493,0.344 1.804,0.2 1.772,0.845 -0.01,0.197 0.057,0.754 0.013,1.105 -0.242,1.945 1.382,2.607 3.596,3.885 1.293,0.748 0.782,1.516 -0.715,5.218 -0.78,1.675 -1.443,3.928 -2.404,5.628 -0.897,1.912 -0.973,4.003 -0.395,6.387 1.074,4.425 1.847,6.673 -0.067,7.07 -4.927,0.747 -15.81,0.716 -21.75,-1.567 -1.52,-11.403 -9.572,-28.323 -8.54,-32.697 2.062,3.107 10.703,2.285 8.1,-6.4 0,0 0.71,-1.06 2.115,-2.486 3.627,-3.68 4.522,-4.288 2.8,-1.048 -1.325,2.49 -3.013,5.74 -3.05,6.37 -0.03,0.503 0.36,0.62 0.665,0.218 0.226,-0.297 0.494,-1.02 0.73,-1.57 2.16,-5.06 5.856,-9.62 8.402,-10.72 0.656,-0.282 0.623,0.02 0.17,0.575 -2.997,3.728 -5.286,7.176 -6.913,11.676 -0.072,0.463 0.586,0.657 0.797,0.216 2.81,-5.89 3.65,-7.227 7.105,-11.376 1.356,-1.632 2.62,-2.455 3.63,-2.365 0.87,0.077 0.613,0.22 -0.195,1.08 -0.616,0.658 -1.528,1.573 -3.002,3.428 -2.6,3.27 -5.215,8.595 -4.252,8.316 0.167,0.443 0.987,-0.972 1.68,-2.322 1.9,-3.19 3.92,-7.406 8.432,-10.178 0.942,-0.39 1.972,-0.615 2.883,-0.625 z m -87.28,1.028 8.037,8.032 16.165,-0.207 c -2.666,4.142 -1.243,10.563 0.226,14.316 2.88,7.357 7.102,19.502 6.792,19.68 0,0 -2.35,0.603 -2.563,2.094 -0.315,2.21 0.643,2.045 -0.74,4.04 -0.31,0.45 -0.11,1.296 0.223,1.97 0.22,0.493 0.43,1.236 0.02,1.814 l -14.26,25.437 -27.058,0.13 0,-5.088 13.55,-13.718 -0.165,-10.092 c 7.39,2.196 9.927,9.82 10.56,15.47 13.35,-12.182 13.02,-30.522 0.406,-42.028 -2.46,12.16 -11.266,14.688 -11.073,14.447 z m 100.528,1.444 c 0.865,0.062 2.032,0.2 2.824,0.627 -0.536,0.32 -0.918,0.703 -1.274,1.096 -0.433,-0.77 -1.017,-1.188 -1.55,-1.723 z m 22.406,0.086 c 0.72,0 1.603,2.104 1.096,2.597 -0.286,0.278 -1.214,0.383 -1.545,0.174 -0.423,-0.315 -0.207,-2.768 0.45,-2.77 z m -25.495,3.654 c 0.928,0 1.68,0.752 1.68,1.68 0,0.928 -0.752,1.68 -1.68,1.68 -0.928,0 -1.68,-0.752 -1.68,-1.68 0,-0.928 0.752,-1.68 1.68,-1.68 z m -71.094,2.394 1.212,0.03 c -2.202,2.945 -2.5,5.48 -1.718,9.152 0.878,4.133 7.575,19.668 8.008,23.946 0.02,0.193 0.038,0.738 0.038,0.738 l -1.646,0.112 c 0,0 -0.123,-0.443 -0.174,-0.614 -2.303,-7.745 -4.595,-13.652 -6.197,-18.168 -1.596,-4.87 -4.04,-12.088 0.478,-15.195 z m 8.853,0.03 c 0.01,0 0.02,0 0.03,0.01 l 1.162,0.01 c -0.043,0.026 -1.736,3.657 -1.858,5.86 -0.138,2.497 0.466,5.217 1.294,7.9 1.955,5.81 4.816,12.277 6.406,19.608 0.018,0.085 0.193,0.796 0.193,0.796 l -1.724,-0.233 c 0,0 -0.17,-0.75 -0.19,-0.854 -1.188,-6.448 -4.507,-13.144 -6.486,-19.49 -1.014,-2.886 -1.72,-6.432 -1.356,-9.143 0.256,-1.912 2.174,-4.422 2.53,-4.46 z m 14.07,0.015 c -1.232,1.908 -2.354,4.3 -2.432,6.173 -0.07,3.488 0.946,6.433 1.96,9.514 3.124,9.488 4.64,14.493 6.203,22.102 l -1.66,-0.71 c 0,0 -0.065,-0.427 -0.102,-0.55 -0.886,-4.764 -0.942,-4.35 -6.153,-20.374 -1.222,-3.846 -2.385,-7.218 -2.158,-10.42 0.05,-1.825 1.642,-5.437 3.32,-5.725 z m 1.994,0 1.55,0 c 0,0 -0.854,0.903 -1.1,1.24 -2.708,3.754 -1.925,7.782 -0.58,12.584 1.85,6.606 5.268,13.995 7.056,24.066 0.033,0.186 0,1.158 0,1.158 l -1.844,-0.743 c -1.676,-9.233 -5.81,-18.807 -7.8,-27.112 -1.172,-4.876 -0.84,-7.958 1.867,-10.614 0.678,-0.524 0.85,-0.58 0.85,-0.58 z m -18.907,0.053 1.16,0 c 0,0 -1.94,3.18 -1.937,5.054 -0.324,3.352 0.89,7.056 2.283,10.937 2.14,5.965 4.97,13.178 5.84,16.975 0.035,0.15 0.15,0.83 0.15,0.83 l -2.022,-0.106 c 0,0 -0.106,-0.92 -0.227,-1.343 -2.334,-8.164 -4.608,-13.446 -7.29,-20.9 -0.404,-1.128 -1.052,-5.59 -0.288,-8.48 0.598,-2.27 2.33,-2.97 2.33,-2.97 z m -3.104,0.01 1.25,0.034 c 0,0 -0.187,0.34 -0.666,1.158 -2.28,4.13 -1.258,7.9 0.155,12.1 1.886,5.606 4.846,12.45 6.695,18.927 0.104,0.365 0.246,1.467 0.246,1.467 l -1.805,-0.025 c 0,0 -0.366,-1.32 -0.39,-1.462 -1.016,-6.004 -6.503,-16.01 -7.93,-23.628 -0.784,-4.085 -0.11,-6.616 2.446,-8.572 z m 16.745,0 c 0,0 -1.972,3.42 -2.152,5.324 -0.353,3.734 0.83,6.826 2.186,11.04 2.34,7.266 5.638,15.794 5.933,19.692 0.01,0.128 0.058,0.603 0.058,0.603 l -2.033,-0.724 c 0,0 -0.09,-0.408 -0.13,-0.552 -1.77,-7.053 -3.865,-14.078 -6.68,-21.996 -0.694,-2.67 -1.606,-5.36 -1.525,-7.655 0.412,-3.066 0.934,-3.893 2.76,-5.71 z m 8.94,0 1.636,0.033 c 0,0 -0.49,0.264 -1.655,1.507 -6.455,5.9 4.02,22.553 6.435,37.717 0.026,0.163 0.1,0.734 0.1,0.734 l -1.8,-0.647 c -0.17,-0.754 -0.298,-1.674 -0.506,-2.5 -1.958,-7.75 -4.57,-15.72 -6.966,-22.95 -1.345,-5.27 -1.836,-9.908 0.58,-12.502 0.756,-0.896 2.176,-1.39 2.176,-1.39 z m -16.83,0.01 1.74,0.047 c -1.258,1.58 -1.997,4.04 -2.065,6.227 -0.067,2.588 0.625,5.104 1.477,7.766 1.748,5.46 4.243,11.395 5.957,18.762 0.095,0.488 0.176,0.8 0.22,1.014 0.072,0.338 0.266,0.874 0.266,0.874 l -1.84,-0.367 c 0,0 -0.19,-0.477 -0.313,-0.728 -0.185,-0.377 -0.355,-0.858 -0.506,-1.434 -0.89,-3.843 -4.17,-12.564 -6.164,-18.68 -1.583,-3.853 -2.014,-10.59 1.226,-13.48 z m 21.753,0.067 c 2.23,-0.082 4.244,1.81 4.72,3.586 0.463,1.888 -0.13,4.018 -2.205,5.07 -3.367,1.704 -6.99,-2.832 -4.334,-5.33 2.013,-1.892 4.992,-0.49 4.344,1.93 -0.42,1.578 -2.81,1.68 -3.205,0.088 -0.108,-0.53 -0.374,-1.06 -0.565,-0.767 -1.238,2.908 2.924,4.27 4.653,1.564 1.026,-2.168 -0.925,-4.96 -3.798,-4.43 -3.938,0.727 -4.39,5.725 -2.756,11.555 2.28,9.213 7.723,21.606 7.713,27.295 0,0.075 0.02,0.308 0.02,0.308 l -1.73,-0.516 c 0,0 -0.01,-0.096 -0.023,-0.18 -1.036,-7.943 -6.938,-21.097 -8.63,-31.21 -0.734,-4.61 1.062,-7.956 5.1,-8.87 0.235,-0.054 0.466,-0.084 0.696,-0.092 z m -17.087,0.072 c -1.212,1.62 -2.004,4.054 -2.04,5.792 -0.038,2.545 0.876,5.024 1.63,7.674 1.91,6.545 6.37,18.632 6.207,20.895 0.047,0.242 0.17,0.994 0.17,0.994 l -1.724,-0.512 c 0,0 -0.07,-0.11 -0.2,-0.42 -0.573,-2.247 -3.305,-11.873 -6.365,-20.195 -1.178,-3.347 -1.75,-5.954 -1.67,-8.172 0.248,-3.06 1.125,-4.34 2.466,-6.043 z m 32.813,10.85 c -4.467,0.256 -4.038,5.7 -1.27,6.623 0.99,0.273 1.57,0.037 1.728,-0.178 0.178,-0.246 -0.022,-0.62 -0.67,-0.715 -1.88,-0.616 -2.55,-2.827 -0.854,-3.754 0.926,-0.485 2.404,-0.173 4.188,1.148 3.187,2.36 7.093,2.51 6.584,0.12 -0.124,-0.578 -0.374,-0.656 -2.708,-0.974 -1.896,-0.258 -2.75,-0.857 -3.577,-1.303 -1.3,-0.702 -2.45,-0.994 -3.42,-0.965 z m -63.947,5.064 c 11.54,11.27 9.83,28.933 -0.03,37.776 -0.2,-0.714 -0.632,-2.463 -0.68,-2.414 7.414,-7.713 10.906,-20.358 0.175,-33.32 0.055,0.05 0.238,-0.934 0.535,-2.04 z m 72.32,0.3 c -0.108,0 -0.204,0.015 -0.29,0.044 -2.987,0.817 -3.607,3.77 -1.67,4.986 1.19,0.745 2.1,0.29 0.624,-0.613 -1.267,-0.773 -0.642,-2.803 0.893,-2.78 0.67,0.01 1.127,0.3 2.833,1.56 1.404,1.034 2.726,1.117 3.026,-0.286 0.178,-0.836 -0.1,-1.207 -0.995,-0.988 -0.395,0.097 -0.627,-0.135 -1.163,-0.507 -1.193,-0.828 -2.495,-1.43 -3.258,-1.414 z m -73.512,2.21 c 10.402,12.074 7.063,24.665 0.05,32.042 -1.926,-5.683 -6.647,-9.23 -6.647,-9.23 1.78,-3.946 2.84,-8.068 -0.488,-13.273 3.095,-2.798 5.66,-5.87 7.086,-9.54 z m 67.58,4.408 c -0.487,-0.01 -0.328,0.462 0.822,1.265 2.74,1.864 2.976,2.2 0.32,2.157 -0.675,-0.04 -1.73,0.438 -2.328,0.638 -3.468,1.156 -3.636,1.064 -5.295,0.675 -0.554,-0.13 -1.115,-0.36 -1.357,-0.14 -0.375,0.342 -0.795,0.568 -0.324,1.077 0.343,0.37 0.983,0.655 1.76,1.1 4.028,2.307 4.394,2.86 9.13,2.983 0.54,0.014 0.82,-0.266 1.138,-0.27 0.773,-0.01 1.178,0.18 1.96,0.893 1.43,1.306 1.497,0.357 0.646,-1.356 -0.446,-0.9 -0.836,-1.113 -0.618,-1.796 0.5,-1.558 -0.212,-1.868 -1.144,-0.488 -0.698,1.08 -0.777,1.056 -1.438,-0.333 -0.876,-1.734 -0.465,-2.534 0.864,-1.404 1.007,0.855 1.264,0.218 1.656,-0.46 0.515,-0.89 0.437,-1.69 -0.483,-1.622 -0.528,0.04 -1.022,-0.203 -1.437,-0.656 -0.815,-0.888 -2.376,-2.003 -3.872,-2.264 z m 1.14,4.692 c 0.11,0.01 0.186,0.05 0.223,0.164 0.01,0.57 -0.384,1.738 -0.705,2.35 -0.103,0.273 -0.28,0.308 -0.526,0.358 -0.83,0.153 -0.888,-0.104 -0.74,-0.618 0.306,-0.794 0.557,-1.923 1.628,-2.25 0.044,0 0.084,-0.01 0.12,0 z m -2.11,0.396 c 0.337,-0.025 0.348,0.115 0.214,0.42 -0.24,0.514 -0.662,1 -0.975,1.404 -0.667,0.43 -1.75,-0.885 -1.27,-1.226 0.668,-0.264 1.17,-0.536 1.867,-0.58 0.062,-0.01 0.116,-0.015 0.164,-0.018 z m -74.51,0.86 c 0.18,0 0.36,0.034 0.55,0.115 2.517,3.398 2.345,8.57 0.39,11.43 -0.145,0.214 -0.294,0.253 -0.54,0.17 -0.84,-0.498 -1.91,-0.683 -2.708,-0.97 l 0,-9.95 c 0.822,-0.173 1.532,-0.797 2.308,-0.795 z m 66.33,0.81 c -0.192,0.01 -0.272,0.14 -0.03,0.39 3.67,2.657 8.722,5.735 13.38,4.543 0.428,-0.094 0.773,-0.328 0.69,-0.77 -0.05,-0.273 -0.524,-0.51 -1.037,-0.375 -1.068,0.282 -3.117,0.318 -3.958,0.183 -3.204,-0.526 -6.033,-2.575 -8.495,-3.774 -0.183,-0.14 -0.4,-0.205 -0.55,-0.198 z m -1.072,2.534 c -0.164,-0.01 -0.15,0.156 -0.048,0.463 0.517,1.54 5.71,5.124 9.813,6.31 3.522,1.016 8.582,0.016 8.288,-1.657 -0.153,-0.872 -0.793,-1.08 -3.04,-0.796 -4.95,0.96 -9.713,-1.062 -13.327,-3.31 -0.974,-0.615 -1.474,-1 -1.685,-1.01 z m -32.407,2.104 c 2.162,-0.025 4.305,0.15 6.623,0.536 4.51,0.77 9.736,2.166 14.157,4.214 7.515,2.82 16.962,4.996 24.98,4.7 1.956,0.056 5.493,-0.11 6.178,-0.337 1.787,-0.4 2.28,-0.02 2.707,2.197 0.076,0.482 0.225,0.622 0.845,1.042 0.95,0.643 0.79,1.28 0.676,2.698 -0.097,1.195 0.625,1.865 3.52,7.207 3.292,6.08 6.505,13.144 6.505,13.144 -28.872,-0.02 -56.417,-1.09 -85.96,-0.174 2.657,-6.3 9.9,-17.66 14.44,-26.777 -1.097,-2.806 0.26,-3.283 -0.31,-3.948 -0.92,-1.56 -0.256,-3.747 1.688,-4.24 1.354,-0.156 2.656,-0.245 3.953,-0.26 z"
         id="path4567" />
      <path
         style="fill:#e2cf00"
         inkscape:connector-curvature="0"
         d="m 2830.347,1258.427 c 0,0 9.462,-19.128 13.448,-24.86 5.736,-7.27 31.625,3.162 44.5,5.768 5.233,1.008 17.363,0.535 17.363,0.535 l 10.14,18.275 z m -19.647,-21.734 -0.4,-59.547 2.962,1.85 0.68,59.812 -12.805,12.26 -0.07,-3.592 z m 7.75,-6.794 c 3.05,-6.14 -0.355,-13.635 -0.354,-13.632 1.768,0.436 6.698,-8.918 7.136,-8.648 7.544,9.252 8.852,23.037 -0.366,31.58 -2.326,-5.938 -6.386,-9.3 -6.416,-9.3 z m 5.63,-42.116 c 5.733,-5.858 10.28,-10.42 14.822,-16.976 0.373,-0.534 -24.184,-31.725 -23.802,-32.27 3.788,-4.188 8.866,-7.264 12.817,-12.32 0,0 20.138,26.362 20.602,26.13 2.04,-8.25 3.533,-15.718 3.144,-24.342 -1.243,-22.062 -10.67,-35.57 -10.744,-35.304 -3.188,20.27 -34.52,50.975 -40.69,48.787 l -0.036,-14.167 c 0.373,0.71 19.85,-12.532 24.987,-30.03 0.37,-1.257 15.483,-6.094 15.377,-6.28 -0.64,-1.64 -7.25,-10.994 -7.25,-10.994 0,0 2.67,-1.245 2.967,-1.24 8.57,10.655 15.037,24.694 17.238,38.062 2.67,14.4 4.396,41.467 -24.477,71.028 z m 86.557,-37.25 c -4.518,-14.022 -4.395,-28.54 -2.317,-38.677 3.17,-18.367 14.778,-31.52 24.088,-41.548 l 4.04,0 -6.587,6.817 c -3.014,3.46 -7.382,10.675 -7.382,10.675 l 24.095,31.495 13.734,-2.97 c 0,0 -0.415,14.09 0.01,14.09 -10.673,8.836 -18.344,16.832 -23.85,29.704 -3.375,1.25 -14.564,6.073 -14.564,6.073 -5.32,-1.3 15.827,-34.454 11.805,-35.016 -1.656,-1.366 -19.998,-26.11 -20.356,-26.06 -8.456,25.888 -0.207,53.074 14.67,72.062 -1.69,1.092 -3.218,1.944 -3.078,1.688 -6.372,-8.84 -11.955,-19.394 -14.307,-28.334 z m -44.018,-12.98 c 0.952,1.477 5.24,-31.592 -6.028,-58.062 1.072,-0.813 10.367,-2.59 10.367,-2.59 l 2.5,7.925 -6.34,2.684 1.17,3.717 c 4.923,-2.388 15.582,-5.912 22.14,-16.804 0,0 31.86,-0.274 32.538,-0.217 0.66,0.056 -6.498,6.916 -13.288,20.804 -3.1,6.344 -5.57,14.552 -6.083,24.182 -0.1,1.903 -7.29,-8.946 -7.29,-8.946 1.792,-9.167 6.584,-18.192 11.36,-27.217 0,0 -7.328,-0.417 -12.446,-0.267 -7.96,8.698 -12.95,13.282 -24.95,17.436 4.376,14.02 31.147,20.758 25.194,19.476 -1.216,-0.286 -2.758,12.89 -1.47,27.734 0.25,11.87 6.636,31.658 6.86,31.5 0,0 -4.257,0.957 -4.598,0.275 0.718,-0.173 -6.334,1.612 -6.334,1.612 l -2.522,-7.374 6.824,-3.14 -1.104,-4.163 c -0.026,0 -15.06,4.55 -22.422,17.662 l -32.928,0.038 c 12.7,-13.78 17.88,-27.408 20.637,-45.426 2.694,0.483 8.212,-0.84 8.212,-0.84 z m 80.98,-118.96 c 4.14,-3.465 12.45,-12.487 12.45,-12.487 l 0.108,4.623 -9.43,9.807 0.095,60.552 -3.19,-3.06 z m -4.36,22.162 c -1.697,0.81 -5.082,4.79 -6.696,9.26 -10.926,-9.76 -6.426,-27.7 -0.445,-31.433 1.734,3.917 6.76,9.11 6.644,9 -1.155,4.102 -2.04,8.262 0.497,13.173 z m -96.734,-40.65 84.264,0.148 c -4.807,9.464 -9.217,17.114 -14.325,26.43 -2.66,3.208 -60.202,-10.354 -60.472,-9.003 z"
         id="path4569" />
      <path
         style="fill:#d40000"
         inkscape:connector-curvature="0"
         d="m 2965.268,1274.862 0,-2.78 2.767,0 6.61,-10.033 -6.848,-15.833 -2.67,0 0,-3.113 9.933,0 0,3.113 -3.5,0 5.217,12.345 3.476,-4.95 -0.078,-7.395 -2.44,0 0,-3.113 9.066,0 0,3.113 -3.238,0 0.16,25.864 2.745,0 0,2.782 -8.61,0 0,-2.78 2.37,0 -0.232,-12.163 -7.914,12.16 2.803,0 0,2.782 z m -31.544,-18.042 c -5.522,-10.755 -12.61,-20.503 -20.743,-28.925 8.097,-8.84 14.848,-18 20.617,-28.006 5.944,9.96 12.473,19.36 21.593,28.454 -9.04,8.898 -15.828,18.605 -21.466,28.476 z m -132.767,-10.447 -0.562,-79.507 9.58,9.304 0.567,61.058 z m 165.924,-22.107 c 3.49,-3.696 6.66,-7.795 9.274,-12.22 3.29,4.873 6.78,9.858 9.664,12.343 -3.274,3.726 -6.37,8.048 -9.355,12.5 -2.6,-4.152 -5.424,-8.336 -9.582,-12.624 z m -121.973,6.7 c -1.982,0.303 -0.86,-1.532 -0.498,-3.277 0.2,-0.973 -0.74,-1.887 -0.735,-2.184 0.025,-1.726 1.318,-2.455 7.177,-2.387 13.814,0.958 20.955,5.38 28.878,7.435 7.588,1.97 15.11,1.93 23.483,1.736 0.613,0.355 2.858,6.136 2.44,6.714 -18.94,3.733 -43.11,-10.173 -60.746,-8.038 z m 34.14,-41.17 c -1.997,-1.446 -3.87,-1.714 -5.72,-2.028 3.247,-5.713 7.18,-10.92 13.75,-14.18 l 3.06,7.565 c -3.866,1.987 -7.66,4.352 -11.09,8.643 z m -39.905,-19.643 c 0,0 -2.835,4.635 -5.51,6.89 -7.955,-10.667 -25.742,-33.376 -25.742,-33.376 l -7.548,3.822 c 0,0 -0.03,-4.398 0.14,-4.705 20.387,-10.505 34.375,-30.36 40.535,-48.952 0,0 3.283,3.35 2.85,4.766 -5.51,14.665 -14.937,29.372 -28.798,40.402 z m 25.426,-21.637 25.737,0.037 1.14,8.947 c -9.855,3.302 -17.99,10.048 -25.593,17.85 l -12.208,-0.212 c 4.002,-8.77 9.563,-17.664 10.924,-26.622 z m 95.286,-37.693 c 0.833,2.523 -0.01,5.244 0.314,5.13 -30.828,15.246 -39.638,48.708 -39.638,48.708 0,0 -2.927,-4.633 -2.793,-5.35 15.956,-35.464 26.632,-36.52 28.683,-40.37 l -24.27,-31.408 5.49,-7.466 26.03,33.872 c 2.588,-1.192 4.063,-2.19 6.184,-3.115 z m -15.2,45.88 c 5.227,-9.4 10.62,-14.865 15.993,-18.625 l -0.26,12.407 z m -144.126,-36.9 0.134,-12.036 15.88,-6.833 c -4.39,9.57 -10.35,14.7 -16.014,18.87 z m 70.744,-10.82 -0.94,-8.467 c 9.64,-4.205 18.157,-9.83 25.032,-17.525 7.386,-0.354 12.43,0.146 12.39,0.046 0.013,-0.015 -7.026,10.308 -11.686,26.56 z m 79.866,-88.935 8.775,-8.865 0.276,79.12 -8.814,-8.388 z m -77.114,64.425 -2.784,-7.845 c 4.38,-1.64 7.694,-5.215 10.783,-8.755 2.093,1.874 4.796,2.533 5.734,2.894 1.284,0.3 -8.878,12.5 -13.733,13.706 z m -67.87,-54.175 c 9.396,-9.17 15.502,-18.842 21.404,-28.458 5.176,10.58 12.67,19.837 20.702,28.785 -8.28,9 -14.57,18.637 -20.61,28.34 -5.937,-10.227 -12.187,-19.814 -21.497,-28.667 z m -21.662,15.804 c -2.708,-4.325 -5.438,-8.49 -9.37,-12.666 3.83,-4.097 7.08,-8.16 9.265,-12.154 3.014,4.387 5.876,8.97 9.576,12.474 -3.603,3.966 -6.5,8.17 -9.47,12.346 z m 73.082,-21.036 c 0,0 -1.095,-0.634 -0.975,-1.527 0.36,-1.157 -1.17,-3.776 -1.17,-3.776 18.684,-5.67 45.894,10.284 62.043,6.928 -0.135,1.128 0.05,2.473 -0.407,3.536 0.51,2.26 0.868,2.332 -1.34,3.712 -11.344,3.21 -23.3,-3.635 -34.383,-6.907 -9.04,-2.848 -16.385,-2.122 -23.77,-1.967 z m -83.37,-9.926 0,-3.38 3.17,0 0,-25.402 -3.17,0 0,-2.933 8.795,0 0,2.933 -2.294,0 0.212,12.214 7.98,-12.214 -3.11,0 0.035,-2.933 9.955,0 0,2.933 -2.84,0 -6.354,10.05 6.354,15.352 2.84,0 0,3.38 -9.952,0 0,-3.166 3.732,-0.06 -5.29,-11.957 -3.562,4.907 0,6.955 2.594,0 0,3.32 z"
         id="path4571" />
      <path
         style="fill:#100f08"
         inkscape:connector-curvature="0"
         d="m 2845.543,998.99 3.413,6.428 -0.59,0.4 c 0.93,1.55 1.72,3.29 2.67,4.827 l 0.685,-0.08 c 1.122,2.15 1.576,2.943 3.042,5.488 l -0.662,0 c 0.34,1.132 1.216,1.883 1.234,2.695 0.01,1.01 -0.25,2.036 0.37,2.72 0.734,0.81 0.823,1.034 0.672,1.51 -0.402,1.26 0.74,2.654 1.9,2.53 8.168,-1.092 16.492,-0.166 24.814,2.35 5.984,1.886 11.296,4 16.325,5.485 1.586,0.474 4.79,1.22 7.55,1.422 7.65,0.56 11.945,-0.998 10.656,-4.18 -0.1,-0.255 -0.33,-0.442 -0.35,-0.573 -0.038,-0.243 0,-0.505 0.434,-0.86 1.255,-1.283 0.554,-2.217 -0.21,-3.636 0,0 9.826,-17.554 14.734,-26.3 z m 85.08,1.578 -7.17,12.382 c -3.834,-0.695 -4.735,2.53 -4.793,2.983 -4.98,-1.276 -4.215,5.18 -1.717,5.616 0.162,0.935 -4.093,2.1 -6.335,-0.095 3.446,0.46 4.666,-4.097 0.458,-5.11 5.548,-4.124 -4.86,-10.3 -4.985,-1.767 -4.893,-0.862 -4.257,5.606 -1.153,6.108 -1.588,1.75 -6.257,1.8 -8.698,-1.89 4.15,2.155 6.397,-3.41 2.085,-4.967 5.322,-4.67 -5.1,-8.972 -4.856,-1.43 -3.93,-2.328 -6.63,3.607 -1.387,4.518 -0.3,1.068 -7.167,1.076 -8.91,-1.685 4.87,1.11 5.094,-4.817 0.797,-5.3 4.313,-5.474 -6.636,-8.243 -4.798,-0.772 -4.23,-1.672 -5.83,3.602 -1.71,5.296 0.23,0.84 -6.67,1.553 -9.086,-1.474 5.304,-0.796 3.448,-5.936 0.013,-5.525 0,0 0.048,-0.148 0.242,-0.648 1.622,-5.16 -7.1,-5.59 -5.89,-0.12 0.193,0.503 0.406,1.174 0.406,1.174 -2.404,-0.49 -3.873,0.49 -3.7,2.745 0.6,2.994 2.182,2.772 4.205,2.176 0.85,0.887 -4.882,3.852 -8.48,1.204 4.407,-1.266 2.174,-6.43 -1.513,-5.733 -0.152,-1.648 -1.944,-3.96 -4.28,-2.832 l -2.47,-4.86 z m 7.21,68.788 -5.178,0.076 c -3.636,3.712 -29.968,27.967 -25.533,64.604 1.897,15.67 6.273,29.227 17.972,45.242 l 3.126,-1.835 0.478,0.32 32.42,-18.65 0.018,-5.664 -37.633,15.787 c -0.747,-0.794 -1.186,-1.68 -1.814,-2.658 l 15.08,-6.41 c 0,0 0.36,-0.917 0.478,-1.34 4.958,-12.543 15.03,-21.624 23.8,-28.64 -0.048,-12.35 -0.105,-38.207 -0.105,-38.207 l -22.675,-22.58 c -2.908,2.657 -5.486,5.392 -8.065,8.358 l 26.033,34.268 -2.308,1.502 -25.76,-34.09 c 3.052,-3.667 6.363,-6.866 9.664,-10.084 z m 23.127,22.28 c 0,0 -0.125,-58.833 -0.296,-87.242 l -13.51,13.86 0.052,59.635 z m -1.15,-81.64 -9.544,9.848 0.106,60.616 -2.453,-2.418 0,-58.984 11.925,-12.495 z m -92.896,-1.46 c 0.285,0.503 0.16,1.2 -0.297,1.77 -1.953,2.42 4.18,6.63 8.592,5.897 3.357,-0.556 6.22,-2.573 4.985,-4.107 -1.006,-1.25 -0.35,-2.514 0.86,-2.505 1.24,0.01 2.24,0.998 1.162,2.35 -2.396,3.013 1.258,6.546 6.845,6.62 3.95,0.05 5.266,-0.923 5.053,-3.737 -0.1,-1.318 0.16,-1.683 1.077,-1.883 1.465,-0.32 2.204,1.36 0.99,2.64 -2.624,2.766 0.357,6.834 5.318,7.096 1.816,0.096 2.174,0 4.2,-1.144 1.583,-0.893 2.14,-2.243 1.366,-3.292 -1,-1.35 0.347,-2.962 1.9,-2.297 1.112,0.474 1.66,1.326 0.43,2.77 -1.614,1.898 -0.85,3.462 2.26,4.518 2.422,0.824 4.098,0.722 5.232,-0.313 0.353,-0.32 1.138,-0.994 1.126,-0.788 -0.762,1.315 -1.437,2.536 -1.437,2.536 -5.072,2.263 -9.03,-1.972 -8.9,-2.13 -5.227,3.015 -9.86,2.38 -13.776,-2.686 -1.017,0.564 -8.305,1.892 -13.567,-3.882 -5.31,2.664 -10.245,1.546 -14.63,-1.433 -3.242,3.06 -6.658,3.544 -10.208,2.075 l -1.05,-2.115 c 0.264,-0.1 1.408,2.12 6.964,1.086 1.864,-0.347 5.073,-3.48 3.276,-5.01 -0.823,-1.163 -0.847,-1.688 -0.12,-2.394 0.714,-0.695 1.935,-0.337 2.348,0.36 z m -13.61,2.773 c 0.31,0.6 0.352,1.597 0.01,0.998 -0.18,-0.316 -1.12,-1.728 -1.076,-1.77 0.437,-0.038 0.87,0.414 1.066,0.77 z m 106.512,0.48 0.062,78.224 -8.13,-8.064 -0.39,-61.28 z m -94.14,3.79 2.56,1.61 -4.585,-0.03 z m 14.39,1.345 2.148,2.088 -4.52,-0.948 z m 40.264,1.084 -0.96,1.968 c -0.555,-0.62 -0.716,-1.934 0.96,-1.97 z m 16.243,32.518 c 1.632,-3.663 3.814,-8.327 7.348,-9.81 -2.63,-5.227 -2.288,-10.452 -0.422,-13.316 -2.668,-2.484 -5.407,-5.46 -7.107,-9.74 -8.43,7.445 -9.786,22.737 0.183,32.866 z m -0.252,-31.435 0.58,1.43 c -7.508,9.19 -5.19,21.254 0.25,27.692 l -0.782,1.62 c -6.647,-7.01 -9.557,-21.828 -0.047,-30.742 z m -44.89,5.2 c 8.7,2.55 15.67,6.53 25.73,2.986 l 0.047,1.957 c -6.403,4.11 -19.16,-0.232 -27.776,-3.413 -13.85,-5.112 -24.63,-4.814 -32.332,-4.23 -0.678,-0.133 -1.217,-1.903 -0.13,-1.915 14.4,-0.16 12.074,-1.957 34.462,4.612 z m 1.966,-3.466 2.857,3.032 c -2.146,-0.675 -4.232,-1.422 -6.173,-2.352 z m 43.613,0.748 0.56,0.773 c 0.242,0.334 -1.58,0.507 -1.275,0.115 z m -49.097,5.548 c 10.386,3.9 21.823,7.792 29.328,4.302 0,0 0.05,1.486 -0.81,1.907 0,0 -0.79,0.64 -3.44,1.004 -12.144,0.997 -20.027,-4.03 -29.83,-7.002 -3.717,-1.127 -9.69,-2.492 -15.824,-2.746 -3.642,-0.166 -9.214,0.357 -9.214,0.357 -1.214,-0.1 -1.197,-0.818 -1.207,-1.52 10.558,-1.41 20.268,-0.358 30.998,3.698 z m 50.226,-3.74 c 0.133,0 0.27,0 0.404,0.025 l 1.062,1.356 -1.26,2.003 c 0,0 -1.11,-1.023 -1.674,-2.027 -0.31,-0.65 0.53,-1.313 1.467,-1.356 z m -30.603,0.382 3.29,2.483 c -2.474,0.12 -5.257,0.214 -8.012,-0.88 z m 27.858,1.265 c 0.26,-0.01 0.53,0.267 0.85,0.81 0.612,1.045 0.53,1.245 -0.656,1.627 -1.562,0.502 -1.684,0.39 -1.18,-1.01 0.345,-0.952 0.652,-1.42 0.985,-1.427 z m 4.996,0.64 2.225,1.866 c -1.228,3.195 -2.032,7.25 0.435,13.072 -0.274,0.018 -1.872,1.595 -2.374,1.864 -1.408,-0.59 -4.51,-12.125 -0.285,-16.802 z m -2.528,2.444 -0.565,3.533 c -0.046,0.29 -2.46,-1.673 -2.234,-2.655 0.43,-1.166 1.9,-0.917 2.8,-0.878 z m -3.99,1.24 c 0.292,0 0.75,0.71 1.313,1.632 0.44,0.72 0.35,0.992 -0.623,1.868 -1.43,1.446 -1.712,0.974 -1.395,-1.487 0.157,-1.216 0.374,-2.015 0.705,-2.013 z m 2.96,3.202 c 0.193,0 0.363,0.05 0.486,0.15 l 0.164,3.44 c 0.015,0.312 -2.686,-0.12 -3.04,-1.432 -0.45,-0.84 1.34,-2.18 2.39,-2.158 z m -3.567,2.91 c 0.194,-0.028 0.8,0.374 1.37,0.713 0.996,0.59 1.017,0.85 0.16,1.95 -1.006,1.292 -1.506,1.085 -1.66,-1.164 -0.057,-0.825 -0.118,-1.465 0.13,-1.5 z m 3.965,1.315 c 0.087,0 0.165,0.026 0.23,0.083 0.48,0.41 1.212,3.86 0.904,4.22 -0.438,0.512 -2.744,-0.17 -3.258,-0.98 -0.49,-0.772 1.283,-3.32 2.124,-3.322 z m -2.822,4.062 c 0.265,-0.018 0.74,0.165 1.462,0.512 0.434,0.21 1.157,0.602 1.317,0.937 0.282,0.59 -0.186,1.466 -0.79,2.192 -0.4,0.48 -0.775,0.123 -1.55,-1.487 -0.623,-1.295 -0.88,-2.123 -0.44,-2.153 z m 4.654,1.543 c 0.053,0 0.1,0.01 0.145,0.034 0.785,0.434 0.653,1.727 -0.275,2.683 -1.115,1.147 -2.083,0.283 -1.313,-1.173 0.487,-0.923 1.07,-1.536 1.442,-1.545 z m -64.775,32.093 c -0.68,0.03 -1.74,0.645 -2.2,1.24 -0.586,0.752 -1.096,0.654 -1.744,0.6 -0.77,-0.013 -1.944,0.158 -3.533,0.882 -0.9,0.41 -1.31,0.503 -2.63,0.57 -0.862,0.043 -1.725,0.16 -1.917,0.26 -0.192,0.1 -0.812,0.318 -1.376,0.483 -1.153,0.337 -0.742,0.665 -0.08,2.15 3.364,8.627 5.775,18.678 6.653,26.865 0.987,9.393 0.688,20.782 -0.625,29.48 -3.22,0.022 -5.244,-0.143 -8.636,-0.086 -2.314,18.81 -8.593,33.746 -21.14,47.178 l 33.918,0.087 c 3.886,-10.365 21.62,-18.27 22.203,-17.687 l 0.935,3.783 c 0,0 -12.757,1.823 -21.348,18.01 0.88,-0.53 4.078,-0.162 6.19,2.03 4.22,-5.35 11.14,-8.844 11.186,-8.762 l 0.23,-0.644 c 0,0 1.27,-0.432 2.386,-0.644 0.357,-0.068 1.09,-0.206 1.577,-0.377 0.753,-0.263 1.126,-0.543 2.288,-0.444 2.418,0.232 4.845,-0.47 4.794,-0.482 -7.2,-19.857 -8.902,-37.78 -6.09,-58.603 2.653,0.02 8.47,0.12 8.47,0.12 0.584,-5.85 1.325,-11.704 3.122,-17.227 2.307,-7.092 5.09,-13.685 9.57,-19.713 2.53,-3.786 4.74,-6.48 7.354,-10.028 l -33.202,0.077 c -4.394,7.385 -12.86,13.552 -19.664,16.122 -2.316,0.87 -2.642,0.74 -3.026,-0.348 -0.686,-1.945 -0.653,-1.863 1.158,-2.38 0.605,-0.172 2.54,-1.19 5.56,-2.606 6.41,-3.253 10.818,-9.21 13.41,-13.23 1.03,-1.588 0.34,-1.23 -1.424,-1.245 -1.615,-0.127 -2.353,-0.626 -3.804,-1.98 -0.535,-0.498 -0.764,-0.854 -1.01,-0.825 -1.894,2.722 -5.075,6.312 -7.557,7.376 z m 7.792,-6.287 c 1.49,1.598 3.262,2.533 5.592,2.837 -3.724,5.845 -8.274,10.416 -13.503,13.194 l -2.66,-7.477 c 6.517,-3.034 8.26,-6.073 10.57,-8.552 z m 54.117,2.38 c -35.115,32.463 -33.05,73.39 -8.46,106.633 l -2.576,1.55 c -23.093,-30.948 -27.272,-76.73 8.015,-108.322 z m -22.137,3.96 8.608,-0.02 -5.86,7.597 -7.863,-0.03 z m -1.35,0.062 -4.786,7.548 -12.914,0.166 c -7.727,9.526 -16.027,14.173 -24.476,17.344 l -1.65,-8.134 c 0,0 13.38,-3.226 22.043,-17.027 z m -13.12,0.624 -2.994,3.31 3.11,3.163 2.837,-3.21 z m 6.776,-0.077 -3.032,3.15 2.366,3.172 3.142,-3.08 z m -14.95,0.573 -0.515,4.957 3.9,1.28 0.57,-4.238 z m 23.727,0.185 -2.83,4.425 4.26,0.067 2.98,-4.405 z m -44.557,1.13 2.763,7.657 -2.427,1.17 -2.46,-7.996 z m -3.27,1.23 2.85,7.92 -2.386,0.787 -2.616,-8.245 z m 3.413,31.272 c 0.317,11.016 0.475,17.656 -1.367,27.34 -0.096,0.505 -2.074,0.057 -2.074,0.057 0.25,0.083 1.113,-10.942 1.045,-17.868 -0.13,-13.19 -2.367,-26.236 -7.543,-39.307 0.987,-0.603 3.42,-0.91 3.42,-0.91 3.267,9.91 6.162,20.573 6.517,30.687 z m -34.476,-30.543 c 11.336,15.04 19.438,35.444 18.083,55.576 -1.3,23.41 -10.174,36.902 -25.76,53.113 l -4.023,0.093 c 18.45,-17.693 26.615,-32.833 27.26,-52.81 0.74,-22.973 -6.277,-38.253 -18.095,-54.537 z m -36.26,20.675 0.04,5.478 38.62,-16.563 -5.57,-8.206 z m 90.516,-17.944 -4.205,0.212 0.14,4.243 4.383,-0.106 z m 37.475,-0.806 25.027,32.817 -6.193,4.6 -23.86,-30.84 z m -19.616,2.24 7.49,0.117 -2.896,4.805 -7.24,-0.058 z m -1.384,0.12 c -3.444,6.405 -8.195,13.71 -10.863,25.513 l -24.66,0.02 c -0.046,-2.694 -0.395,-5.39 -0.797,-8.084 10.626,-3.888 18.858,-9.7 24.91,-17.385 z m 4.56,0.338 -3.215,1.853 1.966,2.26 3.543,-1.357 z m -29.353,2.36 -1.062,4.18 3.998,1.54 0.738,-4.967 z m 22.995,3.123 7.187,0.044 -3.026,6.043 -7.12,-0.106 z m 17.112,-0.79 23.683,30.698 -2.22,1.758 -23.145,-30.008 z m -14.385,1.278 -3.24,2.7 2.44,2.813 2.987,-2.385 c 0.063,-0.05 -2.187,-3.127 -2.187,-3.127 z m -31.432,0.223 -0.995,4.064 4.156,1.105 0.744,-4.358 z m -5.75,2.703 -0.844,4 3.914,1.058 0.825,-3.856 z m -32.32,-0.402 c 0.202,-0.04 -0.654,4.763 -1.913,5.628 -0.6,0.414 -0.913,0.323 -1.434,-0.24 -0.36,-0.388 -1.988,-3.044 -1.988,-3.044 l 1.39,-0.7 c 1.69,2.7 1.687,1.394 2.326,-0.906 z m -6.49,2.767 c 0.55,0 1.22,0.682 1.974,2.01 1.092,1.918 1.056,2.043 -0.738,2.595 -3.23,0.855 -4.43,1.06 -3.438,-1.07 1.07,-2.295 1.492,-3.53 2.2,-3.534 z m 9.613,-0.38 2.21,3.782 c -8.86,22.563 -23.154,38.747 -42.827,48.54 l -0.046,-3.748 c 23.194,-13.202 32.705,-28.798 40.662,-48.574 z m 60.25,1.63 6.974,0.127 -1.863,5.333 -7.414,-0.053 z m -71.96,-0.232 c -5.676,13.53 -13.433,25.332 -28.942,35.298 l -0.062,-3.594 c 17.417,-10.497 24.946,-30.16 24.945,-30.165 z m 88.158,-0.023 c 4.13,0.113 8.472,4.615 8.032,8.326 -0.31,2.617 0.19,4.557 0.902,3.486 1.573,-2.365 6.21,-0.793 6.167,2.048 -0.022,1.512 -1.033,1.76 -1.612,0.396 -0.857,-2.016 -3.263,-2.066 -3.618,0.047 -0.333,1.98 1.347,3.436 5.835,5.06 5.26,1.232 8.427,5.947 6.556,8.658 -0.65,0.716 -1.04,0.892 -1.163,0.52 -0.035,-0.106 -0.164,-0.665 -0.285,-1.24 -0.597,-2.84 -1.958,-4.033 -3.612,-3.058 -0.83,0.49 -0.724,1.136 -0.24,1.99 0.644,1.137 0.24,1.578 -0.912,1 -1.82,-0.916 -2.422,-3.083 -0.657,-4.082 2.098,-0.84 1.388,-1.02 -1.294,-1.926 -5.708,-1.95 -8.157,-5.528 -8.457,-12.343 0.11,-3.107 -0.315,-4.215 -1.776,-4.64 -1.338,-0.388 -2.852,1.312 -1.892,2.207 0.522,0.486 0.948,0.928 0.67,1.197 -0.886,0.862 -3.106,-0.536 -3.083,-2.036 0.014,-0.98 0.385,-1.183 1.853,-2.336 0.407,-0.32 0.06,-0.923 -0.536,-0.932 -2.243,0.723 -2.085,-2.244 -0.878,-2.34 z m -12.93,0.787 -3.487,2.004 1.816,2.537 3.86,-1.813 z m -67.84,1.97 c 0.4,0 0.728,0.322 0.728,0.723 0,0.4 -0.328,0.73 -0.73,0.73 -0.4,0 -0.723,-0.33 -0.723,-0.73 0,-0.4 0.323,-0.724 0.723,-0.724 z m 7.146,0.313 c 7.36,16.06 9.11,34.427 3.99,52.78 l -19.875,-25.856 c 7.625,-8.585 12.75,-18.413 15.885,-26.925 z m -26.877,1.18 -17.733,7.45 -0.098,13.296 c 9.908,-6.76 14.11,-13.682 17.83,-20.746 z m 17.046,-0.11 c 1.746,-0.056 0.884,4.66 -1.385,6.27 -0.832,0.64 -1.393,0.562 -1.668,-0.717 -0.142,-0.662 -0.84,-2.065 -1.72,-3.193 -1.02,-1.314 -1.01,-1.346 0.484,-1.44 1.65,0.026 3.002,-0.766 4.29,-0.92 z m -1.73,2.003 c -1.288,-0.02 -1.674,0.584 -0.906,1.41 0.646,0.694 1.16,0.546 1.593,-0.46 0.264,-0.61 0.027,-0.94 -0.686,-0.95 z m -31.982,17.248 0.043,-11.285 15.166,-6.384 c -3.042,6.593 -8.674,13.13 -15.208,17.67 z m 134.718,9.117 -2.02,2.03 -19.577,-25.52 1.225,-3.222 z m -107.29,-25.815 c 0.656,0.01 2.144,2.286 2.562,3.92 0.31,1.212 -0.02,1.468 -2.317,1.81 -0.95,0.26 -3.524,0.01 -3.315,-0.676 0.373,-0.988 2.838,-5.057 3.07,-5.054 z m 70.923,0.26 7.142,0.078 -1.636,5.86 -7.482,-0.11 z m 3.155,0.358 -3.325,2.302 2.63,2.592 3.524,-2.176 z m 11.207,2.52 19.804,25.704 c -5.908,7.515 -11.802,16.15 -15.676,27.56 -7.05,-16.492 -9.632,-32.545 -4.128,-53.263 z m -80.435,2.188 c 0.4,0 0.73,0.323 0.73,0.724 0,0.4 -0.33,0.73 -0.73,0.73 -0.4,0 -0.724,-0.33 -0.724,-0.73 0,-0.4 0.324,-0.724 0.724,-0.724 z m -2.278,0.98 c 1.236,0.087 0.07,4.025 -1.792,5.46 -1.467,1.133 -2.098,0.608 -2.437,-1.464 -0.122,-0.748 -0.908,-2.02 -1.6,-3.024 -0.775,-1.122 -0.456,-1.3 1.505,-0.85 1.37,0.266 3.06,-0.06 4.324,-0.122 z m 66.187,0.962 7.49,0.045 -1.153,8.9 z m -72.98,0.412 c 1.18,1.1 2.672,4.96 1.908,5.238 -0.89,0.324 -4.917,-0.144 -5.368,-0.608 -0.31,-0.32 -0.31,-0.32 0.348,-1.202 0.362,-0.484 1.052,-1.45 1.535,-2.148 0.435,-0.51 0.917,-1.89 1.578,-1.28 z m 4.17,0.132 c -1.14,0.038 -1.216,0.194 -0.674,1.424 0.44,1.002 0.747,1.092 1.506,0.434 1.054,-0.915 0.61,-1.907 -0.832,-1.858 z m 131.47,0.772 0.272,4.388 c -28.794,14.28 -39.576,47.998 -39.73,47.998 l -2.09,-3.89 c 13.21,-32.557 30.782,-41.984 41.548,-48.496 z m -135.67,5.19 c 1.713,-0.037 2.214,-0.154 2.205,0.482 0.02,1.708 -1.577,4.134 -3.53,5.048 -1.312,0.616 -1.342,0.63 -1.49,-0.917 -0.114,-1.19 -0.503,-2.723 -1.12,-3.943 -0.194,-0.453 -0.938,-1.49 0,-1.195 0.935,0.295 2.867,0.546 3.936,0.524 z m 3.845,-0.398 c 0.4,0 0.724,0.324 0.724,0.724 0,0.4 -0.324,0.724 -0.724,0.724 -0.4,0 -0.724,-0.323 -0.724,-0.724 0,-0.4 0.323,-0.724 0.724,-0.724 z m -9.175,1 c 0.31,-0.01 0.607,0.63 0.96,1.57 0.77,2.04 1.005,3.148 0.778,3.63 -0.35,0.74 -5.076,0.26 -5.88,-0.566 -0.152,0.114 3.477,-4.223 4.142,-4.634 z m 3.403,0.507 c -0.677,0.047 -0.32,0.455 0.183,1.637 0.348,0.82 0.82,0.95 1.357,0.377 0.72,-0.767 0.817,-1.377 0.362,-1.705 -0.667,-0.27 -1.16,-0.305 -1.902,-0.31 z m 137.8,4.44 0.025,1.47 c -1.12,-0.335 -1.816,-0.81 -3.095,-1.236 -0.783,-0.263 -1.246,-0.45 -0.554,-1.275 1.084,-1.294 2.248,-2.102 3.57,-2.903 l 0.01,1.664 c -2.113,0.938 -1.908,1.802 0.047,2.28 z m -83.228,-1.495 7.955,0 0,5.252 6.22,0 -0.48,5.985 -5.74,0 0,5.252 -7.955,0 0,-5.252 -5.68,0 0.457,-5.985 5.222,0 z m 17.966,0.02 c -4.03,19.958 -0.334,41.147 5.88,58.41 l -3.135,0.346 c -4.844,-13.805 -8.695,-33.46 -4.778,-58.745 0,0 1.403,-0.025 2.033,-0.01 z m 59.04,0.386 c 0.402,0 0.725,0.324 0.725,0.725 0,0.4 -0.323,0.724 -0.724,0.724 -0.4,0 -0.725,-0.324 -0.725,-0.725 0,-0.4 0.324,-0.724 0.724,-0.724 z m -139.933,1.676 c 0.263,-0.01 1.072,0.34 1.79,0.54 1.08,0.3 1.932,0.43 2.916,0.45 1.978,0.037 2.237,0.02 1.386,1.645 -0.613,1.172 -1.993,2.72 -2.96,3.192 -1.366,0.73 -1.89,0.63 -1.81,-0.715 0.01,-0.912 -0.385,-2.498 -0.9,-3.63 -0.403,-0.88 -0.86,-1.468 -0.42,-1.48 z m 8.365,0.64 c 0.4,0 0.73,0.324 0.73,0.725 0,0.4 -0.33,0.73 -0.73,0.73 -0.4,0 -0.724,-0.33 -0.724,-0.73 0,-0.4 0.324,-0.723 0.724,-0.723 z m 133.843,-0.095 c 0.56,-0.01 1.522,0.333 2.4,0.76 2.324,1.13 2.26,1.388 -0.89,3.624 -2.287,1.736 -2.83,1.93 -2.91,-0.806 -0.083,-2.306 0.166,-3.55 1.4,-3.577 z m -143.4,0.663 c 0.922,0.013 1.944,4.818 1.115,5.246 -1.292,0.666 -5.292,-0.633 -5.276,-1.73 0,-0.355 3.753,-3.523 4.16,-3.517 z m 140.62,-0.198 c 0.55,-0.025 0.624,0.408 0.574,1.94 -0.027,0.81 0.112,2.135 0.17,2.75 0.116,1.282 0.01,1.37 -1.005,0.798 -0.648,-0.367 -1.964,-0.968 -3.39,-1.09 -1.166,-0.102 -1.25,-0.582 -0.89,-1.352 1.03,-1.704 2.898,-2.9 4.54,-3.045 z m -137.193,0.724 c -0.806,-0.01 -0.606,0.42 -0.107,1.625 0.354,0.854 0.968,0.935 1.598,0.208 0.884,-1.018 0.71,-1.557 -0.573,-1.752 -0.272,-0.04 -0.732,-0.08 -0.917,-0.08 z m 136.126,1.143 c -0.335,0.03 -0.794,0.295 -1.014,0.44 -0.757,0.473 -1.064,0.815 0.034,1.19 0.977,0.336 1.497,0.48 1.42,-0.36 -0.048,-0.508 -0.01,-1.245 -0.44,-1.27 z m -74.662,0.622 0,5.233 6.333,0 0,-5.233 z m 69.005,0.454 c 0.4,0 0.723,0.322 0.723,0.723 0,0.4 -0.324,0.724 -0.724,0.724 -0.402,0 -0.725,-0.323 -0.725,-0.724 0,-0.4 0.323,-0.724 0.724,-0.724 z m -118.548,0.815 19.978,25.642 -1.327,3.343 -20.577,-27.07 z m 132.125,-0.12 0.043,3.35 c -2.257,1.65 -16.59,12.038 -24.005,29.52 l -3.882,1.653 c 5.465,-15.046 17.152,-27.933 27.844,-34.524 z m -151.978,1.418 c 1.3,0.396 2.54,1.3 3.77,1.463 1.41,0.172 1.897,0.082 1.515,0.81 -0.856,1.633 -2.47,3.342 -4.176,3.9 -1.22,0.4 -1.795,0.25 -1.603,-0.506 0.36,-1.417 0.42,-2.58 0.37,-3.87 0.194,-0.705 -0.407,-1.69 0.122,-1.797 z m -1.526,0.3 c 0.83,0.708 0.665,5.19 -0.26,6.154 -0.485,0.504 -1.888,0.043 -3.993,-1.15 -1.374,-0.78 -1.63,-1.254 -0.945,-1.732 1.164,-0.706 4.573,-3.44 5.2,-3.273 z m 142.73,0.096 c 0.43,-0.01 0.964,0.064 1.606,0.21 2.49,0.56 3.045,1.13 0.922,2.815 -0.784,0.624 -1.616,1.398 -1.858,1.695 -1.142,1.4 -1.937,0.384 -2.187,-2.158 -0.174,-1.78 0.094,-2.793 1.516,-2.563 z m -3.12,0.24 c 0.405,0 0.665,0.21 0.657,0.715 -0.01,0.643 0.453,3.423 0.71,4.19 0.45,1.302 0.124,1.596 -0.955,1.027 -0.786,-0.423 -2.866,-0.745 -3.992,-0.656 -1.28,0.1 -1.243,-0.242 -0.868,-1.318 0.664,-1.906 3.236,-3.957 4.45,-3.958 z m -136.868,0.927 c -0.487,0 -0.507,0.655 -0.174,2.158 0.106,0.478 0.517,0.448 1.293,-0.097 0.92,-0.645 0.88,-1.05 -0.154,-1.67 -0.426,-0.256 -0.743,-0.39 -0.964,-0.39 z m 5.66,0.164 c 0.402,0 0.725,0.325 0.725,0.725 0,0.4 -0.322,0.724 -0.723,0.724 -0.4,0 -0.724,-0.324 -0.724,-0.725 0,-0.4 0.324,-0.724 0.724,-0.724 z m 128.844,2.815 c 0.348,0.34 1.632,0.325 1.853,0.12 0.34,-0.312 0.182,-1.765 -0.1,-1.94 -0.725,-0.246 -2.187,1.284 -1.753,1.82 z m -119.908,2.766 c 0.437,2.073 3.35,1.958 3.02,-0.202 -0.19,-1.26 -0.235,-1.235 0.397,-1.206 3.008,0.147 2.486,4.89 -0.98,4.522 -0.724,0.087 -0.82,0.383 -0.208,0.637 0.608,0.254 2.938,0.852 3.297,0.85 3.77,-0.012 9.212,5.787 9.078,10.934 -0.088,3.365 1.053,5.788 2.22,6.062 0.928,0.218 2.274,-0.625 2.158,-1.655 -0.16,-1.42 0.995,-0.977 1.66,0.044 1.015,1.41 -0.294,3.447 -2.713,3.287 -1.028,0.202 0.756,0.855 2.08,1.237 1.2,0.07 0.185,1.546 -0.038,1.81 -0.678,0.787 -2.9,0.186 -4.643,-1.22 -2.14,-1.73 -3.06,-4.045 -3.31,-8.593 -0.164,-2.924 -0.382,-3.518 -1.232,-2.312 -1.53,2.69 -5.19,1.373 -5.648,-1.468 -0.256,-1.504 1.07,-2.59 1.497,-1.226 1.134,2.834 3.91,2.153 3.46,-0.66 -0.3,-1.858 -2.156,-2.882 -5.826,-3.915 -4.412,-1.243 -5.724,-2.753 -6.584,-6.372 -0.38,-1.6 -0.32,-2.44 0.526,-3.276 0.418,-0.414 0.95,-0.835 0.95,-0.835 0,0 0.59,2.433 0.836,3.56 z m 115.41,-2.296 c 0.402,0 0.725,0.324 0.725,0.724 0,0.4 -0.323,0.724 -0.724,0.724 -0.4,0 -0.724,-0.323 -0.724,-0.724 0,-0.4 0.323,-0.724 0.723,-0.724 z m -138.482,0.688 c 1.314,0.476 2.443,1.18 3.797,1.642 0.88,0.3 0.64,1.002 -0.272,2 -1.015,1.2 -2.012,1.79 -3.42,2.457 l 0.016,-2.025 c 1.71,-0.597 2.8,-2.022 -0.074,-2.478 z m 141.902,1.13 c 0.497,0 1.202,0.024 2.03,0.194 2.092,0.433 2.338,0.62 1.08,2.09 -0.466,0.546 -1.16,1.368 -1.54,1.83 -1.238,1.724 -1.905,1.132 -2.48,-1.096 -0.716,-2.327 -0.88,-3.22 0.91,-3.017 z m -135.338,0.83 c 0.4,0 0.724,0.325 0.724,0.725 0,0.4 -0.323,0.724 -0.724,0.724 -0.4,0 -0.724,-0.322 -0.724,-0.723 0,-0.4 0.324,-0.724 0.724,-0.724 z m 133.228,1.578 c 0.2,0.735 0.502,1.67 0.734,2.334 1.136,2.506 0.417,1.537 -1.62,1.316 -1.367,-0.15 -3.546,0.08 -4.084,-0.298 -0.235,-0.306 -0.02,-1.11 0.42,-2.018 0.618,-1.278 1.74,-2.367 2.58,-2.86 2.122,-0.98 1.627,0.265 1.97,1.526 z m -122.316,-0.89 22.82,30.17 -1.79,2.55 -23.472,-31.02 z m 143.012,0.11 c -11.862,8.573 -16.418,18.977 -17.343,20.336 l 17.39,-6.71 z m -22.65,0.984 c -0.65,0.18 -1.583,1.385 -1.18,1.86 0.24,0.246 1.195,0.278 1.654,0.11 0.706,-0.26 0.224,-1.973 -0.473,-1.97 z m -100,32.63 -4.862,6.125 -25.326,-32.76 6.39,-4.615 z m 121.385,-31.84 0.18,11.26 -14.876,6.2 c 4.98,-8.413 9.86,-13.615 14.696,-17.46 z m -101.71,0.955 5.957,7.755 -7.28,-0.166 z m 75.333,0.633 c 0.4,0 0.724,0.324 0.724,0.724 0,0.4 -0.324,0.724 -0.724,0.724 -0.4,0 -0.724,-0.322 -0.724,-0.723 0,-0.4 0.323,-0.724 0.724,-0.724 z m 4.366,1.835 c 2.725,0.038 3.634,0.185 2.842,1.524 -1.058,1.307 -1.682,2.55 -2.835,3.758 -0.667,0.678 -1.5,-0.72 -2.195,-2.955 -0.56,-1.805 -0.277,-2.26 0.79,-2.275 1.067,-0.015 1.248,-0.054 1.397,-0.052 z m -3.147,2.443 c 0.222,0.714 0.744,1.886 1.158,2.602 0.414,0.716 0.88,1.512 0.85,1.65 -0.07,0.336 -0.388,0.362 -1.105,0.092 -1.553,-0.7 -5.202,0.04 -5.3,-0.305 -0.54,-0.774 0.272,-2.88 1.805,-4.34 0.748,-0.71 1.434,-1.175 1.83,-1.182 0.396,-0.01 0.468,0.542 0.762,1.483 z m -127.29,-0.554 25.77,33.467 -1.782,2.17 -26.06,-34.112 c 0,0 -4.115,2.016 -5.325,2.69 l 0.163,17.308 -0.704,-0.033 0.106,87.672 14.38,-14.34 -0.187,-59.487 c 3.05,2.87 5.662,5.932 9.154,8.745 l 5.98,-0.047 c 15.61,-15.88 24.162,-29.468 26.038,-53.803 1.256,-16.28 -4.153,-36.752 -18.5,-56.592 l -3.502,2.127 6.92,10.43 -14.66,6.5 c -5.84,12.31 -12.763,23.672 -25.425,30.178 l -0.07,15.934 -0.22,0.33 0.167,5.003 z m 125.998,1.143 c -0.685,0.05 -1.755,1.526 -1.265,2.03 0.578,0.275 1.47,0.256 1.84,-0.24 0.256,-0.483 0.19,-1.508 -0.575,-1.79 z m -76.876,3.446 7.57,0.043 -1.98,6.49 -7.37,-0.138 z m 71.893,-0.03 c 0.4,0 0.724,0.324 0.724,0.725 0,0.402 -0.323,0.725 -0.724,0.725 -0.4,0 -0.724,-0.323 -0.724,-0.724 0,-0.4 0.324,-0.723 0.724,-0.723 z m -38.557,0.2 0.978,8.43 c -8.253,3 -17.154,8.093 -24.94,17.456 -1.33,-0.088 -11.944,0.09 -11.944,0.09 0.266,0.04 9.836,-18.02 10.938,-25.857 z m -29.975,0.784 -3.47,2.385 2.712,2.89 3.592,-2.432 z m 72.23,0.035 c 0.737,0 1.726,0.087 2.52,0.227 1.278,0.248 1.467,0.272 1.036,1.328 -0.576,1.4 -1.873,3.927 -2.2,4.128 -1.174,0.726 -3.778,-4.484 -2.89,-5.385 0.235,-0.185 0.733,-0.294 1.533,-0.298 z m -3.32,1.603 c 0.336,-0.03 0.783,0.622 0.915,1.184 0.16,0.682 1.342,2.402 2.087,3.226 0.936,1.037 0.887,1.182 -0.454,1.29 -1.597,0.126 -3.157,0.44 -4.056,0.767 -1.393,0.506 -1.583,0.395 -1.404,-1.235 0.27,-2.452 1.907,-5.145 2.913,-5.232 z m -1.223,5.073 c 0.174,0.476 2.336,-0.396 2.456,-0.966 -0.02,-0.256 -0.867,-1.735 -1.378,-1.802 -0.865,0.135 -1.227,2.097 -1.077,2.77 z m -73.03,-0.332 7.154,0.067 -2.347,5.894 -7.072,-0.02 z m 3.203,0.79 -3.428,2.167 2.67,2.582 3.282,-2.263 z m 72.742,1.068 c 0.608,-0.01 1.25,0.053 1.386,0.275 0.38,0.627 -1.168,4.124 -1.168,4.124 l -2.522,1 c -0.542,-1.116 -1.47,-2.276 -1.693,-3.484 -0.09,-0.53 0.177,-0.722 0.76,-1.05 0.87,-0.487 2.225,-0.854 3.237,-0.864 z m -6.753,0.286 c 0.4,0 0.724,0.323 0.724,0.724 0,0.4 -0.323,0.724 -0.723,0.724 -0.4,0 -0.724,-0.324 -0.724,-0.724 0,-0.4 0.323,-0.724 0.724,-0.724 z m -32.62,0.1 c 0,0 1.545,8.734 1.63,7.772 -11.93,4.492 -18.908,11.122 -22.215,17.59 l -22.382,-0.016 4.995,-7.752 13.25,-0.067 c 6.406,-7.773 14.307,-13.97 24.72,-17.527 z m -2.866,2.056 -1.104,3.53 3.345,2.132 1.26,-3.79 z m 36.665,0.07 c 0.284,-0.028 0.565,0.45 1.14,1.47 0.424,0.755 0.984,1.852 0.984,1.852 l -1.002,0.372 c -0.807,-2.758 -1.548,-1.733 -1.634,0.702 l -1.372,0.546 c 0,0 0.15,-2.346 0.932,-3.717 0.45,-0.788 0.7,-1.203 0.95,-1.226 z m -72.957,2.41 6.936,0.088 -2.9,6.01 -7.053,-0.193 z m 30.255,0.484 -0.55,4.46 3.735,0.792 0.512,-4.238 z m -27.306,0.053 -3.427,2.216 2.25,2.96 3.296,-2.216 z m 21.948,3.905 -0.71,4.108 3.505,0.796 0.796,-4.132 z m -76.158,0.24 8.77,8.694 0.483,60.65 -8.72,8.746 z m 47.716,2.222 c -0.03,0.048 6.996,0.2 6.996,0.2 l -2.813,5.077 -2.403,-0.11 3.162,-2.156 -2.027,-2.592 -3.25,2.12 1.81,2.62 -4.745,-0.102 z m 45.24,1.502 2.383,7.87 -2.863,0.496 -2.15,-7.404 c 0.876,-0.454 1.754,-0.678 2.63,-0.962 z m -22.5,0.49 0.05,4.722 3.822,0.323 0.15,-4.427 z m 19.005,0.755 2.178,7.475 -1.817,0.517 -2.604,-7.097 c 0.712,-0.42 1.457,-0.73 2.242,-0.896 z m -3.317,1.542 2.8,7.32 c -3.867,1.568 -7.878,4.925 -10.897,8.275 -2.238,-1.644 -3.555,-1.817 -4.935,-2.188 3.807,-7.095 8.304,-10.82 13.033,-13.408 z m -42.256,1.835 7.356,0.222 -5.116,7.64 -8.322,-0.01 z m 21.898,0.285 -0.478,4.47 3.94,2.326 0.597,-4.59 z m -4.745,0.627 -2.8,2.958 2.974,3.393 2.728,-3.54 z m -6.26,0.154 -3.326,3.05 2.646,3.452 3.04,-3.47 z m -42.372,2.845 0.326,59.25 -12.22,11.84 -0.09,-3.186 9.714,-10.144 c 0.01,-20.04 -0.052,-40.082 -0.12,-60.123 z m 32.51,-1.915 -3.373,4.6 4,0.01 2.902,-4.455 z m -20.808,28.672 c -1.33,4.787 -7.464,9.98 -7.574,9.892 3.037,4.35 2.935,10.556 0.257,13.613 0.012,-0.068 4.882,3.973 5.565,6.072 0.385,0.836 0.54,1.854 1.028,2.684 0.13,0.22 0.54,0.765 0.54,0.765 11.895,-12.06 6.23,-26.196 0.184,-33.028 z m 0.18,1.25 c 11.547,14.33 3.933,27.443 -0.096,31.102 l -0.768,-1.272 c 8.58,-9.974 4.944,-22.226 -0.056,-28.026 z m -1.25,2.79 c 0.076,0.232 0.525,0.907 0.192,0.864 l -0.58,-0.115 z m -0.088,1.597 c 0.25,0 0.46,0.08 0.573,0.25 0.235,0.393 -0.958,3.687 -1.695,2.92 -0.223,-0.436 -0.485,-0.813 -0.69,-1.264 -0.24,-0.537 -0.082,-0.797 0.47,-1.33 0.378,-0.37 0.923,-0.575 1.34,-0.576 z m 1.66,0.893 c 0.583,0.046 1.413,1.883 1.49,3.196 0.037,0.136 -1.97,-0.31 -2.504,-0.922 0.064,-0.537 0.568,-1.905 1.013,-2.273 z m -4.518,1.5 c 3.477,6.99 3.26,12.452 0.198,17.472 l -2.4,-2.052 c 1.614,-3.818 2.412,-7.893 -0.303,-13.082 z m 2.345,1.75 c 0.24,-0.022 0.984,0.088 1.64,0.298 2.328,0.744 2.415,2.267 0.175,3.384 -0.928,0.46 -1.217,0.257 -1.752,-2.072 -0.265,-1.152 -0.464,-1.577 -0.063,-1.612 z m 4.494,2.678 c 0.45,0 0.656,0.845 0.71,2.307 0.052,1.388 -0.243,1.497 -1.36,0.507 -1.21,-1.072 -1.417,-1.326 -0.31,-2.207 0.325,-0.258 0.757,-0.607 0.96,-0.608 z m -3.17,2.292 c 0.22,-0.02 0.863,0.39 1.49,0.87 1.592,1.212 1.24,2.043 -0.568,2.63 -1.253,0.406 -1.19,0.457 -1.16,-1.71 0.017,-1.07 -0.046,-1.765 0.238,-1.79 z m 21.064,1.973 c -1.942,0.492 -2.758,2.225 -2.113,3.784 0.293,0.71 0.74,0.715 0.217,1.148 -0.583,0.673 -0.893,2.23 -0.252,2.798 0.757,0.434 0.952,-0.314 0.154,1.15 l -14.63,26.873 87.815,-0.163 -10.555,-19.768 c 0.025,-0.028 0.844,-3.26 -0.844,-3.65 -0.542,-0.126 -0.853,-0.63 -0.963,-1.112 0.138,-1.375 -0.487,-1.96 -1.013,-2.67 -8.347,1.178 -15.598,0.59 -21.588,-0.756 -8.63,-1.94 -14.796,-5.3 -18.806,-6.357 -5.53,-1.455 -12.203,-2.088 -17.422,-1.277 z m 4.73,0.185 c 6.804,-0.04 14.42,2.042 19.752,4.35 5.53,2.283 11.39,3.986 17.31,4.86 4.884,0.614 9.757,0.305 14.43,-0.065 0.51,-0.077 1.04,-0.01 1.42,0.398 0.968,1.076 0.31,1.75 -2.114,1.974 -3.89,0.32 -8.715,0.183 -12.994,-0.46 -6.776,-0.777 -13.96,-2.826 -20.157,-5.395 -7.744,-2.906 -14.858,-3.88 -20.48,-3.022 -3.086,0.47 -3.54,0.545 -3.528,-0.285 0.024,-1.617 1.363,-2.356 6.362,-2.355 z m -22.295,4.69 c -0.3,0.686 -2.416,-1.557 -2.395,-2.19 0.045,-0.28 1.758,-1.397 2.438,-1.85 0.33,-0.253 0.307,-0.122 0.312,0.174 0.012,0.845 -0.056,3.028 -0.356,3.866 z m -3.26,-1.654 c 0.977,0.132 2.583,2.77 1.17,3.177 -1.253,0.362 -2.392,0.594 -2.544,-0.245 0.644,-2.063 0.887,-2.88 1.26,-2.926 0.037,0 0.077,0 0.115,0 z m 56.787,9.004 c 6.233,1.078 14.415,1.723 19.763,1.305 3.065,-0.31 3.71,-0.21 3.692,1.068 -0.012,0.8 0.076,0.78 -3.88,0.777 -3.29,0.22 -6.25,-0.133 -9.432,-0.298 -6.587,-0.327 -12.57,-1.455 -18.1,-3.375 -6.136,-1.59 -11.45,-4.65 -17.455,-5.28 -5.506,-0.54 -10.458,0.434 -11.497,1.01 -0.346,0 -0.527,-0.517 -0.507,-0.99 0.02,-0.465 0.194,-0.837 0.58,-1.132 15.782,-3.98 24.23,4.545 36.837,6.914 z m -54.725,-5.272 c 0.526,0.01 0.36,0.784 -0.502,2.433 -0.732,1.402 -1.02,1.394 -1.434,-0.043 -0.44,-1.536 -0.4,-1.706 0.478,-1.93 0.517,-0.125 0.953,-0.395 1.458,-0.46 z m -3.683,0.782 c 0.616,0.01 1.49,2.8 1.042,3.326 -0.355,0.415 -1.64,0.133 -2.013,-0.357 -0.603,-0.79 0.167,-2.98 0.97,-2.97 z m 27.588,0.755 c 2.448,-0.026 4.888,0.236 7.13,0.62 -1.29,0.48 -2.576,0.92 -3.917,1.694 -0.925,-0.796 -1.977,-1.57 -3.212,-2.315 z m 3.18,3.386 c 8.652,-4.823 12.304,1.836 13.554,2.91 7.563,-1.674 9.044,-0.85 13.264,3.71 7.573,-3.704 11.244,-0.556 14.405,1.435 3.71,-3.464 8.412,-3.56 10.862,-1.82 0.46,0.766 1.096,1.74 1.148,2.03 0.04,0.226 -0.306,-0.038 -1.158,-0.648 -4.448,-3.182 -11.83,0.78 -9.856,4.977 0.53,1.13 0.446,1.616 -0.348,2.07 -1.128,0.763 -2.514,-0.504 -1.728,-1.796 1.312,-2.158 0.324,-3.964 -2.867,-5.633 -4.498,-2.35 -11.846,0.284 -10.334,3.75 0.966,1.11 0.07,1.89 -1.208,1.85 -1.446,-0.045 -1.936,-1.012 -1.01,-2.046 1.158,-1.32 0.854,-2.66 -0.493,-4.185 -4.04,-5.754 -12.212,-3.473 -11.13,1.568 0.474,1.253 -0.876,1.758 -2.278,1.2 -0.892,-0.353 -0.76,-1.732 0.217,-2.22 1.123,-0.113 1.282,-1.74 1.148,-2.784 -0.195,-1.52 -2.437,-3.017 -4.653,-3.812 -1.605,-0.574 -3.095,-0.698 -4.272,-0.59 -2.483,0.227 -3.87,1.913 -3.46,4.44 0.24,1.492 -0.177,3.037 -1.927,2.217 -0.957,-0.45 -0.717,-1.533 0.26,-2.53 3.44,-3.36 -3.484,-7.445 -7.664,-4.63 -0.708,0.582 -1.226,0.684 -1.226,0.684 2.622,-6.526 10.83,-0.414 10.753,-0.148 z m 11.394,-0.878 5.224,1.967 c -1.205,0.238 -2.053,0.577 -2.907,0.915 z m -13.642,2.12 c -4.82,-0.912 -5.084,4.475 -1.942,5.353 -4.322,5.94 6.996,8.244 4.92,0.917 5.734,1.033 4.697,-5.493 0.432,-5.433 0.998,-2.43 8.87,-0.59 8.53,1.218 -5.32,0.564 -3.195,5.412 -0.892,5.418 -5.565,5.27 5.57,10.126 5.275,2.183 4.47,0.94 4.994,-4.99 0.7,-5.38 1.572,-2.214 7.19,-0.82 8.748,1.712 -4.433,0.588 -4.156,4.482 -0.686,5.11 -4.398,5.6 6.425,7.67 5.3,1.16 3.878,1.334 6.007,-3.84 0.982,-5.32 5.147,-3.065 10.736,1.505 10.13,1.598 -5.873,-0.347 -4.704,5.538 -0.454,5.218 -2.704,6.113 8.012,6.453 5.294,0.115 4.82,0.088 4.397,-5.497 -0.22,-5.87 2.907,-2.12 6.186,-2.305 8.295,-0.322 -4.393,1.156 -2.567,6.264 1.853,4.85 0.41,4.274 3.885,3.367 3.962,3.238 l 3.11,5.802 -84.258,0.135 7.19,-13.272 c 4.252,0.218 4.1,-3.874 3.913,-3.974 2.827,2.02 5.867,-2.997 1.73,-4.435 3.38,-3.535 8.39,-0.27 8.09,-0.016 z m -27.43,-0.37 c -0.176,0.18 -0.22,0.29 -0.512,0.02 -0.734,-0.84 1.264,-0.91 0.512,-0.02 z m 17.423,2.224 c 0.37,0.304 0.116,1.136 -0.186,1.42 -0.76,0.814 -1.015,0.75 -0.347,-0.655 0.197,-0.425 0.384,-0.77 0.533,-0.765 z m 36.914,0.377 4.38,1.058 -2.08,1.173 c -0.767,-0.834 -1.507,-1.554 -2.3,-2.23 z m 13.692,1.763 4.763,0.304 c -0.63,0.428 -1.247,0.827 -2.017,1.607 -0.6,-0.637 -1.736,-1.274 -2.747,-1.91 z m 15.872,4.858 c 0.265,0.554 1.316,2.476 1.217,2.526 -1.542,0.268 -1.954,-2.025 -1.218,-2.525 z"
         id="path4573" />
    </g>
  </g>
</svg>
