<?xml version="1.0" encoding="UTF-8" standalone="no"?>
<!-- Created with Inkscape (http://www.inkscape.org/) -->

<svg
   xmlns:dc="http://purl.org/dc/elements/1.1/"
   xmlns:cc="http://creativecommons.org/ns#"
   xmlns:rdf="http://www.w3.org/1999/02/22-rdf-syntax-ns#"
   xmlns:svg="http://www.w3.org/2000/svg"
   xmlns="http://www.w3.org/2000/svg"
   xmlns:sodipodi="http://sodipodi.sourceforge.net/DTD/sodipodi-0.dtd"
   xmlns:inkscape="http://www.inkscape.org/namespaces/inkscape"
   width="63.281277mm"
   height="88.281372mm"
   viewBox="0 0 224.225 312.80801"
   id="svg22021"
   version="1.1"
   inkscape:version="0.91 r13725"
   sodipodi:docname="KH.svg">
  <defs
     id="defs22023" />
  <sodipodi:namedview
     id="base"
     pagecolor="#ffffff"
     bordercolor="#666666"
     borderopacity="1.0"
     inkscape:pageopacity="0.0"
     inkscape:pageshadow="2"
     inkscape:zoom="0.35"
     inkscape:cx="-546.45891"
     inkscape:cy="156.404"
     inkscape:document-units="px"
     inkscape:current-layer="layer1"
     showgrid="false"
     fit-margin-top="0"
     fit-margin-left="0"
     fit-margin-right="0"
     fit-margin-bottom="0"
     inkscape:window-width="1600"
     inkscape:window-height="838"
     inkscape:window-x="-8"
     inkscape:window-y="-8"
     inkscape:window-maximized="1" />
  <metadata
     id="metadata22026">
    <rdf:RDF>
      <cc:Work
         rdf:about="">
        <dc:format>image/svg+xml</dc:format>
        <dc:type
           rdf:resource="http://purl.org/dc/dcmitype/StillImage" />
        <dc:title></dc:title>
      </cc:Work>
    </rdf:RDF>
  </metadata>
  <g
     inkscape:label="Calque 1"
     inkscape:groupmode="layer"
     id="layer1"
     transform="translate(-262.88748,-375.9582)">
    <g
       transform="translate(-2505.5941,28.832712)"
       id="g13822">
      <rect
         style="fill:#ffffff;stroke:#000000;stroke-width:0.99699998"
         width="223.228"
         height="311.811"
         x="2690.4861"
         y="484.93399"
         ry="10.63"
         rx="10.63"
         transform="translate(78.494,-137.31)"
         id="rect13824" />
      <path
         style="fill:#e2cf00"
         inkscape:connector-curvature="0"
         d="m 2850.21,608.69 53.416,1.14 c 4.73,6.495 14.23,19.738 14.23,19.738 l -86.3,1.135 z m -22.352,4.522 c 2.308,-4.628 2.754,-9.087 2.315,-15.514 -0.347,-4.93 2.758,-8.772 5.96,-7.3 2.477,1.138 1.334,5.804 -1.227,4.816 -0.98,-0.378 -1.84,-0.035 -1.71,2.182 0.23,5.462 1.694,11.614 0.435,16.85 -0.876,5.088 -7.915,2.744 -5.772,-1.034 z m -21.626,-7.135 c -2.72,-4.055 2.154,-7.854 5.204,-5.983 1.447,0.673 1.242,2.137 -0.58,1.356 -2.546,-1.09 -5.285,2.764 -3.07,4.312 1.02,0.713 1.407,0.617 0.632,-0.274 -2.064,-2.386 3.215,-3.44 3.062,-1.87 -0.36,1.915 -0.406,2.72 -0.58,3.097 -1.076,1.67 -3.143,0.818 -4.668,-0.638 z m 7.584,-17.05 c -2.937,-3.644 0.43,-6.51 0.386,-6.406 0.872,-0.937 -6.998,-15.518 -6.004,-15.613 9.94,-1.052 19.985,-0.258 29.945,0.05 0,0 -5.31,9.494 -7.428,14.19 -0.853,1.894 1.14,4.12 0.316,5.528 -2.563,2.785 -0.97,5.87 -2.567,6.01 -4.485,-0.573 -8.917,-1.313 -13.89,-0.323 -0.366,0 -0.404,-2.08 -0.757,-3.435 z m 43.024,-101.31 c 5.025,25.427 -2.384,52.38 -19.37,70.163 -2.398,-2.29 -4.237,-6.636 -6.628,-9.47 -6.64,-1.983 -11.415,0.35 -16.07,2.633 -4.135,-2.37 -8.794,-3.763 -13.334,-3.703 l -0.147,-3.932 c 4.595,-0.1 9.448,0.323 13.54,2.84 l 6.4,-2.583 -19.96,-20.584 0.27,-3.516 24.22,24.293 3.12,0.11 c -6.855,-18.114 -0.858,-46.884 27.96,-56.25 z m 33.773,31.895 3.502,16.604 c 0,0 -18.513,19.824 -29.96,29.234 l -8.624,-0.78 c 0,0 11.783,-20.832 9.622,-19.24 z m 69.596,22.773 c -8.222,9.152 -18.046,14.97 -28.956,21.383 -4.362,-4.844 -9.655,-10.172 -12.712,-14.948 9.517,-5.056 18.59,-8.972 27.91,-17.822 -0.51,0.572 -11.89,4.41 -11.852,3.968 -0.41,1.89 -0.164,3.054 -2.015,3.552 -2.19,-3.044 -4.31,-5.514 -7.767,-6.874 -1.45,0.13 -3.374,-0.822 -3.374,-0.822 0.968,-0.197 0.542,-11.875 0,-12.01 0,0 0.284,-0.346 2.815,-0.295 4.52,-0.31 7.443,-5.746 10.248,-7.608 8.766,-0.717 16.53,0.14 25.166,-0.09 -0.066,10.393 0.536,21.17 0.533,31.565 z m -55.663,-26.326 c -0.22,-0.44 -2.433,-17.665 -0.33,-28.465 0.386,-2.534 4.4,-3.393 5.17,-5.28 1.278,-4.102 -0.64,-9.168 0.37,-13.766 1.032,-4.68 3.255,-7.313 5.2,-10.792 2.11,-3.768 5.127,-8.47 8.472,-11.28 0.98,-0.955 4.41,2.123 6.972,7.444 7.444,4.663 16.988,-1.354 16.988,-1.354 0,0 3.704,3.006 12.08,4.65 l -0.142,3.235 c -0.042,0.94 -9.422,-1.002 -11.44,-2.88 0,0 -7,2.33 -6.998,2.755 0,1.813 18.474,18.84 18.474,18.84 l 0.104,4.2 c -2.77,-3.836 -24.436,-22.272 -24.436,-22.272 4.803,28.05 -6.67,45.517 -30.485,54.963 z m -30.997,-5.49 -0.415,-16.518 15.787,0.186 0.65,16.69 z m -72.238,-17.855 c 0.422,-0.586 -0.614,-30.787 -0.55,-30.787 10.048,-9.945 19.876,-15.503 29.728,-21.55 4.455,4.39 8.24,8.095 11.523,13.414 l -13.592,8.33 c 0.517,2.03 -0.824,2.762 7.94,10.666 0.146,-0.54 3.033,-2.15 3.537,0.257 -1.186,5.08 0.527,9.4 0.753,12.13 -1.197,1.6 -3.872,-0.117 -3.872,-0.117 -1.73,-1.795 -8.514,7.07 -10.45,8.06 -8.45,-0.315 -25.49,0.256 -25.016,-0.403 z m 95.103,-53.853 c 0.11,-0.108 8.593,0.065 8.48,0.368 -1.546,4.123 -5.382,11.442 -8.892,19.886 -4.046,7.197 -9.657,11.437 -14.448,16.153 -3.83,3.77 -7.244,9.712 -9.86,8.17 -1.598,-5.108 -1.967,-9.64 -3.728,-15.298 -0.807,-3.353 4.09,-5.538 28.448,-29.28 z m 37.118,-28.317 c 3.108,1.32 11.837,0.63 13.222,0.035 1.776,1.2 0.667,2.798 0.443,3.686 1.822,2.296 2.82,3.11 0.75,6.813 -0.472,0 6.363,15.318 6.546,15.33 0,0 -7.223,-3.414 -9.77,-5.72 l -4.983,6.596 -5.787,-7.446 c -0.02,0.672 -11.154,8.024 -11.29,7.67 -0.348,-0.35 10.168,-11.62 8.08,-18.236 -0.5,-1.594 0.65,-3.215 1.436,-4.62 0.54,-0.964 -0.187,-2.827 1.353,-4.11 z m -5.778,-1.372 c 0.47,-0.54 -2.7,-14.39 0.738,-19.982 1.456,-2.032 4.09,-2.136 5.19,-0.472 0.84,2.315 -1.665,5.537 -2.168,7.11 -1.63,4.385 0.79,10.17 -0.39,14.313 -3.54,9.052 -9.806,-0.89 -3.37,-0.967 z m 23.553,-6.152 c -1.865,0.082 -0.563,-5.467 -0.255,-7.056 -0.01,-0.314 3.413,-1.11 4.646,1.073 1.99,3.26 -0.403,7.375 -4.392,5.984 z m -22.24,-27.972 -17.568,21.27 c -17.763,-2.035 -35.588,-3.327 -53.752,-0.56 l -14.608,-20.288 z"
         id="path13826" />
      <path
         style="fill:#131f67"
         inkscape:connector-curvature="0"
         d="m 2960.947,373.49 -162.533,0.502 1.784,258.012 162.163,-0.96 z m -37.395,1.58 c 1.783,0 3.566,0.004 5.348,0.01 l -19.46,23.833 -0.478,0.16 c 1.297,3.78 3.148,8.496 4.915,12.077 2.816,5.787 9.89,16.423 5.476,24.93 -0.432,0.73 -0.835,1.085 -1.376,1.082 -0.75,-0.004 -0.736,-0.442 -0.29,-1.295 0.984,-1.88 1.65,-6.335 1.258,-8.693 -0.25,-1.505 -1.09,-3.825 -2.686,-7.33 -7.395,-13.598 -9.706,-20.846 -9.286,-20.846 -0.097,-0.06 -0.262,-0.145 -0.532,-0.208 l -0.726,-0.24 c 2.562,8.595 6.726,15.82 10.022,22.512 2.703,6.22 2.993,8.632 1.58,13.158 -0.548,1.753 -1.537,2.875 -2.51,2.87 -0.73,-0.003 -0.688,-0.15 -0.19,-1.038 2.59,-4.63 1.99,-9.685 -1.23,-15.564 -4.676,-9.71 -7.482,-15.853 -9.148,-22.083 -0.04,-0.002 -0.853,-0.273 -1.145,-0.343 1.387,6.484 5.263,13.962 8.87,21.615 2.983,5.893 3.842,10.188 2.767,13.58 -0.353,1.47 -1.478,3.66 -2.9,3.725 -0.556,-0.003 -0.643,-0.292 -0.118,-1.05 2.21,-3.773 2.602,-7.254 -1.353,-15.178 -3.635,-7.286 -7.283,-15.44 -8.53,-22.562 -0.08,-0.585 -1.66,-1.277 -1.32,-0.31 1.953,8.415 5.84,17.03 9.97,25.43 2.325,5.214 2.565,8.55 0.82,11.468 -0.974,1.63 -1.223,2.002 -1.954,2.018 -0.864,0.02 -0.85,0.05 -0.372,-0.94 2.11,-4.386 1.763,-8.25 -1.056,-14.587 -3.866,-8.69 -7.122,-15.88 -8.513,-23.53 -0.25,-0.07 -1.558,-0.576 -1.37,-0.194 1.932,7.286 4.407,14.048 7.596,20.888 1.11,2.372 2.912,6.987 3.493,9.3 1.102,4.402 -1.383,10.447 -4.636,10.752 -1.212,0.113 -1.06,-0.49 0.29,-1.742 2.326,-2.157 2.777,-5.597 1.988,-9.59 -0.593,-3.072 -1.614,-6.37 -3.018,-9.722 -2.838,-6.777 -5.927,-13.867 -6.904,-20.123 0.032,-0.56 -1.268,-0.563 -0.9,0.023 0.7,4.398 2.377,9.407 4.212,14.06 2.008,5.09 4.997,10.792 5.975,17.04 0.8,5.11 -2.398,9.935 -6.28,10.223 -4.677,0.347 -5.598,-4.266 -4.473,-6.43 1.835,-3.227 7.164,-1.383 5.58,1.918 -0.912,1.9 -3.696,1.4 -3.578,-0.683 -0.033,-0.19 0.266,-0.76 0.213,-0.792 -0.097,-0.056 -0.505,0.318 -0.636,0.55 -0.946,1.69 1.896,3.953 3.872,2.596 6.62,-3.575 2.148,-14.478 -0.737,-21.138 -2.794,-6.206 -4.843,-11.813 -5.73,-17.557 -0.243,-0.168 -1.336,-0.445 -1.183,-0.247 0.802,3.065 1.172,5.65 1.97,8.227 1.25,4.04 3.493,8.562 5.323,13.092 1.663,4.457 3.332,8.244 2.572,12.892 -0.07,0.43 -0.247,0.944 -0.54,1.257 -0.3,0.312 -0.544,0.264 -0.632,-0.92 -0.03,-0.16 -0.24,-0.373 -0.27,-0.578 0.162,-1.746 0.043,-3.477 -0.41,-5.12 -0.386,-1.376 -1.123,-2.78 -2.68,-5.452 -0.613,-0.995 -2.22,-4.037 -1.656,-1.935 0.323,1.19 1.426,3.83 2.572,5.745 0.71,1.188 1.46,4.432 1.238,5.058 -0.234,0.613 -0.777,0.648 -1.03,0.437 -0.228,-0.19 -0.226,-1.058 -0.285,-1.595 -0.24,-2.203 -2.502,-6.05 -4.07,-7.558 -1.128,-1.255 2.654,5.333 2.93,7.09 0.12,0.742 0.35,1.347 0.096,1.712 -0.168,0.24 -0.508,0.24 -0.84,0.156 -0.32,-0.082 -0.307,-0.302 -0.646,-1.433 -0.58,-1.935 -1.297,-2.91 -2.785,-4.655 -0.51,-0.597 -0.852,0.15 -0.04,1.12 1.124,1.77 1.97,2.9 2.255,5.177 -0.728,1.03 -1.087,0.83 -2.61,-1.78 -1.006,-1.724 -1.61,-2.167 -1.874,-2.155 -0.667,0.032 -0.037,0.856 1.837,3.8 0.97,1.573 0.994,2.55 -0.11,2.544 -0.373,-0.002 -2.468,-2.302 -2.993,-3.298 -0.436,-0.827 -0.976,-1.462 -0.978,-0.45 0,0.4 1.298,2.516 2.188,3.543 1.403,1.62 1.805,1.945 1.983,2.662 0.085,0.342 0.255,0.94 0.375,1.33 0.36,1.165 0.177,1.497 -0.55,0.88 -0.33,-0.862 -0.596,-0.952 -1.5,-1.617 -0.76,-0.56 -1.818,-2.012 -2.51,-3.036 -0.26,-0.387 -0.486,-0.877 -0.753,-1.272 -0.68,-1.266 -1.584,-1.376 -0.93,-0.098 0.31,0.592 0.81,1.565 1.336,2.285 0.88,1.25 0.7,1.902 -0.347,1.897 -0.448,-0.002 -1.7,-1.638 -2.482,-2.918 -0.51,-0.835 -1.308,-1.425 -1.21,-0.6 0.024,0.207 0.64,1.673 1.566,2.82 1.004,1.245 1.136,1.907 0.16,1.903 -0.665,-0.003 -1.238,-0.637 -2.087,-1.927 -0.806,-1.225 -1.31,-1.657 -1.537,-1.518 -0.29,0.177 1.156,2.607 2.344,3.933 1.123,1.256 0.3,1.97 -0.992,0.855 -0.7,-0.605 -2.103,-2.41 -2.496,-3.27 -0.703,-1.533 -1.156,-1.114 -0.702,0.1 0.5,1.34 1.282,2.807 2.225,3.76 0.494,0.498 1.514,0.89 2.01,1.318 1.41,1.216 2.304,2.338 2.19,2.538 -4.02,0.228 -7.32,-4.048 -8.224,-6.637 -0.642,-1.702 -1.373,-1.953 -0.68,0.45 1.96,5.972 8.07,9.074 12.295,6.397 2.55,-1.615 0.3,-5.82 -1.787,-4.465 -0.567,0.37 -0.593,1.413 0.128,0.854 1.356,-1.05 2.718,1.54 1.24,2.305 -2.08,1.077 -4.386,-1.03 -2.97,-3.587 1.396,-2.624 6.997,-1.122 5.9,3.118 -0.663,1.903 -3.57,4.28 -6.063,4.327 -4.63,0.087 -7.83,-3.452 -9.613,-6.947 -0.228,-0.45 -0.638,-1.333 -0.977,-2.054 -0.292,-0.623 -0.524,-1.086 -0.548,-1.08 0.515,4.243 4.582,9.49 8.224,10.356 6.052,1.418 7.708,-2.177 11.668,-5.893 0,0 2.893,0.375 2.994,0.313 0.267,-0.163 5.63,-0.402 5.79,-0.25 -21.667,39.148 -20.018,85.626 -1.387,120.905 1.23,2.58 1.446,2.092 -0.594,1.566 -2.108,-0.55 -4.02,0.293 -5.732,-0.1 -3.54,-0.722 -4.296,1.687 -7.018,2.974 -3.394,1.278 -2.626,3.63 -3.435,5.903 -0.254,0.352 -0.44,0.64 -0.3,0.593 0.225,-0.075 0.95,-0.742 1.003,-1.33 0.14,-1.503 0.678,-2.693 1.29,-3.292 0.585,-0.57 0.994,-0.86 1.135,-0.612 0.11,0.193 0.028,0.866 -0.26,1.41 -0.824,1.55 0.268,6.736 0.336,3.045 0.054,-2.928 1.835,-6.195 4.327,-7.53 1.996,-0.974 2.615,-0.875 0.99,0.623 -1.845,1.96 -3.1,4.245 -3.173,7.087 -0.03,1.18 0.44,2.163 0.607,1.106 -0.07,-5.414 5.357,-11.443 11.176,-8.446 0.29,0.21 0.535,0.6 0.45,0.822 -5.637,-0.942 -10.54,2.127 -9.818,9.394 0,0 0.506,-1.424 0.79,-2.846 0.888,-4.45 5.938,-6.396 9.48,-5.176 0.666,0.28 1.19,1.216 1.096,1.343 -4.332,-1.355 -9.086,2.725 -9.362,7.145 -0.09,1.438 -0.055,2.67 0.683,0.076 2.797,-9.822 11.426,-5.37 10.366,-4.564 -6.68,-0.795 -9.097,3.684 -8.943,8.863 0.096,0.473 0.34,0.632 0.54,1.073 0.89,1.95 1.296,3.624 1.367,7.164 -0.067,0.913 0.69,6.72 -0.074,6.475 -2.426,-0.895 -4.27,-1.95 -8.473,-0.067 -0.378,0.02 -0.502,-0.188 -0.372,-0.515 0.175,-0.44 0.832,-1.308 1.978,-2.592 2.582,-2.743 1.1,-2.008 -1.024,-0.105 -1.37,1.23 -1.072,0.39 0.22,-3.806 0.522,-1.7 0.196,-1.907 -2.057,-3.048 -2.318,-1.174 -3.922,-1.353 -1.955,-0.123 0.772,0.47 1.595,0.963 2.47,1.312 1.027,0.56 0.91,0.793 0.153,3.245 -1.472,4.763 -1.983,6.503 -1.906,9.706 0.186,7.79 7.637,7.018 11.878,5.266 l 0.176,5.13 15.973,22.42 c 0,0 -55.835,-0.057 -85.708,0.432 1.706,-4.082 19.764,-21.372 20.84,-24.465 0.102,0.014 -2.003,-6.322 -3.11,-9.078 -5.222,-13.015 -12.087,-18.487 -8.11,-27.037 0.854,-1.695 1.003,-2.266 1.653,-2.263 0.882,0.004 1.165,0.588 0.172,2.246 -4.268,7.133 4.84,19.442 7.917,27.292 0.493,1.258 2.554,7.15 2.916,9.133 0.035,0.606 1.48,0.813 1.076,0.104 -1.135,-4.01 -2.56,-8.392 -3.22,-9.97 -2.432,-5.795 -4.99,-9.75 -7.36,-15.415 -1.326,-3.58 -2.03,-7.715 0.024,-11.426 0.748,-1.35 0.962,-2.102 1.455,-2.173 0.425,0.002 0.675,0.146 0.702,0.493 0.03,0.38 -0.204,1.002 -0.764,1.95 -3.587,6.088 2.79,15.924 5.952,22.938 2.06,4.572 3.892,9.38 4.54,13.717 0.01,0.3 0.407,1.095 1.198,0.553 -1.367,-8.1 -5.385,-15.956 -8.905,-23.525 -3.006,-5.913 -4.135,-11.067 -0.117,-15.935 0.35,-0.336 1.1,-0.28 1.153,0.218 0.03,0.34 -0.23,0.98 -0.858,2.28 -3.54,7.376 1.94,13.368 4.513,20.402 2.508,5.88 4.842,10.82 5.78,17.086 0.71,0.27 1.06,0.605 1.136,-0.283 -1.834,-8.854 -5.79,-16.813 -9.22,-24.48 -1.587,-3.332 -2.148,-4.93 -2.255,-7.16 -0.148,-3.07 1.402,-6.95 2.79,-7.975 0.362,-0.266 0.587,-0.313 0.916,-0.135 0.452,0.244 0.36,0.407 -0.53,2.088 -1.704,3.21 -1.85,6.818 -0.27,10.634 2.727,5.86 5.025,10.667 6.653,14.975 1.782,4.712 2.784,8.803 3.188,12.496 0,0 1.214,0.537 1.034,-0.266 -0.757,-5.167 -2.47,-10.528 -4.318,-15.065 -1.745,-4.282 -3.93,-8.403 -5.703,-12.648 -2.15,-5.092 -0.37,-10.658 4.038,-13.437 l 2.028,0.044 c -0.118,-0.053 -4.624,1.73 -4.86,8.15 -0.225,6.115 2.682,9.874 4.783,15.054 2.563,6.25 4.856,11.73 5.4,18.407 0.202,0.233 1.31,0.282 1.293,0.184 -0.546,-4.49 -1.86,-8.76 -3.74,-14.01 -1.998,-5.577 -3.984,-8.05 -5.837,-13.907 -1.254,-3.962 -1.085,-9.33 1.708,-11.782 4.18,-4.208 10.013,-1.21 8.55,3.607 -1.127,3.392 -5.787,2.717 -5.76,-0.46 -0.01,-2.052 2.526,-2.607 3.365,-1.058 0.194,0.3 0.324,1.62 0.41,1.67 0.088,0.048 0.35,-1.04 0.352,-1.282 0.01,-1.685 -2.286,-3.105 -3.995,-2.25 -2.34,1.173 -3.86,3.867 -3.706,7.474 0.165,3.837 0.863,6.32 4.012,12.335 3.67,7.01 4.887,14.6 5.67,19.715 0.34,-0.142 0.745,0.04 0.877,0 -0.536,-6.973 -2.834,-14.135 -5.7,-20.09 -3.474,-7.21 -4.447,-11.623 -3.288,-14.854 0.17,-0.475 0.332,-0.832 0.54,-0.864 0.39,-0.058 0.51,0.562 0.87,1.856 0.11,0.397 -0.03,1.022 -0.11,1.504 -0.302,2.958 1.777,9.11 3.71,11.843 0.567,0.78 1.29,0.753 0.665,-0.63 -1.992,-3.575 -3.205,-6.815 -3.364,-11.16 -0.047,-1.278 1.445,-0.705 1.48,-0.064 0.107,2.075 0.315,4.52 1.31,6.26 2.02,3.443 3.144,3.593 1.077,-0.252 -0.46,-0.89 -1.772,-4.662 -1.243,-5.958 0.295,-0.264 0.653,-0.312 0.83,-0.048 0.585,2.132 1.393,4.242 2.823,5.884 0.75,0.855 0.874,0.47 0.48,-0.598 -0.66,-1.234 -2.72,-5.362 -1.77,-6.292 0.306,-0.25 0.126,-0.115 0.958,1.24 1.16,1.884 1.79,2.622 2.354,3.173 0.75,0.734 0.93,0.24 0.156,-1.047 -1.546,-2.573 -2.426,-4.712 -1.882,-5.25 0.536,-0.53 0.666,-0.285 1.887,1.786 0.543,0.92 1.33,2.278 1.6,2.6 0.266,0.317 0.51,0.4 0.516,0.137 -0.286,-2.5 -2.44,-5.35 -3.308,-5.846 -0.125,-0.23 -0.08,-2.206 -0.08,-2.206 3.237,1.66 3.37,3.535 5.513,6.42 0.22,0.215 0.535,-0.047 0.44,-0.446 -0.074,-0.54 -1.343,-2.94 -2.14,-3.995 -0.625,-0.828 -0.653,-1.303 -0.122,-1.542 0.858,-0.385 2.055,0.884 3.33,3.152 0.593,1.052 1.384,1.662 1.386,1.11 0,-0.304 -1.1,-3.017 -1.86,-3.8 -1.267,-1.306 -0.64,-2.22 0.825,-1.01 0.665,0.547 1.567,0.96 2.496,2.955 0.543,1.165 1.01,1.314 1.012,0.384 0,-1.044 -1.762,-3.597 -2.947,-4.303 -0.918,-0.547 -1.44,-1.158 -1.182,-1.566 0.805,-1.176 4.06,1.828 5.172,4.623 0.33,0.825 0.903,1.246 1.044,0.883 0.25,-0.185 -0.41,-2.2 -1.087,-3.132 -1.118,-2.132 -3.76,-4.192 -5.324,-3.943 -0.304,0.05 -1.135,-1.698 -1.135,-1.698 3.992,-0.642 7.87,4.117 8.56,5.898 1.31,3.38 1.975,2.983 0.83,0.02 -2.237,-5.793 -9.187,-9.038 -13.044,-6.236 -2.195,1.596 -0.882,5.413 1.377,4.765 0.9,-0.336 1.77,-1.247 0.19,-0.947 -1.758,0.175 -2.318,-2.488 -0.527,-3.022 2.883,-0.857 3.543,3.714 1.215,4.732 -2.415,1.03 -4.82,-0.506 -4.593,-3.146 0.428,-4.99 6.585,-6.43 12.664,-2.396 1.71,1.135 3.813,4.835 4.536,7.18 0.24,0.774 1.045,1.045 1.143,0.947 0.23,-0.228 -1.688,-4.347 -2.32,-5.394 -2.646,-6.033 -12.216,-6.33 -12.216,-6.02 0,0 -3.75,2.35 -7.08,6.218 l -8.552,-0.783 c 21.792,-34.833 23.505,-86.047 1.153,-122.303 0.286,0.184 4.297,1.216 5.68,0.133 1.02,-0.487 1.313,-0.655 2.44,-0.252 1.267,0.454 2.604,0.052 3.985,-1.205 1.04,-0.948 1.06,-1.24 1.732,-1.153 1.984,0.256 3.302,-0.9 3.71,-3.75 0.16,-1.118 0.27,-2.28 0.11,-2.11 -0.094,0.1 -0.324,1.067 -0.47,1.675 -0.402,1.674 -0.773,2.287 -1.428,2.833 -1.08,0.9 -1.704,0.396 -1.254,-0.968 0.426,-0.88 0.78,-3.146 0.194,-4.176 -0.102,-0.184 -0.127,0.517 -0.275,1.078 -1.178,4.464 -2.412,6.73 -4.547,7.253 -1.002,0.246 -1.466,0.094 -1.142,-0.48 3.767,-3.995 3.516,-8.422 3.23,-8.043 -0.8,2.56 -2.287,6.378 -4.73,7.947 -2.11,1.355 -5.2,1.485 -6.918,0.347 -0.975,-0.645 0.5,-0.837 2.708,-0.866 3.72,-0.05 7.2,-4.995 6.62,-9.164 -0.135,-0.77 -0.347,0.056 -0.65,1.324 -1.372,4.514 -3.726,7.683 -9.105,6.738 -0.42,-0.074 -0.7,-0.35 -0.93,-0.508 -0.874,-0.604 -0.552,-1.02 1.188,-0.793 3.89,0.507 7.276,-3.123 7.255,-7.51 -0.01,-2.105 -0.314,-2.08 -0.65,-0.512 -0.474,2.21 -2.202,8.99 -8.494,6.775 -1.134,-0.61 -1.752,-1.393 -1.348,-1.508 3.67,0.736 7.032,-0.067 8.34,-4.864 0.563,-2.07 0.428,-4.093 -0.146,-5.788 -0.182,-1.15 -0.57,-2.03 -0.702,-3.198 -0.35,-3.133 -0.853,-6.593 -0.702,-10.02 0.3,-0.3 0.353,-0.234 1.41,0.464 2.073,1.37 3.64,1.055 5.75,0.242 2.713,-0.976 2.467,-0.8 -0.37,2.39 -0.592,0.667 -1.19,1.48 -1.258,1.605 -0.722,1.346 0.632,0.358 1.647,-0.91 1.41,-1.764 1.706,-2.17 1.984,-2.17 0.094,1.907 -0.596,4.223 -0.954,5.785 -0.468,1.732 -0.462,2.132 0.646,2.576 0.48,0.193 1.407,0.57 1.92,0.816 2.322,1.104 2.108,0.206 0.258,-0.835 -2.5,-1.405 -2.52,-1.334 -1.803,-3.668 0.838,-2.737 1.25,-5.107 1.704,-7.816 1.122,-6.697 -3.953,-10.38 -10.695,-8.042 -0.387,0.193 -0.833,-3.52 -0.77,-4.503 0.06,-0.356 -1.02,-0.278 -1.903,-1.358 0.27,-0.24 -9.94,-12.975 -14.695,-20.698 26.66,-0.033 53.44,-0.48 80.18,-0.474 z m -16.578,23.928 c 0.065,0.042 0.104,0.076 0.104,0.076 -0.044,-0.05 -0.08,-0.076 -0.104,-0.076 z m 23.107,-23.32 28.595,0 0.412,61.588 -2.533,0.062 c 0,0 -4.774,-8.176 -6.03,-12.038 -0.315,-0.965 -0.865,-2.292 -1.078,-2.814 -0.486,-1.18 -0.825,-1.327 -0.18,-2.05 1.29,-1.445 1.036,-4.37 -0.22,-5.78 -0.387,-0.456 -0.588,-0.3 -0.568,-1.413 0.017,-0.956 0.106,-1.566 -0.147,-2.06 -0.424,-0.823 -0.71,-0.88 -0.104,-1.788 0.636,-0.95 1.48,-2.49 1.836,-3.7 0.576,-1.955 0.17,-2.32 1.452,-1.86 3.218,1.02 5.912,-1.267 5.828,-4.498 -0.07,-2.72 -2.625,-5.143 -5.595,-4.4 -0.685,0.17 -0.82,0.113 -1.874,-0.545 -0.302,-0.19 -0.763,-0.588 -1.153,-0.736 -0.49,-0.185 -0.893,-0.17 -1.096,-0.517 -0.4,-0.684 -1.642,-1.77 -3.156,-1.7 -0.924,0.043 -2.125,-0.29 -2.443,-0.455 -0.528,-0.275 -2.01,-0.052 -3.89,-0.333 -0.838,-0.124 -1.513,0.2 -1.918,0.205 -1.16,0.013 -0.686,-0.13 -0.907,-1.006 -1.452,-4.572 -5.695,-4.027 -7.64,-0.588 -0.712,1.35 -1.23,3.352 -1.498,5.42 l -11.426,-0.172 z m -88.425,0.132 c 4.268,5.407 8.352,11.467 12.654,16.987 5.294,6.685 5.47,7.454 4.047,14.182 -0.795,3.802 -1.136,4.68 -2.747,4.393 -1.513,-0.27 -2.793,0.915 -3,2.415 -0.386,2.817 2.34,4.55 5.078,3.14 1.444,-0.74 1.492,-0.822 1.01,1.634 -0.69,3.518 -2.07,6.547 -2.96,6.448 -2.296,-4.853 -7.88,-1.4 -6.027,3.645 -0.58,0.88 0.183,1.997 0.475,2.92 0,0 0.012,0.11 -3.178,1.16 -15.665,4.618 -35.067,16.674 -45.66,27.99 l -0.722,-84.683 z m 89.888,11.554 c 0.657,-0.017 1.29,0.192 1.812,0.66 1.366,1.22 1.045,2.93 -0.844,6.144 -1.98,4.48 -1.44,8.008 -0.986,12.712 -0.013,2.73 -0.94,5.326 -2.415,6.448 -2.393,1.818 -5.342,-0.617 -4.1,-3.084 0.634,-1.226 1.983,-0.51 2.3,-1.67 0.114,-0.694 0.1,-1.785 0.176,-2.302 -0.285,-2.062 -0.876,-8.35 -0.878,-10.533 0.025,-1.882 0.644,-4.244 1.5,-6.013 0.835,-1.475 2.18,-2.33 3.435,-2.363 z m 3.767,7.308 c -0.543,0.45 -1.447,0.46 -1.553,-0.102 0,-0.59 0.465,-2.468 0.785,-2.675 1.96,-0.456 1.335,2.29 0.768,2.777 z m 2.928,-2.93 c 1.618,-0.062 2.685,4.064 1.28,6.478 -0.266,0.05 -2.23,0.037 -2.238,0.076 -0.033,-0.432 0.095,-1.292 0.242,-2.116 0.125,-0.705 0.198,-1.24 -0.015,-1.998 -0.53,-1.89 -0.877,-2.245 0.73,-2.44 z m 3.084,0.058 0.19,0 c 1.644,0.008 2.58,3.172 2.064,6.63 -0.074,0.495 -0.117,1.016 -0.3,1.133 -0.686,-0.186 -2.593,0.492 -2.627,0.487 -0.18,-0.183 -0.108,-1.166 0.136,-2.053 0.45,-1.64 0.577,-2.73 0.048,-4.427 -0.38,-1.466 -0.394,-1.745 0.488,-1.77 z m 4.095,0.91 c 1.806,0.304 1.924,5.29 1.182,6.91 -0.178,0.24 -0.86,0.18 -1.102,0.27 -1.536,0.44 -1.194,0.667 -1.016,-1.77 0.123,-1.67 0.152,-2.97 -0.1,-4.35 -0.12,-0.606 -0.17,-1.028 0.27,-1.068 0.257,-0.052 0.53,-0.043 0.765,0.01 z m -9.01,1.95 c 0.718,0.984 0.14,3.258 -0.41,4.103 -0.625,0.93 -0.877,1.008 -0.535,1.417 0.145,0.173 0.447,1.053 0.26,1.423 -0.343,0.685 0.54,0.808 1.344,1.225 1.303,0.68 1.935,1.932 2.907,4.213 0.34,0.796 1.035,0.545 0.697,-0.31 -0.288,-0.733 -0.4,-1.81 -0.6,-2.53 -0.21,-0.74 0.02,-1.11 0.875,-0.893 1.286,0.326 1.108,0.02 1.578,-0.152 1.03,-0.57 1.724,0.237 1.1,0.683 -0.357,0.257 -1.12,0.412 -1.965,0.644 -0.717,0.196 -0.55,0.885 0.17,0.882 0.667,-0.003 2.576,-0.537 3.822,-0.914 3.57,-1.078 3.69,-1.65 3.354,0.375 -0.44,2.68 -1.905,4.69 -4.327,5.37 -2.108,0.594 -6.975,0.48 -9.144,-0.212 -2.06,-0.93 -2.195,-1.582 -2.818,-3.393 -0.852,-2.477 -1.355,-6.672 -0.375,-9.11 0.863,-2.058 0.776,-1.842 1.604,-1.74 0.736,0.258 1.726,-0.027 1.945,-0.478 0.11,-0.215 0.39,-0.607 0.517,-0.6 z m 13.67,1.487 c 0.203,1.102 0.222,2.235 -0.162,3.09 -0.222,0.4 -1.472,0.377 -1.955,0.383 -0.285,0.067 -0.263,-3.725 0.043,-4.138 0.727,-1.09 1.667,-0.213 2.074,0.665 z m -36.218,-0.655 3.533,0.043 0,0.858 -4.17,-0.028 z m 12.37,0.147 0,1.114 -5.324,0.01 0,6.984 5.954,0.02 0.034,1.45 -7.972,-0.028 0.024,-9.546 7.28,-0.005 z m 27.06,-0.224 c 5.457,1.198 3.022,7.227 0.976,7.592 -2.55,0.455 -4.71,0.168 -4.004,-2.074 0.71,-1.52 0.217,-3.41 0.417,-4.792 0.49,-0.455 1.776,-0.91 2.61,-0.726 z m -41.15,2.116 5.253,0.052 0,1.153 -6.002,-0.014 z m 11.67,1.063 c 0.837,0 1.517,0.68 1.517,1.518 0,0.84 -0.68,1.52 -1.518,1.52 -0.84,0 -1.52,-0.68 -1.52,-1.52 0,-0.838 0.68,-1.518 1.52,-1.518 z m 14.817,0.603 c 0.977,0.106 1.06,1.6 0.663,2.038 -0.512,0.507 -1.468,0.29 -1.76,-0.487 -0.262,-0.702 0.326,-1.583 1.097,-1.552 z m -27.952,0.65 6.718,0.02 0,0.933 -6.785,0.058 -0.18,-0.602 z m 37.822,0.403 c 0.93,-0.02 1.502,0.762 0.92,1.43 -0.877,0.973 -2.666,-0.517 -0.92,-1.43 z m -71.596,2.043 c -1.502,1.268 -0.297,2.516 1.7,1.314 4.296,-2.584 10.634,-0.536 14.765,1.617 0.81,0.414 0.92,-0.552 0.123,-1.22 -3.815,-3.36 -11.95,-5.285 -16.587,-1.71 z m 65.107,-1.766 c 1.05,0.005 1.034,1.312 0.36,1.78 -0.673,0.29 -0.79,0.21 -1.238,0.036 -0.614,-0.24 -0.156,-1.81 0.877,-1.816 z m 3.717,0.02 c 1.244,0.06 1.105,2.563 -0.773,1.66 -0.68,-0.73 -0.24,-1.665 0.774,-1.66 z m -34.727,1.29 6.53,0.056 0,1.063 -6.107,-0.062 z m -42.197,2.5 c 1.785,1.415 1.23,1.5 -1.727,0.46 -1.933,-0.43 -3.857,-0.156 -5.067,0.322 -1.432,0.565 -1.764,0.402 -1.144,-0.556 1.666,-1.868 6.255,-1.49 7.938,-0.228 z m 8.58,2.343 c -0.18,0.442 -0.79,-0.353 -1.62,-0.2 -1.18,0.22 -0.838,0.277 0.41,1.695 1.248,1.42 1.656,1.755 1.58,2.3 -0.113,0.806 0.114,1.248 0.915,1.16 0.386,-0.044 0.843,0.402 1.433,0.94 2.043,1.855 3.075,2.777 3.74,3.064 2.704,1.166 1.486,-0.15 -0.243,-1.344 -2.882,-1.99 -3.884,-3.314 -1.836,-2.605 2.175,0.755 5.636,0.327 7.34,-0.7 0.838,-0.506 1.37,-1.28 2.552,-0.903 1.66,0.532 2.297,-0.447 1.836,-0.996 -0.753,-0.483 -2.475,-1.06 -4.11,-2.158 -3.496,-1.774 -7.172,-1.722 -9.62,-0.294 -1.445,0.84 -1.948,0.25 -0.533,-0.584 5.677,-3.06 10.17,-0.13 13.803,2.07 0.63,0.38 1.07,0.35 1.073,0.08 -0.096,-0.89 -1.713,-1.434 -2.367,-1.832 -5.063,-3.08 -10.385,-4.064 -14.354,0.308 z m 34.47,-2.71 5.676,0.006 0,1.12 -5.257,-0.024 z m -46.172,1.43 c 1.572,-0.008 4.992,1.402 4.935,2.57 -0.066,0.445 -0.922,0.047 -1.665,-0.407 -1.438,-0.878 -3.645,-1.113 -5.723,-0.726 -1.595,0.297 -2.102,0.56 -2.33,0.37 -0.55,-1.238 3.324,-1.8 4.783,-1.808 z m 61.362,0.834 0.01,2.007 c -3.08,0.226 -3.715,3.65 -1.74,5.555 1.622,1.563 4.3,0.946 5.645,-1.27 0.235,-0.393 0.263,-0.63 0.408,-0.435 0.09,0.122 0.168,0.495 0.242,0.858 0.213,1.054 -0.09,1.324 -0.788,2.226 -1.128,1.458 -1.282,3.296 -0.574,4.664 0.194,0.377 0.602,0.915 0.53,1.163 0.396,-0.01 -3.497,10.88 -9.182,16.37 -0.95,0.632 -1.64,-0.112 -1.15,-1.133 4.63,-10.584 -4.23,-20.416 -7.668,-29.875 l 14.268,-0.128 z m -41.172,1.827 0.81,0.072 c -0.65,4.876 -5.383,4.09 -5.57,0.12 l 0.684,-0.025 c 0.922,3.695 4.086,2.182 4.076,-0.166 z m -26.728,0.1 c 0,0 0.34,0.545 0.34,0.85 0,1.135 -0.017,2.776 -0.046,3.274 -0.274,4.692 -6.227,5.562 -5.775,1.547 0.354,-1.703 2.507,-1.892 3.036,-0.35 0.773,1.94 0.91,-0.467 0.92,-1.22 0.63,-1.182 1.093,-2.617 1.524,-4.1 z m 28.688,0.333 c 0.244,0.006 0.68,0.22 1.025,0.588 0.39,0.422 0.245,0.632 -0.67,1.102 -0.99,0.51 -1.438,0.465 -1.08,-0.564 0.22,-0.64 0.41,-1.133 0.725,-1.125 z m 44.536,0.247 c 0.134,0.006 0.48,0.183 0.398,0.692 -0.134,0.852 -0.87,1.335 -1.062,1.135 0.122,-0.45 0.27,-1.65 0.664,-1.827 z m -51.644,1.646 c -0.117,0.345 -0.32,0.195 -0.84,-0.247 -0.573,-0.487 -0.543,-0.798 0.047,-1.15 0.85,-0.51 0.9,1.08 0.793,1.396 z m -18.026,-1.27 c 0.993,3.138 3.018,2.74 3.924,0.15 l 0.868,-0.014 c -0.19,4.042 -5.308,3.97 -5.352,0.062 z m -1.794,0.388 c 0.303,-0.048 0.086,1 0.086,1 0,0 -0.84,-0.433 -0.347,-0.89 0.06,-0.06 0.217,-0.104 0.26,-0.11 z m 7.516,0.265 c 0.104,-0.007 0.3,0.072 0.513,0.213 0.496,0.33 0.41,0.523 -0.158,0.996 -0.875,0.728 -1.27,0.323 -0.797,-0.655 0.176,-0.365 0.308,-0.547 0.44,-0.556 z m 65.352,0.683 c 0.37,-0.023 0.89,0.144 1.988,0.436 3.03,0.803 7.08,0.774 10.53,-0.176 1.09,-0.3 1.897,1.61 1.31,2.998 -0.26,0.614 -0.215,0.69 0.578,1.514 1.124,1.17 1.305,3.053 0.45,4.77 -0.62,1.248 -0.58,1.136 0.157,3.268 0.338,0.976 0.773,1.97 0.85,2.24 0.932,3.142 3.23,6.854 4.632,9.96 1.4,2.182 -2.51,0.023 -2.51,0.023 0,0 1.05,1.408 2.448,2.463 1.355,1.03 4.02,0.332 5.238,1.584 0.286,0.394 -0.277,8.728 -0.564,8.96 -12.038,-0.56 -32.12,-0.12 -32.12,-0.12 l 3.764,5.865 c 5.92,2.364 11.58,1.772 16.992,-1.633 -0.134,0.49 6.586,3.775 12.104,4.133 l 0.033,3.947 c -4.094,-0.46 -8.243,-0.553 -12.047,-2.946 0,0 -3.496,1.463 -7,2.558 l 19.617,20.29 0.01,3.392 c 0,0 -8.375,-7.815 -16.993,-16.626 l 0.186,43.326 16.972,0.332 c -0.533,11.276 -0.318,18.445 -0.204,31.36 -8.02,8.228 -19.056,16.46 -29.252,21.404 -4.812,-4.64 -8.788,-9.667 -12.266,-15.04 -0.074,-0.115 0.35,-0.332 0.278,-0.446 -0.107,-0.165 -0.71,-0.227 -0.82,-0.39 -2.12,-3.158 -7.047,-11.914 -6.267,-12.12 1.51,0.105 8.498,-0.76 9.89,-4.948 0.01,-0.266 -0.152,-1.013 0.037,-1.89 0.49,-2.27 0.743,-5.717 -0.09,-7.908 -1.502,-3.95 3.017,-2.685 3.17,-2.42 l -0.01,-14.923 c -5.88,4.715 -11.812,9.354 -19.673,11.294 -4.89,-24.643 2.864,-55.29 24.967,-76.076 l -1.212,-0.103 c -22.71,23.497 -28.665,49.336 -24.79,76.55 0,0 0.144,0.85 0.166,1.137 0.054,0.677 -0.108,0.935 -0.71,1.424 -0.575,0.377 -1.096,0.783 -1.044,1.248 0.097,0.874 -0.743,0.902 -1.842,0.897 -0.506,-0.442 -1.187,0.117 -1.594,0.32 -0.57,0.083 -0.853,-2.242 -1.58,-0.537 -0.277,1.076 -0.802,1.156 -2.016,0.62 -0.763,-0.222 -0.78,0.157 -0.048,1.04 1.013,1.09 1.87,2.72 1.704,3.208 -0.372,1.097 -0.21,2.2 1.338,2.83 -0.09,0.006 -0.935,3.34 1.466,3.245 0.764,0.007 2.7,0.398 2.7,0.398 0.125,0.637 -0.08,1 -0.38,1.28 l -1.67,-0.834 -0.437,1.987 -2.225,-0.156 5.414,6.686 0.63,-5.214 6.33,0.802 c 1.017,2.636 7.412,17.3 19.635,28.213 0,0 -6.68,2.908 -8.554,3.82 l -1.162,-4.157 -1.05,1.51 -1.868,-0.48 -0.22,1.708 -1.664,0.536 2.904,2.192 -7.464,2.27 c -21.323,-34.392 -30.972,-82.162 -4.418,-132.68 l 6.71,0.086 -1.31,2.24 1.908,-0.305 0.54,1.632 1.4,-0.662 1.407,1.765 1.602,-4.714 c 0,0 4.753,0.106 5.346,0.046 0.465,-0.052 10.047,-8.09 9.84,-8.398 -0.147,-0.222 -10.434,7.296 -10.78,7.008 0,0 -1.032,0.246 -0.227,-0.717 1.445,-1.728 2.464,-3.042 3.93,-5.524 2.422,-3.295 3.51,-7.316 4.08,-10.04 0.01,-0.19 0.062,-0.63 -0.1,-0.95 -0.923,-1.83 -0.72,-3.028 0.94,-5.19 0.58,-0.757 0.617,-0.944 0.45,-1.41 -0.373,-1.05 -0.014,-1.947 0.75,-2.652 0.304,-0.28 0.5,-0.414 0.788,-0.43 z m -56.534,7.316 c 4.21,1.73 0.83,5.558 -2.298,2.22 -1.64,-1.75 -2.933,-1.638 -3.825,-0.36 -0.4,0.575 0.184,1.587 0.704,1.266 0.48,-0.298 0.977,-0.65 1.68,-0.004 5.325,4.903 9.148,-1.96 4.56,-3.668 -0.57,-0.262 -1.375,0.318 -0.82,0.545 z m -17.345,-0.167 c 0.04,-0.002 0.086,0.02 0.147,0.057 0.2,0.125 0.214,1.857 0.014,2.586 -0.664,3.692 -3.296,12.27 -8.697,8.07 -2.144,-1.666 -0.193,-5.853 2.373,-4.43 2.004,1.11 0.65,3.76 -1.52,2.24 -1.052,-0.74 -0.718,0.784 0.172,1.22 1.508,0.788 4.238,-0.564 5.52,-2.972 0.51,-0.96 0.988,-2.657 1.526,-5.1 0.27,-1.23 0.293,-1.662 0.466,-1.67 z m 0.455,6.392 c 0.445,2.67 -1.587,7.343 -4.48,8.033 -2.213,0.528 -4.95,-0.914 -4.754,-2.25 0.058,-0.387 0.216,0.125 2.222,0.456 2.8,0.463 4.584,-1.05 6.197,-4.53 0.508,-1.1 0.726,-1.685 0.815,-1.71 z m 6.97,1.276 c 0,0.303 -0.145,1.097 -0.27,1.624 -0.3,1.25 -0.486,1.725 0.882,1.105 0.905,-0.418 2.228,-0.83 3.597,-0.072 1.51,0.838 2.952,0.682 4.73,-0.07 1.546,-0.515 2.3,-0.52 3.16,-0.025 1.575,0.906 1.035,0.328 0.83,-1.955 -0.14,-1.606 -0.578,-1.395 -1.142,-0.787 -0.37,0.4 -1.12,0.487 -1.955,0.04 -0.995,-0.536 -2.38,-0.282 -2.847,0.098 -0.466,0.38 -1.14,0.432 -2.055,-0.185 -0.605,-0.408 -0.942,-0.194 -1.684,0.138 -1.22,0.548 -1.69,0.253 -2.353,-0.26 -0.602,-0.44 -0.885,-0.3 -0.892,0.35 z m -6.064,1.918 c 0.16,0 0.178,0.615 0.068,1.855 -0.51,4.577 -4.094,7.127 -8.313,4.91 -1.848,-1.053 -1.598,-1.797 0.223,-1.137 2.9,1.05 5.83,-0.42 7.264,-4.18 0.367,-0.965 0.62,-1.447 0.76,-1.448 z m 10.298,3.265 c 2.086,0.862 4.4,0.588 4.988,-0.176 0.66,-0.86 -0.354,-0.718 -0.884,-0.588 -1.826,0.436 -3.08,0.276 -3.82,-0.054 -2.162,-0.834 -2.026,0.07 -0.284,0.817 z m -21.765,2.567 c 2.704,3.31 3.06,3.956 5.39,7.72 17.032,28.908 22.485,65.445 11.288,98.614 -3.07,9.152 -7.405,18.48 -12.264,25.974 l -5.832,0.06 2.002,-2.28 -2.714,0.198 -0.166,-1.508 -2.06,0.664 -0.99,-2.278 -1.866,5.215 -10.81,0.027 c 25.317,-24.6 30.303,-54.414 25.58,-78.348 0,0 2.117,-1.324 2.412,-2.098 0.07,-0.188 0.23,-0.987 0.375,-1.106 0.94,-0.616 1.566,-1.214 2.03,-1.096 0.268,0.067 0.405,0.19 0.598,0.474 0.892,1.307 1.085,1.51 1.57,0.195 0.35,-0.946 0.2,-1.288 1.35,-1.107 0.67,0.357 1.565,0.347 1.484,0.214 -0.062,-0.1 -1.015,-1.22 -1.467,-1.855 -1.07,-1.504 -1.375,-1.776 -1.277,-2.435 0.15,-1.003 -0.65,-2.086 -1.148,-2.358 0.144,-2.704 -0.894,-2.974 -3.834,-3.578 -0.015,-0.467 0.064,-0.846 0.27,-1.263 l 1.728,1.375 0.626,-2.552 2.344,0.128 -6.795,-6.576 c 0.034,1.855 0.122,3.73 -0.047,5.52 -3.186,-0.175 -6.328,-1.202 -6.376,-1.007 -4.677,-11.013 -11.803,-20.325 -19.328,-27.592 l 7.516,-3.61 2.13,4.06 0.523,-2.3 1.865,0.327 0.313,-1.476 2.06,-0.29 -2.274,-2.158 z m 44.76,4.75 c 0.286,0.36 0.516,0.386 0.9,0.716 l -0.768,0.545 c 0.036,-0.515 -0.01,-0.78 -0.133,-1.26 z m -50.008,1.356 c -0.638,0 -1.158,0.52 -1.158,1.158 0,0.638 0.52,1.153 1.158,1.153 0.637,0 1.153,-0.515 1.153,-1.153 0,-0.637 -0.516,-1.158 -1.153,-1.158 z m 6.27,0.184 c -0.638,0 -1.157,0.518 -1.157,1.158 0,0.64 0.52,1.157 1.158,1.157 0.64,0 1.158,-0.518 1.158,-1.157 0,-0.64 -0.52,-1.158 -1.158,-1.158 z m -20.2,0.846 c 3.72,3.093 7.142,7.123 11.292,13.428 l -0.086,0.85 1.268,0.47 c 0,0 6.903,9.086 6.54,13.124 -2.37,0.495 -4.205,-0.38 -8.443,3.582 l -2.723,-0.593 -2.866,0.698 c 0,0 0.037,0.898 0.75,1.2 0.31,0.13 0.823,-1.125 1.157,-1.086 1.393,0.16 2.797,0.182 2.54,0.62 -0.293,0.125 -1.042,9.152 0.412,11.075 0.81,1.957 0.23,1.94 -0.5,2.3 -0.79,0.518 -3.277,-0.573 -3.277,-0.573 l 0.574,14.334 c 6.566,-7.49 20.434,-12.485 19.45,-11.943 6.96,36.766 -9.588,61.292 -26.91,79.27 l 9.078,0.052 c 0,0 -7.826,12.552 -8.408,16.023 0.444,1.154 1.675,3.543 -0.404,5.22 -0.703,0.77 -0.778,4.27 -0.778,4.27 -4.773,0.165 -8.91,-1.493 -14.415,0.437 -0.57,0.19 -0.693,-2.997 -0.72,-3.573 -1.692,-1.582 -1.96,-4.8 -0.5,-6.472 0.542,-0.616 0.312,-0.29 -0.142,-2.373 -0.725,-3.324 -3.14,-7.883 -4.977,-10.81 -0.602,-0.957 -1.206,-2.077 -1.352,-2.423 -1.314,-1.558 -4.767,-0.838 -5.187,-1.248 -0.382,-0.32 -0.63,-8.82 -0.242,-9.025 13.605,1.08 34.895,-0.156 34.895,-0.156 l -5.713,-7.98 c -7.037,-2.744 -16.707,1.94 -16.24,2.187 0.022,0.03 -7.73,-4.226 -13.106,-3.62 l 0.177,-4.17 c 4.776,-0.018 9.183,0.87 13.03,3.14 l 6.536,-2.433 -20.033,-21.016 0.232,-3.463 c 0,0 5.117,5.48 10.68,11.33 4.774,5.022 6.56,5.866 6.56,5.866 l 0.013,-43.587 -17.224,-0.043 -0.46,-8.906 -0.445,-0.778 -0.204,-6.393 0.48,-0.65 -0.166,-2.733 -0.162,-0.39 -0.218,-6.528 0.37,-0.55 0.057,-4.11 c 8.325,-8.147 29.814,-21.85 29.814,-21.85 z m 14.713,1.238 2.007,8.798 1.347,-1.67 2.07,0.65 0.142,-2.027 1.883,-0.654 z m 68.447,1.463 c -0.64,0 -1.158,0.52 -1.158,1.158 0,0.64 0.52,1.158 1.158,1.158 0.64,0 1.158,-0.518 1.158,-1.158 0,-0.64 -0.518,-1.158 -1.158,-1.158 z m -5.42,0.725 c -0.638,0 -1.157,0.518 -1.157,1.158 0,0.64 0.52,1.157 1.158,1.157 0.64,0 1.158,-0.518 1.158,-1.157 0,-0.64 -0.518,-1.158 -1.158,-1.158 z m -66.368,1.025 c -0.64,0 -1.157,0.518 -1.157,1.158 0,0.64 0.518,1.157 1.157,1.157 0.64,0 1.158,-0.518 1.158,-1.157 0,-0.64 -0.518,-1.158 -1.158,-1.158 z m 70.524,0.697 -8.055,7.578 2.258,-0.095 0.405,2.21 2.02,-0.924 1.637,1.51 z m 3.43,2.547 c -0.64,0 -1.157,0.52 -1.157,1.158 0,0.64 0.518,1.158 1.157,1.158 0.64,0 1.158,-0.518 1.158,-1.158 0,-0.64 -0.518,-1.157 -1.158,-1.157 z m -64.074,1.492 c -0.64,0 -1.158,0.52 -1.158,1.158 0,0.64 0.52,1.158 1.158,1.158 0.64,0 1.158,-0.52 1.158,-1.158 0,-0.64 -0.518,-1.158 -1.158,-1.158 z m 5.01,0.968 c -0.638,0 -1.157,0.52 -1.157,1.158 0,0.64 0.518,1.158 1.157,1.158 0.64,0 1.158,-0.52 1.158,-1.158 0,-0.64 -0.52,-1.158 -1.158,-1.158 z m -4.545,1.723 c 0.223,3.096 0.585,6.767 0.666,9.87 l 1.527,-1.505 1.766,0.716 0.625,-1.902 1.922,-0.095 z m 49.61,2.582 c -0.64,0 -1.158,0.52 -1.158,1.158 0,0.64 0.518,1.158 1.158,1.158 0.64,0 1.157,-0.518 1.157,-1.157 0,-0.64 -0.518,-1.158 -1.157,-1.158 z m -52.93,0.203 c -0.64,0 -1.158,0.518 -1.158,1.158 0,0.64 0.518,1.157 1.158,1.157 0.64,0 1.158,-0.518 1.158,-1.157 0,-0.64 -0.52,-1.158 -1.158,-1.158 z m 57.52,0.28 c -0.64,0 -1.158,0.52 -1.158,1.16 0,0.638 0.612,1.157 1.157,1.157 0.545,0 1.157,-0.52 1.157,-1.158 0,-0.64 -0.518,-1.158 -1.158,-1.158 z m -0.687,2.502 -6.68,6.87 2.188,0.203 0.69,1.95 1.4,-1.186 1.698,1.243 z m 3.668,1.472 c -0.64,0 -1.157,0.52 -1.157,1.158 0,0.64 0.518,1.158 1.158,1.158 0.64,0 1.16,-0.518 1.16,-1.158 0,-0.64 -0.52,-1.158 -1.16,-1.158 z m -52.662,2.142 c -0.64,0 -1.157,0.518 -1.157,1.158 0,0.64 0.52,1.158 1.158,1.158 0.64,0 1.158,-0.612 1.158,-1.158 0,-0.546 -0.518,-1.158 -1.158,-1.158 z m -28.37,0.707 -2.173,1.667 0.536,-0.08 c 0,0 1.316,1.53 1.316,1.636 0,0.107 0.806,-0.03 0.806,-0.03 z m 33.846,1.012 c -0.64,0 -1.158,0.518 -1.158,1.158 0,0.64 0.52,1.157 1.158,1.157 0.64,0 1.158,-0.518 1.158,-1.157 0,-0.64 -0.518,-1.158 -1.158,-1.158 z m -8.294,1.65 c -0.64,0 -1.158,0.52 -1.158,1.16 0,0.638 0.52,1.157 1.158,1.157 0.64,0 1.158,-0.52 1.158,-1.16 0,-0.64 -0.52,-1.157 -1.158,-1.157 z m 47.83,2.334 c -0.64,0 -1.16,0.518 -1.16,1.158 0,0.64 0.52,1.157 1.16,1.157 0.638,0 1.157,-0.517 1.157,-1.156 0,-0.64 -0.52,-1.158 -1.158,-1.158 z m -4.57,1.7 c -0.64,0 -1.158,0.517 -1.158,1.156 0,0.64 0.518,1.158 1.158,1.158 0.64,0 1.157,-0.518 1.157,-1.158 0,-0.64 -0.518,-1.157 -1.157,-1.157 z m 46.643,0.285 2.405,2.615 0,38.254 -2.35,0.047 z m -93.652,0.27 c 1.96,0.004 4.146,0.286 4.84,1.477 1.083,1.336 -1.218,0.82 -3.154,1.11 -1.79,0.22 -0.75,0.584 1.775,0.73 3.482,0.207 4.85,0.298 5.368,1.1 0.294,0.748 0.08,1.252 0.14,2.056 l -3.95,-0.185 c -2.05,0.003 -3.255,-0.036 -3.864,0.12 -0.484,0.123 -0.345,0.51 -0.18,0.678 0.086,0.087 1.66,0.108 3.497,0.156 4.948,0.13 6.04,0.297 6.393,1.89 0.265,1.458 -0.925,1.236 -6.007,0.682 -2.262,-0.185 -3.48,0.347 -3.806,0.508 -0.557,0.273 1.615,0.542 2.325,0.427 0.444,-0.07 3.706,0.282 4.906,0.506 1.01,0.153 0.122,0.126 -0.388,0.74 -0.337,0.51 -0.23,1.095 -0.76,1.38 -0.647,0.344 -1.932,0.338 -4.236,0.338 -2.635,0 -3.864,0.64 -0.247,0.797 2.335,0.103 2.467,0.063 2.666,0.737 0.528,1.663 -0.597,1.956 -2.98,2.334 -1.14,0.197 -2.828,0.087 -4.104,-0.003 -5.04,-0.36 -6.788,-1.56 -7.47,-3.782 -2.54,-8.288 0.597,-13.348 7.94,-13.756 0.407,-0.022 0.847,-0.04 1.3,-0.04 z m 50.95,0.37 -5.693,8.28 2.194,-0.853 1.045,2.245 1.755,-1.253 1.754,1.08 z m -42.588,1.007 c 0.295,0.36 0.166,0.63 -0.323,0.897 -0.412,0.225 -1.117,0.06 -1.58,-0.142 -0.613,-0.265 -0.674,-1.358 -0.17,-1.476 0.722,-0.144 1.62,0.192 2.072,0.72 z m -41.23,-0.422 -3.11,2.98 0.093,0.114 4.1,-1.614 z m 87.367,1.272 c -0.64,0 -1.16,0.518 -1.16,1.158 0,0.64 0.52,1.157 1.16,1.157 0.638,0 1.156,-0.518 1.156,-1.157 0,-0.64 -0.518,-1.158 -1.157,-1.158 z m 42.38,1 c 0,0 2.9,2.865 4.09,4.067 l -1.078,-0.004 0.03,2.258 3.43,0.038 1.883,1.846 -5.24,-0.024 0,2.306 6.488,0.005 -0.033,-0.988 2.562,2.32 0.304,25.652 -12.36,-0.038 c -0.047,-12.63 -0.012,-24.807 -0.077,-37.438 z m -84.798,2.78 c -0.178,0.556 -0.575,0.557 -1.253,0.28 -1.004,-0.407 -0.86,-1.514 -0.1,-1.63 1.435,-0.164 1.7,0.497 1.352,1.35 z m 3.89,0.485 c -0.638,0 -1.157,0.52 -1.157,1.158 0,0.64 0.52,1.158 1.158,1.158 0.64,0 1.158,-0.518 1.158,-1.158 0,-0.64 -0.518,-1.158 -1.157,-1.158 z m -4.075,0.888 c 0.452,0.028 0.902,0.26 1.158,0.512 0.633,0.64 0.41,1.236 -0.3,1.604 -0.793,0.413 -1.352,-0.15 -1.584,-1.09 -0.155,-0.636 0.216,-1.006 0.727,-1.026 z m 36.345,3.036 c -0.642,0 -1.163,0.52 -1.163,1.163 0,0.64 0.52,1.16 1.162,1.16 0.642,0 1.162,-0.52 1.162,-1.16 0,-0.643 -0.52,-1.164 -1.162,-1.164 z m -38.262,1.41 c 0.998,0.034 1.3,1.052 0.778,1.6 -0.747,0.74 -1.908,0.422 -2.073,-0.286 -0.053,-0.796 0.596,-1.314 1.295,-1.314 z m 34.113,0.47 c -0.64,0 -1.158,0.518 -1.158,1.157 0,0.64 0.52,1.158 1.158,1.158 0.64,0 1.158,-0.517 1.158,-1.157 0,-0.64 -0.518,-1.158 -1.157,-1.158 z m 4.112,0.768 -5.18,8.693 2.096,-0.83 1.273,1.675 1.31,-1.144 1.978,0.968 z m -40.66,1.452 c 0.928,0.005 1.187,0.732 0.513,1.4 -0.457,0.453 -0.975,0.467 -1.504,0.047 -0.8,-0.636 -0.187,-1.452 0.992,-1.447 z m 44.29,0.108 c -0.64,0 -1.158,0.518 -1.158,1.157 0,0.64 0.52,1.16 1.158,1.16 0.64,0 1.158,-0.52 1.158,-1.16 0,-0.638 -0.518,-1.156 -1.158,-1.156 z m -37.722,0.912 c -0.64,0 -1.11,0.52 -1.11,1.158 0,0.64 0.518,1.158 1.157,1.158 0.64,0 1.158,-0.518 1.158,-1.158 0,-0.64 -0.566,-1.158 -1.205,-1.158 z m 85.84,0.257 0,2.457 6.53,0.005 0,-2.458 z m -85.755,2.182 -2.5,9.134 2.092,-1.192 1.305,1.334 1.215,-1.495 2.183,0.57 z m 4.446,0.992 c -0.64,0 -1.157,0.518 -1.157,1.158 0,0.64 0.518,1.157 1.157,1.157 0.64,0 1.158,-0.518 1.158,-1.157 0,-0.64 -0.518,-1.158 -1.158,-1.158 z m -8.15,0.465 c -0.64,0 -1.16,0.518 -1.16,1.158 0,0.64 0.52,1.157 1.16,1.157 0.638,0 1.156,-0.518 1.156,-1.157 0,-0.64 -0.518,-1.158 -1.157,-1.158 z m 89.455,0.72 0,2.208 6.53,0 -0.01,-2.193 z m -53.73,2.886 c -0.64,0 -1.157,0.518 -1.157,1.158 0,0.64 0.518,1.157 1.157,1.157 0.64,0 1.158,-0.518 1.158,-1.157 0,-0.64 -0.518,-1.158 -1.158,-1.158 z m 53.734,1.234 0,2.377 6.53,0 0,-2.378 z m -134.624,0.29 2.297,0.042 0.038,41.438 -2.24,-2.368 z m -0.958,0.08 -0.114,37.874 -4.35,-4.574 1.156,-0.014 0,-2.582 -3.767,-0.028 -1.61,-1.566 5.373,0.005 0,-2.534 -6.373,-0.024 0,1.532 -3.13,-3.34 0.05,-24.73 z m 82.02,1.157 -3.487,9.01 2.192,-1.248 1.134,1.115 1.173,-1.058 1.993,0.972 z m -91.69,0.43 -0.034,2.426 6.434,0 0,-2.428 z m 95.637,0.49 c -0.64,0 -1.16,0.518 -1.16,1.158 0,0.64 0.52,1.157 1.16,1.157 0.638,0 1.157,-0.518 1.157,-1.157 0,-0.64 -0.52,-1.158 -1.158,-1.158 z m -7.88,0.13 c -0.64,0 -1.16,0.518 -1.16,1.157 0,0.64 0.52,1.158 1.16,1.158 0.64,0 1.157,-0.518 1.157,-1.158 0,-0.64 -0.518,-1.158 -1.158,-1.158 z m -27.246,0.43 c -0.64,0 -1.158,0.518 -1.158,1.158 0,0.64 0.518,1.158 1.158,1.158 0.64,0 1.158,-0.52 1.158,-1.158 0,-0.64 -0.52,-1.158 -1.158,-1.158 z m 84.74,0.935 0,2.548 6.53,0 0,-2.548 z m -84.883,1.438 -0.967,1.494 -2.215,-0.754 3.022,9.143 3.79,-9.537 -2.177,1.242 z m -60.37,0.664 0,2.42 6.402,0 0,-2.42 z m 145.254,2.168 0,2.525 6.524,0 0,-2.525 -6.53,0 z m -145.253,2.112 0,2.424 6.402,0 0,-2.423 z m 91.607,0.455 c -0.642,0 -1.162,0.52 -1.162,1.163 0,0.642 0.52,1.162 1.162,1.162 0.642,0 1.163,-0.52 1.163,-1.162 0,-0.642 -0.52,-1.163 -1.163,-1.163 z m -34.856,1.21 c -0.64,0 -1.16,0.52 -1.16,1.163 0,0.642 0.52,1.162 1.16,1.162 0.643,0 1.164,-0.52 1.164,-1.162 0,-0.642 -0.52,-1.163 -1.163,-1.163 z m 7.432,0.22 c -0.642,0 -1.163,0.52 -1.163,1.16 0,0.643 0.52,1.164 1.162,1.164 0.642,0 1.162,-0.52 1.162,-1.163 0,-0.642 -0.52,-1.162 -1.162,-1.162 z m 81.072,0.16 0,2.277 6.524,0 0,-2.278 -6.53,0 z m -53.656,1.063 -1.386,1.456 -1.988,-0.563 4.508,8.408 2.278,-9.044 -1.99,1.268 z m -91.597,0.854 0,2.75 6.402,0 0,-2.75 z m 60.414,1.247 c -0.642,0 -1.162,0.52 -1.162,1.162 0,0.64 0.52,1.162 1.162,1.162 0.642,0 1.163,-0.52 1.163,-1.163 0,-0.643 -0.52,-1.163 -1.163,-1.163 z m -0.076,2.396 c -0.495,0.35 -0.71,0.968 -1.23,1.286 l -2.115,-0.903 1.272,11.45 5.874,-10.82 -2.687,0.452 z m -60.337,0.375 0,2.86 6.402,0 0,-2.86 z m 96.14,1.327 c -0.642,0 -1.162,0.52 -1.162,1.162 0,0.642 0.52,1.163 1.162,1.163 0.642,0 1.163,-0.52 1.163,-1.163 0,-0.642 -0.52,-1.162 -1.163,-1.162 z m -7.516,0.133 c -0.642,0 -1.162,0.52 -1.162,1.162 0,0.642 0.52,1.163 1.162,1.163 0.642,0 1.163,-0.52 1.163,-1.163 0,-0.642 -0.52,-1.162 -1.163,-1.162 z m -88.623,2.692 0,2.866 6.402,0 0,-2.867 z m 92.817,0.64 c -0.642,0 -1.162,0.52 -1.162,1.16 0,0.643 0.52,1.164 1.162,1.164 0.642,0 1.163,-0.52 1.163,-1.163 0,-0.64 -0.52,-1.16 -1.163,-1.16 z m 16.41,0.09 c 6.226,0.2 7.138,2.202 7.174,9.115 0.03,5.518 -1.613,7.675 -5.63,8.74 -1.464,0.386 -6.937,0.027 -8.488,-0.47 -0.026,-0.473 -0.8,-1.57 -0.974,-2.412 0.395,-0.113 1.644,0.062 4.012,0.287 1.92,0.183 2.415,-0.125 1.808,-0.503 -3.612,-0.852 -6.07,-0.62 -9.542,-1.286 -0.05,-1.036 -0.887,-2.245 -0.887,-2.245 0.187,-0.075 5.348,0.48 8.07,0.394 1.2,-0.05 0.478,-0.613 -0.01,-0.717 -3.176,-0.455 -5.238,-0.382 -8.597,-0.805 0.092,-0.86 -0.345,-1.64 -0.887,-2.297 0,0 1.7,-0.014 5.2,0.04 1.844,0.027 3.447,0.104 4.253,0.076 1.353,-0.002 1.23,-0.633 0.057,-0.72 -1.43,-0.158 -7.062,-0.192 -7.062,-0.192 0.42,-0.194 0.966,-2.716 0.75,-2.743 0,0 1.46,0.03 2.387,-0.003 4.512,-0.17 5.29,-0.098 5.376,-0.266 0.594,-0.54 -1.007,-0.753 -2.675,-0.75 -0.72,0.003 -1.768,0.16 -1.76,-0.23 0.01,-0.36 -0.01,-1.1 -0.377,-1.86 2.768,-1.064 5.314,-1.23 7.8,-1.15 z m -53.672,1.42 c -0.642,0 -1.162,0.52 -1.162,1.162 0,0.642 0.52,1.162 1.162,1.162 0.642,0 1.163,-0.52 1.163,-1.162 0,-0.642 -0.52,-1.163 -1.163,-1.163 z m 44.408,0.24 c 0.768,0.005 1.01,1.385 0.29,1.6 -1.105,0.33 -1.71,0.07 -1.67,-0.584 0.022,-0.37 0.883,-1.017 1.38,-1.015 z m -36.816,1.202 c -0.642,0 -1.162,0.52 -1.162,1.162 0,0.642 0.52,1.163 1.162,1.163 0.642,0 1.163,-0.52 1.163,-1.163 0,-0.642 -0.52,-1.162 -1.163,-1.162 z m 33.106,1.304 c 2.63,-0.023 1.27,3.554 -0.755,2.264 -1.003,-0.64 -0.297,-2.256 0.755,-2.264 z m -41.604,2.862 c -0.055,-0.005 -0.084,0.05 -0.077,0.18 l 0.607,10.875 6.33,-10.16 -2.515,0.936 -1.08,-1.643 -1.36,1.068 c -0.558,0.44 -1.615,-1.23 -1.906,-1.257 z m 39.164,1.113 c 1.18,0.165 1.967,1.347 1.148,1.915 -1.845,0.808 -2.832,-1.835 -1.148,-1.914 z m -2.835,2.388 c -0.643,0 -1.163,0.52 -1.163,1.162 0,0.642 0.52,1.163 1.162,1.163 0.64,0 1.162,-0.52 1.162,-1.163 0,-0.642 -0.52,-1.162 -1.163,-1.162 z m 4.47,0.984 c 1.006,-0.015 1.48,1.443 0.485,1.902 -0.212,0.098 -0.84,0.168 -1.12,-0.038 -1.174,-0.865 -0.566,-1.773 0.636,-1.864 z m -43.526,1.793 c -0.642,0 -1.163,0.52 -1.163,1.163 0,0.642 0.522,1.162 1.164,1.162 0.642,0 1.162,-0.52 1.162,-1.162 0,-0.642 -0.52,-1.163 -1.162,-1.163 z m 88.798,1.457 -4.308,1.447 0,2.036 c 1.88,-0.598 2.956,-2.126 4.31,-3.484 z m -40.375,0.983 c 0.747,0.314 0.95,1.326 0.308,1.666 -0.506,0.27 -1.878,0.226 -2.214,-0.215 -0.868,-1.395 1.002,-1.79 1.907,-1.45 z m -40.616,0.402 c -0.64,0 -1.162,0.52 -1.162,1.163 0,0.642 0.52,1.162 1.163,1.162 0.643,0 1.163,-0.52 1.163,-1.162 0,-0.642 -0.52,-1.163 -1.162,-1.163 z m -4.762,2.01 c -0.566,0 -1.025,0.458 -1.025,1.024 0,0.567 0.46,1.026 1.025,1.026 0.566,0 1.025,-0.46 1.025,-1.025 0,-0.565 -0.46,-1.024 -1.025,-1.024 z m 48.324,1.728 c -0.642,0 -1.162,0.52 -1.162,1.162 0,0.642 0.52,1.163 1.162,1.163 0.642,0 1.163,-0.52 1.163,-1.163 0,-0.642 -0.52,-1.162 -1.163,-1.162 z m -52.07,0.063 -0.056,10.273 6.852,-8.407 -2.377,0.517 -1.015,-2.083 -1.466,0.954 z m 43.492,2.366 c -0.642,0 -1.163,0.52 -1.163,1.163 0,0.642 0.522,1.162 1.164,1.162 0.642,0 1.162,-0.52 1.162,-1.163 0,-0.642 -0.52,-1.163 -1.162,-1.163 z m 34.288,0.04 -1.124,1.917 3.188,-1.77 z m -29.648,1.365 c -0.642,0 -1.162,0.52 -1.162,1.16 0,0.643 0.52,1.164 1.162,1.164 0.642,0 1.163,-0.52 1.163,-1.163 0,-0.64 -0.52,-1.16 -1.163,-1.16 z m 3.916,1.253 -1.39,1.983 -1.83,-0.588 -0.542,1.89 -2.197,-0.082 7.142,6.216 z m -55.66,0.794 c -0.64,0 -1.162,0.52 -1.162,1.162 0,0.64 0.52,1.162 1.163,1.162 0.643,0 1.163,-0.52 1.163,-1.163 0,-0.643 -0.52,-1.163 -1.162,-1.163 z m 107.08,1.67 0.58,85.18 -40.602,0.085 -16.717,-22.826 c -0.343,-3.718 -0.143,-7.536 1.422,-12.526 1.635,1.132 5.216,0.514 5.094,-3.875 -0.08,-2.874 -4.51,-4.344 -6.717,-2.182 0.113,-2.778 1.24,-6.952 2.865,-8.184 1.116,1.013 1.362,2.513 3.884,2.093 1.79,-0.297 3.21,-2.3 2.434,-4.633 -0.2,-0.592 -0.306,-1.312 -0.304,-1.794 0,-0.482 0.046,-1.338 -0.048,-1.817 -0.124,-0.634 -0.17,-1.32 -0.17,-1.32 21.63,-6.79 37.098,-17.65 48.28,-28.204 z m -98.94,1.462 c -0.642,0 -1.163,0.52 -1.163,1.16 0,0.643 0.52,1.164 1.163,1.164 0.642,0 1.162,-0.52 1.162,-1.163 0,-0.64 -0.52,-1.16 -1.162,-1.16 z m -5.482,1.134 c -0.642,0 -1.163,0.52 -1.163,1.163 0,0.642 0.52,1.162 1.163,1.162 0.642,0 1.162,-0.52 1.162,-1.163 0,-0.642 -0.52,-1.163 -1.162,-1.163 z m 57.524,0.56 c -0.642,0 -1.162,0.52 -1.162,1.163 0,0.642 0.52,1.162 1.162,1.162 0.642,0 1.163,-0.52 1.163,-1.163 0,-0.643 -0.52,-1.163 -1.163,-1.163 z m -61.693,1.24 -1.814,10.823 7.915,-8.09 -2.15,-0.047 -0.426,-1.846 -2.012,0.65 z m 53.81,2.31 c -0.64,0 -1.162,0.52 -1.162,1.162 0,0.642 0.52,1.162 1.163,1.162 0.643,0 1.163,-0.52 1.163,-1.162 0,-0.642 -0.52,-1.163 -1.162,-1.163 z m 5.13,1.26 c -0.642,0 -1.162,0.522 -1.162,1.164 0,0.642 0.52,1.162 1.162,1.162 0.642,0 1.163,-0.52 1.163,-1.162 0,-0.642 -0.52,-1.163 -1.163,-1.163 z m -63.87,1.412 c -0.643,0 -1.164,0.52 -1.164,1.163 0,0.64 0.52,1.16 1.163,1.16 0.64,0 1.16,-0.52 1.16,-1.16 0,-0.643 -0.52,-1.164 -1.16,-1.164 z m 68.497,0.878 -1.894,1.438 -1.74,-1.065 -0.41,2.3 -1.484,0.777 6.23,4.365 z m 4.604,3.095 c -0.64,0 -1.162,0.52 -1.162,1.162 0,0.642 0.52,1.162 1.163,1.162 0.643,0 1.163,-0.52 1.163,-1.162 0,-0.642 -0.52,-1.163 -1.162,-1.163 z m -65.737,0.392 c -0.642,0 -1.163,0.52 -1.163,1.162 0,0.642 0.52,1.163 1.163,1.163 0.642,0 1.162,-0.52 1.162,-1.163 0,-0.642 -0.52,-1.162 -1.162,-1.162 z m -5.163,1.518 c -0.642,0 -1.162,0.52 -1.162,1.163 0,0.642 0.52,1.162 1.162,1.162 0.642,0 1.163,-0.52 1.163,-1.162 0,-0.642 -0.52,-1.163 -1.163,-1.163 z m 67.922,3.073 c -0.642,0 -1.162,0.52 -1.162,1.163 0,0.642 0.52,1.162 1.162,1.162 0.642,0 1.163,-0.52 1.163,-1.162 0,-0.642 -0.52,-1.163 -1.163,-1.163 z m -4.873,1.04 c -0.643,0 -1.163,0.52 -1.163,1.163 0,0.643 0.52,1.163 1.162,1.163 0.64,0 1.162,-0.522 1.162,-1.164 0,-0.642 -0.52,-1.162 -1.163,-1.162 z m -45.006,1.656 c 0.01,0 0.014,0.004 0.02,0.008 0.13,0.14 0.533,1.198 0.174,1.737 -0.185,-0.088 -1.02,-0.865 -0.807,-1.13 0.1,-0.12 0.505,-0.617 0.614,-0.616 z m -26.38,1.822 c 0,0 1.124,0.058 1.37,0.166 0,0.287 -0.27,0.915 -0.573,1.618 -1.517,3.513 -1.75,7.45 -0.208,11.246 2.418,5.15 9.247,17.338 8.74,18.453 l -15.09,0.06 0.066,-2.293 c 4.24,-0.167 4.907,-2.76 3.85,-4.902 -0.734,-1.485 -2.788,-2.334 -4.666,-1.555 -2.71,1.125 -2.878,2.465 -3.847,4.543 l -0.43,-0.55 c 0.813,-1.08 1.086,-2.12 1.018,-3.306 -0.065,-1.164 -0.1,-0.842 0.307,-1.48 2.36,-2.538 0.815,-5.84 0.815,-5.84 -0.282,-2.03 7.066,-14.972 8.648,-16.16 z m -34.506,0.332 c 4.29,3.415 8.006,14.916 7.782,15.094 -0.2,-0.162 -3.458,3.695 0.052,7.288 0,0 -0.214,2.16 0.46,3.27 -1.55,3.216 -1.823,3.46 -1.955,6.1 -0.03,-0.01 -0.27,-0.03 -1.708,-0.037 -7.112,-0.034 -7.443,9.007 -0.338,9.504 0.973,0.068 1.307,-0.153 1.894,0.427 0.594,0.74 1.128,1.48 2.144,1.097 0.242,0 0.632,0.228 1.04,0.607 0.683,0.924 1.674,1.582 3.088,1.33 0.502,0.047 1.015,0.19 1.557,0.388 0.622,0.49 1.703,0.862 2.548,0.493 0.25,-0.11 0.735,-0.146 1.13,0.033 1.026,0.468 2.072,0.175 2.457,-0.118 0.953,-0.495 1.165,0.3 1.12,1.03 -0.487,1.673 0.582,3.242 2.2,3.857 3.415,1.055 5.137,-1.045 5.87,-5.21 0.183,-0.913 0.343,-1.998 0.343,-1.998 l 11.43,0.298 -16.413,19.023 -27.938,0.343 -0.147,-62.847 c 1.228,-0.073 2.154,0.028 3.383,0.028 z m 102.78,3.393 c 2.085,0.803 2.252,2.276 0.176,1.637 -3.372,-1.038 -7,1.022 -7.758,3.967 -0.14,0.544 -0.29,0.955 -0.375,1.06 -0.47,0.57 -0.448,0.05 -0.307,-1.586 0.272,-3.173 2.516,-5.47 5.442,-5.566 0.96,0.002 1.992,0.2 2.823,0.49 z m -1.034,2.244 c 0.872,0 1.795,0.257 2.485,0.856 0.78,0.858 0.548,1.427 -0.053,1.398 -2.824,-1.18 -6.416,0.248 -7.822,3.814 -0.864,2.188 -1.02,1.015 -0.637,-0.68 0.707,-3.065 3.04,-5.33 6.026,-5.387 z m -19.644,0.846 c -1.232,0.005 -2.403,0.248 -3,0.81 -1.13,1.07 -0.19,1.088 1.86,0.376 0.998,-0.346 2.917,-0.187 4.144,0.237 1.028,0.355 1.39,0.505 1.333,0.184 -0.054,-0.962 -2.283,-1.617 -4.337,-1.608 z m 23.027,3.58 c 0.52,1.19 0.183,3.285 -1.632,3.497 -2.14,0.25 -3.247,-3.34 0.662,-2.71 -0.506,-1.436 -2.26,-1.04 -3.125,-0.676 -1.764,0.77 -2.966,2.505 -4.047,5.69 -0.32,0.944 -0.556,1.437 -0.68,1.342 -0.203,-0.16 -0.3,-1.626 0.172,-3.393 0.85,-3.186 2.924,-5.11 5.12,-5.172 1.422,-0.218 3.08,0.39 3.53,1.42 z M 2880,575.932 c -0.19,0.043 0.144,0.712 0.664,1.75 0.288,0.576 0.484,1.32 0.484,1.467 0,0.564 0.43,0.704 1.068,0.34 0.735,-0.417 0.852,-0.733 1.893,-0.27 0.98,0.516 1.946,0.84 2.84,0.32 0.487,-0.284 0.808,-0.272 1.747,-0.025 1.122,0.296 1.27,0.34 2.107,-0.01 1.07,-0.447 2.34,-0.14 2.61,0.16 0.257,0.287 0.107,-0.11 0.69,-1.457 0.268,-0.625 0.654,-1.384 0.548,-1.597 -0.143,-0.287 -1.117,0.03 -2.178,0.31 -0.573,0.15 -1.12,0.106 -2.22,-0.204 -2.32,-0.654 -3.78,-0.467 -5.234,0.223 -0.812,0.384 -2.846,-0.148 -4.9,-0.983 -0.05,-0.02 -0.093,-0.03 -0.12,-0.024 z m 4.563,6.21 c -1.046,-0.015 -1.995,0.643 -2.43,1.548 -0.503,1.256 0.355,3.52 1.662,3.716 1.162,0.173 1.118,-0.538 0.533,-0.73 -0.886,-0.29 -1.93,-1.56 -1.255,-2.662 0.463,-0.758 1.864,-0.753 2.838,0.18 1.964,1.884 4.212,2.008 4.638,0.374 0.13,-0.653 -0.368,-1.523 -1.135,-1.285 -0.594,0.183 -1.965,0.238 -3.113,-0.54 -0.595,-0.405 -1.19,-0.59 -1.737,-0.6 z m 20.72,5.98 c 5.01,-0.3 2.856,6.54 -0.035,4.784 -1.032,-0.627 -0.575,-2.932 2.17,-2.89 -2.692,-2.096 -4.527,0.457 -3.87,3.322 -0.603,0.934 -0.77,2.716 -1.167,3.724 -0.608,1.152 -1.087,-1.864 -0.472,-4.778 0.596,-2.82 1.603,-4.057 3.376,-4.164 z m -28.33,0.237 c -1.035,0.012 0.03,1.125 0.19,1.257 3.12,2.45 4.644,3.962 2.134,3.156 -4.077,-0.97 -5.127,0.182 -8.232,1.55 -0.57,0.275 -0.732,0.105 -1.42,-0.1 -2.727,-0.806 -2.527,0.906 0.324,2.45 4.303,2.33 7.857,2.857 11.202,1.11 2.15,-1.123 2.26,-0.388 0.26,0.854 -3.422,1.996 -7.024,1.693 -12.555,-1.75 -1.786,-1.113 -2.036,-0.37 -0.208,0.8 4.175,2.524 9.798,4.81 14.39,1.088 0.903,-0.803 1.085,-1.22 1.78,-0.873 1.835,0.916 1.232,-0.68 -0.02,-2.183 -0.442,-0.532 -0.77,-0.96 -0.74,-1.325 0.104,-1.304 -0.617,-1.3 -1.276,-1.267 -0.788,0.04 -0.7,-0.225 -1.666,-1.285 -1.41,-1.55 -3.13,-3.207 -4.166,-3.483 z m -41.685,6.937 c -1.734,0.137 -2.13,0.215 -1.708,3.767 0.08,0.67 0.377,2.67 0.46,3.42 1.028,9.304 0.196,13.42 -2.396,14.56 -0.932,0.41 -1.85,0.26 -2.534,-0.015 -1.64,-0.657 -2.316,-2.65 -1.125,-5.02 0.32,-0.64 0.71,-1.63 0.864,-2.198 0.154,-0.57 0.504,-1.822 0.772,-2.78 0.653,-2.333 1.007,-5.883 0.622,-9.273 -0.26,-2.302 -0.204,-2.495 0.37,-4.048 1.26,-2.294 2.073,-3.47 4.725,-3.498 2.964,0.312 3.794,4.8 -0.052,5.083 z m 63.74,-0.204 -0.813,0.038 c -0.977,-3.25 -3.017,-2.2 -3.357,0.084 l -0.69,-0.007 c 0.12,-4.342 5.552,-3.165 4.86,-0.114 z m -76.19,-2.428 c 5.536,0.548 6.545,1.923 6.98,8.61 0.04,3.237 -0.172,5.19 -0.67,5.927 -0.83,0.398 -1.622,-0.346 -2.804,0.403 -0.65,0.397 -0.526,0.438 -0.806,0.007 -0.262,-0.405 0.045,-2.113 0.47,-3.476 0.405,-1.3 -0.29,-2.056 -2.122,-3.724 -0.497,-0.452 -0.93,-1.08 -1.376,-1.974 -0.954,-2.56 -1.438,-1.433 -0.644,0.773 0.393,0.952 0.485,1.422 -0.71,1.012 -0.7,-0.243 -1.314,0.044 -1.855,0.332 -1.52,0.386 -2.828,-0.444 -1.51,-0.943 0.802,-0.302 2.24,-0.743 2.685,-0.74 0.323,0 0.48,-0.072 0.48,-0.223 0,-0.64 -2.93,-0.57 -5.164,0.2 -2.744,1.263 -2.902,1.038 -2.65,-0.928 0.644,-4.987 5.285,-5.595 9.697,-5.255 z m 54.15,0.435 c 1.414,-0.063 2.714,1.56 2.456,2.937 l -0.673,-0.043 c -0.316,-2.592 -2.768,-2.703 -3.42,0.2 l -0.973,0.023 c 0.618,-2.24 1.64,-3.074 2.61,-3.117 z m 16.46,0.052 c 0.56,0.33 0.17,1.23 -0.425,1.41 -0.225,0.055 -0.938,-0.44 -0.766,-0.744 0.32,-0.365 0.808,-0.556 1.19,-0.666 z m 6.346,0.44 c 0.39,0 0.894,0.198 0.963,0.723 0.022,0.766 -0.56,0.608 -0.754,0.54 -0.387,-0.36 -0.533,-1.235 -0.21,-1.263 z m -19.41,0.614 c 1.037,0.122 1.414,1.426 0.237,1.508 -0.524,0.11 -0.55,-1.196 -0.236,-1.508 z m -6.316,0.142 c 0.124,0 -0.068,1.07 -0.327,1.23 -0.512,0.31 -1.167,-0.03 -1.143,-0.352 0.058,-0.772 0.994,-0.883 1.47,-0.878 z m 18.112,2.6 c 1.977,0.75 4.547,1.476 6.965,0.63 0.883,-0.332 1.59,-0.728 1.587,-0.353 0,0.392 -0.7,0.987 -1.965,1.34 -2.604,0.73 -4.49,0.448 -6.277,-0.894 -0.506,-0.38 -0.682,-0.728 -0.31,-0.722 z m -0.816,1.117 c 3.206,1.87 6.1,2.057 8.708,0.693 1.055,-0.366 1.09,-0.03 1.086,0.646 -4.696,4.126 -10.564,-0.157 -9.794,-1.34 z m -78.72,2.85 c -0.794,1.603 -1.22,5.554 -2.52,6.725 -8.86,-0.51 -3.16,-12.196 2.52,-6.725 z m 54.91,-1.31 c -0.502,0.263 -0.058,1.52 0.73,1.86 6.777,2.916 10.253,3.263 14.107,1.922 1.598,-0.556 2.47,-1.862 2.55,-2.496 0.093,-0.754 -0.938,-0.827 -2.744,-0.027 -5.495,2.154 -8.942,0.474 -13.38,-1.195 -0.41,-0.155 -0.83,-0.21 -1.262,-0.063 z m -25.95,0.09 -0.024,9.88 -6.453,-0.114 0.076,-1.46 4.83,0.14 -0.076,-7.054 -5.604,-0.053 -0.01,-1.31 7.26,-0.028 z m 1.5,0.024 6.438,0.01 0.322,1.004 -6.76,0 0,-1.015 z m -25.98,3.136 c -0.423,0.38 -1.162,0.464 -1.466,0.157 -0.682,-0.688 0.01,-1.953 1.096,-1.945 1.09,0.008 1.182,1.06 0.37,1.788 z m 2.967,-1.606 c 0.974,0.005 1.296,0.913 0.556,1.646 -0.502,0.457 -0.76,0.487 -1.21,0.152 -0.57,-0.5 -0.272,-1.766 0.655,-1.798 z m -6.354,0.244 c 0.256,-0.01 0.48,0.016 0.646,0.27 0.592,1.212 -1.35,2.05 -1.756,1.15 -0.3,-0.732 0.456,-1.396 1.11,-1.42 z m 36.413,0.133 0.374,1.27 -7.42,0.034 0,-1.27 z m -26.565,0.365 c 1.107,0.133 0.936,1.246 0.423,1.742 -0.883,0.816 -1.74,0.552 -1.514,-0.546 0.14,-0.686 0.585,-1.182 1.09,-1.196 z m -5.967,3.644 c -0.39,1.39 0.442,4.205 0.194,4.5 -0.542,0.64 -1.412,0.312 -1.798,0.093 -1.34,-0.862 -1.425,-5.91 -0.128,-6.212 0.833,0.418 1.394,-0.33 1.775,-0.44 0.382,-0.108 0.127,0.58 -0.042,2.058 z m 19.615,-2.073 c 0.73,0 1.324,0.592 1.324,1.323 0,0.73 -0.593,1.324 -1.324,1.324 -0.73,0 -1.323,-0.593 -1.323,-1.324 0,-0.73 0.592,-1.323 1.323,-1.323 z m 5.87,0.17 7.592,0 c 0.454,0.633 0.408,1.06 0.28,1.5 l -7.872,0.01 0,-1.51 z m -22.295,0.173 c 0.346,-0.004 0.52,0.737 0.288,1.585 -0.418,1.53 -0.396,3.613 -0.11,4.516 0.194,0.624 0.384,1.052 0.27,1.23 -0.392,0.62 -1.594,0.196 -2.106,-0.622 -1.246,-2.313 -1.048,-6.627 0.442,-6.292 0.56,0.28 0.88,-0.16 1.216,-0.416 z m -6.692,0.582 c -0.367,0.585 -0.105,3.87 -0.142,4.142 -0.047,0.342 -0.986,0.166 -1.51,-0.07 -1.288,-0.605 -0.938,-2.14 -0.687,-3.38 0.28,-0.973 0.9,-1.045 1.665,-1.134 0.423,-0.048 0.98,-0.01 0.674,0.442 z m 10.327,0.18 c 0.41,-0.014 0.467,0.288 0.373,1.504 -0.073,0.953 -0.11,1.764 0.047,2.662 0.33,1.91 0.37,2.426 -0.11,2.8 -0.568,0.443 -1.336,0.31 -1.93,-0.214 -1.218,-0.965 -1.3,-5.702 -0.342,-6.11 0.89,0.22 1.45,-0.483 1.963,-0.64 z m 26.22,1.433 -1.093,1.5 -6.472,0 0.01,-1.494 7.56,-0.005 z m -23.08,2.007 c 1.01,0.01 0.843,1.798 0.3,2.92 -0.46,0.676 -0.8,0.744 -1.49,0.11 -0.786,-0.723 0.147,-3.035 1.19,-3.03 z m 21.19,0.5 -0.91,0.835 -4.746,0.004 0,-0.83 5.656,-0.01 z"
         id="path13828" />
      <path
         style="fill:#d40000"
         inkscape:connector-curvature="0"
         d="m 2965.787,645.667 0,-2.96 3.027,0 6.403,-9.824 -6.898,-15.268 -2.533,0 0,-3.226 9.756,0 0,3.225 -3.138,0 4.822,11.923 3.513,-4.62 0,-7.303 -2.578,0 0,-3.226 8.73,0 0,3.225 -3.036,0 0,25.09 3.037,0 0,2.962 -8.73,0 0,-2.96 2.466,0 0,-11.605 -8.17,11.606 3.083,0 0,2.96 z m -42.657,-23.003 c -7.17,-2.587 -10.096,-11.528 -6.028,-20.358 5.45,-11.828 13.58,-19.424 18.998,-30.583 -0.064,0 10.628,15.706 14.9,21.533 9.16,13.22 8.698,24.1 -0.174,28.393 -6.372,3.082 -12.905,-0.46 -13.657,-7.125 -0.118,-1.04 -0.187,-1.178 -0.67,-1.18 -0.535,-0.003 -0.634,0.368 -0.767,1.907 -0.512,5.93 -6.945,9.454 -12.603,7.412 z m 44.122,-23.03 c 2.778,-6.536 6.013,-10.036 9.404,-16.97 2.735,5.363 7.793,11.153 9.493,16.57 1.273,4.19 0.282,7.596 -2.452,8.612 -3.177,1.18 -5.56,-0.154 -6.192,-3.133 -0.253,-1.194 -0.856,-1.076 -0.888,-0.175 -0.107,2.922 -3.473,4.2 -6.166,3.426 -1.548,-0.444 -4.323,-3.603 -3.2,-8.33 z m -150.268,-26.673 -7.867,-6.168 c 9.357,-0.204 18.71,0.012 28.067,0.172 l -9.344,6.657 c -1.913,-2.09 -3.043,-4.897 -5.758,-6.252 -2.02,0.835 -3.403,3.712 -5.098,5.593 z m 69.007,-2.148 c -0.158,-0.025 -0.287,-0.038 -0.382,-0.097 -0.216,-0.135 -0.354,-0.436 -0.512,-1.427 -2.335,-10.892 -13.814,-10.12 -13.738,-9.8 -0.086,-0.43 14.267,-13.39 22.704,-23.557 2.55,7.77 10.28,25.524 9.957,25.46 0,0 -2.237,0.018 -8.036,-0.127 -5.277,2.383 -8.95,4.704 -8.776,8.063 -0.03,1.183 -0.315,1.676 -0.71,1.574 -0.055,-0.013 -0.283,-0.052 -0.507,-0.088 z m 25.775,-35.055 c 7.466,-0.117 8.875,-3.764 9.725,-4.204 4.905,-0.806 7.935,2.386 10.084,5.802 2.745,1.652 2.402,0.126 2.97,-2.448 l 6.834,-2.003 -0.01,2.177 c -2.11,1.137 -5.24,4.048 -5.24,4.048 l -2.08,-0.122 -1.193,1.59 c -4.748,2.567 -9.402,5.627 -14.41,7.612 0,0 -5.997,-7.756 -6.682,-12.45 z m -93.032,0.683 -0.078,-43.06 c 3.09,-0.216 8.775,-0.188 8.775,-0.188 2.378,-4.197 5.62,-6.17 8.962,-8.607 0.468,5.308 0.648,10.377 0.54,15.688 -8.848,10.8 -13.763,24.093 -8.307,43.96 l -3.274,-0.363 z m 48.896,2.413 c 2.518,-8.98 4.476,-18.094 5.287,-27.502 l 16.846,-0.25 0.336,5.77 z m 57.36,-19.607 -0.313,-16.11 c 12.294,-14.687 13.02,-27.496 8.462,-43.69 4.06,0.934 6.15,4.1 10.02,8.463 l 0,42.01 c -2.69,0.4 -9.356,0.792 -9.356,0.792 -0.202,1.968 -5.835,6.675 -8.817,8.534 z m -52.057,-25.39 -0.75,-7.104 21.89,-20.908 c -1.807,9.06 -3.993,18.363 -4.63,28.007 z m -36.318,-22.19 c -1.563,1.025 -7.322,-4.96 -8.264,-8.982 1.445,-1.95 14.12,-8.16 14.12,-8.16 0,0 7.406,9.506 7.103,13.47 -3.29,0.876 -6.143,1.125 -8.64,3.807 -1.43,0.128 -1.93,-1.48 -4.318,-0.133 z m -9.997,-8.038 c 1.763,0.284 0.632,2.662 0.362,4.404 l -9.314,2.76 c 3.202,-2.73 5.473,-5.056 8.952,-7.164 z m 30.33,-21.02 c 1.914,-0.057 3.91,0.732 5.386,0.137 0.552,-0.215 1.655,-0.548 2.864,-0.32 2.784,0.862 3.76,-2.205 5.535,-2.218 2.297,0.006 3.57,-1.602 3.586,-4.82 0.01,-1.39 0.122,-1.547 0.384,-1.686 0.783,-0.413 1.62,0.168 1.724,0.932 1.647,5.926 5.807,11.255 12.366,10.83 -5.223,5.324 -21.11,21.688 -21.11,21.688 -2.862,-8.718 -6.664,-16.833 -10.737,-24.54 z m 67.586,-5.107 9.57,-6.943 5.727,6.97 4.953,-6.636 c 2.91,2.086 9.53,6.734 9.53,6.734 0,0 -19.848,0.293 -29.78,-0.123 z m -99.782,-3.543 c 2.013,1.424 -19.177,-24.292 -21.62,-33.382 -1.832,-5.357 -0.454,-11.905 3.536,-14.71 6.758,-4.753 14.684,-2.854 16.188,5.147 0.427,2.27 1.135,2 1.385,0.006 0.904,-10.192 13.42,-10.936 18.235,-3.828 3.296,4.867 3.32,12.604 -1.452,20.352 -1.153,2.46 -16.372,25.71 -16.27,26.415 z m -40.457,-9.8 c -2.84,-5.54 -7.055,-11.12 -9.29,-16.29 -1.676,-4.226 -0.256,-8.604 2.87,-9.413 3.078,-0.798 5.313,0.472 5.898,3.352 0.197,0.975 0.586,1.048 0.778,0.145 1.16,-5.445 8.84,-4.268 9.368,1.437 0.337,3.635 -0.61,6.035 -5.095,12.913 -1.084,2.232 -4.014,5.46 -4.528,7.856 z m 1.496,-34.975 3.2,0 -4.7,-11.53 -3.594,4.87 0.022,6.66 2.523,0 0,3.436 -8.883,0 0,-3.436 2.925,0 0,-24.8 -2.925,0.005 0,-3 9.018,0 0,3.1 -2.49,0 -0.055,12.09 7.873,-12.19 -2.778,0 0,-3 9.594,0 0,3 -2.53,0 -6.483,9.964 6.343,14.832 2.82,0 0.012,3.436 -9.864,0 z"
         id="path13830" />
      <path
         inkscape:connector-curvature="0"
         d="m 2929.963,374.543 -87.97,0.565 17.095,22.832 c 18.162,-3.697 33.972,-1.295 50.38,1.57 z m -2.25,1.158 -5.855,7.275 c -1.62,-1.465 -5.236,-0.936 -4.724,2.27 -4.487,-2.334 -5.438,4.07 -1.63,3.808 -0.477,1.258 -4.323,1.59 -5.408,-0.693 -3.95,2.213 -5.156,0.066 -6.202,-1.328 5.02,3.407 7.46,-3.596 1.936,-3.99 2.17,-4.39 -5.57,-6.384 -5.115,-0.67 -5.106,-1.157 -3.935,6.028 -0.185,4.555 -2.436,3.662 -6.432,1.202 -7.24,0.49 -2.055,1.54 -5.94,1.59 -7.028,-0.874 5.683,1.143 5.06,-6.34 0.014,-4.617 2.69,-5.747 -6.26,-4.973 -4.085,-0.266 -5.09,-0.194 -3.963,6.084 0.508,5.016 -3.973,3.744 -6.95,0.255 -7.577,0.18 -2.35,2.595 -6.482,1.173 -7.05,-0.36 4.053,1.6 5.38,-5.208 0.272,-4.8 1.31,-4.385 -6.043,-4.917 -4.42,0.065 -4.05,-0.917 -4.272,5.57 0.266,4.56 0.282,1.776 -3.29,3.477 -5.485,1.76 -1.61,0.882 -3.374,2.255 -5.47,0.223 3.193,-0.514 3.718,-5.91 -1.438,-4.745 0.245,-3.313 -1.657,-3.493 -4.007,-2.652 l -3.766,-5.1 z m -60.687,8.138 c -0.28,0.617 -0.752,1.038 -0.642,1.508 0.09,0.386 0.487,0.922 1.04,1.648 4.402,5.737 13.326,5.544 16.01,-0.37 0.547,-1.1 0.436,-1.35 -0.223,-2.283 -0.795,-1.127 0.104,-2.33 1.078,-2.23 1.454,0.152 1.706,1.42 1.006,2.32 -1.52,1.913 2.653,6.24 6.818,6.92 5.34,0.87 10.403,-2.884 9.698,-6.25 -0.04,-0.192 -0.14,-0.372 -0.18,-0.574 -0.567,-2.817 3.9,-1.468 2.293,0.328 -0.605,0.65 -0.93,0.842 -0.85,1.556 1.298,5.963 8.548,6.588 12,4.75 -4.455,7.265 -11.512,1.666 -12.754,-3.412 -6.257,9.03 -13.772,7.155 -17.96,-0.783 0.494,0.495 -8.252,14.228 -18.18,0.147 -4.2,11.333 -11.863,3.672 -11.34,3.208 3.52,1.96 9.914,1.25 10.53,-4.812 0.085,-0.748 -0.483,-0.794 -0.812,-1.385 -1.664,-2.996 3.706,-3.017 2.468,-0.285 z m -16.54,0.745 c 0.795,0.075 0.928,0.406 0.796,1.215 z m 68.265,2.13 -1.152,1.448 c -0.275,-0.707 -0.283,-1.357 1.153,-1.446 z m 12.54,0.48 c -2.735,0.116 -4.85,3.897 -4.71,8.94 0.067,2.445 0.497,8.58 0.664,9.494 0.234,1.276 -0.02,3.006 -0.47,3.19 -1.184,0.48 -1.63,0.79 -1.95,1.356 -0.83,1.47 -0.144,3.128 1.61,3.872 1.25,0.53 2.835,-0.203 3.908,-1.804 0.597,-0.888 0.737,-1.283 1.263,-3.52 0.242,-1.03 0.22,-2.736 -0.057,-4.303 -0.63,-3.562 -0.162,-8 1.063,-10.083 2.197,-3.737 2.156,-6.184 -0.113,-6.956 -0.412,-0.14 -0.814,-0.202 -1.206,-0.185 z m -0.14,0.57 c 3.184,0.01 3.098,3.188 1.332,4.165 -0.684,0.306 -1.52,0.378 -2.358,-0.17 -0.94,-0.544 -0.812,0.076 0.162,0.782 1.143,0.83 1.63,0.78 1.015,2.724 -0.572,1.812 -0.872,5.728 -0.56,7.953 0.858,6.087 0.134,9.12 -2.428,10.178 -1.263,0.52 -2.626,-0.214 -2.976,-1.228 -0.55,-1.587 0.428,-2.95 2.84,-2.568 0,0 0.17,-0.507 -0.458,-5.79 -0.87,-7.35 -0.528,-12.48 0.82,-14.273 0.722,-0.958 1.653,-1.778 2.61,-1.775 z m 21.603,7.577 c -0.744,0.006 -1.546,0.208 -2.363,0.67 0,0 -0.088,3.304 -0.185,3.804 -0.54,2.796 -0.383,3.13 0.92,3.526 3.162,0.962 5.758,-1.134 5.642,-4.422 -0.065,-1.848 -1.78,-3.597 -4.014,-3.578 z m 0.427,0.44 c 1.728,-0.05 3.297,1.97 3.127,3.873 -0.09,2.278 -2.27,3.52 -4.223,3.122 -0.578,-0.087 -1.176,-0.197 -1.362,-0.63 -0.39,-0.604 0.238,-0.823 1.552,-0.817 1.438,0.007 1.705,-0.19 2.182,-0.996 0.946,-1.597 -0.264,-3.62 -1.808,-3.24 -0.526,0.128 -0.603,0.367 0.015,0.54 1.89,0.852 1.187,2.042 0.53,2.524 -0.78,0.574 -2.07,-0.213 -2.29,-0.688 l 0.132,-3.084 c 0,0 0.625,-0.585 2.145,-0.603 z m -19.483,14.293 c 0,0 -0.72,0.344 -1.067,0.664 -0.765,0.705 -0.925,1.774 -0.55,2.824 0.165,0.465 0.14,0.544 -0.442,1.3 -1.655,2.156 -1.868,3.233 -1.02,5.177 0.384,0.883 0.387,0.883 0.023,2.05 -1.56,5.006 -4.637,10.68 -7.923,14.61 -0.508,0.608 -0.71,1.23 -0.71,1.23 0,0 0.768,-0.04 1.194,-0.253 3.397,-1.69 6.983,-4.962 10.317,-7.108 -5.273,4.278 -10.89,8.105 -10.89,8.105 l 7.175,0.385 c -1.802,1.847 -33.26,28.503 -24.907,76.313 9.82,-2.442 14.39,-6.493 19.625,-11.18 0.05,3.854 0.133,14.222 0.166,14.222 0.1,-0.17 -4.544,-1.75 -3.44,2.073 0.657,2.097 0.99,7.405 -0.175,10.4 -0.048,0.128 0.502,0.33 0.447,0.447 -0.063,0.136 -0.745,0.138 -0.745,0.138 -1.783,3.325 -6.376,4.054 -8.64,3.954 -0.834,-0.08 -0.497,1.065 -0.387,1.48 0.42,1.71 2.394,5.38 6.08,11.268 l 0.968,0.128 -0.56,0.517 c 0.435,0.793 1.598,2.284 1.598,2.284 l 0.05,0.505 c 0,0 2.024,2.814 3.108,4.136 0.074,0.09 0.244,-0.123 0.318,-0.033 0.602,0.723 1.324,1.534 1.936,2.255 0.048,0.056 -0.094,0.262 -0.046,0.315 1.152,1.256 3.418,3.795 3.418,3.795 l 0.45,-0.108 1.78,2.007 c 14.78,-6.72 30.227,-21.588 30.065,-21.556 l 0.126,-31.998 -17.5,-0.052 -0.074,-42.388 17.48,17.28 -0.113,-4.958 c -3.966,-3.77 -19.902,-19.848 -19.902,-19.848 2.32,-0.323 4.567,-1.077 6.743,-2.258 3.802,2.09 7.866,3.347 12.523,2.728 l -0.02,-4.702 c -5.286,-0.01 -8.565,-1.762 -10.936,-3.877 l -3.265,-0.108 c -6.03,4.586 -10.294,2.458 -14.88,1.556 l -3.17,-4.564 32.47,-0.166 -0.232,-11.08 -4.93,0.11 -3.203,-2.37 3.715,1.572 c 0,0 -0.058,-0.61 -0.802,-1.77 -2,-3.27 -4.54,-8.082 -6.064,-12.28 -0.737,-2.132 -0.735,-2.044 -0.114,-3.293 0.854,-1.716 0.67,-3.794 -0.455,-4.963 -0.793,-0.824 -0.768,-1 -0.508,-1.613 1.053,-2.43 -1.49,-3.325 -1.5,-3.17 -5.438,2.097 -12.734,-0.062 -12.603,-0.127 z m 12.65,0.883 c 1.086,-0.01 1.204,0.467 1.2,1.276 -0.092,1.483 -2.022,2.02 -2.894,2.225 -4.172,0.956 -11.446,0.39 -11.92,-1.556 -0.347,-1.43 0.545,-2.222 3.507,-1.513 4.762,1.024 7.71,-0.077 10.107,-0.43 z m -13.466,4.128 c 0.434,-0.003 0.953,0.437 1.102,1.157 0.127,0.616 -0.513,2.426 -1.05,2.844 -1.324,1.032 -2.522,-0.574 -1.636,-2.32 0.51,-1.008 1.028,-1.676 1.585,-1.68 z m 14.236,0.204 c 0.198,0.005 0.553,0.046 0.783,0.21 1.05,0.742 1.147,3.314 0.165,3.685 -1,0.38 -1.93,-0.664 -1.922,-2.3 0.01,-1.004 0.378,-1.61 0.973,-1.595 z m -3.336,0.53 c 0.214,-0.01 0.44,0.036 0.674,0.144 0.875,0.403 1.3,3.1 0.432,3.962 -0.673,0.667 -2.12,0.63 -2.544,-0.755 -0.505,-1.657 0.284,-3.293 1.438,-3.35 z m -7.397,0.077 c 1.28,0.01 1.573,2.86 0.318,4.033 -1.05,0.982 -2.65,0.016 -2.15,-1.93 0.252,-0.974 0.83,-2.035 1.833,-2.103 z m 3.644,0.456 c 1.876,0.32 1.717,4.915 -0.74,4.456 -1.4,-0.976 -1.362,-4.387 0.74,-4.455 z m -8.204,4.92 2.652,0.248 c 0,0 -3.433,7.43 -6.57,10.268 -1.175,1.19 -1.852,1.24 -0.96,-0.03 1.968,-2.43 4.878,-10.485 4.878,-10.485 z m 15.9,0.05 c 1.55,4.13 3.14,8.32 5.253,12.544 -3.213,-3.097 -6.06,-7.858 -8.683,-12.327 z m -12.47,0.397 1.756,0.02 c 0.584,2.674 1.595,4.38 2.784,5.845 1.03,-1.738 1.68,-3.65 2.31,-5.685 l 1.396,-0.02 c 0.534,0.32 -1.64,8.383 -3.772,9.363 -2.257,-1.832 -4.16,-6.785 -4.475,-9.523 z m -0.74,1.908 c -0.147,0.192 2.727,7.1 5.158,9.314 2.293,-2.225 3.755,-5.154 4.736,-8.646 l 7.54,10.58 -7.35,-5.03 c -1.468,2.44 -3.026,4.765 -4.897,6.7 -2.018,-2.18 -3.764,-4.77 -5.595,-7.23 -2.836,2.1 -4.825,4.346 -8.507,6.306 0.016,0.082 7.214,-7.764 8.915,-11.995 z m -0.707,7.52 5.13,6.268 -13.656,-0.194 z m 11.108,0.1 8.617,5.93 -12.84,0.134 z m -68.654,2.918 c 0,0 0.072,0.376 0.156,0.603 1.53,6.238 5.748,11.425 12.095,10.81 l -20.863,20.853 c 0,0 -3.445,-11.69 -10.424,-23.674 0,0 1.273,0.262 2.268,0.456 0.933,0.142 1.64,0.098 2.34,-0.086 0.534,-0.078 0.942,-0.428 1.42,-0.53 0.803,-0.17 1.813,0.12 2.348,0.307 1.433,0.27 2.41,-0.53 4.204,-2.116 0.477,-0.422 0.66,-0.32 1.262,-0.318 2.248,0.005 3.683,-1.924 3.43,-4.917 l -0.113,-1.328 -0.284,1.494 c -0.537,2.817 -0.912,4.032 -3.7,4.15 -0.677,0.03 -0.93,0.484 -2,1.4 -1.494,1.285 -2.55,1.395 -3.61,0.893 -1.08,-0.512 -1.18,-0.21 -2.2,0.275 -1.17,0.557 -2.87,0.492 -4.405,0.053 -2.14,-0.613 -1.878,-0.408 -1.878,-0.408 12.4,22.067 16.754,43.23 16.48,62.03 -0.392,26.79 -9.763,48.41 -17.984,61.444 0,0 1.41,-0.144 2.667,-0.328 0.606,-0.168 1.072,-0.006 1.67,0.204 0.56,0.197 0.98,0.187 1.528,0.124 0.428,-0.05 1.472,0.007 2.145,0.104 1.525,0.22 1.627,0.02 3.288,-1.594 4.715,-4.58 4.408,-4.41 7.824,-4.3 5.126,0.167 9.225,3.548 10.933,9.03 0.216,0.693 0.498,1.666 0.537,1.666 l -0.333,-1.452 c -1.5,-7.35 -7.787,-10.04 -13.035,-9.94 l 22.15,-22.207 c -0.113,0.02 5.134,16.896 9.703,24.417 0.01,0.052 -1.386,-0.6 -3.934,-0.27 -1.384,0.18 -2.934,-0.003 -3.805,-0.15 -1.12,-0.03 -1.802,0.3 -3.197,1.45 -0.58,0.496 -1.1,1.04 -2.235,1.518 -2.694,1.138 -3.768,2.314 -3.782,5.267 0,0.537 -0.083,1.224 -0.074,1.49 0,0.07 0,0.197 0.014,0.197 0.045,0 0.108,-0.11 0.16,-0.187 0.136,-0.197 0.407,-0.732 0.616,-1.97 0.373,-2.207 0.838,-2.98 2.93,-3.96 0.627,-0.293 1.95,-1.093 2.536,-1.56 1.927,-1.538 2.57,-1.89 4.135,-1.525 0.89,0.208 1.647,0.314 2.842,0.17 1.42,-0.172 1.503,-0.245 3.023,0.147 1.032,0.266 2.308,0.524 2.308,0.524 -21.466,-43.107 -20.758,-83.07 0.43,-123.616 0,0 -6.272,0.074 -6.54,0.237 -0.1,0.063 -0.862,-0.006 -1.693,-0.156 -1.707,-0.308 -1.333,-0.1 -5.362,3.948 -4.98,5.006 -12.946,1.013 -15.345,-7.388 -0.125,-0.44 -0.233,-0.704 -0.422,-1.015 -0.06,-0.1 -0.218,-0.267 -0.218,-0.267 z m 20.294,4.93 c 0.923,0.098 1.61,0.34 1.495,1.205 l -29.567,28.95 -0.46,-1.865 z m 6.235,0.176 c -0.366,0.717 -1.353,1.617 -1.786,2.295 l 1.61,2.003 -0.893,1.613 -2.47,-2.077 -4.708,4.645 3.924,4.403 -3.715,3.75 -1.238,-1.4 1.965,-2.055 -3.05,-2.856 -5.377,5.223 4.38,4.45 -3.213,3.08 -1.28,-1.214 1.683,-1.86 -2.856,-2.953 -5.006,5.106 3.962,4.408 -3.06,3.038 -1.358,-1.376 1.47,-1.533 -2.832,-2.967 -5.1,5.03 4.137,4.49 -3.04,2.718 -1.074,-1.133 1.47,-1.58 -2.78,-2.976 -3.164,2.872 -0.528,-1.97 31.307,-31.097 z m 1.802,0.46 -1.32,2.647 -1.02,-1.12 1.33,-1.367 z m -73.84,0.17 c -0.813,0.198 -19.453,10.58 -30.065,21.978 l -0.033,4.247 -0.394,0.508 0.19,6.572 0.265,0.35 0.09,2.682 -0.422,0.707 -0.01,7.36 0.565,0.094 0.09,9.006 17.433,0.047 -0.02,43.028 c 0,0 -10.236,-11.25 -17.607,-17.893 l 0.027,5.03 19.502,20.147 c -1.343,0.188 -3.088,0.513 -5.72,1.964 -6.326,-3.952 -13.64,-2.742 -13.64,-2.742 l 0.028,5.124 c 4.65,-0.45 8.848,0.187 13.737,3.478 4.024,-2.727 8.874,-4.387 16.104,-2.22 1.59,2.52 3.18,5.12 4.772,6.808 l -34.53,0.257 0.044,10.378 c 1.532,0.03 5.362,0 5.362,0 1.942,3.805 5.76,9 7.344,15.534 -2.176,2.613 -2.002,4.717 0.115,7.348 -0.02,1.187 -0.377,2.498 0.958,3.82 4.392,-2.147 9.353,-1.194 13.044,-0.097 1.25,0.37 1.723,-1.054 1.68,-2.847 -0.112,-1.026 -0.107,-1.466 0.682,-2.15 1.878,-1.628 0.712,-4.974 0.418,-5.048 -0.11,-2.933 9.293,-17.63 9.3,-17.36 l -1.874,0.678 -8.038,0.037 c 21.14,-20.384 29.978,-43.637 28.128,-69.893 -0.413,-6.616 -1.443,-9.647 -1.443,-9.647 -7.446,3.31 -13.566,5.714 -19.51,12.08 l -0.395,-13.684 c 0.33,0.647 2.538,1.245 3.526,0.417 0.676,-0.442 0.744,-0.916 0.118,-2.577 -0.908,-2.41 -1.123,-7.58 -0.446,-9.338 0.08,-0.205 0.147,-0.75 0.204,-1.285 0.078,-0.72 -0.08,-0.762 -0.147,-0.75 0.173,-0.042 0.9,0.105 0.987,0.028 2.54,-2.234 5.265,-3.63 8.607,-3.777 l 0.086,-1.632 c -2.48,-6.26 -4.578,-8.714 -6.823,-12.213 0,0 -0.637,-0.212 -1.04,-0.13 l 0.518,-0.544 c -3.15,-5 -7.633,-9.548 -11.754,-13.866 0.012,-0.015 0,-0.02 -0.023,-0.014 z m -0.14,0.85 2.236,2.063 c -10.665,5.126 -21.188,12.637 -31.55,22.823 l 0.143,-3.743 c 11.713,-11.014 20.55,-16.304 29.173,-21.144 z m 68.494,3.743 1.343,1.338 -1.86,2.16 1.21,1.234 -0.675,1.646 -3.093,-3.212 z m -66.58,0.17 c 0.702,0 1.27,0.57 1.27,1.272 0,0.703 -0.568,1.272 -1.27,1.272 -0.703,0 -1.272,-0.57 -1.272,-1.272 0,-0.702 0.57,-1.27 1.27,-1.27 z m 91.264,1.756 c 21.74,24.196 10.577,59.362 -18.444,67.81 l -0.323,-1.99 c 29.28,-9.86 36.148,-42.853 17.15,-63.595 z m -87.497,0.16 1.385,1.604 c -12.394,5.917 -24.484,14.786 -36.17,27.583 l -0.114,-3.23 c 10.975,-11.538 22.71,-19.884 34.9,-25.956 z m -7.995,0.494 c 0.702,0 1.27,0.57 1.27,1.272 0,0.702 -0.568,1.27 -1.27,1.27 -0.703,0 -1.272,-0.568 -1.272,-1.27 0,-0.703 0.57,-1.272 1.272,-1.272 z m -3.872,2.392 c 0.702,0 1.27,0.57 1.27,1.27 0,0.704 -0.568,1.273 -1.27,1.273 -0.703,0 -1.272,-0.57 -1.272,-1.273 0,-0.702 0.57,-1.27 1.272,-1.27 z m 12.892,0.835 c 0.702,0 1.27,0.57 1.27,1.272 0,0.703 -0.568,1.272 -1.27,1.272 -0.703,0 -1.272,-0.57 -1.272,-1.272 0,-0.702 0.57,-1.27 1.272,-1.27 z m 55.226,0.88 1.272,1.34 -2.017,2.023 2.87,3 2.762,-2.66 -1.386,3.96 -24.346,24.33 -0.508,-2.552 1.917,-1.926 -2.938,-2.932 -0.517,-1.955 2.89,-2.704 1.21,1.243 -1.69,1.95 2.72,2.676 4.938,-4.546 -4.076,-4.474 3.365,-3.255 1.162,1.134 -1.608,1.657 2.832,3.07 5.068,-4.854 -4.16,-4.4 3.344,-3.296 1.267,1.21 -1.685,2.02 2.88,2.786 4.964,-4.9 -4.08,-4.29 z m -71.914,0.853 c 0.702,0 1.27,0.57 1.27,1.27 0,0.704 -0.568,1.273 -1.27,1.273 -0.703,0 -1.272,-0.57 -1.272,-1.272 0,-0.702 0.57,-1.27 1.272,-1.27 z m 20.052,0.246 0.968,1.608 c -14.755,7.454 -24.96,14.92 -40.062,32.076 l 0,-2.16 c 11.658,-14.313 23.78,-23.54 39.094,-31.525 z m -7.412,0.19 c 0.703,0 1.272,0.568 1.272,1.27 0,0.703 -0.57,1.272 -1.272,1.272 -0.702,0 -1.27,-0.57 -1.27,-1.27 0,-0.704 0.568,-1.273 1.27,-1.273 z m 114.17,0.488 c 2.6,2.316 8.068,4.624 11.59,4.38 l 0.095,2.785 c -6.144,0.583 -11.51,-3.35 -11.51,-3.35 -4.734,2.885 -9.55,3.25 -14.573,1.997 l -1.93,-4.137 c 7.447,3.452 14.43,0.158 16.327,-1.675 z m -29.406,0.754 c 0.273,0.504 1.19,1.087 1.19,1.087 5.733,-1.493 7.52,4.415 4.846,7.79 l 0.764,2.477 c 1.022,0.185 1.92,0.544 2.647,1.05 1.396,0.965 2.163,2.64 1.99,4.397 0.194,1.904 -2.655,3.677 -2.81,3.545 l -0.038,2.722 c 0.802,0.668 1.768,1.314 2.382,2.26 1.37,2.298 0.827,4.615 -1.286,6.072 -1.257,0.85 -2.62,0.962 -2.676,0.873 l -1.323,3.094 c 1.164,0.66 1.49,1.778 1.673,2.578 0.396,1.734 -0.82,3.992 -2.348,4.825 -1.93,1.053 -4.558,0.118 -4.555,0.12 l -1.88,1.878 c 0.484,1.63 0.617,2.6 0.36,3.555 -0.632,2.363 -3.11,3.29 -5.1,3.113 -1.562,-0.14 -2.737,-1.282 -2.737,-1.282 l -2.083,0.798 c 0.058,0 0.03,2.637 -1.02,3.444 -0.33,0.342 -1.505,1.1 -1.505,1.1 l -0.275,-1.816 c 0.825,-0.594 1.338,-2.035 1.172,-3.09 l 4.498,-2.2 c 0,0.162 1.232,1.356 2.074,1.527 1.727,0.35 3.53,-0.997 3.535,-2.582 0,-0.925 -0.533,-1.555 -0.685,-2.3 l 3.82,-3.954 c 1.58,0.543 2.69,0.636 3.398,0.228 1.335,-0.77 1.694,-2.36 1.437,-3.317 -0.304,-1.13 -1.312,-1.862 -1.38,-1.97 l 2.13,-5.385 c 0.993,-0.005 1.608,-0.16 2.382,-0.664 1.58,-1.037 1.375,-3.052 0.702,-4.01 -0.82,-1.164 -2.01,-1.38 -2.102,-1.352 l 0.157,-5.594 c 0,0.046 2.154,-1.035 2.385,-2.282 0.342,-1.837 -0.433,-3.006 -2.69,-3.526 -1.252,-0.288 -1.186,-0.047 -1.186,-0.047 l -1.785,-5.063 c 2.827,-1.724 1.93,-4.466 0.498,-5.386 -1.51,-0.97 -3.644,-0.07 -3.644,-0.07 0,0 -0.973,-0.965 -1.71,-1.742 z m -75.663,1.025 c 1.86,2.498 5.005,7.503 6.763,11.98 0.076,0.197 0.038,1.187 0.038,1.187 -5.016,0.437 -6.74,2.403 -8.52,3.787 -1.384,-0.71 -1.966,-1.54 -4.466,0.025 -0.01,0.073 -6.374,-3.85 -7.592,-9.177 4.55,-2.805 8.887,-5.474 13.78,-7.8 z m -25.465,0.033 c 0.702,0 1.272,0.57 1.272,1.272 0,0.702 -0.57,1.272 -1.272,1.272 -0.702,0 -1.272,-0.57 -1.272,-1.272 0,-0.702 0.57,-1.272 1.272,-1.272 z m 12.057,0.252 c 0.702,0 1.272,0.57 1.272,1.272 0,0.702 -0.57,1.27 -1.272,1.27 -0.702,0 -1.272,-0.568 -1.272,-1.27 0,-0.703 0.57,-1.272 1.272,-1.272 z m 87.022,1.56 c 2.193,2.886 5.497,8.34 6.283,13.173 1.105,6.795 0.37,13.924 -2.748,18.91 -5.654,10.646 -15.46,12.914 -15.465,13.284 l -0.1,-2.183 c 0.093,0.49 7.494,-2.627 12.532,-9.666 3.11,-4.77 4.877,-11.585 4.275,-16.905 -0.374,-7.666 -5.814,-14.735 -5.86,-14.76 z m -103.046,1.04 c 0.703,0 1.272,0.57 1.272,1.272 0,0.702 -0.57,1.27 -1.272,1.27 -0.702,0 -1.27,-0.568 -1.27,-1.27 0,-0.702 0.568,-1.272 1.27,-1.272 z m 12.043,0.02 c 0.703,0 1.273,0.568 1.273,1.27 0,0.703 -0.57,1.272 -1.272,1.272 -0.7,0 -1.27,-0.57 -1.27,-1.27 0,-0.704 0.57,-1.273 1.27,-1.273 z m 108.575,2.144 c 2.822,0.306 6.273,5.422 9.414,8.34 l 0.032,41.71 -9.38,0.19 c -1.222,2.934 -4.056,5.834 -8.57,8.697 l -0.01,-15.63 c 15.394,-16.49 11.205,-34.54 8.508,-43.307 z m -124.07,0.474 c 0.7,0 1.27,0.57 1.27,1.272 0,0.702 -0.57,1.272 -1.27,1.272 -0.703,0 -1.273,-0.57 -1.273,-1.272 0,-0.702 0.57,-1.272 1.272,-1.272 z m 11.59,0.228 c 0.703,0 1.272,0.57 1.272,1.272 0,0.702 -0.57,1.27 -1.27,1.27 -0.703,0 -1.273,-0.568 -1.273,-1.27 0,-0.703 0.57,-1.272 1.272,-1.272 z m 119.094,0.1 19.178,19.335 -0.066,2.838 -21.613,-21.96 z m -112.062,1.817 0.508,2.43 c -0.62,-0.974 -0.644,-1.334 -1.718,-1.505 z m -10.382,0.707 c 0.702,0 1.272,0.57 1.272,1.272 0,0.702 -0.57,1.27 -1.272,1.27 -0.702,0 -1.272,-0.568 -1.272,-1.27 0,-0.703 0.57,-1.272 1.272,-1.272 z m -11.488,0.356 c 0.703,0 1.272,0.57 1.272,1.272 0,0.702 -0.57,1.27 -1.272,1.27 -0.702,0 -1.27,-0.568 -1.27,-1.27 0,-0.703 0.568,-1.272 1.27,-1.272 z m 107.905,0 3.787,2.68 -1.234,4.836 -3.877,-3.483 z m -87.5,0.394 0.672,0.398 -0.783,3.308 -8.716,3.145 c 2.803,-2.392 5.684,-5 8.826,-6.85 z m 1.427,1.537 c 0.62,2.45 1.964,6.075 3.612,9.145 -1.12,0.578 -5.14,2.854 -5.13,3.912 0.567,1.918 4.816,3.678 4.816,3.678 -1.612,2.61 -3.14,5.687 -4.394,9.228 -0.726,-1.236 -0.81,-6.11 0.754,-8.137 -1.543,-0.608 -3.653,-1.998 -5.257,-3.435 1.035,-3.66 5.445,-5.846 5.638,-5.874 -0.077,0.185 -1.302,-7.646 -0.038,-8.517 z m -14.15,0.616 c 0.703,0 1.272,0.57 1.272,1.272 0,0.702 -0.57,1.27 -1.272,1.27 -0.702,0 -1.27,-0.568 -1.27,-1.27 0,-0.703 0.568,-1.272 1.27,-1.272 z m 97.082,0.104 c 5.658,10.54 2.293,19.697 -6.733,26.26 l 0.208,-2.487 c 6.227,-4.518 10.26,-13.412 5.713,-21.894 z m -107.824,0.304 c 0.702,0 1.27,0.57 1.27,1.272 0,0.702 -0.568,1.27 -1.27,1.27 -0.702,0 -1.272,-0.568 -1.272,-1.27 0,-0.703 0.57,-1.272 1.272,-1.272 z m 90.51,0.066 c -4.153,15.477 -4.05,22.57 -4.532,26.767 l -16.118,0.137 -0.627,-5.58 z m -64.394,0.428 c 0,0 3.496,3.245 6.633,6.078 l -0.374,0.74 -3.05,0.408 c -2.336,-4.597 -3.21,-7.226 -3.21,-7.226 z m -2.894,1.698 0.023,0.005 0.195,2.307 c -1.048,-0.04 -12.383,4.696 -21.09,12.256 1.297,-2.286 3.486,-4.48 5.602,-6.35 4.503,-4.418 15.27,-8.217 15.27,-8.217 z m -16.114,0.527 c 0.702,0 1.27,0.57 1.27,1.272 0,0.702 -0.568,1.27 -1.27,1.27 -0.703,0 -1.272,-0.568 -1.272,-1.27 0,-0.703 0.57,-1.272 1.272,-1.272 z m 7.136,1.447 0.645,0.664 -3.008,1.557 z m 20.973,0.68 c 0.04,-0.003 0.085,-0.002 0.128,0.003 0.465,0.06 0.66,0.28 0.925,0.503 -0.59,-0.122 -1.167,-0.19 -1.717,-0.16 0.14,-0.167 0.377,-0.336 0.665,-0.347 z m -11.51,0.478 0.274,1.722 c -6.523,3.708 -14.282,7.213 -25.572,17.885 l 0,-3.55 c 7.086,-6.564 15.35,-12.068 25.296,-16.057 z m 8.772,0.16 c 0.407,0.1 0.77,0.107 1.14,0.015 0,0 -0.238,0.47 -0.518,0.48 -0.298,0.01 -0.623,-0.494 -0.623,-0.494 z m 2.766,0.1 c 0.82,-0.05 1.38,0.7 1.215,1.666 -0.63,3.274 -0.605,6.59 0.07,8.907 0.528,1.807 0.662,2.44 0.224,2.743 -3.844,2.652 -5.953,-9.302 -2.742,-12.693 0.435,-0.41 0.86,-0.598 1.233,-0.62 z m -31.397,0.418 c 0.702,0 1.272,0.57 1.272,1.272 0,0.702 -0.57,1.272 -1.272,1.272 -0.702,0 -1.272,-0.57 -1.272,-1.272 0,-0.702 0.57,-1.272 1.272,-1.272 z m 110.496,0.295 2.39,4.01 -3.33,3.73 -2.026,-4.333 z m -82.297,2.18 -0.124,1.383 c -1.716,0.52 -3.213,1.26 -4.5,2.355 -0.25,0.213 3.978,2.12 4.42,1.68 l -0.01,1.475 c -0.06,0.485 -6.99,-1.717 -7.46,-3.36 0.787,-1.092 5.172,-3.633 7.673,-3.534 z m -31.544,0.734 c 0.703,0 1.272,0.57 1.272,1.272 0,0.702 -0.57,1.27 -1.27,1.27 -0.703,0 -1.273,-0.568 -1.273,-1.27 0,-0.703 0.57,-1.272 1.27,-1.272 z m 18.906,1.46 c -0.492,0.935 -1.22,2.176 -1.36,3.533 -4.756,2.884 -9.633,5.577 -15.567,12.193 l -3.2,-0.02 -0.07,-0.84 c 6.486,-6.18 13.508,-11.515 20.196,-14.866 z m 12.25,0.4 0.033,1.74 c -1.106,0.015 -1.71,-0.345 -2.534,-0.763 0.694,-0.437 1.232,-0.872 2.5,-0.976 z m 35.782,0.185 0.892,0.934 -0.555,0.522 z m -48.18,3.62 1.76,1.096 c -4.533,2.364 -9.304,5.86 -13.433,10.424 l -3.488,0 c 4.405,-4.774 9.15,-9.056 15.16,-11.52 z m 93.912,1.257 0.35,4.735 -4.422,2.425 0.086,-4.996 z m -84.1,0.02 3.042,0.33 0.313,1.287 c -2.552,1.623 -4.77,3.526 -6.895,5.504 0.814,-2.54 2.085,-5.063 3.54,-7.122 z m -7.293,0.507 1.305,0.602 -0.517,2.226 c -3.726,1.656 -6.695,3.893 -9.874,6.908 l -3.577,0 c 3.133,-3.358 8.343,-7.584 12.664,-9.736 z m 11.317,2.092 c 0.01,0 0.015,0 0.014,0.005 l 0.475,14.596 c -13.138,15.38 -12.424,30.252 -8.593,43.74 l -2.506,-0.115 c -2.912,-3.616 -6.785,-7.3 -6.785,-7.3 l -0.01,-42.46 9.057,0.034 c 2.137,-4.94 8.01,-8.458 8.347,-8.498 z m -10.695,2.05 0.108,1.945 c -1.873,1.113 -3.463,2.336 -4.83,3.65 l -3.403,0 c 2.352,-2.188 4.687,-4.392 8.124,-5.594 z m 30.884,0.954 0.498,2.296 c -30.493,11.03 -36.003,43.095 -18.007,65.106 l -1.224,1.366 c -20.663,-22.19 -11.594,-58.437 18.734,-68.768 z m -30.643,2.296 c 0,0 0.167,1.76 0.22,2.344 l -3.417,0 c 0.768,-0.9 1.45,-1.835 3.198,-2.344 z m 85.808,0.736 -1.964,4.58 -5.243,0.08 2.383,-4.58 z m -33.19,3.136 4.778,0 0,4.565 -4.78,0 z m -20.68,0.45 0.082,2.008 c -2.123,1.08 -1.588,2.798 -2.12,2.77 -1.306,0.33 -4.746,2.155 -4.746,2.155 -1.22,-1.105 -2.866,-0.826 -3.63,-0.288 -1.06,0.694 -1.294,2.31 -0.992,3.677 l -3.65,4.265 c -1.76,-0.753 -3.48,-0.706 -4.336,0.47 -0.965,1.326 -0.6,2.97 0.997,4.816 l -1.988,5.1 c -0.23,-0.304 -3.556,0.673 -3.602,2.65 -0.048,2.09 2.75,3.455 2.748,3.615 l -0.132,5.627 c -0.126,-0.27 -2.857,0.844 -2.487,3.54 0.342,2.483 3.722,2.18 3.793,2.387 l 1.836,5.384 c -0.124,-0.164 -2.49,2.152 -1.04,4.342 1.208,1.826 4.717,0.644 4.688,0.527 l 0.972,1.37 -1.077,1.168 c 0,0 -0.465,-0.556 -0.726,-0.507 -2.042,0.39 -4.324,-0.077 -5.418,-1.708 -1.49,-2.3 0.172,-5.894 0.7,-5.864 l -1.26,-3.103 c -2.3,-0.045 -4.25,-2.1 -4.352,-3.82 -0.218,-3.602 2.74,-5.11 2.747,-5.086 l 0.085,-3.358 c -0.18,0.2 -2.922,-1.744 -2.856,-3.977 0.048,-1.63 1.422,-3.55 3.113,-4.322 0.49,-0.23 1.252,-0.593 1.252,-0.593 l 1.143,-2.752 c 0,0 -1.62,-2.34 -1.2,-4.698 0.778,-3.57 5.432,-3.326 6.168,-2.98 l 2.16,-2.704 c -1.063,-2.468 0.773,-5.332 3.174,-5.8 1.067,-0.17 4.057,0.537 4.057,0.537 l 2.767,-1.428 c -0.047,-1.512 1.602,-2.496 3.132,-3.416 z m 15.73,4.997 4.095,0 0,4.565 -4.095,0 z m 10.91,0 4.616,0 0,4.565 -4.617,0 z m -26.307,1.144 -0.05,1.745 c -26.437,12.818 -15.625,39.356 -11.854,42.444 l -0.85,1.873 c -4.638,-2.82 -16.597,-33.444 12.755,-46.064 z m 20.347,4.62 4.968,0 0.043,4.693 -4.968,0 z m -21.494,2.283 -1.575,4.275 -4.855,0.408 1.794,-4.266 z m 99.188,3.127 3.323,0.02 c -6.21,7.26 -12.91,12.21 -19.526,14.92 0,0 -0.023,-0.645 0.18,-1.156 0.162,-0.405 -0.1,-1.43 -0.1,-1.43 7.354,-3.62 12.404,-7.825 16.124,-12.354 z m -17.02,0.06 c -0.854,1.028 -1.83,1.934 -3.04,2.604 l -0.48,-2.645 c 1.016,-0.013 3.52,0.04 3.52,0.04 z m 5.847,-0.056 c 0.336,0.846 -8.717,5.734 -8.75,5.317 l 0.024,-1.624 4.886,-3.625 z m 1.955,0 0.02,0 2.547,0.015 c -2.303,3.63 -14.475,10.22 -13.97,9.292 l 0.492,-2.655 c 3.924,-1.726 7.485,-4.072 10.91,-6.653 z m 4.294,0 3.353,0.015 c -5.045,6.404 -10.162,8.742 -15.07,11.498 -0.296,-0.043 -0.163,-0.153 -1.08,-0.126 l -1.68,-1.31 c 0.313,0.288 11.28,-6.14 14.476,-10.078 z m -93.812,0.228 -0.114,1.936 c -7.057,6.068 -9.887,13.823 -6.216,22.823 l -0.873,1.923 c -3.948,-9.604 -2.782,-18.936 7.204,-26.68 z m 32.132,0.304 0.375,5.224 -21.906,21.324 c 3.335,-11.913 4.257,-19.104 5.153,-26.52 z m 70.154,1.23 0.01,2.898 c -8.637,9.514 -17.342,13.777 -24.863,15.502 l -0.17,-1.115 3.48,-2.144 c 11.224,-4.888 16.138,-9.81 21.544,-15.14 z m -26.213,0.077 c 0.152,2.095 -1.713,6.05 -3.846,8.282 l -3.652,-0.01 -0.404,-1.584 c 3.03,-1.632 5.835,-3.844 7.903,-6.687 z m 1.103,0.624 c 1.342,2.16 -0.67,7.747 -0.754,7.525 -0.16,0.386 11.478,2.846 -0.48,8.603 0.26,1.692 1.382,5.303 0.518,7.535 -0.27,-0.855 -2.35,-6.65 -3.958,-8.133 3.733,-1.063 6.422,-3.347 6.13,-4.1 -0.606,-1.07 -2.278,-2.385 -5.09,-3.35 2.394,-3.322 3.106,-5.816 3.634,-8.08 z m -85.48,1.058 0.375,4.403 -4.252,2.558 -0.327,-4.835 z m 73.964,4.09 c 0.332,0.005 0.644,0.09 0.797,0.256 2.1,0.85 2.253,11.096 0.348,12.14 -1.385,0.87 -2.36,-0.53 -2.31,-0.78 0.917,-4.713 0.343,-7.627 -0.04,-10.922 0.042,-0.48 0.653,-0.7 1.206,-0.693 z m 36.626,0.152 0,3.644 c -12.346,12.8 -25.65,22.887 -39.23,28.552 l -1.24,-2.102 c 16.496,-7.628 30.288,-18.51 40.47,-30.093 z m -2.168,0.332 c -5.72,7.96 -12.686,13.156 -22.23,15.515 l -0.18,-2.258 c 11.886,-2.7 22.72,-13.258 22.41,-13.258 z m -155.634,1.29 c 7.448,7.614 15.08,15.16 22.662,22.975 l -3.013,0.156 -19.74,-20.478 z m 88.664,0.38 0.266,1.878 -2.17,2.378 3.427,3.682 0.176,0.868 -2.94,3.075 -1.33,-1.314 1.628,-1.826 -2.762,-2.904 -5.12,4.925 4.218,4.58 -3.183,3.027 -1.252,-1.295 1.627,-1.88 -2.827,-2.984 -5.22,5.19 3.948,4.362 -2.634,2.913 -1.248,-1.314 1.353,-1.553 -2.86,-2.946 -5.017,4.83 4.128,4.566 -3.354,3.34 -1.3,-1.262 1.883,-2.05 -3.093,-2.947 -2.482,2.344 c 0,0 0.936,-2.324 1.072,-2.717 0.2,-0.578 1.022,-1.036 6.24,-6.183 6.227,-6.2 12.614,-12.008 18.828,-18.78 z m 35.72,1.252 c 1.82,0.03 4.917,0.47 6.42,1.262 2.79,1.47 1.912,2.63 0.1,3.493 -2.167,1.032 -3.944,1.537 -6.392,1.608 l 0.07,-1.2 c 1.422,-0.344 2.897,-0.69 4.153,-1.386 0.864,-0.48 1.087,-0.864 1.087,-0.864 0,0 -0.843,-0.857 -2.183,-1.343 -0.98,-0.356 -2.383,-0.354 -3.146,-0.48 z m -81.46,1.585 2.29,3.435 -2.714,4.55 -2.605,-3.923 z m 46.23,0.37 c 0.08,0.647 0.898,3.164 0.468,2.676 l -1.523,-1.713 z m 35.372,0.337 c 1.267,0.107 2.6,0.145 3.526,0.593 -1.073,0.832 -2.29,1.018 -3.502,1.224 z m 31.796,1.718 c 0.765,0 1.386,0.62 1.386,1.385 0,0.765 -0.62,1.386 -1.386,1.386 -0.765,0 -1.385,-0.62 -1.385,-1.386 0,-0.765 0.62,-1.385 1.385,-1.385 z m -71.506,2.4 1.18,1.144 -1.527,1.78 2.77,2.918 3.432,-3.213 0.454,2.042 -32.142,31.625 -1.784,-0.128 2.045,-2.417 -2.325,-2.377 0.954,-1.708 2.742,2.44 5.025,-4.808 -4.072,-4.284 3.483,-3.573 1.315,1.134 -1.997,2.163 2.908,2.97 5.258,-5.17 -4.114,-4.476 3.283,-3.13 1.206,1.142 -1.53,1.618 3,3.122 4.43,-4.612 -4.032,-4.44 3.583,-3.49 1.1,1.102 -1.65,1.84 3.013,3.12 4.835,-4.97 -3.98,-4.317 z m 68.29,0.826 c 0.764,0 1.385,0.62 1.385,1.386 0,0.765 -0.622,1.385 -1.387,1.385 -0.765,0 -1.386,-0.62 -1.386,-1.386 0,-0.765 0.62,-1.386 1.386,-1.386 z m -26.127,0.062 c 2.183,2.563 3.496,5.415 3.758,8.484 -1.743,-2.646 -3.963,-4.993 -6.87,-7.032 l 0.498,-1.286 z m 30.823,0.21 0,3.092 c -9.737,11.032 -21.557,19.347 -33.693,25.134 l -2.064,-2.51 c 14.353,-6.408 24.74,-14.365 35.757,-25.717 z m -14.325,2.158 -3.947,3.065 -0.01,-1.33 3.953,-1.735 z m -20.346,0.227 c 3.36,1.64 6.178,4.414 7.857,8.522 -4.59,2.88 -9.625,5.213 -14.425,7.535 -2.304,-3.71 -4.623,-7.188 -6.443,-11.965 7.4,-0.055 9.432,-4.098 9.484,-4.13 1.783,0.675 2.157,0.755 3.525,0.038 z m 26.595,0.603 c 0.69,0.013 1.38,0.54 1.404,1.333 0,0.766 -0.62,1.387 -1.386,1.387 -0.766,0 -1.386,-0.62 -1.386,-1.386 0.15,-0.955 0.758,-1.344 1.367,-1.332 z m -10.245,0.91 0.01,1.34 c -1.89,1.655 -5.56,4.336 -5.56,4.336 l -1.52,-0.08 0.494,-3.797 c 2.3,-0.463 4.527,-1.135 6.576,-1.798 z m -96.688,0.158 3.626,2.98 -1.11,4.62 -3.57,-2.708 z m 48.684,0.873 0.336,1.337 -29.784,29.442 -1.694,-0.276 z m 54.946,1.137 c 0.765,0 1.386,0.62 1.386,1.386 0,0.765 -0.62,1.385 -1.386,1.385 -0.765,0 -1.385,-0.62 -1.385,-1.385 0,-0.765 0.62,-1.386 1.385,-1.386 z m 11,-0.01 c 0.162,0 0.355,-0.01 0.355,0.143 l 0,2.548 c -0.145,0.052 -0.302,0.08 -0.465,0.08 -0.765,0 -1.277,-0.62 -1.277,-1.385 0,-0.765 0.62,-1.385 1.386,-1.385 z m -3.362,3.09 c 0.765,0 1.385,0.62 1.385,1.385 0,0.765 -0.62,1.386 -1.385,1.386 -0.765,0 -1.386,-0.62 -1.386,-1.386 0,-0.765 0.62,-1.385 1.386,-1.385 z m -11.643,0.014 c 0.766,0 1.386,0.62 1.386,1.387 0,0.765 -0.62,1.385 -1.386,1.385 -0.765,0 -1.385,-0.62 -1.385,-1.385 0,-0.766 0.62,-1.386 1.385,-1.386 z m -10.016,0.428 1.424,0.048 -2.647,1.575 c 0.486,-0.607 0.94,-1.073 1.224,-1.622 z m 25.396,0.648 0.02,2.85 c -6.814,6.81 -15.417,13.873 -28.57,20.682 l -1.677,-1.697 c 10.724,-5.114 20.79,-12.28 30.226,-21.834 z m -19.345,1.554 c 0.766,0 1.386,0.62 1.386,1.385 0,0.766 -0.62,1.386 -1.385,1.386 -0.765,0 -1.385,-0.62 -1.385,-1.385 0,-0.765 0.62,-1.385 1.386,-1.385 z m 12.318,0.104 c 0.766,0 1.386,0.62 1.386,1.386 0,0.765 -0.62,1.385 -1.386,1.385 -0.765,0 -1.385,-0.62 -1.385,-1.385 0,-0.765 0.62,-1.386 1.385,-1.386 z m -137.983,5.56 c 4.7,-2.727 8.48,-3.047 13.865,-2.224 l 1.61,3.174 c -5.245,-0.93 -10.77,-0.846 -15.494,2.8 -4.895,-3.093 -8.614,-3.986 -12.634,-3.483 l -0.073,-3.346 c 5.24,-0.732 9.94,1.064 12.725,3.08 z m 121.846,-3.016 c 0.766,0 1.386,0.62 1.386,1.385 0,0.765 -0.62,1.386 -1.385,1.386 -0.764,0 -1.385,-0.622 -1.385,-1.387 0,-0.765 0.62,-1.385 1.386,-1.385 z m 12.67,0.57 c 0.765,0 1.385,0.62 1.385,1.384 0,0.766 -0.62,1.386 -1.385,1.386 -0.765,0 -1.386,-0.62 -1.386,-1.386 0,-0.765 0.62,-1.385 1.386,-1.385 z m -16.835,2.068 c 0.765,0 1.385,0.62 1.385,1.385 0,0.766 -0.62,1.387 -1.385,1.387 -0.765,0 -1.386,-0.62 -1.386,-1.386 0,-0.764 0.62,-1.384 1.385,-1.384 z m 12.917,0.803 c 0.765,0 1.386,0.62 1.386,1.385 0,0.765 -0.62,1.385 -1.386,1.385 -0.765,0 -1.385,-0.62 -1.385,-1.385 0,-0.766 0.62,-1.386 1.385,-1.386 z m -17.188,1.644 c 0.776,0 1.405,0.63 1.405,1.405 0,0.774 -0.63,1.403 -1.406,1.403 -0.775,0 -1.404,-0.63 -1.404,-1.404 0,-0.777 0.63,-1.406 1.404,-1.406 z m 13.485,1.162 c 0.765,0 1.385,0.62 1.385,1.386 0,0.765 -0.62,1.386 -1.386,1.386 -0.766,0 -1.386,-0.62 -1.386,-1.386 0,-0.765 0.62,-1.386 1.385,-1.386 z m -17.59,0.96 c 0.765,0 1.386,0.62 1.386,1.385 0,0.766 -0.62,1.386 -1.386,1.386 -0.765,0 -1.386,-0.62 -1.386,-1.385 0,-0.765 0.62,-1.385 1.386,-1.385 z m -61.253,1.252 3.445,3.155 -3.563,3.578 -1.306,-1.252 1.983,-2.073 -1.342,-1.808 z m 75.02,0.306 c 0.765,0 1.385,0.62 1.385,1.386 0,0.765 -0.62,1.385 -1.385,1.385 -0.766,0 -1.386,-0.62 -1.386,-1.385 0,-0.765 0.62,-1.386 1.387,-1.386 z m -3.99,2.346 c 0.766,0 1.386,0.62 1.386,1.386 0,0.765 -0.62,1.385 -1.385,1.385 -0.766,0 -1.386,-0.62 -1.386,-1.384 0,-0.766 0.62,-1.386 1.386,-1.386 z m -4.335,2.354 c 0.766,0 1.386,0.62 1.386,1.385 0,0.764 -0.62,1.385 -1.386,1.385 -0.765,0 -1.385,-0.62 -1.385,-1.386 0,-0.766 0.62,-1.386 1.385,-1.386 z m -71.254,3.92 1.124,0.915 -1.765,2.125 -1.348,-0.02 z m -21.766,5.73 c -3.926,1.944 -5.792,3.174 -8.53,5.557 l -3.925,-5.44 z m -26.718,0.04 10.458,0.146 -3.478,4.92 c -2.294,-2.417 -4.62,-4.06 -6.98,-5.067 z m 12.455,0.535 c 1.133,0.36 4.098,4.586 5.494,6.893 2.974,-2.365 5.886,-5.008 9.063,-6.43 -3.777,3.99 -7.093,8.116 -9.452,12.105 -0.67,-1.798 -2.53,-6.948 -4.888,-9.186 -3.717,3.47 -5.186,7.66 -5.186,7.66 -2,-3.408 -4.407,-6.82 -7.192,-10.013 -0.46,-0.623 3.39,1.77 7.203,5.48 1.074,-2.705 3.948,-6.404 4.96,-6.51 z m -12.56,2.656 c 1.795,1.427 6.68,7.69 7.24,11.46 l -2.34,0.146 c -1.243,-3.87 -3.333,-7.736 -4.9,-11.606 z m 26.006,0.64 c -1.768,3.627 -3.962,7.332 -5.537,11.346 l -2.312,-0.1 c 2.532,-5.53 3.453,-6.543 7.848,-11.245 z m -13.252,1.614 c 0.022,-0.002 0.042,0.003 0.057,0.014 2.197,2.998 3.233,5.91 3.887,9.457 l -1.7,-0.065 c 0,0 -1.184,-3.56 -1.997,-4.817 -0.526,-0.768 -0.948,-0.67 -1.32,-0.033 -0.837,1.505 -1.15,3.012 -1.62,4.65 l -1.956,-0.142 c -0.362,-2.687 3.964,-8.994 4.65,-9.063 z m -0.31,10.33 c 0.796,0.01 1.626,0.87 1.62,2.383 0.06,0.71 -0.49,2.28 -1.087,2.362 -1.108,0.587 -2.418,-1.24 -2.088,-2.762 0.28,-1.298 0.854,-1.992 1.555,-1.983 z m -3.846,0.286 c 1.57,0.14 1.908,3.66 1.272,4.38 -0.73,0.724 -2.662,0.21 -2.845,-1.044 -0.63,-1.597 0.52,-3.32 1.573,-3.336 z m 7.738,-0.02 c 1.71,0.24 1.28,4.104 0.395,4.672 -1.374,0.727 -2.42,-0.49 -1.957,-2.305 0.374,-1.463 0.93,-2.333 1.563,-2.367 z m 3.953,0.64 c 1.957,0.22 0.825,3.622 -0.03,4.315 -1.242,0.968 -2.44,-0.48 -1.846,-2.207 0.462,-1.34 1.23,-2.117 1.875,-2.107 z m -15.805,0.104 c 1.424,0.228 2.25,3.45 1.4,4.372 -0.44,0.528 -1.73,-0.242 -2.318,-1.126 -0.706,-1.06 -0.044,-3.25 0.918,-3.246 z m 15.16,7.02 c 0.17,1.692 -1.106,1.692 -4.785,0.867 -1.857,-0.417 -5.15,-0.154 -6.832,0.15 -2.832,0.515 -3.232,0.32 -3.227,-0.834 0.01,-1.337 1.595,-2.096 5.268,-2.21 2.628,-0.08 9.17,-0.106 9.578,2.027 z m 5.72,-0.993 c -4.38,0.412 -5.545,5.9 -5.062,7.928 0.385,3.39 0.22,6.94 -0.432,9.272 -0.466,1.675 -0.882,3.46 -1.636,4.977 -1.152,2.294 -0.855,3.997 0.854,4.91 1.403,0.752 3.13,0.496 4.214,-0.668 1.957,-2.103 2.19,-6.566 0.99,-16.692 -0.422,-3.574 -0.195,-4.286 1.54,-4.086 3.638,-0.028 3.492,-5.636 -0.466,-5.64 z m -0.526,4.612 c -0.98,-0.38 -1.645,0.51 -1.515,2.727 0.035,0.984 0.208,2.09 0.333,2.97 1.416,9.716 0.886,16.225 -2.098,16.546 -2.597,0.417 -4.356,-1.495 -3.09,-3.473 0.72,-1.12 1.338,-1.272 2.734,-0.684 1.92,1.19 1.44,-0.543 -0.29,-1.822 -1.107,-0.784 -1.192,-0.784 -0.597,-3.236 0.802,-3.307 1.073,-5.666 0.778,-9.85 -0.414,-2.96 0.575,-6.885 4.342,-7.116 3.81,-0.115 2.66,5.294 -0.598,3.937 z m -26.89,12.796 c 1.24,0.598 2.445,0.496 3.625,0.01 0.46,-2.066 0.488,-3.785 1.878,-6.594 -2.316,-2.317 -6.213,-1.407 -7.31,1.023 -1.098,2.43 -0.076,4.652 1.806,5.56 z m 3.715,-7.17 c 1.403,0.297 1.193,1.77 -0.128,1.29 -3.15,-1.482 -5.717,2.98 -3.175,4.66 1.297,0.726 1.87,0.31 0.584,-0.688 -0.527,-0.606 -0.394,-0.853 -0.076,-1.46 0.66,-1.227 3.06,-1.03 2.89,-0.14 -0.547,2.828 -0.907,3.643 -1.756,3.65 -4.89,0.252 -5.81,-8.902 1.66,-7.313 z m 41.542,5.082 c 0,0 -14.568,16.47 -21.585,24.906 l 87.948,-0.408 -16.736,-23.09 c -14.357,3.315 -31.225,2.358 -49.627,-1.408 z m -0.437,5.262 c 2.197,0.024 4.696,1.62 6.857,6.937 0.117,0.05 9.672,-14.51 17.945,0.565 1.35,-3.384 9.143,-12.21 18.15,-0.883 3.2,-7.582 10.577,-5.018 11.27,-2.373 -0.156,-0.57 -7.032,-2.202 -10.008,2.823 -0.55,1.065 -0.58,2.073 0.052,2.672 1.487,1.41 -0.132,3.43 -1.826,2.28 -0.66,-0.447 -0.744,-1.387 -0.238,-2.065 1.495,-1.115 -1.567,-4.58 -4.086,-5.83 -3.456,-1.71 -8.276,-0.955 -10.594,1.5 -1.246,1.323 -2.008,2.51 -2.19,3.457 -0.097,0.44 -0.038,0.67 0.224,0.965 1.005,1.212 0.342,2.872 -1.018,2.67 -1.782,-0.264 -1.544,-1.93 -0.352,-2.84 0.365,-0.18 0.227,-0.394 0.117,-0.705 -3.254,-9.16 -15.38,-7.416 -16.69,-1.072 -0.047,0.23 -0.15,0.472 -0.098,0.71 0.136,0.605 0.49,1.117 0.354,1.595 -0.557,1.948 -2.994,1.39 -3.105,-0.225 -0.05,-0.734 0.743,-0.955 1.13,-1.625 0.233,-0.42 0.34,-0.934 0.117,-1.4 -3.286,-6.885 -8.926,-5.444 -11.725,-3.89 -0.06,0.034 2.503,-3.303 5.713,-3.268 z m -3.644,3.99 c 1.202,-0.042 2.295,0.55 3.317,1.733 3.443,-1.82 5.892,1.332 5.485,1.637 -4.877,-3.165 -6.46,4.21 -1.655,3.93 -2.112,4.367 5.43,6.238 4.583,0.657 4.654,1.624 5.422,-4.766 0.708,-4.67 1.523,-2.637 5.477,-1.91 7.15,-0.26 1.966,-2.4 6.794,-0.11 7.273,1.942 -5.415,-2.775 -5.96,5.703 -0.716,3.9 -1.552,5.395 6.785,4.628 4.48,-0.025 5.193,1.707 4.486,-6.053 -0.617,-4.48 -0.31,-0.4 4.035,-4.888 7.194,-0.673 0.427,-0.742 5.358,-3.174 8.056,0.646 -5.846,-1.978 -4.74,5.892 -0.55,4.327 -1.12,5.214 6.44,4.368 4.508,-0.076 5.858,1.48 3.265,-7.443 -0.852,-4.148 0.67,-3.587 5.594,-2.1 5.54,-1.547 0,-0.002 2.616,-2.827 5.543,-0.76 -4.573,0.386 -3.017,6.554 1.305,4.798 -0.046,2.094 1.694,3.48 4.048,2.77 l 3.696,5.168 -84.31,0.533 6.736,-8.028 c 2.253,1.862 4.588,0.982 4.876,-1.938 4.903,3.007 6.176,-4.136 1.575,-4.445 0.935,-0.636 1.807,-0.962 2.63,-0.99 z m -4.712,2.32 c 0.292,0.207 -0.104,1.2 -0.75,0.912 z m 65.737,2.074 c 0.252,0.36 0.43,0.59 0.68,0.95 0.12,0.32 -1.315,-0.17 -0.68,-0.95 z"
         id="path13832" />
    </g>
  </g>
</svg>
