<?xml version="1.0" encoding="UTF-8" standalone="no"?>
<!-- Created with Inkscape (http://www.inkscape.org/) -->

<svg
   xmlns:dc="http://purl.org/dc/elements/1.1/"
   xmlns:cc="http://creativecommons.org/ns#"
   xmlns:rdf="http://www.w3.org/1999/02/22-rdf-syntax-ns#"
   xmlns:svg="http://www.w3.org/2000/svg"
   xmlns="http://www.w3.org/2000/svg"
   xmlns:sodipodi="http://sodipodi.sourceforge.net/DTD/sodipodi-0.dtd"
   xmlns:inkscape="http://www.inkscape.org/namespaces/inkscape"
   width="63.281273mm"
   height="88.281357mm"
   viewBox="0 0 224.22499 312.80796"
   id="svg11639"
   version="1.1"
   inkscape:version="0.91 r13725"
   sodipodi:docname="KS.svg">
  <defs
     id="defs11641" />
  <sodipodi:namedview
     id="base"
     pagecolor="#ffffff"
     bordercolor="#666666"
     borderopacity="1.0"
     inkscape:pageopacity="0.0"
     inkscape:pageshadow="2"
     inkscape:zoom="0.35"
     inkscape:cx="282.82678"
     inkscape:cy="-0.73888447"
     inkscape:document-units="px"
     inkscape:current-layer="layer1"
     showgrid="false"
     fit-margin-top="0"
     fit-margin-left="0"
     fit-margin-right="0"
     fit-margin-bottom="0"
     inkscape:window-width="1600"
     inkscape:window-height="838"
     inkscape:window-x="-8"
     inkscape:window-y="-8"
     inkscape:window-maximized="1" />
  <metadata
     id="metadata11644">
    <rdf:RDF>
      <cc:Work
         rdf:about="">
        <dc:format>image/svg+xml</dc:format>
        <dc:type
           rdf:resource="http://purl.org/dc/dcmitype/StillImage" />
        <dc:title></dc:title>
      </cc:Work>
    </rdf:RDF>
  </metadata>
  <g
     inkscape:label="Calque 1"
     inkscape:groupmode="layer"
     id="layer1"
     transform="translate(566.3982,-218.81536)">
    <g
       transform="translate(-3334.7877,-441.11711)"
       id="g4575">
      <g
         transform="translate(1772.755,-1093.92)"
         id="g4577">
        <rect
           style="fill:#ffffff;stroke:#000000;stroke-width:0.99699998"
           width="223.228"
           height="311.811"
           x="996.133"
           y="1754.351"
           rx="10.63"
           ry="10.63"
           id="rect4579" />
        <path
           style="fill:#131f67"
           inkscape:connector-curvature="0"
           d="m 1025.792,1780.136 163.532,0 0.3,261.366 -163.967,-0.436 c 0,0 -0.01,-170.555 0.135,-260.93 z m 116.157,259.485 c -6.09,-10.986 -15.715,-28.882 -16,-29.025 -3.56,1.886 -39.847,6.72 -57.3,2.04 -5.97,8.923 -11.832,17.76 -17.03,26.607 z m -55.732,-32.86 c -0.913,0.02 -1.93,0.574 -1.743,0.092 0.11,-0.28 0.366,-3.096 0.48,-4.104 0.272,-0.448 0.657,0.727 0.613,1.82 -0.026,0.625 0.277,0.178 2.344,0.286 2.235,0.116 4.066,0.533 4.825,0.696 2.643,0.57 7.757,0.16 9.95,-1.425 1.185,-0.86 1.634,0.068 0.41,0.99 -5.522,4.16 -9.9,2.574 -14.7,1.877 -0.714,-0.104 -1.438,-0.25 -2.18,-0.232 z m 2.35,-3.948 c -0.345,-0.222 -0.57,-0.245 -1.01,-0.04 -1.695,0.785 -1.252,-0.343 -0.03,-1.48 0.557,-0.52 0.54,-0.783 0.118,-1.33 -0.215,-0.275 -0.573,-0.31 -0.487,-0.723 0.365,-1.784 2.884,-4.48 5.698,-5.686 1.17,-0.502 1.357,0.047 -0.124,0.912 -2.277,1.33 -3.014,2.465 -1.726,2.003 2.497,-0.896 4.775,-0.264 7.97,1.32 0.913,0.453 1.33,0.54 2.108,0.46 0.574,-0.474 1.088,0.095 1.443,0.392 0.223,0.178 0.27,0.264 0.525,0.205 1.818,-0.425 0.73,0.727 -1.756,2.53 -4.452,3.126 -9.307,4.6 -12.733,1.435 z m 6.846,0.77 c 1.82,-0.546 4.038,-1.684 5.398,-2.87 1.654,-1.443 0.72,-1.224 -1.18,-0.315 -2.752,1.316 -4.678,1.697 -7.772,1.626 -2.59,-0.06 -2.508,-0.163 -2.603,0.158 -0.33,1.126 3.233,2.276 6.157,1.4 z m -5.025,-4.397 c 0.147,-0.485 0.26,-1.13 0.128,-1.34 -0.24,-0.38 -0.754,-0.1 -1.41,0.72 -0.405,0.51 -0.35,0.58 0.048,0.98 0.2,0.136 0.352,0.236 0.472,0.305 0.553,0.234 0.642,-0.275 0.76,-0.665 z m 1.132,0.664 c 0.796,-2.694 2.58,-2.64 3.85,-0.064 l 0.9,0 c -1.846,-5.014 -5.417,-2.474 -5.536,0.02 0.42,0.14 0.786,0.04 0.786,0.04 z m 6.66,-0.454 c 0.843,-0.466 0.72,-0.784 -0.353,-1.333 -0.763,-0.39 -1.166,-0.47 -1.305,-0.217 0.01,0.555 0.033,1.35 0.357,1.79 0.336,0.203 0.798,0 1.3,-0.24 z m -11.8,-7.67 c -0.154,-0.254 -0.127,-0.716 0.46,-0.986 3.61,-1.66 0.98,-5.164 -1.81,-2.536 -0.883,0.72 -2.198,1.055 -3.214,0.626 -0.955,-0.413 -0.973,-1.573 0.296,-1.82 0.416,-0.08 1.485,-0.307 1.88,-0.58 4.846,-2.574 7.42,3.026 3.98,4.89 -0.706,0.41 -1.456,0.638 -1.592,0.406 z m -13.578,-5.086 c -1.967,-0.884 -2.236,-3.958 -0.393,-5.154 1.175,-0.797 2.374,-1.014 5.607,0.574 2.283,1.122 3.59,-0.086 3.53,1.22 -0.035,0.793 -0.083,1.593 -1.41,1.784 -2.158,0.31 -3.63,-2.596 -6.402,-2.32 -2,0.196 -1.746,2.57 -0.3,3.053 1.924,0.643 0.757,1.406 -0.63,0.843 z m 36.168,0.447 c -0.36,0.168 -0.53,-0.616 -0.374,-1.035 0.983,-2.315 1.887,-4.155 2.778,-6.324 0.71,-1.728 1.188,-2.47 1.507,-2.47 0.326,0 0.477,0.256 -0.068,1.32 -0.824,2.146 -3.84,8.692 -3.843,8.51 z m -16.15,-0.6 c -0.87,-0.615 -0.723,-1.528 0.267,-0.837 1.272,0.888 3.358,-0.737 2.932,-2.27 -0.514,-1.855 -2.995,-2.304 -5.07,-0.644 -3.278,2.62 -6.872,2.753 -6.872,0.705 0.01,-0.584 -0.077,-0.717 1.287,-0.808 1.585,-0.106 3.373,-0.827 4.26,-1.365 3.987,-2.412 8.227,-0.747 7.35,3.277 -0.397,1.898 -2.74,2.818 -4.155,1.943 z m -14.614,-5.94 c -0.323,-0.01 -0.914,0.314 -1.084,0.19 -0.332,-0.247 -0.284,-0.96 -0.556,-1.726 -0.485,-1.356 -0.013,-0.932 0.84,-0.565 1.157,0.444 2.254,0.36 3.23,0.022 1.007,-0.347 2.328,-0.268 4.442,0.01 1.7,0.22 2.657,0.157 4.2,-0.282 1.676,-0.52 1.233,-0.332 0.953,0.694 -0.18,0.673 -0.41,1.576 -0.624,1.793 -1.16,-0.644 -2.04,-0.394 -2.8,0.044 -1.25,0.548 -2.138,0.642 -3.162,0.338 -0.964,-0.545 -1.536,-0.5 -2.31,-0.03 -1.334,0.642 -1.925,-0.42 -3.13,-0.48 z m 24.987,-2.82 c 0.235,-0.41 0.576,-0.973 0.896,-1.606 2.59,-5.105 2.767,-6.525 0.94,-8.246 -2.456,-2.312 -4.55,-1.31 -6.902,3.308 -0.57,1.12 -0.912,1.962 -1.143,2.308 -0.266,0.4 -0.577,0.092 -0.73,-0.063 -0.29,-0.294 2.32,-5.195 3.344,-6.265 2.678,-2.8 7.654,-0.56 7.337,3.248 -0.16,1.918 -0.526,2.97 -2.292,6.486 -0.437,0.87 -0.817,1.608 -1.048,1.963 -0.828,0.55 -0.64,-0.714 -0.402,-1.133 z m -24.4,-0.203 c 0.408,-1.82 6.278,-2.66 7.825,-0.276 0.15,0.233 0.063,0.224 -0.602,0.043 -2.984,-0.98 -3.576,-0.925 -6.436,0.197 -0.43,0.165 -0.735,0.233 -0.788,0.037 z m 22.397,-0.346 c 0,-0.17 0.218,-0.843 0.55,-1.493 1.957,-3.843 2.497,-4.77 1.9,-5.488 -1.164,-1.4 -2.726,-0.183 -4.162,3.83 -0.537,1.5 -0.902,1.18 -1.164,0.942 -0.5,-0.454 1.718,-5.123 2.79,-5.82 2.425,-1.53 4.335,0.243 3.263,3.378 -0.838,1.415 -1.53,3.593 -2.31,4.74 -0.37,0.513 -0.87,0.36 -0.868,-0.09 z m -8.778,-6.24 c -0.118,-0.194 0.11,-0.455 0.952,-2.244 1.156,-2.46 1.514,-3.372 1.044,-4.776 -0.837,-2.503 -3.992,-3.117 -5.908,-1.474 -0.627,0.53 -1.053,1.264 -1.348,1.922 -0.693,1.526 -1.27,3.5 -1.68,3.913 -0.36,0.358 -0.86,0.43 -0.827,-0.196 0.455,-1.328 0.67,-2.358 1.748,-4.304 2.685,-5.797 10.426,-3.113 8.614,2.99 -0.674,2.214 -1.45,3.892 -1.907,4.437 -0.255,0.303 -0.678,0.04 -0.69,-0.27 z m -1.796,-1.065 c 0,-0.19 0.29,-0.735 0.6,-1.492 1.308,-3.216 1.317,-4.202 -0.59,-4.243 -1.142,0.146 -1.312,0.61 -2.314,3.148 -0.325,0.825 -0.505,1.412 -0.698,1.663 -0.208,0.27 -0.597,0.11 -0.757,-0.052 -0.41,-0.414 1.376,-4.576 2.32,-5.36 2.173,-1.878 4.986,0.788 3.668,3.182 -0.618,1.673 -1.15,2.808 -1.512,3.326 -0.32,0.457 -0.722,0.393 -0.718,-0.17 z m -46.23,-37.504 -6.596,-0.45 c 1.17,7.013 1.23,14.734 0.048,20.21 -1.01,4.68 -1.02,8.128 -0.72,12.186 0.35,4.722 2.362,8.726 2.868,13.74 0.367,3.63 -0.442,7.42 -1.164,11.032 -1.206,6.034 -0.957,6.664 -0.78,13.745 0.165,6.564 -0.45,6.33 -0.83,5.946 -0.057,-0.06 -0.11,-1.22 -0.1,-2.6 0.01,-1.382 -0.08,-4.758 -0.158,-7.102 -0.158,-4.683 0.366,-8.82 0.745,-10.524 0.773,-3.467 1.64,-7.017 1.107,-10.854 -1.086,-4.84 -2.617,-9.677 -3.154,-14.344 -0.66,-5.754 0.966,-11.528 1.504,-15.707 0.52,-4.036 -0.03,-11.017 -1.094,-13.923 -0.183,-0.966 -1.052,-2.226 -1.052,-2.226 -0.993,-0.14 -1.992,-0.28 -3.387,-0.272 -0.078,27.712 0,55.435 0.022,83.15 l 6.15,5.68 6.32,-5.98 z m 0.445,31.788 c 0,0 9.385,5.377 19.733,10.66 -0.985,-6.045 2.14,-6.956 5.074,-7.658 -0.703,-11.678 10.05,-9.283 11.698,0.864 l 1.06,0.01 c 1.863,-5.06 3.705,-8.552 7.948,-9.385 3.287,-0.646 6.53,1.426 7.352,6.306 -0.145,-0.342 10.9,-6.45 11.205,6.455 5.017,-3.1 8.596,-0.422 10.043,3.513 2.118,-3.212 7.42,-3.353 9.114,-3.587 0.59,-0.676 1.63,-1.063 3.524,-1.05 1.622,-0.083 3.802,-1.292 4.923,0.18 1.706,0.27 3.005,-0.038 4.463,1.083 1.16,0.877 2.454,2.833 4.385,1.484 3.682,-1.764 7.82,-2.56 11.112,-4.688 0,0 -0.873,-1.12 -0.618,-0.96 0.092,0.06 0.502,0.59 1.12,0.835 0.22,0.088 2.244,-1.118 2.244,-1.118 -13.714,-15.723 -24.995,-46.417 -17.546,-74.816 0.206,-0.482 -0.622,-0.668 -1.03,-0.84 0.127,-0.217 2.14,0.075 1.285,1.88 -0.86,5.442 -1.836,11.338 -2.053,15.85 0,0.55 0.046,1.04 0.046,1.04 30.75,14.115 26.98,44.686 19.08,55.327 l 1.245,1.65 c 0.552,0.368 24.19,-13.35 23.41,-13.913 l 4.474,-2.216 -0.725,-59.947 -17.69,-1.346 c 0,0 0.187,-0.503 0.41,-0.634 0.163,-3.66 -0.166,-9.072 0.01,-13.603 0.07,-12.947 0.2,-17.35 0.032,-17.708 -5.457,-3.577 -13.593,-8.805 -20.44,-11.34 0.28,0.08 -0.11,5.365 -0.32,5.666 -6.406,2.034 -3.432,4.634 -5.8,7.427 -1.59,1.74 -5.313,2.07 -7.11,-0.016 -2.148,-2.068 -3.155,-6.813 -3.155,-6.813 -3.39,3.606 -2.693,7.963 -7.232,9.603 -7.294,3.6 -9.61,-7.164 -9.186,-6.915 -2.796,2.682 -10.64,4.863 -11.487,-6.46 -3.527,3.23 -7.48,1.626 -9.157,-2.35 -2.153,0.076 -4.567,1.754 -6.746,2.662 -2.02,0.89 -4.608,1.413 -6.528,1.374 -2.4,0.29 -4.38,0.278 -6.543,-0.364 -1.018,0.33 -3.31,-0.654 -4.018,-2.06 -1.082,-1.266 -2.025,-1.34 -3.054,-1.112 -3.504,1.837 -7.262,2.28 -11.398,4.204 -0.26,0.178 0.363,0.515 0.154,0.45 -0.088,-0.03 -2.173,1.017 -2.173,1.017 20.955,27.417 22.095,55.097 17.703,74.716 -0.172,0.68 -0.267,1.173 0.186,1.708 -0.666,-0.114 -0.677,0.08 -0.8,-0.344 l 2.178,-16.468 c 0.064,-1.99 0.314,-1.842 -1.442,-2.584 -1.624,-0.686 -3.16,-1.347 -4.5,-2.167 -5.11,-3.768 -10.884,-8.405 -13.698,-14.192 -8.03,-12.438 -5.38,-27.278 0.634,-39.037 l -1.496,-1.546 c -17.564,8.757 -27.933,18.2 -27.933,18.2 l 0.075,58.823 18.05,2.072 z m -8.707,-39.28 c -0.58,-0.637 -2.053,-0.75 -2.667,-0.265 -0.143,0.12 -0.446,0.743 -0.535,0.72 -0.818,-0.21 -1.384,-0.378 -1.493,-1.065 l 0.868,-1.305 c 0.687,-1.033 1.677,-1.4 3.346,-1.788 0.592,-0.137 1.486,-0.263 1.8,-0.397 1.255,-0.54 1.692,-1.706 0.422,-1.183 -0.927,0.253 -2.223,0.17 -2.395,-0.675 -0.142,-0.693 -0.735,-0.965 -1.397,-0.883 -1.223,0.292 -2.34,0.928 -3.422,1.567 -0.48,0.288 -1.39,0.94 -1.39,0.94 -0.144,0.225 -0.674,-1.41 -0.18,-1.888 0.613,0.074 1.14,0.08 1.74,-0.157 1.49,-0.593 2.928,-1.307 4.434,-1.88 0.96,-0.374 1.047,-0.343 0.794,-1.02 -0.124,-0.25 -0.235,-1.08 -0.07,-1.514 0.176,-0.462 0.156,-0.694 -0.142,-0.892 -0.677,-0.45 -2.302,-0.03 -4.588,1.062 -0.696,0.333 -1.155,0.467 -1.595,0.82 0.284,-0.72 0.118,-0.852 0.11,-1.606 0.934,0.117 1.774,-0.252 2.52,-0.643 0.613,-0.32 1.302,-0.635 2.99,-0.85 0.462,-0.06 0.252,-1.74 -0.273,-2.226 -0.497,-0.46 -1.54,-0.47 -2.804,-0.097 -1.128,0.258 -2.53,0.52 -3.307,1.725 -0.978,0.922 0.024,-1.53 1.81,-2.507 0.782,-0.016 2.508,-0.384 2.914,-0.474 0.69,-0.15 0.8,-1.76 -0.202,-2.45 -0.627,-0.543 2.277,-0.558 2.22,-0.392 -0.036,0.095 -0.063,0.783 0.16,0.958 1.25,0.375 1.24,1.392 1.35,1.82 1.435,2.348 2.142,0.876 3.13,0.067 -0.208,5.11 1.588,5.69 1.825,6.014 -2.466,4.58 -0.606,4.69 1.706,5.745 0,0 -0.878,0.354 -1.463,0.318 -0.92,-0.057 -2.682,1.03 -3.452,1.67 -0.424,0.352 -0.437,0.057 -2.135,0.01 -1.6,-0.046 -1.718,0.073 -2.448,0.394 -1.44,0.635 -1.432,1.235 -0.025,1 1.498,-0.254 2.966,0.652 3.138,1.885 0.12,0.234 0.013,0.646 -0.01,0.632 -0.313,-0.058 -1.02,0.06 -1.008,-0.09 0.01,-0.148 0,-0.707 -0.276,-1.1 z m 2.186,-6.193 c 0.406,-0.258 0.476,-0.993 0.123,-1.29 -0.322,-0.27 -1.69,-0.127 -2.076,0.22 -0.875,0.683 0.722,1.828 1.952,1.07 z m 0.876,-3.076 c 0.502,-0.392 0.564,-1.33 0.128,-1.875 -0.738,-0.924 -2.668,-0.37 -2.773,0.795 -0.11,1.24 1.593,1.895 2.645,1.08 z m -0.628,-4.222 c 0.09,-1.02 -0.923,-1.664 -1.856,-1.18 -1.16,0.6 -0.456,1.87 1,1.795 0.804,-0.04 0.804,-0.04 0.856,-0.615 z m -3.4,-4.135 c -0.542,0.265 -0.57,0.9 -0.056,1.31 2.037,1.12 1.417,-1.88 0.056,-1.31 z m 142.28,6.09 c -0.894,-3.28 -3.36,-0.027 -3.363,0.02 -0.087,-3.363 0.552,-4.86 -1.98,-6.008 2.54,-3.833 2.01,-4.36 -0.683,-5.83 0.248,0.02 3.576,-0.723 4.146,-2.616 0.127,0.088 5.224,1.338 5.86,-1.432 -1.538,0.698 -4.563,0.802 -4.598,-2.176 0.286,-0.086 1.004,0.06 0.944,0.156 -0.403,1.91 3.092,2.383 3.664,0.874 0,0 1.174,0.783 1.69,0.904 0.058,0.04 -1.59,2.313 -3.09,2.656 -2.71,0.893 -3.643,1.133 -3.647,1.67 0,0.207 0.442,0.24 1.247,0.404 1.682,0.116 1.646,0.475 1.867,1.03 0.195,0.49 0.385,0.59 0.946,0.54 1.92,-0.636 2.88,-0.97 4.22,-2.303 0.163,-0.03 0.352,1.4 0.456,1.45 0.014,-0.228 -1.36,0.17 -3.472,1.4 -1.723,1.005 -2.398,1.15 -2.617,1.422 -0.162,0.2 0.257,0.834 0.3,1.522 0.038,0.578 -0.352,0.858 -0.065,1.04 0.332,0.207 0.846,0.17 1.52,-0.01 1.49,-0.358 2.587,-0.94 3.926,-1.765 -0.283,0.536 0.194,1.897 0.194,1.897 0,0 -0.66,-0.463 -1.205,-0.223 -1.05,0.46 -2.744,1.083 -3.2,1.19 -0.444,0.104 -0.637,0.16 -0.81,0.308 -0.213,0.18 -0.177,0.613 -0.18,1.248 0,0.446 -0.132,0.858 0.15,0.992 0.625,0.2 1.888,0.138 3.174,-0.31 0.548,-0.237 1.71,-0.868 1.71,-0.868 l -0.363,1.882 c -0.487,-0.548 -1.887,-0.145 -2.825,0.223 -0.473,0.148 -0.614,0.444 -0.734,0.855 -0.21,0.702 0.24,1.186 0.756,1.416 0.344,0.154 0.873,0.09 0.873,0.09 -2.43,0.92 -1.946,1.26 -3.363,0.563 -0.613,-0.662 -1.213,-1.36 -1.447,-2.216 z m 2.542,0 c -0.403,-0.463 -1.104,-0.73 -1.513,-0.546 -0.365,0.19 -0.234,0.594 -0.118,0.9 0.307,0.853 2.44,0.578 1.63,-0.355 z m -1.417,-2.345 c 0.57,-0.743 -0.057,-1.743 -1.11,-1.75 -0.73,0 -1.12,0.45 -1.112,1.02 0.015,1.078 1.747,1.35 2.222,0.73 z m -1.17,-2.832 c 1.056,-0.285 1.38,-1.303 0.65,-2.04 -0.518,-0.526 -2.145,-0.59 -2.58,-0.117 -1.11,1.213 0.134,2.645 1.93,2.158 z m 0.878,-3.724 c 0.62,-0.316 0.74,-0.84 0.192,-1.438 -0.993,-0.842 -2.727,-0.186 -2.167,1.04 0.275,0.602 1.22,0.782 1.975,0.398 z m -126.94,-28.27 c 0.93,-0.338 1.603,-1.057 2.584,-1.61 0.66,-0.36 0.462,-0.302 -0.384,-0.795 -0.666,-0.305 -2,-1.65 -2.124,-1.33 -0.304,0.574 -0.26,3.708 -0.078,3.734 z m 23.55,32.822 c 0.038,-0.64 0.115,-1.603 0.097,-2.31 0.126,-1.346 -0.117,-0.953 -0.85,-0.513 -0.54,0.348 -1.41,0.876 -1.75,1.045 -1.342,0.667 -1.182,0.702 0.71,1.608 1.586,0.708 1.764,0.638 1.792,0.17 z m -1.844,-3.152 c 1.283,-0.805 1.71,-1.22 1.77,-2.124 0.01,-1.04 -0.114,-1.418 -1.03,-0.698 -3.123,2.456 -6.338,-2.362 -3.48,-5.04 0.584,-0.545 1.325,-1.4 1.33,-1.616 0.048,-1.552 -1.707,-0.045 -3.14,2.087 -1.59,1.938 -2.578,4.364 -1.185,6.692 1.114,1.704 3.595,2.042 5.734,0.7 z m -7.097,-3.135 c -0.057,-0.76 0.158,-1.61 0.258,-1.863 0.35,-0.89 0.336,-1 -1.255,-0.26 -0.635,0.21 -1.392,0.378 -1.684,0.376 -1.3,-0.01 -0.974,0.4 0.89,1.946 1.87,1.553 1.933,1.693 1.793,-0.2 z m 4.427,-7.444 c 0.198,-0.468 -0.214,-0.648 -0.61,-0.56 -0.03,0.01 -0.712,0.513 -1.513,1.14 -2.427,1.904 -4.207,2.126 -5.412,0.676 -1.22,-1.47 -0.71,-3.212 2.02,-5.208 1.203,-0.88 1.492,-0.94 0.913,-1.325 -0.44,-0.294 -0.467,-0.25 -2.198,0.918 -3.488,2.35 -4.532,3.956 -4.183,6.295 0.072,0.96 0.577,1.464 1.067,1.838 3.325,2.934 7.94,-1.11 9.916,-3.774 z m 3.52,1.388 -0.21,-3.237 c -3.546,-3.044 -6.91,-8.242 -8.072,-12.548 -1.185,-3.83 -0.24,-11.817 -0.063,-11.224 l -1.916,-3.613 c -1.668,3.835 -2.397,9.68 -0.582,15.64 1.54,5.055 4.623,11.18 10.842,14.98 z m -14.936,-1.886 c 1.127,-2.154 1.16,-1.92 -1.015,-1.94 -2.486,-0.02 -2.208,-0.322 -0.808,1.79 1.125,1.696 0.935,1.844 1.822,0.15 z m 1.492,-2.95 c 1.43,-0.46 1.104,-0.354 3.004,-1.583 2.18,-1.412 2.27,-2.183 0.082,-1.096 -2.81,1.396 -5.277,1.04 -6.193,-0.784 -0.817,-1.624 0.887,-3.65 3.692,-4.442 0.96,-0.27 1.464,-0.5 1.466,-0.917 0.01,-1.274 -4.767,0.426 -6.735,2.35 -3.798,3.712 -0.474,8.117 4.683,6.47 z m -6.14,-5.782 c 0.127,-0.194 0.47,-0.658 0.784,-1.14 1.345,-1.555 0.214,-1.09 -0.98,-1.516 -0.63,-0.232 -1.278,-0.462 -1.648,-0.406 -0.715,0.108 0.24,1.48 0.47,2.368 0.643,1.974 0.57,1.914 1.373,0.694 z m 5.084,-3.558 c 2.408,-0.235 2.653,-0.466 2.656,-0.963 0,-0.493 -0.294,-0.398 -1.503,-0.23 -3.2,0.44 -5.32,-0.37 -5.777,-2.068 -0.473,-1.754 1.695,-3.413 4.584,-3.315 1.565,0.053 2.607,-0.486 1.654,-1.003 -0.496,-0.27 -4.806,-0.213 -5.78,0.07 -2.864,0.83 -4.03,2.415 -3.77,4.61 0.396,2.71 1.883,3.487 5.508,3.295 0.694,-0.037 1.58,-0.315 2.428,-0.397 z m 1.863,-8.83 c 0,-0.422 -0.685,-0.483 -2.957,-0.82 -3.026,-0.446 -4.378,-3.234 -2.554,-4.91 0.69,-0.637 2.34,-0.91 3.257,-0.743 1.994,0.362 3.214,0.77 3.233,0.096 0,-0.6 -0.575,-0.643 -4.32,-1.43 -5.66,-1.19 -8.765,4.337 -4.24,7.04 1.718,1.03 7.575,1.613 7.58,0.77 z m 1.403,-7.91 c 0,-0.21 -0.183,-0.374 -0.61,-0.54 -0.624,-0.243 -1.042,-0.288 -2.447,-1.23 -1.868,-1.253 -2.435,-3.697 -1.19,-5.058 1.21,-1.272 -0.966,-2.772 -2.7,-1.338 -1.803,1.49 -1.65,3.83 0.424,5.683 1.91,1.705 6.516,3.478 6.522,2.483 z m -9.168,-0.33 c 1.966,-0.918 3.38,-0.39 1.874,-1.657 -0.845,-0.78 -1.566,-2.994 -2.153,-1.115 -0.45,1.12 -0.78,3.095 -0.793,3.29 0.132,0.133 0.102,-0.096 1.07,-0.517 z m 69.564,-4.768 c -2.24,-0.555 -3.77,-3.144 -3.2,-5.632 0.322,-1.406 1.65,-4.72 1.913,-4.926 0.988,-0.78 0.853,0.258 -0.054,2.06 -0.827,1.842 -1.47,3.322 -1.215,4.417 0.364,1.558 0.998,2.748 2.626,3.144 1.146,0.278 2.225,-0.197 2.956,-0.71 0.966,-0.68 1.88,-2.423 2.972,-4.836 0.35,-0.68 0.818,-2.763 1.4,-1.49 0.28,0.657 -2.05,5.036 -2.922,6.145 -1.096,1.396 -2.948,2.215 -4.474,1.827 z m 13.504,-1.465 c 1.09,1.04 2.936,1.564 4.14,1.19 2.954,-1.035 4.296,-3.813 3.178,-8.28 -0.566,-2.503 -1.05,-4.06 -1.54,-4.37 -0.24,-0.15 -0.5,0.13 -0.73,0.48 -0.207,0.31 0.11,0.747 0.444,1.925 1.412,4.963 1.043,7.208 -0.68,8.156 -2.5,1.376 -4.642,-0.21 -5.368,-3.75 -0.116,-0.547 -0.458,-1.663 -0.458,-1.663 -0.192,-0.492 -1.74,-0.383 -1.177,1.265 0.17,1.276 1.35,4.318 2.19,5.047 z m 12.674,-13 c -0.04,-1.745 -3.73,-9.322 -3.98,-8.518 0,0 -0.016,1.77 0.128,2.468 0.055,0.263 0.247,0.507 0.404,0.787 3.207,5.69 2.712,9.7 -0.07,10.58 -0.946,0.428 -1.152,0.85 -0.728,1.29 0.857,0.928 3.006,-0.906 3.424,-1.572 1.052,-1.493 0.906,-4.218 0.822,-5.034 z m -53.698,-1.287 c 1.21,-1.343 3.86,-5.98 4.676,-8.41 2.514,-7.24 5.156,-15.565 5.887,-23.26 0.08,-0.972 0.13,-2.45 0.18,-2.576 -0.198,-0.213 -1.444,-0.1 -1.863,0.11 -0.2,0.26 -0.066,0.838 -0.138,1.59 -1.125,8.65 -3.2,16.533 -6.28,24.556 -1.348,3.486 -2.6,5.78 -4.22,8.204 -0.285,0.423 -0.645,0.86 -0.787,1.105 -0.41,0.59 -0.108,0.975 0.367,0.726 0.844,-0.476 1.572,-1.39 2.178,-2.045 z m -4.12,2.105 c 3.855,-5.28 6.595,-11.62 8.725,-19.105 1.346,-4.843 2.53,-9.744 3.24,-14.74 0.147,-1.065 0.265,-1.778 0.056,-2.097 -0.52,-0.14 -1.493,-0.052 -1.83,0.207 -0.206,0.31 -0.068,0.932 -0.26,2.37 -0.492,3.716 -1.23,7.448 -2.477,12.334 -3.29,10.814 -6.314,16.868 -10.286,22.165 -0.32,0.446 -0.607,0.735 -0.578,0.924 0.042,0.277 0.428,0.254 1.06,-0.14 0.824,-0.644 1.767,-1.208 2.35,-1.917 z m -5.874,2.807 c 1.886,-1.066 5.207,-5.703 7.553,-10.698 2.633,-5.896 4.837,-12.556 6.28,-18.324 0.625,-2.527 1.515,-8.84 1.388,-9.255 -0.15,-0.494 -1.995,-0.083 -1.74,0.258 0,0 -1.83,10.148 -3.8,15.74 -3.658,10.384 -6.822,17.43 -10.226,20.816 l -1.325,1.312 c 0,0 0.018,0.388 0.302,0.447 0.678,0.125 1.13,-0.07 1.568,-0.295 z m -2.886,-0.414 c 4.255,-2.372 9.24,-13.45 13.308,-27.357 0.696,-2.38 1.968,-10.348 1.968,-10.348 0,0 -1.695,0.063 -2.022,0.418 -0.33,0.482 -0.277,1.707 -0.752,4.62 -1.83,8.796 -4.59,16.82 -8.737,24.752 -1.794,3.514 -4.774,6.824 -6.656,7.767 -1.05,0.526 -1.36,1.106 -0.59,1.148 1.3,0.047 1.414,0.317 2.357,-0.187 z m 58.314,123.88 c -3.19,-0.01 -5.902,3.042 -8.317,6.88 -5.138,7.86 -8.59,20.996 -9.432,27.976 l 1.938,-0.364 c -0.29,0.133 3.624,-18.582 9.586,-26.595 3.224,-5.056 3.088,-5.132 4.898,-5.596 2.288,-0.587 4.123,1.882 2.988,3.37 -0.41,0.502 -0.862,0.132 -0.735,-0.585 0.406,-2.29 -2.943,-2.73 -3.88,-0.48 -1.075,2.586 1.787,4.893 4.583,3.876 2.498,-0.88 3.545,-4.362 1.79,-6.935 -0.9,-0.87 -2.205,-1.642 -3.42,-1.546 z m -16.8,-0.32 c -3.82,4.785 -5.714,9.702 -8.06,16.416 -2.345,6.707 -4.03,13.268 -4.76,20.796 l 2.062,-0.265 c -0.075,-4.84 5.244,-27.883 12.718,-36.515 0.418,-0.547 0.753,-1 0.722,-1.128 -0.415,-1.165 -2.187,0.238 -2.682,0.696 z m 8.443,-1.786 c -4.954,4.046 -8.91,12.886 -11.52,21.058 -2.82,8.833 -4.085,16.927 -3.873,16.927 l 1.968,-0.288 c -0.147,-0.513 5.528,-31.637 16.06,-37.304 0.913,-0.454 1.104,-0.912 0.334,-1.11 -1.186,-0.166 -2.14,0.222 -2.97,0.717 z m 5.544,0.02 c -10.815,1.42 -17.882,34.506 -18.118,37.253 0,0.042 -0.04,0.256 -0.04,0.256 l 2.154,-0.444 0.028,-0.158 c 1.483,-8.454 2.927,-14.38 6.298,-22.02 2.627,-5.664 6.252,-12.904 11.668,-13.606 0.44,-0.057 0.857,0.12 0.703,-0.392 -0.33,-0.81 -1.95,-0.914 -2.693,-0.89 z m -64.453,-10.418 c -3.907,1.002 -4.035,5.675 -1.43,11.646 0.195,0.45 0.16,0.698 0.36,0.87 0.444,0.39 0.793,-0.152 0.843,-0.51 0.075,-0.542 -0.157,-1.272 -0.57,-2.333 -1.61,-4.133 -1.225,-6.515 0.37,-7.568 4.09,-2.1 5.19,2.213 5.807,4.198 0.15,0.484 0.203,1.15 0.47,1.185 0.816,0.112 1.205,-0.177 1.192,-0.177 0,0 -1.083,-3.716 -1.743,-5.112 -1.07,-2.258 -3.61,-2.73 -5.3,-2.198 z m -28.356,4.41 -0.04,49.256 -7.483,7.013 c -3.21,-2.746 -7.43,-7.047 -7.43,-7.047 l 0.134,-83.267 -2.407,-0.193 c -0.59,35.775 -0.17,72.084 -0.198,107.93 l 22.123,0.162 18.31,-28.54 c 0,0 0.233,-0.34 0.306,-0.52 0.223,-0.552 0.197,-1.373 0.087,-4.408 -0.045,-1.233 0.094,-2.18 -0.088,-2.47 -0.186,-0.293 -0.576,-0.083 -0.94,0.08 -0.372,0.166 -0.593,0.107 -0.393,-0.33 0.113,-0.247 0.48,-0.79 0.796,-1.31 1.028,-1.684 1.28,-2.223 0.932,-4.09 -0.085,-0.46 -0.507,-0.848 -0.874,-1.39 -3.08,-4.54 -4.336,-11.27 -2.806,-16.2 0.488,-2.18 0.312,-2.62 -0.74,-4.32 z m 96.848,-52.96 c -2.01,-1.03 -1.972,-1.008 -1.984,0.944 0.01,1.46 0.038,1.812 0.587,1.615 0.793,-0.4 1.763,-0.77 2.495,-1.08 1.397,-0.48 -0.378,-1.094 -1.098,-1.478 z m 7.964,5.073 c -1.56,-1.244 -0.985,-1.1 -1.427,1.705 -0.268,1.694 -0.612,1.738 1.144,1.177 0.996,-0.344 3.045,-0.127 2.126,-1.295 0.01,0.02 -1.538,-1.327 -1.844,-1.587 z m -62.727,43.064 c -2.396,1.446 -4.842,8.457 -4.842,8.457 -8.37,0.996 -11.872,9.215 -12.246,16.068 -0.296,5.41 -0.663,11.727 -0.116,12.28 5.487,-2.463 7.6,0.38 8.12,-0.386 0.238,-0.336 -1.216,-1.446 -3.043,-2.44 -0.424,-0.232 -1.08,-0.648 -1.33,-0.854 -0.667,-0.552 1.33,-0.078 2.59,0.78 1.61,1.094 1.88,0.866 1.183,-2.33 -0.76,-3.476 -0.884,-3.902 1.79,-5.28 1.07,-0.55 1.68,-1.018 2.445,-1.876 0.614,-0.686 0.77,-0.853 0.545,0.155 -0.39,1.747 -1.947,2.51 -3.348,3.218 -0.697,0.357 -0.985,1.075 -0.99,1.692 0,0.628 0.72,4.025 1.055,5.11 0.31,1.03 0.425,2.064 0.664,3.115 0.63,2.728 0.67,3.263 0.35,5.242 -0.185,1.16 -0.28,1.823 -0.215,2.525 0.06,0.637 0.15,1.504 0.15,1.504 0,-0.03 -1.495,-1.532 -4.772,-0.243 -2.363,0.93 -4.23,-0.04 -5.553,-0.727 -0.305,1.074 -0.236,2.24 -0.2,3.474 13.625,2.488 25.26,2.154 35.058,1.13 0.254,-2.894 1.49,-12.094 4.083,-20.39 1.08,-3.452 2.3,-7.092 3.677,-9.52 0.94,-1.656 1.896,-2.772 2.235,-2.965 0.105,-0.064 0.115,-0.098 0.113,-0.143 0,-0.092 0,-0.17 0,-0.26 -0.035,-0.537 -0.165,-1.37 -0.628,-1.74 -1.13,-0.9 -2.934,0.26 -3.527,2.27 -0.52,1.203 -2.89,6.41 -3.06,6.323 -0.14,-0.088 -0.47,-0.095 -0.35,-0.497 0.908,-2.11 2.155,-4.342 2.857,-6.236 0.97,-2.728 3.08,-4.168 4.657,-2.448 0.54,0.59 0.757,1.132 1.005,1.32 0.187,0.14 0.44,0.044 0.593,-0.19 0.595,-0.894 -0.783,-2.925 -2.262,-3.333 -2.134,-0.59 -3.724,0.966 -6.144,6.01 -1.4,2.91 -1.65,3.642 -1.87,3.418 -0.05,0.02 -0.42,0.02 -0.286,-0.545 0.29,-1.212 2.143,-4.735 3.486,-6.97 1.988,-3.307 5.68,-3.576 7.232,-0.705 0.237,0.392 0.25,0.903 0.512,1.252 0.477,0.616 1.26,0.494 1.455,-0.517 -0.213,-0.67 -1.51,-3.085 -2.412,-3.506 -2.076,-1.426 -4.595,-1.146 -6.715,0.745 -0.48,0.428 -0.983,1.3 -2.39,4.152 -2.07,4.574 -2.126,4.59 -2.692,3.854 0.834,-2.224 3.026,-5.84 3.91,-8.058 0.17,-0.33 0.203,-0.686 0.19,-1.027 -0.052,-1.612 0.212,-4.463 -3.202,-6.488 -2.91,-1.567 -6.754,0.082 -8.063,3.167 -1.002,2.362 -1.735,3.985 -2.24,4.32 -0.71,0.47 -0.577,-0.185 -0.507,-0.423 1.01,-2.138 2.428,-4.3 2.653,-6.45 0.148,-5.824 -5.76,-7.977 -9.6,-5.038 z m -30.498,-109.12 c 4.61,-2.142 7.766,-3.22 12.463,-4.603 0.635,-0.278 0.736,-0.342 0.062,-1.675 -2.976,-5.888 5.19,-10.582 7.965,-4.802 0.37,0.77 0.456,1.197 0.82,0.828 0.683,-0.894 1.494,-2.164 2.337,-3.613 3.123,-4.838 4.537,-10.357 6.202,-15.227 0.69,-2.862 1.656,-5.853 1.93,-8.922 -6.2,-10.782 -10.515,-21.157 -17.094,-30.757 l -43.382,-0.032 -0.163,86.677 c 12.13,-10.116 20.388,-13.775 28.86,-17.875 z m 48.833,-3.185 c 0.526,-0.555 0.982,-1.477 2.868,-5.346 0.337,-0.69 0.875,-1.762 1.094,-2.26 0.283,-0.91 1.343,-1.48 0.826,0.15 -0.117,0.352 -0.32,0.827 -0.64,1.458 -0.627,1.128 -1.223,2.51 -1.67,3.41 -2.412,4.833 -2.297,7.65 0.398,9.746 2.014,1.924 6.243,2.14 8.493,-0.965 0.337,-0.502 0.637,-1.146 0.735,-1.382 0.978,-2.372 1.7,-3.558 1.884,-3.793 1,-1.27 1.162,0.304 -0.334,2.726 -1.714,2.777 -1.743,5.785 -0.262,7.902 2.196,3.137 6.366,3.226 8.984,0.71 1.36,-1.595 2.442,-3.623 3.313,-6.215 0.193,-0.575 0.392,-1.002 0.534,-1.34 0.218,-0.518 0.532,-0.71 1.344,-0.867 5.573,-1.066 10.25,-6.783 10.913,-13.024 0.088,-0.844 0.328,-2.338 0.415,-3.224 0.175,-1.77 0.18,-10.93 0.01,-11.477 -0.094,-0.295 -0.26,-0.45 -0.623,-0.447 -0.28,0 -0.673,0.1 -1.24,0.303 -1.836,0.656 -2.69,0.822 -4.456,0.192 -0.583,-0.21 -0.986,-0.28 -1.225,-0.26 -0.78,0.068 0.255,1.184 2.525,2.418 0.972,0.528 1.74,1.24 0.953,1.187 -0.23,-0.015 -2.97,-1.43 -3.347,-1.66 -1.247,-0.766 -0.92,0.197 -0.28,2.73 0.865,3.402 0.367,4.358 -2.32,5.69 -0.502,0.25 -1.167,0.768 -1.505,1.102 -1.425,2.103 -1.057,0.553 -0.34,-0.568 1.227,-1.283 0.475,-1.72 -2.038,-0.83 -2.867,1.013 -4.163,0.273 -4.965,-1.32 -0.907,-1.802 0.8,-4.118 2.222,-4.073 0.46,0.014 0.378,0.18 -0.3,0.643 -0.82,0.56 -1.21,1.1 -1.295,2.054 -0.175,1.948 1.22,2.775 3.168,1.47 0.92,-0.618 1.644,-1.044 2.34,-1.202 0.692,-0.157 1.73,0.1 1.725,0.65 0,0.23 -0.032,0.787 0.017,0.91 0.182,0.617 1.17,-0.256 1.6,-0.566 1.466,-1.097 1.418,-1.313 1.018,-3.09 -0.656,-2.49 -0.986,-4.766 -1.61,-7.29 -0.335,-1.32 -0.39,-2.814 -0.188,-4.16 0.102,-0.676 0.365,-2.064 0.418,-3.014 0.053,-0.95 -0.01,-2.308 0.03,-2.307 1.456,1.113 2.05,1.308 3.47,0.768 2.2,-0.9 3.59,-0.807 5.444,0.08 0.686,0.327 1.31,0.558 1.31,0.558 l 0.085,-2.857 c 0,0 -1.715,-0.354 -4.887,-0.77 -9.547,-1.254 -29.138,-1.52 -29.867,-0.367 -0.186,0.293 -0.37,2.334 -0.89,5.172 -1.156,5.896 -2.45,11.772 -4.184,17.526 -0.356,1.173 -0.695,1.645 -0.514,1.68 0.075,0.015 0.43,-0.44 0.594,-0.63 0.928,-1.07 0.217,1.473 -1.185,4.537 -0.127,0.277 -0.23,0.58 -0.23,0.674 0,0.186 -0.883,2.32 -1.49,3.612 -0.378,0.803 -0.69,1.044 -0.688,0.53 0.426,-1.764 1.552,-4.047 1.715,-5.62 -0.987,1.424 -2.424,3.776 -3.51,5.18 -0.202,0.377 0.01,0.493 0.186,0.96 0.653,1.745 2.236,1.9 3.15,0.322 0.51,-0.88 2.095,-4.2 2.646,-5.65 0.567,-1.495 0.966,-2.283 1.155,-2.38 0.378,-0.196 0.45,0.653 -0.222,2.066 -2.04,4.288 -2.914,6.69 -3.913,7.577 -0.775,0.688 -2.116,0.644 -2.86,-0.58 -1.265,-2.076 -2.343,-1.388 -1.184,0.74 1.2,2.2 3.935,2.404 5.364,0.424 0.472,-0.653 2.692,-4.888 3.39,-6.61 0.39,-0.962 0.805,-1.71 0.944,-1.764 0.746,-0.286 -0.105,1.91 -2.246,6.304 -0.693,1.697 -1.807,3.478 -3.315,4.03 -3.664,0.8 -4.16,-1.136 -5.434,-3.343 -0.62,-0.548 -1.18,0.33 -0.944,1.3 0.384,1.574 1.103,2.19 2.213,2.98 2.32,1.475 5.544,0.46 6.712,-1.222 z m 16.347,9.196 c -0.333,-0.734 -0.285,-1.48 -0.115,-2.176 0.384,-1.57 1.02,-3.092 1.763,-4.417 1.203,-0.568 0.284,1.695 0.134,2.03 -1.452,3.025 -1.59,4.195 -0.235,4.544 1.16,0.3 1.784,-0.41 2.88,-3.12 0.564,-1.392 0.79,-2.008 0.988,-2.09 0.423,-0.168 0.626,0 0.6,0.427 -0.725,1.78 -1.292,3.652 -2.484,5.13 -1.166,0.975 -2.922,0.98 -3.532,-0.326 z m -10.885,-2.322 c -0.505,-0.1 -1.37,-0.75 -1.972,-1.3 -2.05,-1.877 -1.712,-4.47 0.83,-9.347 0.198,-0.378 0.937,-1.852 1.175,-2.336 0.426,-0.867 0.844,-0.528 0.84,0.046 0,0.16 -0.635,1.508 -1.277,2.758 -2.807,5.484 -2.71,7.72 0.017,9.026 2.663,1.274 3.856,0.54 5.98,-3.646 1.228,-3.143 1.833,-3.195 1.766,-2 0,0.445 -1.49,3.46 -2.45,4.86 -1.39,2.03 -2.594,2.39 -4.91,1.94 z m 0.202,-2.647 c -1.046,-0.645 -1.473,-2.253 -0.855,-3.57 0.562,-1.085 2.002,-5.245 2.678,-5.48 1.088,-0.037 0.508,0.874 -0.84,3.432 -1.595,3.39 -1.537,4.296 -0.307,4.815 1.14,0.48 1.68,-0.504 3.36,-4.47 0.263,-0.62 0.632,-1.268 0.848,-1.132 0.267,-0.02 0.73,0.18 -0.153,1.977 -0.208,0.43 -0.564,1.33 -0.957,2.17 -1.148,2.452 -2.45,3.077 -3.774,2.26 z m 18.87,-7.193 c -0.46,-0.236 -2.616,-1.083 -2.297,-1.784 0.04,-0.066 0.165,-0.014 0.23,0.028 1.973,1.322 4.428,1.658 6.99,-0.176 0.43,-0.38 0.752,-0.123 0.51,0.354 -0.774,1.536 -4.226,2.193 -5.433,1.58 z m -6.342,-2.228 c 0.06,-0.15 0.237,-0.588 0.395,-1.178 0.237,-0.888 0.18,-1.54 0.39,-1.428 0.896,0.483 2.495,0.494 3.278,0.017 0.86,-0.522 2.6,-0.682 3.235,-0.27 0.907,0.59 1.368,0.315 2.004,-0.18 0.716,-0.558 0.73,-0.32 2.024,0.13 0.957,0.33 1.333,0.558 1.74,0.485 0.155,-0.03 0.47,-0.383 0.572,-0.365 0.31,0.056 0.346,0.938 0.633,1.944 0.252,0.89 0.108,1.105 -0.69,0.572 -0.595,-0.397 -2.304,-0.584 -4.08,-0.04 -1.316,0.403 -1.62,0.24 -2.585,0.078 -2.406,-0.407 -4.143,-0.72 -5.937,0.317 -0.958,0.555 -1.305,0.843 -0.98,-0.08 z m -5.986,-4.4 c -1.167,-2.336 1.516,-5.43 3.874,-4.338 0.78,0.363 1.477,1.735 0.32,1.105 -5.363,-1.08 -4.023,6.762 1.736,2.62 3.827,-2.538 6.535,-2.93 6.76,-0.476 -0.107,0.903 -0.91,0.76 -1.517,0.842 -1.586,0.22 -2.173,0.478 -4.01,1.265 -2.797,0.88 -5.53,1.6 -7.163,-1.017 z m 20.982,1.08 c -1.308,-0.336 -2.445,-0.852 -3.81,-1.1 -1.35,-0.234 -1.96,-0.938 -1.716,-1.886 0.254,-0.985 1.607,-1.09 3.64,0.15 2.255,1.375 3.89,1.708 4.714,1.19 1.67,-1.048 0.77,-2.755 -0.823,-3.19 -1.196,-0.333 -0.317,-0.797 0.968,-0.415 2.073,0.784 2.117,4.525 -0.015,5.302 -0.713,0.26 -1.97,0.19 -2.96,-0.052 z m -18.265,-12.384 c 1.522,-0.94 2.993,-1.78 3.516,-2.34 0.275,-0.294 1.04,-1.282 0.446,-0.98 -3.105,1.862 -6.71,0.315 -9.32,-0.96 -1.255,-0.585 -0.947,-0.326 -1.91,-0.262 -0.653,0.044 -1.178,0.18 -1.294,-0.286 -0.052,-0.205 -0.417,-0.12 -0.65,-0.142 -0.966,-0.096 -0.356,-1.37 1.67,-2.777 2.39,-1.66 4.477,-2.742 6.547,-3.188 2.15,-0.464 4.344,-0.202 5.952,1.345 0.618,0.594 0.564,0.99 1.128,0.625 1.29,-0.833 1.3,0.272 0.213,1.295 -0.746,0.702 -0.473,0.893 0.44,1.56 0.436,0.32 0.078,0.624 -0.165,1.09 -0.092,0.283 -0.02,0.594 -0.064,0.81 -0.204,0.998 -4.757,4.527 -6.405,5.13 -1.133,0.21 -0.54,-0.643 -0.106,-0.92 z m 3.16,-6.483 -0.755,0.01 c -0.86,2.623 -2.45,3.517 -3.77,0.372 l -0.603,0.06 c -0.027,2.664 4.563,4.337 5.13,-0.442 z m -4.97,2.46 c -0.312,-0.523 -0.662,-1.722 -0.988,-1.74 -0.888,-0.036 -2.114,0.123 -1.824,0.672 0.46,0.87 3.174,1.673 2.812,1.067 z m 6.083,-0.468 c 0.818,-0.492 0.992,-0.83 0.458,-1.372 -0.688,-0.698 -1.048,-0.342 -1.264,0.773 -0.186,0.958 -0.052,1.115 0.807,0.6 z m -11.092,-1.845 c 5.48,-2.476 7.56,-2.796 9.786,-2.183 0.515,0.142 0.972,0.43 1.26,0.413 1.067,-0.064 0.387,-1.256 -1.527,-1.94 -2.187,-0.78 -3.573,-0.425 -7.774,1.762 -2.46,1.28 -4.46,3.174 -1.745,1.948 z m 15.884,-3.005 c -0.078,-0.148 -0.41,-1.133 -0.504,-1.493 -0.094,-0.36 -0.18,-0.73 -0.282,-0.732 -2.543,0.406 -4.778,-0.07 -5.38,-0.212 -3.845,-0.916 -7.56,-0.73 -10.334,0.354 -0.678,0.265 -1.518,0.694 -1.6,0.77 -0.218,0.204 -0.542,-0.03 -0.54,-0.284 0,-0.3 1.704,-1.645 2.777,-2.176 3.265,-1.614 6.71,-1.89 10.49,-0.874 2.465,0.943 4.053,0.79 5.628,0.102 0.774,-0.338 0.225,0.498 -0.02,1.607 -0.17,0.768 0.017,1.426 0.05,1.86 0.096,1.05 -0.024,1.574 -0.284,1.078 z m 57.288,221.437 0,-86.85 c -14.418,10.618 -41.688,21.695 -41.688,21.695 3.434,6.986 -4.13,12.964 -8.47,5.87 -4.465,5.006 -10.616,22.537 -10.834,28.358 0,0 11.877,20.706 17.673,30.927 z m -79.415,-28.598 c 0.396,-4.36 1.33,-11.753 4.24,-20.356 1.22,-3.61 2.69,-7.75 4.77,-11.457 0.83,-1.295 0.887,-1.796 0,-1.33 -0.557,0.293 -3.1,3.154 -3.445,3.877 -3.898,8.212 -5.702,18.078 -7.13,25.61 -0.322,1.694 -0.418,3.8 -0.418,3.8 z m 2.852,-0.358 c 0.927,-10.593 4.83,-24.895 10.696,-34.216 0.55,-0.89 1.23,-1.66 1.205,-1.967 -0.076,-0.906 -2.334,0.66 -4.086,3.334 -1.956,3.873 -3.916,8.004 -5.416,12.577 -2.116,6.456 -3.66,12.42 -4.263,20.515 z m 5.636,-0.885 c 0.588,-6.103 2.485,-11.703 4.076,-17.313 1.946,-6.86 4.543,-11.91 7.57,-16.455 0.97,-1.458 2.115,-2.823 3.204,-4.213 0.14,-0.168 0.278,-0.47 0.246,-0.595 -0.7,-0.122 -1.255,0.095 -1.795,0.397 -0.755,0.422 -1.817,1.487 -2.437,2.276 -4.31,5.488 -6.63,11.895 -8.782,18.37 -2.067,6.215 -3.556,12.194 -3.847,17.823 z m -38.714,-4.678 c 0.867,-0.067 1.425,0.096 1.677,-0.134 0.248,-0.23 0.167,-0.843 0.246,-1.63 0.168,-1.68 -0.01,-1.587 -1.058,-0.5 -1.74,1.796 -4.917,2.488 -6.807,1.402 -0.952,-0.548 -1.615,-0.928 -1.705,-0.472 -0.105,0.532 0.04,0.938 0.448,1.222 2.29,1.042 4.462,0.326 7.2,0.112 z m -2.046,-1.286 c 1.205,-0.4 2.43,-1.042 3.12,-2.023 0.658,-0.936 0.647,-1.07 0.15,-0.892 -2.452,1.203 -4.06,1.815 -6.25,1.483 -2.967,-0.45 -3.09,-0.073 -1.13,1.152 1.283,0.802 2.347,0.825 4.11,0.28 z m -4.354,-3.754 c 0.46,-0.338 0.577,-1.715 0.207,-1.793 -0.376,-0.08 -0.92,0.603 -1.055,1.16 -0.15,0.738 0.398,0.927 0.847,0.632 z m 4.59,-0.06 0.79,-0.07 c -0.404,-3.454 -4.16,-3.603 -4.853,0.345 l 0.594,0.09 c 0.776,-3.15 3.047,-3.062 3.47,-0.364 z m 2.477,-0.556 c 1.15,-0.64 0.75,-1.43 -0.8,-1.734 -1.016,-0.24 -0.96,0.592 -0.432,1.718 0.262,0.56 0.445,0.454 1.23,0.016 z m -8.846,-4.232 c -0.01,-0.384 -0.168,-1.005 -0.35,-1.38 -1.325,-2.706 -2.056,-5.905 -1.906,-9.88 0.108,-2.85 0.144,-3.73 -0.45,-3.734 -0.83,0.398 -1.318,5.7 -0.263,10.114 0.744,3.115 3.024,6.98 2.97,4.88 z m -0.032,-4.315 c -0.08,-1.49 0.247,-4.826 0.084,-5.553 -0.215,-0.957 -0.783,-1.82 -1.104,-2.05 -0.497,-0.36 -0.62,0.326 -0.45,2.115 0.405,4.196 1.08,7.373 1.47,5.487 z m 0.42,-7.64 c 0.326,-0.587 0.198,-1.21 -0.523,-2.615 -2.84,-5.527 -3.208,-9.305 -0.243,-10.677 0.333,-0.154 0.542,-0.183 0.763,-0.305 0.935,-0.518 0.58,-1.457 -0.82,-1.07 -3.863,1.072 -4.625,4.68 -1.368,11.36 1.66,3.332 1.916,3.798 2.19,3.308 z m 0.702,-3.133 c 0.05,-0.232 0.15,-1.135 0.19,-1.32 0.038,-0.185 -0.35,-0.717 -0.77,-1.783 -1.092,-2.783 -1.115,-3.938 0.074,-4.745 0.385,-0.226 0.782,-0.237 0.842,-0.497 0.093,-0.404 0.086,-1.067 -0.157,-1.26 -1.704,0.012 -2.49,1.004 -2.79,1.947 -0.45,1.492 0.02,3.678 1.358,6.386 0.65,0.845 0.988,2.39 1.254,1.27 z m 1.303,-3.6 c 0.91,-1.837 0.047,-4.215 -1.208,-3.404 -0.814,0.526 -0.856,1.083 -0.356,2.61 0.608,1.862 0.967,1.992 1.563,0.793 z m 3.196,-4.912 c 0.364,-0.36 0.04,-0.877 -0.634,-2.905 -0.578,-1.737 -0.314,-2.924 0.786,-3.266 1.578,-0.388 2.136,2.185 2.468,3.27 0.17,0.84 0.723,1.07 1.213,0.487 0.137,-0.162 0.177,-0.297 -0.057,-1.212 -1.018,-3.99 -2.35,-5.26 -4.494,-4.266 -1.988,0.922 -1.727,2.983 -0.286,7.318 0.193,0.58 0.32,1.01 0.46,1.07 0.114,0.05 0.34,-0.295 0.543,-0.495 z m 1.76,-1.355 c 0.472,-0.465 0.444,-0.255 -0.095,-1.92 -0.615,-1.9 -0.94,-2.295 -1.6,-1.642 -0.405,0.4 -0.2,0.842 0.263,2.395 0.54,1.805 0.683,1.908 1.434,1.167 z m 82.418,-6.5 c 3.138,-2.16 1.845,-6.033 -2.285,-7.47 -0.488,-0.17 -1.024,-0.374 -1.193,-0.455 -1.897,-0.91 -3.373,-1.192 -3.378,-0.48 0,0.418 0.567,0.63 2.387,1.513 2.69,1.308 3.3,2.82 1.97,4.723 -0.956,1.374 0.837,2.946 2.5,2.17 z m 2.848,-4.715 c 0.272,-1.108 0.677,-2.058 0.87,-2.703 0.267,-1.01 -0.076,-0.776 -0.747,-0.618 -1.728,0.894 -2.966,0.408 -2.125,1.64 0.932,1.636 1.703,2.9 2.003,1.68 z m -0.215,-3.872 c 2.155,-1.287 2.633,-4.64 0.627,-6.24 -0.48,-0.38 -1.31,-0.885 -2.314,-1.19 -2.04,-0.622 -4.987,-0.904 -6.067,-0.577 -0.233,0.272 -0.242,0.7 -0.01,0.826 0.3,0.11 0.844,0.185 1.63,0.264 2.998,0.304 4.478,1.195 4.334,3.317 -0.148,2.188 -1.902,3.028 -5.068,2.337 -1.702,-0.372 -2.495,-0.192 -1.812,0.205 0.812,0.472 2.56,1.092 4.28,1.43 1.472,0.257 3.15,0.356 4.4,-0.372 z m -10.344,-0.552 c 2.425,-5.428 3.702,-19.67 -10.16,-29.962 l 0.46,2.848 c 8.166,7.136 10.128,16.224 8.436,24.56 z m 12.374,-9.732 c -0.867,0.56 -1.593,1.143 -2.707,1.64 -0.667,0.297 -0.684,0.37 0.222,0.862 0.438,0.24 1.16,0.677 1.436,0.975 0.48,0.516 1.045,0.713 1.257,0.526 -0.023,-0.807 0.255,-3.48 -0.21,-4.002 z m -4.102,1.03 c 2.808,-0.886 4.31,-2.233 3.99,-4.486 -0.47,-3.305 -3.242,-4.004 -8.436,-2.712 -2.498,0.62 -2.72,1.79 -0.35,1.188 2.994,-0.762 5.345,0.39 5.027,2.574 -0.186,1.885 -1.706,2.983 -4.376,2.984 -1.41,0 -1.845,0.125 -1.654,0.632 0.13,0.343 4.642,0.183 5.8,-0.18 z m -4.636,-7.854 c 4.59,-1.568 6.724,-4.006 5.676,-6.737 -1.235,-3.216 -5.24,-3.248 -9.265,-0.255 -1.88,1.372 -1.592,1.88 0.23,1.182 2.36,-1.082 3.88,-1.25 4.847,-0.39 1.747,1.554 0.57,4.263 -2.08,5.234 -1.283,0.532 -1.695,0.825 -1.697,1.21 0,0.606 0.23,0.46 2.29,-0.244 z m 7.743,-0.05 c 0.117,-0.952 -0.962,-4.253 -1.428,-3.493 -0.123,0.202 -0.552,1.134 -1.094,1.618 -1.578,1.41 -1.28,0.876 0.288,1.308 0.872,0.24 2.103,0.85 2.233,0.568 z m -12.14,-7.054 c 4.64,-2.68 6.41,-6.507 4.006,-9.05 -2.162,-2.286 -5.745,-0.955 -9.073,3.2 -1.526,1.907 -0.38,1.668 1.678,-0.145 2.397,-2.11 5.445,-1.092 5.428,1.543 -0.01,1.126 -1.604,3.02 -3.115,3.9 -0.47,0.272 -0.538,0.69 -0.372,0.964 0.18,0.294 0.556,0.104 1.45,-0.412 z m 8.133,-2.797 c -0.242,-0.72 -1.988,-3.813 -2.363,-3.707 -0.396,0.793 -0.425,1.837 -0.9,2.677 -0.646,1.265 -0.564,1.066 1.496,1.06 1.534,0 1.72,0.21 1.767,-0.03 z m -13.637,-3.496 c 3.898,-4.033 4.242,-8.755 0.59,-9.842 -2.024,-0.6 -5.258,0.856 -5.268,2.362 -0.01,0.937 0.17,1.108 0.99,0.77 3.445,-1.276 6.175,2.025 3.01,5.82 -0.77,1.1 -0.872,1.375 -0.648,1.602 0.263,0.265 0.476,0.166 1.326,-0.713 z m 41.988,-34.484 0,-106.886 -22.814,0 -18.12,28.217 -0.028,6.984 c 0,0.242 0.412,0.39 0.678,0.088 1.03,-0.794 0.633,0.04 -0.552,1.837 -1.197,1.817 -0.83,3.314 0.48,5.254 2.774,4.112 4.22,11.66 3.04,15.65 -0.446,1.507 -0.545,2.115 -0.254,2.958 0.332,0.964 0.537,1.48 1.5,2.1 0.838,0.582 7.73,3.26 18.83,10.377 l -0.053,-50.216 6.996,-6.684 7.39,7.048 0.258,82.905 c 0,0.877 1.72,1.276 2.65,0.368 z m -4.002,-83.036 -6.187,-5.745 -6.117,5.66 c -0.032,27.004 0.155,82.428 0.155,82.428 l 6.08,0.436 c 0,0 0.445,-1.265 -0.124,-4.533 -0.855,-4.905 -0.802,-10.895 0.57,-20.006 0.856,-5.59 0.01,-10.436 -1.29,-15.54 -1.126,-3.4 -1.166,-6.548 -0.962,-9.59 0.433,-4.85 1.772,-8.514 1.936,-15.493 0.093,-3.98 -0.097,-7.874 0.05,-12.782 0.06,-0.657 0.337,-0.576 0.387,0.102 0.187,4.442 0.36,8.66 0.4,12.998 -0.133,5.64 -1.517,11.445 -1.67,16.608 -0.113,3.577 -0.17,4.814 1.344,9.17 2.38,6.843 0.814,17.357 0.786,17.544 -1.01,6.736 -1.744,15.353 1.663,21.8 l 3.3,0.293 z m -42.568,50.943 c 1.826,-0.836 2.187,-2.313 1.204,-5.87 -0.175,-0.634 -0.375,-1.388 -0.444,-1.675 -0.21,-0.878 -0.606,-0.974 -1.134,-0.276 -0.316,0.416 -0.025,0.513 0.46,2.468 0.732,2.955 0.307,3.933 -0.795,3.926 -0.977,-0.01 -1.738,-0.81 -2.017,-2.727 -0.095,-0.654 -0.235,-1.1 -0.393,-1.363 -0.266,-0.44 -0.586,-0.36 -0.843,0.125 -0.334,0.627 0.293,3.213 1.126,4.466 0.904,1.264 1.526,1.524 2.836,0.924 z m -0.497,-2.654 c 0.39,-0.728 -0.093,-2.52 -0.344,-3.692 -0.232,-0.655 -0.496,-0.814 -0.93,-0.708 -0.647,0.158 -0.615,0.863 -0.38,2.025 0.476,2.367 0.734,2.666 1.654,2.376 z m 5.55,-4.268 c 2.088,-1.187 2.288,-3.235 0.884,-6.958 -0.574,-1.527 -1.29,-2.602 -1.685,-2.613 -0.155,0.97 -0.3,1.488 -0.125,1.87 0.163,0.353 0.437,0.895 0.633,1.348 1.188,2.747 0.868,4.33 -0.28,5.188 -1.07,0.8 -0.393,1.475 0.574,1.165 z m -68.36,-1.432 c 4.9,-1.045 9.318,-8.893 12.1,-15.892 2.535,-7.052 5.23,-14.8 5.657,-21.26 0,0 -1.853,0.085 -2.08,0.466 -0.21,0.376 -0.302,1.187 -0.5,2.34 -1.276,5.945 -2.29,10.46 -4.52,16.046 -1.546,3.878 -3.234,8.267 -7.422,14.164 -1.377,1.648 -2.95,2.67 -4.93,2.944 -0.503,0.07 -1.35,-0.024 -1.564,0.126 -0.375,0.264 -0.037,0.863 0.93,1.105 0.87,0.216 1.75,0.075 2.33,-0.04 z m 67.5,-0.918 c 0.747,-0.792 0.82,-1.733 -0.018,-3.723 -0.236,-0.558 -0.343,-0.874 -0.622,-0.796 -0.59,0.163 -1.28,1.71 -0.873,3.02 0.532,1.71 0.842,2.208 1.51,1.498 z m -69.21,-1.246 c 1.436,-0.19 3.254,-1.328 4.567,-3.11 2.7,-3.52 4.562,-7.526 5.943,-10.64 1.106,-2.508 3.104,-7.923 3.646,-9.884 1.152,-4.165 1.783,-6.853 2.308,-9.835 0.05,-0.274 0.095,-0.712 0.014,-0.854 -0.57,-0.156 -1.815,-0.063 -2.197,0.32 -0.688,4.78 -2.287,9.58 -3.456,13.567 -1.97,6.785 -7.588,17.637 -10.65,18.15 -1.65,0.274 -3.536,-1.153 -3.232,-2.618 0.186,-0.9 0.31,-1.242 0.752,-1.468 1.068,-0.374 1.69,0.35 0.518,0.823 -1.358,1.176 1.085,2.974 2.585,1.718 2.544,-2.13 -1.193,-6.21 -4.25,-4.334 -3.39,2.076 -2.52,5.673 -0.388,7.383 1.074,0.862 2.32,0.983 3.843,0.78 z m 23.995,-4.87 c 2.093,-2.142 3.665,-4.914 4.81,-8.38 2.478,-7.784 4.532,-16.707 5.277,-23.697 0,0 -1.79,-0.184 -2.187,0.193 -0.28,0.266 -0.012,0.52 -0.773,5.627 -1.277,7.447 -3.14,14.843 -5.832,21.244 -1.104,2.588 -1.417,2.906 -2.196,4.25 -1.088,1.9 -0.685,2.382 0.9,0.76 z m 46.444,-16.227 c -0.194,-0.1 -0.177,-0.035 -0.26,0.022 -0.285,0.197 -0.1,1.19 0.55,2.726 1.706,2.745 1.905,8.074 1.794,10.076 -0.034,0.6 -0.097,0.945 0.086,1.48 0.182,0.524 0.5,1.134 1.01,0.112 0.562,-3.945 0.12,-8.075 -1.396,-11.42 -0.535,-1.19 -1.058,-2.35 -1.784,-2.997 z m 1.314,11.633 c 0.3,-1.06 -0.253,-5.27 -0.938,-6.75 -0.277,-0.596 -0.776,-0.642 -0.716,0.035 0,1.46 -0.152,4.232 0,5.054 0.747,1.715 1.327,2.806 1.65,1.66 z m -3.864,-17.005 -0.805,0 c 0.028,2.753 -2.42,3.52 -3.325,0.212 l -0.725,0.168 c 0.964,4.666 5.32,2.527 4.856,-0.38 z m -4.897,2.075 c -0.42,-1.222 -0.246,-1.668 -1.308,-1.12 -0.81,0.42 -1.297,0.868 -0.155,1.416 1.016,0.43 1.727,0.477 1.462,-0.296 z m 6.135,-0.703 c 0.336,-0.678 0.296,-1.29 -0.21,-1.293 -0.392,0 -0.5,0.31 -0.61,0.966 -0.2,1.174 0.292,1.39 0.82,0.327 z m 0.426,-4.575 c 0.31,-0.098 0.223,-0.534 0.14,-1.088 -1.328,-1.84 -4.612,-1.276 -5.79,-0.91 -1.364,0.44 -1.705,0.276 -2.632,-0.148 -0.766,-0.142 -0.874,0.044 -1.06,0.41 -0.164,0.32 -0.193,0.93 -0.247,1.994 -0.044,0.898 -0.01,1.316 0.302,1.035 1.216,-1.088 2.623,-2.448 4.677,-2.532 2.487,-0.102 4.612,1.28 4.61,1.24 z m -9.04,2.49 c 0,0.37 0.315,0.14 1.125,-0.367 2.947,-1.745 4.654,-1.498 7.177,-0.666 0.562,0.185 0.91,-0.4 0.3,-0.9 -2.996,-2.454 -6.687,-0.89 -8.602,1.933 z m 10.68,-11.306 15.987,-26.357 -89.072,-0.065 15.124,27.983 c 12.332,-2.845 32.633,-6.48 57.96,-1.56 z"
           id="path4581" />
        <path
           style="fill:#e2cf00"
           inkscape:connector-curvature="0"
           d="m 1067.615,2014.89 c 1.887,-2.807 11.23,2.192 11.724,4.173 5.528,-4.34 12.242,-4.656 17.645,0.776 5.556,-6.056 11.503,-5.642 17.69,-2.135 -0.69,-1.368 7.91,-7.41 13.14,-3.57 l 14.138,25.107 -90.58,0.29 c 5.352,-8.007 10.092,-17.572 16.242,-24.643 z m -39.565,-130.953 c -0.492,-1.36 -2.48,-15.306 2.562,-15.654 8.15,3.603 18.555,16.49 23.375,24.365 5.974,9.758 12.01,32.198 8.677,31.218 -0.48,-0.142 10.288,10.61 11.03,11.66 1.22,1.725 -18.154,33.896 -21.354,32.742 -0.968,-0.35 -7.42,-4.19 -7.42,-4.19 l 0.185,-10.733 c 0,0 10.14,-19.96 10.7,-26.628 0.213,-2.52 -6.975,-6.834 -7.304,-7.705 -0.818,-2.17 -0.72,-10.23 -4.91,-13.75 -2.31,-1.4 -4.49,-0.954 -6.832,-0.656 -9.506,-1.583 -4.58,-17.557 -8.708,-20.67 z m 158.992,7.165 0.057,3.96 c -6.26,1.36 -17.322,-3.926 -20.67,4.59 0.414,9.198 2.48,13.323 3.923,16.1 1.085,2.495 8.696,-0.35 11.377,2.165 7.69,9.44 5.876,22.01 5.944,33.336 l -3.337,1.68 c -23.06,-13.56 -40.766,-55.69 -43.22,-67.683 -0.156,-7.7 21.156,-32.445 21.156,-32.445 0.048,-0.054 7.764,4.684 7.764,4.684 0.187,0.074 -0.164,32.475 -0.162,32.325 6.094,0.313 12,0.906 17.167,1.287 z m -46.848,-29.615 c -11.83,16.917 -15.832,42.2 -15.072,59.836 1.534,26.33 20.35,49.805 19.09,52.023 -0.213,-0.154 -0.71,0.108 -0.898,-0.06 -4.334,-3.843 -7.36,-3.17 -9.577,-3.205 -4.236,-0.066 -5.407,1.194 -7.837,1.434 -6.206,0.614 -5.703,0.77 -10.967,-1.207 -6.643,-5.402 -15.54,-9.544 -22.622,-11.722 -5.675,0.51 -14.33,3.183 -17.604,1.018 22.77,-41.906 19.36,-68.733 -4.213,-112.656 1.955,0.574 2.258,2.394 3.722,2.843 4.845,1.867 11.52,1.16 15.523,-0.582 4.344,-1.95 8.446,0.906 8.39,0.81 8.555,6.024 18.906,9.91 24.294,12.595 1.592,0.82 3.604,-0.474 5.362,-0.83 3.602,-0.726 6.69,-2.263 9.377,-1.363 0.863,0.29 2.15,0.642 3.034,1.067 z m -53.156,-54.84 c -1.16,-2.15 -13.015,-24.644 -13.015,-24.644 l 88.19,0.53 -13.23,21.7 c -1.25,1.18 -7.464,4.462 -13.804,-2.972 -0.12,1.07 -9.408,7.676 -17.392,-0.28 -4.805,4.354 -9.706,6.877 -17.79,1.975 -0.18,1.367 -6.484,7.498 -12.96,3.693 z"
           id="path4583" />
        <path
           style="fill:#d40000"
           inkscape:connector-curvature="0"
           d="m 1096.687,2019.336 c -8.544,-7.99 -17.44,-0.778 -17.236,-0.32 -3.38,-3.43 -6.688,-6.24 -11.146,-4.86 0,0 0,-1.202 0.034,-1.23 13.29,2.428 33.648,3.057 57.443,-1.912 l 1.223,2.55 c -6.382,-2.265 -9.67,0.79 -12.5,4.354 -10.242,-6.378 -12.74,-0.782 -17.816,1.418 z m 19.93,-92.925 6.045,-0.117 c 1.14,17.558 15.826,44.426 16.18,44.426 -1.024,-1.42 -10.72,-0.3 -10.65,-0.122 -5.33,-14.207 -11.185,-28.4 -11.575,-44.187 z m -35.257,41.654 c 0,0 -1.945,-5.033 -3.11,-7.187 6.348,-10.824 11.554,-22.027 14.224,-34.486 l 4.323,0.04 c -1.28,17.2 -15.064,43.32 -15.437,41.634 z m 77.767,-2.303 c 9.52,-17.157 7.878,-41.888 -19.134,-55.556 0,0 0.704,-18.128 2.713,-18.17 0.453,0.14 12.226,-0.15 12.226,-0.15 3.084,-7.56 8.048,-16.703 14.983,-22.876 l 0.174,20.263 c -5.134,0.506 -8.264,2.142 -9.82,6.15 l -7.11,1.583 c 0.522,20.355 8.19,39.163 30.936,56.056 -5.435,4.664 -24.014,14.135 -23.942,13.97 z m -113.97,-12.788 0.202,-21.1 c 3.45,-0.745 6.167,0.253 9.015,-5.92 0,0 4.78,2.265 6.367,3.1 -4.467,7.984 -8.324,16.514 -15.585,23.92 z m 45.284,-37.36 0.235,-10.71 10.183,0.292 c -0.864,3.633 -1.134,7.265 0.02,10.898 z m 23.233,-0.128 c 0.696,-3.506 1.192,-7.03 -0.25,-10.75 l 11.027,0.188 -0.26,10.668 z m -20.97,-20.948 c -1.834,-21.01 -16.25,-44.792 -16.45,-44.286 1.697,0.272 4.688,1.112 6.334,0.334 1.993,0.33 3.72,0.105 3.814,-0.08 0.133,-0.734 13.4,30.507 11.63,43.984 -0.212,0.456 -4.895,0.486 -5.327,0.048 z m 25.487,0.184 c 1.556,-9.706 5.572,-27.46 15.06,-41.86 1.077,2.557 1.982,5.186 3.46,7.575 -7.15,10.394 -11.56,22.274 -14.233,34.4 z m -65.935,-5.232 c -4.34,-8.844 -22.397,-22.767 -21.473,-21.36 7.474,-6.692 15.81,-10.943 24.13,-15.236 0,0 1.48,1.402 1.256,1.755 -5.115,8.053 -7.595,25.116 -2.642,34.895 4.76,10.445 13.203,16.62 21.81,21.468 -0.665,6.53 -0.99,11.25 -2.598,17.744 0,0 -5.41,-2.84 -9.843,-4.67 -0.705,-12.333 -3.26,-23.364 -10.64,-34.596 z m 47.822,-86.663 c 6.364,3.875 12.064,3.467 17.59,-1.792 6.937,6.287 14.44,3.36 17.61,0.524 2.932,3.3 6.754,5.133 12.344,4.042 l -1.384,2.902 c 0.33,-1.542 -38.547,-4.06 -57.358,1.2 0,0 -1.1,-2.19 -0.977,-2.208 1.638,-0.1 7.087,1.917 12.177,-4.67 z"
           id="path4585" />
        <path
           inkscape:connector-curvature="0"
           d="m 1001.678,1765.348 0,2.957 2.842,-0.154 0,25.523 -3.072,0.014 0,3.034 8.525,0 0,-3.033 -2.228,0 0,-7.34 3.72,-4.837 4.882,12.177 -3.072,0 0,3.034 9.33,0 0,-3.033 -2.586,0 -6.515,-15.595 6.668,-9.94 2.088,0 0,-2.804 -8.985,0 0,2.803 2.822,0 -8.352,12.188 0,-12.187 2.228,0 0,-2.802 z m 71.05,15.958 15.716,29.244 c 0,0 0.46,-0.085 0.69,-0.13 21.782,-4.253 39.034,-4.834 57.563,-1.58 l 16.472,-27.225 c -29.98,-0.34 -90.442,-0.31 -90.442,-0.31 z m 1.752,1.245 87.39,0.097 -4.916,8.055 c -2.943,-0.908 -4.584,0.44 -4.996,3.26 0,0 -0.364,-0.158 -1.047,-0.232 -4.306,-0.465 -4.85,5.206 -0.83,5.89 1.027,0.175 1.2,-0.03 1.2,-0.03 -3.585,3.01 -5.622,0.98 -7.31,-0.013 -0.045,0.35 -3.214,2.73 -6.2,-0.115 4.277,0.427 4.943,-3.857 2.898,-5.487 -0.428,-0.42 -0.864,-0.75 -0.864,-0.75 1.007,-0.875 1.226,-2.04 0.58,-3.373 -1.297,-2.68 -5.363,-2.525 -5.985,0.403 -0.243,1.14 -0.25,1.34 -0.25,1.34 -3.284,0.214 -3.952,3.31 -2.823,5.03 0.642,0.977 2.052,1.19 3.355,1.123 -1.756,2.485 -5.775,1.64 -7.565,-0.408 -2.844,3.34 -6.086,2.933 -7.704,1.143 1.1,-0.012 1.857,-0.028 2.866,-0.96 1.724,-1.595 0.877,-4.422 -1.56,-5.213 -0.474,-0.154 -0.815,-0.185 -0.84,-0.188 0.016,-0.024 0.062,-0.18 0.167,-1.032 0.606,-4.93 -6.786,-4.443 -6.072,0.408 0.083,0.563 0.235,0.864 0.235,0.864 0,0 -0.784,-0.043 -1.233,0.164 -4.106,1.89 -1.277,7.1 1.896,5.76 0.3,-0.127 1.12,-0.53 1.238,-0.523 -3.93,4.868 -7.228,1.417 -8.097,0.888 -2.654,3.934 -7.263,1.25 -7.358,0.975 0.287,0.08 1.15,-0.1 1.973,-0.518 2.597,-1.353 1.862,-4.835 -0.164,-5.593 -0.62,-0.216 -1.37,-0.24 -2.212,-0.172 0,0 0.064,-0.877 -0.02,-1.186 -1.276,-4.74 -7.177,-2.374 -5.726,1.632 0.127,0.35 0.47,0.706 0.47,0.706 0,0 -0.8,0.485 -1.156,0.806 -2.817,2.533 0.05,6.71 3.34,4.973 0.425,-0.224 0.837,-0.695 0.956,-0.667 -1.55,2.827 -3.898,3.814 -7.248,1.473 -2.067,3.273 -5.44,1.913 -6.39,0.273 3.15,0.288 5.197,-5.746 -0.858,-5.942 -0.47,-1.638 -0.448,-4.135 -4.287,-3.705 z m -20.448,3.52 c -3.287,8.715 -12.568,16.603 -17.942,26.42 -6.073,9.935 -4.166,20.097 4.1,21.854 4.33,0.92 9.983,-3.245 10.487,-7.728 0.103,-0.916 0.44,-1.4 1.056,-1.325 0.48,0.06 0.436,1.24 0.254,2.66 -0.663,4.662 -3.19,12.06 -6.46,15.47 l 15.206,0.01 c -0.61,-0.345 -6.288,-7.438 -5.736,-16.042 0.01,-1.538 0.01,-2.05 0.69,-2.044 0.548,0 0.554,0.256 0.716,1.766 1.025,9.55 12.9,10.586 16.628,1.454 1.883,-4.608 -0.09,-12.81 -5.054,-19.824 -3.77,-6.17 -10.186,-13.347 -13.944,-22.67 z m 6.7,57.36 c 0.034,0.02 0.057,0.022 0.06,0 z m 56.425,-50.525 c 0.694,0 1.253,0.564 1.253,1.257 0,0.694 -0.56,1.258 -1.253,1.258 -0.693,0 -1.257,-0.564 -1.257,-1.258 0,-0.693 0.564,-1.257 1.257,-1.257 z m 19.527,0.15 c 0.735,0 1.33,0.598 1.33,1.333 0,0.735 -0.595,1.33 -1.33,1.33 -0.735,0 -1.33,-0.595 -1.33,-1.33 0,-0.735 0.595,-1.334 1.33,-1.334 z m -38.276,1.453 c 0.71,0 1.282,0.573 1.282,1.282 0,0.708 -0.573,1.286 -1.282,1.286 -0.708,0 -1.286,-0.578 -1.286,-1.286 0,-0.71 0.578,-1.282 1.286,-1.282 z m 54.83,1.58 -1.112,1.977 c -1.23,-1.077 -0.382,-2.488 1.113,-1.978 z m -70.118,2.726 -1.107,-2.045 c 1.982,0.133 1.398,1.552 1.107,2.044 z m 33.874,-1.114 c 7.5,8.545 14.226,6.018 18.624,0.336 1.887,4.843 6.09,8.19 13.325,4.935 -0.437,0.775 -1.536,2.14 -1.536,2.14 -6.393,1.724 -9.567,-1.285 -12.033,-4.15 -6.505,5.4 -12.63,4.09 -17.684,-0.673 -4.314,5.43 -11.3,6.598 -17.765,2.165 -2.956,4.363 -7.196,6.124 -12.528,3.94 0,0 -1.13,-1.777 -1.23,-1.89 0.774,0.648 10.593,4.724 12.99,-5.08 3.42,5.802 14.626,6.11 17.837,-1.722 z m 0.754,3.514 c 8.436,7.888 17.29,1.067 17.515,0.585 0.133,0.438 4.948,6.187 11.89,4.027 l -1.128,1.934 c -13.063,-2.21 -25.08,-3.63 -52.6,0.42 0,0 4.393,-1.302 6.615,-4.806 1.237,0.803 10.784,6.132 17.708,-2.16 z m -106.657,2.237 c -0.767,1.86 -2.022,3.783 -3.07,5.5 -4.938,7.66 -5.22,8.396 -5.612,11.1 -1.1,5.29 5.15,7.432 7.142,3.82 0.893,-1.526 1.455,-0.533 1.056,0.912 -0.254,2.538 -2.838,5.48 -2.846,5.424 l 7.57,0.058 c 0,0 -3.248,-3.308 -3.197,-5.962 0,-1.213 0.65,-1.25 1.44,-0.158 2.26,3.118 6.47,0.61 6.5,-3.826 0.016,-2.718 -0.81,-4.242 -5.728,-11.56 -1.072,-1.6 -2.254,-3.616 -3.254,-5.307 z m 77.09,4.3 c 0,0 3.672,0.432 3.96,0.505 0.322,0.25 -3.092,1.188 -3.106,1.12 z m 7.444,37.638 c -0.222,0.01 -0.5,0.258 -0.96,0.71 -0.996,0.98 -1.222,1.11 -2.188,1.25 -0.73,0.104 -2.268,0.99 -3.202,1.842 -0.252,0.23 -0.734,0.423 -1.31,0.523 l -1.532,0.264 c -0.34,0.06 -0.712,0.167 -0.825,0.236 -0.49,0.298 -1.29,0.344 -2.184,0.13 -0.864,-0.208 -1.002,-0.203 -1.954,0.09 -1.387,0.427 -2.295,0.428 -2.977,0 -0.682,-0.427 -1.766,-0.587 -2.453,-0.364 -1.016,0.327 -3.65,-1.25 -3.643,-2.18 0,-0.212 -1.496,-1.333 -1.872,-1.335 -1.334,-0.198 -13.058,4.43 -12.998,4.7 14.396,17.78 26.514,44.87 17.385,78.02 l -1.613,-0.774 c 1.355,-6.025 1.89,-12.09 2.308,-18.25 -27.02,-11.664 -29.347,-38.792 -18.86,-55.92 l -1.78,-1.895 c -6.355,3.39 -12.813,5.317 -28.522,18.494 l 0.043,21.33 c 0.038,19.285 0.028,38.075 0.028,38.075 5.685,0.63 11.946,1.143 18.12,1.675 0,0 -0.08,19.07 -0.22,26.53 -0.12,6.31 0.115,5.913 0.115,5.913 l 20.448,10.78 c -1.436,-5.677 2.11,-7.933 5.08,-7.697 -1.313,-5.474 1.944,-7.98 5.663,-7.278 2.513,0.475 3.392,1.86 4.83,6.437 0.233,0.744 0.554,1.74 0.554,1.74 l 1.433,-0.054 c 1.794,-3.85 2.993,-8.753 7.213,-9.39 5.524,-0.83 7.582,2.965 7.58,6.76 5.352,-4.717 11.763,-1.066 11.346,5.98 2.692,-1.73 7.255,-3.297 10.13,3.38 1.08,-0.23 1.632,-1.433 3.152,-1.81 0.57,-0.12 1.858,-0.81 1.858,-0.81 l 0.016,-0.233 c 0,0 1.195,-0.413 2.797,-0.676 1.374,0.514 0.973,0.497 1.714,-0.417 0.825,-0.423 2.163,-0.7 3.196,-0.61 1.082,0.098 1.564,0.176 2.198,-0.1 0.99,-0.43 1.912,-0.54 2.498,0.11 0.42,0.47 1.027,0.243 1.68,0.217 1.304,-0.053 3.043,0.483 3.585,1.656 0.8,0.815 2.55,1.64 2.55,1.64 l 1.415,-0.325 0.163,-0.522 11.584,-4.42 c -23.618,-25.862 -23.002,-60.17 -17.44,-77.536 l 2.137,1.027 c -1.132,5.146 -2.417,10.432 -2.25,18.105 21.268,9.483 31.85,33.993 18.955,55.388 l 1.364,1.76 c 5.363,-2.25 18.855,-9.826 23.52,-13.943 l 0.992,0.082 c 0,0 2.828,-1.83 4.076,-2.808 l 0.168,-56.775 -0.99,0.258 -0.177,-3.317 -17.535,-1.39 c 0.223,-0.167 0.39,-0.235 0.44,-0.567 l -0.1,-31.43 c -0.65,-0.997 -15.337,-9.6 -20.798,-11.612 -0.22,0 -0.068,0.37 0.01,1.268 0.268,3.083 -1.814,5.827 -4.225,5.832 -0.867,0 -1.017,0.37 -0.974,2.14 0.06,2.518 -0.85,4.21 -3.5,5.166 -3.142,1.134 -5.268,-0.51 -7.017,-6.975 -0.458,-1.696 -1.356,-1.272 -2.217,1.048 -0.427,1.15 -1.81,3.946 -2.635,5.42 -0.636,1.13 -1.642,1.634 -3.01,2.236 -1.066,0.527 -3.373,0.436 -4.703,-0.24 -2.412,-1.225 -3.347,-2.696 -4.042,-6.34 -0.09,-0.477 -0.404,-0.436 -1.186,0.153 -4.257,3.207 -10.244,-0.11 -10.21,-5.655 0.01,-1.628 -0.056,-1.693 -1.012,-0.912 -2.887,2.358 -6.81,1.162 -8.38,-2.554 -0.37,-0.87 -0.565,-1.257 -0.85,-1.248 z m -24.47,1.968 c 0.3,-0.013 1.238,1.234 1.238,1.234 0.865,0.956 2.027,1.44 3.235,2.15 0.113,-0.168 14.096,18.598 16.474,44.473 l 6.505,0.033 c -1.213,-25.142 -8.147,-37.226 -11.328,-44.98 l 2.333,-0.74 c 5.23,10.023 11.607,30.364 11.395,48.173 l -10.742,0 c -1.517,-17.838 -8.453,-35.23 -18.154,-48.423 -0.676,-1.014 -1.205,-1.72 -1.01,-1.9 0.015,-0.014 0.034,-0.02 0.054,-0.02 z m -4.114,2.655 1.09,3.42 c 0,0 0.13,-0.8 0.465,-1.1 2.123,-1.913 4.154,0.605 3.197,4.022 -0.218,1.052 -0.643,3.125 -0.643,3.125 0,0 -2.134,-1.094 -3.207,-1.445 -2.96,-1.258 -3.947,-3.736 -1.685,-4.018 0.378,-0.047 1.157,-0.08 1.157,-0.08 -0.94,-0.74 -3.015,-2.43 -3.015,-2.43 z m 9.936,0.385 c 0.894,0.507 3.202,1.055 4.527,0.557 1.07,-0.403 1.886,-0.182 3,-0.087 0.638,0.055 1.91,-0.225 1.91,-0.225 6.36,13.38 10.734,29.253 11.463,43.77 l -5.002,0.03 c -1.888,-15.423 -7.857,-31.09 -15.432,-42.71 -0.335,-0.507 -0.78,-1.316 -0.466,-1.335 z m 20.895,0.23 c 1.937,0.024 3.963,1.954 5.065,5.112 0.613,1.76 0.853,1.653 1.675,1.368 2.113,-0.723 4.362,1.596 1.53,1.983 -2.778,0.46 -1.192,5.895 -1.43,6.374 -1.125,0.197 -3.242,-4.424 -3.186,-5.798 0.135,-3.37 -3.03,-6.187 -4.997,-4.77 -0.932,0.67 -0.83,1.143 -1.12,0.9 -0.884,-0.742 -1.063,-2.792 -0.027,-3.954 0.748,-0.84 1.61,-1.225 2.49,-1.215 z m 57.534,1.162 c 0,0 0.11,4.43 -0.058,5.41 -0.33,2.953 -4.188,3.264 -4.34,0.902 -0.63,0.943 -1.062,2.117 -1.314,3.172 l -2.736,-1.882 c 1.04,-0.746 2.03,-1.4 2.798,-2.323 -2.028,0.154 -3.162,-1.602 -1.804,-3.096 1.507,-1.71 5.676,-1.895 7.454,-2.183 z m -100.6,1.402 1.21,1.362 c -10.78,19.11 -6.98,43.537 19.042,56.37 -0.172,5.864 -0.923,11.794 -2.323,17.296 l -9.6,-4.656 c 0.065,-21.606 -12.17,-42.204 -31.7,-55.743 7.087,-5.695 14.927,-10.696 23.372,-14.63 z m 78.606,0.162 c 0.458,2.522 2.847,7.092 3.02,6.83 -0.025,-0.15 -9.942,12.702 -14.252,34.196 l -3.68,0.014 c 2.412,-14.322 7.228,-27.836 14.912,-41.04 z m 30.562,0.6 1.96,1.185 c -10.277,8.604 -17.044,19.51 -22.014,31.273 l -2.597,-1.23 c 7.707,-17.06 15.32,-24.638 22.652,-31.228 z m 2.74,1.905 c 0.54,0.035 1.177,0.715 2.166,1.258 0.967,0.53 0.726,0.812 -1.095,2.208 -2.153,1.65 -2.356,1.578 -2.337,-0.778 0.012,-1.562 0.407,-2.604 1.16,-2.683 0.036,0 0.07,-0.01 0.107,-0.01 z m -2.365,2.43 c 0.113,-0.01 0.204,0.03 0.264,0.124 0.158,0.624 0.142,2.052 -0.11,3.462 -0.203,0.928 -2.965,3.26 -3.95,4.18 -0.395,0.26 -0.576,0.165 -0.648,-0.297 0.03,-0.732 0.102,-1.706 0.115,-2.698 0,-0.305 -0.06,-0.625 0.216,-0.86 1.353,-1.596 3.323,-3.87 4.114,-3.91 z m 5.13,0.758 c 0.017,0 0.028,0 0.04,0.01 0.254,0.152 0.212,3.355 0.033,3.566 -0.8,0.208 -2.956,-0.132 -3.51,-0.427 -0.12,-0.372 2.92,-3.17 3.438,-3.148 z m -96.254,1.036 0.748,3.14 c 0,0 0.216,-0.42 0.27,-0.503 1.488,-2.276 3.3,-0.942 3.27,2.217 -0.01,0.998 -0.918,4.987 -0.918,4.987 0,0 -5.585,-2.68 -6.024,-3.858 -0.432,-1.158 0.182,-2.177 1.21,-2.27 0.384,-0.044 0.787,-0.076 1.23,0 l -2.4,-2.453 z m 63.946,0.42 2.533,0.935 c -5.285,8.597 -10.74,17.09 -14.712,36.456 l -10.62,0 c 1.484,-11.835 4.495,-23.47 9.867,-34.794 0,0 2.087,-0.64 3.264,-1.023 0,0 -8.778,20.09 -9.8,33.005 l 5.13,0.11 c 2.74,-12.585 7.864,-25.63 14.34,-34.69 z m -20.113,0.31 c 1.427,-0.052 2.48,0.952 2.4,2.732 -0.018,1.63 -0.168,1.865 -1.32,1.215 -1.514,-0.855 -2.71,-0.873 -4.066,0.096 -0.745,0.533 -1.477,0.974 -1.477,0.974 0,0 0.654,-2.83 1.656,-3.72 0.958,-0.854 1.95,-1.264 2.807,-1.296 z m -5.448,4.187 c -0.104,0.957 -0.387,1.396 -0.64,2.212 0,0 0.83,-0.324 1.23,-0.51 1.887,-0.88 3.854,0.75 3.825,2.66 0.084,1.274 -1.3,2.8 -2.948,2.813 -0.575,0 -1.183,-0.177 -1.77,-0.615 0.425,2.334 0.51,3.413 -1.196,4.584 -1.427,0.95 -4.435,-0.136 -4.266,-2.745 l 0.105,-1.608 -1.446,0.186 c -4.035,0.165 -4.106,-4.802 -0.85,-5.583 1.3,-0.307 2.713,0.76 2.713,0.76 -0.62,-1.22 -0.63,-3.315 0.2,-4.283 2.05,-2.382 5.294,-0.216 5.042,2.127 z m 35.236,-3.1 c 0.22,1.858 0.96,3.885 0.748,5.62 -0.314,2.217 -2.2,3.53 -3.68,2.092 -0.184,-0.178 -0.515,-0.548 -0.515,-0.548 -0.67,0.846 -1.086,3.24 -1.086,3.24 l -2.616,-1.613 c 0,0 1.817,-1.276 2.32,-2.002 0.14,-0.202 0.205,-0.586 0.205,-0.586 -1.456,0.455 -2.69,-1.033 -2.294,-2.347 0.787,-2.152 4.702,-2.95 6.916,-3.86 z m 18.283,1.343 c 0.978,-0.03 2.494,0.247 3.69,0.374 0.92,0.16 0.41,0.68 -1.65,2.688 -1.894,1.845 -1.835,1.67 -3.294,1.647 -3.407,-0.06 -4.004,0.018 -2.02,-2.123 1.04,-1.122 1.946,-2.135 2.692,-2.51 0.158,-0.046 0.355,-0.07 0.58,-0.077 z m -6.145,0.39 c 0.043,0 0.078,0.017 0.11,0.047 0.226,0.21 0.15,1.17 0.125,2.592 -0.026,1.51 -0.01,1.51 -0.643,2.303 -0.807,1.01 -1.477,2.04 -2.32,3.014 -0.728,0.79 -0.705,0.706 -1.14,-1.195 -0.424,-1.844 -0.188,-2.42 2.188,-5.093 0.804,-1.033 1.377,-1.685 1.68,-1.67 z m 10.642,1.05 0.028,3.74 c -7.03,6.875 -11.81,14.608 -15.057,23.13 l -2.448,-0.974 c 4.24,-10.89 10.59,-19.38 17.477,-25.896 z m -60.95,2.26 c -1.164,0 -2.104,0.94 -2.104,2.103 0,1.162 0.94,2.107 2.103,2.107 1.162,0 2.107,-0.945 2.107,-2.107 0,-1.162 -0.945,-2.102 -2.107,-2.102 z m -0.016,0.663 c 0.804,0 1.456,0.652 1.456,1.454 0,0.803 -0.652,1.455 -1.455,1.455 -0.8,0 -1.448,-0.652 -1.448,-1.455 0,-0.802 0.647,-1.454 1.45,-1.454 z m -78.115,0.888 c 21.933,14.072 31.768,35.886 31.724,54.625 l -1.24,-0.556 c -1.283,-26.48 -15.676,-42.76 -31.233,-53.296 z m 129.85,0.203 c 0.498,0 1.173,0.08 2.15,0.192 1.817,0.097 2.04,0.21 0.79,1.646 -0.344,0.394 -1,1.216 -1.465,1.835 -0.464,0.618 -1.028,1.264 -1.287,1.353 -0.38,0.132 -3.57,-0.018 -4.478,-0.144 -0.298,-0.04 0.093,-0.345 1.646,-2.563 1.192,-1.7 1.318,-2.262 2.444,-2.313 0.064,0 0.13,0 0.202,0 z m 9.136,0.72 c 0,0 0.436,12.07 0.12,19.766 -5.003,-0.186 -7.94,1.713 -9.163,5.308 l -5.256,-2.602 c 3.858,-9.905 9.015,-16.797 14.3,-22.473 z m -15.484,0.278 c 0.284,0.01 0.446,0.594 0.528,1.753 0.33,2.075 0.294,2.316 -0.572,3.648 -0.43,0.664 -1.022,1.6 -1.31,2.084 -0.502,0.845 -0.86,1.096 -0.984,0.687 -0.685,-2.238 -0.9,-3.623 -0.658,-4.075 0.4,-0.742 2.266,-3.394 2.53,-3.74 0.183,-0.238 0.336,-0.356 0.466,-0.354 z m -125.113,0.227 c 17.63,10.915 30.528,29.558 31.06,52.08 0,0 -3.756,-1.763 -6.076,-3.053 l -0.12,-2.19 1.224,-0.037 0.394,2.467 2.693,-0.086 -0.715,-6.16 -4.214,0.4 -0.85,-3.49 1.277,-0.273 0.705,2.25 2.74,-0.724 -1.458,-5.485 -4.234,1.156 -1.353,-3.704 1.406,-0.504 1.14,2.217 2.576,-0.898 -2.433,-5.5 -3.893,1.837 -1.978,-3.59 1.522,-0.812 1.224,2.136 2.41,-1.248 -2.98,-5.06 -3.697,2.064 -1.857,-2.784 1.147,-0.8 1.268,1.463 2.116,-1.5 -3.244,-4.362 -3.538,2.77 -2.616,-3.03 1.205,-1.022 1.8,1.613 2.012,-1.758 -3.854,-4.204 -3.37,3.072 -2.51,-2.18 1.228,-1.358 1.565,1.195 1.667,-1.973 -4.195,-3.456 -3.145,3.11 -3.014,-1.99 0,-1.484 c 0.98,0.377 2.015,0.817 2.942,1.31 l 1.56,-2.362 -4.502,-3.038 z m 49.1,0.93 0.666,3.85 c 0.632,-1.046 1.136,-1.767 2.505,-1.363 1.644,0.67 1.667,3.146 0.274,6.936 -0.26,0.703 -0.577,1.31 -0.577,1.31 0,0 -0.72,-0.298 -1.2,-0.628 -1.006,-0.688 -2.7,-1.467 -3.567,-2.832 -0.907,-1.43 -0.927,-3.43 0.74,-3.26 0.33,0 0.983,0.16 0.983,0.16 l -2.5,-3.188 z m -50.07,1.148 3.053,1.968 -0.634,1.152 -2.42,-1.09 z m 76.537,0.907 c 0.884,1.237 -2.228,4.88 1.843,6.336 0,0 0.1,0.84 -0.75,1.35 -1.99,1.448 -4.85,-1.197 -3.964,-3.918 0.567,-1.74 2.207,-3.758 2.87,-3.768 z m 8.448,0.115 c 0,0 1.227,0.897 1.473,1.133 2.268,2.174 2.29,5.29 0.237,6.38 -1.366,0.724 -2.91,0.14 -3.447,-0.912 -0.248,-0.488 0.16,-0.997 0.682,-0.994 0.978,0.01 1.724,-1.868 1.435,-3.84 -0.115,-0.782 -0.38,-1.767 -0.38,-1.767 z m 26.746,0.725 c 0,0 0.27,2.664 0.657,3.845 1.192,3.312 -0.33,5.328 -2.552,4.22 -0.318,-0.16 -0.88,-0.88 -0.88,-0.88 l -0.22,3.807 -3.163,-0.92 c 0.684,-1.1 1.67,-1.883 2.405,-3.12 0,0 -0.474,-0.018 -0.888,-0.02 -1.89,0.065 -2.586,-2.03 -0.605,-3.754 1.476,-1.273 5.247,-3.178 5.247,-3.178 z m 16.536,0.884 c 0.382,0 0.86,0.028 1.516,0.028 2.007,0 2.522,-0.27 1.637,0.98 -0.345,0.486 -1.186,1.842 -1.435,2.304 -0.506,0.936 -0.607,1.23 -1.45,1.416 -1.22,0.24 -2.603,0.074 -3.998,0.14 -0.303,-0.016 0.32,-1.055 0.667,-1.7 0.852,-1.582 1.37,-2.668 2.103,-3 0.287,-0.13 0.577,-0.166 0.96,-0.168 z m -6.202,1.224 c 0.243,-0.013 0.422,0.42 0.653,1.32 0.54,2.096 0.678,2.148 -0.19,3.868 -0.44,0.868 -1.187,2.34 -1.494,2.948 -0.788,1.56 -0.833,1.545 -1.33,0.148 -0.952,-2.68 -1.035,-2.404 0.538,-5.414 0.982,-1.88 1.47,-2.852 1.824,-2.87 z m -115.69,0.734 2.836,2.275 -0.806,0.782 -1.57,-1.157 -2.318,2.48 3.81,3.477 3.227,-3.178 2.765,2.89 -0.845,0.715 -1.623,-1.566 -2.428,2.074 3.624,4.28 3.652,-2.783 2.29,3 -0.936,0.586 -1.493,-1.45 -2.376,1.648 2.957,4.166 3.725,-2.136 2.116,3.48 -1.176,0.566 -1.2,-1.91 -2.674,1.54 2.525,4.873 4.023,-1.68 1.618,3.72 -1.228,0.5 -1.032,-2.238 -2.707,1.07 1.814,5.117 4.08,-1.172 0.99,3.802 -1.26,0.35 -0.618,-2.107 -2.598,0.624 1.085,5.136 4.152,-0.264 0.494,4.152 -1.292,0.058 -0.32,-2.477 -2.646,0.033 c 0.014,0.873 0.115,2.654 0.115,2.654 l -1.597,-0.74 c -2.375,-15.787 -10.844,-28.946 -23.463,-38.107 l -0.067,-1.886 3.072,1.95 c 0,0 2.817,-2.51 3.303,-3.15 z m 121.196,3.682 c 0.88,-0.01 0.49,0.675 -0.58,2.716 -1.197,2.277 -1.41,2.325 -3.65,2.87 -2.723,0.665 -2.644,0.814 -1.17,-2.327 0.568,-1.21 0.982,-2.27 1.502,-2.674 0.683,-0.527 2.005,-0.325 3.442,-0.54 0.18,-0.028 0.33,-0.043 0.456,-0.044 z m -127.422,0.672 c 13.104,8.454 21.388,25.94 22.416,36.542 0,0 -0.355,-0.238 -1.07,-0.566 -0.994,-0.456 -1.238,-0.754 -1.527,-2.2 -2.595,-12.963 -9.913,-23.965 -19.76,-31.732 z m 118.172,2.164 c 0.555,-0.115 1.564,3.865 1.262,4.7 -0.216,0.6 -2.166,-0.817 -2.875,-1.12 -0.353,-0.15 1.24,-3.502 1.614,-3.58 z m -63.192,0.183 -0.063,4.128 c 0,0 0.496,-0.59 0.753,-0.778 0.974,-0.71 2.463,0.275 2.52,1.493 0.078,1.69 -0.178,2.376 -1.53,4.723 -0.42,0.728 -1.053,1.652 -1.053,1.652 0,0 -1.598,-1.14 -3.345,-2.88 -1.89,-1.88 -1.528,-4.393 0.124,-4.4 0.494,-0.01 0.935,0.163 1.368,0.3 -0.357,-1.215 -1.685,-3.575 -1.685,-3.575 z m 51.22,3.09 c 0,0 0.856,1.127 1.84,4.09 0.938,2.83 -0.507,4.96 -2.468,3.893 -0.35,-0.19 -0.72,-0.604 -0.72,-0.604 -0.138,1.37 0.106,3.84 0.14,3.86 l -3.164,-0.553 c 0,0 1.737,-2.758 1.862,-3.44 0,0 -0.196,0.153 -1.065,0.153 -3.18,0 -2.52,-3.783 1.152,-5.88 0.55,-0.315 2.423,-1.517 2.423,-1.517 z m 18.222,0.05 c 0.687,-0.032 0.363,0.634 -0.4,2.188 -0.84,1.718 -0.63,1.57 -2.408,0.662 -2.488,-1.215 -2.34,-1.405 0.81,-2.256 0.997,-0.37 1.637,-0.58 1.998,-0.596 z m -45.11,0.503 c 2.49,0.015 4.327,2.473 3.96,5.966 -0.634,5.998 -0.27,5.628 0.383,6.226 1.19,1.09 -0.42,1.745 -1.838,0.706 -0.988,-0.724 -1.31,-1.438 -1.264,-4.748 0.053,-3.803 -0.152,-4.772 -1.512,-4.44 -0.85,0.208 -1.116,0.93 -1.022,3.495 0.13,3.6 -0.107,4.507 -1.474,5.66 -1.474,1.14 -3.065,0.123 -1.718,-0.63 0.615,-0.692 0.73,-1.573 0.494,-3.75 -0.26,-1.852 -1.34,-8.517 3.99,-8.485 z m 61.588,3.024 c 0.313,-0.01 0.628,0 0.946,0.01 4.793,0.18 16.915,1.166 16.915,1.166 l 0.106,3.58 c -0.543,0.334 -9.59,-1.045 -16.245,-0.92 -1.556,0.028 -2.657,0.715 -3.782,0.138 1.08,0.448 0.98,5.85 -3.778,4.54 -4.035,-1.45 -2.07,-6.907 3.092,-8.284 0.887,-0.12 1.806,-0.212 2.745,-0.23 z m -26.674,2.4 10.36,5.107 c 1.45,19.446 8.162,39.99 31.026,55.565 -3.704,2.65 -12.996,9.16 -23.616,13.617 l -0.87,-0.93 c 12.61,-21.445 3.084,-45.047 -18.997,-55.73 0.06,-5.95 0.808,-11.823 2.098,-17.63 z m 36.437,3.26 c 1.987,-0.078 2.504,0.15 2.674,1.05 0.16,0.85 0.79,1.05 1.54,0.778 1.823,-0.664 2.936,2.57 1.425,4.003 -0.937,0.89 -0.773,1.234 0,1.24 1.904,0.01 1.85,2.503 -0.086,3.916 -0.803,0.585 -0.792,0.85 0.048,1.266 1.407,0.694 1.124,2.067 -0.662,3.197 -0.972,0.614 -1.004,0.765 -0.202,0.984 2.02,0.55 -0.04,3.43 -2.25,2.918 -0.908,-0.21 -1.77,-0.014 -2.636,0.552 -2.367,0.986 -2.764,1.182 -5.32,0.864 -2.242,-0.41 -3.245,-1.15 -3.824,-3.12 -1.316,-4.004 -2.735,-8.442 -2.75,-12.815 -0.2,-2.685 4.3,-5.113 6.433,-5.218 1.737,-0.26 3.73,0.367 5.615,0.384 z m -141.682,0.066 c 2.38,0 4.31,1.93 4.31,4.31 0,2.38 -1.93,4.31 -4.31,4.31 -2.38,0 -4.31,-1.93 -4.31,-4.31 0,-2.38 1.93,-4.31 4.31,-4.31 z m 47.904,1.268 -0.39,3.768 c 0,0 0.635,-0.495 0.784,-0.62 1.122,-0.937 2.894,0.11 2.492,1.57 -0.13,1.286 -2.35,5.107 -3.235,5.91 0,0 -3.56,-3.88 -3.94,-4.638 -0.847,-1.686 0.31,-3.443 1.847,-2.698 0.22,0.107 0.854,0.577 0.854,0.577 l -1.128,-3.577 z m -47.616,0.302 c -1.523,0.052 -2.97,0.987 -2.774,2.232 0.13,0.532 0.942,-0.236 1.743,-0.74 0.612,-0.385 1.35,-0.446 2.048,-0.143 0.62,0.22 0.885,0.79 1.244,1.233 0.304,0.373 0.637,0.678 0.825,0.495 0.16,-0.198 0.095,-0.445 0.053,-0.667 -0.328,-1.698 -1.732,-2.452 -3.14,-2.41 z m 116.08,0.586 1.54,0.787 c 2.075,27.482 15.97,43.64 30.572,53.262 l -1.16,0.7 c -17.92,-11.48 -30.36,-32.046 -30.952,-54.748 z m 2.333,1.128 c 0,0 3.87,1.98 5.894,2.894 l 0.077,2.487 -1.353,0.048 -0.46,-2.337 -2.813,0.202 0.878,5.75 4.536,-0.557 0.635,3.475 -1.536,0.322 -0.788,-2.136 -2.602,0.633 1.685,5.587 4.09,-1.32 1.28,3.653 -1.372,0.5 -0.878,-2.142 -2.693,0.942 2.083,5.453 4.258,-1.368 1.718,3.412 -1.29,0.57 -1.233,-2.116 -2.554,1.305 2.995,5.092 3.845,-2.016 1.795,2.722 -1.41,0.946 -1.283,-1.666 -2.068,1.363 3.312,4.523 3.31,-2.482 2.477,2.857 -1.094,0.97 -1.69,-1.714 -2,1.786 3.944,4.328 3.428,-2.976 2.433,2.266 -0.72,0.758 -1.637,-1.022 -2.168,2.304 4.142,3.605 3.288,-3.605 2.79,2.054 0,1.517 -2.492,-1.263 -1.67,2.515 4.16,3.15 -0.028,1.237 c -23.757,-14.174 -30.008,-36.157 -31.22,-52.508 z m -48.64,0.273 c 1.028,-0.03 2.112,0.935 3.904,3.01 5.006,5.8 3.67,14.77 -2.876,19.45 -0.952,0.68 -1.335,0.62 -2.5,-0.38 -6.713,-5.768 -7.1,-13.48 -1.123,-20.256 1.034,-1.17 1.798,-1.8 2.597,-1.825 z m 23.996,0.797 c 1.234,1.893 2.793,3.84 2.97,6.14 -0.088,2.272 -1.62,2.69 -3.206,1.367 -0.2,1.193 0.48,3.518 0.48,3.518 l -2.87,-0.307 c 0,0 1.126,-1.966 1.17,-3.196 -1.992,1.388 -3.514,-0.422 -3.244,-1.882 0.57,-2.483 2.61,-4.157 4.7,-5.64 z m -23.91,1.483 c -0.235,0.02 -0.48,0.18 -0.854,0.48 -1.748,1.403 -3.122,3.147 -3.835,4.96 -1.504,3.822 -0.522,8.132 2.87,11.476 1.725,1.7 2.332,1.583 4.974,-1.93 2.214,-2.94 2.674,-6.74 1.31,-10.04 -0.665,-1.61 -1.87,-3.18 -3.316,-4.32 -0.556,-0.438 -0.845,-0.65 -1.147,-0.625 z m 55.22,0.706 2.227,1.095 c 2.842,18.742 12.052,30.176 22.373,38.06 l -0.02,1.737 -2.77,-2.145 -3.315,3.47 -2.688,-2.203 1.008,-0.98 1.53,0.975 1.96,-2.194 -3.855,-3.437 -3.36,2.912 -2.8,-2.88 0.85,-0.71 1.935,1.69 2.165,-1.92 -3.744,-4.2 -3.35,2.54 -2.338,-3.102 1.018,-0.605 1.224,1.68 2.582,-1.608 -2.73,-4.2 -3.894,1.997 -1.992,-3.59 1.133,-0.543 1.29,2.017 2.424,-1.166 -2.438,-4.953 -3.98,1.315 -1.463,-3.897 1.137,-0.418 1.003,2.304 2.693,-0.863 -1.83,-5.333 -4.112,1.162 -1.018,-3.922 1.272,-0.273 0.667,2.117 2.828,-0.566 -1.037,-5.077 -4.21,0.532 c -0.14,-0.862 -0.76,-3.187 -0.75,-4.065 l 1.297,-0.106 0.408,2.237 2.833,-0.095 z m -55.07,0.41 c 1.543,0.21 3.428,3.182 3.854,4.26 0.813,2.135 0.88,4.608 0.14,6.525 -0.608,1.567 -2.424,4.347 -3.577,5.13 -0.93,0.505 -1.71,0.13 -3.04,-1.674 -2.624,-3.568 -3.132,-7.86 -1.06,-10.8 1.584,-2.245 2.758,-3.443 3.682,-3.44 z m 58.056,0.925 1.118,0.528 c 1.374,10.86 7.81,25.765 20.477,34.68 l 0,1.364 c -9.85,-7.07 -18.894,-19.266 -21.594,-36.572 z m -58.253,0.74 c -4.412,3.325 -3.706,8.53 -0.364,12.037 3.598,-2.382 4.87,-8.816 0.363,-12.037 z m -67.32,0.22 c 2.487,-0.057 4.065,0.81 4.823,2.535 1.177,2.68 1.337,3.188 1.58,4.593 0.137,0.804 0.35,2.016 0.47,2.693 1.292,7.28 0.34,10.025 -4.08,11.16 -1.32,0.34 -3.16,0.45 -4.445,0.14 -0.337,-0.082 -1.572,-0.09 -2.543,-0.12 -1.928,-0.063 -2.517,-0.267 -3.485,-1.052 -0.35,-0.283 -0.685,-0.51 -1.104,-0.576 -2.206,-0.35 -2.865,-2.37 -1.19,-3.864 0.953,-0.85 1.048,-0.963 0.96,-1.11 -0.05,-0.08 -0.457,-0.15 -0.908,-0.152 -2.223,-0.014 -2.2,-2.302 0.04,-3.936 1.063,-0.777 1.543,-1.51 0.84,-1.33 -2.03,0.478 -2.744,-2.485 -0.625,-3.404 1.128,-0.63 1.938,-1.16 0.85,-1.218 -0.915,0.08 -1.66,-0.596 -1.38,-1.39 0.34,-0.965 2.195,-1.842 3.266,-1.514 0.837,0.256 1.652,0.49 2.175,0.115 1.27,-0.912 1.836,-1.323 2.928,-1.47 0.633,-0.084 1.297,-0.102 1.83,-0.1 z m 73.953,0.557 10.224,0.197 -0.302,10.026 -9.63,-0.182 c 0,0 2.112,-4.48 -0.292,-10.042 z m -22.91,0.23 9.792,0.12 c -1.614,3.78 -1.01,7.663 -0.418,9.85 l -9.586,-0.15 z m 16.353,0.015 c 2.63,1.533 3.354,7.115 -0.3,9.985 -3.48,-3.575 -2.782,-7.927 0.3,-9.985 z m -24.16,4.358 2.626,0.245 -0.936,3.76 c 0,0 0.423,-0.447 0.562,-0.49 3.373,-1.585 3.615,2.004 0.182,5.245 -0.76,0.715 -1.977,1.695 -1.977,1.695 0,0 -0.955,-1.445 -1.714,-2.75 -0.862,-1.314 -1.448,-2.72 -1.3,-3.466 0.213,-1.083 1.516,-1.8 2.347,-1.138 0.41,0.326 0.883,0.82 0.883,0.82 z m 46.878,2.756 c 0,0 1.1,1.13 1.77,1.863 2.32,2.536 2.718,4.91 1.542,5.63 -1.01,0.462 -1.636,0.146 -2.448,-0.513 0.17,1.572 1.417,3.893 1.387,3.897 l -3.462,0.557 c 0,0 0.854,-3.15 0.783,-4.34 0,0 -0.71,0.547 -1.027,0.683 -2.26,0.825 -3.38,-1.742 -1.52,-4.3 1.557,-2.148 2.975,-3.476 2.975,-3.476 z m 47.275,4.753 c 2.323,0 4.205,1.882 4.205,4.204 0,2.323 -1.882,4.205 -4.205,4.205 -2.322,0 -4.204,-1.882 -4.204,-4.205 0,-2.322 1.88,-4.204 4.203,-4.204 z m 2.074,1.924 c -0.18,0.04 -0.33,0.458 -0.35,1.378 -0.21,1.886 -1.78,2.646 -3.495,1.77 -0.693,-0.352 -1.284,-0.876 -1.286,-0.474 0,0.216 0.555,1.34 0.95,1.724 1.455,1.308 4.996,0.998 4.915,-2.05 -0.037,-1.434 -0.43,-2.414 -0.733,-2.347 z m -76.345,1.58 c 0.457,-0.03 1.036,0.158 1.407,0.542 1.148,0.784 1.366,1.787 1.44,5.572 0.063,3.338 0,3.42 0.546,3.826 1.35,0.99 2.162,-0.52 1.776,-3.903 -0.37,-3.256 0.802,-5.624 2.77,-5.61 0.968,0 1.148,0.574 0.413,1.3 -0.776,0.766 -0.964,1.702 -0.72,3.585 0.623,4.826 0.084,7.195 -1.944,8.175 -2.115,1.02 -4.836,-0.152 -5.313,-2.823 -0.306,-1.78 -0.303,-3.894 -0.09,-5.885 0.037,-2.093 -0.01,-2.332 -0.74,-3.532 -0.517,-0.806 -0.132,-1.21 0.455,-1.248 z m -53.203,1.564 c 1.168,0 2.383,0.677 3.11,2.176 1.75,3.617 -2.044,6.592 -5.526,6.826 -6.043,0.09 -13.225,-0.782 -19.29,-1.59 l 0.095,-3.417 c 5.566,0.322 11.842,0.774 18.604,1.09 -0.77,-3.178 1.055,-5.08 3.005,-5.084 z m 31.785,0.702 3.365,0.744 -2.14,3.5 c 0.634,-0.276 1.073,-0.467 1.708,-0.236 1.37,0.495 1.39,2.232 0.384,3.855 -0.795,1.178 -3.03,2.586 -4.556,3.45 -0.857,-1.84 -2.75,-5.06 -1.997,-6.82 0.4,-0.934 1.507,-1.39 2.54,-0.878 0.34,0.204 0.992,0.537 0.992,0.537 z m 7.953,0.096 10.253,0.12 c -1.49,10.366 -4.405,24.21 -10.15,35.492 l -2.415,0.624 c 5.067,-11.212 8.438,-21.726 10.013,-33.48 l -5.127,0 c -2.948,12.615 -7.31,24.306 -14.02,34.464 l -2.98,-0.97 c 7.168,-11.365 12.848,-24.048 14.428,-36.25 z m 23.386,0.183 11.43,0 c 2.1,21.108 9.233,35.513 19.847,49.763 0,0 -0.67,0.15 -1.064,-0.02 -1.1,-1.373 -2.11,-2.213 -3.76,-2.635 -8.92,-12.843 -14.905,-30.8 -16.348,-44.535 l -6.797,0 c 0.775,17.252 5.555,31.397 11.915,45.097 l -3.45,0.633 c -5.11,-12.26 -10.71,-22.93 -11.77,-48.302 z m 17.784,2.607 c 0.94,0.728 1.957,1.442 2.914,2.136 2.573,1.806 2.54,5.22 0.038,5.203 -0.265,0 -0.883,-0.038 -0.883,-0.038 0,0 1.022,2.237 1.666,3.37 -1.043,0.278 -3.22,0.686 -3.22,0.686 0,0 0.31,-2.197 0.248,-4.018 0,0 -0.416,0.467 -0.762,0.63 -1.66,0.693 -3.063,-0.756 -2.856,-2.468 0.28,-2.31 2.856,-5.5 2.856,-5.5 z m -76.354,0.413 5.626,2.794 c -3.834,8.726 -8.224,16.896 -14.573,23.107 l 0.163,-20.164 c 3.466,-0.1 7.02,-0.132 8.784,-5.736 z m 38.468,0.317 3.46,0 c -1.535,16.1 -12.172,37.877 -14.17,40.502 l -0.657,0.494 c 0.04,-0.022 -1.362,-4.937 -2.957,-6.706 6,-8.094 12.29,-23.65 14.324,-34.29 z m 24.336,0 5.227,0 c 1.628,12.828 5.594,26.686 15.643,43.517 0,0 -1.007,0.1 -1.785,-0.365 -1.713,-1.063 -2.903,0.343 -3.926,0.288 -1.6,-0.086 -1.864,-0.18 -3.514,0.21 -8.293,-17.49 -10.646,-31.26 -11.645,-43.65 z m -56.463,2.88 1.867,0.878 c -4.015,9.286 -7.61,16.665 -17.122,25.724 l -0.033,-2.7 c 6.68,-6.47 11.183,-15 15.288,-23.903 z m 2.717,1.296 c 0.884,0.332 1.887,0.88 2.72,1.33 0.28,0.11 0.205,0.36 0.208,0.623 -0.353,0.882 -1.91,1.27 -2.5,1.44 -0.713,0.203 -1.415,0.345 -1.542,0.375 -0.814,0.192 -0.556,-0.624 0.327,-2.41 0.397,-0.803 0.554,-1.34 0.787,-1.357 z m 3.73,1.968 c 0.558,-0.034 2.815,1.213 3.297,1.662 0.17,0.53 -0.315,1.362 -1.028,2.904 -1.096,2.37 -1.314,2.422 -1.642,0.475 -0.056,-0.335 -0.383,-1.443 -0.58,-2.178 -0.46,-1.707 -0.502,-2.69 -0.05,-2.86 z m 4.084,1.916 c 0,0 1.312,0.637 1.738,0.917 -5.857,17.54 -21.453,32.038 -21.37,31.704 l -2.434,-1.43 c 10.38,-9.38 17.987,-20.453 22.066,-31.19 z m -6.192,0.25 c 0.567,0.01 0.073,0.708 -0.69,2.395 -0.726,1.653 -0.964,2.24 -1.643,2.502 -0.97,0.352 -2.368,0.363 -3.608,0.58 -0.53,0.092 -0.308,-0.313 0.51,-1.972 0.957,-1.947 1.01,-2.35 2.514,-2.756 0.87,-0.135 2.038,-0.755 2.918,-0.748 z m 2.055,3.484 c 0.602,2.173 0.59,2.6 0.186,3.356 -0.758,1.415 -1.748,3.066 -2.02,3.513 -0.683,1.117 -0.877,0.885 -1.283,-1.834 -0.25,-1.687 -0.47,-2.445 -0.285,-3.18 0.34,-0.83 1.356,-2.79 1.93,-3.934 0.822,-2.445 1.263,1.862 1.47,2.078 z m 10.78,-1.896 3.072,1.008 -2.41,2.91 c 0,0 1.01,-0.183 1.128,-0.135 2.417,0.16 2.016,2.563 0.144,4.017 -0.775,0.71 -4.6,2.448 -4.6,2.448 -0.408,-2.15 -1.252,-3.524 -1.05,-5.73 0.142,-1.19 0.248,-2.262 1.704,-2.295 0.766,-0.04 1.077,0.742 1.575,1.373 z m 55.69,2.607 c 0,0 1.85,0.956 3.566,2.276 2.238,1.722 2.62,3.746 0.384,4.526 -0.26,0.09 -0.994,0.053 -0.994,0.053 0.616,1.073 2.08,2.67 2.08,2.67 -0.734,0.512 -1.768,0.913 -2.915,1.27 0,0 -0.283,-2.67 -0.556,-3.7 0,0 -0.296,0.583 -0.662,0.81 -2.155,1.342 -3.846,-1.185 -2.688,-4.38 0.703,-1.942 1.785,-3.524 1.785,-3.524 z m -23.69,0.447 c 5.382,-0.13 2.23,8.68 -0.46,8.112 -0.045,-0.08 2.22,-5.213 -0.83,-6.03 -1.4,-0.374 -0.193,-2.1 1.29,-2.083 z m -8.82,0.624 c 1.67,-0.01 2.887,1.17 1.29,1.912 -2.513,1.167 -1.017,3.964 -0.96,5.548 0.035,0.97 -2.24,-0.844 -2.722,-2.812 -0.624,-2.545 -0.335,-4.43 2.39,-4.647 z m -39.798,0.928 c 0.37,0 0.65,0.028 0.744,0.1 0.157,0.416 -0.594,1.715 -1.69,3.38 -0.583,0.885 -0.833,1.134 -1.19,1.344 -0.848,0.476 -2.038,0.352 -3.03,0.422 -1.478,0.02 -1.218,-0.01 0.42,-2.558 0.73,-1.14 1.19,-2.07 1.626,-2.367 0.087,-0.057 2.007,-0.32 3.12,-0.322 z m 1.94,1.838 c 0,3.187 1.082,4.23 0.287,5.237 -0.973,1.566 -2.214,3.28 -2.665,3.82 -0.76,0.913 -0.675,0.74 -0.874,-1.646 -0.143,-1.73 -0.3,-2.887 -0.075,-3.427 0.65,-1.562 1.422,-2.31 2.227,-3.97 0.63,-1.338 1.1,-1.114 1.1,-0.014 z m 42.47,1.598 c 1.563,0.022 2.528,1.682 2.457,3.207 l -0.068,1.46 c 2.02,-0.774 4.526,-0.022 4.637,1.958 0.187,3.358 -2.286,2.97 -4.38,2.828 0.212,0.08 0.52,3.035 -0.723,4.166 -1.954,2.186 -5.596,-0.047 -4.68,-3.254 0.19,-0.667 0.23,-1.085 0.23,-1.085 0,0 -1.306,0.47 -1.767,0.45 -3.96,-0.168 -3.658,-5.77 0.322,-5.11 0.813,0.134 1.363,0.33 1.363,0.33 0,0 -0.086,-0.354 -0.22,-0.854 -0.58,-2.157 0.636,-4.125 2.827,-4.096 z m 79.253,1 2.136,1.228 0,2.38 -3.037,-2.246 z m -128.04,1.592 c 0.84,-0.01 1.502,0.058 1.372,0.26 0,0.424 -1.844,2.986 -2.933,4.156 -0.93,0.998 -1.06,0.856 -3.33,0.745 -0.892,-0.044 -1.475,-0.05 -1.45,-0.29 1.046,-1.37 2.487,-3.137 3.484,-4.61 0.392,-0.12 1.774,-0.25 2.856,-0.26 z m 2.078,1.12 c 0.157,0 0.205,0.337 0.2,1.08 0,0.56 0.078,2.29 0.16,3.042 0.148,1.366 0.148,1.364 -0.437,2.18 -0.714,0.766 -1.442,1.895 -2.362,2.774 -1.382,1.53 -1.24,1.618 -1.22,-1.656 0.017,-2.558 -0.176,-2.558 0.342,-3.16 0.284,-0.33 1.163,-1.404 1.742,-2.245 0.88,-1.276 1.345,-2.012 1.575,-2.015 z m 13.17,0.45 2.842,1.517 -2.846,2.885 c 0,0 0.71,0 0.95,0.043 1.828,0.356 1.69,2.294 -0.15,3.74 -1.13,0.714 -5.01,2.127 -5.01,2.127 -0.134,-1.63 -0.48,-3.13 -0.413,-4.877 0.027,-0.807 0.1,-1.684 0.72,-2.38 0.427,-0.474 1.142,-0.75 2.145,-0.102 0.527,0.468 0.802,0.998 0.802,0.998 z m 33.534,0.984 c -1.114,0 -2.016,0.903 -2.016,2.016 0,1.113 0.903,2.016 2.017,2.016 1.113,0 2.016,-0.903 2.016,-2.016 0,-1.113 -0.903,-2.016 -2.016,-2.016 z m 31.767,0.475 c 0,0 3.72,1.398 5.395,2.933 1.564,1.305 0.827,3.455 -0.726,3.5 -0.113,0 -0.773,-0.097 -0.773,-0.097 0.528,0.802 2.29,2.766 2.29,2.766 l -2.874,1.167 c 0,0 -0.46,-2.214 -0.816,-3.456 -1.003,2.313 -3.475,0.808 -3.64,-0.634 -0.398,-2.113 0.5,-4.178 1.144,-6.178 z m -31.767,0.178 c 0.774,0 1.402,0.627 1.402,1.4 0,0.776 -0.63,1.403 -1.403,1.403 -0.774,0 -1.402,-0.627 -1.402,-1.402 0,-0.774 0.628,-1.4 1.402,-1.4 z m -54.893,2.865 c 1.002,-0.01 2.252,0.038 2.812,0.072 0.427,0.328 -0.465,1.345 -2.188,3.154 -1.382,1.45 -1.586,1.25 -3.26,1.263 -2.808,0.022 -2.878,0.04 -1.588,-1.426 1.412,-1.606 2.236,-2.64 2.89,-2.975 0.22,-0.057 0.732,-0.08 1.334,-0.087 z m 3.422,1.412 c 0.297,-0.06 0.216,0.698 0.168,2.414 l -0.08,2.91 -2.186,2.1 c -2.528,2.263 -2.225,2.405 -2.208,0.29 0.015,-1.682 0,-2.864 0.36,-3.61 1.104,-1.33 2.254,-2.508 3.51,-3.778 0.197,-0.195 0.337,-0.307 0.436,-0.326 z m 55.522,0.725 c 0.608,-0.05 2.16,2.604 2.55,4.828 0.886,5.08 3.93,7.488 6.07,5.448 0.872,-1.198 0.97,0.11 0.927,0.736 -0.45,6.436 -7.742,3.757 -8.572,-2.635 -2.56,1.662 -4.95,-1.694 -3.423,-1.64 3.608,-1.148 2.622,-4.46 2.448,-6.735 z m -8.448,0.048 c 0.357,2.226 -3.656,6.04 -5.914,3.364 -1.148,-1.36 -0.102,-4.166 1.36,-2.438 1.613,1.194 3.178,-0.192 4.554,-0.927 z m -55.143,3.052 c 0.825,-0.017 2.02,0.14 2.54,0.068 0.736,0.074 0.21,0.43 -1.383,1.88 -1.372,1.252 -1.763,1.81 -1.92,1.264 -0.076,-0.846 -0.043,-1.85 -0.038,-3.044 0.126,-0.117 0.426,-0.16 0.8,-0.168 z m 18.71,1.48 2.45,1.784 -2.43,2.236 c 2.178,-0.107 2.372,1.934 1.546,3.072 -0.536,0.798 -2.6,1.638 -4.666,1.973 -1.243,0.203 -2.256,0.35 -2.256,0.35 0,0 -0.046,-0.956 -0.08,-2.547 -0.072,-3.255 0.15,-4.536 1.4,-5.17 0.897,-0.454 2.413,0.26 2.785,1.09 0.123,0.274 0.446,0.753 0.446,0.753 z m -15.753,0.176 c 0.01,0 0.016,0 0.02,0.01 0.138,0.187 -0.36,5.482 -0.36,5.482 l -3.548,-1.997 c 0,0 3.59,-3.426 3.888,-3.49 z m 93.88,0.625 c 2.526,1.19 4.42,0.96 6.12,2.434 1.48,0.774 1.04,2.907 -0.04,3.383 -0.488,0.15 -1.295,0.067 -1.295,0.067 0.892,1.103 2.85,2.496 2.85,2.496 l -3.11,1.3 c 0,0 -0.426,-2.096 -0.82,-3.24 -0.567,1.7 -2.485,1.66 -3.577,0.86 -0.774,-0.592 -1.094,-2.58 -0.725,-4.3 0.097,-0.455 0.595,-3 0.595,-3 z m 11.366,17.256 c 3.21,4.518 4.997,8.316 5.496,13.984 0.295,3.495 0.194,4.148 -0.634,4.142 -0.532,0 -0.762,-0.266 -0.758,-0.864 0.056,-9.49 -11.634,-11.72 -15.984,-3.523 -2.55,4.805 -1.293,11.176 4.19,19.852 5.045,8.216 11.542,14.46 15.24,23.3 3.665,-8.778 11.017,-16.164 16.272,-24.625 7.59,-10.88 4.96,-22.347 -4.406,-23.553 -4.298,-0.554 -9.007,3.752 -9.552,8.208 -0.122,0.993 -0.333,1.286 -0.88,1.204 -0.73,-0.108 -0.456,-2.07 -0.138,-4.69 0.867,-5.005 2.635,-9.18 5.5,-13.435 z m 45.346,12.544 c 0.084,-0.02 2.38,3.18 2.707,4.378 0.266,0.976 0.47,1.986 0.302,2.41 -0.2,0.51 -0.68,0.12 -1.277,-0.673 -1.638,-2.177 -4.86,-1.482 -6.172,1.348 -0.947,2.04 -0.42,4.666 1.34,7.647 2.102,3.887 7.246,10.878 7.4,11.515 0.138,-0.548 3.415,-6.485 6.053,-10.42 1.39,-2.377 2.432,-4.388 2.495,-7.528 -0.32,-3.908 -4.997,-5.52 -7.085,-2.486 -0.675,0.98 -1.076,1.28 -1.3,0.48 -0.152,-0.54 0.322,-1.706 0.57,-2.952 0.21,-1.04 2.232,-3.745 2.28,-3.72 z m -73.326,19.493 c -30.67,7.268 -55.584,2.774 -58.056,1.915 l -1.954,2.914 c -0.238,0.495 -0.384,1.974 -1.71,2.376 l -1.986,2.966 0.39,0.413 -1.763,1.537 0.43,0.514 -1.283,1.863 -0.504,-0.053 -2.966,4.507 0.45,0.504 -6.81,10.662 92.146,0.03 c -5.356,-10.104 -11.087,-20.01 -16.383,-30.145 z m -0.557,1.31 0.548,1.522 c -1.523,-0.19 -3.302,-0.28 -5.11,-0.36 1.588,-0.33 3.18,-0.73 4.563,-1.163 z m -5.352,1.325 c -2.93,1.345 -4.685,2.96 -6.032,4.666 -1.677,-1.302 -3.81,-2.225 -6.355,-2.803 z m -51.78,0.74 1.304,0.148 c 0,0 -0.437,0.34 -0.75,0.27 -0.237,-0.055 -0.555,-0.42 -0.555,-0.42 z m 58.698,0.758 0.83,1.64 c -1.995,-1.057 -10.532,-3.48 -12.955,5.008 -2.548,-3.446 -13.058,-8.44 -18.39,2.18 -1.515,-2.878 -10.34,-11.156 -18.388,-0.606 -3.17,-6.557 -5.822,-7.106 -11.644,-6.21 4.14,-3.978 9.96,0.162 12.428,3.546 6.944,-5.76 12.75,-4.028 17.822,0.658 6.546,-7.127 13.073,-5.41 17.665,-1.834 3.225,-4.746 6.376,-6.177 12.633,-4.382 z m -53.61,0.043 c 4.125,0.557 8.252,0.81 12.378,1.013 -2.388,0.876 -4.837,1.63 -6.783,3.393 -1.473,-2.058 -3.52,-3.253 -5.596,-4.407 z m 29.768,0.658 c -2.252,1.06 -4.68,2.655 -6.624,4.33 -2.1,-1.71 -4.26,-3.188 -6.614,-3.93 4.32,0.21 9.103,0.02 13.238,-0.4 z m 100.46,2.31 c 0,0.016 0,0.024 0,0.028 0.01,-0.01 0,-0.014 0,-0.03 z m -74.04,1.06 c 0,0 -0.832,0.14 -1.1,0.21 -3.643,0.97 -2.85,6.103 0.898,6.102 0.357,0 1.243,-0.14 1.243,-0.14 -0.07,3.477 0.986,4.325 4.537,4.13 l 6.02,10.76 -89.042,-0.383 5.655,-9.045 c 2.843,0.334 4.63,-1.248 3.998,-3.662 0,0 1.75,0.535 2.242,0.538 3.218,0.02 4.05,-4.918 0.964,-5.774 -0.342,-0.095 -1.204,-0.19 -1.31,-0.22 1.412,-3.526 5.29,-1.445 6.4,0.02 2.5,-2.056 5.262,-1.136 6.446,1.525 0,0 -0.466,-0.26 -0.61,-0.364 -2.927,-2.14 -5.65,2.294 -2.784,4.34 0.282,0.2 0.88,0.374 0.88,0.374 0,0 -0.35,0.284 -0.67,0.82 -1.487,2.503 0.91,5.55 3.803,4.767 2.22,-0.87 2.253,-2.54 2.25,-4.378 0,0 0.77,0.058 1.456,0.067 2.666,0.03 3.43,-3.383 1.8,-4.97 -0.883,-0.857 -2.035,-0.79 -2.606,-0.9 3.073,-3.018 5.157,-0.936 7.325,0.455 0.327,-0.01 3.763,-4.134 7.847,-0.08 -1.982,-0.52 -4.012,0.765 -4.04,2.83 0.04,1.326 0.99,2.5 3.043,2.594 -0.22,0.667 -0.368,1.165 -0.38,1.813 -0.04,2.166 1.644,3.514 3.782,3.18 1.787,-0.227 3.108,-2.27 2.472,-3.968 -0.287,-0.766 -0.682,-1.047 -0.682,-1.047 4.813,0.603 4.73,-5.493 0.987,-5.863 -0.888,-0.088 -1.57,0.297 -2.466,1.116 2.2,-4.5 6.226,-3.597 7.733,-1.757 2.067,-1.5 4.918,-3.552 8.328,0.102 -0.562,-0.118 -1.354,-0.146 -2.04,0.036 -2.7,0.716 -2.712,4.15 -0.57,5.193 0.6,0.295 1.34,0.466 2.135,0.436 -0.712,2.885 2.49,4.945 4.757,3.564 1.625,-0.99 2.05,-3.327 0.292,-5.46 2.958,-0.132 3.25,-3.82 1.54,-5.112 -1.34,-1.013 -2.917,-0.532 -4.06,0.807 -0.368,-1.06 2.556,-4.74 6.686,-2.088 2.187,-1.834 4.358,-2.4 6.84,-0.567 z m 1.29,2.88 1.158,2.103 c -0.77,0.076 -1.873,-0.75 -1.157,-2.103 z m -14.927,2.136 c 0.723,0 1.31,0.587 1.31,1.31 0,0.724 -0.587,1.31 -1.31,1.31 -0.725,0 -1.31,-0.586 -1.31,-1.31 0,-0.723 0.585,-1.31 1.31,-1.31 z m -54.045,0.077 c 0.175,0.703 0.252,1.405 -1.027,1.54 z m 130.902,0.61 0,2.932 2.4,0 6.778,15.61 -6.504,10.133 -2.673,0 0,2.606 9.312,0 0,-2.606 -2.722,0 8.275,-12.634 0,12.634 -2.376,0 0,2.606 8.42,0 0,-2.606 -3.073,0 0,-25.743 3.072,0 0,-2.932 -8.42,0 0,2.932 2.377,0 c 0.058,2.525 0.072,4.7 0,7.224 -1.183,1.578 -2.41,3.505 -3.71,4.992 l -5.233,-12.217 3.39,0 0,-2.932 z m -115.85,0.657 c 0.664,0 1.2,0.537 1.2,1.2 0,0.663 -0.536,1.2 -1.2,1.2 -0.66,0 -1.2,-0.537 -1.2,-1.2 0,-0.663 0.54,-1.2 1.2,-1.2 z m 19.974,0.375 c 0.704,0 1.273,0.57 1.273,1.272 0,0.702 -0.57,1.272 -1.272,1.272 -0.7,0 -1.27,-0.57 -1.27,-1.273 0,-0.703 0.57,-1.272 1.27,-1.272 z"
           id="path4587" />
      </g>
    </g>
  </g>
</svg>
