<?xml version="1.0" encoding="UTF-8" standalone="no"?>
<!-- Created with Inkscape (http://www.inkscape.org/) -->

<svg
   xmlns:dc="http://purl.org/dc/elements/1.1/"
   xmlns:cc="http://creativecommons.org/ns#"
   xmlns:rdf="http://www.w3.org/1999/02/22-rdf-syntax-ns#"
   xmlns:svg="http://www.w3.org/2000/svg"
   xmlns="http://www.w3.org/2000/svg"
   xmlns:sodipodi="http://sodipodi.sourceforge.net/DTD/sodipodi-0.dtd"
   xmlns:inkscape="http://www.inkscape.org/namespaces/inkscape"
   width="63.281277mm"
   height="88.281372mm"
   viewBox="0 0 224.225 312.80801"
   id="svg11619"
   version="1.1"
   inkscape:version="0.91 r13725"
   sodipodi:docname="QC.svg">
  <defs
     id="defs11621" />
  <sodipodi:namedview
     id="base"
     pagecolor="#ffffff"
     bordercolor="#666666"
     borderopacity="1.0"
     inkscape:pageopacity="0.0"
     inkscape:pageshadow="2"
     inkscape:zoom="0.35"
     inkscape:cx="-557.17322"
     inkscape:cy="139.26115"
     inkscape:document-units="px"
     inkscape:current-layer="layer1"
     showgrid="false"
     fit-margin-top="0"
     fit-margin-left="0"
     fit-margin-right="0"
     fit-margin-bottom="0"
     inkscape:window-width="1600"
     inkscape:window-height="838"
     inkscape:window-x="-8"
     inkscape:window-y="-8"
     inkscape:window-maximized="1" />
  <metadata
     id="metadata11624">
    <rdf:RDF>
      <cc:Work
         rdf:about="">
        <dc:format>image/svg+xml</dc:format>
        <dc:type
           rdf:resource="http://purl.org/dc/dcmitype/StillImage" />
        <dc:title></dc:title>
      </cc:Work>
    </rdf:RDF>
  </metadata>
  <g
     inkscape:label="Calque 1"
     inkscape:groupmode="layer"
     id="layer1"
     transform="translate(-273.60179,-358.81535)">
    <g
       transform="translate(-2270.6537,324.49882)"
       id="g4673">
      <rect
         style="fill:#ffffff;stroke:#000000;stroke-width:0.99699998"
         width="223.228"
         height="311.811"
         x="2090.74"
         y="589.95203"
         ry="10.63"
         rx="10.63"
         transform="translate(454.014,-555.137)"
         id="rect4675" />
      <path
         style="fill:#d40000"
         inkscape:connector-curvature="0"
         d="m 2664.005,317.39 c 0.538,-7.93 0.076,-16.442 0.438,-22.894 -0.246,-0.455 0.638,-1.707 0.684,-1.707 -0.525,-0.96 -0.7,-3.416 -0.038,-5.595 5.188,-19.773 14.586,-35.16 24.267,-49.51 7.87,23.715 -16.846,40.352 -22.044,61.074 -1.734,7.174 -1.474,12.184 -2.14,18.666 z m -41.096,0.3 -29.406,-45.423 6.386,-3.108 30.224,48.372 z m 38.034,-84.148 c 0.26,1.304 1.285,2.004 2.374,1.407 1.067,-0.585 1.19,-0.624 0.526,0.404 -1.465,2.27 1.503,4.467 3.408,2.52 0.677,-0.693 0.79,-1.82 0.175,-2.392 -0.694,-0.646 -0.845,-0.98 0.18,-0.49 2.572,1.043 3.99,-2.68 1.496,-3.93 -0.642,-0.323 -1.894,-0.037 -2.365,0.454 -0.57,0.594 -0.65,0.385 -0.498,-0.075 0.09,-0.27 0.153,-0.713 0.368,-1.24 0.168,-0.413 0.29,-0.976 0.29,-0.976 l -2.63,0.027 c 0,0 0.212,0.604 0.427,1.11 0.203,0.477 0.28,0.834 0.378,1.032 0.354,0.715 -0.07,0.45 -0.782,-0.078 -1.002,-0.747 -2.26,-0.537 -2.976,0.445 -0.264,0.577 -0.485,1.178 -0.37,1.782 z m 3.796,-36.956 5.652,-0.168 6.216,17.154 c -4.975,8.26 -6.316,17.575 -0.528,27.017 l -17.925,0.028 c 4.204,-14.228 4.854,-29.32 6.585,-44.032 z m 5.91,22.32 c 0.76,-0.68 0.856,-1.91 0.165,-2.73 -0.87,-1.03 -0.67,-1.083 0.495,-0.41 1.683,0.972 3.292,-1.13 2.3,-2.99 -0.63,-1.18 -2.67,-1.44 -3.45,-0.39 -0.65,0.874 -0.577,0.072 -0.078,-1.09 0.184,-0.428 0.448,-1.23 0.448,-1.23 l -2.74,0.055 c 0,0 0.354,0.776 0.543,1.275 0.5,1.32 0.52,1.74 -0.25,0.89 -1.672,-1.405 -3.633,-0.387 -3.65,1.63 0.016,1.552 1.422,2.547 2.653,1.822 0.748,-0.44 1.083,-0.546 0.24,0.466 -0.58,0.964 -0.372,2.193 0.395,2.77 1.052,0.635 2.177,0.6 2.93,-0.068 z m -37.867,5.345 c 0.22,-0.16 0.302,-0.055 0.167,0.164 -0.115,0.186 -0.41,0.45 -0.662,0.73 -1.28,1.423 0.375,3.23 2.436,2.95 1.403,-0.19 2.226,-2.396 1.19,-3.267 -0.336,-0.224 -0.6,-0.267 -0.854,-0.574 -0.02,-0.122 0.037,-0.205 0.16,-0.157 0.184,0.077 0.558,0.378 0.746,0.43 1.304,0.354 2.288,-0.185 2.62,-1.105 0.208,-1.063 0.01,-2.207 -0.863,-2.804 -0.808,-0.543 -2.004,-0.387 -2.7,0.538 -0.714,0.947 -0.812,0.046 -0.23,-1.26 0.22,-0.49 0.37,-1.187 0.37,-1.187 l -2.518,0.133 c 0,0 0.134,0.542 0.356,1.165 0.56,1.422 0.96,1.83 0.246,1.095 -3.076,-1.81 -4.098,0.652 -4.148,1.632 -0.095,1.845 2.59,2.89 3.685,1.52 z m 12.315,-27.82 4.544,0.016 c -3.426,18.217 -10.447,33.477 -22.26,43.98 l -22.232,-0.07 -10.712,-7.49 4.137,-5.372 c 28.223,2.907 40.242,-11.086 46.523,-31.064 z m -20.453,42.232 c 1.33,-0.587 1.883,-2.093 1.003,-3.104 -0.795,-0.914 -0.876,-1.2 0.346,-0.487 1.635,0.953 3.216,-0.948 2.414,-2.81 -0.5,-1.157 -2.072,-1.515 -3.204,-0.728 -0.995,0.742 -0.976,0.41 -0.456,-0.76 0.257,-0.58 0.455,-1.51 0.455,-1.51 l -2.785,0.038 c 0,0 0.2,0.662 0.404,1.117 0.465,1.042 0.633,1.52 0.417,1.523 -0.105,0 -0.45,-0.317 -0.65,-0.502 -0.556,-0.51 -2.072,-0.606 -2.634,-0.068 -1.668,1.59 -0.73,4.372 1.392,3.86 1.37,-0.333 1.683,-0.853 0.548,0.435 -1.398,1.587 0.768,3.87 2.75,2.997 z m -17.57,-0.553 c 1.15,-0.544 1.537,-1.872 0.892,-2.73 -0.65,-0.863 -0.97,-1.42 0.185,-0.64 1.534,0.77 2.875,-0.255 2.856,-2 -0.02,-1.828 -2.073,-2.68 -3.584,-1.58 -0.255,0.186 -0.568,0.353 -0.625,0.354 -0.185,0.002 0.15,-0.987 0.517,-1.634 0.16,-0.28 0.44,-0.853 0.44,-0.853 l -2.786,-0.107 c 0,0 0.157,0.76 0.376,1.343 0.443,1.186 0.552,1.58 -0.226,0.908 -2.094,-1.957 -4.33,0.536 -3.447,2.69 0.467,1.21 1.896,1.21 2.74,0.605 0.765,-0.594 0.374,0.193 -0.15,0.82 -1.432,1.706 0.666,3.827 2.812,2.824 z m 127.207,-45.676 0.146,3.37 -35.996,29.997 -1.51,-2.31 z m -133.883,6.31 c 5.182,-3.69 10.947,-10.31 16.637,-13.76 4.157,9.553 -5.594,18.92 -16.638,13.76 z m 95.116,-2.42 c -5.213,-17.895 19.41,-16.704 16.317,-12.903 z m -117.012,-11.69 35.634,-29.05 1.62,2.442 -37.593,30.796 z m 97.614,-29.304 c 0.1,0.304 1.178,1.46 1.18,1.567 -0.308,-0.23 -2.138,-1.256 -3.032,-0.26 -0.312,0.366 -0.71,1.24 -0.666,2.143 0.374,1.618 2.216,2.19 3.524,1.08 0.377,-0.318 0.7,-0.705 0.777,-0.57 0.067,0.12 -0.138,0.675 -0.306,1.116 -0.193,0.452 -0.91,1.403 -0.39,1.402 l 2.53,-0.005 c 0,0 -0.093,-0.593 -0.396,-1.25 -0.566,-1.224 -0.542,-1.89 0.14,-1.007 1.33,1.72 3.907,0.286 3.637,-1.775 -0.194,-1.487 -1.7,-2.34 -2.81,-1.63 -0.12,0.078 -0.476,0.43 -0.526,0.433 -0.137,0.006 0.234,-0.56 0.48,-1.032 0.816,-1.565 -0.402,-3.014 -2.267,-2.858 -0.603,0.05 -1.262,0.43 -1.266,0.484 -0.7,0.565 -0.816,1.54 -0.61,2.164 z m 30.765,-14.573 c 3.565,3.28 7.13,5.683 10.695,7.783 l -3.364,5.31 c -22.8,-2.11 -39.382,6.905 -46.3,31.344 l -3.76,0.723 c 1.414,-15.245 6.523,-30.363 21.626,-45.136 z m -21.852,3.648 c 0.01,0.722 1.334,1.582 1.04,1.78 -0.137,0.073 -0.927,-0.615 -1.29,-0.653 -2.633,-0.28 -3.178,3.813 -0.57,4.273 0.513,0.09 1.573,-0.23 1.887,-0.487 0.418,-0.343 0.707,-0.625 0.793,-0.594 0.16,0.058 -0.204,0.788 -0.49,1.33 -0.266,0.5 -0.638,1.485 -0.638,1.485 1.044,0.188 2.05,0.23 2.993,0.013 0,0 -0.27,-0.855 -0.54,-1.507 -0.345,-0.833 -0.417,-1.36 -0.186,-1.305 0.1,0.025 0.21,0.285 0.42,0.465 1.297,1.113 3.2,0.638 3.7,-1.1 0.47,-1.635 -1.487,-3.318 -2.85,-2.404 -0.475,0.32 -0.476,0.08 0,-0.636 0.433,-0.655 0.326,-1.646 -0.067,-2.236 -1.43,-1.518 -4.267,-0.432 -4.202,1.577 z m 21.49,4.847 c -0.07,-0.364 0.022,-0.26 0.405,0.14 1.2,1.248 3.267,1.054 3.793,-0.602 0.525,-1.652 -1.08,-3.543 -2.477,-2.893 -0.726,0.337 -0.74,0.218 -0.323,-0.323 1.072,-1.395 -0.11,-3.233 -1.95,-3.212 -1.68,0.018 -2.67,1.636 -1.853,3.026 0.335,0.57 0.226,0.69 -0.363,0.404 -1.718,-0.834 -3.322,1.887 -2.062,3.5 0.74,0.95 2.454,1.05 3.434,0.108 0.52,-0.5 0.517,-0.262 0.138,0.775 -0.33,0.903 -0.696,1.634 -0.696,1.634 l 2.975,0.025 c 0,0 -0.795,-1.51 -1.02,-2.583 z m -63.706,36.556 c 0,0 -4.416,-12.29 -5.93,-18.183 3.274,-7.84 7.753,-15.434 0.223,-26.72 l 18.3,-0.05 c -5.654,12.817 -5.774,45.167 -7.103,45.246 z m 1.605,-14.386 c 0,0 -0.905,-1.242 -0.96,-2.25 -0.11,-0.645 0.058,-0.684 0.394,-0.026 1.63,1.8 3.836,0.062 3.846,-1.534 0.188,-1.46 -1.52,-2.71 -2.617,-1.982 -0.768,0.51 -0.977,0.364 -0.292,-0.586 0.966,-1.34 -0.085,-3.082 -1.812,-3.063 -2.245,0.026 -3.105,2.124 -1.496,3.622 1.19,1.106 0.08,0.452 -0.863,0.057 -1.84,-0.772 -3.046,1.1 -2.22,2.99 0.568,1.305 2.24,1.645 3.22,0.59 0.537,-0.58 1.033,-0.918 0.742,-0.044 -0.152,0.707 -0.974,2.207 -0.974,2.207 z m 2.832,-19.7 c 0,0 -1.084,-1.36 -1.27,-2.38 -0.064,-0.377 0.202,-0.282 0.818,0.247 1.97,1.69 4.673,-1.34 2.84,-3.193 -0.632,-0.636 -1.273,-0.82 -2.01,-0.436 -0.918,0.48 -0.845,0.25 -0.386,-0.248 0.672,-0.728 0.622,-2.056 -0.1,-2.7 -2.003,-1.785 -5.17,0.873 -3.31,2.78 0.81,0.83 0.425,0.722 -0.466,0.19 -1.686,-1.01 -3.552,1.754 -2.286,3.376 1.5,1.27 2.626,0.645 3.664,-0.152 0.225,-0.12 0.42,-0.173 0.422,-0.075 0,0.184 -1.037,2.63 -1.037,2.63 z m -24,-7.658 c -1.118,-0.075 -1.916,-10.507 -0.55,-13.81 2.91,-13.935 11.79,-24.084 17.317,-32.62 8.866,-12.71 7.764,-33.822 8.14,-32.98 l 1.258,0.146 c 0,0 -0.973,12.376 -0.423,17.968 0.573,4.917 0.447,5.223 0.095,5.71 -0.093,0.458 0.045,1.798 -0.055,2.26 -3.946,18.203 -13.365,36.922 -23.09,51.054 z m 91.174,-31.803 -29.946,-47.217 7.196,-0.648 c 2.67,4.23 28.685,44.577 28.685,44.577 z"
         id="path4677" />
      <path
         style="fill:#e2cf00"
         inkscape:connector-curvature="0"
         d="m 2591.122,318.534 c 3.406,-12.484 -5.82,-41.52 -11.586,-45.312 6.762,-0.285 14.895,-0.163 14.638,-0.796 0,0 28.753,45.224 28.52,45.464 -0.222,0.226 -31.572,0.644 -31.572,0.644 z m 116.54,-70.826 c -6.97,-0.99 -4.22,-6.775 0.26,-7.375 -0.584,0.097 0.48,-2.876 4.092,-4.078 0.82,-1.488 1.465,-4.03 2.216,-5.21 -2.166,0.704 -4.798,2.534 -14.638,1.092 0.857,-4.663 10.27,-5.458 13.663,-4.737 1.96,0.455 3.895,3.375 4.49,3.437 6.043,-1.007 13.73,4.46 11.404,10.007 -0.362,0.79 -1.28,-0.94 -3.315,-1.677 -6.573,-2.383 -7.033,-5.94 -8.545,-7.534 -0.55,-0.103 -3.456,5.65 -3.456,5.65 l 0.907,3.907 c 1.578,-0.144 8.585,4.185 -0.138,7.118 -2.412,8.314 -6.955,2.447 -6.94,-0.6 z m 16.51,-37.12 c -0.37,-0.38 0.295,-2.968 1.18,-4.456 0.477,-0.804 1.58,-1.344 2.23,-1.23 1.152,0.202 0.972,1.88 -0.556,6.79 -0.064,0.707 -1.624,0.782 -2.853,-1.105 z m -138.766,-34.382 c -1.912,-0.007 -0.197,-5.206 0.98,-6.857 0.385,-0.514 1.91,0.578 1.99,1.332 0.14,1.35 -1.932,6.06 -2.97,5.524 z m -1.357,-35.356 c 2.333,0.563 6.017,2.912 7.778,4.2 2.19,1.635 1.59,4.842 3.342,5.127 1.183,-0.585 3.353,-5.838 3.353,-5.838 0,0 0.544,-2.7 -1,-3.53 -3.837,-2.067 -3.77,-4.3 -3.525,-4.5 1.138,-2.95 3.405,-2.426 4.63,-2.59 0.026,-1.616 -0.028,-5.026 3.316,-4.674 2.924,0.276 3.212,4.454 1.983,4.493 -0.024,-0.072 5.53,-0.798 5.476,2.866 -0.03,1.986 -3.324,4.527 -4.35,3.604 0,0 0.55,3.96 -4.427,5.317 -1.162,1.183 -2.112,6.216 -2.112,5.77 3,-2.71 7.7,-3.344 15.115,-2.372 -4.594,8.516 -17.295,4.53 -18.288,2.883 -6.39,-1.928 -12.384,-4.438 -11.293,-10.758 z m 54.708,-20.41 c 6.76,0.613 14.153,-1.508 19.775,-0.385 0.64,0.087 1.336,1.035 1.72,1.245 2.907,1.585 5.948,1.092 10.624,-0.677 1.155,-0.437 22.587,-0.27 22.587,-0.27 4.88,7.21 13.56,20.776 13.75,20.316 0,0 -11.88,-0.135 -17.354,0.19 -3.85,0.227 -1.586,0.75 -4.258,0.867 -18.728,14.065 -22.293,44.46 -22.293,44.46 0,0 5.95,-1.567 7.506,0.076 7.362,-21.536 21.34,-31.37 40.832,-29.445 9.007,0.89 19.755,9.748 19.755,9.748 l -19.277,15.686 c -14.932,-7.533 -21.33,14.67 -16.8,14.725 l 38.817,-31.73 c 0,0 0.664,2.59 0.598,2.678 -2.766,3.627 -49.042,41.19 -49.042,41.19 l -2.032,-2.244 c 0,0 -1.276,1.134 -1.948,1.888 -0.066,1.23 0.367,2.274 1.3,3.236 -9.167,7.357 -9.47,20.855 -2.712,28.223 0,0 -2.997,0.212 -3.312,0.266 -3.808,0.652 -7.747,-18.126 -0.198,-26.865 -3.81,-7.468 -6.155,-17.63 -6.632,-18.1 0.1,1.197 -6.012,0.8 -6.012,0.8 -0.467,15.176 -2.05,30.06 -5.698,44.4 l 28.085,0.603 -11.956,20.75 c 0,0 -13.416,-0.336 -19.196,-0.74 -6.034,-3.512 -9.513,-0.842 -15.177,0.458 -8.058,0.236 -19.922,-0.14 -19.922,-0.03 -4.023,-7.99 -8.348,-13.866 -14.225,-20.716 -0.746,-1.244 23.857,-0.475 23.857,-0.475 0,0 12.297,-18.603 14.537,-23.858 1.75,-4.1 5.67,-19.03 5.67,-19.03 0.182,0.778 -2.233,-3.883 -7.857,-3.777 -4.65,30.914 -41.386,41.327 -63.49,21.43 l -0.207,-3.594 48.713,-39.513 2.164,2.502 c -0.465,-0.374 -29.905,24.124 -29.416,23.97 8.726,4.566 18.822,0.87 17.647,-14.122 6.914,-4.997 13.036,-10.82 19.054,-16.76 0.13,-0.234 6.715,14.775 6.553,17.664 3.79,-1.273 6.032,1.395 5.96,0.94 -1.362,-8.68 6.24,-41.59 6.384,-45.374 -4.22,-0.34 -9.82,-0.184 -18.598,-0.532 7.05,13.65 4.602,22.895 -5.255,31.303 l -2.062,-2.59 c 0.837,0.465 14.398,-11.27 3.48,-28.803 -0.5,0.04 -5.756,-0.475 -5.756,-0.475 0,0 10.773,-17.094 11.318,-19.513 z m 52.34,-56.41 c 0,0 30.744,-0.74 30.754,0.16 -0.98,16.52 2.87,31.585 12.16,45.52 0,0 -13.617,-0.482 -13.368,-0.31 z"
         id="path4679" />
      <path
         style="fill:#131f67"
         inkscape:connector-curvature="0"
         d="m 2735.82,62.957 -159.83,-0.196 0.992,256.528 159.633,0 z m -14.62,1.017 c -0.013,-0.014 -2.06,27.137 12.107,44.92 -8.655,-1.31 -13.61,0.015 -18.648,3.575 l 0.69,0.71 c 6.94,-4.265 12.817,-3.143 18.842,-2.48 l -0.164,34.933 c -0.043,1.696 -7.04,0.94 -11.466,-2.388 -2.1,-1.24 -4.81,-3.845 -6.026,-5.8 -0.37,-0.594 -0.758,-1.18 -0.865,-1.305 -0.406,-0.468 -2.93,-5.17 -7.563,-14.072 -2.355,-4.526 -5.47,-10.7 -7.998,-15.486 -1.638,-3.098 -4.682,-8.95 -4.897,-9.418 -0.448,-0.973 -3.762,-7.438 -5.052,-9.79 -3.406,-6.215 -8.907,-17.06 -10.87,-20.945 -0.433,-1.01 -1.094,-1.474 0.088,-1.44 0.263,0.005 0.524,0.02 0.675,0.057 0.208,0.104 0.46,-0.357 0.46,-0.357 z m -142.318,146.888 -0.1,-2.747 46.447,-38.308 1.48,1.907 z m 44.878,-67.1 c -0.186,0.068 -0.39,0.138 -0.614,0.21 -1.194,-5.32 -0.513,-12.427 0.894,-17.77 2.048,-7.418 5.874,-13.367 10.134,-19.345 9.737,-13.652 14.05,-23.943 13.874,-42.282 l 1.392,0.15 c -0.058,2.895 -0.442,5.074 -0.554,8.928 -0.174,4.13 -0.105,7.27 0.334,11.303 0.216,1.982 0.346,3.266 0.012,3.524 -0.16,0.13 -0.303,0.815 -0.157,1.067 -0.023,0.55 -0.098,1.648 -0.098,1.648 -2.23,10.92 -14.19,38.915 -25.217,52.566 z m 5.81,24.82 -2.462,-3.02 c 0,0 -1.894,-1.526 -0.192,-3.25 4.917,-4.987 4.95,-11.326 0.196,-17.026 -0.32,-0.724 1.477,-4.38 1.477,-4.38 l 3.742,0.062 c 5.837,7.102 7.43,19.65 -2.763,27.614 z m 3.438,-28.185 c 0.117,-0.486 -5.546,-0.298 -5.546,-0.298 3.517,-5.244 6.51,-10.637 9.448,-16.045 4.56,-8.184 10.884,-22.524 12.866,-32.917 1.475,12.156 3.622,30.2 14.025,30.91 3.412,0.234 7.362,-2.103 8.006,-1.716 l 21.61,-0.17 c 4.433,8.985 9.195,14.774 14.833,20.92 4.05,2.31 8.992,4.14 13.768,5.327 2.713,0.673 2.974,0.224 8.325,0.987 1.413,0.202 3.565,-0.395 3.543,-0.395 -4.275,3.373 -9.208,2.417 -14.64,0.973 -0.304,-0.08 -0.623,-0.175 -0.94,-0.287 l -4.103,6.17 c -9.13,-2.163 -38.44,-0.63 -46.168,31.237 0,0 0.794,0.405 0.61,0.186 6.136,-27.66 32.06,-33.175 44.417,-30.42 l -1.063,1.623 c -20.506,-2.508 -37.203,10.317 -41.18,28.505 l 0.397,0.36 c 7.695,-27.5 40.042,-37.673 60.097,-18.613 l 3.68,-2.605 -0.12,3.526 -49.306,41.31 -1.972,-2.04 c 0,0 -0.347,0.263 -0.74,0.59 -1.273,1.06 -1.775,1.32 -1.418,1.91 0.356,0.59 1.74,1.922 1.8,2.07 -8.178,6.665 -10.773,19.516 -3.002,28.517 0.867,0.953 0.71,1.21 0.55,0.135 -6.97,-7.585 -6.087,-21.002 2.604,-27.36 l 1.752,2.296 c -3.827,8.402 -5.868,21.506 4.194,22.64 3.605,9.66 -0.542,21.107 -5.172,28.78 -4.906,8.84 -10.85,16.186 -14.563,25.814 -1.803,4.017 -4.673,15.932 -4.522,25.038 l -1.082,-0.01 c 0,-3.717 0.247,-8.123 0.278,-10.94 0.15,-13.73 0.13,-12.916 0.44,-13.265 0.102,-0.115 0.39,-0.236 0.418,-0.333 0.04,-0.145 -0.225,-0.43 -0.33,-0.764 -0.107,-0.344 -0.29,-0.95 -0.27,-1.458 0.018,-0.508 0.495,-1.25 0.404,-1.416 -2.165,-7.58 -2.342,-21.197 -9.33,-27.453 -3.425,-2.942 -7.975,-3.06 -13.87,-0.647 -13.004,0.023 -11.076,0.69 -21.58,0.092 -4.344,-7.955 -9.613,-15.702 -15.314,-21.447 -2.665,-2.972 -6.37,-4.6 -9.854,-6.754 1.398,-2.65 2.983,-4.587 4.715,-5.845 0.36,-0.513 0.604,-1.066 1.07,-1.5 35.413,3.403 43.093,-30.895 41.477,-30.023 l -0.314,0.272 c -9.682,35.337 -44.138,34.05 -61.46,18.773 0,0 -2.446,2.126 -2.454,-0.207 -0.01,-2.12 0.767,-2.734 0.767,-2.734 l 48.612,-39.642 c 0.89,0.566 1.846,2.45 2.245,2.24 0.895,-0.477 2.215,-1.433 2.174,-2.003 -0.03,-0.436 -1.777,-3.187 -1.777,-3.187 13.006,-13.465 7.14,-19.48 2.965,-28.706 z m 18.428,-75.67 c 0.235,-0.003 0.456,0.108 0.62,0.368 0.296,0.467 -0.884,3.198 -1.613,3.68 -0.69,0.455 -0.74,-0.074 -0.24,-2.716 0.145,-0.775 0.718,-1.33 1.233,-1.334 z m 71.33,0.046 11.262,0 0.083,43.245 c -8.414,-11.827 -12.676,-25.448 -11.344,-43.245 z m -68.307,0.104 c 0.28,-0.013 0.528,0.065 0.61,0.27 0.288,0.728 -1.363,3.878 -3.406,6.49 -1.06,1.354 -1.595,1.746 -1.926,1.423 -0.28,-0.616 -0.27,-1.333 0.705,-2.46 0.805,-0.928 2.175,-3.1 2.74,-4.315 0.243,-0.712 0.486,-1.357 1.276,-1.408 z m 11.56,0.154 c 0.33,0.004 0.666,0 0.76,0.154 1.966,4.01 5.668,7.627 9.456,9.56 0.553,0.313 0.292,1.1 0.478,1.652 -4.255,-0.632 -9.84,-6.66 -11.333,-11.06 -0.01,-0.32 0.312,-0.307 0.64,-0.305 z m 6.654,-0.002 c 0.847,0.86 2.18,1.9 2.48,2.88 0.183,0.603 0.318,1.294 0.188,1.62 -0.74,0.46 -4.413,-3.8 -4.27,-4.3 0.466,-0.306 1.053,-0.37 1.602,-0.2 z m -15.93,-0.06 c 0.36,0.013 0.912,-0.008 0.993,0.264 0.46,1.86 -3.786,9.1 -6.882,11.153 -1.1,0.73 -1.172,0.538 -1.084,-0.686 0.06,-0.823 0.14,-0.757 1.27,-1.836 1.612,-1.54 3.373,-3.915 4.34,-6.02 1.244,-2.7 0.94,-2.87 1.364,-2.877 z m 2.88,0.027 c 0.404,0 0.78,0.138 0.885,0.317 0.14,0.243 -0.05,0.638 -0.18,1.126 -1.4,3.958 -4.876,9.654 -8.96,12.89 -1.588,1.224 -1.857,1.216 -1.972,-0.048 -0.067,-0.735 0.27,-0.95 1.017,-1.466 3.464,-2.402 6.577,-6.57 7.894,-10.827 0.256,-0.83 0.158,-1.574 0.61,-1.826 0.208,-0.116 0.462,-0.165 0.704,-0.165 z m 21.498,6.86 c 0.166,0.283 1.355,2.14 0.383,1.44 -0.398,-0.326 -1.122,-1.15 -2.275,-2.458 -2.726,-3.096 -2.808,-2.904 -2.754,-3.674 0.027,-1.003 -0.69,-2.65 0.86,-2.222 1.524,1.79 2.482,4.68 3.786,6.914 z m -12.41,-6.798 c 0.307,-0.006 0.673,0.052 0.978,0.113 1.795,3.375 6.177,6.338 6.16,6.323 0,0 0.11,1.468 -0.05,1.728 -0.09,0.453 -6.96,-4.765 -7.723,-7.89 0.073,-0.2 0.324,-0.268 0.634,-0.273 z m -4.89,0.06 c 1.613,2.964 4.94,9.687 12.76,12.403 0.562,0.123 1.16,1.723 0.73,2.163 -4.287,-1.243 -12.064,-5.44 -14.705,-14.524 0.257,-0.242 0.94,-0.205 1.215,-0.042 z m -2.1,0.577 c -0.267,0.004 3.693,11.432 14.973,14.84 0.975,0.305 1.547,0.728 1.485,1.305 -0.078,0.727 -0.054,0.817 -1.14,0.273 -3.077,-1.607 -7.464,-2.36 -11.127,-0.498 -0.57,0.29 -1.152,1.083 -0.69,1.582 0.262,0.254 0.908,0.065 1.733,-0.256 4.264,-1.658 10.79,-0.682 11.943,1.926 0.818,1.852 0.957,3.217 0.51,3.444 -0.34,0.173 -0.92,-0.45 -1.94,-1.344 -3.244,-2.846 -7.123,-3.638 -10.207,-0.903 -0.667,0.592 -1.328,0.49 -1.56,0.733 -0.227,0.236 0.042,0.768 0.23,1.287 0.2,0.542 0.208,0.69 0.01,1.15 -0.27,0.627 -0.28,1.43 -0.25,2.028 0.072,1.46 1.037,2.714 3.812,4.637 2.162,1.497 3.852,2.34 1.22,0.208 -4.54,-3.68 -5.365,-5.177 -2.42,-3.903 2.938,1.182 7.013,-0.002 9.9,-2.204 0.98,-0.016 1.566,-0.188 2.083,0.19 2.153,5.052 3.912,11.776 6.774,18.295 -3.417,3.86 -15.314,13.315 -23.797,12.978 -7.325,-0.29 -9.91,-12.278 -11.53,-18.903 -0.546,-2.804 -1.168,-5.657 -1.093,-9.617 0,0 0.132,-0.106 0.32,-0.07 1.23,0.23 3.342,0.392 4.415,0.14 1.95,-0.454 2.34,-0.8 2.454,-0.514 0.136,0.338 -0.676,1.1 -2.094,2.072 -0.617,0.422 -2.412,1.287 -2.223,1.414 0.43,0.287 2.6,-0.87 2.966,-1.178 0.567,-0.482 0.957,-0.512 1.228,-0.246 0.32,0.31 0.384,-0.02 -0.666,2.587 -1.16,2.874 -1.048,3.135 1.21,4.905 0.786,0.616 1.503,1.23 1.675,1.5 0.216,0.353 0.363,0.77 0.463,0.903 0.382,0.51 0.148,-0.31 -0.08,-1.617 -0.264,-0.967 -1.21,-1.927 -1.883,-2.394 -1.232,-0.857 -1.04,-1.697 -0.02,-4.616 3.01,-8.608 2.242,-12.448 -1.072,-14.318 -1.495,-0.843 -5.68,-0.618 -6.997,0.484 -0.65,0.543 -0.56,-0.523 -0.458,-0.594 7.95,-5.465 9.815,-10.677 11.843,-15.704 z m 15.345,4.218 c 2.257,2.24 5.065,5.28 6.756,7.443 0.93,1.153 1.418,2.336 2.157,3.547 0.14,0.22 0.28,0.47 0.18,0.573 -0.038,0.043 -0.36,-0.145 -0.54,-0.28 -1.653,-1.246 -8.48,-9.02 -8.48,-9.02 -0.316,-1.276 -0.534,-1.712 -0.073,-2.263 z m 1.35,5.276 c 0,0 5.915,6.46 9.304,9.636 0.668,1.4 1.944,3.415 1.912,3.755 -0.015,0.15 -0.724,-0.398 -0.724,-0.398 -3.745,-3.45 -7.204,-7.327 -10.8,-11.002 0.035,0.02 -0.283,-1.52 -0.287,-2.143 0.082,-0.304 0.442,0.03 0.597,0.15 z m 12.832,16.556 c 0.795,1.295 1.376,2.455 1.76,3.216 0.63,1.206 0.42,1.24 -0.138,0.795 -4.233,-3.464 -7.777,-7.682 -11.764,-11.546 -0.518,-0.534 -1.55,-1.718 -1.55,-1.718 0.035,0.043 -1.3,-2.785 -0.462,-2.73 0.656,0.257 1.087,0.97 1.51,1.423 2.09,2.24 6.074,6.086 10.643,10.56 z m -36.923,-9.232 c 1.745,-0.052 3.465,0.4 4.332,1.47 0.79,0.974 1.107,2.515 0.67,2.962 -0.274,0.28 -1.243,-0.507 -1.243,-0.507 -4.11,-2.307 -5.527,-1.196 -7.757,-0.52 -0.32,0.097 -0.657,-0.76 -0.25,-1.61 0.82,-1.41 2.894,-1.754 4.247,-1.795 z m 25.868,2.184 c 4.397,4.408 8.865,9.306 13.623,13.097 0.666,0.57 1.124,0.934 1.428,1.24 0.628,1.245 2.073,4.21 2.073,4.21 -5.1,-3.566 -16.587,-15.858 -16.46,-15.776 0.115,0.058 -0.96,-2.25 -0.665,-2.77 z m -8.607,0.73 c 0.803,-0.008 1.683,0.244 2.378,0.52 2.215,0.88 3.61,1.815 1.315,1.503 -3.192,-0.436 -4.284,-0.46 -5.453,-0.27 -2.172,0.348 -2.34,0.59 -2.53,0.245 -0.5,-0.905 1.882,-1.976 4.29,-2 z m -18.127,0.258 c 0.8,-0.004 1.67,0.172 2.522,0.544 2.71,1.185 3.186,1.956 0.88,1.585 -1.197,-0.192 -3.39,-0.173 -4.962,0.232 -0.498,0.128 -1.05,0.417 -1.178,0.46 -0.557,0.177 -0.71,-0.24 -0.473,-0.938 0.41,-1.207 1.683,-1.873 3.21,-1.883 z m 19.61,3.456 0.56,0.04 c -0.7,3.957 -4.65,3.57 -5.714,0.173 l 0.56,-0.012 c 2.08,3.25 3.636,1.34 4.594,-0.2 z m 2.2,0.206 c 1.827,-0.02 1.71,1.076 -0.193,1.81 -1.457,0.565 -1.622,0.463 -1.088,-0.628 0.512,-1.05 0.46,-1.173 1.28,-1.182 z m -18.81,0.142 c 0.178,3.564 -4.79,4.218 -5.093,0.33 l 0.472,-0.023 c 1.626,3.057 3.506,1.212 4.093,-0.307 z m 2.21,0.487 c 0.56,0.383 0.212,0.91 -1.01,1.655 -1.1,0.685 -1.383,-0.143 -0.476,-1.292 0.38,-0.37 1.007,-0.677 1.485,-0.363 z m 8.612,-0.005 c 0.217,-0.07 0.732,0.895 0.293,1.126 -0.26,0.137 -0.647,-0.258 -0.69,-0.55 -0.034,-0.23 0.11,-0.486 0.397,-0.576 z m 14.87,0.222 c 3.316,3.65 6.652,7.317 16.41,15.264 0,0 1.38,2.452 1.68,3.41 -0.238,0.293 -0.362,0.26 -1.046,-0.08 -6.364,-4.913 -12.28,-10.888 -16.915,-16.442 -0.22,-0.784 -0.71,-1.54 -0.127,-2.152 z m -31.595,0.364 c 0.376,-0.012 0.907,0.83 0.615,1.334 -0.243,0.19 -0.618,-0.104 -0.78,-0.336 -0.163,-0.23 -0.158,-0.65 -0.058,-0.837 0.06,-0.11 0.136,-0.158 0.223,-0.16 z m 32.982,5.057 c -0.027,-0.127 15.412,15.52 17.392,15.22 0.922,0.544 3.216,4.99 3.216,4.99 0.066,0.142 0.056,0.403 -0.317,0.22 -2.608,-1.292 -13.52,-10.346 -19.1,-17.086 -0.407,-0.982 -0.9,-2.23 -1.19,-3.344 z m -18.352,2.298 c 2.692,1.3 1.534,3.968 -1.307,2.272 -2.238,-1.36 -4.013,-1.484 -4,-0.307 0.01,0.497 0.615,1.137 1.206,1.13 1.107,0.07 2.11,0.476 3.197,0.714 1.697,0.364 2.966,-0.087 3.39,-1.117 0.722,-1.747 -0.992,-3.655 -2.122,-3.553 -1.128,0.1 -0.844,0.642 -0.362,0.86 z m 21.317,4.278 c -0.19,-0.165 7.677,8.452 18.4,15.57 0.416,0.48 1.452,2.967 1.618,3.303 -0.043,0.235 -0.28,0.005 -0.28,0.005 -5.415,-3.13 -12.564,-9.34 -19.336,-16.385 0,0 -0.65,-1.562 -0.85,-2.577 0.146,-0.068 0.306,0.02 0.448,0.085 z m -17.865,3.103 c -0.245,0.034 -0.57,0.403 -0.975,0.625 -0.824,0.454 -1.085,0.575 -3.112,-0.033 -1.1,-0.33 -1.278,-0.307 -1.935,0.18 -0.574,0.424 -0.892,0.495 -1.532,0.208 -1.152,-0.517 -1.686,-0.14 -2.753,0.23 -1.016,0.37 -1.365,-0.08 -2.28,-0.287 -0.12,0 -0.173,3.69 -0.052,3.808 0.043,0.042 0.952,-0.555 1.467,-0.818 0.887,-0.45 0.76,-0.38 2.053,-0.326 1.91,0.33 3.8,0.218 5.08,-0.284 1.592,-0.45 2.836,-0.366 3.936,0.535 0.667,0.547 1.553,0.457 1.035,-0.55 -0.177,-0.347 -0.582,-1.627 -0.533,-2.104 0.073,-0.712 -0.085,-1.168 -0.35,-1.182 -0.016,0 -0.03,-0.002 -0.047,0 z m 20.396,2.876 c 3.62,3.472 8.083,8.77 18.584,14.91 0.547,0.958 1.287,2.232 1.755,3.225 0.043,0.277 -0.025,0.522 -0.293,0.427 -6.49,-4.113 -10.096,-6.11 -19.09,-14.975 -0.56,-0.9 -1.156,-2.43 -1.62,-3.675 0.1,-0.352 0.515,0 0.664,0.09 z m -1.528,1.325 4.016,7.54 -13.524,-0.028 c 3.437,-2.048 6.717,-4.778 9.508,-7.51 z m -22.416,0.17 c -2.22,0.884 -2.556,1.067 -4.758,0.53 -1.283,-0.312 -0.93,0.432 -0.275,0.74 1.66,0.778 4.068,0.23 4.96,-0.387 0.59,-0.38 0.992,-1.247 0.072,-0.882 z m -2.28,2.328 c -2.325,0.033 -4.52,0.844 -4.683,1.788 -0.032,0.183 0.158,0.388 0.52,0.17 1.576,-0.948 5.488,-1.258 8.448,-0.19 0.48,0.174 0.562,-0.123 0.066,-0.533 -1.108,-0.914 -2.76,-1.257 -4.352,-1.235 z m 29.516,3.22 c 4.377,4.04 8.602,7.758 18.023,13.166 0.68,1.48 1.66,3.25 1.833,3.404 -8.83,-4.286 -18.452,-12.743 -18.452,-12.743 0,0 -1.514,-2.698 -1.86,-3.854 -0.033,-0.39 0.334,-0.068 0.458,0.03 z m 3.014,6.295 c 0,0 8.06,6.817 17.25,11.444 0.372,0.358 1.296,2.55 1.598,2.786 0.305,0.238 -0.364,0.237 -1.026,-0.104 -4.81,-2.216 -15.122,-9.305 -15.122,-9.305 -0.99,-1.62 -2.406,-3.308 -2.7,-4.822 z m -96.46,28.485 c 0.738,-1.576 1.49,-3.33 1.978,-4.76 2.194,0.022 3.273,-0.8 4.05,-1.79 1.113,-0.03 1.964,-0.027 3.478,-0.07 -0.05,-1.498 0.02,-3.617 0.02,-3.617 1.535,-1.58 2.576,-3.405 0.196,-6.2 0,0 -0.096,-1.3 -0.13,-3.52 -1.097,-0.176 -3.557,-0.063 -3.557,-0.063 -1.988,-2.798 -5.514,-2.093 -6.584,0 0,0 -1.584,0.086 -2.672,0.09 -0.02,0.592 -0.208,3.215 -0.208,3.215 0,0 -4.635,3.16 0.173,6.885 l -0.065,3.13 c 0.9,0.072 1.545,0.012 2.72,0.237 0,0 -1.84,4.27 -3.05,6.298 -0.413,0.11 -0.315,-0.13 -0.815,-1.545 -0.602,-1.67 -1.962,-3.495 -3.116,-4.394 -1.566,-1.207 -3.707,-1.58 -5.2,-2.63 -1.44,-1.01 -2.456,-2.314 -2.913,-2.072 -0.15,0.51 -0.315,3.425 0.227,5.3 0.763,3.082 5.197,5.047 8.902,6.522 0.284,0.184 0.538,0.462 0.54,0.563 0,0.51 -0.488,0.353 -1.704,0.23 -1.837,-0.182 -2.596,0.32 -3.24,1.89 -0.193,0.386 -0.65,1.052 -1.022,1.493 -0.37,0.442 -0.76,0.872 -0.813,1.06 -0.054,0.188 -0.436,1.14 -0.814,1.935 -0.233,0.49 -0.62,1.002 -0.648,1.726 -0.086,2.208 -0.12,5.176 0.213,7.047 0.244,1.374 1.98,2.163 2.578,2.275 0.917,0.17 1.085,1.102 0.94,1.864 -0.706,3.755 -2.868,6.053 -3.56,4.82 -0.183,-0.325 -0.375,-1.86 -0.426,-1.84 -0.034,0.012 -0.363,1.305 -0.237,1.83 0.135,0.566 0.858,0.982 1.57,0.724 1.057,-0.383 1.89,-1.43 2.545,-3.813 0.27,-0.974 0.523,-1.518 0.98,-1.59 0.835,0.06 2.137,1.78 2.137,1.78 -4.337,3.614 -12.687,10.176 -12.687,10.176 l -0.31,-118.4 68.725,0.133 c 0.383,9.386 -0.757,17.283 -4.128,25.646 -3.994,9.007 -10.193,15.702 -14.936,23.99 -5.728,10.01 -7.56,20.393 -5.61,30.836 -5.852,7.66 -10.78,11.336 -15.46,14.894 0,0 -3.51,-3.69 -5.46,-5.753 0,0 0.823,-0.07 1.785,-0.108 4.446,-0.498 9.258,-1.128 11.116,-5.756 0.265,-0.515 0.154,-0.743 -0.16,-0.814 -3.48,0.483 -6.505,-0.007 -8.48,0.133 -4.827,0.34 -6.867,2.014 -6.867,2.014 z m 0.53,3.408 c 0,0 -5.585,-2.655 -6,-2.73 -2.434,-0.44 -8.306,-3.5 -9.298,-5.58 -0.13,-0.273 -0.454,-4.068 -0.56,-4.845 0.037,-0.247 0.136,-0.238 0.38,-0.06 0.627,0.432 3.06,2.018 3.96,2.454 3.71,1.803 5.145,3.087 6.053,5.8 0.228,0.68 0.466,1.386 0.6,1.532 0.298,0.32 0.424,0.294 0.796,0.01 1.59,-2.058 2.333,-3.77 3.07,-5.98 0.095,-0.245 0.302,-0.497 0.18,-0.854 -0.29,-0.974 -1.003,-2.237 -0.274,-3.19 -2.326,0.105 -4.55,-1.593 -4.267,-3.295 0.62,-3.153 1.958,-2.585 4.464,-3.044 -0.29,-7.29 6.535,-5.52 6.518,-0.442 7.497,0.632 3.954,7.565 -0.4,6.505 1.727,3.94 -3.462,5.417 -4.192,4.747 -0.293,1.273 -2.268,5.373 -2.69,6.592 5.556,-3.938 14.495,-2.19 15.79,-2.443 -3.228,6.75 -13.78,5.108 -14.13,4.826 z m 100.035,-24.852 c 1.41,1.086 13.373,8.567 15.58,8.736 0,0 1.057,1.186 1.93,2.266 0.813,1.005 1.113,1.163 1.206,1.367 0.094,0.2 -0.306,0.19 -0.373,0.184 -5.382,-2.34 -10.857,-4.8 -15.51,-8.69 -0.628,-0.532 -0.77,-0.775 -1.08,-1.182 -0.41,-0.542 -1.626,-2.48 -1.753,-2.68 z m 3.964,6.034 c 5.472,3.075 10.123,6.056 15.108,7.66 0.71,0.266 1.074,0.284 1.43,0.534 0.353,0.25 1.872,1.19 2.23,1.4 2.276,1.334 2.51,1.27 1.945,1.494 -0.624,0.248 -4.62,-0.918 -7.994,-2.166 -5.987,-2.213 -8.104,-3.47 -10.27,-5.42 -0.487,-0.506 -2.762,-3.226 -2.45,-3.502 z m -109.075,17.148 c 0.462,-0.01 1.2,0.276 1.968,0.865 0.822,0.63 2.84,1.952 3.675,2.31 0.427,0.182 0.56,0.23 0.56,0.23 l 5.38,6.107 -13.852,11.26 c 0,0 -1.125,-1.15 -1.483,-1.534 -0.338,-0.364 -0.24,-0.667 0.18,-1.08 0.34,-0.33 0.365,-1.047 0.31,-1.4 -0.086,-0.52 -0.072,-1.11 0.59,-1.598 0.534,-0.393 0.617,-1.08 0.59,-1.272 -0.02,-0.153 0.29,-0.656 0.753,-0.993 0.972,-0.71 1.265,-1.572 0.937,-2.588 -0.138,-0.425 -0.212,-0.536 0.345,-0.908 0.99,-0.66 1.235,-1.283 1.31,-2.247 0.012,-0.152 -0.03,-0.314 -0.052,-0.435 -0.195,-1.024 0.71,-0.765 1.452,0.52 0.405,0.7 0.52,1.852 0.724,3.16 0.24,1.543 0.403,1.963 0.487,1.746 0.48,-1.246 -0.087,-5.922 -1.51,-6.556 -2.08,-0.928 -3.817,-2.82 -3.297,-3.562 0.18,-0.257 0.213,-0.17 1.48,0.416 0.743,0.343 1.43,0.62 1.533,0.625 1.468,0.047 0.578,-0.58 0.1,-0.647 -0.574,-0.08 -2.29,-1.124 -2.493,-1.49 -0.335,-0.61 -0.15,-0.917 0.312,-0.927 z m -3.543,0.804 c 1.354,-0.015 1.614,0.347 1.628,1.513 0.01,0.688 0.265,1.217 1.343,2.588 0.44,0.56 0.733,0.988 0.705,1.207 -0.048,0.36 -0.178,-0.013 -1.67,-0.19 -0.53,-0.062 -0.8,-0.07 -0.984,0.204 -0.514,0.763 -1.6,-0.03 -2.27,-1.153 -1.596,-2.676 -1.033,-4.142 1.248,-4.167 z m 25.79,1.613 14.73,18.024 -1.663,1.29 -14.783,-17.78 z m -2.46,1.106 1.576,2.663 c 0,0 -4.563,3.9 -5.763,5 -9.695,7.85 -31.58,25.673 -31.58,25.673 l -0.296,-3.585 z m -26.584,0.482 c 0.288,0.007 0.617,0.37 1.083,1.083 0.406,0.617 1.272,1.855 2.196,2.706 1.795,1.654 1.968,1.504 0.51,1.66 -0.578,0.063 -0.767,-0.006 -1.12,0.876 -1.07,1.333 -4.226,-3.442 -3.486,-5.27 0.29,-0.713 0.53,-1.06 0.818,-1.054 z m 5.137,2.578 c 0.266,-0.013 0.617,0.087 1.026,0.336 0.783,0.32 0.835,0.507 0.706,1.253 -0.123,0.713 -0.667,0.898 -1.736,-0.044 -0.812,-0.765 -0.675,-1.514 0.01,-1.546 z m 23.506,0.44 1.732,2.235 -39.277,31.76 0.01,-3.654 c 0.956,0.124 26.142,-21.76 37.536,-30.34 z m -30.458,0.364 c 0.105,-0.022 0.27,0.338 0.705,0.993 0.886,1.334 1.7,2.214 2.63,2.914 0.877,0.663 0.976,1.032 0.373,1.037 -0.257,0.002 -0.61,0.273 -0.794,0.59 -0.372,0.64 -0.405,0.49 -0.98,0.152 -0.82,-0.48 -1.644,-1.206 -1.972,-2.158 -0.31,-0.896 -0.344,-2.26 -0.09,-3.254 0.044,-0.173 0.08,-0.264 0.128,-0.274 z m 6.2,2.535 c 1.002,-0.036 1.722,1.13 1.06,2.07 -0.368,0.36 -0.7,0.532 -1.433,0.1 -0.968,-0.57 -1.143,-1.447 -0.35,-1.94 0.246,-0.152 0.492,-0.223 0.723,-0.23 z m -6.44,2.52 c 0.21,-0.01 0.588,0.294 1.224,0.946 0.487,0.5 1.335,0.927 1.674,1.117 0.76,0.424 0.797,0.572 0.383,0.912 -0.176,0.146 -0.755,0.155 -0.913,0.615 -0.45,1.317 -2.358,-0.213 -2.54,-2.095 -0.092,-0.956 -0.1,-1.482 0.17,-1.495 z m 4.795,0.156 c 1.253,0.053 1.845,1.514 0.847,2.233 -0.544,0.39 -1.916,-0.3 -2.053,-1.018 -0.088,-0.462 0.73,-1.235 1.207,-1.216 z m 29.287,1.087 c 0.727,0 1.315,0.588 1.315,1.315 0,0.726 -0.59,1.315 -1.316,1.315 -0.726,0 -1.315,-0.59 -1.315,-1.315 0,-0.727 0.588,-1.315 1.314,-1.315 z m -3.93,0.544 c 0.726,0 1.315,0.588 1.315,1.315 0,0.726 -0.59,1.315 -1.316,1.315 -0.727,0 -1.315,-0.59 -1.315,-1.315 0,-0.727 0.587,-1.315 1.314,-1.315 z m -26.34,1.756 c 0.08,-0.004 0.163,-0.004 0.25,0 1.206,0.06 1.27,1.208 0.553,1.826 -0.43,0.368 -0.817,0.485 -1.372,0.04 -0.99,-0.79 -0.624,-1.8 0.568,-1.867 z m 29.268,1.924 c 0.726,0 1.315,0.588 1.315,1.315 0,0.726 -0.59,1.315 -1.315,1.315 -0.727,0 -1.32,-0.59 -1.32,-1.315 0,-0.727 0.593,-1.315 1.32,-1.315 z m 115.447,0.077 0.06,3.325 -46.44,38.63 -1.57,-2.052 z m -118.118,0.284 -3.432,7.71 -1.032,-1.988 -2.567,0 0.788,-2.3 -1.51,-1.84 z m 73.082,32.066 6.11,-4.9 c -2.63,-13.272 7.87,-18.553 17.843,-14.697 l 6.205,-5.29 c -11.513,-9.693 -38.586,-3.117 -30.158,24.887 z m -82.672,-25.942 c 0.726,0 1.314,0.59 1.314,1.315 0,0.727 -0.588,1.315 -1.314,1.315 -0.727,0 -1.315,-0.588 -1.315,-1.315 0,-0.726 0.588,-1.315 1.315,-1.315 z m -3.993,0.322 c 0.726,0 1.273,0.547 1.273,1.273 0,0.727 -0.547,1.362 -1.274,1.362 -0.727,0 -1.316,-0.594 -1.316,-1.32 0,-0.728 0.59,-1.316 1.315,-1.316 z m 21.247,2.67 -6.06,4.85 c 1.567,12.71 -4.616,19.18 -17.906,14.824 l -6.427,5.1 c 17.366,11.943 40.092,-3.454 30.394,-24.774 z m -18.646,1.147 c 0.727,0 1.316,0.59 1.316,1.316 0,0.727 -0.59,1.315 -1.315,1.315 -0.726,0 -1.314,-0.587 -1.314,-1.314 0,-0.726 0.588,-1.315 1.315,-1.315 z m 127.448,0.334 c 0.727,0 1.32,0.59 1.32,1.315 0,0.726 -0.593,1.314 -1.32,1.314 -0.726,0 -1.315,-0.588 -1.315,-1.315 0,-0.727 0.59,-1.316 1.315,-1.316 z m -130.168,0.315 -3.873,7.66 -0.965,-2.306 -2.6,0.036 0.84,-2.675 -1.627,-1.374 z m 124.966,0.805 1.204,2.028 2.543,0.06 -0.957,1.93 1.837,1.893 -8.285,2.036 z m -134.208,5.565 c 0.726,0 1.32,0.588 1.32,1.315 0,0.726 -0.594,1.315 -1.32,1.315 -0.727,0 -1.315,-0.59 -1.315,-1.315 0,-0.727 0.588,-1.315 1.315,-1.315 z m -3.784,0.146 c 0.726,0 1.32,0.59 1.32,1.315 0,0.728 -0.594,1.316 -1.32,1.316 -0.727,0 -1.315,-0.588 -1.315,-1.315 0,-0.725 0.587,-1.314 1.314,-1.314 z m 131.586,0.782 c 0.726,0 1.315,0.59 1.315,1.315 0,0.727 -0.59,1.315 -1.315,1.315 -0.727,0 -1.315,-0.588 -1.315,-1.315 0,-0.726 0.588,-1.315 1.315,-1.315 z m 13.302,0.204 0.057,2.92 c -12.118,10.695 -37.598,31.336 -37.598,31.336 l -1.586,-2.036 c 0,0 25.924,-21.183 39.126,-32.22 z m -142.254,2.848 c 0.727,0 1.315,0.588 1.315,1.315 0,0.727 -0.588,1.32 -1.315,1.32 -0.726,0 -1.315,-0.593 -1.315,-1.32 0,-0.727 0.59,-1.315 1.315,-1.315 z m 131.643,0.316 c 0.728,0 1.316,0.588 1.316,1.315 0,0.727 -0.588,1.32 -1.315,1.32 -0.726,0 -1.314,-0.593 -1.314,-1.32 0,-0.726 0.588,-1.314 1.315,-1.314 z m -3.72,0.236 c 0.725,0 1.314,0.59 1.314,1.315 0,0.727 -0.59,1.32 -1.315,1.32 -0.728,0 -1.32,-0.593 -1.32,-1.32 0,-0.726 0.592,-1.315 1.32,-1.315 z m 14.698,0.466 -0.11,3.717 c -11.742,10.01 -35.76,29.894 -35.675,29.906 l -1.815,-2.504 c 0,0 26.327,-22.677 37.6,-31.118 z m -145.033,-0.546 -3.623,8.172 -1.563,-2.2 -2.287,-0.156 0.544,-2.21 -2.1,-1.428 z m 125.607,3.228 2.312,-0.44 -0.403,2.368 1.626,1.706 -8.52,1.872 4.12,-7.637 z m 12.73,39.813 c 1.726,2.584 1.617,5.406 0.893,5.84 -0.762,-0.43 -1.424,-1.176 -2.212,-1.516 -3.97,-1.712 -7.14,-3.117 -7.706,-5.635 -2.162,-5.697 7.584,-0.838 9.024,1.31 z m -20.863,-15.132 13.353,-10.87 c 0,0 2.048,1.054 2.435,1.533 0.138,0.528 -0.23,0.69 -0.776,1.18 -0.25,0.32 -0.406,0.63 -0.42,1.322 -0.015,0.746 0.23,1.08 -0.07,1.41 -0.504,-0.027 -0.906,0.63 -0.885,1.163 0.017,0.406 -0.515,0.856 -0.826,1.162 -0.55,0.543 -0.713,0.656 -1.068,2.496 -0.035,0.184 -0.023,0.663 -0.283,0.91 -0.773,0.07 -1.333,1.96 -1.684,2.08 -0.564,-0.036 -1.46,-0.725 -1.678,-1.742 -0.142,-0.662 -0.104,-1.946 0.053,-2.774 0.187,-0.985 0.27,-1.877 0.21,-2.114 -0.145,-0.548 -0.508,-0.21 -0.503,0.558 0,0.313 -0.118,1.25 -0.317,2.134 -0.198,0.885 -0.738,2.06 -0.496,2.76 0.363,1.04 1.696,1.48 2.297,2.03 1.582,1.45 1.926,2.158 2.106,2.48 1.264,2.31 1.268,2.705 0.95,4.444 -0.18,1 -1.157,0.83 -1.744,0.423 0,0 -3.755,-2.732 -5.39,-4.09 -2.475,-2.056 -4.213,-4.157 -5.263,-6.494 z m 5.066,7.473 c 1.433,0.58 5.162,3.286 5.162,3.286 l -3.396,7.065 c 0.618,1.107 0.867,3.855 0.867,3.855 4.295,-0.33 6.622,6.912 -0.07,6.243 0.765,4.476 -6.445,7.983 -6.248,-0.038 -7.51,0.584 -4.99,-7.924 -0.36,-6.328 -0.14,-3.605 2.264,-4.072 3.96,-4.957 1.39,-1.573 2.242,-5.132 2.242,-5.132 l -0.34,-1.086 c -1.423,2.488 -7.487,3.202 -14.15,1.883 1.803,-4.275 7.276,-4.154 12.332,-4.792 z m -13.25,5.38 c -0.227,0.85 -0.233,0.84 0.794,0.737 0.52,-0.053 2.608,-0.048 4.066,0.01 2.68,0.208 6.902,0.227 9.02,-1.386 0.408,-0.39 0.633,-0.364 0.71,-0.15 0.18,1.04 -1.875,4.468 -1.875,4.468 l -3.392,1.876 c 0,0 -1.39,0.065 -3.11,0.023 l -0.03,3.054 c -1.348,0.797 -3.66,4.213 0.057,6.832 l -0.123,3.324 3.278,0.06 c 2.175,2.082 3.946,2.073 5.943,0.112 l 3.78,0.003 -0.016,-3.59 c 1.863,-1.498 2.128,-4.04 0.224,-6.07 l -0.046,-3.643 -2.908,0.018 c 0,0 -0.602,-0.465 -0.62,-0.836 0,-0.24 2.124,-4.334 2.53,-4.918 0.53,-0.76 0.387,-0.326 1.232,1.43 1.21,2.51 2.407,3.534 5.474,5.016 2.737,1.324 3.715,1.94 4.508,2.7 0.632,0.602 1.005,0.412 1.25,-0.488 0.527,-2.003 0.364,-4.007 -0.738,-5.84 -2.328,-3.87 -6.383,-4.047 -7.027,-4.942 -0.085,-0.214 0.74,-0.46 1.628,-0.857 1.535,-0.932 3.78,-3.753 4.07,-4.885 -0.053,-0.546 0.308,-2.264 0.573,-2.645 0.306,-0.675 0.34,-0.99 0.327,-2.805 -0.275,-1.035 -0.025,-2.383 0.104,-2.847 0.14,-0.94 -0.36,-2.05 -1.072,-3.412 -0.266,-1.263 -0.204,-0.934 0.614,-3.783 0.132,-0.46 1.052,-4.428 -0.125,-4.7 0.014,0.035 0.123,0.157 0.156,0.222 0.2,0.397 0.308,2.11 0.13,2.596 -0.072,0.192 -0.206,0.69 -0.3,1.107 -0.712,3.188 -1.134,3.988 -1.78,3.29 -0.152,-0.165 -0.74,-0.402 -1.195,-0.703 -0.855,-0.568 -0.782,-0.847 -0.572,-1.91 0.052,-0.162 0.39,-1.625 0.355,-1.58 -0.185,0.502 -0.31,1.8 -0.894,2.104 -0.313,0.073 -0.746,-0.206 -1.56,-0.908 -0.312,-0.268 -0.98,-0.736 -0.98,-0.736 0,0 9.652,-8.123 13.24,-10.816 l -0.03,120.31 -68.22,0.03 c -0.853,-7.454 1.388,-17.313 5.098,-27.188 2.294,-6.104 5.588,-10.63 9.303,-16.095 7.122,-10.416 12.51,-20.994 10.432,-34.404 -0.27,-1.99 -0.545,-2.943 -0.45,-3.48 0.864,-1.623 4.298,-6.547 6.808,-8.598 3.683,-3.008 8.808,-7.503 9.22,-7.237 1.222,2.36 2.67,4.27 4.588,5.712 0.338,0.366 0.347,0.688 -0.432,0.85 -5.084,-0.045 -10.317,1.072 -12.015,5.57 z m -118.46,-34.18 c 0.725,0 1.313,0.587 1.313,1.314 0,0.726 -0.59,1.315 -1.315,1.315 -0.727,0 -1.315,-0.59 -1.315,-1.315 0,-0.727 0.588,-1.315 1.315,-1.315 z m 127.53,0.297 c 0.726,0 1.314,0.588 1.314,1.315 0,0.726 -0.588,1.315 -1.315,1.315 -0.726,0 -1.315,-0.59 -1.315,-1.315 0,-0.727 0.59,-1.315 1.315,-1.315 z m 2.864,3.607 c 0.727,0 1.315,0.59 1.315,1.315 0,0.727 -0.588,1.315 -1.315,1.315 -0.726,0 -1.315,-0.588 -1.315,-1.315 0,-0.726 0.59,-1.315 1.315,-1.315 z m -4.255,0.56 c 0.726,0 1.315,0.588 1.315,1.315 0,0.727 -0.59,1.315 -1.315,1.315 -0.727,0 -1.315,-0.588 -1.315,-1.315 0,-0.727 0.588,-1.315 1.315,-1.315 z m -4.7,2.997 2.38,-0.118 c -0.3,0.854 -0.46,1.736 -0.63,2.62 l 1.938,1.424 -8.38,1.425 3.612,-7.424 z m -5.715,21.652 -14.11,-18.22 1.702,-1.375 14.224,18.02 z m -1.723,-17.7 c 0.726,0 1.314,0.588 1.314,1.314 0,0.727 -0.587,1.315 -1.313,1.315 -0.727,0 -1.315,-0.588 -1.315,-1.315 0,-0.726 0.588,-1.315 1.315,-1.315 z m 29.635,2.04 c 1.144,0.89 0,2.137 -1.093,1.645 -0.95,-0.4 -0.878,-1.362 -0.13,-1.747 0.465,-0.22 0.82,-0.167 1.222,0.103 z m 1.522,0.848 c 1.174,0.02 2.47,2.8 2.232,3.618 -0.35,0.95 -0.67,0.985 -2.326,-0.416 -1.636,-1.383 -1.66,-1.44 -0.998,-2.19 0.367,-0.425 0.543,-0.985 1.092,-1.012 z m -27.908,0.508 c 0.727,0 1.315,0.588 1.315,1.315 0,0.726 -0.587,1.32 -1.314,1.32 -0.727,0 -1.315,-0.594 -1.315,-1.32 0,-0.727 0.59,-1.315 1.316,-1.315 z m -4.077,0.506 c 0.725,0 1.314,0.588 1.314,1.315 0,0.726 -0.59,1.315 -1.315,1.315 -0.728,0 -1.316,-0.59 -1.316,-1.315 0,-0.727 0.588,-1.315 1.315,-1.315 z m 28.882,0.938 c 1.298,0.192 1.638,1.172 1.04,1.9 -0.81,0.988 -2.63,0.092 -2.2,-1.082 0.197,-0.533 0.67,-0.808 1.16,-0.818 z m 2.328,1.48 c 0.51,-0.043 1.274,0.66 2.11,1.824 0.943,1.31 1.02,1.732 0.753,2.53 -0.39,1.165 -0.632,1.378 -1.478,0.243 -0.318,-0.427 -1.058,-1.43 -1.586,-1.983 -1.128,-1.18 -1.304,-0.88 -0.632,-1.782 0.312,-0.417 0.527,-0.806 0.832,-0.832 z m -3.05,1.376 c 1.165,0.602 1.277,1.386 0.588,1.94 -0.81,0.443 -2.24,-0.082 -2.518,-0.885 -0.406,-1.174 0.838,-1.77 1.93,-1.055 z m 1.975,1.734 c 0.66,-0.042 1.203,0.64 2.01,1.94 1.373,2.218 1.448,2.965 0.277,4.427 -0.843,1.052 -0.928,1.108 -1.752,-0.568 -0.674,-1.37 -1.955,-2.974 -3.14,-3.936 -0.497,-0.402 -0.67,-0.965 -0.313,-1.003 0.104,-0.01 0.543,-0.032 0.974,-0.048 0.635,-0.024 0.865,-0.11 1.212,-0.45 0.23,-0.225 0.476,-0.348 0.733,-0.364 z m -4.734,1.73 c 0.615,-0.03 1.407,0.303 1.997,0.99 0.67,0.702 0.59,1.345 -0.723,1.474 -0.59,0.232 -2.2,-0.824 -2.21,-1.532 -0.01,-0.595 0.396,-0.906 0.937,-0.932 z m 3.096,2.572 c 0.033,-0.002 0.063,-0.002 0.095,0 0.552,0.026 0.837,0.558 1.457,1.802 0.95,1.91 0.676,2.948 -0.968,3.793 -1.117,0.574 -1.968,0.745 -2.112,0.09 -0.04,-0.19 -0.042,-0.74 -0.134,-1.275 -0.123,-0.712 -0.286,-1.453 -0.916,-2.402 -1.005,-1.515 -1.183,-2.052 -0.08,-1.606 0.584,0.236 1.22,0.208 1.887,-0.142 0.295,-0.155 0.545,-0.248 0.77,-0.26 z m -5.577,3.07 c -0.384,-0.008 -0.63,0.226 -0.526,0.85 0.347,0.172 0.896,0.013 1.31,0.162 0.56,0.2 0.904,1.11 1.5,0.96 0.062,-0.764 -1.443,-1.954 -2.285,-1.972 z m -113.846,13.31 c -3.074,-1.463 -10.69,-4.852 -14.358,-4.9 -6.802,-1.91 -7.26,-1.043 -9.644,-1.654 12.626,-3.275 21.317,3.02 24.5,6.08 1.443,1.44 0.657,1.026 -0.498,0.475 z m 8.04,29.766 c 7.225,12.533 13.96,26.67 25.257,47.602 l -1.084,0.34 -43.084,0.077 c 2.133,-23.126 -10.363,-45.16 -11.21,-44.295 9.76,0.18 17.862,-1.702 19.573,-5.3 l -1.39,-0.397 c -5.68,4.902 -13.91,5.128 -19.585,3.613 0.13,-12.05 -0.55,-24.776 -0.174,-36.822 6.71,-0.498 11.956,1.963 15.675,6.865 6.253,8.243 10.494,18.725 16.025,28.32 z m -19.758,-33.386 c 1.728,-0.132 11.158,3.748 15.377,6.646 1.172,1.212 2.883,3.318 2.885,3.524 0.01,0.56 -0.825,-0.13 -4.9,-2.455 -3.084,-1.734 -6.283,-3.118 -9.398,-4.448 -0.143,-0.06 -0.428,-0.183 -0.428,-0.183 0,0 -0.23,-0.265 -0.626,-0.572 -1.11,-0.858 -3.265,-2.38 -2.91,-2.512 z m 4.584,4.394 c -0.093,-0.017 9.353,3.404 16.87,9.39 1,0.796 2.226,3.765 2.226,3.765 -0.67,-1.262 -12.543,-8.365 -16.71,-9.992 -0.01,-0.006 -2.386,-3.163 -2.386,-3.163 z m 3.33,4.543 c 0.516,-0.31 14.33,7.846 16.356,9.95 0.917,0.702 3.066,4.11 3.074,4.797 0.01,0.61 -0.665,0.083 -1.9,-1.06 -6.363,-5.94 -15.555,-10.418 -15.63,-10.32 z m 2.564,4.738 c 6.487,2.745 14.636,9.344 18.75,13.273 1.027,1.017 1.76,2.492 1.9,3.178 0.087,0.426 -0.128,0.397 -0.213,0.625 -5.33,-6.12 -17.042,-13.102 -18.596,-13.648 0.012,0.387 -1.288,-2.37 -1.84,-3.43 z m 21.54,19.062 c 0.746,0.76 1.93,3.43 1.664,3.756 -0.13,0.16 -0.117,0.077 -0.43,-0.14 -1.705,-1.698 -10.466,-9.47 -17.775,-13.83 -0.687,-0.344 -2.988,-3.973 -2.5,-4.043 3.82,1.247 14.75,9.972 19.04,14.258 z m -15.808,-8.675 c 0.126,0.01 0.355,0.172 0.747,0.388 6.722,3.708 16.466,13.045 18.313,15.29 0.42,0.69 1.082,1.96 1.033,2.736 -0.085,0.612 -0.33,0.092 -3.047,-2.582 -4.368,-4.277 -9.392,-8.416 -14.716,-11.892 -1.023,-0.703 -0.827,-0.793 -1.57,-2.086 -0.745,-1.296 -1.04,-1.874 -0.76,-1.854 z m 42.99,0.142 c 4.8,0.137 6.677,3.77 9.633,10.468 2.42,6.6 3.422,12.645 3.533,17.458 0.01,0.324 -0.58,0.05 -0.847,-0.023 -1.285,-0.345 -2.886,-0.668 -4.74,-0.2 -1.362,0.345 -2.656,0.306 -1.258,-0.61 0.45,-0.294 1.673,-1.425 2.323,-1.83 1.317,-0.818 0.516,-0.808 -0.79,-0.165 -0.988,0.487 -1.65,1.104 -2.057,1.2 -0.252,0.062 -0.095,-0.767 0.147,-1.36 1.395,-3.434 1.818,-5.466 -0.26,-6.103 -0.563,-0.172 -1.322,-0.693 -1.68,-1.04 -0.285,-0.278 -0.53,-1.39 -0.62,-1.434 -0.095,-0.047 -0.162,1.012 -0.16,1.173 0.01,0.552 0.714,1.67 1.566,2.28 1.445,1.037 1.73,1.324 0.946,3.78 -1.1,3.44 -1.336,4.282 -1.538,5.08 -0.116,0.46 -0.34,1.24 -0.454,1.745 -0.436,1.95 -0.383,3.654 -0.302,5.275 0.475,3.62 4.378,5.407 9.617,3.396 0.495,-0.192 0.702,-0.018 0.702,-0.018 -4.174,4.244 -8.857,6.956 -11.587,15.53 -3.51,-7.073 -8.483,-12.615 -16.75,-14.837 l -0.12,-1.477 c 2.882,1.382 8.473,3.262 12.02,1.15 1.9,-1.3 1.323,-2.135 -0.983,-1.24 -2.745,1.065 -7.703,0.94 -10.18,-0.455 -0.503,-0.284 -1.017,-0.038 -1.162,0.01 -0.13,-0.832 -1.32,-3.965 -1.145,-5.144 -0.103,-0.165 0.753,-0.173 0.918,0.046 0.685,0.914 4.163,3.637 7.776,3.424 1.796,-0.105 3.274,-0.65 4.834,-2.297 0.13,-0.116 0.766,-0.2 0.853,-0.297 0.14,-0.156 0.04,-0.39 0.034,-0.473 -0.04,-0.125 -0.273,-0.47 -0.426,-0.856 -0.2,-0.338 -0.243,-0.69 -0.21,-0.963 0.01,-0.226 0.156,-0.346 0.273,-0.504 0.136,-0.303 0.1,-0.688 0.024,-0.893 -0.32,-0.217 -0.282,-0.62 -0.11,-0.81 0.49,-0.552 -4.207,-4.84 -5.127,-4.828 -0.332,0.003 -0.136,0.614 0.54,1.063 2.386,1.585 4.126,3.655 3.73,3.926 -0.303,0.207 -1.372,-0.25 -2.46,-0.506 -2.185,-0.512 -4.807,-0.838 -7.652,1.214 -1.064,0.874 -3.877,1.006 -3.877,1.006 -0.036,-1.533 -6.51,-18.644 -6.524,-17.9 2.356,-2.746 9.758,-9.25 17.176,-12.052 2.28,-0.748 4.732,-1.13 6.377,-0.91 z m -28.12,3.83 13.464,0.208 c -3.386,1.703 -9.536,7.816 -9.536,7.816 -1.76,-3.54 -2.298,-5.307 -3.93,-8.024 z m -11.64,1.775 c 1.004,0.006 11.69,8.714 13.21,10.77 0.184,0.248 1.267,1.39 2.41,2.536 2.763,2.77 3.903,4.372 3.915,5.515 0.01,0.54 -0.486,0.19 -1.224,-0.624 -5.535,-6.15 -9.137,-9.49 -15.978,-14.205 -0.777,-0.416 -3.188,-3.626 -2.37,-3.983 0.01,-0.005 0.022,-0.01 0.038,-0.01 z m 36.557,1.604 c -0.3,-0.01 -0.252,0.28 -0.088,0.545 1.696,1.5 6.173,1.433 7.717,0.222 1.4,-1.1 -0.436,-0.52 -1.007,-0.274 -1.338,0.573 -2.773,0.51 -4.636,0.014 -1.087,-0.29 -1.687,-0.496 -1.987,-0.506 z m 4.13,2.44 c -1.567,0.016 -3.204,0.486 -2.84,1.06 0.134,0.21 0.562,0.604 1.585,0.048 1.478,-0.73 4.513,0.228 4.603,0.25 0.31,0.082 -1.008,-0.868 -1.45,-1.063 -0.49,-0.215 -1.186,-0.3 -1.898,-0.294 z m -37.73,1.63 c 5.742,3.512 12.74,10.544 16.938,15.565 0.7,0.865 1.205,1.93 1.212,2.554 0.01,0.9 -0.183,0.402 -3.997,-3.463 -2.992,-3.06 -7.506,-7.226 -10.496,-9.47 -1.797,-1.308 -2.117,-1.48 -2.962,-3.03 -0.793,-1.458 -1.08,-2.18 -0.696,-2.158 z m 35.78,1.172 c -1.08,0.513 -2.512,0.403 -3.907,-0.076 -1.263,-0.434 -0.967,-0.063 -0.487,1.315 0.217,0.628 0.352,1.516 0.354,1.647 0,0.306 0,0.328 0.894,-0.17 0.776,-0.435 0.94,-0.584 2.596,-0.2 1.684,0.393 1.71,0.248 2.503,-0.164 0.69,-0.36 0.832,-0.575 1.304,-0.385 0.924,0.37 1.968,0.53 3.152,-0.093 0.907,-0.477 1.203,-0.155 1.623,0.057 0.57,0.286 0.79,0.104 0.567,-0.464 -0.09,-0.226 -0.255,-1.197 -0.26,-1.504 -0.01,-0.583 -0.152,-1.107 -0.397,-0.984 -0.906,0.455 -1.64,0.94 -2.504,0.923 -1.583,-0.028 -2.97,-0.98 -5.437,0.1 z m -69.988,1.198 c 14.315,17.833 11.785,43.54 11.308,43.332 l -11.22,0.05 z m 37.246,3.604 c 5.718,4.01 12.523,10.998 16.294,15.83 0.642,0.835 0.12,1.098 0.44,2.105 0.118,0.373 -0.516,-0.18 -2.332,-2.13 -2.263,-2.43 -5.984,-6.085 -8.434,-8.206 -2.683,-2.324 -3.458,-2.908 -4.03,-3.694 -0.45,-0.657 -2.29,-3.814 -1.937,-3.906 z m 32.18,1.64 c -0.06,-0.002 -0.12,0.002 -0.18,0.005 -2.035,0.094 -3.07,2.375 -1.325,3.986 0.656,0.606 1.697,0.964 1.694,0.64 0,-0.08 -0.33,-0.407 -0.56,-0.583 -1.452,-1.117 -1.303,-2.858 0.35,-2.876 0.574,-0.006 0.61,0.198 1.935,1.15 1.56,1.118 3.4,1.12 3.377,-0.005 -0.016,-0.827 -0.324,-1.674 -1.717,-1.538 -0.366,0.037 -0.853,0.076 -1.28,-0.033 -0.41,-0.102 -0.762,-0.353 -0.924,-0.424 -0.484,-0.216 -0.947,-0.316 -1.37,-0.322 z m -28.463,5.25 c 4.374,2.937 10.386,9.578 13.46,13.494 0.703,0.918 0.75,1.933 0.465,2.48 -0.067,0.107 -0.605,-0.227 -0.605,-0.227 -3.553,-4.183 -7.582,-7.986 -11.537,-11.848 0,0 -2.35,-3.78 -1.783,-3.898 z m 42.406,6.353 -0.945,0.47 c -1.432,-2.147 -2.742,-2.176 -3.84,0.33 l -0.702,-0.176 c -0.524,-0.577 1.885,-6.03 5.487,-0.623 z m -0.212,-1.83 c 0.395,0.013 1.085,0.226 1.245,0.628 0.18,0.37 -0.022,0.79 -0.563,0.77 -0.082,0 -0.605,-0.643 -0.865,-1.036 -0.193,-0.24 -0.11,-0.37 0.184,-0.364 z m -16.064,2.625 -1.058,0.05 c -2.014,-2.648 -3.52,-0.87 -4.423,0.233 l -1.133,-0.153 c 0.18,-2.908 5.32,-3.92 6.614,-0.13 z m 10.29,-2.26 c 0.16,0.003 0.316,0.033 0.463,0.09 -0.418,0.632 -0.49,1.16 -0.583,1.73 -0.41,0.17 -0.997,0.526 -1.433,0.072 -0.81,-0.736 0.437,-1.914 1.552,-1.892 z m -16.522,0.297 c 0.5,0 0.35,-0.032 0.133,0.246 -0.22,0.283 -0.518,0.786 -0.678,1.235 -0.07,0.314 -0.12,0.427 -0.414,0.437 -0.56,0.018 -1.69,-0.18 -1.684,-0.173 -0.43,-0.407 1.35,-1.702 2.642,-1.745 z m 6.398,0.37 c 0.334,-0.042 0.255,0.435 0.15,0.622 -0.212,0.248 -0.296,0.33 -0.414,0.02 -0.057,-0.15 -0.144,-0.268 -0.216,-0.357 -0.164,-0.21 -0.146,-0.222 0.058,-0.258 0.092,-0.016 0.305,-0.026 0.422,-0.028 z m 17.285,2.112 c 1.232,-0.033 0.408,2.058 -1.306,2.563 -1.89,0.96 -4.062,0.73 -6.27,-0.53 -1.26,-0.718 -1.642,-1.475 -0.545,-1.172 4.136,1.14 5.142,0.928 7.637,-0.686 0.148,-0.127 0.306,-0.158 0.485,-0.175 z m -39.796,-0.453 c 4.12,3.488 7.22,7.44 10.51,11.08 0.658,0.812 0.965,1.594 0.838,2.124 -0.157,0.66 -1.508,-0.913 -1.508,-0.913 0.034,0.016 -8.038,-8.6 -8.038,-8.6 0,0 -2.05,-3.672 -1.8,-3.69 z m 12.306,1.204 c 0.286,0.01 0.854,0.142 1.77,0.378 3.96,1.2 5.16,1.157 7.436,0.11 1.45,-0.665 2.05,-0.57 1.43,0.433 -1.144,1.843 -5.18,2.047 -8.21,1.018 -0.8,-0.272 -1.506,-0.75 -2.28,-1.33 -0.413,-0.43 -0.513,-0.62 -0.146,-0.61 z m 18.268,1.22 c 0.237,-0.014 0.68,0.258 1.217,0.563 3.32,1.882 5.768,1.536 7.813,0.274 0.37,-0.336 0.57,-0.174 0.62,0.153 0.174,1.146 0.225,1.97 -0.3,2.52 -0.303,0.322 -0.82,0.467 -1.602,0.73 -3.212,1.08 -7.122,0.308 -7.87,-2.102 -0.244,-1.238 -0.398,-2.1 0.124,-2.135 z m -26.33,5.17 c 0.012,0 0.024,-0.002 0.038,0 0.232,0.035 0.768,0.504 1.613,1.462 4.416,5.01 6.86,7.888 6.414,9.337 -0.042,0 -0.07,0.312 -0.257,0.15 -2.43,-2.096 -4.412,-4.39 -5.89,-6.786 -1.617,-2.627 -2.283,-4.13 -1.92,-4.163 z m 35.605,3.525 c -3.728,2.85 -8.25,9.63 -8.654,12.973 -0.078,0.638 -0.01,1.117 -0.246,1.348 -0.188,0.184 -0.61,0.2 -1.173,0.09 -0.346,-0.063 -0.263,-0.1 -0.346,-0.49 -0.32,-1.53 1.146,-5.38 4.178,-9.916 1.59,-2.38 5.204,-5.594 6.214,-5.615 0.673,0.277 0.02,1.64 0.027,1.61 z m -27.598,-1.55 c 0.263,-0.006 0.67,0.13 1.24,0.375 3.345,1.435 4.593,1.957 6.758,3.723 4.036,3.29 8.52,11.103 7.204,11.834 -0.578,0.32 -0.988,0.12 -1.223,-0.607 -0.042,-0.132 -0.465,-1.227 -0.97,-2.155 -2.705,-4.97 -6.223,-8.39 -11.182,-10.808 -1.832,-0.893 -2.018,-0.795 -2.157,-1.542 -0.104,-0.562 -0.01,-0.81 0.332,-0.82 z m 27.543,2.872 c 0.335,-0.028 0.416,0.584 0.302,1.815 -0.093,1.003 -0.153,0.983 -1.272,2.16 -1.788,1.446 -3.902,4.847 -4.88,8.31 0,0.12 -0.092,0.384 -0.26,0.53 -0.46,0.394 -1.042,0.2 -1.44,0.193 -0.285,-0.152 -0.206,-0.778 -0.155,-1.13 0.818,-3.144 2.83,-7.005 5.988,-10.397 0.888,-0.954 1.42,-1.456 1.717,-1.48 z m -26.848,0.09 c 1.772,-0.04 8.067,4.663 10.614,8.78 1.666,2.69 2.116,3.794 1.733,4.185 -0.203,0.208 -1.098,0.24 -1.566,0.057 -0.426,-0.167 -0.59,-0.815 -1.386,-2.313 -2.08,-3.906 -5.075,-6.738 -8.32,-8.234 -0.603,-0.278 -0.926,-0.454 -1.12,-0.67 -0.218,-0.448 -0.497,-1.71 0.047,-1.804 z m 0.956,3.496 c 0.55,0.103 2.072,1.09 3.344,2.024 2.25,1.652 5.674,6.7 4.966,7.422 -0.227,0.232 -1.013,0.24 -1.417,0.082 -2.41,-4.288 -5.536,-6.33 -6.806,-7.52 -0.385,-0.648 -1.285,-2.175 -0.087,-2.008 z m -5.005,0.757 c 0.104,-0.027 0.526,0.388 1.292,1.192 2.26,2.373 3.694,5.004 3.363,6.333 -0.28,1.124 -0.61,0.51 -3.198,-4.427 -1.09,-2.078 -1.61,-3.06 -1.457,-3.098 z m 30.93,0.066 c 0.052,1.366 -0.06,1.703 -0.203,2.427 -0.1,0.494 -0.425,0.723 -0.733,1.107 -0.77,0.958 -1.642,2.613 -2.082,3.95 -0.37,1.08 -0.196,1.337 -1.523,1.192 -0.62,-0.08 -0.47,-0.248 -0.227,-0.96 0.836,-2.34 2.842,-6.13 4.768,-7.715 z m -25.695,2.574 c 0.028,-0.7 6.066,5.377 5.236,6.06 -0.787,0.138 -1.255,0.167 -1.583,-0.113 -0.645,-1.445 -3.52,-4.186 -3.52,-4.186 z m 25.36,1.916 c 0.013,-0.003 0.025,-0.003 0.037,0 0.27,0.055 0.12,3.792 -0.104,4.1 -0.43,0.218 -1.244,0.237 -1.68,0 -0.265,-0.143 -0.346,-0.41 -0.245,-0.7 0.25,-0.723 1.56,-3.31 1.992,-3.4 z m -22.79,4.11 c -0.19,0.297 -1.364,0.35 -1.807,0.014 -0.142,-0.107 -0.28,-1.96 -0.115,-2.297 0.45,-0.293 2.074,1.883 1.924,2.283 z"
         id="path4681" />
      <path
         inkscape:connector-curvature="0"
         d="m 2562.025,48.233 c -4.694,0.09 -7.02,4.02 -7.044,7.953 l 0,10.32 -2.803,0 0,3.423 2.803,0 c 0,0 0.048,1.565 0.04,2.502 -0.04,4.636 1.6,7.448 4.796,8.225 3.07,0.56 4.667,-0.102 7.002,-1.31 0.848,0.353 1.44,1.08 2.35,1.172 1.002,0.1 3.094,0.052 3.094,0.052 l -0.057,-3.514 -1.047,-0.152 c -1.998,-0.035 -2.866,-0.734 -2.65,-1.983 0.425,-0.815 0.486,-1.406 0.526,-2.39 l 0,-17.449 c -0.063,-4.278 -3.56,-6.81 -7.015,-6.847 z m -0.146,3.4 c 2.24,-0.034 4.102,2.575 4.052,5.246 l 0.034,13.482 c 0.074,0.85 -0.063,1.677 -0.436,2.26 -0.294,-0.862 -4.93,-5.598 -7.246,-5.38 0,0 -0.095,0.24 -0.16,-5.684 -0.03,-2.91 -0.794,-7.253 1.82,-9.215 0.653,-0.48 1.307,-0.7 1.935,-0.71 z m 121.452,11.684 0.757,0.993 -4.423,0.024 c 0.723,0.61 17.11,33.586 38.062,71.684 3.468,6.686 10.084,9.097 17.765,9.39 l -20.348,-32.77 c 2.167,-1.18 6.47,-4.34 9.073,-3.755 0.16,0.8 0.934,0.482 0.945,-0.228 l 0.94,0.02 0.332,0.514 3.955,0 0.323,-0.468 3.41,0.49 c -9.11,-11.228 -13.916,-28.53 -12.356,-45.422 l -30.212,0.066 -0.402,-0.53 z m -3.665,1.017 c -0.017,-0.014 -0.03,-0.02 -0.03,0 z m -34.733,21.98 c -3.435,11.092 -11.93,20.218 -16.972,29.407 -5.407,10.028 -6.677,18.753 -5.155,28.297 l 0.988,0.085 c 11.526,-15.723 20.452,-34.507 25.448,-52.98 0.108,-0.402 -0.078,-1.113 0.014,-1.52 -0.213,-0.49 -0.027,-1.017 0.11,-1.16 0.29,-0.304 0.18,-1.503 -0.034,-3.485 -0.544,-5.887 -0.437,-10.507 0.054,-15.843 0.38,-4.096 0.358,-4.74 0.358,-4.74 l -1.973,-0.03 c 0.364,6.972 -0.557,15.564 -2.838,21.97 z m 47.447,-21.497 3.243,0.066 c 0.5,9.91 8.845,11.197 10.136,11.053 -2.132,6.7 1.395,14.053 9.89,15.097 -1.95,6.212 1.5,14.4 8.295,14.178 l 0.72,0.455 c -0.44,0.895 -0.533,2.734 -0.508,2.763 -1.51,0.11 -2.33,0.33 -3.31,0.525 -8.783,-13.242 -28.466,-44.136 -28.466,-44.136 z m 28.816,0 c -0.98,11.068 1.24,26.27 6.438,35.253 0,0 -0.166,0.602 -0.274,0.766 -0.496,0.746 -0.74,0.1 -1.04,-0.502 -1.108,-2.045 -3.2,-2.363 -4.116,-1.225 -2.024,2.757 0.17,3.845 1.873,5.402 -6.96,-0.425 -9.28,-8.084 -7.67,-11.873 -0.037,0.72 0.35,1.812 0.86,2.586 1.957,2.966 4.813,0.464 3.995,-1.883 -0.34,-0.97 -1.587,-2.59 -1.587,-2.59 0,0 1.695,-0.25 2.387,-0.67 0.647,-0.4 1.056,-1.11 0.89,-2.084 -0.134,-0.782 -0.17,-1.124 -0.587,-1.827 -0.514,-0.64 -1.433,-1.085 -2.17,-1.035 -1.436,0.095 -1.61,1.084 -2.55,1.76 -0.235,-1.78 -1.375,-3.134 -3.237,-2.797 -1.416,0.257 -2.436,1.763 -1.57,3.648 0.44,0.963 1.055,1.256 1.675,2.09 -10,-1.12 -8.91,-12.994 -7.804,-12.78 0,0 0.3,-0.057 0.21,0.397 -0.57,2.906 3.04,4.642 4.622,2.53 1.01,-1.712 -1.158,-4.416 -1.158,-4.416 0,0 1.443,-0.31 2.098,-0.688 2.61,-1.506 -0.17,-5.832 -2.6,-4.77 -0.854,0.388 -1.07,1.18 -1.903,1.6 -0.557,-0.62 -0.59,-1.296 -1.59,-1.853 -2.742,-1.527 -4.456,2.085 -2.94,3.674 0.624,0.644 1.722,1.23 1.507,1.31 -8.502,-1.074 -8.42,-9.97 -8.224,-9.91 z m -73.076,0.074 1.17,0 c -0.346,5.28 -1.096,12.243 -0.605,17.39 0.572,4.917 0.598,5.614 0.246,6.102 -0.483,0.542 -0.227,0.797 -0.132,1.24 0.127,0.807 0.14,0.815 0.024,1.275 -1.03,4.128 -2.348,8.405 -4.02,12.73 -5.47,15.084 -14.397,31.53 -21.397,40.157 -0.01,-0.03 -0.32,0.027 -0.325,-0.003 -1.915,-12.035 2.178,-22.068 4.315,-26.186 4.332,-8.348 11.137,-15.474 15.177,-24.22 3.44,-7.44 5.976,-16.386 5.548,-28.483 z m 43.07,-0.05 28.512,44.34 -5.203,2.55 L 2685.32,65 Z m -85.87,4.64 c -10.11,0.15 -15.042,12.87 -6.575,18.977 1.52,1.098 1.99,1.738 1.575,2.162 -0.348,0.355 -0.817,0.19 -1.575,-0.564 -6.592,-6.47 -16.765,-2.933 -17.714,6.036 -1.572,14.865 16.924,18.762 21.664,4.61 1.36,-4.055 1.94,0.34 0.62,4.656 -1.098,3.98 -3.008,8.062 -5.24,11.46 -0.375,0.558 -0.92,1.268 -0.92,1.268 l 16.244,0 c 0,0 -0.516,-0.692 -1.248,-1.546 -2.956,-4.4 -4.557,-9.335 -5.076,-14.488 -0.12,-1.466 -0.07,-2.58 0.218,-2.763 0.492,-0.317 0.775,0.078 1.3,1.825 1.082,3.594 3.123,6.53 5.402,7.644 5.51,2.284 10.01,1.59 13.774,-3.426 8.144,-10.853 -5.173,-24.26 -14.69,-15.5 -0.875,0.797 -1.42,0.884 -1.505,0.227 -0.04,-0.317 0.205,-0.62 1.395,-1.74 8.18,-6.497 4.08,-17.633 -6.12,-18.764 -0.522,-0.056 -1.03,-0.083 -1.528,-0.076 z m -41.1,6.783 c 0.206,0.416 -0.554,0.827 -1.367,1.053 -2.295,0.64 -4.545,-0.79 -4.617,-4.08 -0.022,-1.003 -0.087,-2.075 0.265,-2.233 1.055,-0.474 5.1,4.007 5.72,5.26 z M 2707.9,73.5 c 0.738,0 1.334,0.6 1.334,1.34 0,0.738 -0.596,1.338 -1.334,1.338 -0.738,0 -1.338,-0.6 -1.338,-1.338 0,-0.74 0.6,-1.34 1.338,-1.34 z m -146.33,11.705 c -4.623,0.01 -7.045,6.302 -2.643,10.03 0.772,0.654 1.07,1.25 1.017,1.39 -0.12,0.323 -0.237,0.052 -1.178,-0.61 -4.138,-2.91 -9.107,-0.304 -8.67,3.88 0.624,5.972 7.347,7.387 9.735,1.863 0.423,-0.976 0.625,-1.28 0.852,-1.282 0.207,-0.002 0.236,0.4 0.137,1.036 -0.437,2.602 -1.7,5.34 -3.118,7.535 l 7.507,0 c -1.54,-2.327 -2.18,-4.622 -2.59,-7.492 -0.03,-0.756 0.077,-1.255 0.37,-1.258 0.198,-0.003 0.31,0.27 0.634,1.546 1.198,4.73 8.503,4.48 9.72,-0.302 1.363,-5.357 -3.697,-9.168 -7.852,-5.78 -0.586,0.48 -1.25,0.827 -1.367,0.492 -0.033,-0.095 0.34,-0.794 1.003,-1.376 4.24,-4.142 1.404,-9.683 -3.558,-9.67 z m 155.786,3.082 c 0.747,0 1.352,0.606 1.352,1.353 0,0.747 -0.605,1.353 -1.352,1.353 -0.747,0 -1.353,-0.606 -1.353,-1.353 0,-0.747 0.606,-1.353 1.353,-1.353 z m -67.937,2.64 c 0.486,1.933 -9.05,30.932 -22.602,49.386 l 5.917,0.123 0.183,0.653 c 8.29,12.238 3.105,23.066 -3.59,28.095 l 2.32,3.09 -2.087,1.688 -2.085,-2.484 c -16.964,12.724 -50.068,40.89 -50.068,40.89 l 0.185,4.518 2.583,-2.034 c 16.792,16.254 52.398,15.365 61.736,-18.187 l 2.503,0.057 c -5.647,24.592 -28.63,34.217 -45.976,30.14 l -4.063,5.836 1.088,0.582 c -0.2,-0.31 -0.384,-0.42 -0.09,-0.705 l 3.453,-4.44 c 25.952,3.323 41.62,-11.366 46.705,-31.262 l 3.31,0.057 c -2.84,16.713 -10.674,31.428 -21.847,42.944 -8.064,-0.033 -22.24,-0.218 -22.24,-0.218 5.16,5.002 15.02,20.267 15.414,21.815 0,0 10.142,0.323 21.02,0.057 3.988,-1.794 9.324,-2.514 11.816,-1.258 4.38,2.207 8.495,10.395 10.345,23.532 0.476,3.384 0.91,4.818 1.04,5.5 0.024,0.124 0.32,0.213 0.365,0.19 0.167,-0.088 -0.266,0.598 -0.284,1.107 -0.02,0.51 0,1.277 0.24,1.543 0.307,0.337 0.27,0.56 0.227,0.705 -0.028,0.095 -0.62,0.643 -0.62,0.643 -0.088,7.654 -0.045,14.602 -0.463,24.015 l 1.504,0.01 c -0.01,-15.147 4.56,-29.162 11.603,-38.81 4.283,-6.332 8.814,-13.156 11.32,-19.653 2.82,-7.314 3.21,-15 1.698,-21.484 l -1.03,0.056 c -6.196,-4.246 -8.72,-13.31 -1.09,-19.785 l -2.7,-3.516 c -7.62,5.892 -9.37,16.76 -1.476,25.755 l -3.088,-0.01 c -7.703,-9.614 -5.997,-20.653 2.904,-28.532 l -1.99,-2.53 2.163,-1.908 1.954,2.137 49.692,-41.518 -0.036,-4.544 -3.807,3.088 c -22.29,-20.607 -55.345,-6.147 -60.192,18.675 l -3.03,0.03 c 6.354,-26.71 29.76,-34.26 46.694,-30.707 l 4.18,-6.32 c -3.075,-0.865 -6.073,-2.905 -8.903,-5.316 -1.19,-1.016 -1.945,-1.638 -2.81,-2.655 -8.02,-8.475 -13.465,-20.244 -13.72,-20.264 l -21.807,-0.054 c -3.2,1.582 -8.678,3.38 -11.684,0.954 -6.456,-5.213 -8.622,-15.73 -9.51,-22.496 -0.27,-2.107 -0.497,-5.77 -0.695,-6.987 -0.123,-0.222 -0.36,-0.236 -0.576,-0.197 z m 77.31,11.697 c 0.73,0 1.32,0.595 1.32,1.324 0,0.73 -0.59,1.32 -1.32,1.32 -0.73,0 -1.32,-0.59 -1.32,-1.32 0,-0.73 0.59,-1.324 1.32,-1.324 z m 2.84,1.556 c 1.074,1.393 2.028,2.83 2.562,4.347 -0.5,-0.016 -0.972,0.14 -1.53,-0.295 -0.13,-1.533 -0.76,-2.453 -1.554,-3.475 z m -3.99,1.954 c 0.442,0.216 0.792,1.88 0.484,2.166 -0.53,0.113 -0.893,0.075 -1.072,-0.11 -0.267,-0.44 0.238,-1.97 0.59,-2.056 z m -86.724,14.464 20.244,0.024 c 3.522,2.7 6.965,2.342 11.963,0.178 l 22.51,0 1.272,2.31 -57.087,0 c 0.318,-0.86 1.098,-2.512 1.098,-2.512 z m -1.67,3.61 58.26,0 1.47,2.37 -61.173,0 z m 5.624,3.443 6.537,0 -2.422,4.11 -6.745,0 z m 14.512,0 6.24,0 -2.778,4.106 -6.182,0 z m 20.178,0 -2.625,4.106 -6.343,0 2.724,-4.068 z m 7.824,0 6.248,0 -2.337,4.106 -6.47,0 z m -83.93,0.64 c -4.05,-0.047 -3.3,5.326 -2.917,5.158 -2.544,-0.583 -4.423,0.625 -4.736,2.792 -0.248,1.72 1.433,4.17 4.37,3.83 -0.39,0.45 0.01,3.05 0.4,3.286 0,0 0.05,0.377 -1.5,3.612 -1.842,3.84 -2.218,4.022 -3.052,1.5 -0.897,-2.714 -2.285,-4.088 -5.898,-5.842 -0.963,-0.467 -2.325,-1.282 -3.028,-1.812 -1.613,-1.215 -1.632,-1.196 -1.556,1.273 0.1,3.205 1.07,4.61 4.494,6.504 1.675,0.927 4.882,2.235 5.463,2.228 0.408,-0.004 1.91,0.67 4.134,1.855 0.435,0.23 1.922,1.05 3.827,1.234 2.02,0.143 6.574,-0.334 9.214,-1.86 1.48,-0.854 2.053,-1.62 3.145,-3.807 0,0 -3.74,0.194 -5.45,-0.255 -3.55,-0.208 -5.315,-0.003 -8.007,1.395 -2.252,1.17 -2.378,1.38 -1.438,-0.553 0.43,-0.887 0.83,-1.93 1.192,-2.97 0.393,-1.034 0.496,-1.12 1.48,-1.22 2.16,-0.22 3.39,-1.467 3.59,-3.63 0.054,-0.578 -0.032,-1.19 -0.032,-1.19 1.47,0.217 4.48,-0.512 4.386,-3.558 -0.084,-2.74 -2.037,-3.37 -4.44,-3.558 0.308,-1.403 -0.716,-4.38 -3.64,-4.413 z m 0.05,0.85 c 3.55,0.024 3.467,3.282 1.92,5.13 l -1.888,-1.553 -1.523,1.405 c -1.658,-1.06 -1.65,-5.005 1.49,-4.983 z m 97.124,0.038 1.745,2.578 -3.604,0 z m -66.273,3.704 6.684,0 -2.683,3.77 -6.32,0 c 0,0 1.415,-2.407 2.318,-3.77 z m 21.068,0 -2.526,3.916 -5.842,0 2.342,-3.836 z m 7.828,0 6.04,0 -2.387,4.177 -5.97,0 z m 14.215,0 6.116,0 -2.487,4.177 -6.03,0 z m 13.854,0 6.3,0 -2.602,4.177 -6.073,0 z m -87.73,0.776 3.004,3.027 -2.928,2.933 -3.017,-2.886 z m 7.616,2.95 c -0.532,3.515 -3.92,3.324 -4.883,1.604 l 1.38,-1.575 -1.692,-1.662 c 1.644,-2.637 5.598,-1.025 5.196,1.632 z m -10.085,-1.685 -1.622,1.83 1.782,1.712 c -1.15,1.595 -5.56,1.47 -4.675,-2.37 0.56,-2.437 3.04,-2.885 4.516,-1.172 z m 102.95,-0.447 1.86,2.554 -3.486,0.03 z m -72.492,3.136 74.74,0.24 2,2.447 c -26.095,0.448 -51.647,-0.42 -78.305,-0.44 z m -26.277,1.59 c 2.963,1.816 0.776,5.644 -2.403,4.993 -2.37,-1.04 -2.854,-3.498 -0.723,-4.924 l 1.67,1.377 z m 25.63,1.466 -2.038,0.01 -1.987,2.322 c 7.51,7.91 7.234,14.773 0.237,20.755 l 2.814,3.15 c 7.85,-6.714 9.588,-17.264 0.974,-26.237 z m 7.715,0.302 c 4.21,6.578 7.85,19.036 -4.692,30.448 l -1.514,-1.836 c 10.92,-10.665 8.353,-19.633 3.462,-28.53 z m 1.168,0.16 16.972,0.067 c -3.633,13.846 -6.182,22 -6.565,43.66 l -4.905,0.027 c 0.533,-0.5 -2.54,-13.078 -6.126,-17.44 7.52,-12.767 3.467,-19.968 0.623,-26.313 z m -53.383,0.02 c 0.293,-0.002 0.894,0.377 2.072,1.083 1.056,0.634 2.43,1.435 3.05,1.784 2.332,1.306 3.49,2.54 4.154,4.422 0.496,1.408 0.187,1.436 -1.24,0.108 -1.06,-0.988 -2.19,-1.84 -5.018,-3.775 -0.996,-0.682 -1.31,-0.57 -0.733,0.26 0.416,0.6 1.312,1.28 3.126,2.384 1.317,0.802 3.13,2.408 2.986,2.645 -0.13,0.215 -0.354,0.196 -0.99,-0.08 -0.29,-0.13 -1.238,-0.517 -2.1,-0.866 -3.695,-1.5 -5.274,-3.342 -5.495,-6.405 -0.076,-1.065 -0.142,-1.557 0.19,-1.56 z m 77.45,0.066 c 0,0 0.51,0.675 0.577,0.956 0.142,0.607 -0.454,1.165 -2.332,2 -0.644,0.287 -1.18,0.443 -1.163,0.82 0.085,0.882 1.777,2.23 1.57,3.433 -0.39,0.92 -2.738,1.824 -3.325,2.91 0,0.746 1.527,1.888 1.31,2.903 -0.12,0.303 -0.61,0.613 -1.34,1.244 -1.49,1.293 -1.58,1.49 -1.035,2.498 1.27,2.338 1.317,2.165 -0.416,3.826 -1.746,1.674 -1.714,1.653 -0.88,3.108 0.9,1.568 0.858,1.497 -0.35,2.502 -1.184,0.985 -1.135,1.185 -0.5,2.408 0.613,1.182 0.752,1.2 -0.28,2.114 -1.206,1.07 -1.433,1.18 -0.582,2.526 0.88,1.39 0.945,1.332 -0.047,2.47 -0.94,1.076 -1.05,1.126 -0.54,1.858 0.64,0.92 0.762,1.164 0.09,2.176 -0.724,1.093 -0.72,1.015 -0.056,2.034 0.56,0.857 0.464,1.81 0.464,1.81 l -2.1,-0.003 c 0,0 -0.015,-1.21 -0.26,-1.652 -0.595,-1.077 -0.58,-1.41 0.128,-2.365 0.726,-0.98 0.605,-1.064 -0.07,-2.044 -0.685,-0.992 -0.587,-0.982 0.3,-2.11 0.817,-1.035 0.857,-1.524 0.394,-2.115 -1.098,-1.4 -1.096,-1.99 0.01,-2.918 0.843,-0.707 0.92,-1.022 0.193,-2.233 -0.713,-1.184 -0.803,-1.293 0.505,-2.473 1.337,-1.206 1.323,-1.18 0.426,-2.55 -0.868,-1.326 -0.822,-1.414 0.574,-2.71 1.412,-1.31 1.43,-1.312 0.506,-2.965 -0.866,-1.547 -0.873,-1.52 0.818,-3.027 1.683,-1.403 2.257,-1.58 0.577,-3.595 -0.936,-1.597 -0.27,-1.754 1.268,-2.55 2.696,-1.646 1.468,-1.544 0.335,-3.987 -0.946,-1.638 -0.405,-1.65 1.244,-2.47 0.41,-0.175 0.864,-0.378 1.33,-0.638 1.103,-0.615 0.506,-1.177 0.506,-1.177 z m 3.524,0.038 8.102,0.104 c -9.39,11.993 -13.91,27.33 -15.533,43.512 l -3.06,-0.047 c -0.192,-12.637 3.783,-28.424 10.49,-43.57 z m 41.604,0.28 c 4.634,3.902 8.07,6.135 10.512,7.016 0,0 -3.268,5.423 -3.52,5.225 -18.797,-3.62 -41.15,7.34 -46.207,30.967 l -2.96,0.02 c 1.092,-9.273 3.532,-17.016 8.025,-25.094 4.46,-7.843 8.566,-12.426 14.76,-18.203 z m -32.338,-0.2 3.992,0.072 c 0,0 0.75,0.9 1.088,1.225 1.723,1.955 1.872,1.566 -1.925,3.71 -2.398,1.353 -3.46,1.98 -3.6,2.55 -0.107,0.57 1.047,1.704 1.183,2.468 0,0.085 -3.26,2.268 -3.85,2.577 -0.823,0.4 -0.864,0.743 -0.048,2.162 0.94,1.632 0.864,1.575 -1.163,2.99 -1.977,1.38 -2.366,1.243 -1.523,2.615 1.17,1.907 0.62,2.337 -2.134,3.822 -0.695,0.375 -0.712,0.752 -0.227,2.053 0.675,1.808 0.85,1.627 -0.572,2.606 -1.678,1.157 -1.974,1.19 -1.602,1.897 1.08,2.058 1.51,2.56 0.066,3.23 -1.102,0.513 -1.125,0.803 -0.516,2.162 0.612,1.366 0.77,1.31 -0.317,2.08 -1.006,0.715 -1.6,0.556 -0.618,1.723 0.776,0.923 0.707,1.652 0.075,2.22 -0.543,0.23 -0.797,1.263 -0.638,1.285 l -1.4,0.038 c -1.098,-1.478 0.196,-2.324 0.39,-2.47 0.18,-0.34 -0.04,-0.58 -0.48,-1.38 -0.61,-1.102 -0.59,-1.234 0.287,-1.878 0.886,-0.65 0.912,-0.482 0.322,-1.92 -0.687,-1.673 -0.655,-1.864 0.425,-2.64 1.063,-0.763 1.077,-0.933 0.354,-2.398 -0.762,-1.545 -0.763,-1.546 1.125,-2.8 1.33,-0.882 1.347,-0.83 0.644,-2.465 -0.487,-1.13 -0.144,-1.52 1.664,-2.757 1.032,-0.707 1.11,-0.847 0.624,-1.69 -1.34,-2.32 -1.326,-2.39 0.984,-3.887 1.89,-1.224 1.873,-1.33 1.144,-2.96 -0.79,-1.768 -0.86,-1.632 1.732,-3.184 2.133,-1.28 2.25,-1.206 1.37,-2.745 -1.09,-1.914 -1.02,-1.6 3.246,-4.04 1.538,-1.053 2.927,-0.688 1.396,-2.482 -0.674,-0.86 -1.5,-1.788 -1.5,-1.788 z m -75.36,3.15 c 0.296,-0.01 0.527,0.354 0.512,1.027 -0.053,0.95 -0.502,1.89 -0.932,2.835 -0.903,1.92 -1.8,3.343 -2.275,3.348 -1.116,0.013 -1.086,-0.237 0.397,-3.136 0.677,-1.323 1.375,-2.834 1.485,-3.126 0.24,-0.633 0.553,-0.936 0.814,-0.945 z m 13.718,4.352 c 0.02,4.07 -12.74,6.12 -13.404,4.066 2.225,-1.742 8.802,-0.97 10.195,-2.527 -1.68,-0.097 -3.956,0.18 -5.516,0.208 -1.945,0.035 -5.087,0.866 -5.12,1.21 -0.203,-1.07 3.34,-3.08 6.148,-3.207 2.625,-0.114 5.475,0.197 7.696,0.25 z m 1.093,6.21 c 0,0 -24.882,20.59 -37.182,30.552 l 0.075,4.442 39.364,-32.226 z m -0.08,1.018 1.59,1.93 -36.952,30.107 -0.132,-3.154 z m 116.798,10.564 -1.328,1.418 c -36.09,-26.853 -69.325,13.92 -51,43.085 -0.165,0.377 -1.44,1.308 -1.44,1.308 -20.425,-33.86 18.657,-73.48 53.768,-45.81 z m -19.86,-5.88 c 2.05,0.015 5.82,1.42 7.412,3.338 1.854,2.232 1.315,3.227 -1.04,1.12 -2.533,-1.838 -4.624,-2.265 -1.107,-0.093 0.775,0.48 1.473,1.414 1.508,1.518 0.13,0.374 -0.52,-0.017 -3.466,-1.092 -1.752,-0.64 -3.973,-2.366 -4.55,-3.543 -0.432,-0.88 0.17,-1.257 1.244,-1.248 z m -7.596,0.06 c 0.64,-0.005 1.208,0.045 1.612,0.16 2.582,0.742 3.395,1.13 4.357,1.88 0.66,0.51 0.448,0.88 -0.316,0.552 -0.89,-0.38 -3.71,-1.22 -4.215,-1.168 -0.734,0.075 0,0.555 1.054,0.818 2.334,0.584 3.49,1.186 1.826,1.21 -0.868,0.13 -4.67,0.142 -5.704,0.02 -1.73,-0.204 -4.32,-1.78 -3.723,-2.346 0.643,-0.61 3.19,-1.11 5.11,-1.126 z m -7.403,2.427 c 3.06,0.036 4.716,1.18 1.37,1.41 -5.75,0.91 -6.856,2.16 -0.482,0.67 1.483,-0.346 1.456,0.19 0.43,0.692 -0.838,0.407 -1.885,0.608 -2.757,1.03 -1.57,0.655 -5.173,0.8 -6.578,0.266 -2.074,-0.79 4.435,-4.11 8.017,-4.068 z m 24.628,0.52 c 1.547,0.04 4.846,2.282 6.315,4.385 0.96,1.374 0.482,2.36 -0.97,1.258 -0.29,-0.22 -2.374,-1.992 -2.488,-2.034 -0.195,-0.07 1.73,1.756 2.01,2.27 0.242,0.437 0.797,1.437 -0.24,1.457 -1.622,-0.2 -5.43,-4.454 -5.454,-6.554 -0.01,-0.562 0.313,-0.794 0.828,-0.78 z m -19.19,1.197 c 0.645,-0.02 0.316,0.32 -0.908,1.182 -2.207,1.554 -1.056,1.243 1.523,-0.085 0.784,-0.404 1.73,-0.72 2.063,-0.78 0.332,-0.063 0.727,-0.153 0.88,-0.2 0.693,-0.213 0.158,0.642 -0.97,1.547 -2.374,1.903 -5.055,3.397 -6.906,3.855 -2.36,0.584 -2.86,0.658 -1.987,-0.814 1.386,-2.34 3.404,-4.21 5.33,-4.574 0.435,-0.082 0.76,-0.125 0.976,-0.132 z m 7.938,0.038 c 0.982,-0.02 2.197,0.183 4.11,0.596 1.345,0.42 0.993,0.51 -0.62,0.685 -3.032,0.333 -1.77,0.687 1.178,0.635 4.022,-0.03 -2.015,1.45 -3.973,1.746 -1.526,0.07 -1.975,0.015 -5.306,-0.61 -1.27,-0.237 -0.508,-1.167 1.897,-2.317 0.984,-0.47 1.733,-0.714 2.716,-0.733 z m 24.856,0.544 0.11,2.592 -48.697,40.716 -1.656,-1.83 z m -16.57,2.227 c 1.942,-0.024 4.748,1.322 4.447,2.135 -0.114,0.303 -0.33,0.29 -1.813,-0.104 -0.972,-0.258 -2.715,-0.532 -2.483,-0.316 0.08,0.074 1.44,0.594 1.958,0.72 1.715,0.41 3.77,1.38 3.316,1.668 -0.795,0.484 -1.523,0.106 -2.464,0.005 -2.355,-0.327 -6.223,-1.516 -6.86,-2.11 -0.72,-0.673 1.81,-1.968 3.9,-1.996 z m -22.713,0.153 c 0.35,0.018 0.48,0.344 0.146,0.79 -0.508,0.67 -0.74,1.23 -1.197,2.053 -1.63,2.513 -2.655,3.51 -4.22,4.484 -1.565,0.974 -1.79,0.807 -1.65,-1.22 0.174,-2.106 1.682,-4.32 3.81,-5.36 0.984,-0.14 1.548,-0.398 0.517,0.837 -1.83,2.192 -0.578,1.968 1.13,-0.52 0.543,-0.79 1.112,-1.083 1.462,-1.064 z m -6.325,0.293 c 1.055,-0.005 1.41,0.368 0.057,1.003 -1.288,0.603 -3.85,2.394 -3.912,2.59 -0.107,0.334 0.852,-0.19 2.445,-1.06 2.13,-1.16 2.316,-1.134 1.287,0.195 -1.164,1.503 -3.965,3.386 -6.163,4.082 -3.077,0.843 -3.002,0.254 -1.283,-2.03 1.638,-2.48 3.03,-3.664 5.127,-4.34 0.92,-0.298 1.808,-0.438 2.44,-0.44 z m -52.163,0.378 c 11.16,19.245 4.964,38.798 -7.983,48.77 -13.536,10.425 -34.593,9.806 -47.02,-2.705 l 1.724,-1.63 c -0.01,0.01 19.59,19.966 44.27,2.25 12.526,-8.99 17.7,-30.22 7.366,-45.02 z m -49.987,0.043 c -0.037,0 -0.065,0.006 -0.086,0.02 -0.376,0.243 -1.792,4.4 -2.077,6.124 -0.083,0.506 0.04,1 0.454,1.406 0.29,0.285 0.763,0.1 0.908,0.043 0.944,-0.428 1.464,-1.083 2.29,-3.156 0.553,-1.135 0.63,-2.492 0.52,-2.966 -0.045,-0.192 -0.35,-0.64 -0.733,-0.894 -0.425,-0.282 -1.024,-0.58 -1.277,-0.577 z m 0.217,0.866 c 0.446,-0.005 1.33,0.722 1.438,1.24 0.01,0.9 -0.508,2.403 -0.894,2.18 -0.644,-0.8 -1.386,-0.296 -1.51,-0.587 -0.082,-0.888 0.49,-2.05 0.88,-2.824 0.026,-0.007 0.056,-0.01 0.086,-0.01 z m 120.522,0.72 c 4.962,0 9.896,1.453 13.518,4.662 l -1.934,1.774 c -8.497,-6.058 -18.39,-4.285 -24.25,-0.2 -5.805,4.045 -10.94,13 -5.91,25.61 l -1.815,1.645 c -5.638,-10.143 -2.613,-23.548 7.364,-29.89 3.518,-2.235 8.025,-3.515 12.544,-3.6 l 0.484,-0.003 z m -73.377,1.48 c 0.15,0 0.38,0.492 0.354,1.096 -0.028,0.725 -0.335,1.672 -0.826,1.873 -0.554,0.226 -0.904,-1.424 -0.904,-1.424 0.34,-0.54 0.804,-1.087 1.377,-1.548 z m 88.84,0.567 c 0.202,-0.01 0.398,-0.002 0.567,0.02 0.554,0.067 0.56,0.563 0.038,1.04 -0.563,0.513 -0.856,0.54 -1.424,0.127 -0.507,-0.37 -0.533,-0.64 -0.094,-0.956 0.23,-0.144 0.576,-0.213 0.912,-0.23 z m -95.302,0.113 1.646,2.03 -5.703,4.588 -0.68,0.053 -43.67,36.16 -0.01,-3.21 z m 91.24,4.896 -5.947,4.906 c -11.887,-6.175 -21.42,4.83 -18.056,14.826 l -5.143,4.463 c -9.2,-25.245 17.704,-33.884 29.145,-24.196 z m -31.14,-3.856 c 0.02,-0.004 0.035,-0.004 0.052,0 0.04,0.01 0.08,0.038 0.12,0.076 0.207,0.203 -0.207,3.55 -0.517,4.17 -0.112,0.227 -0.2,0.52 -0.2,0.65 0,0.274 -1.093,2.57 -1.952,4.086 -0.324,0.57 -0.67,1.32 -0.766,1.67 -0.69,3.314 -2.176,-2.015 -1.65,-5.11 0.246,-1.452 2.31,-4.454 2.908,-4.232 0.305,0.113 0.283,0.343 -0.25,1.504 -1.49,3.242 -1.865,4.913 -0.3,1.78 1.806,-3.614 2.276,-4.543 2.555,-4.594 z m -101.03,0.066 c 0.222,0.013 0.397,0.135 0.493,0.393 0.066,0.22 0.138,0.675 0.014,0.898 -0.305,0.688 -0.936,1.14 -1.575,1.1 -0.28,-0.02 -0.586,-0.266 -0.624,-0.57 -0.034,-0.273 0.033,-0.738 0.378,-1.092 0.456,-0.465 0.948,-0.75 1.316,-0.728 z m 45.277,0.208 c 0.705,0.035 1.447,1.93 0.975,2.796 -0.387,0.708 -0.46,0.576 -1.136,-0.795 -0.354,-0.722 -0.628,-1.496 -0.628,-1.496 l 0.577,-0.454 c 0.046,-0.025 0.098,-0.04 0.146,-0.047 0.023,-0.003 0.044,-0.006 0.066,-0.005 z m -1.187,0.8 c 0,0 0.74,1.342 0.922,2.412 0.11,0.653 0.093,0.53 -0.624,0.26 -0.565,-0.353 -0.69,-0.557 -1.04,-0.998 -0.232,-0.408 -0.464,-0.71 -0.464,-0.71 z m 4.456,0.288 c 0.375,-0.013 0.777,0.366 1.145,1.29 1.383,3.478 1.256,7.38 -0.298,9.22 -0.257,0.305 -0.32,0.32 -0.63,0.128 -0.25,-0.156 -0.276,-1.807 -0.032,-2.275 0.077,-0.148 0.305,-1.145 0.322,-1.71 0.04,-1.334 -0.326,-1.502 -0.502,-0.264 -0.202,1.43 -0.423,2.43 -0.813,1.57 -0.196,-0.436 -0.296,-0.873 -0.445,-1.338 -0.777,-3.006 0.13,-6.584 1.254,-6.622 z m -6.02,0.89 c 0,0 1.33,1.717 1.877,2.33 0.194,0.333 0.186,0.418 -0.123,0.536 -0.526,0.2 -2.287,-0.97 -2.984,-1.334 -0.377,-0.3 -0.213,-0.53 -0.213,-0.53 0.48,-0.362 0.96,-0.718 1.442,-1.003 z m 52.465,0.06 c 0.71,-0.007 0.71,0.24 -0.047,1.33 -4.23,6.087 -3.377,5.183 -0.686,1.854 1.496,-1.85 1.756,-2.027 1.92,-1.613 0.123,0.31 -1.657,3.912 -2.577,5.217 -0.476,0.675 -2.102,1.803 -2.924,2.22 -2.01,1.018 -1.788,0.608 -1.044,-1.917 0.948,-3.917 3.33,-7.068 5.36,-7.09 z m -54.95,2.106 c 11.6,28.842 -20.16,41.5 -34.49,28.162 l 1.67,-1.33 c 19.933,13.52 39.608,-8.138 30.603,-25.087 0,0 0.816,-0.678 2.218,-1.745 z m 2.688,0.7 c 1.91,0.195 4.73,3.688 4.872,5.633 0.3,1.382 -0.09,1.62 -0.767,0.648 -1.143,-2.112 -1.006,-0.773 -0.033,1.325 0.517,1.06 0.637,2.33 0.1,2.398 -0.735,-0.15 -2.324,-2.683 -2.81,-3.727 -1.158,-2.29 -1.243,-1.902 -1.878,-5.294 -0.12,-0.636 0.047,-0.98 0.516,-0.984 z m -5.77,0.946 c 8.834,16.943 -10.172,37.3 -29.502,24.142 l 5.795,-4.598 c 10.09,4.84 21.345,-1.163 18.12,-15.074 z m 88.135,3.16 -15.938,13.28 c -3.28,-11.01 8.763,-17.296 15.938,-13.28 z m -29.6,-0.03 c 0.52,-0.107 0.96,3.226 1.058,7.905 0.095,4.577 0.212,5.03 -1.21,3.344 -0.597,-0.687 -1.33,-1.342 -1.656,-1.958 -0.945,-1.787 -0.645,-3.66 -0.383,-6.273 0.243,-2.44 1.116,-2.058 0.974,0.496 -0.09,1.644 -0.073,3.688 0.185,3.685 0.094,0 0.12,-0.16 0.062,-0.383 -0.123,-0.468 0.44,-5.765 0.672,-6.39 0.1,-0.27 0.2,-0.406 0.297,-0.426 z m -43.925,2.016 c 1.15,0.45 1.48,4.293 0.232,8.008 -0.536,1.596 -1.36,2.64 -2.587,3.283 -0.877,0.46 -1.08,0.313 -0.686,-0.487 0.727,-1.306 1.115,-2.658 1.41,-4.343 0.117,-1.644 -0.75,-0.324 -0.677,0.38 -0.68,3.065 -1.572,3.527 -1.457,0.297 0.085,-2.38 0.397,-3.402 1.518,-5.038 0.564,-0.82 1.167,-1.947 2.247,-2.1 z m 39.974,0.388 c 0.474,0.004 0.59,0.64 0.165,1.878 -0.293,0.858 -1.295,3.637 -1.177,3.628 0.073,-0.006 1.148,-2.506 1.367,-2.914 0.36,-0.67 0.493,-0.796 0.81,-0.766 0.307,1.234 -0.01,2.776 -0.162,4.053 -0.65,3.332 -2.92,6.772 -3.79,5.748 -1.415,-1.668 -0.752,-8.423 1.127,-10.477 0.707,-0.772 1.292,-1.15 1.66,-1.148 z m -60.7,0.51 c 1.71,11.783 -8.01,16.813 -16.41,13.26 0.178,-0.045 16.41,-13.26 16.41,-13.26 z m 39.74,0.218 1.694,2.223 3.104,0.16 -1.59,2.343 1.58,3 -3.462,0.065 -1.99,2.29 -1.732,-2.067 -3.027,-0.16 1.764,-2.815 -1.424,-2.692 3.27,-0.156 z m -26.038,1.013 c 0.388,0.013 2.302,2.528 2.492,3.457 0.578,2.25 0.364,6.504 -0.445,6.357 -0.877,-3.064 -0.536,-4.646 -0.85,-4.294 -0.547,0.563 0.337,5.26 0.046,6.418 -0.14,0.296 -0.608,-0.06 -1.135,-0.817 -1.408,-2.024 -1.218,-9.943 -0.142,-11.11 0.01,-0.006 0.02,-0.01 0.033,-0.01 z m 103.62,4.774 -38.294,31.723 2.21,2.842 36.154,-29.85 z m -55.308,0.547 c 0.167,-0.034 0.55,0.234 1.268,1.022 1.253,1.692 2.58,4.016 3.065,5.803 0.183,0.695 0.478,1.616 0.657,2.047 0.27,0.648 0.29,0.827 0.133,1.022 -0.664,0.817 -3.438,-1.242 -4.333,-3.213 -1.257,-2.768 -1.29,-5.262 -0.03,-2.833 0.46,0.884 1.03,2.172 1.023,1.66 0,-0.145 -0.558,-2 -0.984,-2.828 -0.263,-0.52 -1.226,-2.595 -0.798,-2.682 z m 54.902,0.77 0.08,2.626 -35.665,29.828 -1.4,-1.703 c 0,0 33.592,-27.94 36.984,-30.75 z m -55.683,1.623 c 0.17,0.017 0.255,0.257 0.205,0.79 -0.163,1.734 -0.59,5.51 -0.502,5.842 0.054,0.2 0.565,-2.5 0.682,-2.98 0.61,-2.503 1.54,3.478 0.98,6.157 -0.09,0.422 -0.268,1.1 -0.36,1.52 -0.093,0.416 -0.392,1.13 -0.512,1.318 -1.01,1.59 -3.384,-4.737 -2.984,-7.96 0.248,-2.007 1.893,-4.748 2.49,-4.688 z m -41.26,1.386 c 0.468,-0.025 0.558,0.433 0.48,1.396 -0.27,3.298 -2.465,6.763 -4.868,7.685 -2.394,0.918 -2.617,0.733 -1.197,-0.98 1.076,-1.298 1.728,-2.66 1.547,-2.837 -0.1,-0.098 -0.34,0.447 -1.21,1.565 -1.094,1.402 -1.274,0.215 -0.28,-1.844 0.858,-1.78 1.66,-2.71 3.273,-3.8 1.138,-0.767 1.844,-1.165 2.256,-1.187 z m 21.688,1.003 c -0.482,14.21 -4.024,29.647 -10.864,43.067 l -6.39,0.014 c 7.824,-11.526 12.818,-25.796 14.208,-43.02 z m 2.81,0.014 c 0,0 0.958,0.995 1.348,1.665 0.43,0.74 0.55,1.386 -0.232,1.94 -0.907,0.766 -1.285,0.48 0.194,2.383 0.78,1.003 0.526,1.167 -0.44,2.01 -0.997,0.872 -1.054,0.92 -0.127,2.096 0.992,1.26 1.17,1.454 -0.122,2.427 -1.166,0.877 -1.18,1.083 -0.27,2.508 0.838,1.312 1.092,1.3 -0.515,2.658 -1.374,1.16 -1.406,0.84 -0.08,2.975 0.487,0.787 0.453,0.838 -0.44,1.628 -2.196,1.942 -2.082,1.82 -1.77,2.332 2.406,3.448 1.318,3.35 -1.036,4.995 -0.475,0.406 -0.352,0.865 0.71,2.587 0.903,1.465 0.77,1.78 -1.343,3.236 -2.203,1.514 -2.275,1.72 -1.174,3.263 1.085,1.523 1.11,1.42 -0.652,2.99 -0.795,0.71 -1.448,1.363 -1.448,1.363 l -3.902,0 c 0,0 0.824,-0.752 1.386,-1.168 3.204,-2.372 3.192,-2.12 1.84,-3.832 -1.196,-1.513 -1.08,-1.613 0.132,-2.478 0.872,-0.623 2.047,-1.265 2.928,-1.902 0.475,-0.337 0.124,-0.62 -0.667,-2.114 -0.886,-1.677 -0.934,-1.483 0.715,-2.84 1.804,-1.484 1.834,-1.43 0.856,-3.31 -0.98,-1.887 -0.998,-1.723 0.24,-2.734 1.843,-1.503 1.93,-1.423 0.96,-3.164 -0.772,-1.39 -0.78,-1.35 0.526,-2.654 1.317,-1.315 1.153,-1.232 0.374,-2.436 -0.792,-1.224 -0.75,-1.39 0.293,-2.318 1.126,-1 0.967,-0.94 0.034,-2.218 -0.92,-1.26 -0.905,-1.166 0.213,-2.143 0.588,-0.513 1.178,-1.036 1.145,-1.277 -0.087,-0.622 -0.68,-1.506 -1.254,-2.355 -0.218,-0.324 0.22,-0.423 0.918,-1.15 0.71,-0.737 0.68,-0.552 0.142,-1.53 -0.29,-0.53 -0.842,-1.425 -0.842,-1.425 z m -10.458,0.033 1.112,0.03 c 0,0 0.19,0.25 0.45,0.514 0.713,0.73 0.744,1.156 0.027,1.547 -0.69,0.375 -0.425,0.9 0.15,1.745 0.61,0.896 0.606,0.793 -0.27,1.674 -0.902,0.734 -1.37,0.942 -0.373,2.332 0.566,0.644 0.496,1.31 -0.383,1.887 -0.675,0.444 -1.797,0.813 -0.615,2.502 0.576,1.204 0.622,1.127 -0.583,1.982 -1.602,1.138 -1.904,0.94 -1.168,2.597 0.818,1.843 0.9,1.87 -0.78,3.108 -1.954,1.436 -2.02,1.552 -1.207,3.273 0.82,1.735 0.84,1.295 -1.226,2.904 -1.513,1.178 -1.857,1.243 -1.41,2.217 0.84,1.827 1.197,2.316 -1.253,3.572 -2.828,1.448 -2.97,1.556 -1.612,3.712 1.104,1.753 0.86,1.504 -0.965,2.554 -2.637,1.517 -3.802,2.178 -3.884,2.65 -0.054,0.532 2.058,2.118 2.058,2.118 l -3.68,0.1 c 0,0 -1.546,-1.257 -2.147,-1.84 -1.664,-1.62 -1.682,-1.09 3.85,-3.775 3.054,-1.483 2.798,-1.147 2.3,-2.012 -1.473,-2.553 -1.524,-2.82 1.24,-4.21 2.4,-1.208 1.987,-1.294 1.404,-3.12 -0.51,-1.593 -0.428,-1.447 0.837,-2.385 3.058,-2.27 2.975,-2.034 2.497,-3.146 -0.468,-1.094 -0.83,-1.603 -0.477,-2.142 1.102,-1.58 3.447,-1.917 2.488,-3.8 -0.446,-1.213 -0.605,-1.484 0.744,-2.534 1.217,-1.012 1.224,-0.89 0.445,-2.227 -0.95,-1.227 -0.813,-1.43 0.576,-2.393 0.99,-0.905 0.976,-0.88 0.42,-1.765 -0.765,-1.217 -0.728,-1.255 0.365,-2.213 0.89,-0.78 1.046,-0.823 0.48,-1.684 -0.755,-1.142 -0.63,-1.393 0.363,-1.954 0.61,-0.343 0.605,-0.483 0.553,-1.064 -0.01,-0.112 -0.326,-0.757 -0.326,-0.757 z m 13.802,0.067 5.123,0.014 c 1.636,9.498 4.493,13.396 6.144,16.404 -6.478,10.398 -5.005,19.034 -1.05,26.677 l -16.225,-0.06 c 4.16,-14.23 6.304,-28.548 6.007,-43.035 z m -35.163,0.037 c 0.187,-0.013 0.32,0.29 0.638,0.833 1.026,1.75 0.3,4.23 -1.202,6.83 -1.124,1.945 -1.327,0.46 -0.813,-2.34 0.324,-1.767 -0.566,0.88 -0.99,3.012 -0.228,1.156 -0.783,2.09 -1.385,2.034 -0.567,-0.092 -0.392,-1.713 -0.374,-2.072 0.13,-2.553 1.08,-4.362 2.928,-6.897 0.7,-0.96 0.984,-1.384 1.197,-1.4 z m 52.295,4.995 c 0.243,-0.01 0.583,0.09 1.002,0.33 0.327,0.19 0.914,0.544 1.32,0.768 1.42,0.782 1.536,1.02 0.86,1.807 -0.834,0.972 -1.37,0.602 -2.814,-1.017 -0.974,-1.093 -0.99,-1.86 -0.368,-1.888 z m -0.473,2.138 c 0.23,0.006 0.702,0.253 1.163,0.78 0.936,1.072 0.823,1.976 -0.213,1.718 -0.423,-0.62 -0.64,-1.56 -1.045,-2.257 -0.092,-0.157 -0.043,-0.243 0.095,-0.24 z m 45.758,0.137 c -0.907,0.002 -2.426,1.2 -2.715,2.418 -0.882,3.715 -0.88,3.555 -0.09,4.096 0.232,0.16 0.406,0.275 0.52,0.346 0.464,0.365 1.095,0.93 1.178,0.818 0.753,0.004 1.897,-4.756 1.86,-5.737 0.047,-1.036 0.083,-1.16 -0.176,-1.632 -0.117,-0.214 -0.323,-0.308 -0.577,-0.308 z m -46.454,0.08 c 0.06,-0.01 0.136,0.022 0.227,0.095 0.595,0.592 0.834,1.65 1.135,2.408 0,0.164 -0.067,0.434 -0.15,0.596 -0.515,0.986 -1.314,0.03 -1.396,-1.67 -0.047,-0.955 0,-1.393 0.184,-1.428 z m 46.312,0.734 0.114,0 c 0.61,0.028 0.514,0.658 -0.33,1.57 -0.446,0.482 -1.363,0.71 -1.666,0.413 -0.44,-0.43 0.47,-1.616 1.46,-1.902 0.163,-0.045 0.302,-0.072 0.422,-0.08 z m -102.893,0.52 0.1,0 c 0.318,0.02 0.585,0.165 0.794,0.408 0.405,0.502 0.234,1.277 0.042,1.925 -0.48,1.7 -3.664,4.987 -4.806,5 -0.68,-0.12 2.162,-3.73 2.252,-4.338 -0.212,-0.206 -1.973,1.828 -2.8,3.24 -0.375,0.64 -0.8,1.43 -1.027,1.566 -0.593,0.07 -1.277,0.448 -1.28,0.048 0.097,-1.804 3.63,-5.736 4.833,-6.83 0.74,-0.695 1.378,-1.007 1.892,-1.017 z m 8.52,0.172 c 2.728,-0.03 -2.645,5.94 -6.122,6.8 -1.082,0.27 -3.078,0.34 -3.22,0.115 -0.143,-0.225 0.017,-0.408 0.463,-0.525 0.717,-0.19 4.27,-2.45 4.266,-2.715 0,-0.335 -1.47,0.22 -2.724,1.03 -0.812,0.526 -1.193,0.417 -0.752,-0.217 2.04,-2.934 4.77,-4.45 8.088,-4.488 z m 47.238,0.01 c 0.155,0.012 0.31,0.32 0.407,1.007 0.496,1.278 0.52,1.628 0.052,2.004 -0.8,0.644 -0.998,0.464 -0.99,-1.017 0.01,-1.22 0.273,-2.017 0.53,-1.996 z m -89.904,1.697 c 0,0 0.995,0.372 0.58,0.846 -0.287,0.33 -1.512,0.05 -1.513,-0.047 z m 137.1,0.037 c 0.325,-0.02 0.332,0.28 0.16,1.036 -0.09,0.398 -0.483,2.49 -1.177,3.07 -0.085,0.055 -1.093,-0.546 -1.367,-0.823 -0.126,-0.13 -0.52,-0.422 -0.573,-0.615 -0.17,-0.632 0.012,-1.454 0.492,-1.864 0.188,-0.16 0.564,-0.247 0.767,-0.25 0.16,0 0.63,-0.155 1.045,-0.34 0.29,-0.13 0.505,-0.203 0.653,-0.213 z m -136.75,1.443 c 0.654,-0.005 1.46,0.065 2.142,0.298 2.012,0.585 5.704,2.238 6.272,2.78 0.827,0.79 -1.33,1.632 -3.926,1.66 -1.376,0.017 -1.635,-0.27 -3.538,-1.408 -0.245,-0.16 -1.353,-0.89 -1.03,-1.154 0.35,-0.36 1.414,0.103 2.737,0.775 0.432,0.22 1.483,0.158 1.48,-0.037 0,-0.228 -2.645,-1.21 -4.625,-1.84 -1.3,-0.413 -1.27,-0.83 -0.473,-1.007 0.227,-0.034 0.566,-0.064 0.96,-0.066 z m -2.602,0.903 c 0,0 0.548,0.485 1.258,1.017 0.77,0.577 1.666,1.29 2.29,2.237 0.9,1.1 2.324,3.833 2.165,4.328 -0.363,1.136 -4.168,-0.856 -7.278,-3.968 -1.01,-1.012 -1.604,-1.764 -1.604,-1.764 l 1.188,-1.074 c 0,0 1.042,0.87 2.246,1.933 2.26,1.994 2.244,1.31 -0.028,-0.79 -0.643,-0.593 -1.235,-1.125 -1.235,-1.125 0.03,-0.38 0.39,-0.717 0.998,-0.795 z m 92.93,0.095 c 0,0 1.215,1.26 1.666,1.84 -7.403,7.237 -10.23,17.347 -3.084,28.115 l -3.43,-0.014 c -6.423,-12.64 -3.377,-22.157 4.85,-29.942 z m -62.61,0.298 c 0.46,-0.02 0.04,0.52 -0.777,1.91 -1.524,2.596 -1.826,3.252 -4.303,3.898 -0.638,0.165 -1.546,0.034 -1.92,0.08 -1.065,0.134 -0.592,0 1.04,-1.06 2.262,-1.465 0.34,-0.71 -1.75,0.365 -1.21,0.623 -2.48,0.592 -2.592,0.27 -0.06,-0.18 0.49,-0.648 0.847,-0.966 3.184,-2.847 4.16,-2.727 7.123,-3.756 1.293,-0.45 2.017,-0.728 2.332,-0.742 z m -13.31,2.597 c 1.15,0.007 2.226,0.122 3.182,0.335 0.633,0.143 1.664,0.27 0.795,1.055 -0.984,0.926 -3.643,2.19 -5.61,2.275 -0.276,0.01 -4.327,-0.275 -3.462,-1.144 0.172,-0.097 0.722,-0.07 1.196,-0.16 2.243,-0.426 1.636,-0.787 -1.127,-0.64 -3.46,0.185 -3.617,-0.173 -0.998,-0.89 1.916,-0.523 3.8,-0.792 5.525,-0.827 0.168,-0.003 0.332,-0.005 0.497,-0.004 z m 18.484,0.264 c 1.54,-0.015 2.737,0.26 2.743,0.847 0.01,0.952 -2.906,3.04 -4.82,3.453 -0.45,0.097 -1.09,0.237 -1.423,0.312 -0.668,0.15 -4.365,0.02 -4.726,-0.11 -1.73,-0.628 -0.527,-0.875 2.65,-1.244 1.38,-0.16 2.04,-0.522 2.038,-0.785 0,-0.126 -1.02,-0.162 -2.536,0.03 -1.693,0.214 -1.36,-0.284 0.748,-1.377 1.392,-0.72 3.58,-1.108 5.326,-1.126 z m -28.5,1.32 c 0.217,0.006 0.737,0.184 1.6,0.544 1.844,0.538 4.377,1.144 6.11,3.038 1.402,1.356 1.743,1.793 1.45,2.27 -0.358,0.578 -4.704,0.14 -6.534,-0.643 -1.208,-0.516 -2.648,-1.624 -3.306,-2.583 -1.593,-2.32 -0.923,-2.932 1.102,-1.31 2.44,1.955 2.803,2.156 3.236,2.067 0.174,-0.037 -0.256,-0.438 -1.074,-1.046 -2.056,-1.527 -3.057,-2.35 -2.583,-2.337 z m 15.038,2.493 c 2.044,0.003 2.486,0.156 4.47,1.064 2.484,0.875 1.88,1.654 -2.526,2.753 -2.207,0.518 -4.428,0.155 -6.04,-0.837 -3.552,-2.186 -3.318,-2.623 0.648,-1.646 1.303,0.32 2.602,0.38 2.682,0.137 0.06,-0.186 -1.515,-0.587 -2.796,-1.01 -1.386,-0.46 -0.194,-0.422 2.578,-0.45 0.367,-0.004 0.692,-0.01 0.984,-0.01 z m 102.213,9.443 c 0,0 -0.454,0.214 -0.654,0.324 -0.16,0.087 -1.387,0.24 -2.73,0.34 -2.65,0.198 -4.43,0.623 -6.037,1.268 -2.426,0.976 -4.048,3.983 -4.048,3.983 1.814,-0.123 12.077,1.733 14.925,-1.965 0.596,-0.774 -1.53,5.844 -2.622,6.137 -2.705,-0.325 -3.843,3.92 -3.572,3.74 -2.73,1.058 -4.844,1.68 -4.15,4.845 0.302,1.38 1.7,3.022 4.667,2.61 -0.808,5.49 5.91,6.91 6.652,0.292 0,0 1.31,-0.25 1.814,-0.31 3.063,-0.725 3.805,-5.202 -0.69,-6.622 -1.25,-0.37 -1.32,-0.604 -1.32,-0.604 0.233,-1.01 0.178,-2.07 -0.553,-3.246 0.992,-2.364 3.46,-6.922 3.46,-6.922 z m 0.475,1.366 c 0.618,0.824 -2.606,2.19 -6.04,2.486 -0.77,0.066 -2.462,0.222 -2.506,0.298 -0.37,0.648 6.64,0.177 8.822,-1.045 0.748,-0.42 0.815,-0.052 0.49,0.594 -2.534,3.26 -8.652,2.456 -13.436,1.883 -0.273,-0.274 -0.04,-0.61 1.03,-1.48 1.967,-1.595 3.382,-2.127 6.486,-2.446 0.866,-0.026 4.764,-0.76 5.154,-0.29 z m 3.79,3.37 c -0.44,1.402 -2.743,5.68 -2.743,5.68 -0.283,0.284 -1.292,0.484 -1.216,-0.6 0.01,-1.162 2.188,-5.952 2.776,-6.044 0.7,-0.054 1.218,0.462 1.182,0.965 z m 1.46,0.327 c 0.676,4.91 4.402,6.077 7.977,7.625 0.94,0.43 1.74,1.198 2.682,1.693 1.767,-2.41 -0.224,-7.09 -3.335,-8.613 -2.31,-1.08 -4.417,-1.937 -5.72,-1.84 -0.752,0.056 -1.592,0.54 -1.603,1.135 z m 1.913,-0.293 c 0.4,-0.005 0.974,0.11 3.06,0.667 3.153,0.84 5.376,3.163 5.956,6.225 0.024,0.124 0.186,2.497 -0.358,2.413 -0.82,-0.237 -1.263,-1.063 -2.58,-1.613 -1.643,-0.688 -3.948,-1.59 -5.363,-2.876 -1.142,-1.04 -1.767,-2.156 -1.906,-3.114 -0.142,-0.993 0.19,-1.094 1.025,-0.293 1.87,1.488 3.714,1.997 5.563,3.434 0.513,0.4 2.357,1.42 1.098,0.15 -0.853,-0.863 -3.364,-2.366 -4.698,-3.007 -1.853,-0.89 -2.86,-1.974 -1.797,-1.986 z m -141.948,4.9 21.13,33.03 c -5.2,2.743 -7.765,3.944 -16.4,3.268 l 0.033,0.436 -3.67,-0.214 c 6.34,9.893 14.16,22.798 11.94,45.313 l 25.74,-0.027 c 0,0 0.4,0.382 0.44,0.408 0.376,0.254 0.94,-0.447 0.94,-0.447 l 11.61,-0.06 0.315,0.374 5.414,-0.038 c 0,0 -24.753,-46.32 -37.186,-69.318 -5.108,-9.226 -10.427,-13.325 -20.306,-12.724 z m 133.236,1.093 c 1.388,-0.035 2.767,0.92 2.777,2.77 0.01,0.966 -0.81,2.312 -0.81,2.312 l -1.885,-1.797 -1.802,1.803 c -0.887,-0.734 -1.413,-2.13 -1.123,-2.925 0.555,-1.357 1.764,-2.137 2.843,-2.163 z m -21.853,0.657 c 1.79,6.97 3.72,16.58 -11.787,38.787 -9.172,13.136 -12.173,25.527 -12.54,40.65 l -0.926,0.005 c 0.437,-8.3 0.496,-23.347 0.496,-23.347 l 0.866,-0.77 c 0,0 -0.394,-0.64 -0.568,-1.392 -0.292,-1.265 -0.046,-0.843 0.71,-4.243 3.17,-16.416 23.75,-49.69 23.75,-49.69 z m -82.804,3.198 78.59,0.36 -1.045,2.06 -76.05,-0.543 z m 104.757,0.596 2.92,2.842 -2.853,3.203 -3.004,-3.14 z m -2.393,1.208 -1.592,1.693 1.38,1.45 c -1.42,2.983 -5.202,0.656 -5.076,-1.576 0.148,-2.61 3.2,-3.68 5.288,-1.568 z m 5.043,3.365 1.268,-1.61 -1.433,-1.572 c 2.347,-2.318 4.566,-0.277 4.78,1.657 0.23,2.06 -2.985,4.388 -4.615,1.526 z m -93.08,-1.97 6.44,0.06 -2.395,4.48 -6.527,-0.028 z m 14.343,0.032 5.912,0 -2.497,4.54 -5.984,0 z m 13.963,0 6.272,0 -2.545,4.54 -6.442,0 z m 14.04,0 6.417,0 -2.336,4.54 -6.66,0 z m 14.298,0 6.188,0 -2.507,4.54 -6.366,0 z m -68.32,0.024 4.157,0 -1.698,2.99 z m 103.672,2.865 c 2.38,1.91 0.726,5.05 -1.754,5.105 -1.707,0.04 -4.186,-2.85 -1.504,-5.204 l 1.786,1.634 z m -87.458,2.415 6.045,0 -2.276,4.086 -5.922,0 z m 13.438,0.033 6.632,0 -2.337,4.087 -6.31,0 z m 14.2,0 6.6,0 -2.154,4.087 -6.664,0 z m 14.148,0 6.546,0 -2.04,4.087 -6.92,0 z m -53.99,0.156 4.173,0 -1.78,3.273 z m 3.146,4.74 61.26,0.543 -1.04,1.987 -58.663,0.01 z m 2.153,3.556 57.402,0.142 -1.32,2.748 -19.832,-0.09 c -3.87,-2.888 -8.293,-1.553 -13.34,0.09 0,0 -15.182,0.16 -21.152,0 z m 80.556,7.015 c 3.184,4.076 5.47,9.753 6.395,14.233 0.918,4.58 -0.077,6.823 -1.248,2.814 -1.94,-10.023 -13.825,-11.487 -19.128,-3.722 -7.367,10.785 5.54,23.874 14.79,15.107 0.79,-0.748 1.23,-0.93 1.496,-0.615 0.31,0.366 0.095,0.692 -1.552,2.35 -6.428,6.478 -4.04,15.8 4.664,17.966 12.354,3.076 19.823,-12.023 9.025,-19.152 -1.123,-0.854 -1.242,-1.07 -0.833,-1.532 0.366,-0.413 0.683,-0.365 1.683,0.54 9.254,8.37 21.895,-2.567 16.04,-13.88 -4.51,-8.712 -17.06,-7.113 -20.064,2.57 -0.56,1.804 -0.602,1.908 -0.913,2.11 -1.286,0.048 -0.38,-4.207 -0.184,-5.332 1.455,-4.967 3.064,-9.615 6.14,-13.457 z m -99.648,4.63 30.277,47.788 -6.693,-0.075 -28.75,-44.955 z m 148.71,2.79 c 0.2,0.15 3.02,7.91 2.47,8.622 -0.17,0.56 -0.648,0.367 -0.833,-0.336 -1.76,-6.7 -10.053,-5.572 -9.975,1.36 0.047,4.29 4.454,6.144 8.287,3.48 0.568,-0.395 0.828,-0.403 0.832,-0.024 0,0.114 -0.44,0.7 -0.985,1.306 -3.08,3.43 -1.92,8.17 2.238,9.143 5.586,1.308 8.29,-4.98 4.09,-9.503 -0.61,-0.657 -1.11,-1.262 -1.11,-1.343 0,-0.342 0.466,-0.283 1.012,0.122 3.874,2.877 8.596,0.936 8.542,-3.51 -0.07,-5.868 -7.365,-7.414 -9.37,-1.986 -0.5,1.35 -0.744,1.71 -0.998,1.466 -0.982,-0.514 2.626,-8.882 2.724,-8.882 z m -154.78,0.323 28.585,44.664 c -1.312,-0.03 -2.53,0.05 -3.84,0.03 0.53,-8.34 -6.182,-12.252 -10.126,-12.45 2.366,-9.756 -4.746,-13.86 -9.49,-14.635 1.923,-12.678 -8.572,-14.476 -8.724,-14.348 0.05,-1.042 -0.145,-1.792 -0.285,-2.66 l 3.88,-0.602 z m -4.63,0.708 c -0.06,0.268 0.54,2.794 -0.59,2.33 l -0.08,-2.325 z m -6.017,0.065 c 0.41,1.68 1.273,2.013 2.445,3.14 0,0 -1.5,0.254 -1.847,0.014 -0.623,-0.43 -1.925,-3.167 -1.925,-3.167 z m 4.472,2.842 c 0.725,0 1.31,0.59 1.31,1.315 0,0.725 -0.585,1.31 -1.31,1.31 -0.725,0 -1.31,-0.585 -1.31,-1.31 0,-0.725 0.585,-1.315 1.31,-1.315 z m 2.597,1.01 c 3.76,-0.247 9.21,3.786 7.773,11.332 -0.25,-0.527 -0.546,-1.686 -1.156,-2.51 -2.592,-3.495 -5.643,1.296 -3.587,3.25 1.01,0.96 1.48,1.337 1.372,1.424 -2.317,-0.44 -4.073,1.612 -3.108,3.89 1.607,2.947 3.84,1.385 5.133,-0.363 0,0 0.796,2.638 1.587,2.973 1.212,0.514 2.883,-0.137 3.452,-1.6 0.847,-2.178 -1.212,-2.736 -1.665,-3.948 4.35,0.14 9.89,6.498 7.37,12.01 0.33,-1.256 -1.016,-4.07 -3.635,-3.344 -1.308,0.457 -1.764,2.362 -0.708,4.323 0.337,0.626 0.52,0.86 0.52,0.86 0,0 -1.133,0.15 -1.43,0.332 -3.398,2.092 0.983,7.8 3.51,4.232 0.26,-0.424 0.682,-0.91 0.682,-0.91 0.416,0.796 0.544,1.915 1.306,2.298 3.13,1.576 4.526,-1.75 3.21,-3.38 -0.74,-0.92 -1.577,-1.98 -1.577,-1.98 -0.13,-0.586 9.382,1.908 8.224,11.163 l -25.22,-0.034 c 2.337,-14.216 -3.323,-30.48 -6.212,-35.437 l 1.25,-1.65 c 0.315,0.613 0.836,2.158 1.756,2.455 2.926,0.94 3.817,-1.103 3.425,-3.205 -0.21,-1.12 -1.776,-2.02 -2.274,-2.182 z m 6.678,13.38 c 0.687,0 1.244,0.56 1.244,1.248 0,0.687 -0.557,1.244 -1.244,1.244 -0.688,0 -1.25,-0.557 -1.25,-1.244 0,-0.688 0.562,-1.25 1.25,-1.25 z m 149.815,11.504 c -1.678,-1.565 -3.533,-1.522 -5.21,-1.338 l -0.09,3.524 c 0,0 4.15,-0.207 3.6,1.945 -0.15,0.422 -0.348,1.838 -0.348,1.838 l -0.055,18.072 c 0.674,7.943 10.9,9.532 13.42,1.995 0.487,-1.287 0.407,-2.456 0.407,-3.86 l 0,-9.53 2.908,-0.057 -0.11,-3.385 -2.664,0.04 c 0.195,-4.758 -0.627,-9.34 -3.97,-10.43 -3.674,-1.106 -5.98,-0.17 -7.887,1.186 z m 8.673,8.133 c -1.69,0.306 -4.053,-2.884 -5.997,-5.17 0.89,-1.713 3.6,-1.404 4.61,-0.352 1.465,1.525 1.364,4.344 1.386,5.52 z m -149.024,-4.83 c 0.695,0 1.26,0.564 1.26,1.26 0,0.694 -0.565,1.257 -1.26,1.257 -0.694,0 -1.258,-0.563 -1.258,-1.258 0,-0.696 0.564,-1.26 1.258,-1.26 z m 141.66,3.04 c 1.784,3.483 7.265,6.156 7.348,5.623 l 0.03,9.585 c 0.278,3.84 -1.07,5.71 -3.504,5.96 -4.267,0.047 -4.22,-5.253 -4.22,-8.205 l -0.057,-9.46 c 0.027,-1.14 -0.11,-2.56 0.402,-3.503 z"
         id="path4683" />
    </g>
  </g>
</svg>
