<?xml version="1.0" encoding="UTF-8" standalone="no"?>
<!-- Created with Inkscape (http://www.inkscape.org/) -->

<svg
   xmlns:dc="http://purl.org/dc/elements/1.1/"
   xmlns:cc="http://creativecommons.org/ns#"
   xmlns:rdf="http://www.w3.org/1999/02/22-rdf-syntax-ns#"
   xmlns:svg="http://www.w3.org/2000/svg"
   xmlns="http://www.w3.org/2000/svg"
   xmlns:sodipodi="http://sodipodi.sourceforge.net/DTD/sodipodi-0.dtd"
   xmlns:inkscape="http://www.inkscape.org/namespaces/inkscape"
   width="63.281277mm"
   height="88.281372mm"
   viewBox="0 0 224.225 312.80801"
   id="svg18517"
   version="1.1"
   inkscape:version="0.91 r13725"
   sodipodi:docname="QD.svg">
  <defs
     id="defs18519" />
  <sodipodi:namedview
     id="base"
     pagecolor="#ffffff"
     bordercolor="#666666"
     borderopacity="1.0"
     inkscape:pageopacity="0.0"
     inkscape:pageshadow="2"
     inkscape:zoom="0.35"
     inkscape:cx="-0.030402019"
     inkscape:cy="24.97543"
     inkscape:document-units="px"
     inkscape:current-layer="layer1"
     showgrid="false"
     fit-margin-top="0"
     fit-margin-left="0"
     fit-margin-right="0"
     fit-margin-bottom="0"
     inkscape:window-width="1600"
     inkscape:window-height="838"
     inkscape:window-x="-8"
     inkscape:window-y="-8"
     inkscape:window-maximized="1" />
  <metadata
     id="metadata18522">
    <rdf:RDF>
      <cc:Work
         rdf:about="">
        <dc:format>image/svg+xml</dc:format>
        <dc:type
           rdf:resource="http://purl.org/dc/dcmitype/StillImage" />
        <dc:title></dc:title>
      </cc:Work>
    </rdf:RDF>
  </metadata>
  <g
     inkscape:label="Calque 1"
     inkscape:groupmode="layer"
     id="layer1"
     transform="translate(283.54103,-244.52963)">
    <g
       transform="translate(-2827.7053,-728.20987)"
       id="g4539">
      <rect
         style="fill:#ffffff;stroke:#000000;stroke-width:0.99699998"
         width="223.228"
         height="311.811"
         x="7150.8428"
         y="-2435"
         ry="10.63"
         rx="10.63"
         transform="translate(-4606.18,3408.238)"
         id="rect4541" />
      <path
         style="fill:#e2cf00"
         inkscape:connector-curvature="0"
         d="m 2684.922,999.66 c 0,0 25.294,36.56 33.873,43.048 0.63,0.296 11.206,-1.724 11.206,-1.724 -5.42,-12.977 -8.906,-26.403 -5.39,-41.455 z m 14.055,57.82 c -17.437,4.92 -34.842,9.55 -53.746,1.527 l -20.643,19.946 c -0.172,0.514 26.752,12.112 27.175,10.843 l -6.626,21.153 15.278,3.363 7.014,-22.503 c 0,0 21.093,-2.023 30.883,-5.382 7.444,-2.554 15.142,-4.406 21.79,-9.954 -13.73,-8.25 -21.137,-19.092 -21.123,-18.994 z m -104.88,5.898 c -6.61,-4.056 -11.776,4.29 -6.937,8.46 -0.568,2.434 -0.76,6.057 1.594,7.65 2.165,1.368 6.202,-0.05 6.785,-0.036 0.04,0 0.104,4.382 -0.233,4.37 -0.626,-0.02 -2.99,-2.033 -4.447,-2.47 -4.926,-1.477 -11.854,-2.206 -11.732,-1.952 0.206,0.427 -1.227,1.437 4.27,4.888 2.042,1.282 8.492,-0.162 13.63,1.46 3.13,0.986 6.207,2.628 7.906,1.81 2.15,-0.898 4.655,-3.733 5.463,-6.042 0.228,-2.522 -12.89,2.935 -12.092,3.023 l -0.04,-5.084 c 5.285,0.582 10.056,-3.25 4.86,-9.817 3.87,-3.846 -1.542,-13.012 -9.03,-6.262 z m 22.02,23.25 c -13,13.105 -39.573,37.7 -39.573,37.7 l 0.285,18.355 25.96,23.23 c 2.056,-24.66 16.07,-47.676 29.414,-59.19 1.226,-3.5 -13.26,-18.866 -16.086,-20.095 z m 92.627,4.534 c -1.96,15.163 -3.74,35.842 -29.465,58.827 4.457,7.59 10.13,15.317 18.297,19.005 0.58,1.304 23.602,-23.822 37.765,-35.702 l -0.075,-16.093 z m -115.942,3.255 c -0.054,0.33 -1.004,4.313 -1.25,4.207 0.02,0.217 2.636,-0.97 2.93,-2.063 0.26,-0.957 0.86,-2.254 0.9,-2.437 -0.59,-4.1 -1.705,-1.19 -2.58,0.294 z m -9.63,10.6 c -0.935,2.257 -1.81,6.403 -1.487,9.1 4.606,2.306 5.857,-7.284 4.62,-8.2 -0.743,-0.314 -2.502,-0.922 -3.134,-0.9 z m 142.236,43.97 c -0.427,1.912 -0.337,2.48 0.514,2.852 1.49,0.653 2.16,-0.137 3.358,-3.25 0.713,-1.855 1.348,-4.644 0.773,-5.754 -2.825,-1.97 -4.318,4.706 -4.645,6.15 z m -69.653,-4.494 c -0.904,0.01 -1.774,0.082 -2.58,0.266 -7.602,1.738 -7.026,15.02 -8.317,20.318 -23.88,3.408 -30.197,5.03 -36.74,7.718 -10.175,4.18 -13.397,6.73 -16.09,8.834 1.693,-0.198 19.95,16.825 20.89,19.228 -1.16,-3.295 35.318,-11.314 54.747,-3.26 2.383,0.853 20.535,-17.616 19.962,-19.677 2.356,-4.124 -22.88,-8.758 -26.062,-11.335 -2.61,-14.054 17.63,-21.752 3.613,-21.343 -2.55,0.074 -6.195,-0.775 -9.423,-0.75 z m 63.513,15.79 c -0.45,0.53 -0.903,0.812 -1.488,1.434 l -1.333,1.758 0.97,1.57 2.488,-2.744 z m -17.807,17.674 c 2.62,-1.182 11.922,-5.69 12.32,-4.65 l -0.196,4.515 c -1.423,-0.466 -10.606,1.052 -5.295,10.53 -3.346,7.53 4.108,11.414 9.33,6.435 10.94,3.755 9.477,-7.194 7.22,-8.963 1.778,-2.764 -0.458,-8.65 -1.57,-8.67 0,0 9.547,2.153 8.614,0.453 -0.427,-0.776 -0.96,-2.114 -3.082,-3.53 -2.446,-1.634 -6.742,-1.04 -10.22,-1.77 -3.718,-0.776 -6.11,-2.106 -9.236,-2.294 -4.715,0.43 -9.117,4.57 -7.885,7.944 z m -106.412,35.536 -13.157,3.516 c 0,0 4.257,9.875 5.73,18.68 1.8,10.773 0.36,22.485 0.36,22.485 l 38.187,0.193 z"
         id="path4543" />
      <path
         style="fill:#d40000"
         inkscape:connector-curvature="0"
         d="m 2750.375,1274.455 c -5.026,-1.746 -5.13,-4.91 -5.302,-8.942 -0.297,-6.115 -0.244,-12.55 0.634,-17.533 0.336,-1.515 0.517,-2.29 -0.996,-2.826 -0.833,-0.287 -1.667,-0.172 -2.502,-0.3 l 0,-3.77 c 1.585,-0.084 3.056,-0.08 4.394,0.71 0.602,0.368 1.273,0.774 1.273,0.774 1.97,-1.863 7.143,-2.14 9.602,0.16 1.63,1.644 2.157,3.02 2.263,6.72 0.078,2.73 0,2.916 0,2.916 l 2.836,-0.016 0,3.668 -2.836,0 c 0,0 0.063,1.824 0,5.776 -0.05,3.075 -0.11,5.086 -0.324,6.55 -0.966,5.104 -5.512,7.263 -9.04,6.113 z m 5.44,-6.316 c 0.99,-2.634 0.577,-12.81 0.577,-12.81 -4.234,-1.628 -6.03,-4.177 -7.754,-5.99 0,0 -0.718,11.296 0.14,17.38 0.78,5.045 5.334,5.798 7.038,1.42 z m 0.025,-17.114 c 0.23,0.033 0.495,0.05 0.53,-0.05 0.323,-0.913 -0.24,-4.74 -1.197,-5.507 -2.575,-2.067 -4.93,0 -4.853,0.092 1.215,1.652 2.642,3.466 4.482,4.897 0.35,0.29 0.645,0.507 1.038,0.566 z m -126.505,7.207 c -16.754,-23.913 -32.28,-46.66 -52.89,-71.73 0,0 0.017,-9.69 0.09,-19.3 l 63.32,90.795 z m 58.655,-31.244 c 8.3,-9.01 14.588,-18.61 20.17,-28.418 6.36,11.296 13.723,20.5 21.853,28.098 -7.97,8.058 -15.202,17.277 -20.927,28.863 -4.653,-8.854 -10.69,-18.09 -21.096,-28.544 z m 55.094,-2.897 c 3.54,-3.71 6.588,-7.865 9.452,-12.252 3.183,4.513 5.1,7.89 9.377,12.65 -3.672,3.89 -6.76,7.797 -9.275,12.05 -3.03,-4.828 -6.186,-9.317 -9.554,-12.447 z m -79.83,-4.47 c -0.54,-4.54 -1.465,-9.976 -2.795,-14.654 l 11.56,-10.902 c -1.247,9.74 -3.163,17.214 -8.766,25.555 z m 55.255,-34.357 c 2.586,3.437 -1.78,5.344 -3.43,3.815 -3.342,-3.1 1.555,-6.303 3.43,-3.814 z m -114.636,-21.642 c -1.92,1.23 3.447,-29.968 18.177,-46.09 8.96,25.66 -6.848,40.05 -18.176,46.09 z m 72.666,-0.116 -9.783,-2.64 4.87,-13.68 c 0,0 9.186,2.15 8.403,4.992 -2.55,9.248 -3.49,11.328 -3.49,11.328 z m -45.286,-5.26 c 2.65,-4.354 4.66,-9.155 6.512,-14.068 l 13.91,-1.928 -8.063,15.636 z m 58.96,-19.197 c -7.572,-15.074 1.347,-38.934 17.82,-45.5 -0.593,15.286 -5.337,30.77 -17.82,45.5 z m -50.887,-4.282 c 0.333,-5.355 -0.28,-10.966 -1.02,-15.938 l 34.432,4.59 1.202,14.432 z m 25.198,-22.93 c 1.167,-4.59 2.204,-8.41 4.457,-12.132 2.507,0.08 12.675,-1.593 11.38,0.383 -2.766,3.535 -4.088,9.276 -5.9,12.886 -1.898,-0.2 -10.507,1.28 -9.937,-1.138 z m -22.808,-2.63 c -3.483,-1.23 -8.244,-1.572 -10.096,-4.265 l 3.623,-11.48 10.73,3.292 z m 30.107,-109.522 8.408,-0.08 c 0,0 40.4,51.69 55.54,71.805 -0.505,2.05 0.17,19.4 0.17,19.4 -21.448,-30.18 -64.118,-91.124 -64.118,-91.124 z m -77.47,72.123 c -2.258,-2.426 1.334,-4.575 2.828,-2.408 1.316,1.908 -1.636,3.686 -2.827,2.407 z m 45.33,-8.476 c 0.13,-11.98 8.625,-26.195 8.537,-25.832 -0.098,-0.023 1.21,11.71 2.844,15.403 -0.44,0.65 -10.978,11.18 -11.38,10.43 z m -36.184,-3.975 c -6.585,-12.592 -14.5,-22.132 -21.392,-28.815 8.585,-8.12 15.02,-18.148 21.624,-28.027 5.452,10.363 12.54,19.834 20.487,28.835 -7.974,7.83 -15.507,18.922 -20.72,28.006 z m -52.975,-25.56 c 3.858,-3.847 9.557,-12.6 9.502,-12.61 2.712,4.43 5.57,9.016 9.508,12.677 -0.042,-0.04 -6.1,6.473 -9.23,12.596 -2.792,-5.103 -6.478,-9.545 -9.78,-12.663 z m -0.548,-27.847 0,-3.71 2.775,0 c 0,0 -0.032,0.303 -0.01,-4.755 0.03,-7.076 0.385,-9.25 1.8,-11.056 3.81,-4.867 10.8,-3.374 12.636,2.7 0.14,0.46 0.455,1.63 0.486,3.18 0.083,4.025 0.09,10.706 -0.043,14.88 0.067,1.634 -0.516,3.767 -0.936,4.13 0.202,1.487 2.54,1.786 4.006,1.67 l 0,3.882 c 0.01,-0.022 -1.487,0.142 -3.248,0 -0.742,-0.06 -2.456,-1.472 -2.456,-1.472 0,0 -2.71,1.862 -5.144,1.812 -7.968,-0.165 -7.083,-10.11 -7.06,-11.246 z m 6.383,0.98 c 0,0 0.01,1.396 0.09,2.33 0.282,3.083 2.294,4.68 4.3,4.132 1,-0.31 1.587,-0.914 1.587,-0.914 -1.706,-2.53 -3.734,-4.658 -5.977,-5.548 z m 7.403,-15.433 c -0.85,-4.65 -5.23,-5.363 -6.88,-1.428 -0.298,0.71 -0.546,6.314 -0.546,6.314 l 0.034,6.62 c 3.554,0.782 5.515,3.06 7.734,5.647 0,0 0.445,-11.9 -0.34,-17.153 z"
         id="path4545" />
      <path
         style="fill:#131f67"
         inkscape:connector-curvature="0"
         d="m 2574.873,997.492 -0.316,262.08 163.067,0.03 -0.055,-261.686 z m 149.022,2.05 c -1.325,14.502 -1.556,25.866 5.967,40.905 -1.36,1.426 -11.597,1.83 -14.824,3.517 -0.06,0.405 0.83,1.106 0.83,1.106 3.374,-1.566 16.537,-2.995 16.537,-2.995 -5.513,-9.608 -10.047,-28.088 -6.634,-42.26 l 9.502,0.03 -0.06,69.828 c 0,0 0.747,13.48 1.028,21.073 -5.058,-6.537 -11.766,-15.667 -16.146,-22.445 -5.314,-7.474 -11.23,-16.244 -17.306,-24.472 -1.79,-2.592 -4.345,-5.955 -6.428,-8.983 -3.272,-4.677 -5.977,-8.306 -9.37,-13.34 -3.624,-5.213 -7.097,-9.944 -11.404,-15.997 -3.65,-5.152 -3.82,-5.762 -3.82,-5.762 z m -62.393,0.272 c 6.16,10.702 17.182,14.326 19.956,15.048 l 1.612,2.356 c -12.996,-2.547 -19.957,-10.89 -23.225,-16.05 -0.254,-0.4 -0.225,-1.324 -0.225,-1.324 z m -6.095,0 c -1.704,4.04 -4.088,6.363 -6.347,8.81 l 0.078,-2.6 c 0.07,0.164 3.383,-3.512 4.524,-6.21 z m 2.982,0 c 0,0 0.048,0.69 -0.157,1.258 -1.306,4.213 -9.408,12.21 -9.175,11.013 l -0.083,-2.064 c -0.035,0.09 6.087,-5.828 7.69,-10.206 z m -5.894,0 c -0.63,1.176 -2.987,4.73 -3.2,3.744 l 0.21,-3.744 z m 18.512,0 c 1.02,1.478 1.95,2.558 3.022,4.07 0.2,0.288 0.32,0.628 0.27,0.758 -0.162,0.42 -0.647,0.108 -1.988,-1.08 -2.2,-1.95 -3.697,-3.748 -3.697,-3.748 z m -8.194,0 1.99,0.005 c 4.12,6.844 11.516,10.486 14.076,11.282 0.683,0.753 1.42,2.13 1.705,2.434 -6.902,-1.87 -14.635,-7.705 -17.77,-13.722 z m 4.84,-0.03 c 2.194,3.168 5.634,5.39 7.57,6.905 1.043,0.815 2.42,2.483 2.29,2.814 -4.315,-1.363 -9.36,-6.146 -11.677,-9.69 z m -8.46,1.96 1.2,1.91 c -2.907,4.79 -6.55,9.107 -11.41,12.51 l -0.027,-2.503 c 5.515,-3.97 7.898,-7.96 10.237,-11.915 z m 1.945,2.768 c 3.463,4.666 10.93,11.89 22.903,14.047 0,0 0.68,0.614 1.672,1.964 1.258,1.713 1.278,1.78 1.444,4.588 0.11,5.14 1.78,12.112 3.438,16.5 -0.206,1.09 -0.397,1.646 -2.454,4.424 -8.57,11.575 -26.83,22.524 -35.824,7.58 -3,-4.787 -3.29,-13.966 -3.482,-19.69 0,0 0.057,-0.402 0.08,-0.51 0.216,-1.04 0.513,-0.876 2.137,-0.43 1.646,0.706 3.36,0.135 5.102,-0.34 1.984,-0.8 2.15,-0.182 0.236,1.603 -0.662,0.616 -1.47,1.56 -1.386,1.515 0.085,-0.046 1.198,-0.5 1.69,-0.875 1.528,-1.163 1.89,-0.717 1.323,0.563 -2.403,5.433 -2.83,5.65 0.55,7.158 0.705,0.316 1.186,0.667 1.58,1.012 2.313,2.175 1.483,1.003 0.837,0 -0.995,-1.563 -0.096,-2.39 1.583,-1.422 1.12,0.647 2.595,1.17 3.396,0.922 1.556,-0.507 2.03,-2.21 1.57,-4.085 -0.37,-1.037 -2.496,-2.87 -2.006,-0.952 1.278,-0.057 2.38,1.754 1.27,2.98 -0.837,1.13 -2.33,0.52 -4.622,-0.995 -1.265,-0.95 -2.803,-0.465 -2.743,0.706 0.04,0.786 -1.073,0.606 -1.796,-0.395 -0.402,-0.556 -0.13,-2.157 0.625,-3.673 4.75,-9.55 0.745,-18.808 -7.48,-16.198 -0.905,0.287 -1.72,0.52 -1.72,0.52 l -0.045,-3.653 c 4.723,-3.29 9.732,-8.537 12.12,-12.868 z m 4.8,17.142 c -1.24,1.497 -0.8,2.83 1.923,1.488 2.217,-1.093 2.525,-1.222 4.94,-1.31 3.43,-0.123 6.51,0.968 10.318,3.305 2.526,1.548 2.893,1.665 2.208,0.695 -2.04,-3.902 -14.093,-9.827 -19.387,-4.178 z m -11.646,0.447 c 2.38,0.6 4.665,2.173 4.267,2.824 -0.142,0.234 -0.28,0.28 -0.584,0.12 -1.74,-0.86 -4.517,-2.266 -8.53,-0.55 -0.442,0.19 -0.687,-0.104 -0.685,-0.637 0,-1.036 1.748,-1.863 3.59,-1.93 0.654,0 1.368,0.034 1.944,0.174 z m 13.827,3.028 c -1.418,0.737 -1.905,1.13 -2.507,0.8 -1.44,-0.786 -1.136,-0.17 -0.242,1.416 0.632,1.118 0.626,1.348 0.532,2.033 -0.1,0.745 -0.086,0.774 0.638,1.57 1.354,1.78 2.7,3.496 4.728,4.846 0.633,0.42 1.477,0.9 1.54,0.9 0.203,0.01 0.126,-0.153 -0.236,-0.506 -2.596,-2.497 -4.644,-4.736 -2,-3.785 3.08,1.004 6.007,-0.247 8.408,-1.063 0.98,-0.303 2.007,-0.557 2.262,-0.557 2.218,0 2.742,-0.92 1.323,-2.328 -4.796,-5.38 -8.777,-6.645 -14.444,-3.327 z m 11.383,1.008 c 0.992,0.916 1.515,1.414 1.415,1.652 -0.106,0.256 -0.87,-0.177 -2.15,-0.86 -2.573,-1.372 -5.49,-1.695 -9.137,-0.642 -2.83,0.817 -1.994,-0.48 1.16,-1.7 2.526,-1.165 6.01,-0.817 8.713,1.55 z m -26.433,-1.852 c 2.163,-0.035 4.415,0.675 5.92,1.973 1.05,0.906 0.283,1.117 -1.424,0.41 -2.583,-1.068 -4.76,-1.238 -6.878,-0.246 -0.665,0.313 -1.432,0.683 -1.642,0.663 -0.354,-0.24 -0.505,-0.937 -0.198,-1.43 0.852,-0.836 2.54,-1.343 4.222,-1.37 z m 35.64,0.74 c 0.158,0.01 0.397,0.26 0.753,0.76 0.646,0.908 0.67,1.356 0.135,2.946 -0.655,1.94 -0.918,1.626 -1.082,-1.082 -0.107,-1.757 -0.11,-2.636 0.193,-2.623 z m 2.144,2.928 c 0.246,-0.035 0.534,0.4 0.995,1.3 0.32,0.627 0.244,0.815 -0.76,3.752 -0.42,1.23 -0.815,2.21 -0.826,2.217 -0.308,0.245 -0.27,0.223 -0.4,0.054 -0.716,-0.914 -0.665,-2.697 -0.05,-4.834 0.468,-1.62 0.722,-2.443 1.04,-2.488 z m -19.484,0.223 c 0.078,-0.01 0.557,0.097 0.557,0.097 -0.05,4.35 3.315,3.476 3.76,0.386 0,0 0.83,-0.086 0.958,0.12 0.4,0.647 -0.527,2.508 -1.912,3.118 -1.01,0.45 -2.385,0.34 -3.205,-0.415 -0.23,-0.424 -0.926,-2.04 -0.796,-2.71 0.162,-0.393 0.404,-0.575 0.638,-0.595 z m -2.005,0.508 c 0.034,0 0.067,0 0.1,0 0.332,0.017 0.572,0.106 0.702,0.506 l 0.72,2.21 c -0.53,0.633 -2.545,-0.652 -2.54,-1.616 0,-0.666 0.502,-1.076 1.018,-1.1 z m -13.682,0 c 0.51,-0.05 0.688,0.01 0.747,0.482 0.172,1.437 -1.264,2.997 -3.127,3.082 -1.803,0.202 -2.777,-1.197 -2.72,-2.56 0,-1.037 0.895,-1.167 0.994,-0.347 0.286,2.366 2.308,2.502 3.23,1.195 0.35,-0.512 0.27,-1.773 0.876,-1.852 z m 22.14,0.482 c 0.143,-0.01 0.335,0.048 0.618,0.145 1.86,0.593 1.91,0.88 0.32,1.454 -1.897,0.682 -2.02,0.77 -1.575,-0.552 0.248,-0.738 0.322,-1.035 0.637,-1.048 z m -19.713,0.208 c 1.38,0.086 1.494,1.252 0.282,1.642 -1.806,0.796 -2.414,0.744 -1.714,-0.43 0.38,-0.834 0.718,-1.196 1.432,-1.212 z m -8.625,0.42 c 0.165,0 0.354,0.062 0.556,0.212 0.208,0.626 0.56,1.107 0.836,1.753 -0.283,0.28 -0.958,0.277 -1.388,-0.064 -0.864,-0.686 -0.716,-1.895 0,-1.902 z m 43.344,1.347 c 0.534,0 1.08,0.852 1.256,1.484 -1.87,2.4 -1.576,6.888 -2.01,8.242 -0.378,1.102 -0.5,0.15 -1.54,-2.704 -0.42,-1.152 1.697,-6.88 2.187,-7.008 0.034,-0.01 0.07,-0.015 0.106,-0.015 z m 1.912,2.464 c 0.416,0.236 0.982,0.782 1.082,1.64 0.058,0.5 -0.19,1.16 -0.348,1.817 -0.378,1.558 -0.89,4.5 -1.072,7.22 -0.08,1.158 -0.075,2.2 -0.126,2.3 -0.563,1.102 -1.75,-1.865 -1.648,-4.227 0.37,-1.886 0.575,-8.492 2.112,-8.75 z m 2.642,3.39 c 0.264,0.366 0.432,0.648 0.513,0.964 0.142,0.55 0.023,1.208 -0.3,2.61 -0.86,3.714 -0.735,7.717 -0.175,11.828 0.118,0.864 -0.482,0.43 -1.39,-1.058 -0.504,-0.826 -0.827,-1.958 -0.98,-3.294 -0.318,-2.922 0.292,-6.882 0.81,-10.007 0.23,-1.383 0.39,-2.6 1.522,-1.044 z m 1.424,2.26 1.503,1.81 c 0,0 -0.64,4.165 -0.637,6.386 -0.105,0.832 0.747,9.88 1.024,10.61 -0.923,-1.033 -1.355,-1.64 -2.367,-2.94 -0.115,0.02 -0.99,-8.914 -0.386,-12.33 0.366,-2.068 0.864,-3.536 0.864,-3.536 z m 2.357,3.598 c 0.253,-0.01 0.573,0.275 0.976,0.84 0.365,0.51 0.542,0.93 0.56,1.565 0.016,0.463 -0.214,0.82 -0.22,1.647 -0.043,4.922 0.622,9.566 1.46,14.044 0.294,1.603 -0.28,0.95 -1.23,-0.065 -0.872,-0.93 -0.888,-1.282 -1.353,-2.6 -0.092,-0.264 -1.02,-9.34 -1.012,-10.026 0.033,-2.82 0.114,-4.39 0.44,-5.068 0.105,-0.22 0.23,-0.333 0.38,-0.338 z m -5.46,9.89 c 0,0 -1.747,0.9 -2.205,0.583 -0.74,-2.013 -3.403,-7.404 -3.45,-8.358 0.048,-0.314 1.093,-1.732 1.093,-1.732 1.472,3.193 2.797,6.46 4.563,9.507 z m -32.91,-6.476 c -0.527,0.62 -1.156,0.36 -2.427,-0.197 -0.652,-0.2 -0.55,0.068 -1.628,0.628 -0.836,0.434 -1.13,0.445 -1.683,0.44 -0.73,-0.01 -0.992,-0.262 -0.994,0.25 0,0.285 -0.044,1.568 -0.217,2.23 -0.234,0.904 -0.44,1.303 -0.31,1.46 0.37,0.34 0.683,0.132 1.466,-0.624 1.298,-1.255 2.174,-0.896 3.62,-0.43 1.645,0.53 1.985,0.726 3.49,0.2 2.13,-0.744 3.415,-0.745 4.263,-0.205 1.463,0.932 1.904,0.877 1.302,-1.67 -0.195,-0.82 -0.208,-2.094 -0.328,-2.314 -0.136,-0.25 -0.508,0.463 -0.898,0.725 -0.744,0.5 -1.128,0.492 -2.806,-0.058 -0.993,-0.325 -2.107,-1.39 -2.85,-0.435 z m 26.978,0.333 c 0.65,1.53 3.233,6.64 3.154,7.21 -0.503,0.453 -1.177,0.783 -1.576,0.38 -1.29,-2.358 -1.678,-3.63 -2.727,-6.274 -0.314,-0.632 0.623,-2.243 1.15,-1.315 z m 13.875,-0.188 c 0.184,-0.026 0.566,0.354 0.85,0.735 0.885,1.183 0.938,1.33 0.966,2.598 0.102,4.6 0.68,10.012 1.975,14.185 0.255,0.822 0.738,1.82 0.685,1.957 -0.434,0.633 -2.45,-1.063 -3.057,-3.642 -0.84,-3.275 -1.33,-6.693 -1.596,-8.917 -0.338,-3.912 -0.336,-6.712 0.176,-6.916 z m -15.5,2.536 c 0.745,1.435 1.683,3.912 2.314,5.398 0.288,0.646 -1.184,1.155 -1.522,0.935 -0.588,-0.44 -0.867,-1.674 -1.252,-2.415 -1.23,-2.685 -1.45,-2.742 -0.77,-3.578 0.42,-0.582 0.92,-1.294 1.23,-0.34 z m 18.417,1.647 c 0.108,0 0.248,0.105 0.425,0.333 0.777,0.918 1.304,1.62 1.507,2.3 0.147,0.493 0.03,0.863 0.082,1.758 0.138,2.343 0.753,5.54 2.496,12.085 0.17,0.638 0.4,1.393 0.372,1.6 -0.168,1.2 -1.93,-0.747 -2.444,-2.76 -0.594,-2.283 -1.68,-5.2 -2,-7.896 -0.658,-4.282 -1.022,-7.42 -0.44,-7.42 z m -19.968,1.73 c 1.465,3.42 1.58,3.414 0.658,3.684 -0.975,0.287 -1.034,0.193 -2.18,-2.136 -0.835,-1.7 -1,-1.912 -0.297,-2.524 1.073,-1.265 1.354,-0.06 1.82,0.976 z m -20.41,-0.815 c -0.167,0 -0.657,0.375 -1.15,0.57 -1.212,0.48 -3.36,0.513 -4.672,0.118 -2.322,-0.932 -1.668,0.278 0.386,1.015 1.595,0.536 4.753,0.12 5.242,-0.873 0.3,-0.318 0.41,-0.835 0.195,-0.83 z m 17.656,1.798 c 1.308,2.022 1.7,2.83 1.48,2.986 -0.21,0.208 -1.245,0.6 -1.67,0.39 -0.535,-0.26 -1,-1.51 -1.236,-2.49 0.164,-0.477 1.024,-1.334 1.426,-0.887 z m -32.768,0.852 c 0.584,0 2.105,2.046 1.796,2.415 -0.084,0.19 -0.655,0.01 -1.987,-0.36 -0.444,-0.164 -1.45,-0.296 -1.132,-0.94 0.16,-0.293 1.092,-1.116 1.325,-1.115 z m 31.365,2.8 c -0.13,0.35 -1.117,0.433 -1.536,0.407 -0.36,-0.75 -0.455,-1.108 -0.555,-1.604 0.135,-0.298 0.81,-1.07 1.144,-0.918 0.2,0.18 0.844,1.747 0.946,2.116 z m 27.216,-1.97 c 0.21,0.01 0.57,0.373 1.106,1.14 1.014,1.45 0.877,1.344 1.604,4.806 0.826,3.927 1.813,6.723 2.81,10.733 0.015,0.665 -0.255,0.49 -0.994,0.04 -1.208,-0.737 -1.605,-1.554 -1.985,-3.682 -0.65,-3.514 -2.02,-6.766 -2.545,-10.92 -0.278,-1.373 -0.3,-2.125 0,-2.115 z m -30.424,1.403 c 0.713,-0.024 0.617,1.074 0.413,1.252 -0.52,0.454 -1.957,0.318 -2.204,0.344 -0.55,-0.865 1.327,-1.567 1.792,-1.596 z m 34.047,3.736 c 0.21,0.03 0.77,0.824 1.825,2.304 1.01,1.422 0.79,1.19 1.395,3.53 0.857,3.235 2.275,5.568 3.106,8.545 0,0.34 -0.413,0.296 -0.807,0.135 -0.768,-0.32 -1.452,-0.864 -2.102,-1.396 -0.444,-0.48 -0.44,-1.09 -1.753,-5.602 -0.473,-1.63 -0.597,-2.052 -1.188,-4.526 -0.495,-2.07 -0.716,-3.022 -0.478,-2.99 z m -109.72,9.664 c 3.442,6.332 2.168,9.14 -5.233,10.016 -0.534,-0.075 -0.03,3.244 -0.045,4.727 3.71,-2.12 8.193,-2.615 12.325,-3.947 -1.125,3.603 -3.1,7.686 -9.082,7.057 -6.253,-4.83 -13.613,-1.928 -18.607,-3.89 -2.716,-1.012 -3.753,-4.028 -3.785,-4.546 3.257,0.326 6.934,1.024 10.09,0.796 -3.447,-2.656 -2.44,-6.33 -1.953,-8.012 -4.034,-5.086 -0.666,-10.808 5.194,-9.478 0.605,0.138 1.8,0.727 1.8,0.727 5.653,-5.06 12.205,-0.307 9.297,6.55 z m 114.36,-3.08 c 0.234,-0.023 0.75,0.588 1.787,2.038 3.074,4.3 5.735,8.3 5.695,8.525 -0.133,0.74 -3.336,-0.557 -4.144,-1.618 -0.92,-1.208 -3.51,-7.43 -3.507,-8.418 0,-0.33 0.048,-0.515 0.17,-0.526 z m -125.17,18.416 c 1.597,0.235 2.044,0.37 2.027,0.995 0.137,0.53 -3.88,0.6 -4.424,0.207 -0.435,-0.315 0.126,-1.004 0.555,-1.17 0.623,-0.187 1.24,-0.12 1.84,-0.033 z m 110.72,0.57 c -22.44,10.598 -31.62,38.788 -20.294,60.39 l -1.56,1.126 c -11.104,-22.84 -2.843,-47.315 15.2,-59.675 0.73,-0.52 2.346,-0.92 3.098,-1.418 0,0 -7.36,1.68 -9.853,2.654 -0.504,-0.017 -1.99,0.507 -3.584,2.236 -1.394,1.292 -5.754,7.303 -5.615,7.512 l -11.584,0.467 0.01,0.428 11.37,-0.263 c -11.708,19.28 -8.83,37.62 -1.602,50.46 l 0.18,0.12 c 0.42,0.282 1.525,-0.528 3.82,-2.7 0.944,-0.896 2.135,-2.01 2.646,-2.474 1.418,-1.3 3.437,-3.54 4.825,-5.158 -7.873,-16.047 -0.106,-37.182 18.317,-46.706 0.032,-0.507 -0.196,-2.055 -0.196,-2.055 0,0 -0.696,-0.626 -1.108,-0.562 -20.525,9.042 -28.75,31.494 -20.403,51.91 l -1.377,1.498 c -10.486,-21.142 0.77,-47.57 20.397,-55.056 -0.01,-0.478 -0.435,-1.088 -0.963,-0.72 -21.188,9.837 -30.422,34.958 -20.043,56.37 l -1.308,1.156 c -11.808,-23.445 0.633,-49.717 20.14,-58.694 0.575,-0.134 -0.513,-0.846 -0.513,-0.846 z m -114.21,0.218 c 0,0 -0.15,1.25 0.29,1.675 0.204,0.89 -0.12,0.794 -0.878,0.614 -1.865,-0.444 -0.41,0.617 1.116,1.474 1.503,0.844 1.3,0.815 -0.01,1.647 -0.88,0.56 -0.79,0.77 -0.67,1.194 0.175,0.63 0.295,0.21 0.66,-0.126 0.768,-0.705 1.38,-0.882 2.063,-0.88 1.025,0.01 1.13,0.825 0.948,1.465 -0.408,1.342 -1.79,1.27 -2.922,0.937 -1.854,-0.546 -4.882,-3.762 -4.835,-5.654 -0.127,-1.695 2.192,-2.42 4.24,-2.344 z m 8.333,0.415 c 0.72,0.264 1.623,0.617 2.618,1.033 1.375,0.437 2.767,1.147 3.665,1.746 2.734,1.822 2.567,5.468 2.37,5.83 l -14.126,13.386 c 0,0 -0.798,-0.39 -1.55,-0.773 -2.375,-1.213 -2.945,-1.85 -1.627,-2.522 0.64,-0.326 0.845,-1.025 0.937,-1.71 0.122,-0.917 0.074,-0.76 0.623,-1.178 0.954,-0.727 1,-1.028 1.004,-2.237 0,-0.8 0.086,-1.168 0.377,-1.67 0.23,-0.4 0.475,-1.232 0.638,-2.19 0.026,-0.156 0.034,-0.548 0.065,-0.686 0.167,-0.748 0.404,-0.97 0.562,-1.138 0.158,-0.17 0.412,-0.747 0.59,-1.247 0.393,-1.115 0.32,-0.95 0.955,-0.826 0.925,0.18 0.792,0.718 0.69,1.574 -0.048,0.416 -0.325,0.708 -0.23,0.615 0.125,-0.126 0.693,-0.394 0.81,-0.42 0.296,-0.068 0.59,0.033 0.667,0.497 0.042,0.258 -0.07,0.733 -0.063,1.1 0.018,0.954 0.057,2.095 0.274,2.846 1.05,3.62 0.84,3.118 0.483,0.106 -0.085,-0.72 -0.186,-1.78 -0.082,-2.66 0.073,-0.623 0.252,-1.392 0.493,-1.812 0.62,-1.08 0.654,-1.294 -0.69,-1.826 -0.5,-0.198 -1.35,-0.544 -1.527,-0.89 -0.214,-0.42 -0.855,-0.996 -1.69,-1.192 -2.03,-0.477 -3.21,-2.437 -2.917,-2.73 0.192,-0.19 1.01,0.06 1.526,0.08 1.852,0.065 2.246,-0.03 3.066,-0.736 0.438,-0.375 0.634,-0.71 0.982,-0.733 0.367,-0.01 0.834,0.266 1.105,0.362 z m 96.146,2.168 c -18.977,15.352 -22.303,40.187 -12.836,59.35 l -1.64,1.288 c -11.895,-22.48 -3.905,-46.728 10.71,-59.99 z m -109.555,1.83 c 0.335,-0.03 0.7,0.46 2.034,1.884 0.896,0.958 1.83,1.792 2.322,2.07 1.114,0.535 0.87,0.313 -0.058,1.194 -0.95,1.09 -0.425,1.985 -1.56,1.44 -2.953,-1.386 -5.026,-5.47 -3.106,-6.453 0.145,-0.073 0.256,-0.124 0.367,-0.134 z m -1.468,4.295 c 0.072,-0.01 0.15,0.01 0.227,0.024 0.364,0.09 0.806,0.773 1.28,1.25 1.312,1.322 1.92,1.908 2.97,2.372 1.03,0.456 1.06,0.567 0.333,1.372 -0.263,0.293 -0.42,0.644 -0.483,0.84 -0.06,0.196 -0.078,0.446 -0.3,0.488 -1.148,0.22 -4.968,-2.096 -5.12,-3.695 0.125,-1.494 0.502,-2.605 1.093,-2.65 z m 8.095,0.444 c 0.663,-0.017 1.052,0.573 1.048,1.53 0,0.664 -0.376,0.934 -1.135,1.218 -1.623,0.608 -2.622,-0.553 -1.488,-1.835 0.477,-0.54 1.12,-0.9 1.575,-0.913 z m -0.99,3.898 c 1.224,0 1.578,1.036 0.68,1.927 -0.842,0.835 -2.543,0.84 -2.54,-0.08 0,-0.718 1.08,-1.85 1.86,-1.848 z m -7.59,1.234 c 0.83,0.245 2.845,1.697 3.73,1.868 0.048,0.49 -0.542,0.623 0.295,1.544 0.38,0.418 0.413,0.703 0.082,0.88 -1.012,0.538 -4.514,-1.165 -4.748,-2.918 -0.114,-0.856 0.17,-1.343 0.64,-1.374 z m 4.57,2.098 c 1.206,0.05 2.57,0.086 2.426,0.662 -0.104,0.417 -0.536,1.52 -1.087,1.314 -0.267,-0.1 -0.528,-0.367 -0.714,-0.546 -0.643,-0.617 -0.814,-1.438 -0.623,-1.43 z m 45.57,4.99 c 3.51,3.177 16.26,36.372 -10.313,60.557 l -5.64,1.69 c 25.514,-20.033 21.27,-48.475 14.384,-60.744 0,-0.36 -0.1,-0.32 -0.735,0.256 -0.557,0.503 -0.616,0.612 -0.392,0.705 7.78,11.973 10.69,45.79 -19.967,62.107 -0.513,0.535 0.528,0.453 0.528,0.453 0.054,-0.44 13.804,-3.78 12.833,-3.864 12.816,-11.328 23.973,-38.342 10.084,-61.89 -0.335,-0.22 -0.783,0.73 -0.783,0.73 z m -4.428,3.757 -0.18,0.75 c 11.124,21.836 0.507,48.59 -20.168,58.49 0.34,0.25 0.718,0.422 1.098,0.6 23.454,-12.63 30.217,-39.36 19.986,-60.062 z m -1.86,1.55 -0.13,0.792 c 9.21,18.584 1.9,44.374 -20.077,54.835 -0.21,1.125 0,0.797 1.03,0.743 25.43,-13.636 27.82,-39.567 19.863,-56.408 z m -1.58,2.228 c -0.717,0.95 -2.032,1.44 -2.47,2.663 7.388,19.524 -2.16,38.318 -18.32,46.24 -0.014,0.983 -0.72,3.414 0.992,3.025 19.968,-9.045 28.656,-33.09 19.925,-52.014 0,0 -0.113,0.084 -0.125,0.088 z m 100.3,37.748 c 0.735,0.052 1.394,0.275 2.077,0.364 2.48,0.32 4.09,2.13 2.982,3.23 -0.365,0.36 -0.873,0.153 -2.485,-0.635 -0.74,-0.363 -0.86,-0.702 -1.012,-1.518 -0.184,-0.98 -0.38,-1.08 -0.628,-0.32 -0.25,0.768 -0.522,1.245 -1.37,1.05 -2.377,-0.552 -1.478,-2.19 0.437,-2.17 z m -26.532,16.622 c -5.956,-3.38 -13.31,-9.474 -17.515,-16.4 -2.09,3.923 -4.547,11.06 -4.547,11.06 l -9.348,-2.61 -0.11,0.194 9.24,2.663 -0.9,3.083 c -0.098,0.333 -1.53,3.843 -1.53,3.843 l 14.432,6.735 c -0.894,1.4 -1.87,2.304 -3.11,3.61 -0.7,0.735 -0.72,1.69 -0.72,1.69 l 20.01,-19.087 c 0,0 2.58,3.827 3.542,4.696 0.9,0.814 1.18,1.01 0.13,1.254 -4.702,0.69 -8.35,4.25 -7.08,9.024 0.207,0.53 0.62,0.335 1.513,-0.225 3.12,-2.827 10.75,-5.444 11.01,-4.78 l 0.03,3.04 c -8.214,0.12 -7.372,6.158 -6.77,9.397 0,0.07 -2.376,2.146 -2.376,2.146 0.84,0.44 1.663,0.897 2.44,1.44 -0.723,4.028 2.71,9.866 9.452,6.878 0.583,0.598 1.133,1.198 1.776,1.95 0.69,-0.8 1.485,-2.682 1.485,-2.682 3.35,1.516 10.298,-1.876 6.744,-9.646 l 1.96,-1.87 -1.882,-1.185 c -0.05,-1.976 -0.355,-3.74 -1.534,-5.462 0,0 3.162,0.806 5.5,0.942 1.446,0.13 2.664,0.168 2.542,-0.706 -0.035,-0.258 -0.25,-1.515 -0.392,-1.927 -0.698,-2.035 -4.318,-3.53 -7.833,-3.727 -0.572,-0.032 -1.19,-0.014 -1.312,-0.163 -0.23,-0.28 0.182,-0.676 0.56,-0.61 1.925,0.335 3.777,-1.088 4.11,-2.898 0.066,-0.317 0.46,-0.898 1.024,-1.516 1.002,-1.098 1.08,-1.07 1.06,-2.654 -0.012,-1.1 0.18,-1.344 0.688,-2.08 0.655,-1.052 0.96,-2.423 0.63,-3.842 -0.104,-0.45 -0.53,-1.086 -0.167,-2.207 0.59,-1.822 -0.707,-3.49 -2.408,-4.44 -0.136,-0.037 -0.095,0.096 -0.207,0.23 -1.543,0.48 -3.422,-0.625 -3.422,-0.625 -0.388,-0.19 1.314,-10.077 4.84,-9.194 0.585,0.356 0.833,2.074 0.79,2.104 0.16,0 0.25,-1.01 0.02,-1.683 -0.238,-0.706 -0.785,-1.377 -1.837,-1.18 -0.816,0.155 -1.757,1.237 -2.183,1.78 -1.647,2.1 -1.666,3.44 -2.216,5.67 -0.263,1.057 -0.292,0.996 -1.753,-0.146 -1.048,-0.82 -1.556,-1.08 -1.19,-1.56 0.162,-0.217 0.842,-0.9 0.842,-0.9 l 12.76,-12.28 0,122.976 -72.168,0 0.505,-15.803 c 1.355,-11.112 -1.028,-34.447 -2.83,-36.642 1.39,-1.562 5.704,-5.328 5.466,-5.498 l -0.572,-0.338 -2.28,2.097 -5.633,-1.706 c -2.402,-1.658 -4.855,-3.193 -7.398,-3.846 -4.155,-1.066 -12.155,2.33 -12.162,2.366 -12.78,0.947 -23.014,6.136 -22.87,6.097 -0.558,-0.51 -1.294,-2.143 -1.314,-2.133 -6.587,-9.168 -13.064,-14.303 -21.912,-20.57 l 11.207,-6.19 -26.558,-27.748 -0.234,-22.532 38.472,-36.78 c 0.226,-0.634 12.274,8.51 16.76,15.95 0.86,-3.637 2.46,-6.94 3.796,-10.51 0.14,-0.328 7.654,2.777 9.883,2.908 0.332,0.02 0.6,-0.33 0.6,-0.33 l -9.917,-3.226 2.03,-5.81 c 0,0 0.705,-1.578 -0.092,-1.84 -4.52,-1.462 -8.762,-4.04 -13.086,-6.235 0,0 2.02,-2.244 2.05,-2.344 0.03,-0.093 0.847,-1.298 0.652,-1.713 -2.2,2.134 -20.148,18.78 -20.148,18.78 -0.51,-2.857 -1.314,-3.856 -3.06,-5.62 0.952,-0.044 2.44,-0.984 3.3,-1.61 2.63,-1.917 4.063,-5.337 3.718,-7.334 -2.525,0.802 -4.805,1.744 -7.968,2.318 -1.777,0.323 -3.463,1.125 -4.486,1.986 l -0.157,-3.187 c 0.01,0.036 4.256,0.745 6.224,-2.107 1.695,-2.458 1,-5.27 0.61,-6.705 0.044,-0.318 -0.05,-0.282 0.68,-0.956 0.54,-0.498 1.382,-1.14 1.382,-1.14 0.036,-0.182 -2.194,-1.008 -2.57,-1.763 0.593,-5.908 -4.128,-8.19 -8.123,-7.14 -0.748,0.226 -1.104,0.366 -1.992,-0.623 -0.133,-0.148 -1.198,-1.273 -1.198,-1.273 0,0 -0.47,1.086 -0.71,1.56 -0.785,1.546 -1,1.08 -2.69,1.164 -4.278,0.21 -6.188,3.664 -5.206,7.906 0.23,0.996 0.127,0.842 -0.526,2.1 -0.334,0.644 -0.88,1.465 -0.88,1.465 0,0 0.786,0.434 1.314,0.67 0.784,0.35 0.825,0.76 0.822,1.542 0.11,1.72 0.487,2.873 1.476,4.352 -3.352,0.076 -5.924,-0.237 -8.96,-1.245 0.466,4.667 3.906,6.405 8.12,7.09 0,0 -0.442,0.412 -0.907,0.596 -0.986,0.287 -1.603,1.153 -1.594,1.93 -0.143,0.74 -0.622,1.483 -1.063,1.88 -0.657,0.567 -1.196,1.367 -0.937,2.915 -0.067,1.12 -0.338,1.446 -0.667,1.874 -0.66,0.86 -0.884,1.713 -0.72,2.844 0.077,0.525 0.24,1.652 0.13,2.815 -0.18,1.94 0.515,2.667 1.397,4.032 0.57,0.885 0.45,0.91 0.318,1.55 -0.317,1.542 -0.647,2.335 -0.99,3.507 -0.766,2.623 -0.796,4.612 -0.17,5.124 0.946,0.77 2.016,0.54 2.513,0.385 3.73,-1.152 3.084,-4.813 3.28,-7.27 0.107,-0.63 0.323,-0.935 0.532,-0.905 1.054,1.234 2.17,1.947 3.604,2.725 -4.962,5.05 -8.203,8.14 -14.476,13.65 l 0.17,-123.006 71.558,0 c 0,0 0.074,0.91 -0.096,5.36 -0.31,9.046 -0.69,18.522 -0.097,27.744 0.1,3.19 0.034,6.342 0.493,9.5 0.446,3.076 0.644,6.394 2.082,9.26 0.577,1.552 0.596,1.433 -1.605,3.467 -1.08,0.998 -1.998,2.06 -1.957,2.247 0.013,0.062 -0.048,0.296 0.117,0.164 0.11,-0.088 0.908,-0.878 0.996,-0.982 0.598,-0.703 1.596,0.2 5,1.16 0.667,0.188 1.608,0.816 2.328,1.337 5.088,4.29 12.248,2.952 17.6,0.614 1.52,-0.664 1.89,-0.732 4.332,-1.022 9.04,-1.07 18.7,-5.02 18.678,-5.01 l 1.18,1.934 c 0,0 0.444,-0.082 0.76,0.405 5.2,9.82 22.174,21.04 21.873,20.52 l -11.095,6.143 c 8.078,9.98 26.55,26.913 26.55,26.913 l -0.425,24.335 c -4.96,3.968 -9.32,8.514 -13.682,12.954 -1.254,1.24 -2.14,1.95 -1.663,1.973 1.132,-0.172 2.11,0.944 3.03,1.718 0.584,0.65 0.443,0.59 -0.23,1.48 -0.473,0.624 -0.646,0.805 -0.648,1.256 0.017,0.874 0.01,1.46 -0.766,2.114 -0.482,0.606 -0.758,0.994 -0.845,1.712 -0.087,0.717 -0.08,1.177 -0.574,1.81 -0.834,0.18 -0.913,1.395 -0.766,1.94 0.875,0.867 0.475,1.807 0.557,1.61 -1.67,1.814 -3.425,3.385 -2.305,0.85 0.505,-0.945 0.68,-1.727 0.68,-1.727 0,0 -0.804,0.832 -1.225,1.226 -0.644,0.596 -0.88,0.245 -0.9,-1.607 -0.082,-1.402 -0.673,-3.357 -0.908,-3.73 -0.13,-0.21 -0.153,0.152 -0.09,1.5 0.08,1.776 0.29,2.29 -0.334,4.063 -0.844,2.394 -1.445,2.733 -0.073,2.65 1.3,-0.078 2.397,-0.092 2.965,0.684 0.192,0.26 0.438,0.71 0.963,0.972 1.07,0.583 1.92,1.23 2.513,1.877 1.92,2.09 1.37,3.957 -2.345,2.69 -1.955,-0.666 -0.674,-1.506 1.428,-1.312 1.292,0.12 1.51,-0.356 0.392,-0.698 -2.08,-0.384 -2.414,-0.62 -3.785,1.01 -5.757,-0.568 -8.99,-3.787 -10.543,-6.41 -0.65,-1.095 -0.85,-1.305 -0.396,-1.926 0.178,-0.243 0.07,-0.17 -0.237,0.17 -0.308,0.34 -1.144,0.623 -1.42,0.867 -1.935,1.93 -3.895,4.002 -5.638,5.57 z m 25.058,-13.514 c 0.977,0.12 0.958,0.94 0.086,1.73 -0.82,0.62 -1.382,0.74 -1.844,0.275 -0.81,-0.818 0.236,-2.012 1.758,-2.006 z m 2.845,0.57 c 0.788,0 1.793,0.358 2.986,1.35 1.426,1.184 1.75,4.05 0.443,4.547 -0.548,0.208 -0.633,0 -1.8,-1.104 -0.788,-0.75 -1.642,-1.426 -2.483,-1.826 -1.717,-0.817 -1.937,-1.126 -0.777,-1.683 0.244,-0.125 0.56,-0.42 0.705,-0.652 0.298,-0.477 0.388,-0.63 0.927,-0.632 z m -1.855,3.816 c 0.228,0.01 0.533,0.145 1.01,0.4 2.894,1.58 4.31,4.06 3.33,5.458 -0.643,0.918 -1.688,0.568 -2.485,-0.734 -0.45,-0.732 -1.642,-1.67 -2.995,-2.357 -1.55,-0.785 -1.583,-0.898 -0.464,-1.434 0.46,-0.22 0.805,-0.53 1.03,-0.927 0.26,-0.46 0.28,-0.415 0.574,-0.406 z m 0.928,5.905 c 2.187,2.18 1.937,3.36 0.516,4.248 -0.97,0.606 -2.525,0.757 -3.035,0.255 -0.826,-0.72 -0.804,-1.546 0.107,-1.81 0.85,-0.183 0.53,-0.523 -0.262,-0.725 -2.836,-0.804 -4.58,-2.31 -1.497,-1.983 0.885,0.094 1.74,-0.593 2.204,-1.142 0.668,-0.812 1.572,0.764 1.966,1.157 z m -149.12,0.84 63.82,91.362 -51.594,-0.1 c 0,0 -0.194,-0.67 0.226,-6.147 0.62,-7.43 -0.332,-13.874 -2.09,-21.126 0.22,-0.025 -2.47,-8.804 -4.565,-13.094 -0.38,-0.9 -0.32,-0.986 0.917,-1.145 3.653,-0.586 7.586,-1.47 11.235,-3.014 1.696,-0.148 4.186,0.513 4.052,0.306 -0.062,-0.1 -2.208,-2.067 -2.208,-2.067 -5.958,2.38 -11.455,3.25 -16.63,3.84 6.87,11.692 9.32,27.606 7.26,41.9 l -9.884,-0.03 -0.03,-70.35 z m 11.407,13.53 c 0.902,-0.034 3.147,1.55 3.422,2.743 0.056,0.244 0.64,1.71 1.294,3.073 0.014,0.253 2.226,4.247 1.254,3.9 -1.934,-2.63 -5.39,-7.104 -6.258,-9.284 0,-0.29 0.037,-0.42 0.29,-0.43 z m 6.895,3.997 c 0.12,0.66 0.79,2.387 1.318,3.524 1.377,2.965 3.51,7.612 3.077,8.935 -0.293,0.893 0.01,0.846 -0.773,-0.255 -0.382,-0.538 -1.574,-2.2 -1.86,-2.584 -0.698,-0.935 -0.228,-0.076 -0.626,-1.6 -0.95,-4.312 -2.485,-6.577 -3.483,-9.096 -0.355,-1.182 1.89,0.602 2.347,1.078 z m 1.226,0.658 c 0.186,0.13 2.715,1.908 2.97,2.163 0.897,3.188 4.482,13.402 3.554,15.227 -0.323,-0.253 -1.69,-1.9 -1.88,-2.75 -0.412,-4.883 -1.962,-8.395 -3.625,-12.035 -0.467,-1.097 -0.835,-2.194 -1.02,-2.605 z m 4.758,3.586 c 0.8,0.39 1.63,1.285 2.1,2.084 0.312,0.543 0.473,1.18 0.77,2.523 0.915,4.167 2.664,8.392 1.877,12.838 -0.49,0.666 -1.556,-0.842 -1.708,-2.327 -0.506,-4.924 -0.94,-7.283 -2.67,-13.074 -0.337,-1.125 -0.59,-2.005 -0.368,-2.044 z m 4.062,3.82 c 0.17,0.01 0.52,0.326 1.106,0.874 1.137,1.068 1.297,1.46 1.304,3.232 0.037,2.602 0.904,5.573 1.038,8.2 0.078,1.517 0.355,5.438 0.12,5.67 -0.33,0.457 -1.798,-1.204 -1.685,-3.752 0.186,-3.062 0.034,-5.367 -1.27,-10.664 -0.604,-2.45 -0.91,-3.495 -0.648,-3.555 0.01,0 0.022,0 0.034,0 z m 117.825,-15.467 c 4.56,2.926 2.953,8.33 1.977,8.993 6.296,7.955 -3.49,12.03 -6.598,9.17 -4.6,4.568 -12.49,0.74 -9.45,-6.792 0,0 -5.775,-11.03 5.614,-10.292 0,0 0.196,-4.457 -0.126,-4.66 -4.065,-0.274 -9.59,3.64 -11.157,4.723 -0.867,0.525 -1.057,0.275 -1.057,0.275 -0.217,-2.314 -0.223,-3.373 0.717,-4.663 1.64,-2.25 4.353,-3.012 7.916,-3.794 4.41,1.357 8.607,3.49 12.692,3.157 2.25,0.013 4.55,0.377 6.73,1.547 1.47,0.694 2.237,3.297 2.237,3.297 -2.308,1.207 -9.494,-0.96 -9.494,-0.96 z m -2.168,-16.358 c 0.02,-0.79 0.91,-1.67 1.79,-1.568 1.207,0.087 1.365,1.516 0.292,2.043 -0.31,0.25 -1.312,-0.12 -1.367,0.158 0.074,0.487 -0.417,0.282 -0.51,0.106 -0.168,-0.206 -0.205,-0.5 -0.205,-0.738 z m -0.73,3.115 c 0.442,-0.31 0.812,-0.338 1.258,-0.397 0.685,-0.083 1.56,0.02 1.755,0.738 0.19,0.704 -1.16,1.12 -2.253,1.138 -0.557,0.01 -1.2,0.117 -1.368,-0.273 -0.157,-0.366 0.383,-1.04 0.607,-1.206 z m -138.013,-50.308 c 0.88,-3.06 0.33,-4.77 1.795,-8.54 l 3.57,1.188 c 0,0 0.15,3.697 -0.568,5.757 -0.72,2.058 -3.088,3.7 -4.798,1.594 z m 26.587,82.7 c 0.422,0.052 1.456,1.524 1.923,2.87 0.428,1.248 0.286,2.833 0.598,4.178 0.7,4.61 0.66,9.226 0.474,10.62 -0.093,0.696 -0.54,0.413 -1.155,-0.25 -0.892,-0.964 -0.768,-0.985 -0.758,-3.66 0.01,-2.295 -0.5,-7.963 -0.735,-9.115 -0.433,-2.13 -0.614,-4.162 -0.512,-4.51 0.03,-0.1 0.086,-0.14 0.164,-0.132 z m 41.747,0.553 c 4.597,0.732 8.272,3.87 10.378,9.036 2.032,5.252 2.533,12.42 2.848,19.008 -0.022,1.576 -0.67,1.178 -2.374,0.2 -1.86,-0.91 -2.256,-0.647 -4.97,-0.025 -1.695,0.388 -1.542,-0.764 1.245,-2.676 0.95,-0.62 2.054,-1.446 1.692,-1.57 -0.184,-0.062 -1.034,0.166 -1.647,0.662 -2.735,2.21 -3.477,2.747 -2.688,0.598 0.2,-0.543 0.833,-2.05 1.097,-2.77 0.99,-2.702 -0.15,-3.857 -3.515,-5.566 -0.843,-0.428 -1.396,-1.14 -0.556,0.352 0.687,1.222 -0.733,2.207 -2.492,0.778 -1.223,-0.993 -3.68,-0.332 -4.472,0.908 -0.768,1.2 -0.358,3.44 1.156,4.167 1.335,0.574 1.832,0.16 0.542,-0.734 -1.66,-1.15 -1.337,-3.092 0.527,-3.085 0.46,0 1.273,0.515 3.33,1.632 1.47,0.796 2.516,0.46 2.518,-0.73 0,-0.794 0.456,-0.73 1.423,-0.25 1.303,0.643 1.16,1.226 0.472,3.026 -0.464,1.257 -0.695,2.686 -1.12,4 -1.098,4.42 -1.244,9.43 -0.03,10.99 3.226,4.152 6.654,3.712 9.588,0.97 l -0.126,4.545 c -2.992,2.403 -6.487,4.04 -11.884,12.94 -1.882,-2.363 -9.957,-12.026 -22.906,-14.21 l -2.913,-3.986 c 0.05,-0.248 -2.178,-14.827 -3.634,-19.79 0,0 1.602,-2.433 3.057,-4.226 5.814,-7.163 15.64,-15.36 25.454,-14.195 z m -16.887,4.138 c -0.498,0.16 -0.66,-0.834 -0.39,-1.023 0.6,-0.05 0.812,-0.032 1.412,0.013 0.452,0.028 0.44,0.547 -1.023,1.01 z m -21.85,-0.743 c 0.646,0.46 1.435,1.7 2.207,2.83 0.427,0.626 0.184,1.663 0.25,2.686 0.095,1.45 0.256,3.843 0.358,5.313 0.2,2.867 -0.07,5.264 -0.488,6.13 -0.428,1.034 -1.296,0.32 -1.51,-1.097 -0.053,-0.342 0.23,-3.857 0.23,-5.787 0,-3.32 -0.848,-7.42 -1.048,-10.076 z m 19.6,-0.02 c 0.227,-0.013 0.4,-0.01 0.552,0.19 0.697,0.892 0.98,1.432 0.344,1.922 -0.84,0.7 -1.608,0.524 -2.075,-0.81 -0.3,-0.952 0.408,-1.25 1.176,-1.303 z m -2.597,0.787 c 0.752,0.504 1.497,1.83 1.575,2.787 -0.047,0.263 -0.28,0.486 -0.783,0.893 -0.5,0.46 -0.658,0.43 -1.217,-0.45 -0.875,-1.37 -1.285,-2.27 -1.113,-2.742 0.437,-0.454 1.006,-0.635 1.538,-0.486 z m 30.608,0.173 c 1.255,0.107 2.494,0.68 3.715,0.968 l -1.863,1.802 c -0.554,-0.924 -1.185,-1.847 -1.852,-2.77 z m -33.392,0.94 c 0.688,0.895 1.887,3.238 1.823,4.108 -0.176,0.297 -0.448,0.56 -0.736,0.727 -0.23,0.062 -0.436,-0.34 -1.212,-1.713 -1.35,-2.388 -1.745,-3.06 -1.044,-3.348 0.368,-0.04 0.928,-0.024 1.168,0.224 z m -2.722,0.555 c 0.75,0.667 2.552,4.225 2.604,5.226 -0.02,0.282 -0.105,0.526 -0.272,0.716 -1.132,1.218 -0.845,1.02 -2.532,-2.45 -1.423,-2.854 -1.8,-3.136 -0.858,-3.457 0.21,-0.07 0.73,-0.165 1.058,-0.035 z m -2.707,0.928 c 0.494,-0.01 0.633,0.82 1.596,2.702 1.613,3.56 2.22,4.054 1.853,4.434 -0.45,0.567 -0.713,0.966 -1.14,0.277 -0.973,-1.582 -1.938,-3.6 -2.844,-5.37 -0.725,-1.324 -0.79,-1.484 -0.324,-1.808 0.267,-0.185 0.665,-0.232 0.86,-0.235 z m 28.79,1.01 c -0.605,0.17 -3.042,0.943 -1.55,1.083 0.302,0.028 1.067,-0.163 1.604,-0.2 1.51,-0.104 4.65,0.18 4.536,-0.11 -0.286,-1.083 -3.766,-0.983 -4.588,-0.772 z m -30.9,0.334 c 0,0.06 0.39,0.754 0.78,1.433 2.293,4.43 3.568,6.042 3.16,6.742 -0.335,0.422 -0.853,0.954 -1.16,0.828 -0.492,-0.203 -1.15,-1.653 -2.79,-4.935 -1.695,-3.39 -1.872,-3.645 -1,-4.085 0.357,-0.166 0.79,-0.288 1.01,0.016 z m -2.29,1.563 c 1.053,1.712 0.915,1.487 0.903,7.06 -0.01,3.47 -0.453,5.682 -1.034,6.536 -0.304,0.447 -0.84,0.184 -1.106,-0.69 -0.12,-0.4 0.225,-0.995 0.29,-1.63 0.41,-4.173 0.124,-8.344 0.133,-12.294 0.318,-0.034 0.644,0.737 0.814,1.017 z m 27.178,1.366 c 0.49,0.7 0.37,1.265 0.367,2.208 -0.01,1.333 0.09,1.43 1.01,0.76 0.816,-0.598 0.882,-0.636 2.337,0.35 0.862,0.587 1.95,0.653 2.655,0.01 0.496,-0.456 0.668,-0.25 1.333,-0.077 0.724,0.4 0.93,0.463 2.483,-0.29 1.05,-0.465 1.092,-0.532 1.715,-0.204 1.098,0.967 1.26,0.618 1.11,-0.647 0,-0.442 0.132,-1.267 0.262,-1.802 0.546,-2.25 -0.338,-2.274 -1.507,-0.84 -0.452,0.554 -1.46,0.795 -2.415,0.347 -1.365,-0.64 -3.497,-0.382 -5.072,-0.117 -1.865,0.314 -2.728,-0.2 -3.477,-0.84 -0.424,-0.36 -1.394,-0.685 -1.5,-0.407 -0.11,0.278 0.11,0.715 0.7,1.553 z m -25,3.154 c 0.233,-0.05 0.592,0.64 1.116,2.106 0.677,1.89 -0.505,8.463 -1.216,9.54 -0.377,0.564 -0.618,0.91 -1.39,-0.136 -0.31,-0.46 -0.07,-0.606 0.235,-1.898 0.463,-1.967 0.854,-5.148 0.878,-6.628 0.01,-1.92 0.112,-2.928 0.377,-2.985 z m 2.376,6.376 c 0.17,0.012 0.366,0.39 0.634,1.14 0.38,1.03 0.195,3.012 -0.304,4.53 -0.29,0.884 -0.565,1.827 -1.058,2.618 -0.168,0.445 -1.028,0.29 -1.265,-0.695 -0.15,-0.622 0.367,-1.395 0.618,-2.386 0.25,-0.996 0.538,-2.262 0.68,-2.9 0.263,-1.554 0.45,-2.324 0.696,-2.307 z m 18.394,2.912 c -0.02,0 -0.04,0 -0.054,0 0,-0.01 -0.01,0.01 -0.014,0.015 -0.04,0.04 1.793,2.035 2.284,2.593 0.257,0.218 2.465,2.9 1.092,2.285 -3.464,-1.436 -7.517,-0.73 -10.012,1.676 -0.313,0.3 -0.57,-0.01 -1.517,-0.08 -1.94,-0.143 -2.642,0.626 -1.463,1.58 0.18,0.147 0.557,0.213 0.727,0.447 0.156,0.216 0.11,0.602 0.19,0.71 3.75,4.975 10.692,5.944 15.05,2.693 0.55,-0.41 0.856,-0.553 1.367,-0.4 1.014,0.3 1.103,-0.548 0.208,-1.735 -0.39,-0.517 -0.872,-1.114 -0.59,-1.285 0.552,-0.477 0.826,-1.255 -0.137,-1.546 -0.663,-0.2 -1.407,-0.94 -1.78,-1.97 -0.435,-1.203 -4.705,-4.9 -5.35,-4.99 z m -17.016,2.18 c 0.814,-0.02 0.852,4.792 -0.048,6.253 -0.463,0.553 -1.52,-0.475 -1.363,-1.53 0.12,-0.803 0.986,-4.42 1.184,-4.61 0.08,-0.075 0.16,-0.113 0.228,-0.114 z m 16.61,3.003 c 0.684,-0.01 1.62,0.3 2.364,0.97 0.402,0.365 1.107,1.94 0.814,2.556 -0.082,0.313 -0.927,0.295 -1.003,0.065 -0.465,-3.177 -3.04,-3.638 -3.858,-0.673 0,0 -0.53,0.45 -0.597,-0.418 0.183,-1.684 0.974,-2.49 2.28,-2.502 z m 20.735,0.275 c 0.818,-0.015 1.598,0.396 2,1.27 0.28,0.61 0.31,1.123 0.198,1.39 -0.082,0.2 -0.357,0.113 -0.357,0.113 -1.307,-3.584 -3.086,-1.926 -3.73,0.055 0,0 -0.673,0.21 -0.756,-0.01 -0.084,-0.214 -0.032,-0.617 0.235,-1.175 0.51,-1.065 1.483,-1.63 2.41,-1.647 z m -17.485,0.222 c 0.463,-0.025 1.255,0.352 1.848,0.95 0.602,0.605 0.66,0.967 0.175,1.417 -0.292,0.27 -1.33,0.538 -1.53,0.068 l -0.876,-2.043 c -0.083,-0.194 0.174,-0.38 0.384,-0.392 z m -6.298,0.097 c 0.518,0 0.628,0.12 -0.186,2.012 -0.174,0.404 -2.26,-0.183 -1.863,-0.964 0.597,-0.62 1.532,-1.05 2.05,-1.048 z m 20.91,0.15 c 0.207,-0.01 0.377,0.02 0.448,0.115 -0.187,0.068 -0.976,2.063 -0.976,2.063 -0.744,-0.09 -1.635,0.015 -1.796,-0.594 -0.153,-0.576 0.148,-0.926 1.197,-1.328 0.318,-0.116 0.778,-0.24 1.126,-0.256 z m 6.108,0.512 c 0.79,0.29 0.975,0.958 0.874,1.304 -0.077,0.26 -0.45,0.264 -0.715,0.062 -0.252,-0.292 -0.622,-0.79 -0.594,-1.125 0.082,-0.333 0.183,-0.337 0.435,-0.24 z m -39.378,1.843 c 0.243,0.457 0.682,3.048 0.17,2.982 -0.498,-0.13 -0.73,-0.91 -0.817,-1.615 -0.018,-0.145 0.425,-1.35 0.647,-1.368 z m 8.7,1.383 c 0.23,-0.033 0.81,0.17 1.67,0.657 2.835,1.37 5.74,1.563 8.826,0.874 1.78,-0.46 2.234,-0.732 2.486,-0.426 0.427,0.518 -0.247,1.037 -2.76,1.882 -2.757,0.926 -5.617,0.77 -9.377,-1.883 -1.01,-0.713 -1.142,-1.06 -0.846,-1.103 z m 31.45,0.714 c 0.467,0.87 -1.12,1.696 -1.926,1.93 -1.71,0.494 -4.3,0.263 -5.763,-0.616 -0.122,-0.074 -0.24,-0.153 -0.352,-0.236 -1.19,-0.886 -0.697,-1.52 0.628,-0.836 1.425,0.735 4.325,0.87 5.863,0.128 0.77,-0.372 1.3,-0.838 1.55,-0.37 z m -35.194,1.624 c -0.158,0.035 0.11,0.434 0.662,1.033 3.877,4.353 13.127,6.713 18.326,2.23 1.63,-1.53 1.38,-2.217 -1.188,-0.996 -2.84,0.934 -6.876,1.057 -10.367,0.54 -1.717,-0.232 -4.513,-0.89 -5.932,-1.927 -0.894,-0.654 -1.363,-0.91 -1.502,-0.88 z m 26.733,0.13 c 0.236,0.02 0.65,0.107 1.55,0.575 1.315,0.683 4.298,0.45 5.275,0.09 2.058,-0.76 2.48,0.204 0.53,1.28 -2.172,1.317 -5.17,0.802 -6.92,-0.892 -0.543,-0.485 -0.836,-1.09 -0.598,-1.138 0.023,0 0.13,0.083 0.162,0.086 z m -25.704,7.697 c 7.635,0.698 19.158,8.274 23.65,17.375 l -2.585,0 c -4.513,-7.162 -11.458,-12.927 -19.7,-15.078 -0.326,-0.25 -1.54,-1.98 -1.364,-2.297 z m 33.89,1.667 -0.352,2.516 c -1.28,1.05 -5.97,4.935 -9.448,11.02 -0.725,-0.035 -1.076,-0.908 -0.955,-1.503 2.785,-5.49 6.115,-8.523 10.756,-12.033 z m -30.858,1.97 c 1.752,-0.12 13.15,6 16.987,13.738 l -2.1,0 c -4.318,-5.622 -9.116,-9.29 -13.375,-10.76 -1.036,-1.093 -2.17,-2.93 -1.512,-2.978 z m 30.506,1.75 -0.02,3.4 c -2.727,2.655 -4.72,5.325 -6.28,8.588 l -2.117,0 c 0,0 -0.47,-0.932 -0.307,-1.513 2.407,-4.33 4.71,-7.484 8.724,-10.475 z m -17.314,11.988 -2.048,0 c -1.73,-2.445 -4.3,-4.797 -6.657,-6.197 -0.967,-1.197 -2.05,-2.675 -1.614,-2.915 0.027,-0.884 9.096,5.244 10.32,9.112 z m 17.358,-6.916 -0.044,1.965 c -1.387,1.773 -2.55,3.26 -3.66,4.95 l -1.746,0 c 1.593,-3.437 5.592,-7.846 5.45,-6.916 z m -23.516,3.806 c 0.632,0.167 2.94,2.372 2.867,3.11 l -1.04,-0.03 c -0.584,-0.736 -1.275,-1.502 -1.685,-2.255 -0.257,-0.477 -0.42,-0.918 -0.143,-0.825 z m 23.114,0.608 c 0.01,0 0.01,0 0.015,0 0,0 -0.02,2.502 -0.02,2.502 l -1.752,0 c -0.19,-0.034 0.85,-1.89 1.758,-2.502 z"
         id="path4547" />
      <path
         inkscape:connector-curvature="0"
         d="m 2698.142,999.21 c -8.59,-0.002 -17.277,0.047 -26.94,0.15 l 65.247,92.576 0.052,-20.565 -20.94,-27.02 c 4.767,-1.47 10.586,-2.485 15.167,-2.893 -5.885,-13.045 -8.83,-25.297 -6.236,-42.088 -9.27,-0.107 -17.762,-0.16 -26.352,-0.16 z m 25.265,0.59 c -0.51,5.927 -1.182,12.537 -0.106,19.88 -3.395,-1.24 -4.19,0.877 -4.754,1.1 -0.64,-1.425 -3.006,-3.89 -5.685,-0.993 -1.392,1.506 -0.716,4.34 2.518,5.616 -3.703,0.285 -5.627,-2.88 -6.277,-6.144 -2,-1.283 -4.105,-2.55 -4.305,-7.04 l 1.026,0.17 c -0.34,3.135 2.917,4.73 4.823,3.235 1.232,-0.944 1.364,-2.4 0.878,-4.664 0.99,-0.202 3.31,-1.172 2.696,-4.15 -0.846,-4.112 -5.07,-3.63 -7,-0.925 -1.603,-1.986 -4.543,-2.354 -5.722,0.73 -0.657,1.716 0.84,3.644 2.54,4.017 -3.777,0.725 -5.68,-4.483 -5.892,-8.008 l -1.565,-2.777 c 10.21,-0.06 14.676,-0.047 26.83,-0.048 z m -51.144,0.1 7.578,0.005 55.31,71.57 0.115,17.817 z m 19.16,0.005 1.208,0.015 c 0.948,6.3 4.57,10.86 10.767,13.08 0.322,5.145 2.803,12.136 12.22,14.498 -0.278,5.81 3.455,11.365 7.452,14.026 0,0 -1.08,0.267 -1.923,0.348 -5.374,-4.26 -6.698,-10.534 -7.23,-13.123 -0.182,-0.375 -0.695,-0.465 -1.102,-0.556 -4.6,-1.625 -8.47,-5.402 -10.05,-10.013 l -0.996,-4.524 c 0,-0.582 -0.117,-0.308 -1.484,-0.812 -3.547,-1.305 -6.826,-5.143 -8.297,-9.727 -0.775,-2.41 -0.566,-3.212 -0.566,-3.212 z m -4.873,0.015 4.246,0.004 c 0,0 0.025,0.75 0.087,1.237 0.57,4.514 4.623,10.177 8.756,12.056 0.584,0.266 1.398,0.64 1.588,0.817 1.155,7.398 4.51,11.853 11.587,14.905 0.113,0.116 0.432,0.19 0.527,0.338 0.965,4.575 3.073,9.878 7.085,12.794 l -1.734,0.18 z m 20.74,7.764 c 0.96,0 1.738,0.78 1.738,1.74 0,0.96 -0.78,1.733 -1.74,1.733 -0.96,0 -1.738,-0.774 -1.738,-1.734 0,-0.96 0.78,-1.74 1.74,-1.74 z m -58.597,9.488 c 0.1,0.25 -23.746,20.422 -21.425,58.374 l -0.69,0.773 0.188,0.27 c -0.788,0.893 -1.546,1.61 -2.406,2.482 4.945,3.152 13.565,6.59 13.592,6.5 l -1.647,3.817 10.302,3.327 -1.382,3.627 c 0,0 -7.167,-2.377 -10.137,-3.367 -1.466,3.25 -2.353,6.68 -3.42,10.06 -0.1,0.274 -0.335,0.142 -0.7,-0.385 -5.352,-9.127 -16.343,-15.713 -15.973,-15.06 l -38.977,36.983 -0.266,22.855 26.975,27.8 c 0,0 -7.806,3.842 -11.5,6.362 2.873,2.344 6.124,4.15 8.98,6.365 5.906,4.166 9.892,10.29 13.72,14.437 18.055,-8.952 36.238,-8.453 51.94,-3.02 -1.828,1.926 -3.87,3.594 -5.756,5.68 4.566,11.978 3.105,35.762 2.875,36.41 9.503,-9.71 23.64,-30.525 21.754,-59.834 l 3.998,-4.01 c -0.073,-0.204 -10.004,-5.52 -14.142,-6.677 l 1.145,-3.643 -9.91,-3.096 1.106,-2.893 9.872,2.86 c 1.87,-4.59 3.85,-11.017 3.85,-11.017 3.942,5.898 8.288,11.263 17.233,16.72 l 38.756,-37.078 -0.25,-23.84 -26.387,-26.386 10.982,-5.725 c -1.055,-0.85 -2.585,-1.658 -3.67,-2.51 -0.078,-0.062 0.217,-0.246 0.14,-0.305 -0.276,-0.212 -0.478,-0.384 -0.76,-0.58 -0.062,-0.044 -0.26,0.242 -0.322,0.198 -3.727,-2.614 -7.456,-5.185 -10.39,-8.312 -0.073,-0.08 0.036,-0.404 -0.038,-0.483 -1.525,-1.63 -3.043,-3.145 -4.593,-4.748 -0.72,-0.726 -1.91,-2.45 -1.91,-2.45 l -0.067,-0.57 -1.666,-2.095 c -5.366,3.165 -28.244,11.11 -50.38,2.314 l 4.206,-4.207 c -1.12,-2.702 -1.846,-5.717 -2.135,-8.187 -1.157,-9.904 -0.715,-27.738 -0.715,-27.738 z m 69.783,5.608 c 1.013,0 1.835,0.822 1.835,1.835 0,1.013 -0.82,1.835 -1.834,1.835 -1.013,0 -1.83,-0.822 -1.83,-1.835 0,-1.013 0.817,-1.835 1.83,-1.835 z m 5.74,2.183 c 0.934,4.56 2.99,11.185 5.035,15.65 l -2.437,0.27 c -1.985,-1.29 -4.083,-3.172 -4.303,-5.84 -5.368,0.04 -6.938,-8.38 -4.977,-7.37 -0.25,2.878 1.813,4.01 3.838,3.73 1.744,-0.244 3.25,-2.65 1.176,-5.308 0.922,-0.358 1.373,-0.63 1.67,-1.132 z m -76.073,13.49 c 0.355,5.833 1.5,10.087 2.57,14.494 l -10.607,10.008 c 0.827,-9.135 3.51,-17.298 8.037,-24.502 z m 50.868,19.213 1.35,1.932 c -15.33,9 -41.49,9.637 -57.43,2.048 l 2.117,-2.014 c 14.015,6.328 36.833,6.798 53.964,-1.966 z m -99.548,3.004 c -1.544,-0.02 -3.327,0.57 -5.216,2.01 -7.032,-3.204 -11.637,4.284 -7.288,9.244 -0.644,3.57 -1.132,4.234 1.555,7.848 -2.854,0.364 -6.456,-0.383 -9.52,-0.854 0.518,5.286 8.088,6.517 11.24,5.935 3.402,-0.737 6.612,0.947 6.75,0.986 2.002,0.557 3.245,1.52 5.218,1.984 3.254,0.774 8.02,-3.04 8.71,-6.66 0.064,-0.487 0.215,-0.928 -0.054,-1 -2.224,0.568 -4.668,1.37 -6.834,1.845 -2.122,0.52 -3.722,1.033 -5.337,2.298 l -0.136,-4.367 c 11.015,0.526 6.22,-9.948 5.597,-10.397 2.047,-4.133 -0.415,-8.82 -4.685,-8.873 z m 100.124,0.33 2.396,5.76 -6.366,2.16 -1.628,-5.642 z m -100.583,0.172 c 3.745,0.037 7.093,3.98 3.497,8.395 6.97,6.147 -1.962,12.735 -6.216,8.162 -5.663,5.185 -11.68,-0.23 -8.515,-5.88 -6.04,-5.403 1.408,-12.65 6.495,-7.982 1.25,-1.92 3.036,-2.712 4.738,-2.696 z m 43.47,2.11 c 0.896,0 1.622,0.728 1.622,1.624 0,0.896 -0.726,1.623 -1.623,1.623 -0.896,0 -1.622,-0.728 -1.622,-1.624 0,-0.896 0.726,-1.623 1.622,-1.623 z m -41.475,0.122 c -0.093,0 -0.203,0.043 -0.324,0.15 -0.18,0.016 -0.575,0.693 -1.564,1.84 -1.72,1.992 -1.905,2.01 -1.905,2.01 -1.832,-0.598 -3.056,-0.275 -4.263,0.49 0,0 -1.376,-0.262 -3.275,-1.848 -0.866,-0.724 -1.332,-0.88 -1.483,-0.493 -0.16,0.414 0.232,0.82 1.894,1.95 2.298,1.565 2.156,1.446 2.156,1.446 -0.142,1.373 0.08,2.49 0.6,3.53 0,0 -0.404,0.977 -2.037,3.115 -0.46,0.604 -0.84,1.26 -0.84,1.458 0,0.832 0.722,0.273 2.39,-1.835 0.655,-0.826 1.552,-2.01 1.552,-2.01 1.958,0.68 2.645,0.267 3.874,-0.17 0,0 0.42,0.313 1.49,1.165 1.955,1.56 2.378,1.725 2.618,1.527 0.323,-0.267 0.28,-0.354 -0.46,-0.89 -2.204,-1.596 -2.963,-2.518 -2.963,-2.518 0.448,-1.747 -0.043,-3.192 -0.524,-4.103 0,0 0.035,-0.224 1.28,-1.614 0.914,-1.02 2.165,-2.632 2.086,-2.864 0.02,-0.144 -0.1,-0.34 -0.304,-0.338 z m 45.136,0.352 5.733,1.783 -1.266,5.96 -6.11,-1.972 z m 41.488,1.464 1.6,5.815 -5.966,1.584 -0.975,-6.173 z m 4.188,0.096 c 0.896,0 1.623,0.727 1.623,1.623 0,0.896 -0.727,1.622 -1.623,1.622 -0.896,0 -1.623,-0.726 -1.623,-1.623 0,-0.897 0.727,-1.624 1.623,-1.624 z m 13.557,0.208 5.014,4.463 -5.563,2.81 -2.68,-5.814 z m -47.275,1.29 5.825,0.686 -0.236,6.26 -6.684,-0.894 z m -20.208,0.067 6.482,2.846 -2.338,6.53 -6.636,-2.85 z m 16.707,0.51 c 2.39,0.372 1.747,3.19 0,3.244 -0.896,0 -1.622,-0.726 -1.622,-1.623 0,-0.895 0.726,-1.62 1.623,-1.62 z m 20.958,0 0.797,6.265 -6.047,0.367 -0.13,-6.366 z m 4.158,0.715 c 0.896,0 1.623,0.727 1.623,1.623 0,0.897 -0.728,1.624 -1.624,1.624 -0.896,0 -1.623,-0.727 -1.623,-1.623 0,-0.895 0.727,-1.622 1.623,-1.622 z m -84.184,0.588 c 0.924,0 1.676,0.746 1.676,1.67 0,0.925 -0.752,1.677 -1.676,1.677 -0.925,0 -1.67,-0.752 -1.67,-1.676 0,-0.925 0.745,-1.67 1.67,-1.67 z m 71.607,-0.06 c 0.895,0 1.622,0.725 1.622,1.62 0,0.898 -0.727,1.624 -1.623,1.624 -0.897,0 -1.624,-0.726 -1.624,-1.623 0,-0.896 0.727,-1.622 1.623,-1.622 z m 28.48,0.4 2.358,6.438 -6.607,2.13 -1.868,-6.612 z m 4.638,0.173 c 0.896,0 1.623,0.726 1.623,1.622 0,0.897 -0.726,1.623 -1.622,1.623 -0.897,0 -1.623,-0.726 -1.623,-1.623 0,-0.896 0.726,-1.623 1.623,-1.623 z m 11.422,1.825 4.27,3.02 -2.115,1.177 c -0.555,-1.327 -1.534,-2.9 -2.155,-4.197 z m -61.03,0.585 6.303,1.366 -0.96,6.603 -6.88,-1.373 z m -18.745,0.362 3.347,1.574 -2.207,5.502 -5.415,-2.884 z m 14.963,0.357 c 0.896,0 1.623,0.726 1.623,1.622 0,0.896 -0.726,1.623 -1.622,1.623 -0.896,0 -1.623,-0.727 -1.623,-1.623 0,-0.896 0.727,-1.623 1.623,-1.623 z m 36.403,0.36 1.126,6.604 -7.11,1 -0.44,-6.733 z m 26.62,0.127 c 0.895,0 1.62,0.727 1.62,1.623 0,0.896 -0.725,1.623 -1.62,1.623 -0.898,0 -1.624,-0.727 -1.624,-1.623 0,-0.896 0.726,-1.623 1.623,-1.623 z m -5.044,0.048 2.352,5.82 -6.955,2.908 -2.057,-5.825 z m -17.735,0.42 c 0.897,0 1.624,0.727 1.624,1.623 0,0.897 -0.727,1.623 -1.623,1.623 -0.896,0 -1.622,-0.725 -1.622,-1.622 0,-0.896 0.726,-1.623 1.623,-1.623 z m -23.487,0.662 6.656,0.12 -0.08,6.676 -7.287,-0.203 z m 53.23,0.464 2.618,1.817 c -26.94,17.324 -64.787,19.472 -94.322,2.42 0,0 1.207,-1.203 1.893,-1.908 26.626,15.933 65.497,13.697 89.813,-2.33 z m -56.838,0.754 c 0.897,0 1.623,0.727 1.623,1.623 0,0.896 -0.726,1.623 -1.623,1.623 -0.896,0 -1.623,-0.727 -1.623,-1.623 0,-0.896 0.727,-1.623 1.623,-1.623 z m 13.664,0.367 c 0.895,0 1.622,0.728 1.622,1.624 0,0.897 -0.727,1.623 -1.623,1.623 -0.898,0 -1.624,-0.726 -1.624,-1.623 0,-0.896 0.726,-1.623 1.623,-1.623 z m -31.7,0.895 6.95,2.01 -1.183,5.486 -7.622,-2.192 z m -4.598,0.04 c 0.897,0 1.623,0.725 1.623,1.62 0,0.898 -0.726,1.624 -1.623,1.624 -0.896,0 -1.623,-0.727 -1.623,-1.624 0,-0.896 0.726,-1.622 1.622,-1.622 z m 53.984,1.167 1.66,6.16 -7.683,1.64 -0.927,-6.056 z m 4.414,0.894 c 0.897,0 1.623,0.727 1.623,1.623 0,0.895 -0.726,1.622 -1.623,1.622 -0.896,0 -1.622,-0.727 -1.622,-1.623 0,-0.897 0.726,-1.624 1.622,-1.624 z m -100.39,0.956 -0.014,4.318 c -1.274,-1.05 -2.714,-2.168 -4.187,-3.3 1.502,0.08 2.9,-0.334 4.2,-1.018 z m -15.827,0.107 c 0.35,0 1.172,0.282 2.15,0.28 3.13,-0.01 8.974,0.965 10.703,2.385 0.576,0.47 1.438,0.89 1.907,1.65 0,0.365 -0.515,0.374 -1.27,-0.095 -1.448,-0.9 -3.86,-1.702 -7.085,-2.15 -0.583,-0.08 -0.656,-0.057 -0.657,0.218 0,0.34 0.538,0.537 2.237,0.816 2.2,0.36 2.667,0.577 3.154,0.71 1.307,0.358 0.472,0.835 -0.872,0.964 -5.486,0.514 -9.593,-1.847 -10.42,-4.543 -0.066,-0.177 0,-0.235 0.155,-0.236 z m 76.424,0.095 6.902,0.894 -0.315,5.775 -7.554,-0.864 z m -58.693,0.502 c 1.206,0.947 0.376,3.817 -0.28,4.66 -0.425,0.476 -1.42,0.224 -1.415,-0.443 0.15,-0.6 -0.064,-3.453 0.066,-4.337 0.48,-0.274 1.19,-0.197 1.628,0.12 z m 79.983,0.256 0.357,5.956 -7.53,0.342 0.06,-5.85 z m -25.405,0.4 c 0.896,0 1.623,0.728 1.623,1.624 0,0.896 -0.727,1.623 -1.623,1.623 -0.897,0 -1.623,-0.727 -1.623,-1.623 0,-0.896 0.725,-1.623 1.622,-1.623 z m -41.958,0.083 c 0.278,4.37 -6.434,7.336 -8.945,5.994 -1.112,-0.594 -0.65,-0.96 1.555,-1.405 2.852,-0.755 4.73,-1.49 4.733,-2.024 0,-0.326 -0.43,-0.286 -1.594,0.146 -1.79,0.6 -3.652,0.86 -5.36,1.628 -1.28,0.58 -1.776,0.783 -2.063,0.434 -0.6,-0.73 2.238,-2.576 5.183,-3.067 2.21,-0.367 4.437,-1.544 6.49,-1.704 z m 71.517,0.546 c 0.897,0 1.624,0.727 1.624,1.623 0,0.896 -0.727,1.623 -1.623,1.623 -0.896,0 -1.622,-0.727 -1.622,-1.623 0,-0.896 0.726,-1.623 1.623,-1.623 z m -15.093,1.188 c 0.897,0 1.623,0.727 1.623,1.623 0,0.896 -0.726,1.623 -1.623,1.623 -0.896,0 -1.623,-0.727 -1.623,-1.623 0,-0.896 0.727,-1.623 1.623,-1.623 z m 36.162,2.758 c 10.86,10.342 22.765,22.248 32.586,32.042 l -0.043,15.373 -37.5,35.64 c -6.79,-4.145 -12.538,-9.328 -17.832,-18.532 0.598,-0.514 1.123,-0.84 1.576,-1.405 l -1.956,1.17 c -6.918,-11.064 -9.852,-33.107 1.898,-50.778 l -11.872,0.435 1.937,-4.042 12.925,-0.706 5.226,-5.607 c 0,0 1.656,-0.307 3.028,-0.623 1.36,-0.314 4.14,-1.11 6.177,-1.768 2.037,-0.66 3.77,-1.198 3.85,-1.198 z m -87.67,2.864 c 0,0 11.163,6.066 17.36,18.214 -20.033,17.232 -27.585,37.3 -29.29,58.186 -10.902,-10.2 -16.412,-15.84 -26.264,-25.744 l 0.358,-14.78 z m 42.137,1.927 c -2.887,6.173 -5.372,12.937 -7.597,20.184 l -3.106,-0.918 c 0,0 2.01,-0.84 2.903,-1.372 l -1.613,-2.598 3.057,-1.256 -1.805,-2.202 3.1,-1.797 -1.55,-1.946 2.84,-1.42 -1.763,-2.028 2.98,-1.662 -1.555,-1.94 z m 0.952,0.014 c 0,0 0.4,0.076 0.868,0.17 0.113,-0.044 -0.56,1.617 -0.488,1.675 1.085,0.222 1.148,0.162 1.473,0.26 l 0.826,-1.71 1.357,0.256 c -2.738,6.18 -5.666,12.94 -7.347,20.257 l -1.598,-0.334 c 0,0 0.467,-1.544 0.468,-1.75 -0.188,-0.04 -1.088,-0.418 -1.367,-0.53 -0.096,0.24 -0.666,2.028 -0.666,2.028 l -1.266,-0.034 c 2.073,-7.99 5.683,-16.85 7.74,-20.29 z m 5.2,0.237 2.836,2.348 -3.217,1.25 1.665,2.218 -3.41,1.23 1.957,2.305 -3.377,1.247 2.015,2.787 -3.512,1.184 2.217,2.448 -3.168,1.483 1.898,1.878 c 0,0 -1.977,0.652 -2.09,0.68 -0.32,0.082 -1.648,-0.245 -1.648,-0.245 2.002,-7.13 4.477,-14.36 7.834,-20.812 z m -68.975,1.19 c -0.783,0.507 -0.337,1.613 -1.32,2.56 -0.156,0.168 -0.17,0.557 -0.23,0.897 -0.047,0.258 -0.823,3.343 -0.823,3.343 0,0 0.196,-0.235 0.506,-1.22 0.265,-0.84 0.496,-2.433 0.64,-2.7 0.723,-0.22 0.833,-2.582 1.567,-2.26 0.424,0.188 0.343,0.574 0.104,1.48 -0.523,1.81 -0.73,2.572 0.168,1.338 1.34,-1.613 1.47,-3.068 -0.038,-3.376 -0.16,-0.03 -0.483,-0.06 -0.575,-0.063 z m 20.256,0.67 -35.04,32.9 -0.106,12.28 12.196,12.36 8.655,8.388 c 3.142,-18.79 10.35,-36.714 28.095,-52.225 -2.72,-4.373 -7.377,-9.88 -13.8,-13.703 z m 94.455,0.338 c -20.59,9.677 -25.324,29.522 -18.948,47.488 9.812,-12.62 17.513,-24.475 18.948,-47.488 z m -73.28,1.005 9.35,3.01 -3.52,12.006 -8.418,-2.556 -0.86,-2.125 z m 72.246,0.314 c -0.893,16.056 -6.948,31.738 -17.483,44.044 -5.327,-13.14 -2.123,-34.15 17.484,-44.043 z m -50.36,0.087 -0.59,1.492 1.295,0.367 0.55,-1.516 z m -1.294,3.526 -0.532,1.516 1.328,0.45 0.498,-1.54 z m 55.157,0.275 c -2.882,22.272 -14.915,42.54 -27.627,52.868 4.05,6.57 8.814,10.797 13.654,14.325 l 35.81,-34.3 -0.14,-11.444 z m -94.627,5.912 c -0.22,0.814 -0.298,1.228 -0.298,1.228 0,0 0.412,-0.38 1.5,-0.977 7.037,-3.51 4.766,1.828 1.45,3.8 -0.74,0.396 -1.5,0.865 -1.5,0.865 0,0 0.703,0.16 1.466,0.3 4.27,0.888 3.36,3.385 -1.093,2.997 -0.657,-0.058 -1.43,-0.182 -1.43,-0.146 0,0.037 0.266,0.975 0.574,1.75 1.5,3.783 -1.3,4.077 -3.14,1.673 -0.258,-0.335 -0.84,-1.258 -0.84,-1.258 0,0 -0.18,0.697 -0.292,1.373 -1.59,5.927 -5.517,5.776 -4.052,-0.237 0.184,-0.62 0.407,-1.733 0.407,-1.733 0,0 -0.883,0.533 -1.844,0.962 -5.085,2.27 -5.91,-0.066 -1.29,-3.483 1.313,-0.972 1.76,-1.354 1.76,-1.354 -0.82,-0.062 -1.574,-0.188 -2.24,-0.355 -3.685,-0.925 -4.667,-3.127 1.237,-3.024 0.873,0.017 1.76,0.074 1.76,0.074 0,0 -0.29,-1.266 -0.598,-2.22 -1.424,-4.418 1.446,-4.944 3.868,-0.986 0.515,0.842 0.663,0.847 0.663,0.847 -0.075,0 0.152,-1.507 0.74,-2.903 2.93,-5.43 4.078,-0.474 3.193,2.805 z m 63.33,-4.396 c -2.46,4.347 -4.605,8.668 -5.628,13.173 l -9.568,-0.165 c 0.662,-3.994 2.352,-8.15 4.37,-12.543 3.896,-0.106 7.41,-0.277 10.825,-0.464 z m -25.26,1.93 -0.552,1.597 1.386,0.425 0.503,-1.555 z m -71.55,2.998 c -1.026,2.664 -1.37,5.63 -1.938,8.008 -0.24,1.378 0,1.952 0.83,2.26 1.176,0.44 2.872,-0.16 3.82,-1.516 0.536,-0.766 0.924,-2.347 1.006,-5.14 l 0.09,-2.487 c -1.453,-0.27 -2.446,-0.66 -3.81,-1.125 z m 70.254,0.348 -0.458,1.468 1.338,0.497 0.51,-1.48 z m 61.968,0.55 c 1.628,0.04 1.93,0.186 3.405,1.058 l 2.845,2.927 c -0.746,0.715 -1.212,1.718 -1.212,2.83 0,2.167 1.756,3.923 3.922,3.923 1.072,0 2.753,-1.13 2.753,-1.13 l 4.51,4.67 c -2.63,1.15 -5.203,-1.498 -6.17,-2.546 -0.228,-0.246 -0.286,-0.415 -0.286,-0.415 0,0 0.04,0.13 -0.054,0.647 -0.378,2.078 -2.43,8.214 -4.39,7.887 -2.208,-0.368 0.04,-9.14 0.065,-8.937 -1.52,1.605 -8.917,3.314 -8.398,1.522 1.03,-3.56 6.563,-4.932 7.29,-5.55 -2.942,-1.77 -6.672,-6.68 -4.28,-6.886 z m -131.866,0.116 c 0.937,0.065 1.58,0.178 2.217,0.445 0.296,0.08 0.31,0.327 0.342,0.56 0.01,1.05 0.27,4.137 -0.705,4.168 -1.083,-0.023 -2.098,0.21 -2.81,0.754 -0.574,0.436 -0.764,0.12 -0.61,-1 0.15,-1.088 0.69,-3.37 0.923,-4.295 0.037,-0.38 0.34,-0.65 0.642,-0.633 z m 29.236,0.04 c -2.166,0 -3.922,1.755 -3.922,3.92 0,2.166 1.756,3.923 3.922,3.923 2.165,0 3.92,-1.757 3.92,-3.922 0,-2.166 -1.755,-3.922 -3.92,-3.922 z m 0,1.37 c 1.407,0 2.55,1.143 2.55,2.55 0,1.408 -1.143,2.546 -2.55,2.546 -1.408,0 -2.55,-1.138 -2.55,-2.545 0,-1.408 1.142,-2.55 2.55,-2.55 z m 20.235,0.048 c 8.99,15.517 7.948,36.815 -2.65,52.31 l 11.394,-0.798 -1.497,2.917 -12.148,1.182 c -1.855,1.7 -3.545,3.64 -5.37,5.458 l -0.02,0.643 c -4.164,0.966 -8.332,2.08 -12.577,3.61 -2.24,-2.2 -6.455,-6.6 -6.427,-6.71 l 0.27,-1.423 c 28.89,-14.74 20.44,-44.298 18.405,-46.728 3.1,-3.72 6.798,-7.223 10.62,-10.462 z m 80.178,2.822 c 1.17,0 2.117,0.95 2.117,2.12 0,1.17 -0.946,2.12 -2.116,2.12 -1.17,0 -2.12,-0.95 -2.12,-2.12 0,-1.17 0.95,-2.12 2.12,-2.12 z m 9.42,0.57 3.55,3.656 c -0.46,0.454 -1.094,0.74 -1.792,0.74 -1.408,0 -2.55,-1.14 -2.55,-2.547 0,-0.725 0.304,-1.384 0.792,-1.85 z m -121.93,0.453 c 1.17,0 2.114,0.946 2.114,2.116 0,1.17 -0.945,2.12 -2.115,2.12 -1.17,0 -2.122,-0.95 -2.122,-2.12 0,-1.17 0.95,-2.115 2.12,-2.115 z m -15.766,0.89 c 0.992,0.33 0.76,1.258 -0.52,2.074 -0.83,0.526 -1.59,0.643 -2.32,0.252 -1.383,-0.74 1.486,-2.81 2.84,-2.328 z m 16.378,5.186 -12.765,12.352 c 0.803,-2.052 0.832,-4.1 0.893,-6.15 3.84,0.397 5.45,-1.552 4.888,-5.563 2.48,0.147 5.052,-0.114 6.984,-0.64 z m 20.455,1.412 c 5.92,16.877 0.778,34.738 -17.736,45.082 0.763,-16.172 7.552,-31.634 17.737,-45.082 z m 16.86,1.478 c 10.16,2.66 21.726,3.9 33.733,3.907 0.09,4.57 0.31,9.4 1.246,14.065 -10.228,-2.676 -21.653,-3.92 -34.133,-3.7 0.518,-4.83 -0.31,-10.306 -0.845,-14.272 z m 75.338,2.497 -10.82,12.65 0.455,-6.907 c 3.644,0.464 4.94,-1.458 4.405,-5.255 1.987,0.246 3.972,-0.102 5.96,-0.488 z m -105.128,0.7 -0.855,5.052 c -2.16,0.058 -4.278,0.824 -4.25,5.645 l -6.453,-0.077 z m 119.067,0.932 c 1.17,0 2.115,0.95 2.115,2.12 0,1.17 -0.946,2.12 -2.116,2.12 -1.17,0 -2.12,-0.95 -2.12,-2.12 0,-1.17 0.95,-2.12 2.12,-2.12 z m -128.88,0.642 c 1.17,0 2.12,0.95 2.12,2.12 0,1.17 -0.95,2.116 -2.12,2.116 -1.17,0 -2.122,-0.946 -2.122,-2.116 0,-1.17 0.95,-2.12 2.12,-2.12 z m 124.15,2.173 -1.13,7.65 c -2.947,-0.258 -5.407,0.196 -4.65,5.38 -2.494,-0.243 -5.958,0.347 -8.28,0.547 z m -10.562,1.386 c 1.17,0 2.12,0.952 2.12,2.122 0,1.17 -0.95,2.115 -2.12,2.115 -1.17,0 -2.12,-0.945 -2.12,-2.115 0,-1.17 0.95,-2.12 2.12,-2.12 z m -129.122,1.644 c 1.17,0 2.12,0.95 2.12,2.12 0,1.17 -0.95,2.115 -2.12,2.115 -1.17,0 -2.116,-0.946 -2.116,-2.116 0,-1.17 0.946,-2.12 2.116,-2.12 z m 7.027,2.506 c 2.706,0.608 1.454,6.916 0.845,8.63 -0.046,0.048 7.55,-3.98 8.004,-2.2 0.296,3.562 -6.29,6.046 -6.29,6.046 0,0 4.44,3.855 4.565,6.28 0.012,1.567 -1.855,1.276 -4.278,-0.71 -1.036,-1.02 -1.837,-1.78 -2.55,-2.49 0.832,-0.718 1.357,-1.783 1.357,-2.97 0,-2.164 -1.758,-3.92 -3.923,-3.92 -1.196,0 -2.265,0.536 -2.985,1.38 -0.562,-0.54 -1.198,-1.172 -2.052,-1.98 -1.4,-1.31 -2.383,-2.35 -2.242,-2.82 1.848,-1.3 5.522,2.193 5.85,2.51 -0.276,-0.68 1.756,-7.393 3.7,-7.756 z m -3.7,7.757 c 0.015,0.036 0.035,0.058 0.063,0.058 l -0.063,-0.058 z m 115.368,-2.83 c 1.287,-0.018 1.207,2.912 0.748,4.434 -0.313,1.16 -0.623,2.11 -0.623,2.11 0,0 1.085,-0.846 1.565,-1.07 3.503,-1.642 4.81,0.216 3.043,2.37 -0.85,1.11 -2.007,1.354 -2.946,2.285 1.34,0.06 2.876,0.358 4.033,1.038 0.9,0.538 1.605,1.19 1.603,1.594 0,0.906 -2.228,1.394 -4.308,1.16 -0.885,0.02 -2.55,-0.454 -2.55,-0.454 0,0 0.69,1.16 0.94,1.854 0.778,2.156 0.506,4.68 -0.617,4.676 -1.88,-0.503 -2.796,-2.59 -3.53,-4.09 -0.604,1.67 -1.188,3.46 -2.53,4.703 -1.333,1.232 -2.016,0.21 -1.948,-1.88 0.028,-0.83 0.638,-3.307 0.638,-3.307 -7.89,2.663 -7.305,-0.94 -1.147,-4.098 -3.793,-1.81 -6.098,-3.436 0.355,-3.805 -0.17,-0.155 -1.297,-3.61 -0.09,-4.42 1.12,-0.75 3.507,1.83 3.62,1.957 -0.047,-0.256 0.63,-2.28 1.764,-3.676 0.87,-0.984 1.515,-1.375 1.98,-1.38 z m -7.274,7.52 c 0.01,0.01 0.017,0.01 0.02,0 l -0.02,0 z m 34.545,-2.283 c -1.374,0.126 -2.23,1.345 -2.865,2.408 -0.13,0.216 -0.367,0.292 -0.455,0.577 -0.57,1.833 -1.067,4.03 -1.37,6.763 0.87,0.357 2.834,0.96 3.702,0.637 0.244,-0.103 0.17,-0.734 0.25,-0.943 1.37,-3.45 2.048,-6.028 2.05,-7.613 0,-1.277 -0.44,-1.91 -1.312,-1.83 z m -141.198,-0.156 c 1.407,0 2.55,1.143 2.55,2.55 0,0.81 -0.378,1.53 -0.966,1.995 -1.64,-1.638 -2.482,-2.496 -3.583,-3.574 0.467,-0.593 1.19,-0.972 2,-0.972 z m 141.684,1.214 c 0.345,0.836 -0.762,1.745 -2.195,1.74 -0.852,0 -1.13,0.116 -0.75,-0.623 0.45,-0.9 2.286,-2.72 2.946,-1.118 z m -19.226,-0.59 c 1.17,0 2.12,0.95 2.12,2.12 0,1.17 -0.95,2.115 -2.12,2.115 -1.17,0 -2.12,-0.946 -2.12,-2.116 0,-1.17 0.95,-2.12 2.12,-2.12 z m -111.77,0.15 c 1.17,0 2.122,0.944 2.122,2.114 0,1.17 -0.95,2.12 -2.12,2.12 -1.17,0 -2.116,-0.95 -2.116,-2.12 0,-1.17 0.945,-2.115 2.115,-2.115 z m 100.24,0.858 c -2.164,0 -3.92,1.757 -3.92,3.922 0,2.166 1.756,3.922 3.92,3.922 2.166,0 3.923,-1.756 3.923,-3.922 0,-2.165 -1.757,-3.922 -3.922,-3.922 z m -52.413,0.527 c -1.03,4.52 -2.617,8.84 -4.62,13.113 -3.782,0.228 -7.87,0.404 -10.564,0.787 4.49,-7.862 4.598,-9.71 6.26,-13.876 z m 6.497,0.637 c 1.062,0.126 2.226,0.286 3.275,0.488 -1.93,6.793 -4.482,13.767 -7.776,20.48 l -1.995,-0.31 -0.946,-1.17 3.17,-1.264 -2.47,-2.522 4.092,-1.236 -2.517,-2.483 4.042,-1.01 -2.164,-2.627 3.627,-1.415 -2.303,-2.975 3.863,-1.063 z m 45.918,0.208 c 1.408,0 2.55,1.143 2.55,2.55 0,1.408 -1.142,2.546 -2.55,2.546 -1.407,0 -2.55,-1.138 -2.55,-2.546 0,-1.407 1.143,-2.55 2.55,-2.55 z m -41.92,0.386 1.35,0.218 -0.416,1.444 1.535,0.328 0.497,-1.56 c 0,0 1.235,0.114 1.367,0.213 -1.61,6.558 -7.3,20.282 -7.372,20.21 l -1.463,-0.218 0.386,-1.386 -1.36,-0.194 0,-0.014 -0.658,1.507 -1.453,-0.12 c 3.52,-8.04 5.92,-14.21 7.586,-20.427 z m 71.59,0.522 c 1.08,0 1.015,0.552 0.232,2.59 -0.735,1.913 -1.01,2.68 -1.368,2.927 -0.852,0.604 -2.686,0.098 -2.537,-0.783 0.482,-2.86 0.653,-4.08 1.39,-4.467 0.77,-0.152 1.52,-0.264 2.282,-0.267 z m -66.17,0.237 3.517,0.68 -2.942,1.75 1.87,2.182 -3.613,1.54 2.193,2.27 -3.488,1.425 2.12,2.497 -3.617,1.526 2.463,2.135 -4.066,1.285 1.54,2.366 -1.53,0.855 -1.89,-0.295 c 3.135,-7.313 5.15,-13.33 7.444,-20.218 z m 8.64,1.748 6.89,1.874 1.375,2.458 -3.23,10.91 -9.178,-2.695 z m -13.687,1.053 -0.657,1.792 1.518,0.314 0.584,-1.845 z m -1.333,4.115 -0.657,1.792 1.425,0.28 0.672,-1.81 z m -1.342,3.618 -0.672,1.783 1.387,0.285 0.662,-1.787 z m 64.71,3.28 c 0,0 -0.704,0.51 -0.89,0.736 0.154,0.41 0.598,1.037 0.532,1.45 -0.06,0.31 -0.406,0.56 -0.926,1.113 -1.298,1.508 -1.754,1.344 -1,-0.267 0.247,-0.506 0.356,-0.975 0.356,-0.975 -0.3,0.42 -0.525,0.917 -0.73,1.31 -0.426,0.825 -0.825,1.603 -0.825,1.603 0.827,0.286 1.376,0.9 1.91,1.298 0,0 0.27,-0.73 0.458,-1.428 0.26,-0.974 0.777,-1.375 1.41,-1.71 0.4,-0.212 0.78,-0.596 0.78,-0.596 -0.696,-0.71 -0.776,-1.727 -1.076,-2.534 z m -66.145,0.44 -0.71,1.898 1.38,0.338 0.77,-1.937 z m -77.926,4.772 c -0.126,7.558 0.125,12.535 -0.14,20.686 l 20.465,26.52 -3.193,1.073 c 0,0 -0.035,0.37 -0.208,0.417 -4.373,1.202 -11.466,2.4 -11.466,2.4 5.276,12.046 8.697,27.11 6.337,42.156 l 52.965,-0.14 z m 112.016,12.81 -1.826,1.83 c -26.936,-14.58 -64.035,-14.522 -91.107,3.13 l -2.207,-1.62 c 29.548,-18.93 65.9,-18.81 95.14,-3.34 z m -111.025,-10.16 62.34,89.553 -7.323,0.106 -54.964,-71.902 z m 133.783,1.62 c 0,0 -1.8,0.466 -3.313,0.95 -4.332,1.388 -6.358,3.893 -5.96,7.37 0.117,1.03 0.384,1.014 2.15,-0.1 4.13,-2.608 4.388,-2.723 9.533,-4.23 0.398,-0.118 0.976,-0.03 0.976,-0.03 l -0.227,4.062 c -8.577,-0.033 -8.108,6.78 -5.642,10.32 -0.863,1.64 -2.753,7.356 3.468,9.53 3.104,0.62 6.39,-1.902 6.29,-2.033 5.724,2.708 12.367,-1.83 7.187,-9.692 1.947,-3.43 0.574,-5.974 -1.285,-8.163 0,0 0.314,0.027 3.024,0.527 4.11,0.758 5.68,0.623 5.68,0.623 0,-3.7 -3.06,-5.352 -9.448,-5.854 -4.525,0.64 -12.432,-3.31 -12.432,-3.28 z m -69.01,0.43 c 0.31,0 0.616,0 0.923,0 l -0.3,6.317 -6.96,0.32 -0.454,-6.294 c 2.397,-0.166 4.624,-0.34 6.79,-0.35 z m 8.342,0.154 7.467,0.908 -1.13,5.907 -6.878,-0.738 z m 60.407,0.067 c 0.767,-0.016 0.6,0.78 -0.3,0.957 -1.342,0.262 -4.784,2.266 -4.786,2.787 0,0.335 0.17,0.287 1.43,-0.387 0.63,-0.336 1.943,-0.91 2.916,-1.28 0.973,-0.37 2.086,-0.815 2.473,-0.99 1.156,-0.522 1.73,-0.16 1.313,0.826 -0.276,0.653 -0.385,0.704 -3.067,1.555 -2.427,0.77 -2.873,0.97 -4.415,1.957 -0.574,0.37 -1.593,0.957 -2.264,1.304 -1.585,0.822 -1.907,0.826 -1.903,-0.28 -0.087,-3.27 3.533,-5.726 8.438,-6.432 0.06,-0.01 0.114,-0.013 0.165,-0.015 z m -64.47,0.768 c 0.934,0 1.69,0.758 1.69,1.692 0,0.934 -0.756,1.69 -1.69,1.69 -0.933,0 -1.69,-0.756 -1.69,-1.69 0,-0.934 0.757,-1.69 1.69,-1.69 z m -18.474,0.45 0.557,5.734 -6.844,1.758 -1.565,-5.922 c 2.618,-0.64 5.235,-1.092 7.853,-1.57 z m 88.166,0.435 c 1.876,0.286 1.728,4.582 0.768,5.328 -1.476,1.063 -2.383,-1.16 -1.724,-4.11 0.186,-0.888 0.528,-1.198 0.956,-1.218 z m -84.28,0.232 c 0.932,0 1.69,0.757 1.69,1.69 0,0.934 -0.758,1.69 -1.69,1.69 -0.935,0 -1.692,-0.756 -1.692,-1.69 0,-0.933 0.757,-1.69 1.69,-1.69 z m 33.43,0.493 7.74,2.11 -1.895,5.99 -7.258,-2.044 z m -4.21,0.116 c 0.933,0 1.69,0.756 1.69,1.69 0,0.934 -0.757,1.69 -1.69,1.69 -0.934,0 -1.69,-0.756 -1.69,-1.69 0,-0.934 0.756,-1.69 1.69,-1.69 z m 63.295,0.502 c 3.335,0.035 7.73,1.707 7.74,4.284 -0.07,0.732 -6.984,-0.24 -10.178,-1.526 -1.133,-0.456 -2.514,-1.845 -2.51,-2.425 0,-0.344 0.675,-0.32 0.95,0.016 0.45,0.546 2.042,1.116 5.7,2.038 2.81,0.708 3.09,0.735 3.09,0.31 0,-0.39 -1.66,-0.924 -3.458,-1.223 -0.904,-0.147 -1.748,-0.42 -3.14,-0.54 -0.647,0 -0.805,-0.41 -0.265,-0.686 0.588,-0.175 1.302,-0.254 2.07,-0.246 z m -5.886,1.333 c 0.84,0.395 1.144,1.18 1.608,1.595 -0.577,0.273 -0.834,0.55 -1.768,0.618 0.017,-0.617 -0.15,-1.353 0.16,-2.212 z m -101.327,0.465 c 0.934,0 1.69,0.757 1.69,1.69 0,0.934 -0.756,1.69 -1.69,1.69 -0.933,0 -1.69,-0.756 -1.69,-1.69 0,-0.933 0.757,-1.69 1.69,-1.69 z m -4.55,0.478 1.826,5.854 -6.54,2.844 -2.318,-5.8 c 2.26,-1.188 4.734,-2.05 7.032,-2.897 z m 30.24,0.956 c 0,0 5.21,0.01 7.01,0.028 l -0.422,6.607 -6.5,0.05 z m -6.96,0.36 0.363,6.6 -6.26,0.84 -1.236,-6.637 z m 39.577,0.06 c 0.933,0 1.69,0.756 1.69,1.69 0,0.933 -0.757,1.69 -1.69,1.69 -0.934,0 -1.69,-0.757 -1.69,-1.69 0,-0.934 0.756,-1.69 1.69,-1.69 z m 45.29,0.154 c 3.81,0.016 7.446,4.4 3.68,8.993 6.177,4.753 -0.538,12.74 -6,8.085 -7.806,7.67 -12.17,-2.744 -8.94,-5.506 -4.77,-7.84 1.092,-12.795 7.14,-9.336 1.113,-1.58 2.628,-2.243 4.12,-2.236 z m -63.798,0.188 6.868,1.526 -1.382,6.526 -6.708,-1.362 z m 22.73,0.16 6.278,3.12 -4.87,4.685 -3.616,-1.802 z m -40.258,0.74 c 0.933,0 1.69,0.756 1.69,1.69 0,0.933 -0.757,1.69 -1.69,1.69 -0.934,0 -1.69,-0.757 -1.69,-1.69 0,-0.934 0.756,-1.69 1.69,-1.69 z m 13.567,0.21 c 0.934,0 1.69,0.758 1.69,1.692 0,0.933 -0.756,1.69 -1.69,1.69 -2.488,-0.39 -1.82,-3.326 0,-3.38 z m -31.274,0.953 1.532,6.525 -6.36,2.15 -2.275,-6.357 z m 4.372,0.463 c 0.934,0 1.69,0.757 1.69,1.69 0,0.934 -0.756,1.69 -1.69,1.69 -0.933,0 -1.69,-0.756 -1.69,-1.69 0,-0.933 0.757,-1.69 1.69,-1.69 z m 94.16,3.01 c -0.48,0.594 -1.108,1.294 -1.108,1.294 -1.582,-0.652 -3.116,-0.392 -4.143,0.312 0,0 -1.09,-0.87 -2.085,-1.674 -1.726,-1.395 -2.302,-1.714 -2.304,-1.13 0,0.12 0.587,0.717 1.3,1.328 1.947,1.665 2.345,2.265 2.345,2.265 -0.468,1.512 -0.463,2.696 0.43,3.966 0,0 0.038,0.165 -0.646,0.886 -1.24,1.308 -2.52,3.328 -2.226,3.625 0.366,0.37 1.403,-0.515 2.703,-2.272 0.927,-1.252 1.205,-1.28 1.205,-1.28 1.58,0.427 2.457,0.813 4.038,-0.49 0,0 0.596,0.18 1.787,1.163 1.856,1.533 2.523,1.863 2.724,1.343 0.166,-0.423 -0.08,-0.707 -1.65,-1.903 -1.024,-0.778 -2.163,-1.69 -2.163,-1.69 0.335,-0.55 0.572,-2.5 -0.572,-3.835 0,0 0.045,0.088 1.737,-2.106 1.126,-1.46 1.32,-1.644 0.948,-1.957 -0.498,-0.65 -2.15,1.947 -2.32,2.154 z m -49.058,-1.87 6.197,2.603 -2.216,6.478 -5.984,-2.444 z m -68.184,0.435 c 0.934,0 1.69,0.757 1.69,1.69 0,0.934 -0.756,1.69 -1.69,1.69 -0.933,0 -1.69,-0.756 -1.69,-1.69 0,-0.933 0.757,-1.69 1.69,-1.69 z m 63.393,0.174 c 0.933,0 1.69,0.757 1.69,1.69 0,0.934 -0.757,1.69 -1.69,1.69 -0.934,0 -1.69,-0.756 -1.69,-1.69 0,-0.933 0.756,-1.69 1.69,-1.69 z m -67.72,0.463 2.028,5.023 -4.61,-3.438 z m 50.854,1.295 6.172,0.73 -0.976,5.882 -5.323,-0.483 z m -6.738,0.014 -0.064,6.046 -5.863,0.25 -0.498,-6.036 z m -30.168,1.1 c 0.933,0 1.69,0.757 1.69,1.69 0,0.935 -0.757,1.69 -1.69,1.69 -0.934,0 -1.69,-0.755 -1.69,-1.69 0,-0.933 0.756,-1.69 1.69,-1.69 z m -4.676,0.12 2.386,6.077 -3.7,1.787 -4.96,-4.694 z m 22.068,0.08 0.956,5.78 -6.114,1.512 -1.483,-5.883 z m 87.397,0.057 c 1.332,0 2.41,1.08 2.41,2.41 0,1.33 -1.078,2.41 -2.41,2.41 -1.33,0 -2.41,-1.08 -2.41,-2.41 0,-1.33 1.08,-2.41 2.41,-2.41 z m -71.544,0.183 c 0.933,0 1.69,0.757 1.69,1.69 0,0.934 -0.757,1.69 -1.69,1.69 -0.934,0 -1.69,-0.756 -1.69,-1.69 0,-0.933 0.756,-1.69 1.69,-1.69 z m 16.653,0.623 6.52,2.11 -2.193,5.222 -5.632,-1.526 z m -28.898,0.217 c 0.934,0 1.69,0.757 1.69,1.69 0,0.935 -0.756,1.69 -1.69,1.69 -0.934,0 -1.69,-0.755 -1.69,-1.69 0,-0.933 0.756,-1.69 1.69,-1.69 z m 24.792,0.624 c 0.933,0 1.69,0.756 1.69,1.69 0,0.934 -0.757,1.69 -1.69,1.69 -0.934,0 -1.69,-0.756 -1.69,-1.69 0,-0.934 0.756,-1.69 1.69,-1.69 z m -41.402,1.98 2.246,5.168 -6.134,2.65 -2.67,-5.268 z m 4.347,0.31 c 0.932,0 1.69,0.756 1.69,1.69 0,0.933 -0.758,1.69 -1.69,1.69 -0.935,0 -1.692,-0.757 -1.692,-1.69 0,-0.934 0.757,-1.69 1.69,-1.69 z m 22.598,1.56 c 10.07,-0.022 19.16,2.083 26.458,5.104 l -2.173,2.038 c -23.67,-8.133 -39.15,-4.47 -55.023,2.493 l -1.603,-1.982 c 11.22,-5.488 22.27,-7.634 32.34,-7.655 z m 26.777,0.062 c 0.934,0 1.69,0.757 1.69,1.69 0,0.934 -0.756,1.69 -1.69,1.69 -0.934,0 -1.69,-0.756 -1.69,-1.69 0,-0.933 0.756,-1.69 1.69,-1.69 z m -61.683,3.71 c 1.358,0.08 1.488,2.613 0.855,1.883 l -1.512,-1.75 c 0.246,-0.105 0.463,-0.146 0.657,-0.135 z m 63.277,1.047 c -0.05,1.922 -1.87,14.802 -8.014,23.657 -0.373,-4.48 -1.454,-9.834 -2.66,-13.408 0,0 6.608,-6.107 10.673,-10.25 z m -78.58,19.518 31.965,43.103 -3.356,-0.024 c -0.703,-3.166 -1.718,-6.405 -3.71,-8.825 -1.62,-1.966 -3.068,-3.447 -5.97,-4.768 -1.747,-0.793 -1.972,-0.624 -2.082,-1.965 -0.527,-7.54 -6.632,-12.28 -11.307,-14.084 -0.45,-4.557 -2.507,-9.04 -7.664,-12.814 z m -3.11,1.033 c 2.92,2.007 6.12,3.748 7.845,11.66 0.13,1.656 0.23,1.48 1.53,1.967 5.095,1.493 9.526,7.616 9.92,12.968 0,1.614 0.523,1.758 2.513,2.594 2.442,1.025 4.978,3.196 6.414,5.332 2.135,3.07 2.89,7.72 2.705,7.5 l -1.76,0.01 c -1.253,-7.885 -6.214,-11.03 -11.46,-12.503 0.408,-11.13 -8.248,-14.605 -11.27,-15.128 0.177,-8.018 -5.01,-11.325 -8.36,-14.016 0.626,-0.245 1.922,-0.383 1.922,-0.383 z m -5.172,1.106 c 2.615,0.853 4.596,4.496 4.395,6.173 3.45,0.435 7.072,3.768 6.277,7.24 -0.255,0.148 -0.658,0.177 -1.057,-0.22 0.924,-6.738 -9.132,-3.403 -5.114,1.47 l -1.797,1.175 c -1.446,-6.742 -3.225,-10.56 -5.156,-15.43 0.705,-0.187 2.45,-0.41 2.45,-0.41 z m 8.327,14.123 c 0.893,0 1.613,0.725 1.613,1.618 0,0.894 -0.72,1.62 -1.613,1.62 -0.894,0 -1.618,-0.726 -1.618,-1.62 0,-0.892 0.724,-1.617 1.618,-1.617 z m 8.633,7.27 c 3.84,1.088 5.083,4.975 4.956,6.39 l -0.84,-0.02 c -1.35,-6.16 -8.37,-2.808 -5.438,2.103 -3.753,1.387 -3.457,4.85 -2.352,6.22 1.525,1.89 5.413,1.83 6.6,-1.078 3.647,4.72 8.68,-0.577 4.24,-4.975 3.636,1.34 4.22,6.212 3.673,7.734 1.688,0.575 3.633,3.255 3.373,3.24 l -27.25,0 c 0,0 1.32,-10.995 -0.082,-19.294 1.813,0.436 3.028,0.874 5.114,-1.575 3.376,2.796 5.802,0.687 5.627,-1.728 -0.26,-1.69 -1.133,-2.528 -2.58,-3.42 2.955,-0.726 5.19,4.385 4.958,6.402 z m 3.04,7.748 c 0.92,0 1.667,0.747 1.667,1.668 0,0.92 -0.746,1.666 -1.667,1.666 -0.92,0 -1.666,-0.746 -1.666,-1.666 0,-0.92 0.746,-1.667 1.666,-1.667 z"
         id="path4549" />
    </g>
  </g>
</svg>
