<?xml version="1.0" encoding="UTF-8" standalone="no"?>
<!-- Created with Inkscape (http://www.inkscape.org/) -->

<svg
   xmlns:dc="http://purl.org/dc/elements/1.1/"
   xmlns:cc="http://creativecommons.org/ns#"
   xmlns:rdf="http://www.w3.org/1999/02/22-rdf-syntax-ns#"
   xmlns:svg="http://www.w3.org/2000/svg"
   xmlns="http://www.w3.org/2000/svg"
   xmlns:sodipodi="http://sodipodi.sourceforge.net/DTD/sodipodi-0.dtd"
   xmlns:inkscape="http://www.inkscape.org/namespaces/inkscape"
   width="63.281277mm"
   height="88.281372mm"
   viewBox="0 0 224.225 312.80801"
   id="svg21443"
   version="1.1"
   inkscape:version="0.91 r13725"
   sodipodi:docname="QH.svg">
  <defs
     id="defs21445" />
  <sodipodi:namedview
     id="base"
     pagecolor="#ffffff"
     bordercolor="#666666"
     borderopacity="1.0"
     inkscape:pageopacity="0.0"
     inkscape:pageshadow="2"
     inkscape:zoom="0.35"
     inkscape:cx="-511.45895"
     inkscape:cy="122.11829"
     inkscape:document-units="px"
     inkscape:current-layer="layer1"
     showgrid="false"
     fit-margin-top="0"
     fit-margin-left="0"
     fit-margin-right="0"
     fit-margin-bottom="0"
     inkscape:window-width="1600"
     inkscape:window-height="838"
     inkscape:window-x="-8"
     inkscape:window-y="-8"
     inkscape:window-maximized="1" />
  <metadata
     id="metadata21448">
    <rdf:RDF>
      <cc:Work
         rdf:about="">
        <dc:format>image/svg+xml</dc:format>
        <dc:type
           rdf:resource="http://purl.org/dc/dcmitype/StillImage" />
        <dc:title></dc:title>
      </cc:Work>
    </rdf:RDF>
  </metadata>
  <g
     inkscape:label="Calque 1"
     inkscape:groupmode="layer"
     id="layer1"
     transform="translate(-227.88752,-341.67249)">
    <g
       transform="translate(-2316.369,-5.4510236)"
       id="g13810">
      <rect
         style="fill:#ffffff;stroke:#000000;stroke-width:0.99699998"
         width="223.228"
         height="311.811"
         x="2466.968"
         y="483.93701"
         rx="10.63"
         ry="10.63"
         transform="translate(77.787,-136.315)"
         id="rect13812" />
      <path
         style="fill:#131f67"
         inkscape:connector-curvature="0"
         d="m 2737.462,372.06 -163.196,0.082 0.982,262.015 163.78,-0.342 c -1.27,-87.358 -1.39,-174.552 -1.566,-261.755 z m -19.254,2.206 17.212,0.087 0,100.822 c 0,0 -1.072,-0.03 -0.973,-0.737 0.133,-0.945 -0.012,-2.713 -0.674,-3.457 -0.28,-0.313 -0.735,-0.806 -0.915,-1.165 -0.452,-0.9 -1.196,-1.834 -1.792,-2.085 -0.295,-0.125 -0.64,-0.195 -0.683,-0.4 -0.042,-0.19 -0.14,-0.82 -0.265,-1.396 -0.317,-1.447 -0.598,-1.402 0.322,-2.842 3.19,-4.99 4.42,-9.578 4.016,-14.128 -0.126,-1.42 -0.483,-3.262 -0.65,-3.515 -3.085,3.09 -5.316,6.907 -7.414,9.728 -0.468,-4.03 -0.4,-7.073 -0.47,-10.304 1.648,-0.47 2.644,-1.345 3.353,-3.587 0,0 1.765,1.38 2.846,1.184 l -0.71,-2.603 c 4.72,-1.448 5.366,-7.61 -0.21,-8.912 l 0.502,-3.244 c 0,0 -1.682,0.564 -2.422,0.926 -0.368,0.155 -0.46,0.032 -0.718,-0.5 -2.6,-4.046 -6.638,-3.185 -8.418,0.803 l -2.176,-0.926 c 0.236,1.104 0.517,2.223 0.317,3.328 -4.568,2.034 -3.44,7.602 0.208,8.33 l -0.318,2.602 2.745,-0.886 c 0.4,1.222 0.195,1.928 2.388,3.303 -0.053,5.452 -0.142,8.86 0.03,13.702 -2.86,-2.927 -5.62,-4.96 -10.456,-6.453 0,0 -0.045,1.173 0.236,2.956 0.093,0.588 0.075,0.502 -0.202,0.5 -0.63,-0.014 -3.463,-4.57 -3.463,-4.57 0,0 -0.33,0.005 -0.616,0.29 -0.338,0.334 0.434,0.953 1.517,2.562 1.268,1.882 1.145,1.803 0.15,2.648 -5.664,4.805 -13.843,23.095 -12.47,24.874 -3.58,0.214 -17.532,7.055 -20.066,21.16 -0.15,0.635 -0.448,1.46 -0.448,1.46 l -4.035,-1.003 c 2.434,-11.552 7.926,-35.044 7.926,-35.044 0,0 3.863,-1.097 6.122,-1.34 l -0.024,-0.91 -5.317,1.24 0.257,-2.014 5.018,-0.988 -0.015,-0.477 -5.312,0.713 0.867,-3.352 c 0,0 -11.924,1.75 -16.195,1.623 0.27,13.033 -0.758,23.86 -0.205,37.906 l -5.83,-3.532 c -0.518,-9.78 -0.673,-34.48 -0.673,-34.48 l -16.097,-2.53 0.534,3.88 c -13.345,-5.288 -26.73,-10.154 -36.588,-20.494 6.068,-4.657 16.195,-9.275 16.195,-9.275 l -0.332,-0.74 c -24.9,12.835 -34.15,21.753 -46.66,32.818 l -0.337,-91.47 67.96,-0.034 -0.226,16.68 c 0,0 -0.09,0.433 -0.217,0.583 -0.83,4.04 1.554,11.215 1.074,14.708 0.22,1.08 0.143,3.083 0.143,3.083 -4.057,5.557 -6.207,10.833 -8.013,17.293 -0.7,0.277 -1.73,0.85 -2.456,1.045 l -0.207,0.882 c 1.592,-0.874 6.106,-2.302 6.106,-2.302 20.11,9.804 34.89,7.405 50.705,0.12 -2.522,8.853 2.96,20.11 11.982,22.476 1.03,0.27 2.798,0.5 3.81,0.236 1.01,-0.29 -2.274,-7.805 -3.728,-8.086 -4.358,-1.887 -6.153,-6.322 -5.688,-11.408 l -0.722,-1.214 c -1.486,6.18 2.09,12.453 6.997,13.985 l 1.32,2.88 c -8.897,-2.67 -12.686,-11 -9.724,-19.235 0.05,-5.14 -3.28,-7.412 -4.807,-9.627 -7.737,-2.95 -9.174,-10.116 -7.82,-15.906 3.6,1.53 -2.428,-5.086 -2.428,-5.086 -2.653,5.746 -3.76,13.01 2.306,20.37 -3.925,5.202 -8.986,9.316 -14.644,12.83 -8.27,4.315 -14.474,1.408 -18.47,-8.148 -2.397,-5.738 -3.257,-11.457 -3.245,-17.448 0.013,-3.708 0.055,-3.82 1.444,-3.193 1.305,0.59 4.137,0.675 5.827,-0.197 2.305,-1.188 2.196,-0.465 -0.312,2.114 -0.682,0.702 -1.41,1.335 -1.41,1.47 0,0.76 1.07,0.12 2.6,-1.398 0.558,-0.553 0.97,-1.086 1.146,-1.078 0.2,0.01 0.182,0.722 -0.048,1.493 -0.09,0.296 -0.37,1.546 -0.626,2.774 -0.257,1.228 -0.61,2.67 -0.78,3.208 -0.68,2.13 -0.496,3.117 1.547,4.1 1.077,0.52 2.92,2.285 2.903,2.285 0,0 -0.44,-1.936 -0.277,-2.56 0.196,-0.747 1.086,-0.218 1.992,0.215 2.005,0.957 3.17,0.985 4.247,0.087 1.484,-1.24 1.058,-4.024 -0.776,-4.75 -1.346,-0.532 -1.582,-0.04 -0.238,0.897 2.016,1.406 -0.257,3.58 -1.97,2.232 -1.338,-1.055 -3.663,-1.173 -3.922,-0.295 -0.246,0.83 -0.5,0.68 -1.426,0.137 -1.44,-0.842 -1.453,-0.99 -0.246,-5.635 2.286,-8.796 2.062,-12.025 -0.968,-14.697 -2.242,-1.978 -5.947,-2.897 -9.79,-0.7 l 0,-2.994 c 5.64,-2.254 9.746,-5.984 13.055,-12.227 l 0.647,0 c 3.295,7.133 8.62,12.258 18.64,16.016 3.917,3.865 -4.96,-11.102 -2.127,-4.975 -5.317,-2.058 -10.057,-6.05 -12.666,-11.04 l 1.45,0 c 1.527,2.206 4.622,6.232 10.132,9.014 0.5,0.418 0.983,-0.015 0.983,-0.015 0,0 -4.624,-7.243 -5.38,-8.967 l 46.187,-0.327 c -1.466,11.248 -3.53,23.472 4.592,45.38 -3.81,-2 -19.085,2.262 -16.396,3.104 1.35,-1.558 11.083,-3.857 18.285,-2.157 -0.596,-0.515 -10.984,-24.617 -4.942,-46.087 z m 4.94,46.087 c 0.015,0.01 0.027,0.016 0.03,0.004 l -0.03,-0.004 z m -35.683,43.41 0.043,1.76 0.366,-0.085 -0.212,-1.715 z m -41.7,-89.444 2.028,0 c -0.446,0.915 -1.096,1.6 -2.086,2.166 z m 3.487,0 2.18,0 c -1.698,2.704 -3.505,4.342 -5.686,5.624 l 0.038,-2.12 c 1.26,-1.104 2.464,-2.246 3.468,-3.505 z m 3.607,0 2.012,0 c -2.732,4.196 -5.536,7.013 -9.126,8.797 l 0,-1.714 c 2.217,-1.725 5.362,-4.26 7.113,-7.084 z m 3.07,0 1.63,0 c -2.8,5.33 -6.703,9.013 -11.814,11.06 l 0,-1.28 c 5.598,-2.984 8.048,-6.313 10.185,-9.78 z m 4.45,0 1.956,0 c 2.683,5.33 8.256,10.372 14.375,12.582 l 0.935,2.163 c -8.067,-2.896 -13.41,-7.122 -17.264,-14.746 z m 5.66,0 1.396,0 c 1.468,2.045 3.247,3.708 5.326,5.09 l 1.267,2.45 c -2.807,-1.887 -5.94,-4.18 -7.99,-7.54 z m 2.547,0 1.56,0.08 2.066,3.444 c -1.376,-0.773 -2.42,-2.346 -3.626,-3.525 z m -1.79,13.84 c -2.14,-0.01 -4.087,0.58 -5.496,1.728 -1.488,1.214 -0.393,2.536 1.75,1.54 3.646,-1.693 7.837,-0.93 12.36,1.547 3.81,2.085 2.475,-0.088 -1.078,-2.408 -2.436,-1.61 -5.112,-2.397 -7.536,-2.408 z m -17.203,2.73 c 3.068,0.024 6.584,1.383 6.67,3.183 -2.036,-1.702 -6.126,-2.53 -10.05,-0.78 -0.3,-0.064 -0.344,-1.13 -0.165,-1.522 0.844,-0.623 2.15,-0.89 3.544,-0.88 z m 18.584,1.16 c -1.94,0 -3.716,0.508 -4.537,1.6 -0.418,0.517 -0.53,0.572 -0.99,0.495 -0.903,-0.15 -0.853,0.372 0.177,1.8 0.5,0.695 0.418,1.484 -0.25,2.424 -0.767,1.078 -0.618,1.12 1.666,2.214 1.746,0.85 3.148,2.056 4.734,3.048 1.133,0.64 1.36,0.077 0.313,-0.765 -0.36,-0.29 -1.423,-1.05 -2.38,-1.67 -1.62,-1.056 -2.81,-2.122 -1.52,-1.648 0.59,0.185 0.742,0.263 1.39,0.374 1.67,0.36 3.32,0.562 4.72,0.28 1.005,-0.2 2.314,-0.866 3.39,-1.797 0.276,-0.126 0.547,0.008 1.214,0.034 2.552,0.1 1.99,-0.65 -1.676,-2.648 -3.625,-1.977 -6.47,-2.338 -8.788,-1.252 -0.982,0.46 -1.544,0.575 -1.402,0.284 0.15,-0.303 0.422,-0.655 0.862,-0.91 3.75,-2.243 6.76,-0.384 10.065,1.3 1.418,0.845 1.802,1.065 1.97,0.795 0.216,-0.347 -1.58,-1.624 -3.992,-2.833 -1.414,-0.732 -3.253,-1.126 -4.965,-1.127 z m -11.984,2.597 c 0.634,0.25 0.35,0.974 -0.23,0.745 -3.46,-1.554 -4.156,-2.31 -8.282,-0.873 -1.363,0.475 -1.903,0.055 -0.23,-0.663 3.645,-1.525 6.29,-0.496 8.742,0.79 z m -2.372,1.83 c -0.938,4.76 -5.678,3.293 -5.143,0.023 l 0.87,0.005 c 0.068,2.876 2.95,2.856 3.444,0.03 z m 27.57,0.01 1.276,2.73 c -2.792,6.875 1,16.134 9.242,18.352 0,0 1.33,2.042 1.07,2.3 -15.476,-3.424 -14.286,-18.176 -11.588,-23.384 z m -14.66,0.177 0.434,0.024 c 1.337,3.32 3.278,1.412 3.655,0.01 l 0.99,0.024 c -0.303,3.437 -5.518,4.02 -5.077,-0.058 z m -11.928,0.096 c 0.627,-0.073 0.84,0.867 0.665,1.04 -0.05,0.048 -1.195,1.16 -1.335,0.506 -0.205,-0.958 0.41,-1.5 0.67,-1.546 z m -7.218,0.097 c 0.052,0 0.106,0.002 0.163,0.01 0.388,0.295 0.535,1.18 0.332,1.637 -0.23,0.238 -1.16,-0.088 -1.34,-0.444 -0.276,-0.52 0.05,-1.21 0.844,-1.203 z m 25.1,0.317 c 0.305,0.013 1.145,0.376 1.063,0.78 -0.02,0.103 -1.19,0.965 -1.455,0.824 -0.507,-0.27 0.195,-1.507 0.294,-1.584 0.016,-0.014 0.052,-0.02 0.095,-0.02 z m -6.84,0.15 c 0.01,-0.003 0.017,-0.002 0.02,0 0.09,0.067 0.838,0.532 0.202,1.39 -0.044,0.06 -0.89,-0.24 -0.905,-0.34 -0.07,-0.5 0.567,-1.015 0.684,-1.05 z m 18.753,6.03 c -0.19,3.95 0.84,7.788 5.157,10.252 l -0.93,-1.695 c -1.106,-0.88 -3.424,-3.396 -3.134,-6.39 z m -38.758,7.064 0.487,2.6 c -2.376,3.946 -4.18,7.825 -5.674,12.357 l -2.244,0.82 c 1.78,-5.718 3.43,-10.247 7.43,-15.777 z m 0.944,4.05 0.636,2.234 c -1.166,2.15 -2.413,4.577 -3.164,7.402 l -2.48,0.915 c 1.116,-3.744 2.748,-7.38 5.008,-10.552 z m 7.864,0.924 c -0.037,0 -0.073,0.004 -0.11,0.015 -0.027,0.44 -0.022,1.658 0.072,3.665 0.017,0.38 0.39,0.22 1.444,-0.318 0.92,-0.47 0.824,-0.544 1.715,-0.246 2.467,0.844 3.588,0.478 4.552,0.23 1.47,-0.38 2.07,-0.225 2.923,0.285 0.47,0.28 1.11,0.49 1.238,0.535 0.676,0.246 0.418,-0.052 -0.044,-1.878 -0.52,-2.054 -0.298,-2.28 -1.12,-1.745 -0.182,0.118 -0.704,0.407 -0.99,0.44 -0.717,0.084 -1.915,-0.795 -2.63,-0.516 -1.73,0.676 -1.714,0.498 -3.32,0.104 -0.804,-0.197 -1.573,0.292 -2.27,0.43 -0.4,0.05 -0.905,-1.006 -1.46,-1.002 z m 29.434,1.065 c 2.923,2.68 5.93,3.598 9.188,4.613 -0.392,1.333 -1.18,2.833 -1.545,4.575 -16.966,8.968 -34.016,8.686 -50.1,0.544 l 8.347,-3.19 c 4.56,7.898 10.404,10.006 16.976,7.422 7.343,-3.415 12.78,-8.168 17.134,-13.965 z m -36.253,1.58 0.723,1.935 -1.073,2.918 -2.047,0.83 c 0.392,-1.99 1.148,-3.623 2.398,-5.684 z m 15.334,2.243 c -0.507,0.025 -1.274,0.366 -3.024,0.376 -0.947,0.005 -1.69,-0.08 -2.056,-0.005 -0.762,0.156 0.128,0.496 1.835,0.984 1.705,0.485 3.79,-0.247 4.05,-0.988 0.062,-0.18 -0.163,-0.397 -0.806,-0.366 z m -14.134,0.954 0.448,0.982 -0.766,0.275 z m 45.11,0.554 1.266,2.884 c -2.195,4.75 -3.652,17.766 11,21.816 l 0.64,1.863 c -9.972,0.196 -19.965,-12.478 -12.907,-26.562 z m -33.547,0.982 c -1.432,-0.014 -2.93,0.34 -3.896,1.108 -0.873,0.69 0.194,1.125 1.33,0.573 1.47,-0.715 3.923,-0.656 5.364,0.246 1.102,0.75 1.677,0.62 0.94,-0.525 -0.58,-0.896 -2.115,-1.384 -3.737,-1.4 z m 63.967,3.24 c 3.83,-0.062 4.228,5.42 3.482,5.89 0.216,-0.072 0.87,-0.264 1.8,-0.24 2.807,0.073 4.27,1.625 4.432,3.88 0.163,2.275 -1.565,3.542 -4.084,3.416 -0.935,-0.047 -1.58,-0.142 -1.536,0.024 0.468,1.817 -0.097,4.555 -2.504,5.24 -0.277,0.078 -0.67,0.463 -0.68,0.6 -0.18,2.883 0.64,12.782 0.64,12.782 0,0 4.514,-7.584 5.53,-8.735 1.986,-2.712 2.345,-2.47 2.35,2.037 -0.33,6.25 -1.332,7.684 -5.014,12.93 -1.576,2.26 -5.307,1.073 -4.97,2.6 0.075,0.338 0.68,0.944 1.286,1.517 0.388,0.37 0.79,0.6 1.696,0.57 1.592,-0.053 2.212,-0.376 1.26,1.007 -0.752,1.095 -3.397,1.322 -3.695,1.892 -0.693,1.323 -0.218,1.03 -1.404,2.195 -0.907,0.993 -0.592,0.487 -0.18,1.305 0.65,1.055 0.38,3.16 -0.264,4.58 -0.524,1.155 -0.465,1.98 -0.465,1.98 0.01,0.096 1.474,-1.51 1.916,-3.367 0.367,-1.545 0.798,-2.32 0.794,-1.455 0,1.09 0.186,2.574 1.17,3.14 0.78,0.448 0.89,0.895 0.762,1.445 -0.134,0.57 0.473,1.07 1.074,1.546 0.14,0.14 0.614,0.324 0.563,0.625 -0.16,0.95 0.224,2.066 0.916,2.247 0.31,0.153 2.274,-0.014 2.598,-1.12 -0.03,-0.353 0,-1.804 -0.785,-1.888 -0.553,-0.255 -0.496,-0.407 0.34,-0.905 1.254,-0.748 2.162,-1.283 2.78,-1.398 0.828,-0.112 1.623,-1.01 1.623,-1.01 l 0.16,59.666 c -7.427,7.6 -15.566,15.165 -26.3,22.6 -6.237,-5.198 -13.053,-10.46 -20.29,-14.4 l -2.498,-1.477 0.896,-1.146 -4.338,-5.72 4.883,-3.93 1.238,1.565 -2.312,2.243 3.468,3.833 7.792,-7.6 -5.133,-4.91 2.672,-5.005 1.71,0.84 -1.292,3.173 3.906,2.47 4.888,-9.708 -6.198,-2.822 1.57,-6.52 1.912,0.202 -0.636,4.695 4.83,0.958 1.965,-11.07 -7.09,-1.268 0.603,-6.313 1.98,0.024 -0.29,3.492 5.01,0.713 0.943,-9.65 -6.948,-1.152 0.896,-7.45 1.59,0.227 -0.31,4.594 5.1,0.872 c 0.56,-3.116 1.018,-7.028 1.85,-10.085 l -6.57,-2.445 2.327,-6.256 1.478,0.515 -1.29,3.39 4.85,2.06 4.088,-8.065 -5.71,-4.04 c 1.28,-2.124 2.557,-4.142 4.386,-5.86 l 1.123,0.976 c 0,0 -0.413,0.37 -1.046,1.247 -0.77,1.064 -1.01,1.602 -0.906,1.88 0.104,0.272 3.633,2.877 3.9,2.878 0.312,0.003 1.483,-1.064 2.086,-1.78 0.646,-0.767 0.984,-0.84 1.652,-0.362 0.133,0.096 0.325,0.285 0.462,0.448 0.16,0.193 0.225,0.354 0.24,0.477 0.017,0.12 -0.017,0.2 -0.047,0.25 0.058,-0.053 0.18,-0.146 0.444,-0.293 0.48,-0.268 -0.93,-1.506 -2.08,-2.148 -3.445,-1.933 -7.497,-5.575 -8.433,-10.133 -0.342,-2.047 4.948,0.414 8.592,4.045 0.553,0.55 2.606,2.538 2.606,2.538 -0.3,-5.268 -0.73,-10.62 -0.496,-15.95 l -0.804,-0.56 c -1.126,-0.783 -1.56,-2.07 -1.662,-3.36 -0.07,-0.89 0.693,-1.344 -1.05,-1.286 -3.626,0.032 -5.725,-3.38 -3.525,-6.3 0.787,-1.09 4.132,-1.624 4.128,-1.598 -0.854,-3.49 1.712,-5.363 3.602,-5.54 z m -1.32,40.583 c -0.068,0.065 -0.04,0.066 0,0 z m 4.802,-34.692 -0.1,0.034 c 0.034,0 0.07,-0.014 0.1,-0.033 z m -120.74,11.4 c 10.127,8.525 16.59,14.262 37.2,20.683 l 0.512,3.053 c -11.853,-2.736 -24.783,-8.275 -40.154,-22.046 z m -3.05,1.97 c 6.414,5.986 12.987,10.545 19.64,14.37 l 2.336,1.406 -1.204,1.232 3.915,5.645 -5.038,4.107 -1.2,-1.194 2.63,-2.576 -3.742,-3.68 -7.623,7.715 5.225,4.633 -3.03,4.657 -1.097,-0.496 1.608,-3.247 -4.854,-2.65 -5.428,9.975 6.91,3.144 -1.56,6.12 -1.613,-0.08 0.543,-4.797 -5.196,-0.92 -1.748,11.206 6.683,1.05 -0.16,6.454 -1.78,-0.03 0.124,-3.644 -5.278,-0.246 -0.473,9.405 6.497,0.842 -0.646,7.633 -1.598,-0.41 0.178,-4.955 -4.95,-0.486 -1.706,10.537 6.68,1.908 -2.36,6.57 -1.45,-0.796 0.95,-3.39 c -1.22,-0.532 -4.643,-1.956 -4.643,-1.956 l -4.364,8.182 5.658,3.853 -3.482,6.117 -1.343,-0.9 2.402,-3.57 -4.7,-2.95 -2.678,3.654 c -1.136,-0.986 -3.18,-2.356 -3.958,-3.274 -0.833,-0.758 -1.466,-0.874 -2.538,-0.62 -0.846,0.2 -1.66,0.35 -1.474,0.052 0.092,-0.147 1.698,-1.228 4.15,-2.783 0.687,-0.435 1.228,-0.815 1.22,-1.204 -0.01,-0.29 0.37,-0.75 0.867,-1.05 0.55,-0.33 0.426,-0.64 0.338,-0.982 -0.474,-1.84 -0.175,-4.71 0.75,-6.64 0.62,-1.293 0.815,-1.526 0.41,-1.527 -1.194,0.154 -2.65,4.48 -2.928,5.698 -0.093,-0.097 -0.223,-1.237 -0.308,-1.676 -0.153,-0.793 -0.264,-1.284 -0.9,-1.435 -0.76,-0.18 -0.52,-0.545 -0.598,-1.117 -0.125,-0.928 -0.564,-1.516 -1.358,-1.845 -0.764,-0.316 -0.847,-0.443 -0.814,-1.204 0,-0.596 -0.625,-1.608 -1.088,-1.93 l -2.65,0.934 c -0.207,0.7 0.07,1.607 0.507,1.936 1.332,1.253 -0.615,1.27 -1.95,2.086 -0.36,0.233 -0.79,0.74 -1.083,0.573 -0.847,-0.28 -0.78,2.25 -1.613,1.935 l 0.202,-60.693 c 7.097,-7.35 27.777,-22.673 27.777,-22.673 z m 107.267,10.734 1.02,1.13 c -3.166,3.564 -5.463,7.233 -7.994,11.713 -2.16,3.822 -4.026,9.174 -5.003,15.01 -0.755,3.574 -0.872,7.21 -1.34,10.865 -0.475,3.933 -0.566,9.23 -1.32,13.383 -1.388,11.39 -4.588,17.452 -11.542,23.915 -3.056,2.84 -12.564,8.205 -12.823,8.153 l -2.254,-0.558 c 19.497,-9.98 24.372,-16.865 26.482,-40.49 0.412,-29.643 13.895,-41.125 14.774,-43.12 z m 1.916,1.984 1.045,1.006 -5.69,8.038 5.61,3.953 -2.226,5.197 -1.7,-0.63 1.21,-3.546 -4.72,-1.99 -3.814,10.326 6.722,2.12 -1.107,6.727 -1.358,-0.367 0,-4.585 -4.988,-1.016 -1.45,11.534 7.35,1.02 -0.54,5.953 -1.738,-0.12 -0.068,-3.546 -5.1,-0.27 -1.165,9.998 7.24,1.228 -1.31,7.103 -1.542,-0.366 0.347,-4.685 -4.854,-0.64 -2.807,9.592 6.097,3.073 -3,6.15 -1.286,-0.896 1.66,-3.635 -4.742,-2.34 -4.58,7.936 4.97,4.89 -4.854,5.084 -1.084,-1.387 2.504,-2.697 -3.742,-3.703 -7.782,6.188 3.973,5.235 -0.467,0.66 -4.103,-1.647 -1.965,-2.596 -2.35,1.03 -1.854,-0.707 c 11.494,-6.027 18.973,-13.015 22.06,-23.554 1.697,-5.827 2.2,-12.186 2.75,-18.594 0.286,-3.328 0.583,-6.67 1.065,-9.96 0.567,-5.37 1.39,-9.877 3.57,-15.058 2.642,-6.283 5.855,-10.71 9.813,-15.506 z m -61.853,3.973 7.893,4.16 -0.116,2.766 -7.296,-3.655 z m 2.22,0.078 5.624,0.77 0.025,2.268 z m -25.355,0.072 3.284,1.478 2.784,3.212 2.085,-1.367 2.264,0.847 c -7.15,3.676 -13.497,8.074 -18.44,15.66 -5.506,8.456 -6.118,19.526 -6.823,30.21 -1.174,14.74 -3.702,25.09 -13.498,37.038 l -1.444,-0.91 5.287,-8.4 -5.962,-3.85 2.716,-4.966 1.372,0.472 -1.064,2.96 4.93,2.602 3.78,-10.585 -6.953,-2.166 1.166,-6.622 1.75,0.154 -0.463,4.744 4.97,0.785 1.425,-11.192 -6.7,-1.026 0.15,-5.914 1.643,0.16 -0.01,3.597 5.283,0.284 0.41,-10.21 -6.57,-0.727 0.81,-7.21 1.84,0.19 -0.425,4.323 5.057,0.723 2.398,-9.333 -6.568,-2.967 3.544,-6.303 1.594,0.732 -1.628,3.49 4.556,2.22 4.777,-7.3 -5.076,-4.873 4.985,-5.217 1.223,1.2 -2.707,3.11 3.752,3.468 7.426,-6.23 -3.626,-5.452 z m 47.237,0.347 -0.23,2.615 -7.913,4.493 -0.01,-2.562 z m 42.466,0.09 1.75,1.085 -1.268,1.502 -1.526,-0.963 z m -45.792,0.372 -4.74,2.734 0,-2.72 z m 55.882,2.55 c 0.247,0.007 0.474,0.06 0.65,0.175 0.477,0.31 0.408,1.077 -0.13,1.454 -0.7,0.49 -2.622,0.457 -2.813,-0.05 -0.274,-0.728 1.22,-1.603 2.293,-1.58 z m -75.632,1.08 6.8,3.67 -0.024,2.586 -6.545,-3.598 z m 22.153,0.082 -0.4,3.37 -7,3.714 -0.06,-2.923 z m -33.892,0.063 2.788,0.707 c -10.323,4.605 -20.524,11.285 -24.493,22.938 -1.24,3.487 -2.075,7.37 -2.62,12.338 -0.255,5.24 -0.93,10.398 -1.178,14.768 -0.505,8.9 -3.434,20.952 -13.553,33.755 l -0.968,-0.76 c 6.208,-7.65 9.435,-14.584 11.428,-21.91 3.158,-11.66 1.592,-24.528 4.96,-36.264 2.054,-7.14 6.32,-13.524 12.71,-19.046 4.444,-3.454 10.926,-6.525 10.926,-6.525 z m 4.685,0.977 c 0.03,0 0.045,0 0.048,0.01 2.508,8.436 5.602,23.814 5.602,23.814 -6.63,-3.206 -17.664,-2.62 -17.664,-2.62 0,0 -6.21,-8.01 -7.41,-8.67 4.964,-6.696 18.478,-12.487 19.425,-12.534 z m 85.355,1.33 c 1.526,-0.05 1.416,2.27 -0.516,3.847 -0.987,0.805 -1.444,0.69 -2.172,0.047 -0.214,-0.287 -0.835,-0.492 -1.29,-0.438 -1.083,-0.005 1.057,-2.245 2.96,-3.17 0.395,-0.19 0.735,-0.28 1.018,-0.29 z m -77.5,1.887 6.063,3.11 0.06,2.562 -5.612,-3.044 z m 20.553,0.346 -0.326,2.817 -6.314,3.284 0.034,-2.595 z m 59.08,1.05 c 0.21,-0.02 0.374,0.06 0.526,0.23 0.86,0.96 -0.775,3.863 -2.63,4.735 -0.71,0.335 -1.15,0.28 -1.743,-0.23 -0.288,-0.25 -0.714,-0.575 -0.958,-0.55 -1.062,0.11 -0.476,-1.08 0.38,-1.15 0.237,-0.02 1.722,-1.13 2.846,-2.066 0.755,-0.627 1.23,-0.936 1.58,-0.968 z m -6.414,1.13 c 1.34,-0.03 1.828,1.084 0.24,1.57 -1.13,0.348 -1.76,0.1 -1.757,-0.66 0.237,-0.78 0.92,-0.87 1.516,-0.91 z m -72.385,1.51 5.38,2.695 0.024,2.766 -4.94,-2.577 z m 19.25,0.38 -0.376,2.614 -5.794,2.976 0.015,-2.162 z m 60.72,1.097 c 0.367,0.023 0.476,0.43 0.473,1.156 -0.01,1.2 -0.8,2.308 -1.994,2.85 -0.875,0.397 -1.492,0.366 -1.927,-0.1 -0.198,-0.214 -0.474,-0.386 -0.616,-0.39 -1.872,-0.076 -1.57,-0.558 0.22,-1.307 0.632,-0.263 1.87,-1.122 2.457,-1.54 0.66,-0.472 1.102,-0.688 1.387,-0.67 z m -6.866,0.852 c 0.918,0.004 1.726,0.652 1.218,1.07 -0.394,0.325 -1.875,0.48 -2.167,0.187 -0.554,-0.558 -0.06,-1.26 0.95,-1.257 z m -72.212,1.86 4.584,2.47 -0.024,2.63 -4.377,-2.476 z m 17.587,0.202 -0.107,2.692 -5.264,2.594 -0.034,-2.567 z m 56.632,1.116 c 0.89,0.064 0.778,0.926 0.058,1.344 -0.537,0.373 -1.233,0.177 -1.517,-0.26 -0.64,-1.216 0.814,-1.07 1.46,-1.084 z m 1.786,2.763 c 0.148,0.297 0.066,0.83 -0.226,0.998 -0.39,0.165 -1.403,-0.007 -1.56,-0.302 -0.128,-0.243 -0.1,-0.37 0.15,-0.617 0.414,-0.33 1.345,-0.574 1.636,-0.08 z m -75.342,0.05 3.916,2.138 -0.025,2.582 -3.597,-2.09 z m 16.282,0.068 -0.192,2.485 -4.556,2.257 0.063,-2.422 z m -47.695,1.565 c 0.977,0.01 1.73,0.66 1.156,1.77 -0.36,0.694 -0.63,0.95 -2.192,2.052 -0.638,0.45 -1.19,0.862 -1.233,0.915 -0.043,0.054 -0.45,0.335 -0.718,0.52 -1.4,0.97 -0.913,-1.053 0.834,-4.035 0.5,-0.855 1.394,-1.232 2.153,-1.223 z m 47.35,2.214 -0.363,2.735 -4.074,2.08 0,-2.634 z m -15.32,0.255 3.294,1.632 0.048,2.663 -2.99,-1.57 z m 39.57,0.206 c 0.107,-0.004 0.2,0.032 0.266,0.126 0.27,0.377 0.312,2.01 0.047,2.932 -0.46,1.087 -1.358,-1.654 -1.257,-2.35 0.19,-0.315 0.626,-0.695 0.944,-0.708 z m -69.245,0.496 c 1.332,-0.024 2.296,0.886 1.845,2.235 -0.52,1.302 -3.527,2.122 -4.884,3.02 -0.888,0.44 -1.103,-0.038 -0.83,-0.805 0.128,-0.355 0.225,-0.632 -0.452,-0.732 -1.642,-0.242 -0.64,-1.04 2.37,-3.058 0.66,-0.442 1.345,-0.65 1.95,-0.66 z m 66.063,0.853 c 0.473,-0.005 1.056,0.27 1.657,0.924 1.035,1.123 1.783,3.487 1.22,4.102 -0.434,-0.048 -0.648,0.59 -0.67,0.848 -0.066,0.745 -1.426,-0.615 -2.712,-2.76 -1.036,-1.727 -0.534,-3.104 0.506,-3.115 z m -55.482,0.4 c 4.06,-0.028 11.815,0.81 22.548,7.526 1.368,0.86 2.737,1.805 4.286,2.568 4.07,2.196 7.432,3.684 12.68,4.662 l -0.15,2.716 c -0.047,0.857 1.366,5.82 0.718,8.61 -0.963,-0.018 0.93,0.824 0.93,0.824 l 1.232,2.523 c 0,0 -6.442,-0.054 -9.37,-0.63 -4.72,-0.768 -13.33,-4.767 -17.492,-7.913 -4.323,-3.17 -10.853,-5.807 -16.45,-6.828 l -0.078,-2.336 c 0,0 -0.556,-7.997 -1,-9.092 l -1.032,-2.528 c 0.253,0.1 1.333,-0.09 3.178,-0.102 z m 33.88,1.752 -0.314,2.683 -3.573,1.676 0,-2.297 z m 17.808,0.12 c 1,0.003 2.514,1.173 4.242,3.51 0.39,0.528 0.69,0.985 0.747,1.302 0.052,0.29 -0.128,0.458 -0.414,0.422 -0.68,-0.123 -0.93,-0.37 -1.12,0.477 -0.048,0.21 0.073,0.588 -0.16,0.52 -1.214,-0.357 -4.682,-3.856 -4.47,-4.975 0.16,-0.84 0.576,-1.26 1.176,-1.257 z m -31.823,0.18 2.606,1.386 0.114,2.644 -2.316,-0.997 z m -27.998,0.803 c 0.8,-0.026 1.296,0.29 1.55,0.91 0.613,1.496 -0.472,2.397 -3.693,3.073 -2.8,0.665 -2.742,0.706 -2.35,-0.332 0.26,-0.69 -0.606,-0.765 -1.09,-0.948 -0.815,-0.31 -0.147,-0.405 2.202,-1.575 1.476,-0.735 2.58,-1.1 3.38,-1.127 z m -9.314,0.708 c 0.08,-0.007 0.176,0.068 0.314,0.24 4.07,4.93 3.023,12.115 -2.13,15.662 -0.584,0.387 -0.604,0.028 -0.538,-0.742 l 0.1,-1.464 c 0.028,-0.29 5.918,-3.907 1.56,-11.953 l 0.367,-1.135 c 0.117,-0.362 0.195,-0.596 0.328,-0.607 z m 66.482,1.532 c 1.607,0.006 6.116,4.096 4.195,4.242 -0.226,0.017 -0.15,0.31 -0.15,0.496 0,0.186 -0.01,0.54 -0.062,0.674 -0.14,0.357 -0.664,0.287 -1.474,-0.192 -2.05,-1.215 -2.516,-1.602 -3.225,-2.273 -1.396,-1.32 -1,-2.954 0.717,-2.947 z m -15.877,0.703 -0.03,2.205 -3.21,1.556 0.018,-1.994 z m -40.708,1.584 c 2.162,-0.075 3.378,2.08 1.22,3.212 -0.865,0.452 -3.707,0.134 -5.03,0.018 -1.49,-0.13 -0.61,-0.574 -0.53,-0.708 0.206,-0.337 0.365,-0.39 -0.413,-0.852 -0.618,-0.65 -0.972,-0.81 0.573,-1.01 0.75,-0.1 2.572,-0.277 3.203,-0.483 0.34,-0.11 0.668,-0.167 0.977,-0.178 z m 65.807,0.525 c 0.16,-0.007 0.142,0.257 0.077,0.944 l -0.104,1.473 c -0.985,0.157 -5.877,6.238 -1.903,13.31 l -0.332,1.257 c -0.152,0.62 -0.2,0.712 -0.717,0.328 -2.978,-2.06 -3.944,-12.537 2.225,-16.87 0.402,-0.266 0.633,-0.438 0.756,-0.443 z m -11.615,1.228 c 0.574,0.01 1.277,0.172 2.084,0.54 1.88,0.854 3.128,1.546 3.42,2.003 0.18,0.282 -0.103,0.516 -0.482,0.626 -0.46,0.13 -0.515,0.323 -0.39,0.86 0,0.313 0.078,0.66 -0.313,0.68 -0.726,0.038 -2.346,-0.472 -3.984,-1.354 -2.766,-1.488 -2.39,-3.393 -0.337,-3.356 z m -14.054,0.034 0,2.682 -2.64,-1.218 z m -44.237,2.306 c 0.28,0.008 0.65,0.058 1.136,0.135 0.594,0.095 1.517,0.187 1.993,0.178 3.007,-0.052 4.253,2.042 1.77,3.107 -0.677,0.29 -0.96,0.26 -2.816,-0.28 -0.89,-0.258 -1.978,-0.53 -2.422,-0.655 -0.894,-0.253 -1.203,-0.535 -0.612,-0.737 0.55,-0.187 0.6,-0.568 0.256,-1.073 -0.084,-0.506 0.078,-0.69 0.693,-0.675 z m 69.89,0 c -0.426,4.154 -0.774,7.39 -1.4,11.457 -0.46,-0.18 -3.705,-7.84 1.4,-11.457 z m -12.656,1.99 c 0.98,0.017 2.63,0.394 4.238,1.025 1.405,0.517 1.582,0.655 0.612,1.07 -0.586,0.25 -0.515,0.473 -0.342,0.856 0.267,0.29 0.773,0.864 -0.024,0.748 -0.945,0.07 -3.427,-0.07 -4.185,-0.202 -2.267,-0.398 -2.884,-2.442 -1.026,-3.39 0.15,-0.077 0.4,-0.113 0.727,-0.107 z m -58.237,1.05 c 0.21,0 0.594,0.11 1.29,0.33 4.07,1.286 5.722,2.84 3.728,4.35 -0.578,0.438 -1.475,0.252 -3.168,-0.693 -1.732,-0.967 -2.6,-1.497 -2.924,-1.84 -0.32,-0.34 -0.145,-0.73 0.347,-0.698 0.676,0.043 0.574,-0.296 0.52,-0.863 -0.038,-0.398 -0.062,-0.587 0.207,-0.588 z m 10.98,0.375 3.12,0.708 -7.79,34.076 c -2.66,0.766 -4.195,1.097 -6.064,2.103 l 5.39,-0.93 -0.468,2.438 -4.893,0.92 -0.11,0.728 5.605,-1.012 c 0,0 -0.2,2.326 -0.395,3.227 5.35,-0.43 10.633,-1.918 16.012,-1.96 0,0 0.13,-26.893 0.11,-29.824 -0.02,-3.168 0.01,-6.955 0.01,-6.955 l 5.393,3.044 0.89,33.892 16.895,2.745 c -0.118,-0.572 -0.578,-3.192 -0.578,-3.192 12.525,3.693 25.224,9.152 36.465,20.435 -5.23,2.83 -10.175,5.637 -15.257,8.357 l -0.736,1.06 c 12.886,-6.02 32.475,-18.535 46.62,-32.367 l 0.314,89.62 -67.705,0.27 0,-8.383 0.038,-7.494 c -0.275,-4.805 0.562,-10.097 -0.91,-14.13 l -0.29,-4.222 c 4.174,-4.852 6.43,-10.972 8.42,-17.225 0,0 2.007,-0.778 2.985,-1.122 l 0.337,-1.228 c -1.94,0.99 -6.396,2.653 -6.396,2.653 0.48,-0.375 -9.47,-4.564 -15.616,-5.548 -10.14,-1.623 -23.783,0.05 -34.66,5.442 -0.532,0.376 -0.76,0.367 -0.625,-0.12 2.524,-9.184 -2.795,-18.403 -12.132,-21.074 -1.98,-0.567 -3.602,-0.563 -3.602,-0.563 l 0.17,0.804 c 15.256,1.718 18.835,17.84 12.96,25.33 -1.538,2.47 -1.773,3.192 1.46,3.11 13.063,-0.107 17.604,14.49 11.65,22.567 0.015,-0.063 0.483,0.94 0.483,0.94 3.71,-4.902 4.7,-14.213 -1.88,-20.757 4.865,-5.423 14.202,-14.102 22.278,-13.595 2.94,0.185 5.84,3.743 7.773,6.584 4.092,6.012 5.143,14.41 5.433,19.2 0.07,1.254 0.238,2.166 0.24,2.826 0.01,1.917 -0.36,1.687 -1.598,1.368 -1.555,-0.402 -3.688,-0.418 -5.264,0.062 -2.53,0.772 -2.122,0.332 0.13,-2.46 1.33,-1.648 1.51,-2.156 0.96,-2.264 -0.168,-0.033 -0.732,0.532 -1.47,1.666 -2.222,3.42 -2.05,2.016 -0.442,-3.318 1.045,-3.468 0.94,-3.71 -1.907,-5.866 -0.94,-0.713 -2.098,-1.405 -2.2,-1.622 -0.536,-1.138 -0.76,0.29 -0.28,1.228 0.47,0.916 -0.524,1.335 -2.272,0.39 -4.115,-2.28 -6.793,2.335 -3.12,4.334 0.865,0.47 1.348,0.084 0.678,-0.535 -2.26,-2.09 -0.688,-3.85 2.37,-2 1.766,1.07 2.438,0.728 3.028,-0.61 0.328,-0.546 3.07,1.418 3.068,2.18 0,0.5 -0.32,2.102 -0.63,3.174 -0.88,3.026 -1.118,3.966 -1.5,5.928 -0.688,3.558 -0.67,5.38 0.07,6.945 1.655,3.504 5.822,5.156 9.438,3.746 0.525,-0.205 1.53,-0.375 1.53,-0.375 l 0.045,2.57 c -7.13,2.7 -12.28,11.127 -12.045,11.415 l -2.542,0.004 c -3.375,-6.7 -9.314,-11.745 -16.86,-14.533 0,0 -0.908,-1.512 -0.097,1.247 0.052,1.107 1.217,2.668 2.16,3.213 3.584,1.822 8.327,5.053 10.945,10.07 l -1.8,0.03 c -2.197,-3.35 -5.042,-5.61 -7.74,-7.58 -0.634,-0.135 0.462,6.07 3.053,7.983 l -46.472,0.81 c 3.17,-12.41 3.78,-26.177 -3.65,-44.224 6.16,0.378 11.626,-0.944 16.634,-3.13 l -0.453,-1.286 c -5.706,2.724 -11.966,3.26 -18.233,2.62 4.754,8.8 8.914,27.242 4.864,44.98 l -17.057,0.09 -0.235,-96.69 c 0,0 0.667,0.608 0.876,0.82 0.537,0.536 0.9,1.34 1.05,1.92 0.196,0.744 0.402,0.79 1.465,1.584 0.51,0.382 0.805,0.718 0.804,0.915 -0.03,0.22 -0.037,0.898 0.308,1.315 0.936,1.133 0.77,1.86 0.067,2.59 -3.27,3.403 -5.318,10.552 -3.665,18.094 3.88,-2.61 7.873,-9.438 8,-9.45 l 0.375,9.325 c -0.345,-0.078 -2.712,1.324 -2.74,3.158 -1.072,0.318 -2.38,-0.215 -3.468,-0.535 l 0.784,2.746 c -3.98,1.587 -4.194,7.032 0.42,8.587 0,0 -0.422,2.13 -0.784,3.272 l 2.996,-0.457 c 1.74,5.196 8.42,3.532 8.388,-0.093 0,0 2.032,0.764 2.804,1.103 l -0.752,-3.542 c 7.597,-3.79 1.914,-8.75 0.18,-8.68 0.023,-0.99 0.477,-1.3 0.894,-2.455 l -3.067,0.192 c -0.564,-1.83 -2.626,-3.326 -2.703,-3.125 l -0.424,-13.345 c 2.32,2.023 4.602,4.097 7.676,5.707 2.837,1.486 3.126,1.154 2.706,-1.41 -0.19,-1.158 -0.173,-1.918 -0.173,-1.918 1.064,0.25 3.75,3.74 3.62,5.46 0.982,1.28 1.872,-2.162 -0.66,-5.094 6.737,-7.053 11.87,-18.745 12.965,-26.713 l 8.958,-3.564 0.1,-1.166 c 6.103,-4.083 9.286,-9.762 10.96,-16.185 z m 7.455,2.085 2.06,0.92 -2.34,1.16 z m -19.86,0.563 c 0.397,0.183 1,0.58 1.825,1.185 1.752,1.285 2.774,2.17 2.808,2.947 0.016,0.385 -0.266,0.883 -0.708,1.118 -1.058,0.56 -2.07,0.1 -4.36,-2.24 -0.738,-0.756 -1.232,-1.16 -1.458,-1.497 -0.263,-0.392 -0.07,-0.762 0.365,-0.602 1.857,0.838 0.25,-1.49 1.527,-0.91 z m 63.12,0.482 c 0.382,0.002 0.683,0.01 0.872,0.048 0.496,0.1 0.64,0.38 0.332,0.655 -0.476,0.425 -0.34,0.854 0.14,1.084 0.33,0.157 0.196,0.49 -0.203,0.717 -0.232,0.132 -0.588,0.276 -1.074,0.428 -2.813,0.88 -4.885,0.617 -5.428,-0.694 -0.624,-1.506 0.57,-2.237 4.007,-2.234 0.51,0 0.97,-0.007 1.352,-0.005 z m -40.948,0.896 -0.024,2.018 -2.92,1.402 0.32,-2.047 z m -24.806,0.632 c 0.256,0.015 0.676,0.408 1.286,1.155 2.814,3.448 3.194,4.113 2.273,5.028 -1.093,1.084 -2.626,0.036 -4.277,-2.986 -0.222,-0.407 -0.493,-0.93 -0.655,-1.118 -0.605,-0.71 -0.34,-0.93 0.43,-0.872 0.42,0.033 0.62,-0.116 0.63,-0.55 0.01,-0.456 0.114,-0.67 0.313,-0.658 z m 67.46,1.743 c 0.51,0 0.473,0.175 0.244,0.77 -0.176,0.528 -0.464,0.7 0.28,1.03 0.123,0.06 0.397,0.4 0.15,0.545 -0.588,0.397 -3.212,1.592 -4.162,1.907 -1.845,0.612 -2.98,-0.89 -1.897,-2.384 0.454,-0.625 3.574,-1.758 5.128,-1.86 0.098,-0.005 0.183,-0.008 0.257,-0.008 z m -68.934,1.998 c 1.87,2.79 2.104,4.094 0.872,4.908 -0.78,0.594 -2.443,-0.26 -2.822,-2.06 -0.29,-1.38 -0.424,-2.823 0.025,-3.968 0.68,-1.735 1.73,0.833 1.924,1.12 z m 26.265,-1.155 0.014,2.18 -3.55,1.783 0.328,-2.402 z m 7.232,0.086 3.338,2.163 0.192,1.858 -3.448,-1.897 z m 37.23,2.148 c 0.09,0.002 0.136,0.04 0.136,0.145 0,0.256 -0.066,1.17 0.433,1.252 0.983,0.162 0.76,0.468 -0.1,1.207 -0.93,0.824 -1.78,1.802 -2.904,2.403 -2.893,1.07 -3.803,-1.988 -1.064,-3.578 0.946,-0.548 1.802,-0.927 2.44,-1.107 0.482,-0.136 0.868,-0.326 1.06,-0.323 z m -37.138,1.122 3.867,2.278 0.136,2.292 -3.843,-1.955 z m -7.46,0.212 0.015,1.994 -3.777,2.162 0.313,-2.23 z m 15.627,1.628 c 1.07,0.498 14.793,4.31 19.337,3.01 0,0 3.888,5.605 6.766,7.613 -4.454,6.537 -19.538,12.945 -19.538,12.945 z m 30.89,0.14 c 0.25,-0.01 0.31,0.24 0.308,0.707 -0.06,1.357 -2.29,6.35 -4.065,3.79 -0.488,-0.95 0.01,-1.938 1.565,-3.114 1.235,-0.933 1.87,-1.37 2.192,-1.383 z m -74.715,0.787 c 0.338,0.37 0.185,1.506 -0.545,1.43 -0.21,-0.02 -0.24,-1.174 -0.1,-1.8 0.21,-0.103 0.527,0.25 0.645,0.37 z m 28.247,0.634 -0.024,2.533 -4.478,2.437 0.48,-2.817 z m 7.407,0.356 4.434,2.365 0.52,2.798 -4.916,-2.548 z m -7.417,3.444 0,2.552 -5.033,2.58 0.342,-2.517 z m 7.503,0.22 4.96,2.823 0.65,2.66 -5.538,-2.862 z m -70.31,0.083 c 0.813,-0.01 1.105,0.855 0.49,1.406 -0.404,0.377 -1.554,0.3 -1.656,0 -0.52,-0.5 0.194,-1.393 1.166,-1.406 z m 1.517,2.702 c 0.12,-0.01 0.234,-0.002 0.332,0.023 0.586,0.15 0.95,0.996 0.592,1.478 -0.662,0.892 -2.407,0.275 -2.152,-0.85 0.067,-0.3 0.707,-0.616 1.228,-0.65 z m 61.203,0.85 0,2.284 -5.475,2.89 0.347,-2.553 z m 7.744,0.32 5.65,3.033 0.432,2.557 -6.072,-3.16 z m -71.63,0.066 c 0.273,-0.015 0.49,0.06 0.607,0.265 0.105,0.184 0.23,0.65 0.62,0.878 0.733,0.425 0.81,0.513 -0.58,1.122 -0.587,0.256 -1.737,1.04 -2.14,1.31 -1.23,0.827 -1.73,0.55 -1.82,-0.43 -0.113,-1.233 2.132,-3.078 3.313,-3.144 z m 4.238,1.87 c 0.285,-0.017 0.562,0.036 0.76,0.167 0.47,0.31 0.496,0.934 0.045,1.248 -1.035,0.662 -2.653,-0.244 -1.792,-1.035 0.243,-0.222 0.622,-0.36 0.988,-0.38 z m 59.64,1.237 0.027,2.96 -6.106,3.223 0.404,-3.005 z m -62.66,0.346 c 0.4,-0.023 0.784,0.07 1.118,0.317 0.362,0.462 0.798,0.597 1.05,0.607 1.048,0.04 0.714,0.423 -0.385,0.925 -1.514,0.69 -2.578,1.568 -3.67,2.58 -1.133,1.053 -1.216,1.28 -1.588,0.847 -1.386,-1.605 1.315,-5.155 3.477,-5.278 z m 70.503,0.033 6.402,3.5 0.55,2.958 -6.95,-3.866 z m -66.297,2.085 c 0.26,-0.006 0.502,0.056 0.693,0.212 0.455,0.37 0.193,1.088 -0.438,1.41 -0.536,0.276 -1.418,0.16 -1.67,-0.095 -0.606,-0.61 0.49,-1.505 1.415,-1.527 z m -3.092,1.488 c 0.39,-0.037 0.744,0.46 1.06,0.997 0.11,0.134 0.55,0.074 0.863,0.077 1.198,0.01 1.365,0.516 0.202,1.16 -0.34,0.19 -1.455,1.043 -2.2,1.677 -2.01,1.92 -3.1,1.468 -2.842,-0.496 0.246,-1.878 1.877,-3.313 2.918,-3.414 z m 69.39,0.183 7.06,3.87 0.69,3.184 -7.75,-4.175 z m -7.79,0.057 -0.03,2.933 -6.645,3.515 0.515,-2.976 z m 7.897,3.732 7.908,4.786 0.29,3.116 -8.198,-4.72 z m -7.902,0.52 0.014,2.874 -7.35,3.728 0.37,-2.716 z m -59.658,1.902 c 0.188,-0.005 0.365,0.024 0.51,0.09 0.86,0.397 0.636,1.083 -0.66,1.788 -1.32,0.72 -1.772,0.595 -2.055,-0.212 -0.24,-0.68 1.19,-1.642 2.205,-1.666 z m 82.566,0.39 c 13.75,3.147 27.21,9.952 40.28,21.834 l -2.73,1.93 c 0,0 -11.454,-13.06 -36.905,-20.716 z m -14.924,1.367 3.813,2.248 0.01,0.573 -3.824,-0.312 z m -64.98,0.023 c 0.29,0.016 0.544,0.184 1.907,0.834 5.474,3.95 7.666,6.334 9.025,10.666 0.815,2.597 0.8,2.49 -1.878,1.08 -2.518,-1.337 -5.97,-3.557 -8.196,-6.425 -0.37,6.75 0.418,15.14 0.418,15.14 3.42,1.686 2.313,6.072 2.304,6.046 8.798,-2.4 6.87,9.21 0.314,6.706 1.563,8.71 -8.412,8.002 -7.39,0.535 -7.94,-0.307 -6.535,-8.96 0.055,-7.763 -0.686,-2.67 0.26,-4.478 2.69,-5.624 l -0.372,-11.404 c 0,0 -6.47,9.286 -7.55,9.14 -0.636,-0.085 -1.59,-1.152 0.018,-9.294 0.838,-4.24 5.333,-9.403 7.85,-9.57 0.445,-0.03 0.63,-0.076 0.804,-0.067 z m 6.328,0.087 1.16,0.795 -1.092,1.95 -1.21,-0.876 z m 50.628,0.56 -0.038,1.708 -3.564,0.212 z m -39.075,19.3 c -0.533,0.014 0.903,0.35 1.812,1.166 8.386,1.298 13.516,11.556 9.636,18.983 -0.47,0.333 0.255,1.95 0.727,1.343 4.09,-5.798 1.046,-20.048 -10.888,-21.406 -0.708,-0.06 -1.108,-0.09 -1.286,-0.087 z m 3.17,3.896 c -0.674,1.848 -0.85,2.29 0.876,1.536 3.053,1.13 6.347,6.1 5.293,11.09 -0.34,0.583 0.252,-0.38 0.654,1.263 1.507,-3.654 0,-11.534 -6.824,-13.89 z m 38.762,9.3 c 8.584,-0.026 17.08,1.85 23.838,5.735 -2.297,1.278 -9.627,3.06 -9.627,3.06 -4.12,-4.623 -6.22,-9.245 -13.667,-6.883 -7.8,2.014 -14.825,8.765 -18.778,13.245 -3.964,-2.36 -6.11,-2.936 -9.625,-3.132 -0.203,-0.005 -0.505,0.89 -0.255,-0.553 1.005,-1.55 1.698,-3.304 2.37,-5.076 7.366,-4.188 16.606,-6.368 25.744,-6.395 z m 26.684,5.932 c -1.71,5.53 -3.917,10.98 -7.662,15.777 l -0.462,-2.398 c 3.52,-5.407 5.19,-10.324 5.942,-12.478 z m -3.323,1.435 c 0.22,0.352 -3.413,9.01 -5.206,10.585 l -0.703,-2.234 c 1.462,-2.21 3.627,-7.534 3.564,-7.585 z m -22.162,0.01 c -0.112,0.01 -0.152,0.11 -0.153,0.328 0,0.795 0.826,1.42 2.336,1.763 2.04,0.463 4.898,-0.243 4.902,-1.21 0,-0.556 -0.396,-0.597 -1.565,-0.056 -1.466,0.678 -2.76,0.545 -4.67,-0.468 -0.44,-0.233 -0.704,-0.37 -0.85,-0.357 z m 18.17,1.382 c -0.566,2.098 -1.41,3.642 -2.484,5.245 l -0.347,-1.103 c 0.743,-1.202 1.234,-2.576 1.863,-3.91 z m -2.133,0.68 c -0.275,0.73 -0.578,1.573 -1.208,2.224 l -0.82,-1.735 z m -12.914,1.606 c -1.382,0.028 -2.75,0.473 -2.87,1.207 -0.057,0.352 0.474,0.216 3.045,-0.097 1.357,-0.166 2.004,0.638 3.248,0.554 0.633,-0.075 0.04,-0.66 -0.156,-0.83 -0.69,-0.587 -2.048,-0.856 -3.267,-0.833 z m -5.9,1.6 c -0.14,0.03 0.016,0.383 0.534,1.282 0.28,0.488 0.35,1.48 0.404,2.095 -0.066,1.53 -0.06,1.483 0.695,0.597 0.476,-0.472 1.4,-0.367 2.865,0.03 0.944,0.255 1.17,0.346 1.827,-0.064 0.76,-0.477 0.938,-0.237 1.592,-0.105 0.63,0.127 1.204,-0.127 1.897,-0.318 0.845,-0.234 1.007,-0.18 1.743,0 1.124,0.532 0.96,0.485 1.055,-1.42 0.094,-1.877 -0.01,-2.01 -1.093,-1.378 -1.052,0.612 -1.777,0.89 -3.39,0.327 -1.76,-0.613 -2.008,-0.458 -3.256,-0.082 -1.508,0.454 -2.194,0.61 -3.395,-0.126 -0.79,-0.484 -1.32,-0.87 -1.478,-0.84 z m -24.575,2.833 0.674,1.098 c 6.08,2.176 10.2,7.146 7.768,15.522 l 0.577,0.925 c 3.043,-8.44 -0.43,-15.418 -9.02,-17.544 z m 1.883,3.573 0.83,1.7 c 4.574,2.21 4.3,8.297 4.044,8.057 l 0.718,1.585 c 1.144,-3.94 -0.94,-9.754 -5.59,-11.342 z m 19.11,9.078 c -0.18,0.002 -0.3,0.063 -0.347,0.188 -0.118,0.303 0.236,0.485 2.326,1.93 1.794,1.243 3.182,2.164 3.076,2.34 -0.07,0.12 -1.187,-0.152 -1.984,-0.39 -2.09,-0.62 -5.17,0.128 -6.896,1.345 -0.44,0.294 -1.168,-0.027 -1.8,-0.193 -0.255,-0.07 -0.814,-0.14 -1.09,-0.067 -1.306,0.342 -0.042,1.59 3.155,3.207 3.923,1.986 6.046,2.167 8.428,0.963 1.582,-0.818 2.15,-0.21 0.42,0.723 -3.023,1.63 -5.917,1.126 -10.692,-2.158 -2.21,-1.52 -3.095,-1.267 -1.194,0.183 3.336,2.61 9.758,5.79 13.7,1.903 0.155,-0.056 0.512,-0.03 0.684,-0.03 0.82,0.004 0.855,-0.255 0,-1.608 -0.515,-0.815 -1.557,-1.674 -0.288,-2.673 0.96,-0.757 0.892,-1.117 -0.27,-1.464 -0.307,-0.084 -0.276,0.117 -0.737,-0.255 -2.79,-2.25 -5.52,-3.95 -6.49,-3.944 z m 1.208,4.445 c 1.172,0.032 2.352,0.933 2.72,2.556 0.034,0.145 0.063,0.293 0.083,0.448 l -0.997,0.037 c -0.828,-3.305 -3.32,-2.21 -3.57,-0.272 l -0.898,-0.12 c 0.33,-1.844 1.492,-2.68 2.663,-2.65 z m 20.674,2.82 -0.665,0.1 c -0.435,-1.218 -2.403,-2.854 -3.342,0.113 l -0.837,-0.034 c 0.583,-4.02 4.232,-3.396 4.844,-0.18 z m -5.095,-1.67 c 0.272,0.386 -0.206,1.037 -0.483,1.334 -0.265,0.284 -0.855,0.044 -1.1,-0.236 -0.217,-0.277 -0.057,-0.828 0.302,-1.01 0.373,-0.19 1.007,-0.363 1.28,-0.087 z m -11.683,0.12 c 0.28,0.624 -0.502,1.09 -0.6,0.88 -0.167,-0.06 -0.374,-1.088 -0.278,-1.156 0.26,-0.008 0.772,0.076 0.878,0.276 z m 17.563,-0.1 c 0.42,0.033 0.88,0.232 0.963,0.707 0.01,0.314 -0.36,0.656 -0.775,0.674 -0.183,0.01 -0.884,-0.505 -0.753,-1.24 0.15,-0.26 0.32,-0.16 0.565,-0.14 z m -24.416,0.197 c 0.15,0.226 -0.128,0.9 -0.19,0.992 -0.034,0.046 -0.93,0.007 -0.91,-0.06 0.018,-0.066 -0.085,-0.574 0.133,-0.943 0.25,-0.158 0.79,-0.242 0.968,0.01 z m 16.288,2.176 c 0.116,0.003 0.264,0.05 0.438,0.16 2.508,1.632 5.734,2.36 8.057,1.194 0.52,-0.26 0.858,-0.247 0.857,0.004 0,0.277 -0.575,0.84 -1.647,1.162 -2.393,0.718 -6.344,-0.23 -7.71,-1.695 -0.4,-0.43 -0.343,-0.832 0.01,-0.824 z m -21.993,1.71 c -0.24,-0.007 -0.317,0.135 -0.27,0.424 0.16,0.973 6.866,4.82 9.67,5.34 2.303,0.427 4.09,0.236 5.5,-0.582 3.42,-1.987 2.542,-4.673 -0.805,-2.65 -2.248,1.36 -7.947,0.735 -11.336,-1.222 -1.507,-0.87 -2.36,-1.3 -2.76,-1.31 z m 30.217,1.407 c 0.848,-0.355 1.212,-0.48 1.398,-0.323 0.862,0.72 -0.55,1.845 -3.127,2.284 -2.06,0.34 -3.3,0.406 -5.65,-1.334 -1.822,-1.347 -0.964,-2 0.082,-1.388 2.78,1.626 4.85,1.677 7.297,0.762 z m -29.62,4.208 c 5.933,2.125 12.683,7.25 15.68,13.475 l -1.83,-0.015 c -2.038,-3.554 -6.068,-8.068 -12.714,-11.24 -0.59,-0.484 -0.895,-1.348 -1.136,-2.22 z m 31.162,2.914 0,1.945 c -3.666,1.848 -6.74,4.693 -9.058,8.616 l -2.076,-0.03 c 2.378,-4.21 5.94,-8.15 11.134,-10.53 z m 0,2.966 0,2.39 c -2.318,1.358 -4.253,3.15 -5.61,5.205 l -2.456,0 c 1.97,-3.327 4.67,-5.98 8.066,-7.595 z m -27.165,1.835 c 1.766,1.015 4.69,3.723 5.754,5.808 l -0.944,0.044 c -0.962,-1.224 -2.5,-2.632 -3.752,-3.742 -0.8,-0.94 -1.06,-2.11 -1.06,-2.11 z m 27.164,1.53 c 0.03,0 0.03,0.02 0,0.06 l 0,1.897 c 0,0.05 -1.76,1.2 -2.51,2.273 l -1.992,0 c 1.37,-2.477 4.217,-4.234 4.502,-4.23 z m 0.01,3.156 -0.01,1.073 -1.252,0.004 c 0.084,-0.12 0.78,-0.887 1.257,-1.078 z m -24.436,0.268 c 0.375,0.198 0.664,0.902 0.664,0.902 l -0.336,0.036 z"
         id="path13814" />
      <path
         style="fill:#e2cf00"
         inkscape:connector-curvature="0"
         d="m 2592.06,588.707 c 4.128,0.112 12.838,-1.43 12.698,-1.272 0,0 27.022,44.896 25.923,44.45 -0.35,0.558 -34.615,0.538 -34.615,0.538 -0.743,0.008 7.27,-16.636 -4.004,-43.716 z m 12.254,-31.63 c 13.167,-10.91 26.96,-10.99 41.77,-12.49 l 0.34,-37.078 5.36,3.207 0.113,33.972 c 19.55,1.464 36.417,8.624 50.908,21.156 0.18,0.272 -20.965,11.58 -30.226,14.57 -7.19,-5.277 -26.16,-8.604 -38.74,-4.547 -3.455,1.114 -7.698,2.897 -11.825,4.215 2.99,-17.898 -10.988,-20.54 -15.904,-21.367 -0.615,-0.104 -1.35,-1.43 -1.796,-1.64 z m -16.9,5.788 c 0.23,-3.814 -0.02,-7.63 -0.304,-11.53 -0.076,-0.89 -7.7,11.6 -8.126,8.57 -1.067,-7.584 2.7,-17.23 8.618,-18.41 0.59,-0.8 12.314,6.457 11.778,12.727 -0.175,2.042 -10.46,-6.9 -10.5,-6.366 -0.242,1.046 0.302,15.04 0.62,15.012 2.962,1.666 2.317,3.806 2.64,5.58 7.936,-1.17 7.502,7.63 0.013,7.356 0.463,10.4 -9.195,5.7 -7.292,0.162 -9.725,-0.46 -4.935,-9.543 -0.093,-7.547 -0.292,-2.293 0.275,-4.684 2.646,-5.555 z m 11.157,-44.118 c -0.56,-0.222 -20.747,-1.256 -20.747,-1.256 l 1.056,-49.155 c 10.306,-23.66 49.094,-12.596 42.923,-7.56 -18.535,12.14 -21.357,34.28 -23.232,57.972 z m 37.235,-20.193 -0.616,-5.458 c -1.585,-3.392 41.273,16.398 41.756,16.82 l 1.247,5.825 c 0.248,2.56 -27.26,-10.367 -42.388,-17.186 z m 77.96,-9.64 c -0.63,22.058 -4.033,36.995 -16.85,55.02 -0.356,0.592 -3.98,2.092 -4.26,2.602 1.832,2.896 12.29,7.144 17.12,9.428 l 25.13,-14.962 c 0.29,0.02 -0.86,-52.42 -0.86,-52.42 z m 9.51,-23.954 c -3.375,-0.515 -11.23,-8.66 -9.603,-11.123 0.05,-1.85 9.774,5.227 10.785,7.134 -0.498,-0.566 -0.568,-17.283 -0.725,-16.62 -0.37,0.198 -2.97,-1.664 -2.293,-5.148 -7.456,1.647 -7.047,-8.036 -0.53,-7.64 -0.843,-8.81 9.92,-5.575 7.057,0.325 9.212,-1.696 7.622,8.643 0.66,6.96 0.59,3.92 -1.026,5.005 -3.29,5.788 0.146,1.643 0.763,12.606 0.763,12.606 0,0 6.81,-10.432 7.3,-9.533 1.362,3.165 -1.122,19.898 -10.124,17.253 z m -31.56,-38.478 c -3.075,10.59 5.346,22.69 13.302,22.656 1.6,-0.25 4.664,0.612 3.607,1.47 -12.55,10.164 -41.84,12.275 -41.847,11.834 0.307,12.48 -0.252,25.083 -0.55,37.558 l -5.368,-3.23 c -0.173,-11.38 -0.454,-23.02 -0.715,-34.4 -18.765,-2.447 -35.63,-8.498 -48.96,-21.37 8.85,-6.556 19.423,-10.65 29.58,-14.79 12.785,6.64 30.588,10.476 50.95,0.272 z m -9.263,-50.316 c -0.588,-0.26 2.023,-2.198 2.023,-2.198 0,0 21.803,0.286 32.618,0.14 -3.94,16.17 -1.153,30.657 3.936,44.568 -1.35,-0.315 -10.306,0.41 -12.493,1.39 -0.35,0.35 -25.808,-43.505 -26.085,-43.9 z"
         id="path13816" />
      <path
         style="fill:#d40000"
         inkscape:connector-curvature="0"
         d="m 2745.79,644.275 c -0.35,-0.99 -0.354,-1.113 -0.433,-10.172 -0.08,-9.155 -0.042,-10.158 0.454,-12.057 0.95,-2.368 -1.82,-2.38 -3.576,-2.663 l 0,-3.746 c 2.058,-0.285 4.537,0.312 5.446,1.518 2.138,-1.48 3.522,-1.727 5,-1.668 4.97,0.02 7.155,3.09 7.02,9.015 -0.022,0.965 0.153,2.202 0.153,2.202 l 2.67,0 0,3.79 -2.81,0 c 0,0 0.458,9.39 -0.178,12.71 -1.932,7.395 -11.114,7.878 -13.744,1.07 z m 10.125,-1.333 c 0.476,-1.126 0.404,-0.656 0.423,-9.276 l -0.013,-3.94 c -3.94,-0.908 -7.423,-5.63 -7.4,-5.63 0,0 -0.05,-0.453 -0.084,8.492 -0.038,10.137 0.32,10.726 2.468,12.367 2.084,1.178 3.8,-0.16 4.607,-2.013 z m -5.503,-22.796 c 1.2,1.684 2.69,3.408 4.46,4.797 0.662,0.52 1.59,0.727 1.59,0.727 0,0 -0.048,-1.14 -0.052,-1.72 -0.025,-3.54 -2.574,-6.325 -5.998,-3.804 z m -119.022,11.677 -26.36,-44.496 3.955,-1.718 27.176,46.278 z m 68.874,-6.17 c -9.897,-1.56 -12.682,-14 -5.408,-25.702 3.442,-5.674 17.85,-26.797 17.003,-26.094 -0.452,-0.395 11.072,16.352 16.832,24.94 5.456,9.058 8.358,23.858 -5.047,26.576 -5.133,1.04 -10.47,-2.048 -10.708,-8.042 -0.033,-0.84 -0.38,-1.525 -0.87,-1.527 -0.41,0 -0.698,0.587 -0.7,1.168 -0.14,5.727 -5.277,9.634 -11.103,8.684 z m 46.4,-14.64 c -4.404,-1.47 -5.192,-6.752 -1.908,-12.795 2.69,-4.8 4.098,-6.036 6.576,-10.807 1.017,-1.97 1.13,-2.01 1.894,-0.664 1.844,3.046 3.86,6.363 5.507,8.94 4.317,6.726 5.076,11.42 2.305,14.252 -2.512,2.57 -7.833,1.076 -7.86,-2.206 0,-0.154 -0.075,-0.418 -0.165,-0.588 -0.203,-0.382 -0.605,-0.13 -0.61,0.383 -0.02,2.386 -3.214,4.327 -5.738,3.485 z m -162.18,-38.68 3.808,-3.917 3.818,3.868 -3.993,3.708 z m 84.575,-24.954 -0.537,-3.182 c 15.188,3.718 27.62,11.523 36.558,20.023 l -2.127,1.558 c 0.664,-0.18 -21.577,-16.856 -33.894,-18.4 z m -44.112,-3.135 4.815,-0.697 -0.137,2.674 -4.576,1.04 z m 88.9,-2.113 -2.624,-2.114 1.888,-2.238 2.55,2.008 z m -89.203,-21.56 c 6.52,-3.085 11.61,-15.534 10.97,-16.364 l 3.554,0.842 -8.208,34.106 -6.18,1.117 c -0.028,-6.524 -0.14,-13.178 -0.137,-19.7 z m 42.907,19.298 c -2.21,-7.18 -6.562,-23.42 -6.562,-23.42 0.16,0.53 14.142,4.505 19.13,3.057 2.13,2.914 4.47,5.476 6.94,7.823 -5.177,5.063 -11.606,9.292 -19.508,12.54 z m 58.612,-26.138 -2.463,-2.133 2.21,-2.706 2.706,2.06 z m -32.18,-1.426 c -2.007,-3.605 -2.147,-7.68 1.577,-11.7 z m -76.514,-6.988 c -0.16,-0.37 0.844,-8.915 1.08,-9.293 0.414,-0.665 1.226,1.73 1.61,3.563 0.48,2.295 -2.108,7.093 -2.69,5.73 z m 56.27,-2.653 c 0,0 5.416,-25.087 7.76,-34.917 l 6.608,-1.667 -0.892,20.6 c -5.43,4.853 -9.944,16.417 -9.944,16.417 z m -87.027,-4.172 -2.614,-2.44 2.21,-2.42 2.307,2.358 z m 46.834,-9.78 -7.182,-8.4 c 4.45,-6.187 11.835,-9.77 19.66,-12.58 l 5.3,23.573 c -5.99,-1.804 -12.448,-3.76 -17.778,-2.593 z m -36.707,-21.01 1.842,-2.29 2.412,1.898 -1.833,2.534 z m 86.468,-7.083 4.622,-0.66 -0.35,3.17 -4.892,0.78 z m -75.283,-17.824 2.845,-1.77 c 9.99,8.966 21.023,15.152 33.056,18.67 l 0.81,3.874 c -13.57,-4.183 -26.39,-10.52 -36.71,-20.774 z m 116.73,-3.578 -3.7,-3.647 3.332,-3.703 3.957,3.418 c -1.306,1.97 -3.588,3.933 -3.588,3.933 z m -124.17,-6.747 c -4.585,-7.078 -9.867,-14.597 -14.02,-20.79 -6.89,-10.304 -8.754,-17.29 -6.584,-23.61 3.557,-10.358 18.73,-9.813 19.836,0.713 0.225,2.15 1.24,1.967 1.52,-0.25 1.464,-11.702 19.263,-10.176 20.332,2.294 1.125,10.59 -6.196,18.81 -10.24,24.416 -3.587,5.71 -7.763,11.15 -10.843,17.228 z M 2556.73,415.7 c -3.003,-5.02 -11.213,-16.363 -3.343,-19.857 2.795,-1.24 6.366,0.974 6.357,3.338 0,1.068 0.587,1.13 0.725,0.02 0.577,-4.64 7.08,-4.973 9.162,-0.486 1.78,5.338 -1.432,10.207 -5.935,17.064 -1.033,1.574 -3.42,5.856 -3.42,5.856 z m 147.527,5.77 -27.693,-47.235 4,-0.033 27.252,45.5 z m -151.16,-41.237 -2.83,0 0,-3.792 2.83,0 c 0,0 0.022,-2.037 0.103,-5.64 0.172,-7.68 0.372,-8.873 2.63,-10.984 4.473,-4.177 11.962,-0.774 11.87,5.507 -0.128,8.86 -0.032,17.313 -0.297,18.51 -0.467,2.108 -0.513,2.23 -0.322,2.612 0.39,0.776 3.774,1.11 3.774,0.892 l 0,3.732 c -2.585,0.2 -3.657,-0.038 -5.724,-1.49 -1.29,1.226 -5.22,2.45 -8.34,1.008 -2.377,-1.097 -4.18,-3.935 -3.694,-10.353 z m 9.57,6.618 c -1.403,-1.995 -3.763,-4.71 -5.99,-5.672 -0.136,2.285 0.062,4.205 0.883,5.24 1.306,1.64 3.412,2.02 5.108,0.432 z m 1.164,-21.892 c -1.038,-2.9 -3.715,-3.88 -5.67,-2.072 -1.223,1.132 -1.418,2.316 -1.443,8.762 -0.016,3.975 -0.02,5.646 -0.02,5.646 3.81,1.21 7.366,5.566 7.332,5.51 l 0.094,-12.023 c 0.07,-1.948 -0.025,-3.902 -0.293,-5.824 z"
         id="path13818" />
      <path
         inkscape:connector-curvature="0"
         d="m 2676.31,373.438 -6.615,0.024 37.558,75.53 c 0,0 -1.018,0.17 -3.01,-0.352 -9.02,-2.366 -14.58,-11.895 -12.54,-21.242 0.207,-0.726 0.26,-1.348 0.26,-1.348 -23.254,10.523 -37.65,6.647 -51.076,-0.053 l -5.726,2.196 c 0.38,-3.458 4.66,-16.443 11.058,-22.557 l -0.01,-6.55 -0.154,-3.09 -0.505,-5.612 c -9.52,8.963 -20.63,23.07 -22.02,43.106 0,0 -8.667,4.452 -16.064,9.376 0.41,-0.055 11.523,13.59 38.222,21.252 l -1.175,-4.353 c 3.97,1.114 9.614,1.995 15.228,2.706 l 0.752,34.198 6.376,3.775 0.217,-37.86 c 0.195,0.155 10.17,-0.353 15.54,-1.634 l -0.756,3.65 5.306,-1.045 0,2.663 -5.818,1.372 -8.283,35.39 4.826,1.075 c 1.413,-7.128 4.98,-12.894 10.147,-16.43 l -0.052,-1.36 c 3.314,-2.377 10.203,-4.267 10.247,-4.223 2.35,-11.477 7.82,-19.43 13.634,-26.997 l -2.77,-3.76 10.62,-3.897 -14.742,-25.075 c 5.672,-3.914 16.918,-2.456 16.918,-2.456 -4.82,-13.012 -9.056,-26.434 -4.295,-46.13 l -41.002,0.033 z m 13.453,0.815 c -0.01,3.29 -4.31,2.952 -4.833,-0.016 z m 26.34,-0.103 c -2.608,15.082 -1.743,29.773 4.306,43.732 0,0 -0.882,0.05 -0.993,0.03 -0.083,-0.018 0.103,-0.754 0.058,-0.95 -0.12,-0.524 -0.99,-0.278 -1.72,0.212 -0.317,0.214 -0.683,0.458 -0.914,0.573 -0.748,0.374 -4.548,0.346 -4.548,0.346 1.24,-0.84 2.983,-3.202 1.97,-4.58 -0.228,-0.294 -0.367,-0.164 -0.59,0.232 -1.08,1.918 -1.615,2.22 -3.058,2.2 -2.263,-0.027 -3.882,-1.43 -3.698,-3.543 0.176,-2.055 3.2,-3.14 2.754,-1.146 -0.122,1.775 1.64,2.12 1.965,0.35 0.122,-0.66 0.025,-0.354 0.168,-1.13 3.524,-1.87 1.58,-5.676 -1.71,-4.88 -0.772,0.205 -0.87,0.277 -1.415,-0.004 -1.014,-0.522 -1.856,-0.358 -2.24,0.376 -0.337,0.646 0.177,1.162 0.93,1.165 0.78,0.003 0.932,0.38 0.93,0.848 0,1.09 -1.885,1.614 -3.13,0.98 -3.29,-1.68 -2.07,-6.04 1.748,-6.026 1.16,0.004 1.645,0.077 1.695,-0.173 0.14,-0.704 -1.633,-1.922 -2.634,-1.743 -0.848,0.166 -1.363,0.388 -0.915,-0.74 0.277,-1.165 0.27,-1.693 0.035,-2.568 -0.61,-1.25 -0.596,-0.61 -0.973,0.403 -1.257,2.086 -3.153,2.548 -4.786,1.407 -1.515,-1.06 -1.47,-3.07 -0.03,-4.503 1.002,-0.996 2.075,-0.318 1.474,0.795 -0.25,0.46 -0.052,1.032 0.395,1.146 0.904,0.23 1.465,-0.302 1.47,-1.397 -0.02,-0.602 -0.187,-0.737 0.9,-1.357 2.813,-1.606 0.708,-5.995 -2.466,-4.585 -0.698,0.31 -0.86,0.613 -1.176,0.468 -1.327,-1.254 -3.23,0.33 -2.105,1.17 0.486,0.237 1.08,0.327 1.237,0.342 0.274,0.156 0.183,0.546 -0.217,1.035 -1.314,1.55 -4.3,0.785 -5.003,-1.4 -0.816,-2.533 1.772,-5.194 3.756,-3.72 0.587,0.437 1.095,0.483 1.098,-0.163 0,-1.006 -1.263,-2.16 -2.88,-2.046 -1.64,0.115 -1.46,0.327 -0.567,-1.156 0.66,-1.32 0.57,-2.61 -0.01,-3.386 -0.443,-0.598 -0.9,-0.724 -0.852,-0.09 0.36,1.96 -1.934,3.827 -3.82,3.004 -1.81,-0.81 -2.71,-2.84 -1.82,-4.6 0.82,-1.623 2.812,-1.792 2.48,-0.057 -0.155,1.105 0.686,1.687 1.498,1.034 0.296,-0.237 0.365,-0.447 0.386,-1.16 0.022,-0.795 -0.3,-1.028 0.21,-1.493 1.345,-0.177 1.428,-3.03 1.225,-3.15 l 21.58,-0.1 z m -24.054,0.097 c 0.85,0 1.56,0.29 1.56,1.14 0,0.853 -0.69,1.542 -1.54,1.542 -0.854,0 -1.547,-0.69 -1.547,-1.542 0,-0.852 0.674,-1.14 1.526,-1.14 z m -15.123,0.11 3.43,0 27.09,45.147 -3.208,1.56 z m 5.633,1.578 c 1.642,0.94 3.157,1.71 5.216,1.91 -0.603,1.224 -1.152,2.56 -1.252,4.845 z m 5.518,9.092 c 1.67,0.6 3.122,1.506 5.876,0.59 -1.468,1.298 -2.3,2.852 -2.922,4.49 z m 14.094,5.454 c 0.79,0 1.43,0.64 1.43,1.43 0,0.79 -0.64,1.426 -1.43,1.426 -0.79,0 -1.43,-0.636 -1.43,-1.425 0,-0.79 0.64,-1.43 1.43,-1.43 z m -8.776,3.565 c 1.208,0.445 2.473,0.74 3.88,0.675 -0.696,0.956 -0.933,2.41 -0.977,4.072 z m 4.147,7.116 c 1.118,0.546 2.442,1.34 4.79,1.086 -1.555,2.638 -1.222,3.366 -1.38,4.52 z m 13.577,5.24 c 0.827,0 1.497,0.672 1.497,1.5 0,0.826 -0.67,1.497 -1.497,1.497 -0.827,0 -1.498,-0.67 -1.498,-1.498 0,-0.828 0.67,-1.5 1.498,-1.5 z m -8.415,3.365 c 1.024,0.578 3.046,0.91 3.07,0.752 -0.13,-0.098 -0.584,1.95 -0.662,3.236 z m 4.715,7.69 c 1.455,0.858 3.066,0.776 4.013,0.877 -1.012,0.203 -1.967,0.457 -3.054,0.883 z m 17.167,8.443 c -3.507,0.226 -4.32,2.914 -3.905,5.64 -2.673,-0.428 -5.666,2.106 -4.83,5.205 0.794,2.94 3.527,3.042 5.413,2.846 -0.144,0.713 -0.542,3.114 2.36,5.145 l 0.386,15.26 c 0,0 -1.278,-1.176 -2.113,-2.007 -3.644,-3.63 -9.127,-6.26 -8.784,-4.214 0.05,0.3 0.168,1.064 0.256,1.695 0.578,3.454 5.22,7.188 8.383,9.067 1.13,0.63 1.83,1.305 1.83,1.305 -5.918,6.327 -9.1,13.078 -9.892,19.778 -0.735,6.226 -1.33,11.833 -1.915,17.55 -2.415,28.672 -14.72,35.884 -15.305,37.287 l -0.23,3.824 -3.435,-0.254 -3.958,3.424 c 12.966,6.7 20.53,14.785 20.423,14.938 10.353,-6.78 19.29,-14.31 27.725,-22.104 l -0.164,-63.842 c 0,0 -0.7,0.256 -0.88,0.255 -0.64,-0.003 -0.722,0.286 -0.944,1.507 -0.12,0.654 -0.51,1.256 -0.814,1.686 -0.58,0.816 -0.373,0.403 0.356,0.698 1.66,0.672 -0.495,3.717 -2.855,4.09 -1.7,0.266 -2.65,0.58 -2.938,0.97 -3.578,3.13 -7.143,3.627 -9.84,2.477 -1.325,-0.566 -2.767,-1.394 -3.254,-2.774 -1.106,-3.133 1.2,-7.65 2.553,-10.257 2.48,-4.783 6.603,-8.374 6.603,-8.374 l -0.675,-0.733 c 0,0 0.81,0.012 0.965,-0.044 3.556,-1.293 3.776,-1.31 4.43,-2.254 0.654,-0.943 2.304,-3.632 2.644,-4.518 1.827,-4.754 2.073,-5.063 2.07,-8.182 0,-2.526 -0.172,-4.215 -0.66,-4.348 -2.802,2.148 -5.632,7.165 -7.286,10.122 -0.572,-4.38 -0.742,-12.03 -0.742,-12.03 0.593,-0.654 3.958,-0.288 3.212,-5.773 2.962,1.337 6.083,-0.707 5.952,-3.56 -0.203,-4.44 -3.625,-4.31 -6.41,-3.75 1.327,-2.682 -1.195,-5.916 -3.73,-5.752 z m -0.055,0.373 c 3.66,0.114 4.386,4.16 2.143,6.448 0,0 -1.453,-1.12 -2.224,-1.755 -0.73,0.575 -0.942,1.073 -1.747,1.665 -0.953,-0.705 -1.528,-1.95 -1.537,-3.15 0.044,-1.877 1.937,-3.25 3.366,-3.207 z m -83.61,0.126 c 14.808,8.277 33.378,8.868 50.376,0.434 l -0.207,1.4 -1.863,1.05 1.055,1.932 0.583,-0.28 0.014,1.277 c -14.013,7.568 -37.484,9.134 -55.86,-3.435 l 1.6,-0.74 c 0,0 0.36,0.25 0.708,0.466 0.67,0.415 1.775,1.08 2.504,1.407 l 1.113,-1.604 c 0,0 -1.7,-1.035 -1.532,-1.102 l 1.508,-0.804 z m 1.304,2.538 -0.848,1.927 2.124,1.132 0.81,-1.94 z m -8.057,0.217 c 22.805,14.316 44.033,10.054 56.78,4.2 l 0.165,1.527 c -16.454,7 -38.09,8.88 -58.685,-4.965 z m 53.68,0.92 -2.027,0.81 0.804,1.86 2.085,-0.892 z m -56.407,0.347 c 18.533,11.95 38.41,14.29 59.83,5.534 l 0.82,2.288 c -20.863,8.378 -42.88,7.413 -62.995,-6.828 z m 14.24,0.068 -0.828,2.003 2.297,0.872 0.67,-1.965 z m 38.974,0.828 -2.008,0.65 0.625,1.917 2.08,-0.708 z m -35.463,0.55 -0.496,2.012 2.345,0.66 0.41,-2.023 z m 84.874,3.313 c 0.316,3.424 -4.76,5.076 -6.66,1.88 l 1.674,-2.032 -1.497,-1.396 c 2.032,-3.213 6.187,-1.667 6.483,1.548 z m -105.48,-3.203 5.528,3.8 -4.016,6.24 -5.953,-3.996 z m 95.818,0.173 3.51,3.044 -3.22,3.77 -3.295,-3.322 z m -2.182,1.033 -1.974,2.293 2.136,2.272 c -2.533,2.693 -6.314,1.03 -6.277,-2.266 0.028,-2.517 3.88,-4.966 6.114,-2.3 z m -40.928,-0.884 -2.11,0.63 0.482,1.85 2.182,-0.57 z m -28.452,0.582 -0.39,1.99 2.423,0.52 0.41,-1.98 z m 24.97,0.337 -2.244,0.487 0.385,1.98 2.25,-0.473 z m 46.828,0.468 -1.85,1.815 1.85,1.917 1.864,-1.917 z m -67.91,0.057 -0.286,2.004 2.538,0.342 0.198,-2.028 z m 17.09,0.275 -2.283,0.26 0.23,1.965 2.37,-0.3 z m -13.475,0.23 -0.03,2.057 2.226,0.18 0,-2.04 z m 9.815,0.194 -2.235,0.08 0.015,1.99 2.282,-0.145 -0.062,-1.926 z m -40.77,0.018 c -1.315,0 -2.38,1.064 -2.38,2.38 0,1.314 1.065,2.378 2.38,2.378 1.314,0 2.38,-1.064 2.38,-2.38 0,-1.314 -1.066,-2.378 -2.38,-2.378 z m 37.023,0.067 -2.196,0.02 0.01,2.013 2.262,0.01 -0.077,-2.043 z m 58.227,0.01 0.963,0.963 -0.963,0.95 -0.987,-0.95 z m -95.255,0.76 c 0.862,0 1.56,0.7 1.56,1.56 0,0.864 -0.698,1.566 -1.56,1.566 -0.863,0 -1.565,-0.7 -1.565,-1.564 0,-0.862 0.702,-1.56 1.565,-1.56 z m -8.46,0.116 3.162,2.578 c -1.007,1.927 -4.195,5.995 -4.195,5.995 l -5.846,-4.685 3.057,-1.73 c -0.167,0.322 -0.26,0.683 -0.26,1.07 0,1.292 1.048,2.336 2.34,2.336 1.292,0 2.34,-1.044 2.34,-2.336 0,-1.24 -0.967,-2.25 -2.186,-2.33 z m -1.77,1.658 c 0.868,0 1.57,0.704 1.57,1.57 0,0.866 -0.702,1.565 -1.57,1.565 -0.865,0 -1.57,-0.7 -1.57,-1.565 0,-0.866 0.705,-1.57 1.57,-1.57 z m 107.538,0.74 c 0,0 0.862,0.328 1.073,0.652 1.697,2.605 -0.07,5.702 -2.915,5.64 -3.323,-0.07 -4.198,-4.235 -1.912,-5.934 l 1.858,1.754 z m -86.38,1.06 6.548,2.515 -2.485,7.118 -7.16,-2.937 z m -26.92,0.743 c 26.718,24.075 64.678,25.806 92.268,9.825 l 1.68,-0.034 0.892,0.916 c -31.432,18.588 -70.505,14.543 -96.883,-9.38 z m 73.574,1.436 2.108,7.036 -7.243,1.907 -1.618,-7.13 z m -76.316,0.255 c 8.11,7.816 19.575,14.663 33.04,18.547 l 0.333,2.884 c -14.295,-4.29 -25.09,-10.024 -35.608,-19.975 z m 31.393,0.112 c -1.29,0 -2.34,1.048 -2.34,2.34 0,1.292 1.05,2.336 2.34,2.336 1.292,0 2.34,-1.044 2.34,-2.336 0,-1.292 -1.048,-2.34 -2.34,-2.34 z m -11.65,0.525 6.758,3.573 -3.367,6.737 -7.175,-3.848 z m 11.622,0.245 c 0.865,0 1.568,0.704 1.568,1.57 0,0.867 -0.703,1.565 -1.57,1.565 -0.866,0 -1.57,-0.698 -1.57,-1.565 0,-0.866 0.704,-1.57 1.57,-1.57 z m 11.185,0.96 6.492,0.943 -0.298,7.194 -7.577,-0.91 c 0.29,-2.533 1.382,-7.23 1.382,-7.23 z m 31.356,0.177 c -1.29,0 -2.34,1.047 -2.34,2.34 0,1.29 1.05,2.335 2.34,2.335 1.293,0 2.34,-1.044 2.34,-2.336 0,-1.293 -1.047,-2.34 -2.34,-2.34 z m -0.028,0.77 c 0.866,0 1.57,0.703 1.57,1.57 0,0.866 -0.704,1.564 -1.57,1.564 -0.866,0 -1.57,-0.698 -1.57,-1.565 0,-0.867 0.704,-1.57 1.57,-1.57 z m -52.78,0.1 c -1.293,0 -2.34,1.05 -2.34,2.34 0,1.293 1.047,2.337 2.34,2.337 1.29,0 2.34,-1.044 2.34,-2.336 0,-1.29 -1.05,-2.34 -2.34,-2.34 z m 41.5,0.01 0.93,7.23 -7.088,0.35 -0.42,-7.21 z m 50.808,0.645 1.006,0 c 0.093,6.22 0.585,13.423 1.305,18.748 0.11,0.793 0.16,1.028 0.078,1.17 -0.696,1.233 -1.505,-0.318 -1.82,-3.857 -0.087,-0.975 -0.198,-2.395 -0.318,-3.328 -0.364,-2.82 -0.25,-12.733 -0.25,-12.733 z m -119.81,0.11 c -10.66,6.65 -28.39,22.535 -28.284,22.905 l 0.072,61.035 1.387,0.067 1.146,-2.244 c -1.772,-0.444 -1.276,-3.776 2.12,-4.445 0.58,-0.114 2.35,-0.71 2.783,-1.04 2.578,-1.965 6.766,-3.125 9.704,-2.35 4.285,1.095 5.163,4.245 3.102,9.723 -1.627,4.318 -4.847,9.838 -7.87,11.413 -0.247,0.128 -0.78,0.39 -0.78,0.39 0,0 0.702,0.638 0.958,0.803 8.33,-4.813 12.534,-22.077 12.31,-32.82 0.334,-11.002 2.232,-22.043 6.673,-30.073 7.342,-13.272 17.05,-18.608 17,-18.656 0,0 -13.087,-7.946 -20.32,-14.708 z m 27.472,0.006 c 0.867,0 1.57,0.705 1.57,1.57 0,0.867 -0.703,1.566 -1.57,1.566 -0.866,0 -1.57,-0.7 -1.57,-1.565 0,-0.865 0.704,-1.57 1.57,-1.57 z m 64.748,0.25 2.528,6.72 -7.026,2.874 -2.533,-7.06 z m -40.414,0.035 c -1.29,0 -2.34,1.05 -2.34,2.34 0,1.292 1.05,2.336 2.34,2.336 1.293,0 2.34,-1.043 2.34,-2.334 0,-1.292 -1.047,-2.34 -2.34,-2.34 z m 14.284,0.583 c -1.292,0 -2.34,1.048 -2.34,2.34 0,1.292 1.048,2.336 2.34,2.336 1.292,0 2.34,-1.044 2.34,-2.336 0,-1.292 -1.048,-2.34 -2.34,-2.34 z m -14.312,0.188 c 0.866,0 1.57,0.703 1.57,1.57 0,0.866 -0.704,1.565 -1.57,1.565 -0.867,0 -1.57,-0.698 -1.57,-1.564 0,-0.867 0.703,-1.57 1.57,-1.57 z m 14.283,0.582 c 0.868,0 1.57,0.704 1.57,1.57 0,0.867 -0.702,1.565 -1.57,1.565 -0.865,0 -1.57,-0.698 -1.57,-1.565 0,-0.866 0.705,-1.57 1.57,-1.57 z m 23.897,0.8 c -1.292,0 -2.34,1.048 -2.34,2.34 0,1.292 1.048,2.336 2.34,2.336 1.292,0 2.34,-1.044 2.34,-2.336 0,-1.292 -1.048,-2.34 -2.34,-2.34 z m -0.03,0.77 c 0.867,0 1.57,0.704 1.57,1.57 0,0.867 -0.703,1.565 -1.57,1.565 -0.865,0 -1.57,-0.698 -1.57,-1.565 0,-0.866 0.705,-1.57 1.57,-1.57 z m -49.625,0.12 7.02,1.797 -1.632,7.363 -7.92,-2.104 z m 88.822,-0.19 c 1.15,3.598 -0.96,8.21 -1.065,8.512 -1.277,3.62 -2.813,6.575 -3.372,6.747 -0.475,0.18 -0.686,0.065 -0.684,-0.38 0,-0.683 1.57,-5.317 2.803,-8.298 0.302,-0.73 1,-2.938 1.002,-3.308 0,-0.558 -0.54,0.35 -1.124,1.742 -1.13,2.783 -2.778,5.763 -3.135,8.46 -0.255,2.206 -0.674,1.895 -0.98,-0.73 -0.427,-3.645 0.37,-5.52 4.468,-10.595 0.98,-1.216 1.987,-2.463 2.086,-2.15 z m -51.582,1.87 2.032,7.21 -8.288,1.416 -1.29,-7.31 z m -34.703,0.73 c -1.293,0 -2.34,1.047 -2.34,2.34 0,1.29 1.048,2.335 2.34,2.335 1.29,0 2.34,-1.044 2.34,-2.336 0,-1.292 -1.05,-2.34 -2.34,-2.34 z m 12.39,0.466 7.508,0.428 0.068,7.494 -8.15,-0.352 z m -12.42,0.303 c 0.867,0 1.57,0.704 1.57,1.57 0,0.866 -0.703,1.565 -1.57,1.565 -0.866,0 -1.57,-0.7 -1.57,-1.565 0,-0.866 0.704,-1.57 1.57,-1.57 z m 31.51,0.665 c -1.292,0 -2.34,1.048 -2.34,2.34 0,1.292 1.048,2.336 2.34,2.336 1.292,0 2.34,-1.044 2.34,-2.336 0,-1.292 -1.048,-2.34 -2.34,-2.34 z m -15.564,0.602 c -1.292,0 -2.34,1.048 -2.34,2.34 0,1.292 1.048,2.336 2.34,2.336 1.29,0 2.34,-1.044 2.34,-2.336 0,-1.292 -1.05,-2.34 -2.34,-2.34 z m 15.535,0.168 c 0.868,0 1.57,0.704 1.57,1.57 0,0.866 -0.702,1.565 -1.57,1.565 -0.865,0 -1.57,-0.7 -1.57,-1.565 0,-0.866 0.705,-1.57 1.57,-1.57 z m -15.563,0.602 c 0.866,0 1.57,0.704 1.57,1.57 0,0.866 -0.704,1.565 -1.57,1.565 -0.867,0 -1.57,-0.7 -1.57,-1.566 0,-0.866 0.703,-1.57 1.57,-1.57 z m 51.196,0.448 c 0.123,-0.003 0.286,0.02 0.395,0.02 1.676,-0.02 7.33,4.04 8.78,6.5 1.2,2.172 0.578,3.034 -0.805,1.094 -1.91,-2.126 -5.436,-5.28 -5.885,-5.283 -0.482,-0.002 0.182,0.686 2.427,2.875 2.227,2.17 4.577,5 4.575,5.504 0,0.333 -0.443,0.29 -1.08,-0.1 -1.388,-0.857 -2.594,-1.722 -3.21,-2.303 -0.373,-0.35 -1.082,-0.995 -1.585,-1.436 -2.077,-1.82 -4.444,-6.018 -3.776,-6.824 0.03,-0.036 0.09,-0.046 0.163,-0.048 z m -104.752,0.597 c 1.447,-0.043 3.08,0.877 3.145,2.56 0.047,1.19 0.128,1.282 1.204,1.3 1.026,0.02 3.992,0.372 3.992,0.372 l 0.02,3.333 c 0,0 -1.433,-0.01 -3.083,-0.087 -2.81,-0.133 -2.798,-0.137 -3.156,1.098 -0.144,0.5 -0.345,0.745 -0.905,1.112 -2.524,1.658 -4.957,-1.35 -3.39,-4.19 0.536,-0.974 0.568,-1.307 0.196,-1.892 -0.755,-1.695 0.25,-3.522 1.975,-3.607 z m 0.617,1.704 c -0.31,0 -0.65,0.134 -0.963,0.443 -0.416,0.412 -0.42,1.59 0,2.273 0.395,0.655 0.385,0.83 -0.078,1.262 -0.815,0.76 -0.838,2.267 -0.043,2.834 0.724,0.517 1.492,-0.166 1.497,-1.21 0,-1.147 0.806,-1.126 0.806,-1.126 l 5.28,0.092 0.016,-0.86 -3.83,-0.192 c -0.534,-0.003 -1.09,-0.053 -1.502,-0.33 -0.436,-0.303 -0.933,-0.826 -0.458,-1.462 0.664,-0.89 0.072,-1.73 -0.723,-1.724 z m -11.442,1.97 2.504,4.257 2.917,0.107 0.256,2.59 3.547,2.285 -3.634,2.126 -0.18,2.607 -2.753,0.346 -2.557,3.203 -2.45,-3.197 -2.703,0.014 -0.038,-2.673 -3.718,-2.393 4.07,-2.288 -0.044,-3.053 2.885,-0.192 1.897,-3.736 z m 88.456,1.936 0.12,2.57 -4.097,0.728 0.534,-2.62 z m -26.265,2.59 5.524,0.17 -0.32,36.093 -1.294,-0.01 -0.024,-1.406 -1.768,0.058 -1.796,-1.088 z m -62.19,0.915 -3.24,4.103 3.924,3.43 3.456,-4.012 z m 63.847,0.55 0,1.66 2.316,0 0,-1.66 z m -63.775,1.42 2.283,1.67 -1.74,2.298 -2.2,-1.907 z m 88.5,0.944 -0.073,19.753 c -7.59,5.956 -9.954,16.44 -9.954,16.44 l -3.087,-0.182 7.845,-34.798 z m -41.142,0.437 c -6.83,3.25 -13.712,5.71 -20.486,13.46 2.622,2.36 5.394,4.767 7.858,8.79 5.64,-0.84 11.914,0.168 18.758,2.86 z m 16.417,0.443 0,1.72 2.316,0 0,-1.72 z m -76.768,2.48 c 0.17,0.526 0.222,1.09 0.222,1.09 5.008,-0.42 3.73,5.39 0.54,5.59 -0.375,0.048 0.31,1.03 1.054,1.343 1.897,0.797 3.26,0.285 4.503,-1.372 0.953,-1.27 1.01,-1.453 1.01,-1.453 l 3.093,1.637 c 0,0 0.088,-0.045 -0.458,1.372 -0.994,2.58 0.456,5.745 1.575,3.44 0.596,-1.23 2.35,-1.93 3.563,-1.422 1.42,0.594 1.91,3.128 0.915,4.724 -0.3,0.483 -0.31,0.584 -0.124,1.03 0.28,0.674 0.45,2.404 0.16,2.963 -0.38,0.725 -0.815,0.89 -1.667,0.3 -1.168,-0.81 -1.82,-1.146 -3.85,-1.71 -3.562,-0.67 -4.26,-1.925 -5.677,-4.855 -4.22,1.264 -10.535,-1.382 -9.694,-7.647 0.382,-1.383 0.487,-4.037 -0.217,-4.58 -1.382,-1.064 0.134,-2.6 2.21,-2.846 1.706,-0.17 2.527,1.447 2.84,2.398 z m 59.706,-1.815 5.49,22.99 c -6.026,-2.207 -11.94,-3.93 -17.173,-2.648 -2.397,-3.825 -4.44,-5.707 -7.1,-8.192 5.18,-6.245 11.767,-9.74 18.783,-12.15 z m -62.114,1.127 c -0.355,-0.004 -0.756,0.15 -1.175,0.52 0,0 0.372,0.31 0.574,0.732 0.323,0.673 0.327,0.673 -0.038,2.167 -1.674,5.99 2.297,9.952 7.946,8.22 1.387,-0.428 1.333,-0.38 1.734,1.25 0.658,2.68 2.554,4.065 6.323,4.574 0.23,0.03 0.617,0.107 0.923,0.293 1.658,1.058 0.978,-0.35 0.525,-0.895 -0.323,-0.428 -0.915,-0.853 -0.915,-0.853 0,0 0.506,-0.328 0.742,-0.453 1.064,-0.564 1.46,-2.772 0.583,-3.246 -0.8,-0.432 -2.164,0.22 -2.168,1.04 -0.01,1.5 -1.896,1.658 -3.55,0.413 -2.123,-1.598 -0.242,-5.626 -0.23,-5.62 l -1.197,-0.527 c 0.16,0.14 -2.52,3.948 -5.817,2.62 -2.303,-0.926 -3.926,-3.593 -2.858,-4.354 0.778,-0.21 1.71,0.22 2.302,-0.236 1.177,-0.924 0.227,-2.544 -1.455,-2.485 -0.353,0.013 -1.155,0.17 -1.155,0.17 0.088,-0.755 0.28,-1.286 0.187,-2.014 -0.098,-0.728 -0.603,-1.307 -1.28,-1.314 z m 79.2,1.748 0,1.416 2.292,0.014 0,-1.416 z m -0.024,2.918 0,1.46 2.316,0 0,-1.46 z m 0,3.145 0,1.493 2.316,0 0,-1.493 z m 0,2.933 0,1.58 2.316,0 0,-1.58 z m 0,2.942 0,1.474 2.316,0 0,-1.474 z m 0,3 0,1.488 2.316,0 0,-1.488 z m -75.31,1.455 1.952,3.294 2.316,0.1 0.092,2.264 3.94,3.01 -3.444,2.462 -0.25,2.44 -2.73,0.088 -2.212,3.727 -2.72,-3.27 -2.187,-0.35 -0.25,-2.977 -3.368,-2.52 3.164,-2.527 0.256,-2.644 2.576,0.225 z m 128.182,1.574 c 0.21,0.005 0.44,0.063 0.69,0.188 0.817,0.413 1.075,0.46 3.2,0.568 2.467,0.125 3.34,0.345 4.562,1.16 0.737,0.493 0.78,0.49 1.57,-0.033 3.462,-2.294 7.417,-0.208 7.705,4.065 0.077,1.123 0.19,1.576 0.632,2.518 0.302,0.654 0.615,1.168 0.433,1.585 -0.555,1.272 -3.223,1.354 -4.676,-0.535 -0.26,-0.285 -0.525,-0.408 -0.887,-0.41 -0.722,0.27 -2.568,-1.184 -2.547,-1.246 -0.172,1.01 -0.258,1.815 -0.44,3.284 l -3.23,-0.047 c 0,0 -0.072,-0.592 -0.222,-2.658 -0.172,-2.376 -0.762,-3.07 -1.52,-1.787 -1.308,2.21 -4.78,1.238 -4.98,-1.392 -0.07,-0.89 -0.12,-1.007 -0.608,-1.382 -1.635,-1.257 -1.158,-3.906 0.318,-3.877 z m -52.872,0.13 0,1.32 2.316,0 0,-1.32 z m 53.243,1.41 c -0.642,0.047 -0.276,1.186 0.785,1.788 0.602,0.342 0.604,0.34 0.525,1.387 -0.143,1.898 1.686,2.828 2.5,1.27 0.14,-0.268 0.2,-0.61 0.144,-0.84 -0.342,-1.38 2.642,-1.005 3.36,0.422 0.165,0.328 0.35,1.2 0.438,2.08 0.085,0.835 0.106,1.802 0.106,1.802 l 0.954,0 c 0,0 -0.012,-0.576 0.043,-1.127 0.238,-2.36 1.28,-3.85 2.688,-3.844 0.6,0.002 0.623,0.11 0.203,0.886 -0.71,1.314 -0.025,2.267 1.633,2.278 1.052,0.007 1.048,0.01 1.44,0.756 0.43,0.82 0.755,1.08 1.156,0.93 0.282,-0.108 0.287,0.05 -0.083,-2.75 -0.55,-4.174 -2.98,-5.298 -6.333,-2.933 -0.95,0.67 -1.156,0.65 -1.998,-0.164 -1.262,-1.22 -2.06,-1.498 -4.527,-1.59 -1.176,-0.044 -2.334,-0.16 -2.573,-0.255 -0.19,-0.077 -0.343,-0.105 -0.462,-0.097 z m -79.58,1.196 c -0.55,0.01 -1.185,0.124 -1.737,0.17 0.613,3.227 0.898,6.452 1.178,9.678 2.824,-0.49 6.482,-0.032 11.308,2.216 2.96,1.38 6.577,3.74 10.368,6.4 4.103,2.882 8.914,4.583 13.01,5.472 4.99,1.083 8.997,0.99 8.887,0.755 -0.22,0.037 -1.8,-7.912 -1.592,-9.61 -6.902,-0.635 -13.565,-3.19 -18.66,-6.653 -6.742,-4.583 -14.536,-8.568 -22.763,-8.427 z m 26.337,0.27 0,1.338 2.316,0 0,-1.338 z m -76.012,0.264 -3.664,3.82 3.987,3.775 3.385,-3.848 z m -0.1,1.734 2.075,1.99 -1.676,2.124 -2.337,-2.013 z m 51.672,0.314 c 0.49,0.004 0.966,0.347 2.58,1.252 1.356,0.935 2.438,1.518 2.043,0.053 0.31,-0.423 1.81,0.95 3.578,1.815 2.133,1.708 2.14,1.296 2.418,0.447 0.287,-0.62 0.68,-0.2 2.385,1.378 2.238,2.073 2.037,2.076 2.485,1.56 0.51,-0.968 0.68,-0.958 2.504,1.137 1.896,2.115 2.297,2.566 2.7,1.66 0.625,-0.468 0.948,-0.013 3.522,2.404 1.265,1.263 1.563,1.067 1.8,0.218 0.246,-0.876 0.315,-0.678 2.452,1.016 2.474,1.98 2.72,2.126 2.822,1.44 0.164,-1.09 0.93,-0.703 3.477,1.127 1.544,1.104 2.127,1.41 2.456,1.137 0.336,-0.594 -0.837,-1.737 1.652,-0.66 l 0.684,3.612 -0.863,-0.246 c -0.53,-0.15 -1.69,-0.544 -1.252,0.582 0.252,0.65 -0.374,0.573 -2.307,-0.578 -2.77,-1.65 -3.28,-2.027 -3.487,-1.69 -0.364,1.235 -0.318,1.314 -2.185,-0.15 -2.173,-1.647 -2.61,-2.102 -2.914,-1.54 -0.038,1.244 -0.645,0.99 -2.67,-0.756 -1.715,-1.5 -2.08,-2.28 -2.847,-1.135 -0.21,0.398 -0.422,0.298 -0.706,0.09 -0.996,-0.736 -3,-2.85 -3.566,-3.458 -0.444,-0.486 -0.698,-0.33 -1.063,0.07 -0.342,0.376 -0.368,0.26 -1.474,-0.755 -2.64,-2.422 -3.132,-3.028 -3.5,-2.697 -0.302,0.568 -0.014,1.34 -2.043,-0.26 -2.544,-1.832 -3.65,-2.646 -3.477,-1.444 -0.436,0.537 -0.13,0.643 -2.677,-0.766 -2.42,-1.34 -2.728,-1.74 -3.078,-1.28 -0.237,0.726 -1.05,0.465 -1.05,0.423 l -0.49,-3.674 0.87,0.01 c 0,0 0.84,-0.342 1.224,-0.342 z m -19.422,0.308 c -0.194,0.568 -1.53,3.846 -1.546,12.19 0.16,0.196 3.31,-3.014 3.463,-6.006 0.145,-2.836 -1.91,-6.192 -1.917,-6.184 z m 43.857,0.23 0,1.523 2.317,0 0,-1.522 z m -43.69,1.208 c 2.943,4.667 -0.302,9.07 -1.11,9.38 0,-3.508 0.516,-6.806 1.11,-9.38 z m 77.27,3.92 c -4.84,3.05 -4.054,11.305 -1.68,13.42 0.176,0 1.7,-8.916 1.68,-13.42 z m -0.662,1.016 -1.303,10.624 c -1.692,-1.874 -1.992,-7.46 1.303,-10.624 z m 30.525,1.794 2.557,3.217 2.273,0.168 0.506,2.32 3.318,2.703 -3.323,2.254 -0.293,2.57 -2.47,0.252 -2.447,3.848 -2.393,-3.77 -2.292,-0.247 -0.073,-2.475 -3.602,-2.658 3.44,-2.066 0.066,-2.798 2.692,0.01 z m -90.56,1.006 c -1.625,7.725 -5.506,13.012 -10.98,16.566 l 0.03,0.78 -9.223,3.7 c -2.02,9.423 -5.653,18.617 -13.268,27.242 l 2.123,4.315 -10.3,3.538 14.745,25.288 c 1.015,0 -7.145,3.862 -16.995,2.855 6.234,15.264 7.52,31.066 4.07,44.903 l 48.268,-0.202 -36.888,-72.384 -0.602,-1.18 c -0.512,-0.946 19.61,2.83 15.338,21.492 -0.06,0.432 0.09,0.487 0.333,0.31 3.912,-3.362 29.892,-12.68 50.638,-0.377 l 6.164,-2.55 c -2.933,10.268 -6.268,17.332 -11.89,23.524 l 0.954,14.615 c 9.947,-8.147 20.74,-23.102 22.19,-42.976 4.48,-2.183 8.376,-4.662 12.55,-6.998 l 0.554,0.18 2.702,-1.624 c -8.665,-9.48 -26.356,-18.54 -37.693,-20.92 l 0.668,3.212 c -6.255,-1.68 -10.933,-2.045 -15.8,-2.567 l -0.746,-34.008 -6.3,-3.714 -0.197,37.514 c -4.71,0.06 -15.54,1.917 -15.54,1.917 l 0.486,-3.207 -4.96,1.02 -0.086,-3.125 5.606,-1.608 8.13,-34.462 z m 0.68,0.766 2.59,0.525 -8.047,33.787 c 0,0 -4.514,1.247 -4.792,1.074 -0.358,-6.336 -0.495,-19.25 -0.495,-19.25 7.942,-6.62 9.186,-11.306 10.744,-16.136 z m -55.233,2.48 c 1.213,-0.015 2.518,0.867 2.6,1.66 0.208,0.49 0.382,0.703 0.708,0.748 2.03,0.28 2.095,0.818 2.153,1.99 -0.286,2.243 1.216,0.36 1.642,-1.87 0.045,-0.232 0.02,-1.936 0.02,-1.936 l 2.484,-0.024 c 0,0 0.085,1.78 0.12,2.06 0.22,1.725 0.955,3.123 1.465,2.207 1.747,-3.14 5.75,-1.54 5.118,1.488 -0.156,0.716 -0.146,0.76 0.342,1.305 0.795,0.887 1.09,1.826 0.828,2.644 -0.256,0.798 -0.815,0.92 -2.018,0.438 -0.565,-0.226 -1.25,-0.307 -3.082,-0.36 -2.59,-0.077 -2.752,-0.126 -3.76,-1.104 l -0.636,-0.616 -1.098,0.645 c -1.83,1.074 -3.49,1.116 -5.423,0.125 -1.257,-0.644 -1.99,-2.19 -2.185,-4.6 -0.038,-1.28 -0.397,-2.206 -1.19,-2.513 -0.428,-0.404 0.05,-1.205 0.78,-1.937 0.336,-0.24 0.728,-0.346 1.132,-0.35 z m 144.9,0.366 -3.413,4.257 4.06,3.63 3.78,-4.444 z m -79.088,0.612 4.728,2.706 0.607,33.527 -5.346,-0.15 0.01,-36.083 z m -65.683,0.467 c -0.36,0.035 -0.134,0.612 0.13,1.493 0.237,0.788 0.296,1.277 0.222,1.825 -0.503,3.674 3.71,5.542 6.75,2.995 0.81,-0.926 0.94,-0.866 1.618,0.125 0.835,1.046 2.05,1.386 4.595,1.233 1.162,-0.07 1.932,0.55 2.436,0.14 0.364,-0.265 0.01,-0.965 -0.694,-1.373 -0.43,-0.25 -0.447,-0.288 -0.36,-1.15 0.215,-2.175 -1.58,-2.75 -2.852,-0.916 -1.052,1.515 -2.638,0.514 -3.15,-1.99 -0.304,-1.926 -0.546,-1.895 -0.775,-0.216 -0.25,2.042 -2.94,4.256 -4.013,3.25 -0.293,-0.296 -0.29,-0.222 0.01,-1.247 0.388,-1.316 0.077,-1.806 -1.358,-2.148 -0.236,-0.057 -0.507,-0.253 -0.598,-0.434 -0.76,-1.177 -0.727,-1.59 -1.965,-1.59 z m 145.113,0.78 2.167,1.868 -1.888,2.23 -2.307,-1.772 z m -77.948,1.194 0,1.587 2.023,0 0,-1.586 z m 0,3.194 0,1.666 2.023,0 0,-1.666 z m 12.184,1.917 c 2.267,8.42 4.552,16.83 6.83,25.245 2.156,-0.862 14.61,-6.39 20.485,-13.465 -0.222,0.018 -5.34,-4.985 -7.13,-8.23 -5.876,0.968 -12.624,-0.264 -20.184,-3.55 z m -12.184,1.002 0,1.556 2.023,0 0,-1.556 z m 13.46,0.424 c 5.354,1.597 12.212,3.8 18.526,2.678 1.63,2.926 3.986,5.334 6.646,7.556 -4.78,5.198 -11.69,9.164 -18.84,12.217 z m 50.816,0.607 c 0.27,0 0.542,0.104 0.804,0.337 0.847,0.753 1.5,1.013 3.232,1.295 2.788,0.455 4.915,2.196 5.518,4.518 0.254,0.975 0.394,1.028 1.782,0.68 5.262,-1.325 9.32,3.037 8.067,8.86 -0.437,2.033 -0.57,2.276 0.04,3.082 1.337,1.44 1.627,1.46 0.163,2.73 -1.333,1.198 -3.98,0.62 -4.54,-1.324 -0.538,-1.064 -0.53,-1.144 -1.412,-1.285 -3.433,-0.547 -3.29,-5.297 -0.057,-5.846 0.27,-0.047 0.47,0.008 0.607,-0.054 0.918,-0.415 -1,-2.587 -2.586,-2.254 -1.945,0.41 -2.914,1.656 -3.68,3.612 l -3.062,-1.748 c 0.768,-1.59 1.332,-3.636 0.664,-4.903 -0.54,-1.068 -1.22,-1.108 -1.43,-0.086 -0.49,2.404 -3.48,3.122 -5.442,1.165 -1.096,-1.094 -1.225,-2.268 -0.42,-3.853 0.523,-1.026 0.536,-1.1 0.314,-1.532 -0.77,-1.506 0.273,-3.402 1.44,-3.395 z m -64.276,1.955 0,1.623 2.028,-0.01 -0.01,-1.612 -2.023,0 z m 64.652,0.135 c -0.623,0.004 -0.62,0.61 -0.044,1.348 0.512,0.52 0.61,0.758 -0.096,1.205 -0.886,0.822 -1.08,2.058 -0.467,3 0.92,1.415 3.04,0.627 2.798,-1.04 -0.17,-1.17 0.748,-1.692 2.21,-1.252 2.126,0.64 3.138,3.015 2.302,5.408 -0.157,0.452 -0.47,1.504 -0.47,1.504 l 0.627,0.38 c 0,0 0.745,-1.19 1.036,-1.55 2.414,-2.967 8.12,-1.463 7.485,2.248 -0.098,1.167 -0.093,1.324 -1.363,0.96 -0.843,-0.436 -1.658,0.466 -1.632,1.593 0.04,1.015 0.923,1.83 2.143,1.666 0.967,-0.18 1.21,-0.147 1.14,1.157 0.1,0.907 0.438,1.508 1.032,1.815 1.44,0.595 2.182,-0.225 1.03,-1.43 -0.698,-0.73 -0.655,-1.86 -0.216,-2.918 0.523,-1.266 0.25,-4.05 -0.555,-5.62 -1.16,-2.262 -4.403,-3.21 -7.118,-2.08 -1.24,0.663 -1.377,0.816 -1.498,-0.347 -0.68,-2.886 -2.852,-5.066 -5.558,-5.26 -1.04,-0.073 -2.124,-0.64 -2.788,-0.784 z m -64.652,2.947 0,1.498 2.028,0 0,-1.498 z m 0,2.928 0,1.652 2.023,0 0,-1.652 z m 0,3.222 0,1.652 c 0,0 1.107,-0.03 2.023,0 l 0,-1.652 z m 66.053,2.65 2.215,3.273 2.452,0.164 0.288,2.644 3.718,2.317 -3.222,2.018 -0.024,2.557 -3.072,0.26 -2.716,3.602 -2.312,-3.178 -2.31,0.01 -0.545,-2.837 -4.094,-2.076 4.2,-2.394 -0.116,-2.98 2.856,-0.02 2.682,-3.36 z m -66.053,0.39 0,1.694 2.023,0 0,-1.7 z m 0,3.105 0,1.676 2.023,0 0,-1.675 z m 64.81,1.247 -3.173,4.223 4.275,3.535 3.4,-4.27 z m -64.81,1.69 0,1.835 2.023,0 0,-1.835 z m 65.138,0.222 2.206,1.705 -1.575,1.997 -2.19,-1.67 z m -65.138,3.17 0,1.535 2.023,0 0,-1.537 z m -60.197,0.196 c -3.9,0.018 -7.587,6.333 -8.47,9.323 -1.045,3.83 -1.2,10.76 -0.208,10.956 3.496,-2.516 5.152,-6.778 7.778,-9.97 0.407,3.69 0.343,10.81 0.343,10.81 0,0 -1.554,0.816 -2.392,2.108 -0.604,1.074 -0.797,2.357 -0.282,3.552 -1.943,-0.63 -5.463,0.082 -5.663,3.67 0.127,5.052 5.643,4.34 5.664,4.272 -0.117,-0.032 -1.086,5.374 3.81,5.947 1.756,0.205 4.847,-1.076 3.93,-5.992 3.09,0.51 5.754,-1.19 5.788,-4.165 0.04,-2.038 -1.51,-3.79 -4.176,-3.8 -0.556,-0.002 -1.73,0.25 -1.73,0.25 0.04,-0.293 1.07,-3.455 -2.517,-5.75 l -0.565,-14.625 c 0,0 1.238,1.35 1.792,1.86 2.383,2.193 3.94,3.298 6.69,4.747 2.675,1.41 2.345,1.063 1.882,-1.618 -1.266,-4.027 -3.91,-7.07 -9.503,-10.874 -0.72,-0.49 -1.45,-0.706 -2.172,-0.703 z m 0.386,0.313 0.786,20.685 -1.16,0 -0.998,-20.666 z m 114.75,0.684 c 0.103,-0.004 0.21,0 0.318,0.01 2.523,0.212 3.17,3.033 2.037,4.286 -0.448,0.495 -0.603,0.602 -0.37,0.905 1.082,1.372 0.478,3.54 -0.593,3.872 -3.404,1.06 -3.92,-0.804 -3.91,-2.996 l -5.26,-0.197 0.035,-3.063 5.798,0.116 c -0.437,-1.39 0.4,-2.874 1.945,-2.933 z m -117.186,0.034 0.063,0 c 0.544,0.047 -0.016,1.504 -1.537,3.723 -1.027,1.5 -2.457,4.148 -2.884,5.216 -0.936,2.336 -1.567,6.528 -0.94,5.758 0.567,-1.752 0.622,-2.482 1.108,-3.742 0.64,-1.643 3.63,-7.043 4.224,-7.575 0.506,-0.454 0.637,-0.174 0.626,1.345 -0.027,3.42 -1.648,7.02 -5.514,11.235 -0.645,0.702 -1.504,1.47 -1.565,1.47 -0.373,-0.003 -0.363,-0.777 -0.357,-2.404 0.025,-6.464 2.424,-12.235 6.116,-14.717 0.29,-0.195 0.507,-0.296 0.66,-0.31 z m 3.915,0.3 c 1.695,0.496 4.74,3.22 5.995,4.618 1.453,1.568 3.4,5.91 3.058,6.578 -0.114,0.293 -0.36,0.247 -1.21,-0.23 -5.397,-3.04 -9.26,-6.784 -8.248,-7.995 0.283,-0.338 1.442,0.36 2.995,1.802 1.055,0.936 2.136,1.886 3.1,2.836 1.518,1.494 1.86,1.713 0.945,0.053 -0.82,-1.49 -3.147,-3.99 -5.962,-6.115 -1.144,-0.863 -1.404,-1.56 -0.674,-1.546 z m 113.603,0.87 c -0.072,0.002 -0.138,0.013 -0.188,0.035 -1.062,0.447 -0.63,1.823 -0.732,2.88 l -5.837,-0.203 -0.034,0.81 5.476,0.298 c 0.096,0.825 -0.334,2.608 0.37,2.908 1.533,0.638 2.37,-1.337 1.07,-2.523 -0.464,-0.41 -0.965,-0.594 0.322,-1.175 0.85,-0.725 0.98,-2.14 0.256,-2.77 -0.2,-0.173 -0.487,-0.262 -0.703,-0.26 z m -73.845,0.242 -0.294,2.162 -3.385,0.852 -0.088,-2.31 z m 39.927,0.765 c 12.5,3.367 26.393,11.01 35.415,19.644 l -1.806,1.185 c -9.374,-8.66 -21.74,-15.232 -33.103,-18.497 z m -21.536,0.333 c 20.58,-0.057 39.344,7.944 54.485,20.866 l -2.476,1.56 c -13.81,-11.416 -29.113,-19.03 -49.7,-19.937 -13.455,-0.594 -28.81,2.857 -43.943,11.182 l -1.127,-2.047 c 14.698,-8.014 29.127,-11.588 42.76,-11.625 z m -1.62,3.1 8.096,0.237 -0.5,7.517 -7.36,-0.24 z m -8.706,0.536 1.142,7.252 -7.046,1.315 -1.998,-7.272 z m 25.625,0.958 8.04,2.143 -2.652,7.392 -7.06,-2.014 z m -12.883,0.106 c -1.277,0 -2.312,1.035 -2.312,2.31 0,1.278 1.035,2.313 2.312,2.313 1.276,0 2.31,-1.035 2.31,-2.312 0,-1.275 -1.034,-2.31 -2.31,-2.31 z m 0,0.8 c 0.85,0 1.54,0.674 1.54,1.51 0,0.838 -0.69,1.518 -1.54,1.518 -0.852,0 -1.542,-0.68 -1.54,-1.517 0,-0.836 0.688,-1.51 1.54,-1.51 z m -15.97,0.014 c -1.276,0 -2.31,1.035 -2.31,2.31 0,1.278 1.034,2.313 2.31,2.313 1.277,0 2.312,-1.035 2.312,-2.312 0,-1.276 -1.036,-2.31 -2.312,-2.31 z m 0,0.8 c 0.852,0 1.542,0.674 1.542,1.51 0,0.838 -0.69,1.518 -1.542,1.518 -0.85,0 -1.54,-0.68 -1.54,-1.517 0,-0.837 0.69,-1.512 1.54,-1.512 z m 31.838,0.93 c -1.277,0 -2.31,1.034 -2.312,2.31 0,1.277 1.035,2.312 2.312,2.312 1.277,0 2.31,-1.035 2.31,-2.312 0,-1.276 -1.033,-2.31 -2.31,-2.31 z m -44.816,0.268 2.383,7.075 -6.824,2.764 -2.558,-6.987 z m 44.815,0.53 c 0.85,0 1.54,0.675 1.54,1.512 0,0.837 -0.69,1.517 -1.54,1.517 -0.85,0 -1.54,-0.68 -1.54,-1.516 0,-0.837 0.69,-1.512 1.54,-1.512 z m 13.368,1.695 7.238,3.824 -3.74,6.762 -6.747,-3.515 z m -60.6,0.612 c -1.278,0 -2.313,1.034 -2.313,2.31 0,1.277 1.035,2.312 2.312,2.312 1.276,0 2.31,-1.035 2.31,-2.312 0,-1.276 -1.034,-2.31 -2.31,-2.31 z m 27.343,0.22 0.337,7.142 -6.41,0.453 -1.165,-7.1 z m 7.69,0.376 7.306,1.01 -1.72,6.878 -6.61,-1.064 1.024,-6.824 z m -35.034,0.202 c 0.85,0 1.54,0.675 1.54,1.512 0,0.837 -0.69,1.517 -1.54,1.517 -0.85,0 -1.54,-0.68 -1.54,-1.517 0,-0.837 0.69,-1.512 1.54,-1.512 z m 23.934,0.925 c -1.277,0 -2.31,1.035 -2.31,2.31 0,1.278 1.033,2.313 2.31,2.313 1.277,0 2.312,-1.035 2.312,-2.312 0,-1.276 -1.035,-2.31 -2.312,-2.31 z m -11.673,0.29 1.892,6.948 -7.045,2.02 -2.162,-6.686 z m 25.576,0.11 c -1.278,0 -2.312,1.034 -2.312,2.31 0,1.278 1.034,2.312 2.31,2.313 1.278,0 2.313,-1.035 2.313,-2.312 0,-1.277 -1.034,-2.312 -2.31,-2.312 z m -13.904,0.4 c 0.85,0 1.54,0.674 1.54,1.51 0,0.838 -0.69,1.518 -1.54,1.518 -0.85,0 -1.54,-0.68 -1.54,-1.516 0,-0.837 0.69,-1.512 1.54,-1.512 z m 13.903,0.4 c 0.85,0 1.54,0.674 1.54,1.51 0,0.838 -0.69,1.518 -1.54,1.518 -0.852,0 -1.542,-0.68 -1.542,-1.516 0,-0.837 0.69,-1.512 1.54,-1.512 z m 24.723,0.013 c -1.277,0 -2.31,1.035 -2.31,2.312 0,1.277 1.033,2.31 2.31,2.31 1.277,0 2.312,-1.033 2.312,-2.31 0,-1.277 -1.035,-2.312 -2.312,-2.312 z m -12.506,0.675 7.06,2.413 -2.818,6.598 -6.757,-2.57 z m 12.506,0.126 c 0.85,0 1.54,0.675 1.54,1.512 0,0.837 -0.69,1.517 -1.54,1.517 -0.85,0 -1.54,-0.68 -1.54,-1.517 0,-0.837 0.69,-1.512 1.54,-1.512 z m -53.108,0.245 c -1.277,0 -2.31,1.036 -2.31,2.313 0,1.277 1.033,2.31 2.31,2.31 1.277,0.002 2.312,-1.033 2.312,-2.31 0,-1.277 -1.035,-2.312 -2.312,-2.312 z m 0,0.8 c 0.852,0 1.542,0.676 1.54,1.513 0,0.837 -0.688,1.517 -1.54,1.517 -0.85,0 -1.54,-0.68 -1.54,-1.517 0,-0.837 0.69,-1.512 1.54,-1.512 z m 42.774,1.35 c -1.278,0 -2.313,1.034 -2.313,2.31 0,1.277 1.035,2.312 2.312,2.312 1.275,0 2.31,-1.035 2.31,-2.31 0,-1.278 -1.035,-2.313 -2.31,-2.313 z m 0,0.8 c 0.85,0 1.54,0.674 1.54,1.51 0,0.838 -0.69,1.518 -1.54,1.518 -0.853,0 -1.542,-0.68 -1.542,-1.517 0,-0.836 0.69,-1.51 1.54,-1.51 z m -82.697,0.803 c 1.847,0.078 3.233,1.737 3.317,3.463 0.064,1.313 -1.61,3.03 -1.61,3.03 l -1.95,-1.803 -1.87,1.723 c -0.315,0.105 -1.768,-2.365 -1.324,-3.644 0.578,-1.664 1.768,-2.84 3.437,-2.77 z m 104.964,0 5.59,4.575 c 0,0 -2.454,1.492 -2.908,1.758 0.055,-0.2 0.08,-0.41 0.08,-0.627 0,-1.277 -1.034,-2.312 -2.31,-2.312 -1.278,0 -2.312,1.035 -2.312,2.31 0,1.096 0.765,2.016 1.786,2.255 -0.574,0.33 -1.338,0.756 -1.338,0.756 l -2.952,-2.476 z m -8.852,12.227 -2.474,1.015 c -15.223,-10 -36.05,-15.473 -59.86,-5.403 l -0.818,-1.974 c 17.675,-7.36 39.974,-9.652 63.153,6.362 z m -1.353,-9.993 5.99,3.675 -3.804,5.84 -5.85,-3.74 z m -1.81,11.327 -2.515,0.944 c -18.583,-11.94 -38.39,-11.304 -56.09,-4.147 l -0.272,-1.676 c 20.84,-9.022 41.754,-6.15 58.876,4.88 z m 12.467,-9.367 c 0.85,0 1.54,0.676 1.54,1.512 0,0.836 -0.69,1.516 -1.54,1.516 -0.852,0 -1.542,-0.68 -1.542,-1.517 0,-0.837 0.69,-1.513 1.54,-1.513 z m -108.13,2.74 -2.066,2.084 1.886,2.12 c 0,0 -0.598,0.507 -1.032,0.743 -2.473,1.346 -5.18,-0.78 -5.05,-3.075 0.19,-3.346 4.22,-4.94 6.262,-1.872 z m 98.334,-1.598 c -1.277,0 -2.31,1.034 -2.312,2.31 0,1.277 1.035,2.312 2.312,2.312 1.277,0 2.312,-1.035 2.312,-2.312 0,-1.276 -1.035,-2.31 -2.312,-2.31 z m -89.97,0.093 c 1.84,0.014 3.27,1.426 3.446,3.05 0.14,1.296 -0.534,2.54 -1.986,3.42 -1.97,1.196 -4.26,-0.74 -4.22,-0.858 l 1.66,-1.642 -1.996,-2.044 c -0.058,-0.04 1.318,-1.94 3.097,-1.927 z m -5.753,0.397 3.406,3.395 -3.602,3.357 -3.337,-3.352 z m 89.79,9.034 -1.91,0.877 -2.606,-1.57 -0.77,1.48 1.45,0.92 -1.508,0.564 c -17.364,-9.755 -36.983,-6.93 -50.025,-0.455 0,0 0.114,-1.005 0.12,-1.005 l 1.42,-0.724 -0.53,-1.795 -0.76,0.22 -0.058,-1.988 c 18.622,-8.384 39.75,-6.464 55.18,3.477 z m 5.934,-8.726 c 0.85,0 1.54,0.675 1.54,1.512 0,0.837 -0.69,1.517 -1.54,1.517 -0.85,0 -1.54,-0.68 -1.54,-1.517 0,-0.837 0.69,-1.512 1.54,-1.512 z m -95.795,1.214 -1.816,1.806 1.806,1.926 1.762,-1.864 z m 56.835,0.4 -2.38,0.105 0.126,1.94 2.322,-0.057 z m 1.623,0.01 0.043,1.94 2.158,-0.01 -0.01,-1.916 -2.19,-0.015 z m 3.828,0.033 -0.106,1.93 2.143,0.097 0.154,-1.92 z m -9.246,0.245 -2.437,0.265 0.27,1.95 2.307,-0.27 z m 13.238,0.03 -0.173,1.993 2.2,0.25 0.3,-1.907 z m -66.27,0.01 1.06,1.126 -1.054,1.05 -1.122,-1.098 z m 48.924,0.59 -2.35,0.372 0.25,2.008 2.293,-0.453 z m 21.32,0 -0.39,1.86 2.186,0.525 0.356,-1.897 z m -25.173,0.815 -1.975,0.525 0.43,1.955 2.084,-0.51 z m 28.923,0.077 -0.414,1.888 2.228,0.607 0.448,-1.81 z m -32.184,0.94 -2.067,0.73 0.535,1.812 2.1,-0.708 z m 36.02,0.206 -0.688,1.816 1.93,0.775 0.854,-1.648 z m -39.43,1.065 -1.96,0.804 0.81,1.796 1.858,-0.848 z m -40.4,0.056 1.984,1.98 2.358,-2.127 c 2.057,1.818 2.024,6.072 -1.617,6.783 -3.18,0.62 -6.09,-4.14 -2.725,-6.637 z m 83.37,0.38 -0.756,1.667 2.134,0.94 0.737,-1.605 z m -60.85,10.692 26.92,45.754 -4.258,-0.082 -26.054,-44.213 z m -4.42,1.742 1.488,2.313 c -2.915,-2.32 -7.2,-0.368 -7.02,2.557 0.144,1.306 1.25,2.1 1.254,0.842 -0.133,-1.314 1.73,-2.46 3.082,-2.398 2.495,0.033 4.018,3.24 2.297,4.835 -1.132,1.043 -2.664,0.996 -2.147,-0.433 0.08,-0.493 0.04,-0.674 -0.193,-0.886 -0.716,-0.653 -2.036,0.197 -1.714,1.13 0.21,0.615 0.273,0.767 -0.462,1.273 -2.855,2.004 -0.866,5.955 2.59,4.156 0.707,-0.255 0.994,-0.292 1.315,-0.17 1.438,0.554 2.417,-0.694 1.054,-1.342 -0.793,-0.376 -0.813,-1.02 -0.048,-1.53 1.63,-1.09 4.174,0.613 4.165,2.792 -0.01,1.543 -2.04,2.683 -3.99,2.235 -1.16,-0.266 -1.3,0.52 -0.237,1.334 2.06,1.58 5.142,0.27 6.063,-2.57 0.29,-0.895 0.248,-1.082 0.248,-1.082 l 2.747,4.536 c 0,0 -0.85,-0.403 -1.366,-0.56 -2.586,-0.79 -5.486,0.887 -5.495,3.178 -0.01,1.08 0.633,1.497 0.99,0.65 0.834,-1.97 2.645,-2.738 4.504,-1.907 1.72,0.768 2.506,2.51 1.835,4.064 -0.705,1.626 -3.065,2.106 -2.8,0.568 0.128,-0.733 -0.32,-1.18 -1.107,-1.108 -0.298,0.028 -0.68,0.894 -0.578,1.31 0.096,0.39 0.028,0.484 -0.982,1.27 -2.4,1.872 -0.554,4.927 2.44,4.042 0.505,-0.15 0.692,-0.135 1.143,0.082 1.083,0.52 2.22,0.197 2.224,-0.636 0,-0.572 -0.256,-0.792 -0.934,-0.795 -1.027,-0.004 -0.805,-1.165 0.332,-1.733 2.85,-1.425 5.762,2.172 4.026,4.974 -0.745,1.204 -1.216,1.33 -3.88,1.036 -0.43,-0.048 -0.625,0.247 -0.37,0.596 0.79,1.118 3.134,1.472 4.5,0.853 1.475,-0.668 2.373,-2.352 2.477,-4.15 l 3.013,5.26 c -2.343,-2.45 -6.385,-1.512 -7.034,1.995 0,0.89 0.806,1.353 1.087,0.622 1.22,-3.166 5.85,-2.195 5.837,1.223 0,0.55 -0.11,0.86 -0.462,1.343 -0.85,1.64 -3.023,2.045 -2.63,0.574 0.175,-0.456 -0.173,-0.95 -0.77,-1.094 -0.588,-0.14 -0.964,0.352 -0.95,1.248 0.012,0.67 0.017,0.876 0.017,0.876 -1.085,0.457 -1.776,1.35 -2.017,2.674 l -21.087,0.048 c 2.508,-14.615 1.92,-27.813 -2.875,-40.293 -0.412,-1.083 -1.007,-2.656 -1.007,-2.656 l 3.72,0.097 c 0.9,0.78 4.292,0.477 5.617,-0.727 z m 3.58,5.74 2.178,3.912 c -0.902,-0.517 -1.82,-0.86 -3.222,-0.978 0.732,-1.086 0.79,-2.06 1.044,-2.934 z m -5.725,4.157 c 0.793,0 1.435,0.643 1.435,1.436 0,0.794 -0.642,1.436 -1.435,1.436 -0.794,0 -1.44,-0.642 -1.44,-1.436 0,-0.793 0.646,-1.435 1.44,-1.435 z m 15.015,11.688 2.098,3.733 c -1.02,-0.434 -1.883,-0.858 -3.477,-0.9 0.58,-0.678 1.083,-1.815 1.38,-2.832 z m -6.048,3.998 c 0.752,0 1.363,0.61 1.363,1.363 0,0.75 -0.61,1.357 -1.363,1.357 -0.752,0 -1.358,-0.606 -1.358,-1.358 0,-0.753 0.606,-1.364 1.358,-1.364 z m 15.197,11.636 3.095,5.494 c -1.218,-0.698 -2.53,-1.582 -4.174,-1.412 0.784,-1.673 1.21,-2.585 1.08,-4.082 z m -4.12,6.854 -3.323,0.01 c 0.664,-2.903 3.35,-2.148 3.322,-0.01 z m 3.142,-1.4 c 1.13,0.057 2.104,0.444 2.714,1.428 l -4.18,0.01 c 0,0 0.03,-1.444 1.466,-1.438 z"
         id="path13820" />
    </g>
  </g>
</svg>
