<?xml version="1.0" encoding="UTF-8" standalone="no"?>
<!-- Created with Inkscape (http://www.inkscape.org/) -->

<svg
   xmlns:dc="http://purl.org/dc/elements/1.1/"
   xmlns:cc="http://creativecommons.org/ns#"
   xmlns:rdf="http://www.w3.org/1999/02/22-rdf-syntax-ns#"
   xmlns:svg="http://www.w3.org/2000/svg"
   xmlns="http://www.w3.org/2000/svg"
   xmlns:sodipodi="http://sodipodi.sourceforge.net/DTD/sodipodi-0.dtd"
   xmlns:inkscape="http://www.inkscape.org/namespaces/inkscape"
   width="63.281273mm"
   height="88.281357mm"
   viewBox="0 0 224.22499 312.80796"
   id="svg11060"
   version="1.1"
   inkscape:version="0.91 r13725"
   sodipodi:docname="QS.svg">
  <defs
     id="defs11062" />
  <sodipodi:namedview
     id="base"
     pagecolor="#ffffff"
     bordercolor="#666666"
     borderopacity="1.0"
     inkscape:pageopacity="0.0"
     inkscape:pageshadow="2"
     inkscape:zoom="0.35"
     inkscape:cx="-542.88749"
     inkscape:cy="310.68968"
     inkscape:document-units="px"
     inkscape:current-layer="layer1"
     showgrid="false"
     fit-margin-top="0"
     fit-margin-left="0"
     fit-margin-right="0"
     fit-margin-bottom="0"
     inkscape:window-width="1600"
     inkscape:window-height="838"
     inkscape:window-x="-8"
     inkscape:window-y="-8"
     inkscape:window-maximized="1" />
  <metadata
     id="metadata11065">
    <rdf:RDF>
      <cc:Work
         rdf:about="">
        <dc:format>image/svg+xml</dc:format>
        <dc:type
           rdf:resource="http://purl.org/dc/dcmitype/StillImage" />
        <dc:title></dc:title>
      </cc:Work>
    </rdf:RDF>
  </metadata>
  <g
     inkscape:label="Calque 1"
     inkscape:groupmode="layer"
     id="layer1"
     transform="translate(-259.31606,-530.24393)">
    <g
       transform="translate(-2284.8484,-129.68761)"
       id="g4589">
      <rect
         style="fill:#ffffff;stroke:#000000;stroke-width:0.99699998"
         width="223.228"
         height="311.811"
         x="2090.887"
         y="589.95203"
         rx="10.63"
         ry="10.63"
         transform="translate(453.776,70.478)"
         id="rect4591" />
      <path
         style="fill:#e2cf00"
         inkscape:connector-curvature="0"
         d="m 2646.795,945.04 23.212,-42.372 c 0,0.01 5.62,2.154 12.192,3.86 -6.31,16.438 -0.046,38.12 -0.046,38.12 0,0 -35.376,0.357 -35.36,0.392 z m -63.79,-72.412 c -1.322,-18.01 -1.364,-35.406 1.602,-49.82 0.055,-0.23 -8.292,-5.05 -7.428,-5.604 1.32,-0.847 17.765,-9.42 17.765,-9.42 0,0 1.11,0.633 2.07,0.535 0.747,-0.077 1.448,-0.757 1.158,-1.483 -0.687,-1.718 -1.913,-5.993 -1.178,-10.296 0.423,-2.47 1.763,-5.192 3.154,-6.857 3.098,-3.714 10.172,-1.75 12.23,-1.813 1.305,-0.04 5.252,-13.842 -1.034,-16.404 -1.732,-0.705 -5.707,8.717 -2.945,10.832 0.417,0.318 -5.554,-3.144 -10.127,-5.21 -0.424,-0.19 -2.29,-1.628 -2.712,-3.526 -0.523,-2.367 7.01,-6.922 5.53,-9.59 -2.154,-3.888 -7.72,-9.702 -10.102,-8.106 -2.25,2.034 -7.622,6.19 -7.587,9.033 1.68,5.097 5.944,5.452 8.185,10.275 0.56,1.042 4.68,5.423 4.68,5.423 -1.547,2.366 0.957,6.5 1.074,5.867 l -19.527,-8.505 c 0,0 4.475,33.67 -0.25,38.654 -0.5,0.527 4.18,-1.32 4.26,-1.033 1.423,1.8 17.193,11.826 21.706,15.43 8.015,-11.18 10.943,-16.096 21.274,-26.013 2.268,-1.874 7.323,-5.296 10.214,-9.408 2.322,-3.305 3.285,-7.026 2.868,-9.915 -0.54,-3.735 -0.872,-6.29 -3.177,-9.267 -5.328,-6.877 -13.802,-13.436 -13.652,-13.556 l 2.895,-2.355 c 0,0 10.45,8.64 14.876,14.993 2.98,4.28 1.643,9.19 4.213,10.068 0.62,0.212 4.84,-0.14 6.227,0.125 0.168,0.033 30.742,21.605 25.2,22.85 -7.675,1.722 -19.912,0.598 -19.912,0.598 -8.736,-8.524 -12.954,-11.328 -18.16,-8.656 0,0 -13.195,11.54 -20.81,20.573 -4.34,5.15 -7.962,11.592 -10.866,15.737 -1.118,1.596 -15.13,-11.863 -14.987,-10.25 2.082,14.652 3.268,32.3 1.657,44.266 -1.105,10.165 -2.62,21.08 -3.295,30.455 0,0 2.352,-0.683 4.144,-0.046 0.97,0.343 1.675,1.24 1.76,2.24 0.522,4.46 -5.225,3.426 -5.36,3.04 0.01,-0.005 3.21,6.884 3.21,6.884 0,0 -4.98,8.584 -4.842,8.21 0.086,-0.23 -4.524,-7.62 -4.524,-7.62 0,0 3.497,-6.176 3.937,-7.462 0.265,-0.77 -5.046,2.555 -5.456,-2.264 -0.413,-4.857 5.798,-3.556 5.52,-2.958 -0.75,-9.96 -2.422,-20.26 -3.48,-28.652 z m 74.854,22.41 c 0.137,-0.104 -13.213,-5.357 -25.476,-4.86 -4.32,-1.683 -11.367,-3.443 -16.07,-0.308 -5.29,-3.58 -9.855,-7.52 -14.495,-11.426 1.298,-0.017 6.165,-31.31 9.348,-42.212 -1.42,-13.542 11.63,-13.532 12.765,-2.686 14.06,14.532 31.275,29.563 49.02,44.352 -2.823,5.852 -13.013,10.315 -15.094,17.14 z m 30.74,-95.796 c -16.03,-16.336 -49.577,-45.54 -49.577,-45.54 l 15.704,-15.32 c 8.243,2.455 16.714,4.507 26.29,4.604 0.037,0.038 10.494,4.756 16.066,-0.012 l 14.496,11.48 c 0,0 -6.013,31.61 -9.544,42.642 0.075,4.37 -1.58,9.692 -5.897,10.483 -3.688,0.674 -6.524,-4.552 -7.54,-8.338 z m 32.398,-37.842 c 1.672,-10.275 2.016,-17.755 3.177,-29.743 -7.23,2.117 -7.133,-7.624 -0.03,-5.062 l -3.293,-7.252 4.875,-8.167 4.475,7.756 -3.853,6.876 c 8.008,0.394 6.076,7.826 -0.822,6.032 1.3,11.484 4.165,23.085 4.026,34.44 2.48,18.208 -3.05,43.545 -2.134,44.145 l 7.81,5.37 -1.334,39.616 -12.335,-5.402 -3.67,2.475 c 1.18,2.33 2.677,4.567 3.184,7.1 0,0 8.494,6.983 7.315,9.16 0.547,0.32 -6.046,9.04 -7.98,8.824 -3.694,-0.415 -8.014,-5.178 -9.196,-8.572 -1.042,-3.412 7.627,-6.757 6.533,-9.253 -1.308,-2.987 -4.61,-4.423 -7.537,-5.3 -4.035,-1.21 -5.88,-4.404 -6.067,-4.404 0,0 -1.568,12.662 -3.078,11.65 -6.074,-4.073 -1.92,-16.993 -0.793,-16.633 0,0 2.653,0.61 5.787,0.904 11.04,1.155 10.292,-12.413 8.152,-18.98 -0.536,-1.558 0.303,-1.57 0.244,-1.59 -0.513,-0.177 1.785,-0.048 3.735,-0.623 5.363,-1.58 13.577,-7.03 13.577,-7.03 -8.63,-4.784 -16.247,-10.243 -23.08,-15.42 0,0 -6.345,10.82 -13.865,18.327 -5.474,5.463 -6.364,7.323 -15.526,14.36 -0.177,0.135 -6.942,8.218 -3.72,17.657 2.755,8.078 16.004,16.822 15.907,17.405 l -2.61,2.49 c 0.107,0.145 -18.753,-11.692 -18.314,-24.425 -0.022,-0.48 -8.572,-0.647 -8.572,-0.647 l -24.852,-23.02 21.052,-0.09 10.81,8.824 6.753,0.35 c 0.443,0.388 0.687,-1.783 6.636,-6.217 11.364,-8.473 25.446,-30.228 25.446,-30.228 0,0 14.89,10.466 14.905,10.468 -0.745,-15.72 -3.28,-32.622 -1.74,-46.17 z m -54.213,-74.283 c 0,0 -15.472,29.046 -23.957,42.728 l -12.02,-3.445 c 5.038,-13.358 0.216,-38.817 -1.05,-39.458 z"
         id="path4593" />
      <path
         style="fill:#131f67"
         inkscape:connector-curvature="0"
         d="m 2574.48,685.427 0.913,261.56 162.41,-0.104 -0.468,-261.456 z m 112.877,189.546 c 7.704,-7.156 15.325,-13.064 22.45,-17.357 2.764,-1.665 3.603,-1.91 4.688,-0.92 1.77,1.61 2.873,3.01 2.295,4.138 -0.13,0.254 -0.547,0.676 -0.547,0.676 l -4.257,-1.62 1.38,4.83 c -3.83,1.558 -3.76,5.7 -0.065,7.895 l -2.543,5.85 5.913,-2.6 c 0.226,1.275 4.442,4.358 7.065,0 l 5.34,2.605 -1.84,-6.535 c 1.752,-1.67 2.774,-4.34 0.017,-6.798 l 1.27,-5.12 -4.822,1.57 c -1.208,-1.652 -1.91,-1.538 -2.188,-1.99 -0.082,-0.614 -0.097,-2.047 -0.9,-3.368 -0.662,-1.094 -1.42,-2.254 -2.13,-3.066 -0.375,-0.636 -0.075,-0.69 1.85,-1.73 0.905,-0.49 1.653,-0.984 1.653,-0.984 0,0 9.49,4.758 13.36,6.57 l 0.22,87.64 -52.05,-0.152 c -5.855,-17.47 -1.65,-32.567 -0.098,-38.922 -2.73,-0.228 -16.806,-4.786 -17.228,-6.355 5.576,-8.856 13.144,-16.904 21.167,-24.257 z m -101.284,25.498 c -6.79,-2.19 -6.858,5.983 -3.39,6.616 0.9,0.164 1.84,0.3 3.246,-0.155 0.348,0.073 -4.068,6.853 -4.068,6.853 0,0 3.536,6.42 5.23,9.15 l 5.345,-9.483 -3.495,-6.563 c 5.473,2.788 8.306,-5.515 2.56,-6.602 -1.388,-0.19 -2.922,0.506 -2.922,0.506 l 3.02,-28.403 c 2.437,1.654 6.88,4.973 6.88,4.973 1.012,15.65 0.27,28.69 9.022,51.458 l 0.09,15.84 -30.044,0 -0.117,-82.706 5.26,3.762 c 0.11,0.467 -0.84,0.154 -0.327,5.91 0.463,5.2 2.046,14.216 3.71,28.847 z m 107.874,-212.614 c 0.24,0.34 0.22,0.86 0.428,1.548 1.216,4.05 5.443,8.916 8.812,10.193 1.18,0.448 1.638,1.128 0.957,1.81 -0.86,0.86 -4.412,-1.494 -7.033,-4.546 -2.38,-2.77 -3.968,-5.064 -4.32,-6.804 -0.208,-1.033 -0.312,-1.697 -0.158,-2.234 0.435,-0.603 0.976,-0.436 1.315,0.034 z m 4.2,-0.438 c 0.446,-0.002 1.045,0.522 1.404,1.476 0.866,2.294 2.222,4.008 4.344,5.49 0.562,0.395 0.786,0.984 0.5,1.33 -0.106,0.126 -0.244,0.19 -0.4,0.232 -1.654,0.462 -6.01,-4.575 -6.356,-7.703 -0.075,-0.68 0.163,-0.824 0.51,-0.825 z m 5.42,0.062 c 0.88,-0.004 1.3,1.83 0.79,2.793 -0.33,0.303 -1.06,-0.165 -1.708,-1.37 -0.557,-1.035 -0.335,-1.417 0.917,-1.423 z m -2.948,0.03 c 0.196,-0.007 0.603,-0.11 0.81,0.175 0.34,1.896 1.77,3.27 2.91,4.368 0.192,0.36 0.28,1.112 -0.138,1.308 -1,0.444 -4.01,-2.977 -4.03,-4.956 -0.01,-0.596 0.175,-0.886 0.447,-0.895 z m -3.82,1.2 c 1.054,3.463 3.61,6.287 5.898,7.753 1.635,1.04 2.267,1.632 1.508,2.164 -0.188,0.13 -0.378,0.232 -0.423,0.226 -3.83,-1.463 -8.538,-7.008 -8.697,-10.933 0.835,-1.07 1.57,0.128 1.713,0.79 z m -13.257,15.028 c -2.014,0.003 -4.48,0.46 -6.484,1.37 -2.79,1.265 -3.488,2.106 -3.08,2.41 0.29,0.215 2.086,-0.555 2.986,-0.67 4.854,-1.203 8.194,-1.498 11.357,-0.12 2.446,1.067 2.46,0.578 0.82,-1.197 -1.192,-1.286 -3.316,-1.795 -5.6,-1.792 z m 17.11,2.66 c 1.607,-0.015 3.247,0.36 3.83,1.11 0.453,2.422 -0.757,1.314 -1.732,0.83 -1.408,-0.65 -3.022,-1.21 -4.528,-0.98 -0.97,0.15 -0.996,0.1 -0.447,-0.21 0.827,-0.503 2,-0.737 2.88,-0.75 z m -19.026,0.945 c -4.592,0.356 -6.182,2.677 -9.145,5.072 -1.218,0.926 -0.94,1.642 0.543,1.4 1.832,-0.3 2.57,-0.23 5.068,0.624 2.728,0.93 4.683,1.316 6.182,0.74 2.834,-1.09 2.59,-0.907 -1.462,3.016 -2.17,1.742 -1.293,1.65 0.904,0.143 1.623,-1.298 2.74,-2.124 3.078,-2.835 0.165,-0.345 0.18,-1.582 0.485,-1.582 1.03,0 0.5,-1.286 -0.438,-1.832 -0.615,-0.438 -0.478,-0.896 0.32,-1.74 1.25,-1.315 0.825,-1.91 -0.534,-1.09 -0.24,0.13 -0.357,-0.273 -1.186,-0.773 -1.312,-0.79 -2.417,-1.16 -3.815,-1.144 z m 3.31,1.722 c 1.11,0.934 0.634,1.193 -1.788,1.17 -2.047,-0.02 -3.79,0.195 -6.22,1 -2.76,0.916 -2.93,0.94 -1.308,-0.442 2.23,-1.9 6.76,-3.807 9.314,-1.728 z m 14.34,-0.806 c 1.114,-0.025 2.054,0.133 2.902,0.6 2.312,1.275 2.826,2.38 0.252,1.48 -1.615,-0.566 -3.797,-0.486 -5.304,-0.068 -1.557,0.43 -1.825,0.583 -1.615,-0.257 0.26,-1.03 1.908,-1.716 3.764,-1.756 z m -18.187,3.76 c 0.548,2.747 2.632,1.85 2.838,0.19 l 0.76,0.004 c -0.323,2.206 -3.326,4.052 -4.493,-0.193 0.246,-0.006 1.336,0.07 0.895,0 z m 16.62,0.047 0.566,-0.018 c 0.372,2.105 2.33,2.794 3.18,0.16 l 0.684,0.013 c -0.523,4.394 -5.173,2.254 -4.43,-0.156 z m -18.215,0.205 c 0.376,0.133 0.547,1.163 0.484,1.434 -0.132,0.563 -1.97,-0.036 -2.36,-0.586 0.383,-0.41 1.29,-1.054 1.875,-0.848 z m 25.024,0.468 -0.01,0.77 c -0.85,0.203 -1.202,0.68 -1.996,0.523 0.045,-0.49 -0.038,-1.167 0.423,-1.74 0.58,-0.306 1.268,0.07 1.58,0.447 z m -18.534,0.89 c -0.385,0.303 -0.914,0.336 -0.914,0.336 -0.083,-0.736 -0.207,-1.565 0.71,-1.572 0.604,0.176 0.562,0.923 0.204,1.236 z m 10.598,-1.222 c 0.323,0.023 0.702,0.826 0.746,1.294 -0.095,0.768 -1.986,0.462 -1.986,-0.303 0,-0.324 0.79,-0.99 1.24,-0.992 z m -17.31,29.092 c -1.46,-0.73 -12.535,-7.46 -15.37,-19.358 l -0.565,1.217 c 1.202,2.848 2.975,7.476 2.975,7.476 -0.074,-0.4 0.453,3.1 1.58,9.04 -0.597,0.006 -1.26,-0.164 -1.91,-0.338 -1.46,-5.438 -1.806,-9.7 -3.032,-15.022 l -0.534,1.486 c 0,0 1.54,9.548 2.586,13.28 -0.597,-0.055 -1.697,-0.3 -1.697,-0.3 -0.872,-4.03 -1.544,-6.73 -2.364,-10.768 l -0.753,0.976 c 1.082,3.315 1.503,6.28 2.048,9.454 -0.742,-0.112 -1.49,-0.183 -2.197,-0.577 0,0 -1.117,-5.792 -1.265,-5.877 -0.426,0.43 -0.6,0.98 -0.6,0.98 -0.046,-0.05 0.968,3.212 0.895,4.555 -0.71,-0.117 -1.944,-0.472 -2.814,-0.764 -0.456,0.304 -0.693,0.808 -1.043,1.26 0.43,1.844 25.835,5.833 24.31,4.31 -0.01,0.16 11.204,4.906 17.46,0.872 0,0 10.883,8.07 15.134,11.293 0,0.367 1.474,2.077 3.006,3.164 l 4.31,3.317 c 1.25,0.972 1.75,0.268 1.942,-1.563 0.21,-2.04 1.693,-15.785 2.04,-18.715 1.293,-9.874 1.29,-9.77 -0.208,-9.315 -2.293,0.694 -4.357,-0.208 -4.357,-2.553 0,-1.435 0.664,-2.624 2.193,-3.18 0.434,-0.147 1,-0.16 1.65,-0.148 0.295,0.053 0.845,0.09 0.903,0.1 0.73,-0.04 -2.828,-6.48 -2.828,-6.48 0,0 3.4,-6.06 5.034,-8.315 l 4.4,7.972 -3.603,7.032 c 7.018,-0.527 6.33,8.294 -0.54,5.34 0,0 -0.04,2.62 -0.026,2.428 0.067,-0.75 0.056,-1.39 0.294,-1.53 6.655,2.52 8.012,-7.184 0.84,-6.736 1.18,-2.058 2.495,-4.184 3.72,-6.452 l -5.184,-9.45 -5.858,9.743 2.948,6.082 c -0.662,-0.173 -1.195,-0.068 -1.904,0.004 -4.34,0.89 -3.408,7.875 1.553,6.915 0.567,-0.11 1.42,-0.54 1.42,-0.54 l -3.204,28.536 c 0,0 -0.315,0.256 -1.6,-0.67 -1.485,-1.07 -4.594,-3.392 -4.792,-3.63 1.11,-18.245 -3.452,-37.44 -8.663,-49.457 -0.33,-0.923 -0.134,-19.022 -0.134,-19.022 l 29.546,0.078 0.11,84.057 c -1.546,-0.978 -3.216,-2.265 -4.804,-3.386 -0.476,-0.385 -0.772,-0.842 -0.568,-1.577 -0.522,1.118 -0.207,1.597 -0.207,1.597 l 6.524,5.212 -0.257,82.723 c 0,0 -10.533,-5.427 -17.018,-8.046 -2.925,-1.194 -3.056,-0.85 -3.056,-0.85 0.01,-0.005 2.067,4.64 1.48,5.477 1.393,1.34 3.736,4.145 3.85,6.89 1.248,1.08 1.598,1.215 2.535,2.77 l 3.913,-1.414 -0.888,4.076 c 4.16,2.915 0.154,6.833 -0.617,6.472 0,0 1.836,3.94 2.255,5.734 -0.657,-0.045 -3.953,-1.832 -4.87,-2.256 -2.39,4.7 -6.422,0.756 -6.454,0.063 l -4.473,1.99 1.585,-5.09 c -2.88,-1.753 -4.827,-4.402 -0.17,-7.254 l -1.075,-3.972 3.83,1.505 c 0,0 0.715,-1.15 1.26,-1.986 -1.434,-6.24 -10.855,-5.06 -13.88,-10.67 0,0 -0.745,7.005 -1.507,9.54 -0.297,6.7 -4.99,-0.078 -4.99,-7.166 0,-1.6 2.01,-6.985 2.692,-7.246 0.708,-0.1 7.433,3.152 11.95,-0.077 2.055,-2.14 5.602,-8.155 2.195,-17.573 -1.127,-2.176 2.143,-2.452 3.205,-1.717 0,0 9.828,-5.14 14.265,-7.617 -7.443,-4.09 -22.92,-14.97 -22.91,-15.486 -2.063,3.277 -4.43,6.026 -7.753,10.66 -5.39,6.346 -9.602,12.376 -16.44,17.446 -9.62,7.003 -11.877,14.05 -9.195,22.327 1.086,3.576 3.27,7.203 6.85,8.458 1.822,1.84 9.138,8.767 9.138,8.767 -12.213,11.12 -20.598,20.266 -26.48,30.37 4.965,2.612 16.936,6.392 16.936,6.392 -4.446,14.777 -2.422,26.515 0.508,38.297 0,0 -34.75,0.044 -52.78,-0.523 -0.156,0.152 -2.107,0.048 -2.133,-0.076 -0.07,-1.317 3.25,-4.94 4.242,-4.433 0.5,-0.49 1.556,-0.743 1.366,-1.346 -2.487,-0.296 -6.263,4.002 -6.412,5.78 l -1.484,0 c -0.304,-0.265 2.693,-7.26 8.7,-7.818 -0.064,0.25 0.805,-0.544 0.153,-0.885 -7,0.83 -10.26,8.598 -10.055,8.704 l -1.082,0 c 2.38,-7.64 8.58,-10.05 12.166,-10.38 0.035,-0.016 1.164,-0.41 0.86,-1.078 -7.927,1.376 -11.88,4.807 -13.785,11.46 l -1.43,0 c 1.032,-6.748 7.972,-12.658 15.816,-12.465 0.246,-0.156 0.546,-0.34 0.418,-1.106 -8.705,0.982 -13.047,3.886 -16.623,11.364 -3.198,-8.304 -12.09,-12.244 -12.195,-12.28 0,0 -0.215,-2.323 0.282,-2.227 7.585,2.746 10.48,-3.84 10.163,-7.666 -0.176,-2.128 -0.057,-3.3 -0.77,-6.37 -0.634,-2.737 -1.104,-4.58 -1.053,-5.77 0.05,-1.175 0.418,-1.413 1.286,-1.807 1.627,-0.737 2.645,-3.405 2.283,-3.732 -0.836,1.942 -3.044,2.277 -4.06,3.58 -0.813,1.076 -0.456,2.786 0.99,8.725 0.882,3.62 -0.163,1.955 -2.22,0.822 l -1.373,-0.777 c 0.92,0.947 1.895,1.84 2.834,2.768 0.84,0.768 0.37,1.243 -0.835,0.798 -1.736,-0.866 -5.08,-0.503 -6.36,0.587 -0.5,0.356 -0.678,0.32 -0.804,-0.01 -0.56,-9.223 0.41,-14.897 3.464,-21.828 1.976,-4.713 4.916,-8.24 8.84,-8.492 3.95,-0.328 9.634,1.057 14.795,4.563 6.062,4.116 11.97,10.376 12.597,18.057 0.024,0.09 0.466,-0.657 0.667,-1.05 0.278,-0.913 -0.734,-3.656 -2.313,-6.835 -0.29,-2.39 -1.114,-6.583 -1.76,-9.42 0.49,-0.223 1.538,-0.098 1.833,0.26 1.11,4.69 1.9,8.34 2.85,14.623 0.015,0.614 0.802,-0.908 0.804,-1.312 -0.137,-0.937 -2.755,-13.23 -2.702,-12.95 0.015,-0.417 2.483,0.133 2.144,0.52 0,0 1.877,10.312 2.01,9.992 l 0.635,-0.875 c 0,0 -1.79,-7.53 -1.567,-8.982 0.154,-0.222 1.542,0.227 1.982,0.466 0.552,0.74 0.906,3.427 1.14,5.26 0.638,0.487 0.764,-0.92 0.716,-1.294 -0.46,-0.73 -0.946,-3.452 -0.58,-3.592 0.286,-0.11 1.877,0.522 2.182,0.794 0.36,0.32 1.746,-1.6 1.394,-1.933 -7.506,-2.875 -16.975,-4.552 -24.1,-4.665 -1.656,0.007 -2.313,-0.227 -4.852,-1.144 -6.467,-2.335 -11.814,-0.01 -12.598,0.73 -7.896,-5.488 -16.71,-13.15 -23.728,-18.04 -0.33,-0.218 -1.117,-0.348 -1.203,-0.348 -1.114,8.512 -1.892,18.36 -2.84,26.216 -0.387,3.11 -0.433,3.353 -0.29,3.44 0.123,0.077 0.367,-0.047 0.464,-0.097 2.308,-0.85 4.394,-0.297 5.5,1.79 0.556,2.982 -2.053,4.945 -4.804,3.528 -1.022,-0.525 -1.168,-0.422 -0.702,0.573 0.804,1.79 3.125,6.506 3.125,6.506 0,0 -3.136,6.4 -4.723,8.14 -1.546,-2.497 -3.52,-5.023 -4.376,-7.75 1.217,-2.38 3.513,-5.442 4.238,-7.786 -0.103,-0.075 -0.73,-0.01 -1.164,0.217 -4.014,1.898 -4.658,-1.677 -4.605,-2.962 0.108,-2.612 2.384,-3.168 5.688,-1.95 -3.572,-23.733 -4.334,-37.255 -3.422,-35.79 0,0 -4.314,-3.086 -6.46,-5.178 l -0.193,-172.835 51.626,0.078 c 5.26,14.11 3.812,31.075 0.667,39.91 5.587,1.02 11.23,2.34 17.607,6 -10.772,15.793 -27.682,32.86 -45.998,43.788 -1.04,0.47 -4.45,-1.658 -4.85,-3.76 -0.093,-0.488 0.178,-1.45 0.727,-1.432 1.346,0.436 2.65,1.036 3.963,1.572 0,0 -1.83,-4.593 -0.946,-5.29 0.574,-0.378 1.045,-0.693 1.413,-1.08 1.315,-1.7 1.21,-3.627 -0.182,-5.107 -0.56,-0.588 -1.214,-0.993 -1.54,-1.143 0,0 1.29,-3.583 1.937,-5.272 l -5.082,1.68 c -1.646,-2.28 -4.672,-4.054 -6.908,-0.658 -0.426,0.905 -0.338,0.766 -3.484,-0.626 -1.784,-0.788 -2.883,-1.192 -2.883,-1.192 0.67,1.99 1.544,3.862 2.308,6.167 -3.5,2.232 -2.703,5.996 0.244,7.12 l -1.553,5.084 c 0,0 3.31,-1.235 5.105,-1.714 0,0 1.573,1.582 2.04,3.084 0.8,2.577 2.618,4.445 3.768,5.51 -1.915,1.403 -2.86,1.875 -5.018,2.912 l 7.445,3.007 c -0.463,-1.574 -1.45,-2.743 -1.55,-4.733 -0.087,-1.705 -0.184,-1.737 -1.286,-2.89 -1.804,-1.556 -2.075,-3.637 -3.087,-5.336 -0.707,-0.425 -1.27,-1.28 -1.797,-2.246 -1.133,0.107 -3.692,1.38 -4.177,0.923 -0.594,-0.634 1.03,-3.88 0.85,-4.205 -1.306,-0.112 -4.967,-2.965 -0.607,-6.143 l -1.39,-5.17 c 0,0 3.318,1.45 4.91,2.263 1.104,-5.164 6.142,-2.688 6.957,-0.46 0,0 3.994,-1.314 3.747,-0.25 -0.112,0.958 -0.76,3.344 -0.76,3.344 3.59,3.18 2.848,4.74 -0.07,6.826 -0.044,1.686 0.664,4.306 0.664,4.306 0,0 -2.032,-0.903 -3.37,-1.282 -0.536,0.535 -1.144,1.503 -1.043,2 0.91,4.02 5.865,5.14 13.208,9.247 0.252,-2.597 2.044,-6.146 2.247,-9.26 0.126,-2.274 0.204,-2.31 1.803,-1.583 4.208,3.038 2.923,11.39 1.39,14.815 -0.91,1.94 -1.057,1.89 -2.823,1.327 -2.445,-0.78 -6.768,-0.465 -9.146,0.34 -3.29,1.348 -4.84,8.683 -4.877,10.912 -0.058,2.117 0.106,4.217 1.217,6.833 0.46,1.673 -0.386,2.963 -1.895,2.514 -0.34,-0.1 -1.144,-0.41 -1.144,-0.41 l -14.194,7.344 2.674,1.573 c 0,0 -1.972,-1.175 -0.75,-1.813 l 12.17,-6.35 c 2.27,0.884 1.965,1.064 3.435,-0.468 0.88,-0.907 1.31,-0.925 2.49,-0.812 7.175,0.69 10.354,-0.356 11.594,-3.363 0.185,-0.45 0.114,-0.435 0.847,-0.805 1.358,-0.528 1.996,-1.483 2.065,-2.68 0.045,-0.787 0.386,-0.894 0.984,-1.443 1.117,-1.025 1.343,-2.31 0.64,-3.63 -0.33,-0.622 -0.584,-0.818 -0.447,-1.463 0.23,-1.08 -0.17,-2.205 -1.207,-3.395 -1.195,-1.37 -1.187,-1.14 1.062,-3.234 4.42,-4.2 8.313,-7.416 12.61,-11.216 2.94,-2.6 2.623,-2.414 3.768,-1.224 4.212,4.38 5.864,11.207 3.967,17.212 -0.09,0.282 -0.13,0.25 0.092,0 1.19,-1.35 1.225,-8.147 0.207,-11.16 -1.242,-3.704 -2.445,-5.633 -6.55,-9.26 -2.563,-2.313 -9.537,-8.993 -9.537,-8.993 10.146,-8.8 21.075,-19.736 27.203,-29.79 -3.144,-3.373 -17.723,-6.483 -17.723,-6.483 1.814,-3.764 5.404,-20.676 -0.742,-39.428 l 52.377,0.605 1.863,0.125 c 0,0 0.28,-0.108 0.43,-0.147 0.502,-0.13 0.752,0.223 0.63,0.784 -0.384,1.43 -2.485,4.782 -3.967,4.505 -0.66,-0.256 -0.474,1.014 -0.77,1.542 2.336,-0.303 5.075,-3.263 5.76,-6.197 0.378,-0.616 0.622,-0.72 0.997,-0.6 0.43,0.136 0.323,0.547 -0.144,1.966 -1.463,3.547 -4.43,6.845 -7.877,6.516 l -0.448,1.21 c 4.652,-0.075 8.25,-4.436 9.31,-7.698 0.744,-1.94 0.773,-2.202 1.52,-2.015 0.615,0.57 0.234,1.39 0.024,2.065 -2.34,7.472 -8.762,9.468 -11.96,9.144 -0.385,-0.048 -0.453,0.313 -0.337,0.928 6.87,0.453 12.343,-5.466 13.117,-10.546 0.377,-1.41 1.03,-1.892 1.407,-1.247 0.212,0.57 0.14,1.15 0.037,1.69 -1.877,8.02 -10.424,12.572 -15.648,11.27 -0.24,-0.224 -0.635,0.884 -0.066,1.28 10.544,-0.398 13.8,-5.84 16.204,-10.646 2.87,4.328 5.214,8.79 12.088,11.412 0,0 0.686,1.51 0.145,1.848 -0.285,0.18 -0.72,0.096 -1.35,-0.006 -8.38,-1.354 -11.15,6.477 -7.584,18.176 0.975,3.203 0.538,2.713 -1.55,4.717 -0.994,0.956 -1.468,2.65 -1.207,2.688 0.358,-0.2 0.476,-0.75 1.347,-1.47 0.38,-0.315 1.157,-0.615 1.73,-1.01 1.55,-0.9 1.537,-1.515 0.98,-3.64 -0.413,-1.58 -1.467,-6.385 -1.468,-6.872 0,-0.92 0.215,-0.824 1.367,0 1.607,1.193 2.52,1.108 0.573,-0.42 -0.753,-0.59 -1.243,-1.052 -1.47,-1.384 -0.31,-0.453 -0.118,-0.744 0.51,-0.547 2.886,0.904 5.365,0.84 8.168,-0.867 0.32,7.717 -0.74,19.426 -7.207,27.798 -4.96,5.57 -14.457,1.356 -17.97,-0.404 z m 7.597,-17.734 c -0.192,0.01 -0.884,0.152 -1.312,0.397 -1.904,1.09 -1.45,4.96 0.63,5.474 0.835,0.208 1.594,0.32 3,-0.35 0.835,-0.4 2.007,-0.71 2.336,-0.574 0.69,0.29 0.908,-0.32 1.056,-1.01 0.33,-1.537 -2.193,-1.573 -4.2,0.016 -2.533,2.005 -4.474,-0.955 -2.088,-3.184 0.796,-0.514 0.772,-0.78 0.58,-0.77 z m -19.672,8.278 2.127,2.458 1.336,5.86 c -0.81,0.136 -1.792,-0.314 -1.792,-0.314 -0.664,-2.65 -1.312,-5.303 -1.67,-8.004 z m 28.968,1.474 c -0.022,0.003 -0.047,0.008 -0.072,0.02 -0.09,0.04 -0.486,0.217 -1.034,0.278 -0.316,0.035 -0.794,-0.19 -1.135,-0.168 -0.93,0.057 -1.8,0.332 -2.034,0.428 -0.285,0.118 -0.567,0.168 -0.81,0.024 -0.696,-0.41 -2.72,-0.294 -3.334,0.067 -0.728,0.31 -1.547,0.314 -2.144,0.005 -0.258,-0.133 -0.522,-0.47 -0.568,-0.423 -0.095,0.094 -0.484,1.752 -0.6,2.393 0,0.226 -0.157,0.602 -0.063,0.64 0.12,0.048 0.5,-0.298 0.972,-0.54 0.966,-0.49 2.046,-0.453 3.943,0.01 2.34,0.574 3.253,0.408 4.635,-0.297 1.1,-0.56 1.77,-0.696 2.5,-0.495 0.18,0.05 0.66,0.3 0.727,0.236 0.13,-0.124 -0.225,-0.818 -0.53,-1.505 -0.22,-0.496 -0.3,-0.69 -0.45,-0.672 z m -25.262,2.644 c 2.057,1.948 1.902,1.78 3.2,2.745 l -0.062,1.877 c 0,0 -1.59,0.035 -2.37,-0.207 -0.247,-0.73 -1.317,-4.396 -0.768,-4.415 z m 16.917,1.26 c 0.14,0.097 0.343,0.197 0.62,0.292 3.276,1.228 -0.15,0.92 -0.475,2.088 0,0.105 0.15,0.122 0.31,0.058 1.123,-0.44 3.868,-0.727 5.117,-0.485 1.62,0.547 1.72,0.17 0.163,-0.645 -1.14,-0.448 0.242,-0.754 0.708,-1.147 0.966,-0.62 0.3,-0.878 -0.93,-0.288 -1.23,0.59 -3.424,0.582 -4.423,0.022 -0.443,-0.225 -0.873,-0.434 -1.077,-0.447 -0.42,-0.017 -0.196,0.42 -0.012,0.553 z m -12.887,2.104 1.916,1.498 -1.96,-0.188 z m -43.4,37.64 c -0.387,0 -0.702,0.315 -0.702,0.702 0,0.387 0.316,0.702 0.703,0.702 0.387,0 0.702,-0.315 0.702,-0.702 0,-0.387 -0.315,-0.702 -0.702,-0.702 z m 2.558,0.71 -8.788,4.17 2.323,0.78 -0.02,2.403 2.14,-0.683 0.907,2.246 z m 0.39,1.964 c -0.386,0 -0.7,0.315 -0.7,0.702 0,0.387 0.314,0.702 0.7,0.702 0.388,0 0.703,-0.315 0.703,-0.702 0,-0.387 -0.315,-0.702 -0.702,-0.702 z m -11.142,4.27 c -0.387,0 -0.702,0.31 -0.702,0.697 0,0.387 0.315,0.702 0.702,0.702 0.387,0 0.702,-0.316 0.702,-0.703 0,-0.387 -0.315,-0.698 -0.702,-0.698 z m 2.7,1.305 -9.865,4.532 2.925,0.89 -0.773,3.01 2.382,-1 1.33,2.02 z m 0.292,2.157 c -0.387,0 -0.702,0.315 -0.702,0.702 0,0.387 0.315,0.702 0.702,0.702 0.387,0 0.697,-0.315 0.697,-0.702 0,-0.387 -0.31,-0.702 -0.697,-0.702 z m -19.575,0.452 c 3.71,-0.005 7.87,1.406 9.29,4.582 0.378,1.588 -1.183,2.533 -4.515,1.62 -5.51,-1.51 -6.537,-1.68 -5.622,-0.745 0.12,0.125 0.364,0.427 1.188,0.708 2.075,0.707 6.09,1.526 7.175,1.414 1.48,-0.196 2.505,0.493 2.136,1.726 -0.42,1.402 -2.342,1.975 -5.232,1.568 -2.993,-0.422 -4.64,-0.767 -5.636,-1.068 -1.277,-0.386 -1.32,-0.353 -0.716,0.544 0.315,0.467 0.346,0.84 0.812,0.928 1.977,-0.112 4.08,0.266 5.896,0.437 3.257,0.292 3.767,1.215 1.375,2.626 -1.134,0.67 -4.526,0.485 -6.453,-0.208 -1.378,-0.496 -4.536,-1.205 -3.318,-0.244 0.292,0.232 0.192,0.8 0.702,0.977 1.67,0.23 6.392,0.56 7.13,1.23 0.476,0.43 -0.595,1.522 -2.8,2.092 -3.318,0.628 -8.28,0.366 -9.59,-0.53 -2.427,-4.94 -1.12,-13.028 2.678,-16.19 1.212,-0.948 3.275,-1.464 5.5,-1.466 z m 21.753,2.577 c -0.386,0 -0.697,0.316 -0.697,0.703 0,0.387 0.312,0.697 0.698,0.697 0.387,0 0.703,-0.31 0.703,-0.697 0,-0.387 -0.315,-0.702 -0.702,-0.702 z m 2.93,0.75 -10.186,5.073 2.577,0.765 -0.612,2.964 2.387,-0.983 1.446,1.993 z m 0.08,2.482 c -0.387,0 -0.702,0.315 -0.702,0.702 0,0.387 0.315,0.702 0.702,0.702 0.387,0 0.702,-0.315 0.702,-0.702 0,-0.387 -0.315,-0.702 -0.702,-0.702 z m 5.924,5.982 c -4.518,4.396 -9.608,7.88 -14.26,12.148 l 1.01,-0.04 2.533,-2.286 71.36,-0.224 -1.667,2.434 0.7,0.3 c 0,0 2.14,-3.163 1.996,-3.308 -15.68,0.045 -27.78,0.008 -44.98,0.127 -3.134,-3.105 -6.446,-6.014 -9.723,-8.963 z m -21.69,2.82 c -0.388,0 -0.703,0.314 -0.703,0.7 0,0.388 0.314,0.703 0.7,0.703 0.388,0 0.698,-0.315 0.698,-0.702 0,-0.387 -0.31,-0.702 -0.697,-0.702 z m 93.16,0.536 c 6.165,4.575 13.468,10.185 19.53,13.516 2.427,1.054 2.192,1.414 -0.275,2.58 -2.424,1.506 -6.46,3.448 -9.824,5.144 -1.458,0.55 -2.095,-0.167 -3.13,0.024 -0.746,0.19 -0.96,0.33 -1.404,0.92 -0.73,0.963 -0.53,0.93 -4.43,0.754 -3.933,-0.178 -5.555,-0.09 -6.4,0.34 -0.813,0.416 -2.208,1.832 -2.208,2.42 0,0.565 -0.444,1.29 -1.254,1.534 -0.944,0.23 -2.032,0.976 -1.986,2.135 -0.253,0.873 -0.786,1.26 -1.26,1.737 -1.12,1.13 -1.01,2.02 -0.685,3.07 0.15,0.472 0.378,0.362 0.262,1.753 -0.268,3.188 -0.487,2.92 2.923,5.278 l -17.422,15.18 c -0.402,0.317 -0.52,0.286 -0.888,0.033 -2.125,-1.577 -3.603,-4.184 -4.455,-6.792 -2.943,-8.108 0.65,-14.77 5.426,-18.844 1.655,-1.413 3.88,-3.096 4.497,-3.52 8.995,-7.67 16.817,-18.534 22.983,-27.262 z m -90.56,0.593 -9.96,4.703 3.207,0.54 -0.614,2.772 2.323,-0.88 1.23,2.335 z m 0.608,2.198 c -0.387,0 -0.702,0.316 -0.702,0.703 0,0.387 0.315,0.697 0.702,0.697 0.387,0 0.698,-0.31 0.698,-0.697 0,-0.387 -0.31,-0.702 -0.698,-0.702 z m 91.26,3.085 -1.132,-2.674 c 0,0 -3.146,7.75 -3.812,10.375 2.666,-1.373 10.473,-5.348 10.473,-5.348 l -3.342,-0.62 0.378,-3.034 z m -113.765,0.478 c -0.387,0 -0.702,0.315 -0.702,0.702 0,0.387 0.315,0.702 0.702,0.702 0.387,0 0.702,-0.315 0.702,-0.702 0,-0.387 -0.315,-0.702 -0.702,-0.702 z m 3.05,0.64 c 0,0 -7.41,3.477 -10.756,4.978 l 3.122,0.655 -0.548,3.037 2.818,-1.1 1.137,3.002 z m 0.396,2.293 c -0.386,0 -0.7,0.315 -0.7,0.702 0,0.387 0.314,0.698 0.7,0.698 0.388,0 0.704,-0.31 0.704,-0.698 0,-0.387 -0.316,-0.702 -0.703,-0.702 z m 104.874,0.505 c -0.387,0 -0.703,0.31 -0.703,0.698 0,0.387 0.317,0.702 0.704,0.702 0.386,0 0.697,-0.315 0.697,-0.702 0,-0.387 -0.31,-0.697 -0.696,-0.697 z m 12.116,0.636 -3.527,9.802 9.54,-4.802 -2.59,-0.708 0.013,-2.425 -2.13,0.62 z m -112.738,2.356 c -0.386,0 -0.702,0.315 -0.702,0.702 0,0.387 0.316,0.702 0.702,0.702 0.387,0 0.703,-0.315 0.703,-0.702 0,-0.387 -0.316,-0.702 -0.703,-0.702 z m 104.337,0.178 c -0.388,0 -0.698,0.315 -0.698,0.702 0,0.387 0.31,0.698 0.697,0.698 0.386,0 0.7,-0.31 0.7,-0.698 0,-0.387 -0.314,-0.702 -0.7,-0.702 z m -101.412,0.72 -10.11,4.93 3.138,0.735 -0.344,3.156 2.55,-1.448 1.386,2.878 z m 0.63,2.084 c -0.386,0 -0.662,0.315 -0.662,0.702 0,0.387 0.315,0.697 0.702,0.697 0.387,0 0.697,-0.31 0.697,-0.697 0,-0.387 -0.35,-0.702 -0.736,-0.702 z m 105.115,0.62 c -0.387,0 -0.702,0.315 -0.702,0.702 0,0.387 0.316,0.697 0.703,0.697 0.387,0 0.702,-0.31 0.702,-0.697 0,-0.387 -0.315,-0.702 -0.702,-0.702 z m -13.93,3.224 -0.938,-2.64 -3.74,9.678 10.057,-4.607 -3.19,-0.75 0.055,-2.527 z m -10.217,-2.083 c -0.115,-0.007 -0.216,0.025 -0.216,0.1 0,0.224 -2.57,2.735 -2.57,2.735 l -29.683,0.274 c 0.06,0.005 2.47,0.672 2.47,0.672 3.894,3.11 9.996,8.63 9.996,8.63 l 7.37,-0.295 c 4.08,-4.005 10.21,-7.052 12.946,-12 -0.068,-0.067 -0.2,-0.11 -0.314,-0.115 z m 27.825,1.994 c -0.386,0 -0.702,0.315 -0.702,0.702 0,0.386 0.316,0.697 0.703,0.697 0.388,0 0.698,-0.312 0.698,-0.698 0,-0.387 -0.31,-0.703 -0.697,-0.703 z m -22.913,3.378 c -0.387,0 -0.698,0.31 -0.698,0.697 0,0.387 0.31,0.702 0.697,0.702 0.387,0 0.702,-0.315 0.702,-0.702 0,-0.387 -0.316,-0.697 -0.703,-0.697 z m 15.068,1.013 c 2.128,-0.01 4.177,0.064 4.708,0.468 3.29,2.77 1.73,15.713 -2.415,17.347 -4.55,1.024 -7.695,1.214 -11.643,-1.39 -1.12,-0.546 -3.342,-2.196 -2.908,-3.558 0.59,-1.674 2.218,-1.552 6.88,-0.1 1.703,0.53 2.64,0.422 3.074,0.09 0.406,-0.31 -0.125,-0.655 -0.995,-0.658 -0.35,-0.003 -1.858,-0.375 -3.116,-0.76 -1.776,-0.547 -2.286,-0.707 -3.434,-0.775 -1.93,-0.115 -2.49,-0.19 -2.49,-1.37 0,-2.205 3.065,-2.497 8.708,-1.203 0.674,0.155 1.897,0.326 2.197,0.317 0.22,0.082 -0.43,-0.73 -0.537,-1.217 -0.204,-0.174 -0.57,-0.256 -1.53,-0.29 -3.628,-0.355 -6.64,-0.6 -6.706,-1.076 -0.32,-2.333 4.373,-2.968 9.24,-1.096 1.25,0.48 1.275,0.283 1.265,-0.08 -0.018,-0.673 -2.11,-1.847 -5.195,-1.815 -3.002,0.03 -2.583,-1.494 -0.116,-2.64 0.845,-0.392 2.888,-0.183 5.015,-0.194 z m -11.606,2.502 c -0.388,0 -0.698,0.315 -0.698,0.702 0,0.387 0.31,0.702 0.697,0.702 0.386,0 0.7,-0.315 0.7,-0.702 0,-0.387 -0.314,-0.702 -0.7,-0.702 z m -10.816,4.843 -0.634,-2.615 -4.084,10.176 10.314,-5.253 -3.4,-0.638 0.297,-2.142 z m -5.256,4.086 c -0.387,0 -0.702,0.316 -0.702,0.703 0,0.387 0.315,0.702 0.702,0.702 0.387,0 0.698,-0.315 0.698,-0.702 0,-0.387 -0.31,-0.702 -0.698,-0.702 z m 10.276,2.888 -0.868,-2.473 -3.468,8.858 8.8,-3.93 -2.6,-0.71 0.37,-2.685 z m -7.006,0.026 c -0.387,0 -0.702,0.315 -0.702,0.702 0,0.387 0.315,0.702 0.702,0.702 0.387,0 0.698,-0.315 0.698,-0.702 0,-0.387 -0.31,-0.702 -0.698,-0.702 z m 2.253,3.383 c -0.386,0 -0.7,0.31 -0.7,0.697 0,0.387 0.314,0.702 0.7,0.702 0.388,0 0.7,-0.315 0.7,-0.702 0,-0.387 -0.312,-0.697 -0.7,-0.697 z m -4.422,2.074 -2.97,8.39 8.27,-4.003 -2.417,-0.796 c 0,0 0.134,-1.886 -0.093,-1.798 -0.145,0.055 -1.7,0.49 -1.7,0.49 z m 7.362,1.005 c -0.387,0 -0.703,0.31 -0.703,0.697 0,0.387 0.316,0.702 0.703,0.702 0.386,0 0.702,-0.315 0.702,-0.702 0,-0.387 -0.316,-0.697 -0.702,-0.697 z m -10.965,4.035 c -0.387,0 -0.702,0.316 -0.702,0.702 0,0.387 0.315,0.703 0.702,0.703 0.387,0 0.702,-0.316 0.702,-0.703 0,-0.386 -0.315,-0.702 -0.702,-0.702 z m 3.162,3.246 c -0.387,0 -0.703,0.31 -0.703,0.697 0,0.387 0.316,0.703 0.703,0.703 0.386,0 0.702,-0.316 0.702,-0.703 0,-0.386 -0.317,-0.697 -0.703,-0.697 z m -43.62,38.638 c -0.38,0.056 -1.364,-0.844 -1.556,-1.266 0.563,-0.143 1.142,-0.038 1.456,0.226 0.26,0.246 0.443,0.878 0.1,1.04 z m 2.994,-0.607 c -0.133,1.025 0.502,2.878 0.38,3.32 -0.324,0.158 -1.97,-1.607 -2.374,-2.036 -0.085,-0.584 0.01,-1.328 0.04,-1.664 0.564,-0.1 1.567,-0.062 1.955,0.38 z m 2.963,0.51 c 0.35,2.272 1.35,5.923 1.195,7.155 -0.148,-0.118 -1.417,-1.37 -2.353,-2.695 -0.33,-0.795 -0.843,-3.56 -0.8,-4.883 0.633,-0.086 1.48,0.015 1.958,0.423 z m -19.847,-0.255 c -1.01,0.516 -2.162,0.887 -3.606,0.88 -1.158,-0.004 -3.152,-0.604 -2.95,-0.456 0.527,0.942 1.904,0.448 1.93,1.064 -0.342,0.608 -1.257,0.55 -1.712,1.134 -0.096,0.154 0.135,0.285 0.78,0.217 1.955,-0.886 4.51,-0.87 6.85,-0.1 0.49,0.1 0.168,-0.37 0,-0.494 -0.303,-0.223 -0.805,-0.457 -1.227,-0.508 -2.042,-0.363 -1.145,-0.568 0.222,-1.18 1.003,-0.366 1.255,-1.268 -0.286,-0.556 z m 4.426,2.886 c -0.27,0.02 -0.952,0.367 -1.697,0.668 -1.26,0.51 -2.423,0.39 -4.116,-0.082 -1.472,-0.41 -2.008,-0.295 -3.472,0.442 -0.97,0.623 -2.035,0.796 -2.805,0.36 -0.997,-0.566 -0.99,-0.37 -0.496,1.03 0.123,0.35 -0.12,1.41 0.314,1.654 0.33,0.186 0.712,-0.433 0.967,-0.52 0.255,-0.085 1.86,0.635 2.755,-0.158 1.598,-0.58 2.078,0.36 3.184,0.27 1.796,-0.633 2.92,-1.293 4.462,-0.07 0.09,-0.46 0.45,-2.96 1.024,-3.55 -0.014,-0.035 -0.057,-0.05 -0.12,-0.044 z m -3.27,7.198 c -1.293,0.016 -1.993,0.81 -3.66,0.658 -1.33,-0.094 -1.786,1.087 -1.222,1.947 0.397,0.607 0.928,0.72 2.742,-0.113 0.747,-0.342 1.784,-1.094 2.39,-1.034 1.775,0.177 2.204,1.893 0.726,3.342 -0.72,0.423 -0.725,0.882 -0.506,0.89 0.584,0.023 1.767,-0.675 2.036,-1.49 0.735,-2.227 -0.587,-4.24 -2.507,-4.2 z m 5.797,10.266 c -1.683,0.354 -4.106,2.284 -4.93,3.533 -0.77,1.218 -1.51,2.594 -0.97,3.274 0.44,0.557 1.06,1.1 1.112,1.4 0.046,0.265 -0.314,0.527 -0.652,0.904 -1.476,1.652 -1.125,1.742 0.945,0.67 1.05,-0.543 1.537,-0.76 2.222,-0.583 1.996,0.522 4.48,0.15 6.17,-0.47 0.763,-0.28 1.51,-0.66 1.567,-0.466 -3.083,3.392 -6.927,2.538 -8.3,2.332 -0.238,-0.062 -0.423,-0.048 -0.423,0.034 0,0.165 0.4,0.523 1.247,0.9 1.416,0.627 4.82,-0.04 6.948,-1.593 4.208,-2.753 6.528,-5.384 3.212,-4.284 -1.52,0.504 -2.09,0.416 -3.938,-0.42 -2.77,-1.25 -4.89,-1.616 -7.185,-0.816 -2.905,1.013 -0.677,-1.382 2.592,-3.458 0.708,-0.45 0.796,-0.966 0.382,-0.958 z m -15.673,7.156 -0.97,0.014 c -0.692,-2.333 -2.367,-2.33 -3.092,0.015 l -0.81,-0.057 c 0.794,-2.91 3.79,-3.51 4.872,0.028 z m 17.234,0.193 -0.726,0.034 c -0.442,-1.414 -1.998,-2.657 -3.094,-0.34 l -0.505,-0.105 c 0.896,-3.7 4.47,-1.643 4.326,0.41 z m -4.852,-2.125 c 0.453,0 0.568,0.515 0.053,1.35 -0.362,0.59 -0.793,0.536 -1.226,0.092 -0.39,-0.39 -0.366,-0.46 0.058,-0.846 0.452,-0.41 0.844,-0.595 1.116,-0.595 z m 5.36,0.014 c 0.198,-0.007 0.573,0.155 0.993,0.297 1.106,0.373 1.357,0.682 0.904,1.135 -0.445,0.445 -1.29,0.58 -1.678,0.326 -0.018,-0.556 -0.57,-0.984 -0.588,-1.542 0,-0.15 0.174,-0.21 0.37,-0.217 z m -17.305,0.018 c 0.766,-0.035 1.793,0.42 1.718,0.86 -0.08,0.484 -0.836,0.8 -1.46,0.853 -0.416,0.055 -0.4,-0.114 -0.51,-0.41 -0.096,-0.264 -0.222,-0.602 -0.293,-0.866 -0.172,-0.508 0.154,-0.42 0.546,-0.436 z m -5.238,0.168 c 0,0 -0.43,1.277 -0.62,1.712 -1.604,-0.086 -1.452,-0.792 -0.695,-1.303 0.407,-0.31 0.82,-0.316 1.315,-0.41 z m -1.244,3.035 c 0.29,0.006 0.65,0.257 1.155,0.42 1.42,0.456 3.777,0.405 5.617,-0.02 0.88,-0.203 1.297,-0.476 1.49,-0.337 0.345,0.25 -0.012,1.12 -1.284,1.68 -1.656,0.61 -4.183,0.94 -6.097,-0.035 -1.636,-0.835 -1.818,-1.724 -0.88,-1.707 z m -0.437,1.828 c 1.502,0.992 3.004,1.304 4.86,1.132 2.782,-0.102 3.277,-0.444 0.935,0.796 -2.165,1.147 -5.503,0.936 -6.146,-0.307 -0.368,-0.714 -0.13,-1.562 0.35,-1.622 z m 13.474,1.664 c -0.01,0 -0.017,0.002 -0.024,0.005 0.224,1.5 2.744,2.873 3.953,3.197 2.565,1.138 6.643,0.012 9.713,-1.312 2.24,-0.967 3.05,-2.426 0.38,-1.597 -4.297,1.335 -9.69,1.435 -12.392,0.4 -0.878,-0.417 -1.48,-0.7 -1.63,-0.693 z m -14.14,5.618 c 5.378,1.214 11.877,9.505 11.853,13.13 l -1.737,0 c -2.643,-9.222 -9.51,-11.218 -10.18,-11.768 -0.308,-1.132 0.078,-1.39 0.065,-1.362 z m -0.084,2.336 c 6.39,2.8 8.663,7.793 9.62,10.795 l -1.868,0 c -1.392,-4.13 -3.894,-7.076 -7.766,-8.91 -0.264,-0.575 0.013,-1.884 0.013,-1.884 z m -0.01,2.827 c 3.275,0.965 6.163,5.276 6.983,7.968 l -1.635,-0.01 c -1.158,-3.003 -2.8,-4.93 -5.41,-6.04 -0.107,-0.565 -0.085,-1.205 0.064,-1.917 z m -0.052,2.928 c 1.538,0.31 4.142,2.7 4.516,5.04 l -1.5,0 c -0.53,-1.577 -2.165,-3.018 -3.003,-3.606 l -0.012,-1.433 z m 0.16,2.5 c 0.164,-0.103 2.46,1.964 2.072,2.54 l -2.068,0 c -0.023,-0.642 -0.038,-2.547 -0.01,-2.54 z"
         id="path4595" />
      <path
         style="fill:#d40000"
         inkscape:connector-curvature="0"
         d="m 2666.824,687.52 c -3.897,7.547 -23.892,41.54 -24.095,42.724 l 5.12,2.265 24.86,-44.818 c 0,0 -5.152,-0.168 -5.886,-0.173 z m 58.7,28.39 -2.324,3.264 1.976,3.582 2.006,-3.544 z m -91.34,34.106 c 0,0 -7.17,7.124 -9.97,10.447 6.022,6.01 17.535,13.555 17.62,25.166 l 7.937,0.03 25.693,22.98 c 0,0 23.266,0.168 23.7,0.067 0.468,-0.11 8.734,-11.94 8.734,-11.94 l 14.743,10.747 c 0,0 -0.707,-11.576 -1.264,-18.67 -0.182,-4.744 -0.34,-7.662 3.13,-9.762 -4.767,-2.27 -4.465,-6.447 -0.96,-9.513 -1.157,-1.6 -2.885,-1.895 -3.145,-7.56 -0.728,-0.783 -1.42,-1.24 -2.33,-1.905 l -0.953,0.85 c -3.06,2.747 -5.143,5.55 -5.486,7.372 -0.653,3.472 2.872,5.85 4.91,3.314 0.575,-0.714 1.087,-0.514 1.087,0.42 0,1.892 -2.38,2.96 -4.395,1.975 -0.47,-0.23 -0.886,-0.383 -0.928,-0.34 -0.073,0.072 1.998,5.145 2.558,6.265 0.93,1.86 1.42,3.73 1.49,5.688 0.078,2.09 0.036,2.357 -0.942,5.968 -0.92,3.4 -0.487,5.424 1.16,5.424 0.926,0 0.897,0.89 -0.04,1.216 -1.99,0.694 -3.223,-0.772 -3.293,-3.904 -0.043,-1.904 -0.076,-1.95 -1.053,-1.49 -3.403,1.598 -7.098,-1.26 -5.497,-4.252 0.337,-0.628 0.734,-0.43 0.943,0.467 0.39,1.682 1.273,2.424 2.866,2.418 3.672,-0.013 5.21,-5.2 3.092,-10.425 -0.425,-1.048 -0.64,-0.988 -1.198,0.337 -0.875,2.08 -2.343,2.69 -3.553,1.48 -0.406,-0.405 -0.602,-1.063 -0.327,-1.095 0.063,-0.008 0.467,-0.025 0.894,-0.04 2.14,-0.067 2.878,-2.143 1.876,-5.264 -0.88,-2.743 -1.017,-3.24 -1.28,-4.727 -0.405,-2.297 -0.122,-4.04 1.015,-6.27 0.2,-0.393 1.455,-1.795 3.015,-3.37 1.592,-1.61 2.962,-2.842 2.962,-2.842 0,0 -0.805,-0.695 -1.897,-1.515 -2.3,-1.728 -2.708,-2.026 -2.708,-2.026 0,0 -10.933,30.02 -10.158,41.716 -1.388,15.41 -12.717,11.147 -13.552,0.475 z m -0.487,4.5 c 3.737,-0.06 6.2,4.88 7.608,15.134 0.466,3.398 2.537,8.156 4.04,9.28 3.79,2.838 9.722,0.65 9.727,-3.587 0.01,-5.276 -7.402,-6.058 -7.516,-0.793 -0.027,1.24 -0.664,1.305 -1.274,0.125 -0.545,-1.053 -0.055,-3.02 1.005,-4.015 0.678,-0.637 0.625,-0.757 -0.67,-1.472 -4.505,-2.487 -6.423,-6.197 -4.014,-7.775 1.053,-0.69 2.493,0.182 1.832,1.11 -1.032,1.45 -1.045,1.68 -0.183,2.886 0.98,1.368 2.143,2.05 4.9,2.865 2.315,0.683 2.696,0.81 3.765,1.298 3.13,1.426 4.56,4.567 3.467,7.617 -0.257,0.72 -0.508,1.43 -0.557,1.577 -0.113,0.335 0.07,0.337 2.274,0.043 3.507,-0.466 7.4,0.786 9.32,2.996 1.032,1.188 1.86,3.86 1.885,6.088 0.01,0.43 0.137,1.398 0.298,2.154 0.16,0.756 0.375,2.033 0.472,2.837 0.917,7.628 7.267,11.53 10.01,6.15 1.728,-3.385 -2.265,-6.77 -4.298,-3.645 -0.714,1.098 -1.45,0.593 -1.038,-0.71 0.798,-2.537 3.964,-2.968 6.12,-0.833 1.166,1.154 1.725,3.772 1.16,5.434 -0.298,0.872 -0.267,0.928 0.38,0.703 1.448,-0.505 3.952,-0.02 4.85,0.942 2.118,2.265 1.693,4.985 -0.913,5.867 -1.185,0.397 -2.528,-0.016 -2.967,-1.405 -0.193,-0.99 0.488,-1.274 1.015,-0.423 0.985,1.595 3.132,0.31 2.625,-1.572 -0.576,-2.14 -2.406,-2.596 -5.785,-1.433 -5.37,1.847 -7.104,1.693 -9.675,-0.862 -1.835,-1.823 -2.525,-3.4 -3.02,-6.876 -0.545,-3.84 -0.597,-3.94 -1.548,-3.13 -4.545,3.866 -10.548,-1.977 -6.698,-5.82 1.19,-1.19 2.067,-0.152 0.995,1.18 -1.565,1.943 0.474,4.65 3.03,4.02 4.65,-1.15 3.7,-7.956 -1.333,-9.546 -1.535,-0.485 -5.75,-0.284 -8.992,0.428 -9.054,1.987 -13.054,-1.877 -14.917,-14.397 -0.217,-1.463 -0.472,-2.544 -1.332,-5.693 -1.02,-3.737 -4.488,-5.765 -6.38,-3.732 -1.51,1.62 -0.716,3.803 1.384,3.81 2.094,0.004 1.452,1.44 -0.73,1.634 -3.79,0.336 -4.448,-5.97 -0.813,-7.776 0.887,-0.44 1.715,-0.67 2.49,-0.683 z m -49.44,2.33 1.176,4.486 4.68,1.322 -1.484,-4.27 z m 12.01,1.338 -1.257,4.06 3.55,-0.87 1.156,-4.235 z m 38.508,6.648 c 0.743,0 1.346,0.602 1.346,1.346 0,0.744 -0.602,1.346 -1.345,1.346 -0.744,0 -1.347,-0.602 -1.347,-1.346 0,-0.744 0.603,-1.346 1.347,-1.346 z m -45.127,2.422 -3.69,1.292 -0.712,3.22 3.864,-0.996 z m 8.806,1.018 -3.015,-0.52 0.847,3.323 3.194,1.305 z m 130.91,-0.255 -1.94,1.51 c 5.654,4.912 -0.448,9.647 -0.638,9.327 4.087,2.704 3.36,6.97 2.83,10.877 -0.97,6.97 -1.345,13.56 -2.4,20.702 0,0 4.923,3.397 8.198,4.712 0.062,0.008 0.02,-41.902 0.02,-41.902 z m -69.758,6.312 c 0.744,0 1.347,0.6 1.347,1.345 0,0.744 -0.603,1.346 -1.347,1.346 -0.743,0 -1.346,-0.6 -1.346,-1.345 0,-0.744 0.603,-1.346 1.346,-1.346 z m -82.652,3.445 0.17,39.107 8.094,-14.475 -5.57,-6.425 4.815,-5.14 z m 78.825,5.96 c 0.742,0 1.345,0.602 1.345,1.346 0,0.744 -0.603,1.347 -1.346,1.347 -0.745,0 -1.348,-0.603 -1.348,-1.346 0,-0.743 0.603,-1.346 1.347,-1.346 z m 18.377,4 c 0.744,0 1.346,0.603 1.346,1.346 0,0.745 -0.602,1.348 -1.346,1.348 -0.744,0 -1.346,-0.603 -1.346,-1.347 0,-0.742 0.603,-1.345 1.347,-1.345 z m 52.644,43.566 5.948,6.104 -4.645,5.783 7.313,12.41 -0.117,-38.397 z m -149.92,-12.843 0.282,42.063 6.358,4.638 1.613,-1.523 c -4.103,-4.382 -1.653,-7.64 1.44,-9.527 -5.456,-1.27 -3.8,-8.508 -3.474,-11.862 -0.134,-6.226 2.148,-13.33 1.445,-19.317 z m 36.62,5.847 -9.113,12.696 c 0,0 -10.014,-7.584 -15.063,-11.006 0.54,5.48 1.033,12.47 1.703,18.362 1.638,8.606 -2.625,8.754 -2.665,9.578 6.776,5.142 1.09,9.95 0.07,9.71 3.608,1.964 3.31,7.933 3.31,7.933 l 1.712,0.968 c 0,0 0.557,-0.34 0.794,-0.467 1.83,-0.984 4.813,-4.494 5.496,-6.81 1.158,-3.925 -2.25,-7.186 -4.395,-4.202 -1.055,1.466 -1.898,0.486 -1.035,-1.202 0.788,-1.54 2.845,-2.314 4.212,-1.582 0.795,0.426 0.617,-0.678 -0.61,-3.77 -0.412,-1.037 -0.747,-2.168 -1.328,-4.462 -0.562,-2.22 -0.344,-4.894 0.63,-7.617 1.402,-3.925 0.904,-6.387 -1.342,-6.602 -1.2,-0.114 -1.33,-0.49 -0.35,-1.043 2.18,-1.236 4.297,0.524 4.21,3.506 -0.046,1.612 -0.028,1.64 0.823,1.298 4.307,-1.726 7.71,2.742 4.7,6.17 -0.92,1.048 -1.5,0.384 -0.895,-1.024 0.935,-2.174 0.044,-3.724 -2.145,-3.74 -3.176,-0.025 -4.934,4.363 -3.683,9.19 0.39,1.505 0.45,1.524 1.505,0.518 0.936,-0.893 1.636,-1.18 2.36,-0.962 1.504,0.45 1.9,2.05 0.458,1.85 -2.476,-0.34 -3.127,2.255 -1.727,6.868 1.86,6.12 -0.022,11.11 -5.52,14.657 -0.278,0.18 -0.72,0.524 -0.72,0.524 2.12,1.89 3.476,2.964 6.278,4.67 l 10.005,-40.424 c 0,0 -0.17,-2.296 -0.415,-3.378 -0.01,-10.85 10.116,-11.89 13.285,-2.037 0.304,0.947 1.914,3.362 1.914,3.362 l 52.704,46.77 c 0,0 9.84,-9.508 9.705,-9.76 -7.476,-7.534 -17.572,-12.86 -17.94,-24.814 -1.79,-0.052 -7.78,0.058 -7.78,0.058 l -25.627,-23.505 c -8.043,0.052 -15.176,-0.523 -23.523,-0.276 z m 14.36,0.88 c 1.407,-0.044 2.827,0.688 2.827,1.86 0,1.014 -0.678,1.246 -1.24,0.425 -0.786,-1.15 -1.698,-1.24 -2.626,-0.266 -2.57,2.704 1.426,5.175 6.02,3.722 2.816,-0.89 4.18,-1.13 5.21,-0.923 4.34,0.87 6.438,3.8 6.808,9.506 0.188,2.9 0.183,2.89 1.438,1.74 3.054,-2.8 7.468,-1.24 8.155,2.88 0.296,1.77 -1.608,3.996 -3.418,3.996 -0.71,0 -0.597,-0.74 0.17,-1.106 1.84,-0.877 1.912,-3.78 0.124,-4.914 -2.374,-1.505 -5.502,0.843 -5.463,4.102 0.047,3.917 2.973,5.722 8.752,5.39 0.846,-0.048 2.97,-0.148 4.717,-0.22 2.76,-0.12 5.727,-0.64 8.54,1.485 2.946,2.343 4.9,7 5.737,13.73 1.316,8.28 2.334,10.5 5.115,10.7 1.65,0.117 3.05,-1.29 3.05,-2.92 0,-1.152 -1.524,-2.167 -2.68,-1.785 -1.395,0.46 -1.677,-1.05 -0.302,-1.625 1.903,-0.796 4.228,0.737 4.746,3.13 0.3,1.395 -1.274,4.07 -2.925,4.738 -4.306,1.742 -7.368,-1.815 -8.377,-9.776 -0.618,-3.65 -0.958,-6.113 -2.096,-9.233 -2.09,-5.742 -5.523,-8.112 -9.262,-6.394 -4.233,1.945 -3.393,8.283 1.092,8.237 2.464,0.195 2.98,-1.616 3.03,-3.555 0.06,-1.43 1.68,-0.087 1.82,0.897 0.13,1.194 -0.94,2.672 -1.884,3.37 -1.527,1.023 -0.984,0.96 0.578,1.37 4.198,0.773 7.32,6.33 4.81,8.216 -1.306,0.796 -2.69,-0.375 -1.787,-1.524 1.437,-1.828 -0.996,-4.716 -5.425,-5.686 -5.8,-1.27 -8.11,-5.59 -6.02,-10.026 0.693,-1.468 0.753,-1.434 -2.076,-1.274 -6.227,0.35 -8.437,-0.51 -10.527,-4.117 -0.63,-1.088 -0.91,-2.545 -1.044,-5.438 -0.24,-5.18 -0.713,-8.387 -1.366,-9.29 -3.233,-4.472 -9.958,-3.134 -9.118,1.812 0.442,2.598 3.126,3.43 4.958,1.54 1.384,-1.43 2.03,-0.102 0.678,1.394 -3.25,3.6 -8.908,-0.6 -7.227,-5.366 0.385,-1.09 0.436,-1.055 -1.65,-1.115 -4.64,-0.135 -6.847,-4.105 -3.856,-6.93 0.523,-0.495 1.252,-0.732 1.99,-0.755 z m 11.194,17.042 c 0.744,0 1.347,0.603 1.347,1.347 0,0.743 -0.602,1.346 -1.346,1.346 -0.743,0 -1.346,-0.604 -1.346,-1.347 0,-0.744 0.603,-1.347 1.346,-1.347 z m 18.653,4.78 c 0.743,0 1.346,0.603 1.346,1.346 0,0.744 -0.603,1.347 -1.346,1.347 -0.744,0 -1.347,-0.604 -1.347,-1.348 0,-0.743 0.603,-1.346 1.347,-1.346 z m -4.006,8.785 c 0.745,0 1.348,0.604 1.348,1.348 0,0.743 -0.603,1.346 -1.347,1.346 -0.742,0 -1.345,-0.603 -1.345,-1.346 0,-0.744 0.603,-1.347 1.346,-1.347 z m 59.277,5.238 0.854,3.982 3.09,0.814 -0.48,-3.413 z m 10.81,1.378 -0.066,2.362 2.75,0.323 0.972,-4.07 z m -46.148,3.565 c 0.742,0 1.345,0.604 1.345,1.348 0,0.743 -0.603,1.346 -1.346,1.346 -0.745,0 -1.348,-0.603 -1.348,-1.346 0,-0.744 0.603,-1.347 1.347,-1.347 z m 39.475,5.486 -3.23,0.897 -1.554,4.487 4.138,-1.498 z m 6.32,0.404 0.396,3.325 3.982,1.8 -1.346,-4.74 z m -58.676,28.342 -24.715,44.68 6.753,-0.095 23.326,-42.13 z m -77.73,10.816 -2.183,2.938 2.072,3.41 2.38,-3.424 z"
         id="path4597" />
      <path
         inkscape:connector-curvature="0"
         d="m 2560.162,671.736 c -3.044,0.013 -6.1,2.062 -6.958,6.05 -0.192,0.89 -0.267,2.428 -0.332,6.736 -0.096,6.382 -0.16,5.866 -0.16,5.866 l -2.735,-0.067 0.145,3.555 2.918,0.024 c -0.014,0.015 -0.063,0.207 0.03,2.215 0.23,5.004 1.01,6.782 3.846,8.127 1.918,0.91 5.463,0.904 7.07,-0.356 0.97,-0.616 1.068,-0.61 2.22,0.1 2.453,1.516 4.472,0.693 4.472,0.693 l -0.067,-3.636 c -3.863,-0.06 -4.377,-0.974 -3.365,-3.486 0.07,-0.176 0.08,-0.503 0.11,-0.933 0.286,-4.047 0.17,-17.69 -0.278,-19.316 -1.012,-3.664 -4.055,-5.587 -6.915,-5.574 z m -0.332,3.577 c 1.39,0.008 2.81,0.947 3.453,2.698 0.68,1.853 0.672,1.692 0.87,13.095 0.098,5.613 -0.138,5.59 -0.138,5.59 -2.155,-2.855 -4.88,-4.96 -7.865,-5.95 0,0 0.056,0.265 0,-5.268 -0.058,-5.713 0.01,-6.942 0.862,-8.433 0.675,-1.18 1.737,-1.737 2.818,-1.73 z m 69.196,11.087 c 4.55,13.797 4.973,27.393 1.024,40.457 2.25,0.114 12.066,2.63 17.47,5.966 -1,2.572 -16.318,21.41 -26.717,29.9 2.956,2.928 6.21,5.854 9.627,9.08 5.17,4.906 6.997,8.284 7.338,14.652 -0.046,3.075 -1.148,6.87 -3.106,9.554 -1.48,2.03 -3.052,3.59 -6.203,5.678 -2.91,1.926 -7.16,6.07 -12.504,12.18 -2.037,2.33 -5.476,6.572 -8.323,10.618 -1.078,1.47 -4.25,6.06 -4.25,6.06 -10.584,-8.636 -21.917,-15.297 -22.207,-15.246 0,0 11.434,-6.094 13.84,-7.336 1.847,1.185 4.356,0.17 3.15,-2.438 -2.314,-5.938 -0.7,-12.05 2.143,-16.316 0.68,-1.028 2.32,-1.628 4.97,-1.813 1.153,-0.075 2.37,-0.038 3.588,-0.053 0.44,0 1.625,0.17 2.275,0.524 2.162,1.18 2.595,-0.337 3.943,-5.448 1.34,-5.084 -0.817,-11.515 -3.895,-11.536 -0.722,-0.004 -1.13,0.262 -0.98,2.07 0.113,1.367 -0.215,2.075 -0.567,2.936 -0.768,1.88 -1.176,3.718 -1.42,6.17 0.45,0.09 -2.857,-3.29 -8.068,-4.63 -3.386,-0.402 -5.105,-4.618 -4.962,-4.627 0,0 0.507,-1.142 0.952,-1.587 1.157,0.553 2.293,1.204 3.664,1.606 0,0 -0.317,-1.693 -0.44,-2.15 -0.628,-2.354 -0.594,-2.713 0.314,-3.202 2.25,-1.212 2.488,-3.38 0.73,-5.352 -0.443,-0.504 -0.817,-0.828 -1.413,-1.082 l 1.112,-4.424 c 0,0 -1.018,0.22 -1.832,0.467 -2.355,0.714 -2.18,0.738 -3.183,-0.405 -2.185,-2.49 -5.522,-2.015 -6.02,0.856 -0.056,0.318 -0.203,0.823 -0.203,0.823 l -5.023,-2.437 c 0.148,1.178 1.452,5.17 1.452,5.17 -4.395,3.412 -0.68,6.436 0.52,6.755 0,0 -1.028,3.27 -1.38,4.626 l 4.956,-1.416 c 0.416,0.944 0.93,1.66 1.96,2.322 0.27,2.79 2.418,5.037 3.9,6.39 0,0 0.213,1.02 0.084,1.673 -0.32,1.62 1.328,4.188 1.607,4.342 -6.804,-2.783 -13.895,-6.122 -20.742,-9.4 l 0.428,84.145 c 0,0 1.594,1.428 4.756,3.693 1.52,1.088 1.52,1.092 1.202,2.346 -0.417,1.655 -0.314,2.917 1.097,13.802 0.748,5.757 1.56,11.726 2.29,17.08 0.288,1.95 0.33,3.202 0.33,3.202 -1.513,-0.7 -3.713,-0.77 -4.85,0.506 -1.963,2.235 -0.393,5.833 2.514,5.756 0.66,-0.04 1.11,-0.232 1.678,-0.62 0.395,-0.212 0.8,-0.027 0.8,-0.027 l -4.337,7.62 4.993,8.408 4.982,-8.99 -3.623,-7.114 c 0,0 0.354,-0.04 0.845,0.207 0.487,0.246 1.14,0.432 1.596,0.458 2.528,0.02 3.047,-1.133 3.313,-3.207 0,-2.67 -2.124,-3.876 -5.048,-2.87 -0.46,0.158 -0.966,0.202 -0.966,0.202 l 3.068,-29.347 1.644,1.207 0.54,-0.293 -1.44,-1.228 c 0.313,-4.702 -1.238,-6.368 -2.913,-7.506 5.603,-3.187 3.174,-8.225 -0.552,-9.776 0,0 2.42,-1.414 2.906,-2.898 0.412,-1.327 0.258,-3.43 -0.21,-7.16 -0.35,-5.754 -1.587,-17.64 -1.587,-17.64 4.895,3.69 9.92,7.64 14.647,11.373 l 9.473,-13.166 22.83,0.158 c 0,0 17.354,15.755 26.088,23.788 l 7.54,0.067 c 0,0 0.084,0.806 0.16,1.342 0.714,7.78 5.933,13.122 10.684,16.868 1.937,1.74 6.723,6.31 6.723,6.31 l -8.872,8.943 -54.328,-48.523 c 0,0 -0.26,-0.708 -0.365,-1.14 -1.255,-5.14 -4.66,-7.292 -7.757,-6.93 -3.25,0.38 -6.02,3.58 -5.88,9.027 0.02,0.842 0.326,2.327 0.326,2.327 l -9.924,41.34 c 0,0 -3.97,-3.03 -6.11,-4.487 l -0.473,0.274 5.81,4.366 0.432,-0.187 1.65,1.29 0.124,0.88 c 5.08,3.456 13.7,9.91 13.7,9.91 4.067,-3.024 8.343,-2.013 12.627,-0.876 0,0 3.113,1.04 4.77,1.034 8.416,0.19 15.87,1.825 23.692,4.65 l -28.516,50.55 54.318,0.11 c -2.678,-10.58 -5.522,-21.327 -0.438,-39.373 -5.357,-1.082 -17.268,-5.848 -17.268,-5.848 0,0 -0.056,-0.272 0.448,-0.89 2.2,-3.15 7.77,-11.684 12.988,-16.62 0.635,-0.454 9.73,-9.28 9.82,-9.558 0.05,-0.157 0.267,-0.752 0.624,-0.986 0.838,-0.56 3.067,-2.666 3.067,-2.666 l -11.382,-9.87 c 0,0 -0.5,-0.05 -0.662,-0.14 -1.59,-0.888 -4.458,-5.846 -5.164,-9.165 -1.625,-7.635 1.376,-13.672 9.843,-19.87 8.267,-5.66 23.943,-27.633 23.995,-28.12 8.453,6.998 15.052,10.62 22.49,15.21 -4.493,2.578 -8.156,4.302 -11.3,6.006 -2.04,1.164 -2.32,1.407 -4.044,0.92 -1.953,0.015 -2.62,0.768 -2.126,2.452 2.956,4.67 1.687,15.545 -2.31,17.64 -3.47,1.82 -6.842,1.328 -9.63,0.296 -2.15,-0.69 -2.123,-0.697 -3.082,1.255 -2.11,4.494 -2.246,8.28 -0.298,12.59 1.598,3.46 3.973,5.036 4.266,0.37 0.172,-2.738 1.38,-5.94 1.34,-8.883 2.424,2.675 4.03,3.898 8.007,4.987 2.667,0.415 5.5,3.76 5.413,5.125 -0.733,0.74 -0.956,1.684 -1.074,1.617 -1.3,-0.425 -4.113,-1.622 -4.113,-1.622 l 1.2,4.232 c 0,0 -0.2,0.19 -0.776,0.485 -2.647,1.35 -2.476,5.003 0.303,6.463 0.566,0.298 0.607,0.437 0.366,1.217 -0.346,1.735 -1.105,2.9 -1.515,4.62 0,0 0.378,0.015 3.55,-1.45 l 1.244,-0.578 0.75,0.803 c 1.643,1.755 3.616,1.745 5.338,-0.03 l 0.79,-0.812 2.2,1.116 c 2.076,1.052 2.622,1.27 2.622,1.27 0,0 -1.197,-4.644 -1.42,-5.175 -0.12,-0.288 -0.364,-0.58 -0.542,-0.645 -0.296,-0.11 -0.25,-0.18 0.538,-0.803 1.997,-1.582 2.197,-3.765 0.496,-5.424 -0.65,-0.633 -0.73,-0.765 -0.73,-0.765 l 1.032,-4.304 -4.287,1.42 c -0.677,-1.44 -1.752,-2.095 -2.43,-2.387 -0.074,-1.942 -0.317,-3.94 -3.655,-6.975 1.124,-1.027 -0.213,-3.502 -1.314,-4.986 1.878,0.63 6.573,2.616 6.573,2.616 l 0.71,-0.03 2.24,1.076 0.264,0.4 c 0,0 7.052,3.326 10.29,4.884 -0.01,-0.174 -0.033,-3.658 -0.043,-42.003 0,-22.863 0.032,-41.667 -0.014,-41.787 -0.046,-0.12 -0.82,-0.715 -1.626,-1.323 -1.484,-1.12 -1.788,-1.34 -3.673,-2.596 -1.512,-1.01 -1.41,-1.002 -1.096,-2.165 0.36,-1.336 0.353,-3.172 -0.125,-6.612 -0.354,-2.54 -1.634,-11.47 -2.525,-18.677 -0.626,-5.056 -0.774,-6.178 -0.928,-6.99 -0.248,-2.05 0.018,-2.94 -0.027,-2.97 7.082,3.066 7.64,-7.106 0.54,-5.732 1.36,-2.74 2.504,-4.01 3.668,-6.937 -1.48,-3.188 -4.758,-8.58 -4.758,-8.58 l -5.19,9.037 3.055,6.25 c -3.513,-0.632 -5.377,1.925 -4.727,4.218 0.706,2.028 2.65,2.597 4.366,1.78 1.32,-0.522 1.32,-0.654 0.15,9.256 -0.347,2.93 -1.886,16.632 -2.097,18.672 -0.143,1.37 -0.23,1.75 -0.79,1.447 -0.755,-0.325 -1.188,-0.8 -1.947,-1.298 l -0.423,0.393 c 0.674,0.547 1.473,1.254 2.29,2.004 -0.188,3.63 -0.114,5.73 2.906,7.502 -5.475,3.43 -2.274,8.71 0.942,9.474 -1.917,0.496 -3.807,2.96 -3.35,7.86 l 1.554,20.192 -14.845,-11.02 -8.713,12.468 -22.956,0.028 -25.897,-23.36 c 0,0 -5.676,-0.077 -8.005,-0.134 0.264,-0.123 -0.49,-7.223 -4.236,-11.858 -4.075,-4.843 -13.347,-12.837 -13.34,-12.84 l 9.737,-9.886 54.67,49.206 c 0,0 0.264,1.393 0.403,1.986 1.828,7.768 10.666,8.24 12.546,0.327 0.303,-1.28 0.67,-4.254 0.533,-4.608 -0.044,-0.114 0.23,-1.41 0.61,-2.885 2.94,-11.526 5.442,-21.47 8.333,-32.535 0.4,-1.524 0.82,-3.22 0.938,-3.77 0.477,-2.246 0.406,-2.23 2.756,-0.462 1.44,1.084 2.035,1.472 2.035,1.472 l 0.457,-0.476 c -1.613,-1.25 -4.376,-3.24 -4.376,-3.24 l 0.03,-0.848 c -8.876,-6.356 -10.704,-8.043 -15.96,-12.21 -4.072,3.587 -9.896,2.135 -13.545,0.867 -0.94,-0.37 -3.25,-0.972 -3.25,-0.972 -9.092,0.012 -17.078,-1.743 -24.62,-4.207 l 29.08,-51.79 -11.23,0.002 -0.393,0.44 -5.845,0 -0.02,-0.44 z m 107.25,170.328 c 0,0.032 0.01,0 0.01,0 z m -74.1,-169.158 3.977,0.077 -23.533,41.99 -2.5,-0.977 c 0,0 0.23,-0.12 0.226,-1.89 0,-1.9 -0.414,-2.71 -1.27,-3.832 -0.716,-0.97 -1.022,-1.024 1.077,-0.736 4.292,0.59 7.34,-4.075 5.636,-7.718 -0.66,-1.405 -0.566,-1.49 1.172,-1.664 4.786,-0.477 6.648,-6.548 3.26,-9.573 -0.7,-0.634 -0.387,-1.037 0.92,-0.755 4.14,0.893 7.347,-3.698 5.702,-7.295 -0.536,-1.004 -0.054,-1.17 0.702,-1.27 3.545,-0.83 4.75,-3.615 4.63,-6.357 z m -31.717,0.005 18.42,0.005 c -2.478,3.79 1.9,6.036 2.453,5.77 -3.97,2.17 -2.88,5.227 -0.82,6.277 1.998,1.02 4.995,0.102 4.196,-4.31 l 0.985,-0.428 c 0.958,1.083 1.91,7.8 -5.4,6.866 -1.302,-0.167 -2.008,1.048 -0.92,1.72 5.777,6.642 -3.265,9.576 -3.658,8.474 l -0.03,-1.124 c 2.445,0.45 5.574,-2.7 2.83,-5.502 -1.56,-1.592 -6.084,-0.816 -5.31,4.016 -2.672,-3.99 -5.59,-2.787 -6.375,-0.678 -0.61,1.635 0.166,3.873 2.83,4.253 -2.976,2.494 -1.53,5.276 0.516,5.89 2.26,0.68 4.565,-0.242 3.942,-4.345 0.036,-0.39 0.824,-0.262 0.89,-0.284 2.335,5.828 -3.247,7.97 -6.26,6.766 -1.117,-0.434 -1.702,1.287 -0.515,2.164 1.8,1.33 1.244,5.16 1.033,5.2 -3.347,-1.27 -8.143,-2.21 -7.963,-2.138 3.197,-12.647 2.99,-25.506 -0.846,-38.593 z m 29.37,0.005 1.664,0.005 c 0.022,2.382 -1.013,5.313 -5.078,5.765 0.018,-0.638 -0.028,-1.243 -0.192,-1.918 1.524,-0.346 3.547,0.078 3.606,-3.852 z m 7.266,0.13 5.313,0.024 -25,44.374 -3.996,-2.053 z m -13.108,3.366 c 0.94,0 1.702,0.758 1.702,1.697 0,0.94 -0.763,1.703 -1.702,1.703 -0.94,0 -1.698,-0.764 -1.698,-1.703 0,-0.94 0.76,-1.697 1.698,-1.697 z m -52.116,0.78 c -4.005,10.375 -11.707,16.662 -17.31,27.1 -5.853,10.612 -3.174,19.75 5.09,21.447 4.36,0.894 9.452,-3.35 10.104,-7.963 0.156,-1.1 0.348,-1.414 0.866,-1.414 0.757,0 0.67,1.92 0.192,4.525 -1.152,6.905 -3.523,11.105 -5.328,13.68 l 14.354,-0.12 c -2.917,-3.505 -5.155,-8.23 -5.636,-14.07 -0.353,-3.173 -0.093,-4.568 0.923,-4.024 0.335,0.18 0.42,0.495 0.568,2.135 0.52,5.692 6.48,8.794 11.295,6.29 6.646,-3.516 6.467,-10.09 4.94,-14.882 -4.595,-12.537 -14.74,-20.784 -20.058,-32.703 z m -43.865,3.927 c 1.725,1.46 3.435,3.113 4.612,4.576 -1.654,1.182 -3.393,1.254 -4.46,0.664 -1.2,-0.663 -1.72,-2.2 -1.834,-4.788 -0.063,-1.434 0.442,-1.5 1.68,-0.453 z m 2.073,13.72 c 0.05,-0.013 -2.597,5.404 -4.54,8.318 -1.384,2.562 -4.8,7.024 -3.884,10.595 1.058,3.713 5.025,4.66 7.136,1.803 0.99,-1.34 1.2,-1.18 1.173,0.317 -0.024,2.863 -1.543,4.49 -2.654,5.896 l 7.252,0.054 c -1.537,-1.847 -2.92,-3.38 -3.078,-5.886 0.01,-0.943 0.285,-1.63 0.948,-0.61 0.747,0.727 1.382,2.067 3.423,1.692 2.117,-0.378 3.964,-3.125 3.54,-5.79 -0.57,-3.095 -2.504,-6.137 -4.448,-8.747 -1.624,-2.177 -4.927,-7.532 -4.867,-7.64 z m 83.252,0.923 c 0.87,0 1.572,0.703 1.572,1.572 0,0.87 -0.703,1.577 -1.572,1.577 -0.87,0 -1.573,-0.708 -1.573,-1.577 0,-0.87 0.703,-1.572 1.572,-1.572 z m 82.3,1.255 4.23,7.368 -4.827,8.55 -4.03,-8.195 z m -0.078,2.51 -2.976,4.915 2.702,5.035 3.073,-4.785 z m 0.058,2.107 1.54,2.972 -1.872,3.014 -1.553,-3.188 z m -4.102,9.983 c 0.32,0 0.662,0.07 1.015,0.216 2.85,1.19 1.942,5.525 -1.1,5.256 -0.403,-0.042 -0.93,-0.246 -1.314,-0.505 -2.11,-1.732 -0.84,-4.974 1.4,-4.967 z m 6.968,0.082 c 2.493,0.045 3.995,3.513 1.37,5.135 -1.266,0.705 -3.16,0.277 -3.904,-0.976 -0.64,-1.075 -0.363,-2.868 1.067,-3.798 0.51,-0.26 1.006,-0.37 1.468,-0.36 z m -3.462,4.948 c 0.25,0.02 0.52,1.23 0.77,3.332 0.09,0.762 0.332,2.666 0.538,4.232 0.392,3.348 0.797,6.466 1.144,9.694 0.07,0.634 0.24,1.985 0.38,3 1.442,10.484 1.77,13.832 1.428,14.724 -0.91,3.126 -5.175,3.365 -6.958,1.55 -1.347,-1.374 -1.545,-2.882 -1.015,-6.81 0.307,-2.27 0.433,-3.41 1.332,-12.08 0.21,-2.03 0.516,-4.73 0.678,-6 0.357,-3.393 0.78,-6.572 1.24,-9.916 0.134,-1.197 0.292,-1.74 0.463,-1.726 z m -69.865,7.79 c 0,0 13.665,4.503 24.06,4.298 1.525,0 1.773,-0.014 3.673,0.606 1.126,0.368 2.9,0.867 3.938,1.106 3.206,0.62 6.022,0.446 8.517,-0.572 0.392,-0.16 0.968,-0.642 1.548,-0.466 0.355,0.107 0.87,0.812 0.87,0.812 -9.1,2.417 -30.393,1.97 -43.647,-3.616 z m 70.198,1.432 c -0.057,0.01 -0.117,0.087 -0.183,0.193 -0.223,0.35 -0.04,2.66 0.788,9.997 1.58,14.018 1.574,14.318 -0.34,15.79 -0.942,0.726 -1.088,1.017 -0.636,1.28 0.337,0.197 0.31,0.196 0.996,0.005 1.61,-0.447 2.278,-1.726 2.264,-4.337 -0.01,-1.99 -0.033,-2.23 -0.653,-7.122 -0.215,-1.692 -0.51,-4.08 -0.654,-5.308 -1.038,-8.733 -1.277,-10.548 -1.582,-10.498 z M 2653.776,742 c 13.602,4.87 27.815,6.25 44.946,3.62 0,0 1.647,1.067 2.477,1.592 l -0.578,0.134 0.26,2.366 2.908,-0.466 c 0,0 1.574,1.25 2.746,2.02 -15.275,4.663 -39.945,3.86 -55.164,-2.905 -0.58,-0.333 -0.92,-0.6 -0.92,-0.6 0.33,-0.807 0.727,-1.286 1.13,-1.736 l 2.78,0.793 0.804,-2.534 -2.126,-0.774 z m 3.563,3.033 -0.89,2.496 3.885,1.153 0.664,-2.548 z m 5.943,1.544 -0.515,2.842 3.9,0.72 0.486,-2.765 z m 6.453,1.332 -0.308,2.74 4.136,0.437 0.254,-2.774 z m 28.424,0.042 -3.52,0.385 0.22,2.414 3.56,-0.418 z m -6.208,0.697 -3.49,0.23 0.12,2.53 3.51,-0.222 z m -15.73,0.052 0,2.688 3.578,0.135 0.043,-2.746 z m 9.84,0.337 -3.3,0.013 -0.014,2.56 3.332,0.013 z m -38.25,0.45 c 0.357,-0.01 1.17,0.783 1.507,1.67 0.66,1.744 0.356,3.677 -0.68,4.318 -1.41,0.87 -3.066,-0.494 -2.096,-1.727 0.17,-0.217 0.447,-0.436 0.615,-0.49 0.724,-0.23 0.894,-1.37 0.5,-3.346 -0.06,-0.292 0.014,-0.42 0.153,-0.423 z m 5.276,0.67 c 14.724,4.82 31.432,6.44 48.644,2.913 0,0 -8.156,33.313 -8.333,33.33 z m -7.217,0.1 c 0.776,0 0.916,1.316 0.217,2.015 -0.893,0.893 -2.596,0.177 -2.24,-0.942 0.103,-0.326 1.512,-1.073 2.024,-1.073 z m 4.232,0.775 c 0.16,-0.012 0.465,0.307 0.948,0.956 1.654,2.228 1.783,4.715 0.303,5.85 -1.736,1.327 -3.005,-0.735 -1.558,-2.535 0.374,-0.467 0.43,-1.33 0.206,-3.237 -0.078,-0.68 -0.058,-1.022 0.102,-1.033 z m 57.093,0.803 c 0.19,-0.007 0.527,0.14 1.202,0.47 1.056,0.518 1.422,1.274 0.914,1.886 -0.737,0.89 -2.76,-0.872 -2.38,-2.073 0.058,-0.18 0.117,-0.278 0.265,-0.282 z m -1.587,1.158 c 0.265,0.027 0.688,0.51 1.178,1.496 0.315,0.632 0.498,0.813 1.03,1.005 1.258,0.454 1.492,1.758 0.384,2.145 -1.203,0.42 -2.1,-0.446 -2.65,-2.56 -0.363,-1.392 -0.282,-2.12 0.058,-2.086 z m -52.67,0.933 c 0.184,-0.012 0.534,0.398 1.088,1.216 1.646,2.43 1.08,7.09 -0.995,8.18 -0.913,0.48 -1.55,0.377 -2.283,-0.357 -1.072,-1.072 -0.808,-1.92 0.783,-2.506 1.356,-0.498 1.794,-2.04 1.376,-4.847 -0.167,-1.12 -0.174,-1.675 0.033,-1.688 z m 7.84,0.77 c 10.055,8.29 19.132,17.18 30.832,27.557 2.78,-8.55 6.83,-26.297 6.843,-26.356 -0.442,0.366 -19.654,3.09 -37.676,-1.2 z m 37.675,1.2 c 0.01,-0.007 0.012,-0.013 0.01,-0.018 l -0.01,0.02 z m 6.237,-1.177 c 0.167,0 0.652,1.247 0.928,2.385 0.25,1.03 1.246,2.757 1.63,2.822 1.98,0.336 2.825,1.44 1.846,2.42 -0.718,0.718 -2.274,0.31 -3.024,-0.79 -1.41,-2.067 -2.372,-6.837 -1.38,-6.837 z m -112.195,1.144 c 1.196,0.01 2.345,0.764 2.635,2.318 0.338,1.81 -0.684,3.124 -1.55,2.913 -0.94,-0.35 -1.26,-1.84 -1.26,-1.84 0,0 -0.223,1.214 -0.61,1.827 -0.842,1.286 -2.615,-0.624 -2.297,-2.477 0.31,-1.81 1.727,-2.752 3.082,-2.74 z m 71.567,0.476 c 10.95,1.645 20.37,2.072 33.434,0.654 l -6.155,23.9 z m -8.27,0.04 c 0.16,0.01 0.494,0.3 1.014,0.85 1.7,1.8 2.192,4.296 1.086,5.535 -0.673,0.753 -1.126,0.84 -1.84,0.35 -0.915,-0.625 -0.984,-1.566 -0.146,-2 0.77,-0.398 0.84,-1.274 0.23,-2.933 -0.453,-1.237 -0.582,-1.82 -0.345,-1.803 z m -71.438,0.614 4,1.66 1.434,3.38 -3.99,-1.03 z m 15.128,0.447 -1.188,3.366 -3.077,1.15 1.197,-3.64 z m 104.36,0.707 c 0.15,0 0.37,0.425 0.636,1.304 0.66,2.178 0.94,2.728 1.544,3.015 0.982,0.468 1.053,1.66 0.125,2.082 -0.59,0.268 -0.783,0.213 -1.202,-0.337 -0.654,-0.857 -1.18,-2.496 -1.275,-3.967 -0.09,-1.38 -0.017,-2.094 0.173,-2.097 z m -44.536,1.52 c 0.116,-0.007 0.287,0.163 0.54,0.462 1.553,1.848 1.722,4.682 0.33,5.53 -1.348,0.822 -3.233,-0.874 -2.058,-1.85 0.106,-0.09 0.35,-0.286 0.544,-0.434 0.327,-0.25 0.355,-0.395 0.384,-2 0.022,-1.192 0.067,-1.694 0.26,-1.707 z m 11.81,0.198 19.152,17.406 4.397,-17.22 c -7.565,0.68 -15.468,0.478 -23.55,-0.186 z m -47.052,0.875 c 6.05,6.39 13.968,11.555 15.85,17.907 3.37,8.746 0.898,18.892 -6.993,24.697 -4.354,3.296 -8.623,6.765 -12.174,10.954 -5.827,6.204 -9.716,12.982 -13.61,17.9 -0.658,0.826 -2.398,3.428 -2.398,3.428 0,0 -0.852,0.973 -3.698,-1.414 -7.55,-6.714 -15.476,-11.585 -23.543,-16.224 l 3.414,-1.91 c 6.736,3.84 15.11,9.306 22.64,15.676 0,0 5.99,-8.746 7.9,-11.25 2.772,-3.598 4.72,-5.914 7.3,-8.695 6.592,-8.137 13.398,-10.83 16.23,-14.95 4.147,-6.036 4.325,-13.192 0.913,-19.3 -3.365,-5.83 -9.908,-9.827 -14.253,-14.653 z m 57.434,0.47 7.487,0 c 0,0 -1.1,0.92 -1.943,1.482 -0.53,0.354 -1.147,0.305 -2.313,-0.182 -1.133,-0.474 -3.232,-1.3 -3.232,-1.3 z m 8.574,0 1.745,0.054 c -1.305,1.64 -2.643,2.697 -4.395,4.155 -0.226,0.097 -0.353,0.137 -0.88,-0.034 -3.58,-1.184 -6.863,-2.688 -10.348,-4.11 l 3.106,-0.016 c 0,0 1.495,0.478 3.74,1.41 2.577,1.067 3.244,1.396 4.238,0.745 0.958,-0.637 1.75,-1.596 2.794,-2.203 z m 3.534,0 -0.625,2.295 c -1.043,1.304 -3.155,2.807 -4.918,4.29 -0.414,0.215 -0.4,0.254 -2.208,-0.448 -6.655,-2.584 -9.872,-4.265 -9.872,-4.265 l -1.35,-1.207 c 0,0 1.734,0.496 2.88,0.947 0.78,0.308 2.11,0.813 2.957,1.125 0.845,0.313 2.717,1.11 3.966,1.602 2.88,1.137 2.72,1.17 5.482,-1.265 2.99,-2.638 3.688,-3.073 3.688,-3.073 z m -100.822,0.213 2.904,3.327 -3.87,3.256 -2.925,-3.444 z m 110.2,0.003 c 0.67,1.25 1.117,2.728 2.2,3.78 0.817,0.78 1.02,1.38 0.536,1.818 -1.263,0.78 -1.48,-0.48 -1.872,-1.304 -0.69,-1.452 -1.53,-3.414 -0.863,-4.295 z m -105.026,0.333 c 0.074,-0.003 0.15,-0.002 0.226,0 3.097,0.046 3.828,4.623 0.913,5.722 -1.044,0.394 -2.247,0.215 -2.894,-0.433 -0.63,-0.628 -0.717,-1.16 -0.286,-1.49 0.672,-0.477 2.27,-0.51 2.27,-0.51 0,0 -1.45,-0.492 -2.098,-0.854 -1.274,-0.726 -0.17,-2.354 1.868,-2.435 z m 63.767,0.004 c 0.175,0.01 0.476,0.366 0.904,1.073 1.56,2.58 1.48,7.49 -0.15,8.732 -0.847,0.646 -1.903,0.554 -2.61,-0.23 -0.936,-1.035 -0.648,-2.08 0.74,-2.694 1.34,-0.592 1.612,-1.916 1.067,-5.188 -0.19,-1.14 -0.177,-1.705 0.048,-1.693 z m -75.154,0.082 c 0.926,-0.034 1.817,0.328 2.26,1.057 0.33,0.54 0.17,0.935 -0.45,1.204 -0.752,0.298 -2.18,0.568 -2.18,0.568 0,0 1.385,0.228 2.222,0.567 1.048,0.463 0.966,1.312 -0.568,2.04 -2.954,1.404 -5.745,-2.43 -3.307,-4.633 0.567,-0.513 1.305,-0.778 2.024,-0.803 z m 77.68,1.85 c 0.02,-0.003 0.045,-0.003 0.07,0 0.273,0.034 0.773,0.426 1.276,1.092 1.76,2.332 2.066,5.837 0.567,6.52 -1.584,0.722 -2.723,-0.766 -1.582,-2.067 0.81,-0.922 0.708,-2.27 -0.364,-4.94 -0.157,-0.387 -0.12,-0.58 0.033,-0.605 z m 38.03,0.11 c 0.14,-0.01 0.392,0.55 0.8,1.684 0.894,2.493 1.66,3.54 2.58,3.54 1.16,0 1.766,1.586 0.852,2.226 -1.805,1.264 -4.17,-1.833 -4.342,-5.694 -0.052,-1.16 -0.028,-1.744 0.11,-1.755 z m -9.54,1.246 -0.533,2.034 c 0,0 -1.23,1.197 -2.11,1.958 -1.4,1.208 -1.744,1.448 -2.848,1.072 -1.7,-0.587 -3.38,-1.118 -5.15,-1.654 l -4.093,-3.386 9.338,3.645 c 0,0 0.81,0.24 1.092,-0.043 1.223,-1.222 2.566,-2.17 4.303,-3.626 z m 8.81,1.905 c 0.117,-0.026 0.235,0.123 0.317,0.496 0.423,1.916 1.037,3.304 1.553,3.52 0.655,0.273 0.906,0.84 0.63,1.418 -0.795,1.667 -2.885,-1.276 -2.885,-4.063 0,-0.79 0.19,-1.325 0.385,-1.37 z m -33.704,0.135 c 0.114,-0.007 0.298,0.164 0.587,0.452 1.29,1.29 1.68,4.86 0.644,5.896 -1.5,1.498 -3.1,-0.73 -1.644,-2.29 0.384,-0.412 0.385,-0.44 0.293,-2.27 -0.064,-1.272 -0.07,-1.776 0.12,-1.788 z m -78.226,0.356 -1.01,3.348 -3.227,0.832 0.755,-2.756 z m 3.866,0.343 c 0.256,-0.01 0.546,0.086 0.85,0.307 1.315,0.952 1.423,2.58 0.81,3.78 -0.59,1.172 -1.79,1.508 -2.954,1.39 -1.508,-0.168 -2.647,-1.22 -2.568,-2.828 0.027,-0.806 0.378,-1.7 0.924,-2.082 0.384,-0.27 0.7,-0.158 1.03,0.393 0.31,0.54 0.84,1.76 0.84,1.76 0,0 0.018,-1.252 0.196,-1.897 0.144,-0.514 0.464,-0.807 0.872,-0.823 z m 2.462,0.293 2.337,0.798 0.923,3.174 -2.616,-1.015 z m 133.246,0.592 c 0,0 0.67,0.283 3.862,2.817 0.798,0.634 2.144,1.847 2.144,1.847 l -0.077,41.416 c 0,0 -6.292,-3.4 -7.107,-4.207 -0.434,-0.463 -0.224,-1.764 -0.072,-4.125 0.74,-6.202 1.04,-10.955 1.837,-16.696 0.558,-6.398 1.787,-8.235 -2.496,-10.948 4.61,-2.895 3.31,-7.398 0.416,-9.273 z m -37.584,0.158 -0.423,1.895 c -1.517,2.597 -2.876,2.464 -5.198,1.26 l -2.79,-2.37 c 1.805,0.376 2.775,0.954 4.54,1.51 0.875,0.242 1.196,0.086 1.812,-0.467 0.71,-0.645 1.242,-1.126 2.058,-1.827 z m -20.677,0.995 c 0.946,1.033 1.192,2.05 1.11,4.56 -0.18,1.786 -0.1,3.115 -1.567,4.116 -0.715,0.47 -1.952,0.47 -2.505,0.005 -1.325,-0.887 -0.594,-2.663 1.144,-2.75 1.096,-0.02 1.547,-3.603 0.925,-5.842 -0.098,-0.348 -0.073,-0.576 0.1,-0.592 0.172,-0.016 0.493,0.177 0.793,0.505 z m 29.636,-0.133 c 0.212,-0.003 0.588,0.543 0.81,1.433 0.325,1.288 0.78,2.012 1.492,2.375 0.914,0.466 1.21,1.362 0.625,1.89 -1.162,1.052 -2.35,-0.21 -2.73,-2.9 -0.02,-0.305 -0.553,-2.77 -0.198,-2.798 z m 24.946,0.442 c 2.59,0.04 4.058,1.854 4.055,4.052 -0.028,1.585 -0.894,3.196 -2.488,3.865 -3.807,1.12 -5.884,-1.428 -5.848,-3.907 0.03,-2 1.69,-4.05 4.282,-4.01 z m -52.318,1.437 c 2.18,2.18 2.278,6.843 0.144,6.843 -2.56,-0.848 -0.563,-2.358 -0.514,-2.75 0.2,-1.607 -0.168,-2.636 -0.544,-4.136 -0.165,-0.887 0.674,-0.217 0.914,0.043 z m 52.457,-0.212 c -0.457,-0.013 -0.424,0.447 0.414,1.17 1.52,1.308 0.774,3.725 -1.15,3.735 -0.89,0.005 -1.106,0.603 -0.332,0.914 2.99,1.2 5.03,-3.344 2.35,-5.237 -0.558,-0.395 -1.008,-0.573 -1.283,-0.582 z m -114.328,0.61 c 2.405,0.82 3.235,5.404 3.326,7.022 0.108,2.813 -1.202,7.414 -2.37,8.333 -3.026,2.38 -4.445,-6.034 -1.857,-11.45 0.227,-0.443 0.51,-1.043 0.404,-2.15 -0.105,-1.096 0.08,-1.746 0.497,-1.754 z m 79.5,0.443 c 0,0 -0.304,1.374 -0.626,2.126 -0.37,0.87 -0.645,0.897 -1.513,0.154 -0.484,-0.414 -1.284,-1.27 -1.284,-1.27 0.755,0.118 1.43,0.51 2.072,0.193 0.685,-0.338 1.237,-0.973 1.35,-1.202 z m 9.13,0.073 c 0.172,0.006 0.39,0.485 0.68,1.434 0.79,2.596 1.484,3.572 2.533,3.572 1.72,0 2.094,2.07 0.47,2.602 -0.6,0.197 -0.803,0.195 -1.57,-0.01 -1.16,-0.31 -2.742,-4.215 -2.516,-6.203 0.107,-0.935 0.233,-1.4 0.404,-1.394 z M 2594.073,774 c 0.632,-0.015 0.88,0.296 1.25,1.063 0.423,0.873 1.53,1.983 2.467,2.467 2.258,1.11 4.638,1.978 6.87,3.092 2.896,1.454 5.49,5.907 3.713,6.37 -0.644,0.15 -1.385,0.158 -2.043,0.097 -0.216,-0.113 -0.636,-0.6 -0.933,-1.087 -1.32,-2.16 -3.79,-4.276 -7.598,-5.266 -2.686,-0.697 -5.09,-4.004 -5.608,-5.558 -0.134,-0.404 -0.14,-0.72 0.22,-0.824 0.765,-0.22 1.282,-0.346 1.66,-0.356 z m 81.63,0.27 c 0.12,-0.02 0.298,0.133 0.564,0.418 1.598,1.708 1.796,4.845 0.36,5.732 -1.556,0.962 -2.92,-0.63 -1.697,-1.98 0.538,-0.597 0.538,-0.597 0.538,-2.386 0,-1.233 0.036,-1.752 0.235,-1.784 z m 23.265,1.99 c 0.192,0.008 0.48,0.54 0.828,1.583 0.493,1.48 0.56,1.598 1.125,1.89 0.954,0.493 1.11,1.232 0.408,1.932 -1.306,1.306 -2.62,-0.796 -2.625,-4.193 0,-0.816 0.095,-1.218 0.264,-1.212 z m -20.89,0.235 c 0.12,0.012 0.45,0.272 0.71,0.578 1.956,2.322 1.563,7.758 -0.622,8.574 -0.73,0.272 -0.95,0.287 -1.404,0.09 -1.627,-0.703 -1.428,-2.422 0.578,-3.514 1.5,-0.816 0.43,-5.706 0.74,-5.728 z m -100.1,1.713 8.084,4.01 c 0,0 2.217,4.666 3.237,6.415 0.7,1.213 2.102,2.384 0.654,3.193 -2.43,1.648 -3.81,2.587 -3.788,3.61 0.018,0.83 1.048,1.674 2.433,3.305 1.99,2.343 1.97,1.804 0.164,5.377 -1.386,2.506 -2.564,8.18 -2.564,8.18 l -8.165,4.207 c 2.43,-5.803 5.29,-10.742 8.498,-14.272 -2.382,-1.77 -4.384,-3.61 -6.473,-6.054 1.54,-2.064 3.575,-3.73 5.453,-5.525 -3.813,-4.31 -6.202,-8.445 -7.53,-12.445 z m 102.232,0.072 c 0.012,-0.002 0.028,0 0.042,0 0.34,0.022 1.113,0.865 1.794,2.217 0.88,1.746 0.964,3.946 0.183,4.727 -1.348,1.346 -3.102,-0.384 -1.843,-1.818 0.888,-0.645 0.646,-2.25 -0.053,-3.92 -0.323,-0.8 -0.318,-1.175 -0.125,-1.206 z m -103.126,0.784 c 2.103,4.47 4.455,8.103 6.866,11.545 l -5.26,5.52 c 1.62,1.88 3.582,3.897 6.337,6.24 -3.382,3.763 -5.602,9.03 -7.823,14.004 z m 120.984,0.096 c 0.183,0.014 0.44,0.555 0.707,1.645 0.335,1.373 0.566,1.724 1.366,2.067 1.274,0.546 1.303,1.775 0.054,2.217 -0.458,0.16 -1.314,-0.3 -1.67,-0.9 -0.466,-0.86 -0.706,-2.015 -0.7,-3.073 -0.075,-1.31 0.038,-1.972 0.244,-1.957 z m 29.168,0.828 c 1.988,0.557 2.707,2.55 2.32,6.24 -0.52,4.937 -1.13,10.43 -1.626,14.965 -0.572,5.232 -0.902,7.95 -1.03,8.156 -0.403,0.65 -0.47,-1.807 -0.177,-4.54 0.444,-3.908 0.69,-7.33 1.067,-11.234 0.845,-8.686 0.64,-11.43 -0.933,-12.233 -1.215,-0.62 -1.738,-0.254 -0.84,0.592 1.71,1.318 1.655,1.87 -0.174,23.26 -0.188,2.212 -0.265,3.778 -0.265,3.778 l -2.322,-1.442 c 0,0 -0.173,-1.832 -0.39,-4.6 -0.524,-5.215 -0.83,-10.775 -1.178,-15.773 -0.373,-5.332 0.626,-7.2 3.934,-7.33 0.528,-0.02 1.115,0.024 1.614,0.16 z m -42.675,3.1 c 0.255,0.705 1.408,5.965 -1.543,4.454 -0.787,-0.443 -0.83,-1.138 -0.25,-1.813 0.65,-0.756 0.8,-1.842 0.476,-3.39 -0.198,-0.944 -0.437,-1.726 -0.437,-1.726 0.57,0.208 1.69,2.288 1.755,2.473 z m -87.752,-1.65 c 2.497,0.473 5.24,1.93 7.007,3.75 1.096,1.166 1.04,2.105 -0.674,2.214 -1.65,0.243 -1.684,0.51 -2.473,-0.17 -0.354,-0.278 -1.043,-0.96 -1.83,-1.08 -2.49,-0.386 -3.76,-5.044 -2.03,-4.715 z m 100.77,1.377 c 0.263,0.423 0.29,1.255 0.51,1.85 0.372,1.668 1.516,2.9 2.543,2.747 0.69,-0.083 1.645,0.125 1.747,0.952 0.2,0.7 -0.166,1.36 -0.923,1.664 -0.855,0.342 -1.82,0.132 -2.55,-0.553 -1.536,-1.444 -2.474,-6.157 -1.326,-6.66 z m -12.008,0.065 c 0.895,0.343 2.038,3.21 2.16,5.484 0,1.628 -0.255,3.677 -1.66,4.453 -0.89,0.46 -1.813,0.23 -2.216,-0.55 -0.494,-0.955 -0.127,-1.942 0.894,-2.403 1.25,-0.564 1.657,-3.098 0.895,-5.573 -0.043,-0.412 -0.668,-1.58 -0.073,-1.41 z m -95.364,1.19 6.588,3.337 c -0.96,1.31 -1.712,2.522 -2.23,3.904 -2.095,-2.373 -3.192,-4.794 -4.358,-7.24 z m 97.84,1.142 c 0.113,-0.003 0.492,0.36 0.823,0.68 1.644,1.592 2.353,4.483 1.36,5.54 -0.793,0.844 -2.182,0.786 -2.414,-0.1 -0.084,-0.436 0.378,-1.25 0.582,-1.64 0.304,-0.583 0.358,-2.244 -0.1,-3.458 -0.207,-0.545 -0.398,-1.018 -0.253,-1.022 z m -45.767,0.656 7.442,0.255 24.938,22.46 -2.342,-0.052 -22.913,-20.878 -7.13,0.02 z m -42.888,4.046 c -2.842,4.517 -3.617,10.21 -1.872,15.27 1.325,3.59 -1.568,3.803 -2.755,1.44 -0.912,-1.77 -1.437,-4.847 -1.16,-8.124 0.39,-5.3 2.835,-10.618 4.794,-11.257 1.987,-0.65 1.55,1.95 0.992,2.67 z m 102.182,10.87 c -0.757,3.533 -2.158,5.292 -4.145,6.026 -8.143,3.006 -11.69,-13.414 -4.137,-17.34 7.2,-2.393 9.28,6.65 8.28,11.314 z m -59.747,-10.728 7.02,0.145 c 6.4,5.822 13.28,11.253 20.13,18.33 l -3.314,0 c 0,0 -0.968,-0.92 -1.197,-1.14 -6.19,-5.528 -10.777,-10.04 -16.744,-15.18 l -6.266,-0.172 z m 53.563,1.083 c -3.796,0.153 -4.105,5.296 -3.99,7.244 0.275,2.807 1.394,6.954 4.956,6.627 2.615,-0.26 3.825,-3.356 3.586,-7.074 -0.225,-3.498 -1.652,-6.8 -4.552,-6.797 z m -54.203,1.705 6.16,0.14 c 5.426,4.732 11.166,9.873 16.87,15.546 l -2.69,0 c 0,0 -0.702,-0.668 -0.913,-0.884 -4.617,-4.173 -9.31,-8.824 -13.786,-12.574 l -6.39,-0.25 z m 54.304,0.202 c 1.08,0.4 1.26,3.025 0.318,4.112 -0.644,0.745 -2.127,-0.666 -2.26,-2.444 -0.08,-1.084 0.973,-2.028 1.943,-1.67 z m -101.807,0.327 c -0.496,1.698 -0.822,3.606 -1.024,5.67 l -2.58,-3.275 z m 103.765,3.16 c 0.63,0 1.14,0.51 1.14,1.14 0,0.63 -0.51,1.14 -1.14,1.14 -0.63,0 -1.14,-0.51 -1.14,-1.14 0,-0.63 0.51,-1.14 1.14,-1.14 z m -51.755,0.572 12.276,11.54 -3.497,0.04 -10.07,-9.128 -6.39,-0.24 1.25,-2.18 z m 47.745,0.197 c 0.63,0 1.14,0.51 1.14,1.14 0,0.63 -0.51,1.14 -1.14,1.14 -0.63,0 -1.14,-0.51 -1.14,-1.14 0,-0.63 0.51,-1.14 1.14,-1.14 z m 14.613,0.024 c 6.922,5.38 16.69,12.515 26.838,18.302 0,-0.02 -1.672,1.313 -3.212,1.735 -7.898,-4.354 -17.295,-10.495 -23.115,-15.475 -5.494,8.09 -16.05,22.804 -25.432,29.597 -5.92,4.236 -8.904,9.458 -8.886,15.56 0.017,6.315 2.247,10.424 8.458,15.595 4.007,3.336 8.386,7.593 8.386,7.593 l -2.303,1.986 c -0.383,-0.045 -6.72,-5.506 -13.133,-11.943 -3.523,-3.538 -5.09,-11.303 -4.49,-15.494 0.815,-5.698 2.714,-9.782 8.116,-14.18 2.074,-1.606 4.17,-2.853 5.997,-4.68 16.783,-17.952 22.778,-28.596 22.778,-28.596 z m -11.232,2.933 c 0.635,1.305 0.984,3.016 -1.005,3.13 -1.178,0.07 -1.853,-1.892 -0.832,-3.64 0.774,-1.375 1.46,-0.204 1.838,0.51 z m -59.146,-0.346 6.626,0.197 c 0,0 6.535,5.697 9.834,8.854 l 22.197,0 c 12.206,0 22.24,0.05 22.296,0.106 0.152,0.15 -1.577,2.47 -1.577,2.47 l -73.208,0.045 c 0.016,-0.012 4.522,-4.025 6.136,-5.15 2.858,-1.994 5.478,-3.85 7.694,-6.52 z m -44.86,2.755 c 0.48,1.767 0.88,3.57 1.708,5.198 l -5.083,2.697 c 0.934,-2.69 2.003,-5.278 3.376,-7.896 z m 141.143,14.695 c -1.01,2.75 -3.65,8.363 -6.843,12.617 -0.633,0.816 -1.067,1.453 -1.067,1.453 l 6.227,5.962 -5.405,5.746 c 3.036,3.16 5.603,7.997 6.953,11.85 -2.45,-0.97 -3.828,-1.555 -6.852,-3.237 -0.855,-2.145 -1.727,-4.418 -2.688,-6.377 -2.206,-4.47 -2.176,-4.033 -0.375,-5.348 2.636,-1.925 3.42,-2.37 2.736,-3.342 -0.48,-0.682 -3.59,-4.375 -3.78,-4.49 -0.285,-0.178 -0.157,-0.724 0.372,-1.597 1.802,-3.237 3.28,-6.804 4.198,-9.973 z m 1.178,0.226 0.164,37.575 c -2.23,-4.49 -4.55,-9.074 -7.136,-11.94 -0.097,-0.195 5.64,-5.8 5.64,-5.8 -2.102,-1.947 -3.332,-3.112 -6.27,-5.817 2.86,-4.123 5.126,-9.513 7.603,-14.017 z m -157.92,1.304 7.14,4.144 c -0.378,5.3 -0.854,12.258 -1.586,19.317 -0.613,5.507 -0.866,8.045 0.11,9.574 0.827,1.117 3.057,2.326 3.057,2.326 -3.755,1.52 -5.203,6.004 -0.993,9.358 0,0 -1.022,0.804 -1.475,1.288 l -5.857,-4.38 z m 111.748,1.9 c -1.78,1.993 -4.57,4.95 -6.712,6.366 -2.857,1.887 -6.867,5.508 -6.674,5.563 0,0 -4.204,-0.02 -7.05,-0.134 l -9.82,-8.763 c 0,0 0.352,-0.13 -13.01,-0.02 -17.272,0.143 -31.267,-0.047 -31.267,-0.047 l 1.962,-2.755 z m 35.003,1.72 c -0.968,3.107 -2.467,5.978 -4.367,8.67 -0.44,-1.91 -0.68,-3.936 -1.6,-5.558 z m -138.705,0.996 0.856,0.61 c 0,0 -0.51,6.484 -0.678,8.382 -0.3,3.506 -0.45,6.666 -0.755,10.238 -0.614,7.092 -0.51,8.137 0.88,9.232 1.072,0.8 1.802,0.437 0.852,-0.577 -0.625,-0.804 -0.623,-0.788 -0.812,-1.97 -0.132,-0.824 -0.112,-2.05 0.077,-5.377 1.06,-18.738 1.28,-19.37 1.303,-19.374 l 2.134,1.38 c -0.118,0.287 1.956,18.886 1.745,23.51 -0.248,5.405 -7.524,4.21 -7.87,0.2 -0.142,-0.923 1.24,-16.103 1.24,-16.103 z m 59.353,1.09 2.857,0.083 17.62,16.196 6.005,0.128 -0.524,2.044 -5.804,-0.014 z m 10.926,0 2.765,0 10.085,9.143 6.208,0.096 -1.183,1.76 -6.175,-0.18 z m -3.443,0.01 14.903,13.441 5.083,0.266 -0.784,1.837 -6.026,-0.17 -16.75,-15.338 z m -14.373,0.05 3.097,0 23.302,20.98 6.106,0.11 -0.09,1.89 -7.353,-0.034 z m 78.42,0.595 c 1.228,0.31 1.835,1.5 2.7,5.92 1.012,5.153 -1.178,13.52 -3.922,15.09 -1.42,1.116 -2.965,-0.068 -1.962,-1.525 3.274,-4.756 3.706,-12.537 1.77,-16.888 -0.615,-1.4 0.018,-2.848 1.413,-2.597 z m -98.866,0.775 c 7.446,0.09 9.37,15.38 2.046,17.525 -4.758,0.702 -7.21,-3.604 -7.9,-7.49 -0.813,-4.83 1.315,-10.09 5.854,-10.035 z m -4.093,9.173 c 0.446,3.065 2.347,6.575 5.11,6.275 3.634,-0.395 4.09,-5.246 3.73,-7.688 -0.435,-2.947 -2.06,-5.618 -4.655,-5.765 -3.87,-0.22 -4.527,4.814 -4.184,7.178 z m 3.993,-5.952 c 1.038,-0.016 1.803,1.372 1.52,3.093 -0.184,1.115 -0.608,2.487 -1.86,1.555 -0.585,-0.533 -1.108,-2.095 -0.968,-3.262 0.093,-0.767 0.47,-1.363 1.308,-1.385 z m 102.673,3.536 3.496,4.044 -3.972,2.784 c 0.558,-2.128 0.743,-4.39 0.476,-6.828 z m -100.14,0.365 c 0.63,0 1.14,0.516 1.14,1.146 0,0.63 -0.51,1.14 -1.14,1.14 -0.63,0 -1.14,-0.51 -1.14,-1.14 0,-0.63 0.51,-1.145 1.14,-1.145 z m -4.077,0.703 c 0.63,0 1.14,0.51 1.14,1.14 0,0.63 -0.51,1.14 -1.14,1.14 -0.63,0 -1.145,-0.51 -1.145,-1.14 0,-0.63 0.515,-1.14 1.144,-1.14 z m 2.308,1.472 c 0.572,0.173 0.938,0.7 1.245,1.157 0.763,1.134 0.862,2.558 0.32,3.154 -1.095,1.3 -2.805,-0.09 -2.6,-2.1 0.152,-1.472 0.543,-2.36 1.035,-2.21 z m 9.76,4.462 c 1.636,0 2.097,1.928 0.69,2.87 -0.917,0.614 -1.12,2.607 -0.554,5.367 0.46,1.994 0.218,2.302 -0.972,0.505 -2.032,-3.258 -1.507,-8.743 0.837,-8.743 z m -3.822,1.048 c 1.434,-0.054 1.895,1.04 1.058,1.88 -0.49,0.544 -0.44,1.98 0.106,3.16 0.774,1.71 0.592,2.225 -0.856,0.582 -2,-2.14 -1.97,-5.558 -0.308,-5.622 z m 94.797,0.832 c 1.627,2.163 3.07,4.986 4.386,8.185 l -7.056,-3.24 z m -103.086,8.697 c -0.5,-0.577 -0.74,-2.45 -1.15,-3.25 -0.318,-0.958 -0.595,-1.517 -1.113,-1.485 -2.98,0.25 -2.854,-2.6 -1.143,-3.137 3.542,-1.114 4.833,7.435 3.407,7.87 z m 14.79,-2.876 c -0.506,1.493 -0.14,2.387 -0.034,3.983 0.09,0.725 0.126,0.916 -0.47,0.36 -1.413,-1.233 -2.165,-5.443 -0.89,-6.223 1.71,-1.05 2.23,0.722 1.393,1.88 z m 70.673,-1.998 c 0.69,-0.032 1.476,0.506 1.865,1.496 0.56,1.423 0.51,4.912 0.226,6.77 -0.43,2.843 -1.117,5.455 -1.398,7.41 -0.998,1.187 -3.457,-3.01 -3.688,-6.323 -0.387,-2.627 0.518,-8.085 2.54,-9.237 0.143,-0.07 0.296,-0.11 0.456,-0.116 z m 9.523,0.447 c 0.62,-0.028 0.478,0.18 0.935,0.66 0.695,0.726 0.977,0.902 1.957,1.21 2.024,0.637 4.248,3.458 3.39,4.315 -0.676,0.537 -2.52,-0.477 -3.15,-0.693 -0.676,-0.234 -1.522,-0.525 -1.88,-0.646 -1.695,-0.57 -4.134,-3.698 -3.375,-4.327 0.406,-0.337 1.643,-0.497 2.123,-0.52 z m -4.93,0.52 c 1.252,0.012 1.595,0.325 2.312,1.673 1.063,2 3.037,3.41 5.905,4.222 3.66,1.117 6.82,3.24 6.665,7.17 -0.873,0.01 -1.747,0.067 -2.62,0.333 -1.014,-2.852 -3.535,-4.486 -5.704,-4.978 -5.004,-1.136 -9.65,-6.213 -8.328,-8.228 0.578,-0.296 1.197,-0.2 1.77,-0.193 z m -86.33,0.25 43.234,37.65 c -18.245,-6.768 -34.983,-6.622 -51.168,-4.12 z m 18.438,2.493 c -0.08,1.172 -1.69,1.422 -2.02,1.712 -0.81,0.703 -0.702,2.732 -0.356,5.1 0.264,1.42 -0.09,1.358 -0.837,0.245 -1.323,-1.972 -1.297,-5.39 -0.42,-7.405 1.13,-2.594 3.748,-1.295 3.634,0.348 z m -24.862,-1.844 c 1.658,0.172 2.115,2.428 2.184,3.924 0,2.06 -0.585,1.983 -0.914,0 -0.157,-0.88 -0.43,-1.22 -1.14,-1.433 -1.612,-0.484 -1.718,-2.49 -0.13,-2.49 z m 20.09,2.303 c -0.424,0.467 -0.434,2.65 -0.047,4.12 0.215,0.812 -0.18,0.875 -0.73,0.23 -1.79,-2.097 -1.953,-5.654 -0.293,-6.342 1.35,-0.35 1.702,1.298 1.072,1.99 z m -18.705,4.207 c 0.04,2.093 -0.437,2.286 -1.067,0.28 -0.162,-0.468 -0.448,-0.938 -0.654,-1.08 -1.177,-0.804 -1.384,-1.432 -0.702,-2.114 1.675,-1.368 2.4,2.29 2.423,2.914 z m 6.32,-1.847 -5.863,25 c 14.427,-1.21 20.983,-1.463 36.397,1.55 z m 17.478,0.414 c 0.883,0.22 1.188,1.372 0.16,2.462 -0.338,0.43 -0.652,1.098 -0.24,2.865 0.563,2.42 -0.385,1.645 -1.54,-0.638 -0.74,-1.462 -0.4,-5.195 1.62,-4.688 z m -27.595,0.077 c 1.567,0 3.02,2.545 3.043,5.33 0.017,2.248 -0.304,2.086 -1.14,-0.064 -0.588,-1.422 -1.062,-1.937 -2.13,-2.308 -1.977,-0.688 -1.805,-2.957 0.227,-2.957 z m 10.593,0.722 27.15,23.726 c -11.118,-1.777 -22.032,-1.914 -32.632,-0.582 z m 22.596,0.894 c 2.13,0 2.967,2.63 0.356,3.552 -1.557,0.548 -0.893,3.696 -0.606,5.565 0.108,0.705 -0.115,0.755 -0.563,0.126 -1.64,-2.423 -2.557,-8.528 0.814,-9.244 z m -2.876,2.958 c -0.386,0.61 -0.43,1.262 -0.163,2.442 0.69,2.538 0.87,3.008 -0.573,1.717 -1.517,-1.604 -2.18,-4.78 -0.91,-5.722 1.43,-1.056 2.716,0.116 1.646,1.564 z m -53.65,-1.96 c 2.52,-0.017 4.352,1.614 4.255,3.89 -0.106,2.505 -1.676,4.085 -3.98,4.217 -2.574,0.13 -4.163,-1.922 -4.22,-4.05 -0.05,-1.877 1.145,-4.035 3.945,-4.055 z m -0.043,1.008 c -2.884,-0.01 -3.965,3.793 -1.577,5.55 1.023,0.75 1.832,0.54 0.99,-0.26 -1.585,-1.508 -0.948,-4 1.14,-4.46 1.032,-0.225 0.632,-0.827 -0.553,-0.83 z m 35.117,0.644 -3.47,16.84 c 7.1,-1.104 15.693,-0.767 22.325,-0.145 z m -11.694,0.64 c 1.727,-0.088 2.232,2.51 2.245,3.543 0,1.337 -0.156,2.033 -0.403,1.318 -0.58,-1.686 -1.154,-2.612 -1.78,-2.612 -0.337,-0.087 -0.626,-0.223 -0.9,-0.53 -0.613,-0.81 -0.018,-1.687 0.838,-1.72 z m 12.017,0.673 2.288,1.94 c -1.472,-0.644 -2.726,1.026 -2.726,1.026 z m 23.557,3.177 c -0.664,0.836 -0.66,2.598 -0.144,4.65 0.144,0.574 -0.393,0.15 -0.933,-0.534 -1.025,-1.29 -1.505,-2.804 -1.32,-4.044 0.206,-3.137 4.185,-2.527 2.397,-0.073 z m -36.21,-1.5 c 1.482,0.168 2.04,3.26 2.006,4.198 -0.048,0.98 -0.27,1.64 -0.466,1.045 -0.38,-1.292 -1.17,-3.15 -1.85,-3.575 -1.17,-0.73 -0.84,-1.565 0.31,-1.668 z m 113.42,3.465 c 0.052,1.09 -0.402,2.208 -1.074,2.568 -0.687,0.367 -1.106,-0.13 -1.516,-1.388 -0.3,-0.924 -0.408,-1.28 -0.408,-1.28 0,0 -0.254,1.157 -0.335,1.4 -0.536,1.603 -2.28,1.62 -3.01,-0.174 -0.778,-2.09 1.393,-4.234 3.062,-4.157 1.85,0.086 3.18,1.28 3.28,3.032 z m -98.94,-2.335 c 0.52,0 2.54,0.904 2.54,0.904 l 2.01,1.78 c 0,0 -1.85,-0.803 -2.502,-1.034 -1.556,-0.55 -1.523,-0.555 -2.78,0.47 -1.293,1.06 -2.355,1.834 -2.355,1.834 l 0.4,-2.285 c 0,0 1.892,-1.668 2.687,-1.668 z m -13.19,5.612 c 0.296,2.412 -0.378,2.616 -1.034,0.31 -0.56,-1.973 -1.114,-2.692 -2.068,-2.692 -1.756,0.262 -2.347,-2.342 -0.77,-2.866 2.98,-0.836 3.745,4.294 3.872,5.247 z m 102.04,-5.296 2.744,1.275 0.582,2.84 -2.53,-0.625 z m -61.54,0.262 c 2.642,-0.733 2.968,2.557 0.943,3.043 -1.237,0.295 -1.23,2.21 -0.878,4.994 0.08,0.635 0.25,1.404 0.212,1.51 -0.19,0.503 -0.818,-0.266 -1.665,-2.05 -1.264,-3.25 -0.87,-6.872 1.386,-7.498 z m 75.536,-0.04 -0.764,3.29 -2.323,-0.16 -0.085,-2.015 z m -78.25,2.138 c -1.27,1.842 -0.128,3.542 0.154,4.984 0.05,0.838 -1.03,0.018 -1.654,-1.203 -1.3,-2.547 -1.375,-4.602 -0.207,-5.52 1.637,-0.96 2.39,0.755 1.71,1.74 z m -23.827,-0.45 c 0.45,0.004 1.06,0.248 2.338,0.74 0.97,0.373 3.212,1.284 3.212,1.284 l 2.967,2.62 c 0,0 -2.605,-0.96 -4.42,-1.726 -4.084,-1.725 -3.497,-1.78 -6.726,0.678 -0.93,0.71 -1.903,1.52 -1.903,1.52 l 0.394,-2.107 c 0,0 1.22,-1.21 2.742,-2.308 0.655,-0.472 0.95,-0.706 1.4,-0.702 z m -37.996,0.995 c 2.09,-0.06 3.464,1.603 3.967,3.46 0.292,1.077 0.04,2.07 -0.02,3.102 -1.442,11.056 -2.076,21.317 -3.403,31.555 -0.163,0.488 -0.34,0.307 -0.553,-0.573 -1.536,-9.282 -2.536,-19.47 -3.828,-28.67 -0.295,-3.433 -1.182,-7.925 3.164,-8.803 0.232,-0.044 0.457,-0.065 0.674,-0.07 z m -0.125,1.225 c -0.924,0.037 -2.014,0.67 -2.4,1.486 -0.792,1.667 -0.585,5.06 0.917,15.225 0.126,0.846 0.3,2.26 0.385,3.14 0.264,2.7 0.622,4.843 0.88,5.24 0.492,0.76 0.555,-0.055 0.202,-2.696 -0.18,-1.35 -0.425,-3.41 -0.543,-4.58 -0.675,-4.82 -0.82,-8.25 -1.24,-12.65 -0.21,-2.163 0.66,-3.757 2.294,-4.19 0.884,-0.233 0.93,-0.63 0.106,-0.898 -0.185,-0.06 -0.39,-0.086 -0.6,-0.077 z m 138.246,0.135 c 3.053,0.007 4.176,4.282 1.188,5.79 -1.11,0.558 -2.97,0.295 -3.43,-0.6 -0.224,-0.694 0.026,-1.098 0.58,-1.393 0.674,-0.36 1.663,-0.667 1.663,-0.667 0,0 -1.617,-0.313 -2.073,-1.078 -0.982,-1.65 0.82,-2.02 2.072,-2.052 z m -114.878,4.61 c -0.034,0.807 -0.445,0.474 -0.548,0 -0.33,-1.07 -1.016,-2.234 -1.59,-2.697 -0.697,-0.56 -0.863,-1.317 -0.39,-1.788 1.772,-1.566 2.52,3.984 2.528,4.486 z m 103.59,-4.62 c 0.782,-0.024 1.845,0.24 2.517,0.914 0.868,0.868 0.82,1.193 -0.633,1.723 -0.706,0.262 -1.192,0.467 -1.192,0.467 0,0 0.655,0.257 1.142,0.393 1.395,0.466 1.32,1.275 0.04,2.23 -1.743,1.302 -4.544,-0.425 -4.512,-2.717 0.027,-1.817 1.146,-2.968 2.638,-3.01 z m 6.446,-0.015 2.79,3.073 -3.26,3.376 -3.07,-3.366 z m -94.778,0.29 c 0.04,-0.003 0.078,0 0.12,0 0.865,0.015 2.244,0.6 5.626,1.96 1.86,0.75 4.006,1.602 4.006,1.602 l 3.044,2.693 c 0,0 -4.17,-1.31 -5.62,-2.044 -0.317,-0.16 -1.01,-0.454 -1.54,-0.654 -0.53,-0.2 -1.85,-0.714 -2.93,-1.15 -2.32,-0.933 -2.346,-0.94 -3.124,-0.283 -0.333,0.28 -1.15,0.92 -1.813,1.423 -0.664,0.502 -1.633,1.24 -2.154,1.635 -0.614,0.466 -1.39,1.173 -1.39,1.173 l 0.49,-2.596 c 0,0 0.44,-0.43 1.223,-1.03 l 2.404,-1.84 c 0.7,-0.536 1.063,-0.862 1.66,-0.89 z m 29.934,2.278 c 0.086,0.54 0.035,0.645 -0.587,1.28 -0.785,0.8 -0.892,2.114 -0.317,3.817 0.158,0.47 0.352,1.026 0.308,1.07 -0.83,0.83 -3.013,-4.41 -2.49,-5.97 0.622,-1.866 2.672,-1.894 3.086,-0.197 z m -47.87,0.226 c 0.57,-0.027 1.235,0.406 1.568,1.307 0.902,2.52 0.35,5.612 -0.573,2.73 -0.24,-0.608 -0.652,-1.263 -0.966,-1.595 -0.325,-0.344 -1.052,-0.743 -1.035,-1.303 0.07,-0.736 0.5,-1.117 1.005,-1.14 z m 18.662,0.07 c 0.366,0.013 0.854,0.195 1.73,0.554 0.794,0.325 3.026,1.068 4.295,1.558 1.972,0.76 4.03,1.765 4.03,1.765 l -4.462,-0.25 c 0,0 -1.517,-0.504 -2.42,-0.875 -3.267,-1.343 -3.085,-1.336 -4.712,-0.1 -0.58,0.44 -1.312,1.153 -1.312,1.153 l -2.27,0.125 c 0,0 1.068,-1.138 2.607,-2.28 0.504,-0.373 1.192,-0.905 1.525,-1.182 0.383,-0.32 0.624,-0.478 0.99,-0.467 z m 34.912,0.88 c 1.242,-0.234 1.922,0.95 1.844,1.688 -0.086,0.81 -0.84,1.617 -1.996,1.842 -0.243,0.906 -0.937,2.972 -0.532,6.055 0.326,1.444 -0.285,1.476 -0.91,0.09 -1.01,-2.243 -2.482,-8.9 1.594,-9.674 z m -3.545,2.473 c -0.528,1.126 -0.71,2.033 -0.42,3.453 0.324,1.577 0.392,1.967 -0.504,0.98 -1.737,-2.315 -1.99,-6 -0.39,-6.424 1.545,-0.408 1.884,1.268 1.313,1.99 z m -52.06,-1.726 c 2.71,0.43 3.51,5.046 3.13,7.02 -0.717,2.39 -0.68,0.775 -0.932,-0.22 -0.667,-2.406 -1.44,-3.715 -2.265,-3.853 -2.222,-0.37 -1.91,-3.26 0.068,-2.947 z m 20.774,0.91 c 0.047,-0.005 0.088,0 0.13,0.008 0.892,0.15 3.28,0.886 2.25,1.135 l -3.524,0.02 c -0.685,0.024 0.445,-1.115 1.144,-1.165 z m 94.912,0.753 c 0.342,-0.03 0.81,0.37 1.356,0.93 1.254,1.276 0.704,3.29 -0.99,4.283 -2.66,1.56 -5.687,-1.38 -4.227,-4.078 0.802,-1.48 1.765,-1.216 2.586,0.873 0.152,0.254 0,-0.26 0.28,-0.897 0.28,-0.632 0.654,-1.078 0.996,-1.11 z m -4.462,0.15 -0.798,3.212 -3.24,1.558 1.182,-3.958 z m 6.742,0.548 2.582,0.206 1.433,4.174 -3.72,-1.586 z m -61.017,2.36 c 1.877,0.076 2.068,1.85 0.99,2.626 -0.605,0.58 -0.813,1.417 -0.688,2.756 0.056,0.595 0.174,1.324 0.168,1.41 -0.017,0.284 -0.254,0.24 -0.577,-0.112 -1.983,-2.162 -1.72,-6.757 0.106,-6.68 z m -56.815,0.693 c 1.19,0 2.54,3.41 1.876,4.716 -0.417,0.766 -0.82,0.577 -0.974,-0.312 -0.113,-0.647 -0.484,-1.533 -1.444,-1.69 -1.395,-0.446 -0.94,-2.713 0.543,-2.713 z m 60.247,2.064 c 0.91,0.47 0.995,1.516 0.174,2.1 -0.638,0.455 -0.806,0.84 -0.904,2.07 0.208,2.8 -1.365,1.02 -1.513,-1.525 -0.082,-1.387 0.668,-3.444 2.242,-2.646 z m -61.247,0.86 c 0.854,0 1.87,1.534 1.645,2.43 -0.12,0.71 -0.493,0.585 -1.015,0.057 -0.202,-0.157 -0.655,-0.32 -0.867,-0.384 -1.278,-0.386 -1.063,-2.1 0.237,-2.1 z m 24.28,1.18 c 11.546,-0.055 23.556,1.778 33.54,5.764 l -0.823,1.477 -2.62,-0.9 -0.9,2.376 2.16,0.823 -1.016,2.193 c -11.782,-3.875 -24.49,-6.76 -45.605,-3.635 -1.047,-0.73 -2.942,-2.168 -2.942,-2.168 l 1.688,-0.37 -0.22,-2.347 -4.266,0.76 -1.246,-1.303 c 6.668,-1.71 14.35,-2.632 22.25,-2.67 z m 38.727,0.513 c 1.106,0.002 1.792,1.244 0.98,1.775 -0.566,0.372 -1.827,0.473 -2.08,0.168 -0.524,-0.63 0.22,-1.944 1.1,-1.943 z m -40.358,1.453 -0.048,2.433 3.48,-0.11 0.073,-2.31 z m 6.083,0.053 0.014,2.39 3.382,0.11 0.158,-2.342 z m -8.843,0.163 -3.42,0.226 0.106,2.23 3.39,-0.148 z m 15.286,0.37 -0.086,2.304 3.438,0.38 0.25,-2.342 z m -21.648,0.11 -3.438,0.438 0.293,2.294 3.342,-0.37 z m 28.294,0.746 -0.337,2.405 3.206,0.476 0.414,-2.284 z m 56.275,0.697 c 1.55,2.166 3.03,4.013 4.06,6.433 1.32,3.11 2.208,7.176 2.207,10.526 0,2 -1.398,1.598 -1.683,-0.486 -1.202,-8.778 -11.764,-10.1 -15.917,-1.99 -1.08,2.322 -1.284,5.19 -0.716,8.39 2.008,11.32 16.276,22.254 20.75,34.132 8.4,-17.214 15.772,-19.888 19.595,-33.9 3.08,-10.773 -7.405,-18.785 -15.008,-11.806 -1.388,1.28 -2.67,3.658 -2.818,5.227 -0.316,2.523 -1.437,2.147 -1.544,0.067 -0.04,-2.19 0.9,-6.396 2.226,-10.14 0.706,-1.978 1.757,-4.41 3.18,-6.455 z m -49.917,0.65 -0.318,2.427 3.26,0.692 0.438,-2.256 z m -23.077,2.797 c 10.826,-0.013 20.69,1.852 29,5.01 0,0 -1.076,2.323 -1.456,2.573 -5.963,-2.38 -16.124,-4.592 -22.99,-4.712 -2.516,-0.093 -3.074,-0.16 -4,-0.48 -5.234,-1.722 -9.854,-2.466 -14.114,0.076 l -1.74,-1.23 c 5.26,-0.838 10.38,-1.23 15.3,-1.237 z m 118.38,9.055 c 0,0 0.61,0.824 0.99,1.28 1.675,2.017 2.7,5.63 1.596,5.63 -0.274,0 -0.407,-0.254 -0.813,-0.644 -1.5,-2.22 -4.504,-1.444 -5.666,0.197 -1.194,1.686 -1.323,4.415 -0.4,6.414 3.006,6.197 8.77,13.273 8.666,14.084 3.08,-6.877 5.608,-8.816 7.89,-13.85 0.82,-2.493 0.83,-3.95 0.194,-5.866 -0.87,-2.615 -5.082,-3.808 -6.574,-1.08 -0.492,0.83 -0.88,1.07 -1.216,0.734 -0.682,-0.682 0.5,-4.415 1.885,-5.948 0.244,-0.27 0.7,-0.952 0.7,-0.952 z m -164.1,4.823 c 2.476,0.03 3.654,3.824 1.04,5.42 -0.703,0.396 -1.626,0.343 -2.367,0.01 -2.12,-1.01 -2.28,-4.163 0.19,-5.195 0.4,-0.166 0.782,-0.24 1.136,-0.235 z m 80.91,0.125 c 0.886,0.542 4.16,1.99 4.16,1.99 l -22.99,41.562 -5.565,0.043 z m -74.153,0.098 c 1.378,-0.153 2.356,1.03 2.71,2.018 0.486,1.348 -0.384,3.744 -2.812,3.606 -2.785,-0.158 -4.033,-5.163 0.103,-5.624 z m 79.062,2.162 c 0.617,0.34 2.85,0.71 3.044,1.14 0.083,0.215 -0.086,0.64 -0.136,1.187 -0.12,1.32 0.21,2.785 1.01,3.958 1.31,1.82 -0.11,0.984 -1.418,0.97 -2.956,-0.754 -6.72,3.273 -5.29,7.416 0.33,0.918 0.266,0.99 -1.317,1.473 -3.596,1.094 -5.164,4.91 -3.437,8.315 0.9,1.775 0.927,1.685 -0.657,1.816 -4.398,0.365 -6.952,4.267 -5.106,8.257 0.285,0.618 0.104,0.788 -0.856,0.967 -3.003,0.55 -4.348,3.062 -4.727,5.82 l -3.972,0.037 z m 3.81,1.467 7.63,2.082 c -3.17,10.774 -3.607,23.29 0.207,37.77 l -17.547,0.015 c 2.437,-2.188 1.474,-5.21 -1.374,-5.875 2.765,-1.587 2.767,-5.81 -0.546,-6.317 -2.912,-0.446 -4.416,2.323 -3.123,5.097 l -1.243,0.34 c 0,0 -0.557,-0.7 -0.684,-1.074 -1.1,-3.202 1.2,-6.382 5.12,-6.37 2.418,0.006 2.92,-0.68 1.583,-2.165 -2.39,-2.656 -1.637,-6.39 1.48,-7.858 1.437,-0.676 2.284,-0.23 2.284,-0.23 l 0.074,1.762 c 0,0 -0.582,0.056 -1.035,0.128 -3.446,0.55 -2.807,6.042 0.694,5.994 1.927,-0.026 3.306,-1.487 3.306,-3.586 0,-0.59 0,-1.46 0,-1.46 1.77,3.028 4.81,3.244 6.104,0.78 1.524,-2.898 -1.24,-4.72 -4.013,-4.42 0,0 0.582,-0.38 0.95,-0.568 2.95,-1.518 1.934,-5.855 -1.33,-5.855 -2.24,0 -3.547,2.08 -2.825,4.288 0.115,0.354 0.39,0.922 0.39,0.922 l -1.333,0.338 c 0,0 -0.303,-0.23 -0.438,-0.443 -2.287,-3.573 1.384,-7.51 6.01,-6.616 1.693,0.53 1.638,-0.64 0.687,-1.698 -1.022,-1.524 -1.785,-3.25 -1.033,-4.98 z m -86.244,1.558 4.007,7.06 -4.487,8.13 -4.448,-7.617 z m -0.393,3.673 -2.78,3.828 2.722,4.395 2.58,-4.447 z m -0.12,1.438 1.808,2.424 -1.823,2.976 -1.784,-2.794 z m 82.775,7.627 c 0.842,0 1.53,0.682 1.53,1.524 0,0.842 -0.688,1.524 -1.53,1.524 -0.842,0 -1.524,-0.68 -1.524,-1.523 0,-0.842 0.682,-1.524 1.524,-1.524 z m 83.242,8.395 c -1.172,0.03 -2.442,0.372 -3.76,1.054 -1.42,0.735 -1.42,0.733 -1.977,0.365 -1.352,-0.895 -1.77,-1.106 -3.294,-1.106 -0.947,0 -1.6,0.054 -1.6,0.054 l 0.13,3.654 c 3.284,-0.088 4.184,1.028 3.495,3.006 -0.716,0.897 -0.554,13.793 -0.327,18.768 -0.053,2.444 1.033,4.768 2.535,6.18 2.346,2.078 6.498,1.922 8.91,0.187 1.61,-1.16 2.377,-3.1 2.72,-5.07 0.162,-4.047 0.07,-8.102 0.07,-12.15 l 2.6,0.028 -0.028,-3.664 -2.54,-0.15 c 0,0 0.027,0.105 -0.08,-2.61 0.178,-5.683 -2.74,-8.39 -6.622,-8.546 -0.077,0 -0.153,-0.002 -0.23,0 z m -0.207,3.684 c 2.143,0.164 3.013,1.013 3.508,2.842 0.353,1.304 0.485,2.844 0.19,3.327 -0.48,0.79 -2.334,-0.583 -4.76,-3.543 -0.818,-0.997 -1.182,-1.51 -1.182,-1.51 0.47,-0.837 1.465,-1.174 2.244,-1.115 z m -3.895,4.92 c 2.227,1.915 2.542,3.86 7.797,5.707 0,0 0.148,-0.206 0.06,6.202 -0.1,7.07 -0.522,8.517 -2.655,9.103 -1.848,0.508 -3.59,-0.35 -4.356,-2.145 -0.787,-1.835 -0.977,-6.157 -0.95,-14.378 0.01,-2.984 0.102,-4.49 0.102,-4.49 z m -89.924,2.14 c 0.873,0 1.582,0.704 1.582,1.576 0,0.873 -0.71,1.582 -1.582,1.582 -0.872,0 -1.577,-0.71 -1.577,-1.582 0,-0.872 0.706,-1.577 1.578,-1.577 z m -2.39,1.074 c -0.145,0.062 0,1.433 0.348,2 -2.278,0.14 -2.88,1.884 -3.103,3.355 l -2.04,-0.005 c 0.34,-4.975 4.65,-5.087 4.794,-5.35 z"
         id="path4599" />
    </g>
  </g>
</svg>
